<?xml version="1.0" encoding="UTF-8"?>
<svg version="1.1" xmlns="http://www.w3.org/2000/svg" width="2788" height="504">
<path d="M0 0 C2.67176993 0.00536402 5.34337182 0.00001719 8.01513672 -0.00634766 C22.33753348 -0.01420874 36.34956743 0.38295203 50.42529297 3.31787109 C51.49231445 3.53636719 52.55933594 3.75486328 53.65869141 3.97998047 C63.39485264 6.04654982 72.80022428 8.80596023 82.17529297 12.13037109 C83.28259766 12.51837891 84.38990234 12.90638672 85.53076172 13.30615234 C103.5970804 19.96939536 121.26923537 28.15625889 136.89404297 39.48974609 C138.57884497 40.70141877 140.29504124 41.86971173 142.02685547 43.01318359 C145.4585553 45.32085271 148.76279774 47.74884192 152.05029297 50.25537109 C152.93974609 50.91859375 152.93974609 50.91859375 153.84716797 51.59521484 C155.3283444 52.72486784 156.75710018 53.92259266 158.17529297 55.13037109 C158.17529297 55.79037109 158.17529297 56.45037109 158.17529297 57.13037109 C159.01108887 57.47938477 159.01108887 57.47938477 159.86376953 57.83544922 C162.77452942 59.46606502 164.7971043 61.49276303 167.15966797 63.84912109 C168.56152344 65.24710938 168.56152344 65.24710938 169.99169922 66.67333984 C170.47268066 67.15851074 170.95366211 67.64368164 171.44921875 68.14355469 C172.92734145 69.63243448 174.41589208 71.1102876 175.90576172 72.58740234 C176.83517578 73.51939453 177.76458984 74.45138672 178.72216797 75.41162109 C179.57649414 76.26820312 180.43082031 77.12478516 181.31103516 78.00732422 C183.17529297 80.13037109 183.17529297 80.13037109 183.17529297 82.13037109 C184.16529297 82.46037109 185.15529297 82.79037109 186.17529297 83.13037109 C188.19091797 85.50146484 188.19091797 85.50146484 190.42529297 88.56787109 C190.82296875 89.11137207 191.22064453 89.65487305 191.63037109 90.21484375 C192.82026615 91.84736831 193.99793289 93.48878347 195.17529297 95.13037109 C195.77857422 95.96439453 196.38185547 96.79841797 197.00341797 97.65771484 C198.76147947 100.12639466 200.46846923 102.62603583 202.17529297 105.13037109 C202.82755859 106.03787109 203.47982422 106.94537109 204.15185547 107.88037109 C209.68089969 115.92261723 213.89084918 124.47886148 217.98779297 133.31787109 C218.53902832 134.50558105 219.09026367 135.69329102 219.65820312 136.91699219 C222.83687996 143.88678711 225.6899108 150.88541475 228.17529297 158.13037109 C228.43528076 158.86698975 228.69526855 159.6036084 228.96313477 160.36254883 C232.34399404 170.05196427 234.93302894 179.82624269 236.98779297 189.88037109 C237.19460693 190.87246582 237.4014209 191.86456055 237.61450195 192.88671875 C240.32587339 206.80060551 240.33929845 220.83639553 240.30566406 234.95507812 C240.30030004 237.62684805 240.30564688 240.29844995 240.31201172 242.97021484 C240.3198728 257.2926116 239.92271203 271.30464555 236.98779297 285.38037109 C236.76929688 286.44739258 236.55080078 287.51441406 236.32568359 288.61376953 C234.25911424 298.34993076 231.49970383 307.7553024 228.17529297 317.13037109 C227.59328125 318.79132813 227.59328125 318.79132813 226.99951172 320.48583984 C220.33626871 338.55215852 212.14940517 356.2243135 200.81591797 371.84912109 C199.6042453 373.53392309 198.43595233 375.25011936 197.29248047 376.98193359 C194.98481135 380.41363342 192.55682214 383.71787586 190.05029297 387.00537109 C189.38707031 387.89482422 189.38707031 387.89482422 188.71044922 388.80224609 C187.58079622 390.28342253 186.3830714 391.7121783 185.17529297 393.13037109 C184.51529297 393.13037109 183.85529297 393.13037109 183.17529297 393.13037109 C182.8262793 393.96616699 182.8262793 393.96616699 182.47021484 394.81884766 C180.83959904 397.72960754 178.81290103 399.75218242 176.45654297 402.11474609 C175.52455078 403.04931641 174.59255859 403.98388672 173.63232422 404.94677734 C173.14715332 405.42775879 172.66198242 405.90874023 172.16210938 406.40429688 C170.67322958 407.88241957 169.19537646 409.37097021 167.71826172 410.86083984 C166.78626953 411.79025391 165.85427734 412.71966797 164.89404297 413.67724609 C164.03746094 414.53157227 163.18087891 415.38589844 162.29833984 416.26611328 C160.17529297 418.13037109 160.17529297 418.13037109 158.17529297 418.13037109 C157.84529297 419.12037109 157.51529297 420.11037109 157.17529297 421.13037109 C154.80419922 423.14599609 154.80419922 423.14599609 151.73779297 425.38037109 C151.19429199 425.77804687 150.65079102 426.17572266 150.09082031 426.58544922 C148.45829575 427.77534428 146.81688059 428.95301102 145.17529297 430.13037109 C144.34126953 430.73365234 143.50724609 431.33693359 142.64794922 431.95849609 C140.17926941 433.71655759 137.67962823 435.42354736 135.17529297 437.13037109 C134.26779297 437.78263672 133.36029297 438.43490234 132.42529297 439.10693359 C124.38304683 444.63597782 115.82680258 448.8459273 106.98779297 452.94287109 C105.80008301 453.49410645 104.61237305 454.0453418 103.38867188 454.61328125 C96.41887695 457.79195809 89.42024931 460.64498893 82.17529297 463.13037109 C81.43867432 463.39035889 80.70205566 463.65034668 79.94311523 463.91821289 C70.25369979 467.29907217 60.47942137 469.88810706 50.42529297 471.94287109 C49.43319824 472.14968506 48.44110352 472.35649902 47.41894531 472.56958008 C33.50505855 475.28095152 19.46926853 475.29437658 5.35058594 475.26074219 C2.67881601 475.25537817 0.00721412 475.260725 -2.66455078 475.26708984 C-16.98694754 475.27495093 -30.99898149 474.87779016 -45.07470703 471.94287109 C-46.14172852 471.724375 -47.20875 471.50587891 -48.30810547 471.28076172 C-58.0442667 469.21419237 -67.44963834 466.45478195 -76.82470703 463.13037109 C-78.48566406 462.54835938 -78.48566406 462.54835938 -80.18017578 461.95458984 C-98.24649446 455.29134683 -115.91864943 447.10448329 -131.54345703 435.77099609 C-133.22825903 434.55932342 -134.9444553 433.39103046 -136.67626953 432.24755859 C-140.10796936 429.93988948 -143.4122118 427.51190026 -146.69970703 425.00537109 C-147.58916016 424.34214844 -147.58916016 424.34214844 -148.49658203 423.66552734 C-149.97775847 422.53587435 -151.40651424 421.33814952 -152.82470703 420.13037109 C-152.82470703 419.47037109 -152.82470703 418.81037109 -152.82470703 418.13037109 C-153.66050293 417.78135742 -153.66050293 417.78135742 -154.51318359 417.42529297 C-157.42394348 415.79467716 -159.44651836 413.76797916 -161.80908203 411.41162109 C-162.74365234 410.47962891 -163.67822266 409.54763672 -164.64111328 408.58740234 C-165.12209473 408.10223145 -165.60307617 407.61706055 -166.09863281 407.1171875 C-167.57675551 405.62830771 -169.06530614 404.15045459 -170.55517578 402.67333984 C-171.48458984 401.74134766 -172.41400391 400.80935547 -173.37158203 399.84912109 C-174.65307129 398.56424805 -174.65307129 398.56424805 -175.96044922 397.25341797 C-177.82470703 395.13037109 -177.82470703 395.13037109 -177.82470703 393.13037109 C-178.81470703 392.80037109 -179.80470703 392.47037109 -180.82470703 392.13037109 C-182.84033203 389.75927734 -182.84033203 389.75927734 -185.07470703 386.69287109 C-185.47238281 386.14937012 -185.87005859 385.60586914 -186.27978516 385.04589844 C-187.46968021 383.41337388 -188.64734695 381.77195872 -189.82470703 380.13037109 C-190.42798828 379.29634766 -191.03126953 378.46232422 -191.65283203 377.60302734 C-193.41089353 375.13434753 -195.1178833 372.63470636 -196.82470703 370.13037109 C-197.47697266 369.22287109 -198.12923828 368.31537109 -198.80126953 367.38037109 C-204.33031375 359.33812495 -208.54026324 350.7818807 -212.63720703 341.94287109 C-213.18844238 340.75516113 -213.73967773 339.56745117 -214.30761719 338.34375 C-217.48629403 331.37395507 -220.33932486 324.37532744 -222.82470703 317.13037109 C-223.08469482 316.39375244 -223.34468262 315.65713379 -223.61254883 314.89819336 C-226.9934081 305.20877792 -229.582443 295.43449949 -231.63720703 285.38037109 C-231.844021 284.38827637 -232.05083496 283.39618164 -232.26391602 282.37402344 C-234.97528746 268.46013668 -234.98871252 254.42434666 -234.95507812 240.30566406 C-234.9497141 237.63389414 -234.95506094 234.96229224 -234.96142578 232.29052734 C-234.96928686 217.96813059 -234.57212609 203.95609663 -231.63720703 189.88037109 C-231.41871094 188.81334961 -231.20021484 187.74632812 -230.97509766 186.64697266 C-228.90852831 176.91081142 -226.14911789 167.50543978 -222.82470703 158.13037109 C-222.43669922 157.02306641 -222.04869141 155.91576172 -221.64892578 154.77490234 C-214.98568277 136.70858366 -206.79881923 119.03642869 -195.46533203 103.41162109 C-194.25365936 101.72681909 -193.08536639 100.01062283 -191.94189453 98.27880859 C-189.63422541 94.84710876 -187.2062362 91.54286633 -184.69970703 88.25537109 C-184.25755859 87.66240234 -183.81541016 87.06943359 -183.35986328 86.45849609 C-182.23021029 84.97731966 -181.03248546 83.54856388 -179.82470703 82.13037109 C-179.16470703 82.13037109 -178.50470703 82.13037109 -177.82470703 82.13037109 C-177.47569336 81.2945752 -177.47569336 81.2945752 -177.11962891 80.44189453 C-175.4890131 77.53113464 -173.46231509 75.50855977 -171.10595703 73.14599609 C-169.70796875 71.74414062 -169.70796875 71.74414062 -168.28173828 70.31396484 C-167.79656738 69.8329834 -167.31139648 69.35200195 -166.81152344 68.85644531 C-165.32264365 67.37832262 -163.84479053 65.88977198 -162.36767578 64.39990234 C-161.43568359 63.47048828 -160.50369141 62.54107422 -159.54345703 61.58349609 C-158.686875 60.72916992 -157.83029297 59.87484375 -156.94775391 58.99462891 C-154.82470703 57.13037109 -154.82470703 57.13037109 -152.82470703 57.13037109 C-152.49470703 56.14037109 -152.16470703 55.15037109 -151.82470703 54.13037109 C-149.45361328 52.11474609 -149.45361328 52.11474609 -146.38720703 49.88037109 C-145.84370605 49.48269531 -145.30020508 49.08501953 -144.74023438 48.67529297 C-143.10770982 47.48539791 -141.46629466 46.30773117 -139.82470703 45.13037109 C-138.99068359 44.52708984 -138.15666016 43.92380859 -137.29736328 43.30224609 C-134.82868347 41.5441846 -132.32904229 39.83719483 -129.82470703 38.13037109 C-128.46345703 37.15197266 -128.46345703 37.15197266 -127.07470703 36.15380859 C-119.03246089 30.62476437 -110.47621664 26.41481488 -101.63720703 22.31787109 C-100.44949707 21.76663574 -99.26178711 21.21540039 -98.03808594 20.64746094 C-91.06829101 17.4687841 -84.06966337 14.61575326 -76.82470703 12.13037109 C-76.08808838 11.8703833 -75.35146973 11.61039551 -74.5925293 11.3425293 C-64.90311385 7.96167002 -55.12883543 5.37263512 -45.07470703 3.31787109 C-44.0826123 3.11105713 -43.09051758 2.90424316 -42.06835938 2.69116211 C-28.15447262 -0.02020933 -14.1186826 -0.03363439 0 0 Z M-24.91845703 38.47412109 C-40.39144886 40.31952379 -54.58563929 44.41915935 -68.94189453 50.36230469 C-71.1946132 51.28126902 -73.4779054 52.10608699 -75.76220703 52.94287109 C-80.86838027 54.9907059 -85.70576915 57.58111428 -90.57470703 60.13037109 C-91.39189209 60.55809814 -92.20907715 60.9858252 -93.05102539 61.42651367 C-100.05817427 65.15011589 -106.37386172 69.4482343 -112.57470703 74.38037109 C-113.17943848 74.85982178 -113.78416992 75.33927246 -114.40722656 75.83325195 C-115.63000572 76.80310362 -116.85218291 77.77371476 -118.07373047 78.74511719 C-119.69315054 80.02629252 -121.32482662 81.29193501 -122.95751953 82.55615234 C-123.86244141 83.26126953 -124.76736328 83.96638672 -125.69970703 84.69287109 C-126.50150391 85.31291016 -127.30330078 85.93294922 -128.12939453 86.57177734 C-128.68884766 87.08611328 -129.24830078 87.60044922 -129.82470703 88.13037109 C-129.82470703 88.79037109 -129.82470703 89.45037109 -129.82470703 90.13037109 C-130.66195312 90.47841797 -130.66195312 90.47841797 -131.51611328 90.83349609 C-138.29590893 94.64211226 -144.17301168 101.92811062 -148.82470703 108.13037109 C-148.82470703 108.79037109 -148.82470703 109.45037109 -148.82470703 110.13037109 C-149.81470703 110.46037109 -150.80470703 110.79037109 -151.82470703 111.13037109 C-153.24184112 112.68142483 -153.24184112 112.68142483 -154.53173828 114.63037109 C-155.03286133 115.34781494 -155.53398437 116.06525879 -156.05029297 116.80444336 C-156.57397461 117.57199951 -157.09765625 118.33955566 -157.63720703 119.13037109 C-158.17764648 119.91275146 -158.71808594 120.69513184 -159.27490234 121.5012207 C-160.33536436 123.03921101 -161.39260714 124.57942704 -162.44628906 126.12207031 C-163.50135684 127.65926258 -164.57825193 129.18149423 -165.66455078 130.69677734 C-172.98050217 141.05259773 -178.39277814 153.30330503 -182.82470703 165.13037109 C-183.12376953 165.91250977 -183.42283203 166.69464844 -183.73095703 167.50048828 C-200.81907654 212.84074288 -200.0413517 260.71949004 -183.82470703 306.13037109 C-183.15348036 308.12884531 -182.48454392 310.12810744 -181.82470703 312.13037109 C-178.7067324 308.44549198 -176.33578504 304.66884903 -174.01220703 300.44287109 C-171.12158497 295.25307599 -168.03289896 290.36946226 -164.46533203 285.60693359 C-162.68077744 282.91310596 -161.2938595 280.15409315 -159.87841797 277.25439453 C-158.14183423 273.75386662 -156.23111097 270.35304832 -154.32470703 266.94287109 C-153.68166626 265.78936157 -153.68166626 265.78936157 -153.02563477 264.61254883 C-145.47239357 251.09800517 -137.73921204 237.68559888 -129.96948242 224.29467773 C-126.56365362 218.42030909 -123.18919381 212.52850033 -119.82470703 206.63037109 C-104.05892158 179.01222076 -104.05892158 179.01222076 -96.79345703 167.31005859 C-94.57206869 163.72234011 -92.37867816 160.11896141 -90.19970703 156.50537109 C-89.85149902 155.93206055 -89.50329102 155.35875 -89.14453125 154.76806641 C-86.45761526 150.30199325 -83.95544196 145.74547906 -81.47119141 141.1640625 C-78.47156896 135.63717808 -75.42981025 130.1336758 -72.38720703 124.63037109 C-71.7575 123.48439453 -71.12779297 122.33841797 -70.47900391 121.15771484 C-66.97418061 114.82525918 -63.33710388 108.63994612 -59.37695312 102.58081055 C-57.21623763 99.1698163 -55.32404138 95.63345012 -53.41845703 92.07568359 C-50.65051224 86.96041307 -47.73702798 81.92896192 -44.83154297 76.89111328 C-43.82854186 75.1370774 -42.84436095 73.37357816 -41.86376953 71.60693359 C-41.25275391 70.52154297 -40.64173828 69.43615234 -40.01220703 68.31787109 C-39.46951172 67.34205078 -38.92681641 66.36623047 -38.36767578 65.36083984 C-36.82470703 63.13037109 -36.82470703 63.13037109 -33.82470703 62.13037109 C-31.24140474 61.97714751 -28.67978464 61.8733022 -26.09423828 61.81396484 C-25.3438176 61.79318375 -24.59339691 61.77240265 -23.82023621 61.75099182 C-21.42598519 61.68567183 -19.03162564 61.62669317 -16.63720703 61.56787109 C-15.01284691 61.52466917 -13.38849771 61.48105434 -11.76416016 61.43701172 C-7.78445332 61.33000847 -3.80463746 61.22869172 0.17529297 61.13037109 C-1.59166583 57.57887641 -3.44771839 54.10077858 -5.41845703 50.65771484 C-6.39135836 48.90919496 -7.30486343 47.12678839 -8.16845703 45.32177734 C-10.47596168 40.40790393 -10.47596168 40.40790393 -14.71533203 37.43115234 C-18.16946814 37.34799722 -21.4924368 38.09345218 -24.91845703 38.47412109 Z M33.17529297 39.13037109 C34.60589442 44.19190122 36.83860571 48.08829304 39.67529297 52.44287109 C43.3600016 58.20980108 46.92178 64.02722062 50.36279297 69.94287109 C53.12938298 74.69239791 55.93788936 79.38966838 58.92529297 84.00537109 C61.6809962 88.27350679 64.12126147 92.64584952 66.51904297 97.12255859 C68.45187843 100.63266073 70.48503363 104.07200296 72.55029297 107.50537109 C72.93338623 108.14224854 73.31647949 108.77912598 73.71118164 109.43530273 C75.55714368 112.49072826 77.42082819 115.53338613 79.31982422 118.55615234 C82.47549937 123.59437175 85.47155034 128.58313151 88.05029297 133.94287109 C92.29300799 142.68263282 97.70288316 150.73478047 102.95263672 158.89208984 C108.39820605 167.37333108 113.54498574 176.02915149 118.71044922 184.68261719 C120.0465378 186.91522121 121.389862 189.1431843 122.73779297 191.36865234 C126.53053157 197.63628036 130.19310254 203.94199529 133.65576172 210.39990234 C135.99649701 214.60600508 138.56642988 218.6652012 141.10888672 222.75146484 C143.53071128 226.71153714 145.82786784 230.73401979 148.11328125 234.77392578 C150.48541355 238.95465147 152.9343199 243.08201507 155.42529297 247.19287109 C159.7950988 254.4047482 163.96515275 261.72635947 168.10205078 269.07397461 C168.83053223 270.3606604 168.83053223 270.3606604 169.57373047 271.67333984 C170.21834229 272.81838989 170.21834229 272.81838989 170.87597656 273.98657227 C172.12568622 276.18912891 172.12568622 276.18912891 173.90039062 278.09643555 C175.17529297 280.13037109 175.17529297 280.13037109 175.00830078 282.60986328 C174.17686101 285.12562652 173.20006162 287.18378289 171.84716797 289.45849609 C171.37666016 290.25900391 170.90615234 291.05951172 170.42138672 291.88427734 C169.92767578 292.70798828 169.43396484 293.53169922 168.92529297 294.38037109 C167.00388962 297.62759455 165.08570148 300.87666576 163.17529297 304.13037109 C162.68867188 304.95859375 162.20205078 305.78681641 161.70068359 306.64013672 C161.24371094 307.43613281 160.78673828 308.23212891 160.31591797 309.05224609 C159.90374023 309.76477539 159.4915625 310.47730469 159.06689453 311.21142578 C157.9646085 313.23115505 157.9646085 313.23115505 158.17529297 316.13037109 C161.46694013 316.1598987 164.75855234 316.17734402 168.05029297 316.19287109 C168.96810547 316.20125 169.88591797 316.20962891 170.83154297 316.21826172 C177.00885767 316.24001283 183.04251132 315.86967217 189.17529297 315.13037109 C195.41742575 302.16594147 199.66174678 288.27847538 202.17529297 274.13037109 C202.30532715 273.42332031 202.43536133 272.71626953 202.56933594 271.98779297 C206.31906489 251.3709087 206.46072376 231.9612282 204.17529297 211.13037109 C204.03631592 209.83800537 204.03631592 209.83800537 203.89453125 208.51953125 C201.16371639 184.61410278 192.10728896 161.12874276 181.05029297 139.88037109 C180.45704224 138.73725464 180.45704224 138.73725464 179.85180664 137.57104492 C177.06408838 132.37776314 173.81328821 127.75925073 170.17529297 123.13037109 C169.28317209 121.96645711 168.39123786 120.80240003 167.49951172 119.63818359 C154.70490617 103.16097136 140.59449304 88.99034583 124.17529297 76.13037109 C123.01513672 75.21964844 123.01513672 75.21964844 121.83154297 74.29052734 C121.11998047 73.74267578 120.40841797 73.19482422 119.67529297 72.63037109 C119.04623047 72.14568359 118.41716797 71.66099609 117.76904297 71.16162109 C116.21181839 69.94928733 116.21181839 69.94928733 114.17529297 70.13037109 C114.17529297 69.47037109 114.17529297 68.81037109 114.17529297 68.13037109 C91.90298327 55.67297753 69.68910343 46.76848669 44.86279297 40.81787109 C44.15131104 40.64626465 43.4398291 40.4746582 42.70678711 40.29785156 C39.40195106 39.53166329 36.59283154 39.13037109 33.17529297 39.13037109 Z M4.17529297 71.13037109 C2.51926466 73.68555919 0.986762 76.2346559 -0.51220703 78.88037109 C-0.96136475 79.65952881 -1.41052246 80.43868652 -1.87329102 81.24145508 C-2.77952804 82.81396184 -3.68295836 84.38808965 -4.58349609 85.96386719 C-6.16252981 88.72003265 -7.77471403 91.45617523 -9.38720703 94.19287109 C-11.30659789 97.47937525 -13.19345456 100.78103324 -15.04345703 104.10693359 C-18.68280647 110.64862615 -22.31262313 117.0914205 -26.56298828 123.26318359 C-28.08846905 125.52070621 -29.43501047 127.86674339 -30.75830078 130.24755859 C-32.08655728 132.59268545 -33.48796141 134.88944464 -34.88720703 137.19287109 C-36.46764277 139.81379321 -37.9552217 142.39140044 -39.32470703 145.13037109 C-40.60221067 147.68537837 -41.96758841 150.06756943 -43.44970703 152.50537109 C-46.17527815 156.99374941 -48.76435739 161.54675204 -51.32470703 166.13037109 C-53.82631636 170.60729063 -56.34859624 175.05944861 -59.01220703 179.44287109 C-60.90985172 182.56961356 -62.71417813 185.72333922 -64.44970703 188.94287109 C-67.49082189 194.57456528 -70.65099683 200.13522862 -73.82470703 205.69287109 C-74.57228271 207.0044519 -74.57228271 207.0044519 -75.33496094 208.3425293 C-77.84946354 212.73816994 -80.4002215 217.10670887 -83.01611328 221.44287109 C-85.02484475 224.77430615 -86.94964143 228.12454738 -88.76220703 231.56787109 C-90.75076887 235.25649875 -92.85432821 238.80413135 -95.13720703 242.31787109 C-99.33097999 248.79066544 -103.04475566 255.51899432 -106.76904297 262.26855469 C-107.57657885 263.69276112 -108.4098168 265.1024228 -109.25415039 266.50512695 C-110.879239 269.22152332 -112.43054592 271.96963825 -113.96923828 274.73583984 C-114.56414062 275.80253906 -115.15904297 276.86923828 -115.77197266 277.96826172 C-117.00438682 280.18144527 -118.23616943 282.39498063 -119.46728516 284.60888672 C-123.13902358 291.18955893 -126.91766263 297.68708689 -130.82470703 304.13037109 C-132.12576437 306.3125618 -133.4140401 308.50152323 -134.69970703 310.69287109 C-135.29525391 311.70478516 -135.89080078 312.71669922 -136.50439453 313.75927734 C-137.90579006 315.82366626 -137.90579006 315.82366626 -137.82470703 317.13037109 C-122.42888491 317.16311726 -107.03305982 317.18202497 -91.63720703 317.19287109 C-89.82833385 317.19415512 -89.82833385 317.19415512 -87.98291779 317.19546509 C-35.38735282 317.22817642 17.20584467 316.94975082 69.80029297 316.63037109 C70.7853833 316.62439738 71.77047362 316.61842366 72.78541517 316.61226892 C98.24874706 316.4577343 123.71203885 316.29722286 149.17529297 316.13037109 C148.24287793 314.21122557 147.30414822 312.29514723 146.36279297 310.38037109 C145.84072266 309.31302734 145.31865234 308.24568359 144.78076172 307.14599609 C143.40933221 304.56997765 141.97705589 302.40960597 140.17529297 300.13037109 C139.29168393 298.60538851 138.44027175 297.06152522 137.61279297 295.50537109 C131.8553725 284.80891661 126.07572775 274.10869398 119.72998047 263.74755859 C118.06581424 260.94607273 116.48872069 258.10477409 114.91259766 255.25317383 C110.70694864 247.6493102 110.70694864 247.6493102 105.86279297 240.44287109 C101.6128693 234.61158048 98.20226798 228.29975469 94.66186523 222.0246582 C91.20892017 215.91075783 87.62194267 209.92150991 83.90185547 203.96630859 C81.70776134 200.36243453 79.72726078 196.66231091 77.73779297 192.94287109 C75.97783364 189.7749443 74.09072371 186.70666896 72.17529297 183.63037109 C69.17789332 178.8163656 66.40851233 173.93930626 63.73779297 168.93896484 C61.98463769 165.78766823 60.09266561 162.74686805 58.17529297 159.69287109 C54.93454492 154.49777881 52.14523058 149.20489317 49.47216797 143.70068359 C47.93945569 140.66295865 46.08911479 137.9412969 44.17529297 135.13037109 C43.26784731 133.46999839 42.37356054 131.80240906 41.48779297 130.13037109 C39.15383447 125.79002723 36.62171511 121.62721205 33.92529297 117.50537109 C30.0465337 111.57184198 26.4150915 105.52037974 22.84741211 99.39550781 C20.24574536 94.93391098 17.58678573 90.51845717 14.86279297 86.13037109 C11.81131643 81.20963307 8.91632907 76.2302796 6.17529297 71.13037109 C5.51529297 71.13037109 4.85529297 71.13037109 4.17529297 71.13037109 Z M-141.82470703 323.13037109 C-142.39318359 324.14615234 -142.96166016 325.16193359 -143.54736328 326.20849609 C-143.91812988 326.86938232 -144.28889648 327.53026855 -144.67089844 328.21118164 C-145.48600477 329.66485884 -146.2994655 331.11945991 -147.11132812 332.57495117 C-149.02115186 335.9853507 -150.94812047 339.37161913 -153.01611328 342.68896484 C-153.65419922 343.72150391 -154.29228516 344.75404297 -154.94970703 345.81787109 C-155.52978516 346.72923828 -156.10986328 347.64060547 -156.70751953 348.57958984 C-158.10245004 351.76451858 -158.05427941 352.8892183 -156.82470703 356.13037109 C-155.30189211 358.40895342 -153.7823982 360.50316042 -152.07470703 362.63037109 C-151.64416016 363.18595703 -151.21361328 363.74154297 -150.77001953 364.31396484 C-148.00314699 367.83468589 -145.04338091 371.00830828 -141.82470703 374.13037109 C-140.63941406 375.33306641 -140.63941406 375.33306641 -139.43017578 376.56005859 C-131.35585383 384.72568952 -122.8618103 392.05226014 -113.82470703 399.13037109 C-112.66455078 400.04109375 -112.66455078 400.04109375 -111.48095703 400.97021484 C-110.41361328 401.79199219 -110.41361328 401.79199219 -109.32470703 402.63037109 C-108.69564453 403.11505859 -108.06658203 403.59974609 -107.41845703 404.09912109 C-105.86123245 405.31145485 -105.86123245 405.31145485 -103.82470703 405.13037109 C-103.82470703 405.79037109 -103.82470703 406.45037109 -103.82470703 407.13037109 C-100.97376583 408.74031967 -98.11839338 410.34224913 -95.26220703 411.94287109 C-94.06241211 412.6205957 -94.06241211 412.6205957 -92.83837891 413.31201172 C-88.24685096 415.87951918 -83.6923715 418.13853198 -78.82470703 420.13037109 C-77.77412109 420.60216797 -76.72353516 421.07396484 -75.64111328 421.56005859 C-66.88586199 425.44894572 -58.05176491 428.5648382 -48.82470703 431.13037109 C-48.06319336 431.35112305 -47.30167969 431.571875 -46.51708984 431.79931641 C2.16468532 445.62644393 55.95093285 437.65063809 100.17529297 414.13037109 C101.75697266 413.34146484 101.75697266 413.34146484 103.37060547 412.53662109 C105.64252501 411.39749709 107.85302721 410.21728523 110.05029297 408.94287109 C111.08154297 408.34474609 112.11279297 407.74662109 113.17529297 407.13037109 C113.17529297 406.47037109 113.17529297 405.81037109 113.17529297 405.13037109 C113.73345703 404.87126953 114.29162109 404.61216797 114.86669922 404.34521484 C123.4643481 399.82090215 130.89845563 392.98350414 138.22607422 386.66552734 C139.91386067 385.21470164 141.61295106 383.77630175 143.34326172 382.37646484 C147.14346132 379.29771594 149.92648901 375.99486012 152.76513672 372.01318359 C154.66434527 369.47739822 156.93809331 367.36757075 159.17529297 365.13037109 C160.66029297 362.65537109 160.66029297 362.65537109 162.17529297 360.13037109 C69.11529297 359.80037109 -23.94470703 359.47037109 -119.82470703 359.13037109 C-126.75470703 346.75537109 -126.75470703 346.75537109 -133.82470703 334.13037109 C-136.13470703 330.50037109 -138.44470703 326.87037109 -140.82470703 323.13037109 C-141.15470703 323.13037109 -141.48470703 323.13037109 -141.82470703 323.13037109 Z " fill="#FEFEFE" transform="translate(244.82470703125,9.86962890625)"/>
<path d="M0 0 C8.25 0 16.5 0 25 0 C25 10.23 25 20.46 25 31 C29.29 31 33.58 31 38 31 C38 20.77 38 10.54 38 0 C46.25 0 54.5 0 63 0 C63 10.23 63 20.46 63 31 C71.59864617 31.10585142 71.59864617 31.10585142 74.12329102 27.40795898 C74.80669556 25.71908569 74.80669556 25.71908569 75.50390625 23.99609375 C76.01630859 22.78115234 76.52871094 21.56621094 77.05664062 20.31445312 C77.55938876 19.02244449 78.0613319 17.73012235 78.5625 16.4375 C79.09627313 15.13989865 79.63335035 13.8436512 80.17382812 12.54882812 C81.4823571 9.37770836 82.75549562 6.1966681 84 3 C87.20961825 3.6185155 90.41742598 4.24597644 93.625 4.875 C94.52863281 5.04902344 95.43226563 5.22304687 96.36328125 5.40234375 C101.03864938 6.32376667 105.51517755 7.3461286 110 9 C108.48976704 14.2609214 106.09487758 18.67367754 103.375 23.375 C101.93125 25.89125 100.4875 28.4075 99 31 C106.26 31 113.52 31 121 31 C121 37.6 121 44.2 121 51 C118.31488281 50.96777344 115.62976562 50.93554688 112.86328125 50.90234375 C110.25510118 50.90176128 107.64742946 50.91657089 105.03930664 50.93286133 C103.23034313 50.93593862 101.42127805 50.92307476 99.61254883 50.89379883 C97.00671901 50.85441421 94.4066318 50.87286499 91.80078125 50.90234375 C90.99538406 50.87776596 90.18998688 50.85318817 89.36018372 50.8278656 C86.725599 50.80259051 86.725599 50.80259051 83 52 C80.525 56.455 80.525 56.455 78 61 C90.87 61 103.74 61 117 61 C117 67.6 117 74.2 117 81 C93.24 81 69.48 81 45 81 C45 83.64 45 86.28 45 89 C67.11 89 89.22 89 112 89 C112 95.6 112 102.2 112 109 C89.89 109 67.78 109 45 109 C45 110.98 45 112.96 45 115 C70.74 115 96.48 115 123 115 C123 121.6 123 128.2 123 135 C99.735 135.495 99.735 135.495 76 136 C93.80166072 143.03275485 111.46793855 148.38033077 130 153 C127.66912193 159.02015881 125.20293843 164.88387937 122.25 170.625 C121.93417969 171.24761719 121.61835938 171.87023437 121.29296875 172.51171875 C120.53243399 174.00974175 119.76679856 175.50517359 119 177 C99.65317239 173.09984377 81.30551643 166.50169095 64 157 C63.34966797 156.64341309 62.69933594 156.28682617 62.02929688 155.91943359 C56.48752023 152.85780674 51.07523698 149.80642773 46 146 C45.67 157.22 45.34 168.44 45 180 C35.76 180 26.52 180 17 180 C16.67 169.44 16.34 158.88 16 148 C12.57625 149.93875 9.1525 151.8775 5.625 153.875 C-12.43521485 163.79395892 -37.80978232 177 -59 177 C-59.98829417 174.48241883 -60.9657226 171.96145276 -61.9375 169.4375 C-62.35418945 168.38079102 -62.35418945 168.38079102 -62.77929688 167.30273438 C-63.18051758 166.25375977 -63.18051758 166.25375977 -63.58984375 165.18359375 C-63.83597412 164.54993896 -64.08210449 163.91628418 -64.33569336 163.26342773 C-65.23069323 160.21398127 -65.59966663 157.14784953 -66 154 C-64.74848145 153.65388672 -64.74848145 153.65388672 -63.47167969 153.30078125 C-37.66065327 146.2603911 -37.66065327 146.2603911 -13 136 C-28.51 135.67 -44.02 135.34 -60 135 C-60 128.4 -60 121.8 -60 115 C-34.59 115 -9.18 115 17 115 C17 113.02 17 111.04 17 109 C-5.11 109 -27.22 109 -50 109 C-50 102.4 -50 95.8 -50 89 C-27.89 89 -5.78 89 17 89 C17 86.36 17 83.72 17 81 C-6.1 81 -29.2 81 -53 81 C-53 74.4 -53 67.8 -53 61 C-41.12 61 -29.24 61 -17 61 C-17.99 57.7 -18.98 54.4 -20 51 C-32.21 51 -44.42 51 -57 51 C-57 44.4 -57 37.8 -57 31 C-50.07 31 -43.14 31 -36 31 C-36.97453125 28.86917969 -36.97453125 28.86917969 -37.96875 26.6953125 C-38.81269621 24.83863084 -39.65643553 22.98185513 -40.5 21.125 C-40.92925781 20.18785156 -41.35851563 19.25070313 -41.80078125 18.28515625 C-42.20683594 17.38925781 -42.61289063 16.49335938 -43.03125 15.5703125 C-43.40830078 14.74289551 -43.78535156 13.91547852 -44.17382812 13.06298828 C-45 11 -45 11 -45 9 C-42.14732627 8.18193166 -39.29304815 7.37042204 -36.4375 6.5625 C-35.63763672 6.33240234 -34.83777344 6.10230469 -34.01367188 5.86523438 C-33.22412109 5.64287109 -32.43457031 5.42050781 -31.62109375 5.19140625 C-30.9036499 4.98717041 -30.18620605 4.78293457 -29.44702148 4.57250977 C-26.32148637 3.84125367 -23.18043603 3.42146278 -20 3 C-19.67837891 3.81267334 -19.35675781 4.62534668 -19.02539062 5.46264648 C-17.81337891 8.47992458 -16.57307629 11.48343519 -15.3125 14.48071289 C-14.77355221 15.77868961 -14.24604911 17.08148144 -13.73046875 18.38891602 C-12.98620855 20.27031992 -12.19668982 22.13361992 -11.40625 23.99609375 C-10.94541016 25.12200928 -10.48457031 26.2479248 -10.00976562 27.40795898 C-9.01493164 28.69101929 -9.01493164 28.69101929 -8 30 C-5.36 30.33 -2.72 30.66 0 31 C0 20.77 0 10.54 0 0 Z M7 51 C7.99 54.3 8.98 57.6 10 61 C23.53 61 37.06 61 51 61 C52.32 57.7 53.64 54.4 55 51 C39.16 51 23.32 51 7 51 Z " fill="#FFFFFF" transform="translate(2311,112)"/>
<path d="M0 0 C9.9 0 19.8 0 30 0 C30 10.23 30 20.46 30 31 C36.27 30.67 42.54 30.34 49 30 C43.72 25.71 38.44 21.42 33 17 C36.94409251 12.39855874 40.42974628 8.51986002 44.875 4.5625 C45.84179688 3.69753906 46.80859375 2.83257812 47.8046875 1.94140625 C48.52914063 1.30074219 49.25359375 0.66007812 50 0 C54.95914981 2.69984171 59.35768147 5.6494868 63.75 9.1875 C64.3476416 9.66292236 64.9452832 10.13834473 65.56103516 10.62817383 C71.08323598 15.03287374 76.55538304 19.49985741 82 24 C79.525 26.97 79.525 26.97 77 30 C80.63 30.33 84.26 30.66 88 31 C88 38.59 88 46.18 88 54 C69.19 54 50.38 54 31 54 C33.46904653 71.49652191 33.46904653 71.49652191 36.6875 88.8125 C37.02491211 90.45895508 37.02491211 90.45895508 37.36914062 92.13867188 C37.90720777 94.76031819 38.4507103 97.38068678 39 100 C46.79588723 86.60139476 52.05178022 72.66433835 57 58 C66.7791754 60.36005774 76.41961588 62.91590374 86 66 C85.40039924 71.6731457 83.3333495 76.39612592 81.0625 81.5625 C80.66353516 82.47781494 80.26457031 83.39312988 79.85351562 84.33618164 C78.5823102 87.23024981 77.29499765 90.11650429 76 93 C75.58476074 93.92522461 75.16952148 94.85044922 74.74169922 95.80371094 C63.71314262 120.16078185 63.71314262 120.16078185 55.18359375 130.12109375 C53.79771729 131.91282206 53.79771729 131.91282206 54.1328125 133.99609375 C55.12927758 136.29873603 56.33856717 138.07889642 57.875 140.0625 C58.38804687 140.73410156 58.90109375 141.40570313 59.4296875 142.09765625 C60.88123607 143.8561243 62.28531849 145.49613999 64 147 C64.66 147 65.32 147 66 147 C67.15379222 138.80023394 68.20057687 130.65668844 68.75390625 122.390625 C69 120 69 120 70 117 C73.08380096 117.47618832 76.16695046 117.95647268 79.25 118.4375 C80.55904297 118.63956055 80.55904297 118.63956055 81.89453125 118.84570312 C83.16103516 119.04389648 83.16103516 119.04389648 84.453125 119.24609375 C85.22817383 119.36654053 86.00322266 119.4869873 86.80175781 119.61108398 C88.89996646 119.98230193 90.94043752 120.45639038 93 121 C92.78578192 126.05047005 92.55516723 131.0998486 92.31030273 136.14892578 C92.229458 137.86129117 92.15284861 139.57386262 92.08081055 141.28662109 C90.93310355 168.37250629 90.93310355 168.37250629 83.73046875 175.6640625 C79.121749 179.22203576 73.95226302 180.56224379 68.12890625 180.27734375 C55.32586526 178.60942465 46.0872032 170.6494058 38.234375 160.78125 C36.79567624 158.87194884 35.38277132 156.95006212 34 155 C32.6696875 156.1446875 32.6696875 156.1446875 31.3125 157.3125 C30.67441406 157.85648438 30.03632812 158.40046875 29.37890625 158.9609375 C27.586199 160.49754372 25.8041342 162.04657901 24.02734375 163.6015625 C17.36150654 169.39206738 10.64228105 174.5126486 3 179 C1.07798839 176.96315122 -0.8375907 174.9208332 -2.75 172.875 C-3.28882813 172.30523437 -3.82765625 171.73546875 -4.3828125 171.1484375 C-7.66822031 167.622634 -10.4416537 164.08590258 -13 160 C-11.16776703 158.31129195 -9.33436364 156.62389145 -7.5 154.9375 C-6.94900635 154.43017334 -6.3980127 153.92284668 -5.83032227 153.40014648 C-2.91452954 150.72389118 0.0303698 148.10721052 3.0625 145.5625 C8.5160784 140.85835627 13.21019004 135.36212181 18 130 C17.81679199 129.45545166 17.63358398 128.91090332 17.44482422 128.34985352 C9.43156609 104.43536618 2 79.40956391 2 54 C-15.16 54 -32.32 54 -50 54 C-50 60.27 -50 66.54 -50 73 C-33.83 73 -17.66 73 -1 73 C-0.938125 80.156875 -0.87625 87.31375 -0.8125 94.6875 C-0.77153198 98.00300903 -0.77153198 98.00300903 -0.72973633 101.38549805 C-0.41376778 145.21443831 -0.41376778 145.21443831 -13 158 C-21.72210701 165.23162037 -31.67315593 165.2956588 -42.5625 165.125 C-43.66658203 165.11597656 -44.77066406 165.10695313 -45.90820312 165.09765625 C-48.6057017 165.07430128 -51.30273077 165.04155054 -54 165 C-54.50812114 162.48056604 -55.00664534 159.95983127 -55.5 157.4375 C-55.64308594 156.73302734 -55.78617188 156.02855469 -55.93359375 155.30273438 C-56.80874925 150.78109762 -57.14523405 146.60512972 -57 142 C-57.66 142 -58.32 142 -59 142 C-59.11214844 142.52464844 -59.22429687 143.04929688 -59.33984375 143.58984375 C-62.7450197 156.96573099 -70.49987445 169.27640837 -79 180 C-86.66796096 176.14665598 -93.24527484 171.24605558 -100 166 C-98.75305642 162.63969195 -97.30973252 159.84075349 -95.3125 156.875 C-82.18671393 135.11636197 -79.96587969 108.75304383 -79.68359375 83.9296875 C-79.66514462 82.56973749 -79.64630569 81.2097927 -79.6270752 79.84985352 C-79.55918104 74.85829742 -79.49877595 69.86664172 -79.4375 64.875 C-79.293125 53.69625 -79.14875 42.5175 -79 31 C-52.93 31 -26.86 31 0 31 C0 20.77 0 10.54 0 0 Z M-50 96 C-50.24234375 97.75183594 -50.4846875 99.50367188 -50.734375 101.30859375 C-52.58247129 114.37820427 -54.61512582 127.23470324 -58 140 C-54.58340509 140.05816623 -51.16693795 140.09365195 -47.75 140.125 C-46.78191406 140.14175781 -45.81382813 140.15851563 -44.81640625 140.17578125 C-43.41455078 140.18544922 -43.41455078 140.18544922 -41.984375 140.1953125 C-40.69611816 140.21102295 -40.69611816 140.21102295 -39.38183594 140.22705078 C-36.78866536 139.97985432 -35.19974596 139.3738065 -33 138 C-31.91529301 136.3121206 -31.91529301 136.3121206 -31.3125 134.3125 C-31.08175781 133.66925781 -30.85101562 133.02601563 -30.61328125 132.36328125 C-28.6322249 124.72927428 -28.688295 116.90292735 -28.4375 109.0625 C-28.39431641 107.80630859 -28.35113281 106.55011719 -28.30664062 105.25585938 C-28.20106436 102.17068616 -28.10007713 99.0853565 -28 96 C-35.26 96 -42.52 96 -50 96 Z " fill="#FFFFFF" transform="translate(1944,112)"/>
<path d="M0 0 C8.91 0 17.82 0 27 0 C27 4.29 27 8.58 27 13 C40.2 13 53.4 13 67 13 C67 20.26 67 27.52 67 35 C53.8 35 40.6 35 27 35 C27 38.3 27 41.6 27 45 C41.85 45 56.7 45 72 45 C72 52.59 72 60.18 72 68 C60.12 68 48.24 68 36 68 C36.33 72.62 36.66 77.24 37 82 C41.62 82 46.24 82 51 82 C51.66 77.71 52.32 73.42 53 69 C55.41706304 69.30964862 57.83361887 69.62261115 60.25 69.9375 C60.93191406 70.02451172 61.61382813 70.11152344 62.31640625 70.20117188 C65.60767292 70.63255149 68.79182119 71.15460153 72 72 C72.08138426 74.87557703 72.14067851 77.74882262 72.1875 80.625 C72.21263672 81.43324219 72.23777344 82.24148437 72.26367188 83.07421875 C72.32576437 88.16580366 71.81725996 91.58156351 69 96 C61.52078072 103.47921928 50.05482934 103.02328011 40.125 103.1875 C32.53637408 103.11302057 24.75557794 102.99275564 17.9375 99.375 C12.6603465 92.90623119 12.59825192 85.9656338 12.8125 78 C12.83280273 76.55173828 12.83280273 76.55173828 12.85351562 75.07421875 C12.88854542 72.71554575 12.93765916 70.35808229 13 68 C10.69 68 8.38 68 6 68 C5.79375 69.258125 5.5875 70.51625 5.375 71.8125 C2.5496323 84.37847105 -5.6560459 94.30422819 -16.17578125 101.328125 C-22.78701579 105.24182954 -29.45363325 108.49072665 -37 110 C-39.31 105.71 -41.62 101.42 -44 97 C-43.95359375 98.72605469 -43.9071875 100.45210938 -43.859375 102.23046875 C-43.31359972 130.645928 -43.31359972 130.645928 -51.75 141.125 C-60.12435338 149.45359189 -69.83770732 148.56397294 -81 149 C-81.33 159.23 -81.66 169.46 -82 180 C-90.25 180 -98.5 180 -107 180 C-107 122.58 -107 65.16 -107 6 C-87.2 6 -67.4 6 -47 6 C-42 11 -42 11 -41.95703125 14.5078125 C-43.1309523 20.3898038 -44.94573657 26.14172886 -46.6875 31.875 C-47.21899658 33.65898193 -47.21899658 33.65898193 -47.76123047 35.47900391 C-49.38678556 40.8875362 -51.0578738 46.26635383 -52.93359375 51.59375 C-53.22081299 52.41246582 -53.50803223 53.23118164 -53.80395508 54.07470703 C-54.33616923 55.5657929 -54.88332706 57.05166211 -55.44799805 58.53076172 C-56.47723127 61.39492863 -57.14527583 63.41029484 -56.40625 66.41015625 C-55.9421875 67.26480469 -55.478125 68.11945313 -55 69 C-54.34348977 70.42469309 -53.69596892 71.85354379 -53.0546875 73.28515625 C-51.95828112 75.69126989 -50.85951864 78.09584653 -49.74609375 80.49414062 C-49.21822266 81.65913086 -49.21822266 81.65913086 -48.6796875 82.84765625 C-48.35726074 83.54898682 -48.03483398 84.25031738 -47.70263672 84.97290039 C-47 87 -47 87 -47 91 C-35.12732766 87.08536617 -25.91190375 80.47653336 -19 70 C-18.67 69.34 -18.34 68.68 -18 68 C-26.91 68 -35.82 68 -45 68 C-45 60.41 -45 52.82 -45 45 C-30.15 45 -15.3 45 0 45 C0 41.7 0 38.4 0 35 C-12.54 35 -25.08 35 -38 35 C-38 27.74 -38 20.48 -38 13 C-25.46 13 -12.92 13 0 13 C0 8.71 0 4.42 0 0 Z M-82 28 C-82 60.01 -82 92.02 -82 125 C-79.03 125 -76.06 125 -73 125 C-68.17357545 120.17357545 -67.86410361 115.52802571 -67.6875 108.9375 C-67.92418712 96.03805189 -71.28432141 83.11910247 -78.375 72.25 C-81.56609159 65.86781681 -78.38579137 58.14867496 -76.5625 51.5625 C-75.25936882 46.79466397 -73.97042703 42.02704448 -72.83984375 37.21484375 C-72.67734131 36.52382568 -72.51483887 35.83280762 -72.34741211 35.12084961 C-71.86528874 32.53581297 -71.86528874 32.53581297 -72 28 C-75.3 28 -78.6 28 -82 28 Z " fill="#FFFFFF" transform="translate(1561,112)"/>
<path d="M0 0 C55.77 0 111.54 0 169 0 C169 8.58 169 17.16 169 26 C145.9 26 122.8 26 99 26 C99 60.32 99 94.64 99 130 C124.74 130 150.48 130 177 130 C177 138.58 177 147.16 177 156 C116.28 156 55.56 156 -7 156 C-7 147.42 -7 138.84 -7 130 C18.08 130 43.16 130 69 130 C69 95.68 69 61.36 69 26 C46.23 26 23.46 26 0 26 C0 17.42 0 8.84 0 0 Z " fill="#FFFFFF" transform="translate(2058,128)"/>
<path d="M0 0 C6.6 0 13.2 0 20 0 C20.12565163 9.04691745 19.63364527 17.98187001 19 27 C22.3 27 25.6 27 29 27 C29.495 32.94 29.495 32.94 30 39 C35.67578764 26.86720676 39.78742387 15.27545677 42 2 C52.395 2.99 52.395 2.99 63 4 C62.525625 6.43375 62.05125 8.8675 61.5625 11.375 C61.41498291 12.13989746 61.26746582 12.90479492 61.11547852 13.69287109 C60.11111111 18.77777778 60.11111111 18.77777778 59 21 C60.98 21 62.96 21 65 21 C65 14.07 65 7.14 65 0 C72.26 0 79.52 0 87 0 C87.13392857 14.0625 87.13392857 14.0625 86 21 C86.90878906 20.98839844 87.81757812 20.97679687 88.75390625 20.96484375 C97.89693399 20.8992015 106.88153421 21.30525975 116 22 C116 27.94 116 33.88 116 40 C106.1 40 96.2 40 86 40 C86 44.62 86 49.24 86 54 C87.54494141 53.98259766 87.54494141 53.98259766 89.12109375 53.96484375 C99.45486972 53.88656683 109.6924453 54.27756813 120 55 C120.02779013 56.47905232 120.04673956 57.95827058 120.0625 59.4375 C120.07410156 60.26121094 120.08570313 61.08492187 120.09765625 61.93359375 C119.96909904 65.97029023 119.44600456 69.98595897 119 74 C110.42 74.33 101.84 74.66 93 75 C102.38496282 88.60139539 112.55712681 100.12151125 125 111 C123.2703384 115.20953787 120.31793255 118.35143576 117.375 121.75 C116.859375 122.35199219 116.34375 122.95398438 115.8125 123.57421875 C114.54530865 125.05260866 113.27314225 126.52673171 112 128 C103.61412011 123.9769233 98.65595305 117.17268786 93 110 C92.29617188 109.12730469 91.59234375 108.25460937 90.8671875 107.35546875 C86 101.25670547 86 101.25670547 86 99 C85.34 99 84.68 99 84 99 C84 110.55 84 122.1 84 134 C73 134 73 134 63 133 C63 122.11 63 111.22 63 100 C60.89625 102.31 58.7925 104.62 56.625 107 C49.24243962 114.97838512 41.69879289 121.93976023 32 127 C30.53308542 125.44555348 29.07679359 123.88107825 27.625 122.3125 C26.40683594 121.00732422 26.40683594 121.00732422 25.1640625 119.67578125 C23.11022491 117.13628893 22.0099332 115.07974134 21 112 C21.92941406 111.21496094 22.85882812 110.42992187 23.81640625 109.62109375 C36.74341417 98.66066919 47.72753231 87.26700533 57 73 C56.2479126 73.00523682 55.4958252 73.01047363 54.72094727 73.01586914 C51.33480658 73.03657227 47.94867916 73.04963877 44.5625 73.0625 C43.37849609 73.07087891 42.19449219 73.07925781 40.97460938 73.08789062 C39.84990234 73.09111328 38.72519531 73.09433594 37.56640625 73.09765625 C36.00321655 73.10551147 36.00321655 73.10551147 34.40844727 73.11352539 C32 73 32 73 31 72 C29.02 75.63 27.04 79.26 25 83 C23.02 81.35 21.04 79.7 19 78 C18.97494385 79.09763672 18.9498877 80.19527344 18.92407227 81.32617188 C18.82843619 85.4787564 18.72862639 89.63123273 18.62768555 93.78369141 C18.58491658 95.56589186 18.54321385 97.34811828 18.50268555 99.13037109 C18.24450182 110.44583094 17.78126142 121.7078181 17 133 C10.4 133 3.8 133 -3 133 C-3 118.81 -3 104.62 -3 90 C-5.31 93.63 -7.62 97.26 -10 101 C-11.485 101.99 -11.485 101.99 -13 103 C-16.63 99.37 -20.26 95.74 -24 92 C-22.35532229 87.88830572 -20.62142292 84.52685447 -18.375 80.75 C-11.36202123 68.68126575 -5.71691823 56.47382857 -2 43 C-7.28 43 -12.56 43 -18 43 C-18.13392857 29.60714286 -18.13392857 29.60714286 -17 26 C-14.89590361 25.97298592 -12.79170822 25.95359777 -10.6875 25.9375 C-9.51574219 25.92589844 -8.34398437 25.91429687 -7.13671875 25.90234375 C-4 26 -4 26 -1 27 C-1.01160156 25.88882813 -1.02320313 24.77765625 -1.03515625 23.6328125 C-1.09238598 15.67698604 -1.00419086 7.90800301 0 0 Z M52 39 C51.030625 40.753125 50.06125 42.50625 49.0625 44.3125 C48.51722656 45.29863281 47.97195313 46.28476563 47.41015625 47.30078125 C45.91645768 49.98562216 45.91645768 49.98562216 45 53 C48.86724543 54.26582518 52.73266019 54.11148138 56.75 54.0625 C59.1425 54.041875 61.535 54.02125 64 54 C64.33 49.05 64.66 44.1 65 39 C60.71 39 56.42 39 52 39 Z M19 43 C18.16909142 46.90834776 18.04773699 50.10181988 19 54 C22.19983474 58.67937161 26.6486835 62.4228058 31 66 C31.33 66 31.66 66 32 66 C32 61.71 32 57.42 32 53 C33.65 53 35.3 53 37 53 C33.58760784 50.14521676 33.58760784 50.14521676 29.75 47.9375 C28 47 28 47 27 44 C24.36 43.67 21.72 43.34 19 43 Z " fill="#FFFFFF" transform="translate(569,149)"/>
<path d="M0 0 C1.25854492 1.71826172 1.25854492 1.71826172 2.48046875 3.9296875 C2.92197266 4.72503906 3.36347656 5.52039063 3.81835938 6.33984375 C4.27017578 7.17644531 4.72199219 8.01304688 5.1875 8.875 C5.65091797 9.70386719 6.11433594 10.53273438 6.59179688 11.38671875 C10 17.60079161 10 17.60079161 10 21 C-9.19111608 25.93599209 -28.48982929 29.61006276 -48 33 C-48.33 40.92 -48.66 48.84 -49 57 C-28.21 57 -7.42 57 14 57 C14 64.92 14 72.84 14 81 C8.06 81 2.12 81 -4 81 C-4 112.35 -4 143.7 -4 176 C-13.24 176 -22.48 176 -32 176 C-32 144.65 -32 113.3 -32 81 C-37.61 81 -43.22 81 -49 81 C-48.97421875 82.39089844 -48.9484375 83.78179687 -48.921875 85.21484375 C-48.94424153 117.01445662 -56.99047477 149.14536487 -79 173 C-80.64101448 174.36478095 -82.30204869 175.70674175 -84 177 C-84.65802612 176.42499756 -84.65802612 176.42499756 -85.3293457 175.83837891 C-87.32216306 174.09878084 -89.31730181 172.36186674 -91.3125 170.625 C-92.00279297 170.02171875 -92.69308594 169.4184375 -93.40429688 168.796875 C-94.07138672 168.21679688 -94.73847656 167.63671875 -95.42578125 167.0390625 C-96.34484253 166.23782959 -96.34484253 166.23782959 -97.2824707 165.42041016 C-99.15400436 163.8230795 -99.15400436 163.8230795 -102 162 C-101.41786599 158.64545279 -100.41473222 157.16574599 -98 154.8125 C-77.45108511 132.06040248 -76.9934913 97.46532512 -76.68359375 68.54296875 C-76.6629661 66.90244595 -76.64196838 65.26192777 -76.62062073 63.62141418 C-76.56599888 59.34890535 -76.5163312 55.07635346 -76.46777344 50.80377197 C-76.41711481 46.42578398 -76.36166275 42.04785682 -76.30664062 37.66992188 C-76.19979413 29.11333301 -76.09819289 20.55669253 -76 12 C-75.05382813 11.89486588 -74.10765625 11.78973175 -73.1328125 11.68141174 C-69.53865935 11.28033381 -65.94549492 10.87089763 -62.35253906 10.45924377 C-60.81307366 10.28397502 -59.2733663 10.11081538 -57.73339844 9.9400177 C-39.9691723 7.96657763 -21.99247576 5.21795974 -5.0234375 -0.54467773 C-3 -1 -3 -1 0 0 Z " fill="#FFFFFF" transform="translate(2624,114)"/>
<path d="M0 0 C9.24 0 18.48 0 28 0 C28.33 17.82 28.66 35.64 29 54 C43.0841185 46.27395582 43.0841185 46.27395582 56.8125 38 C57.59383301 37.50508057 58.37516602 37.01016113 59.18017578 36.50024414 C65.15876397 32.66037283 70.79882372 28.50727751 76.3359375 24.05859375 C78.80422504 22.15128065 81.29185637 20.54117992 84 19 C91.13777851 25.99210956 97.78333254 33.17859626 104 41 C90.8976724 52.65959939 75.68750536 61.1769163 60.4375 69.6875 C59.3753125 70.28062988 58.313125 70.87375977 57.21875 71.48486328 C47.94762655 76.59662362 38.49061421 81.31186527 29 86 C28.97685348 93.52771157 28.95907309 101.05541947 28.94818783 108.58315849 C28.94296407 112.07840098 28.93587559 115.57361916 28.92456055 119.06884766 C28.91164026 123.08496334 28.9067676 127.1010534 28.90234375 131.1171875 C28.89718246 132.37554413 28.89202118 133.63390076 28.88670349 134.9303894 C28.88662796 136.09144196 28.88655243 137.25249451 28.88647461 138.44873047 C28.88314369 139.98761429 28.88314369 139.98761429 28.87974548 141.55758667 C28.83605969 144.00769257 28.83605969 144.00769257 30 146 C33.83423026 147.51550841 38.06394838 147.16197716 42.125 147.16796875 C42.90891113 147.17129715 43.69282227 147.17462555 44.50048828 147.17805481 C46.15461644 147.18310767 47.80875475 147.18546364 49.46289062 147.18530273 C51.99105588 147.18749225 54.5187867 147.20567331 57.046875 147.22460938 C58.65624851 147.22754305 60.26562409 147.22952802 61.875 147.23046875 C62.6292627 147.23765427 63.38352539 147.24483978 64.16064453 147.25224304 C69.4438037 147.30886251 69.4438037 147.30886251 74 145 C74.71692907 143.11106437 74.71692907 143.11106437 74.79296875 140.88671875 C74.86531738 140.05624023 74.93766602 139.22576172 75.01220703 138.37011719 C75.07005371 137.48485352 75.12790039 136.59958984 75.1875 135.6875 C75.26081543 134.79063477 75.33413086 133.89376953 75.40966797 132.96972656 C75.62342983 130.31412815 75.81297464 127.65759469 76 125 C76.11123155 123.59488832 76.22429452 122.18991946 76.33984375 120.78515625 C76.57599336 117.8575481 76.79321704 114.92977232 77 112 C80.58383145 112.47548837 84.16696764 112.95603003 87.75 113.4375 C89.27367187 113.63956055 89.27367187 113.63956055 90.828125 113.84570312 C92.29765625 114.04389648 92.29765625 114.04389648 93.796875 114.24609375 C94.69760742 114.36654053 95.59833984 114.4869873 96.52636719 114.61108398 C98.73450863 114.95825822 100.83800962 115.44269844 103 116 C103.07444911 121.56841139 103.12874318 127.13652964 103.16479492 132.70532227 C103.17983246 134.59762625 103.20026785 136.48989566 103.22631836 138.38208008 C103.26292399 141.11027586 103.2797769 143.83800871 103.29296875 146.56640625 C103.30845261 147.40522842 103.32393646 148.2440506 103.33988953 149.10829163 C103.34174885 155.67521626 101.85672475 160.0006754 98.375 165.625 C87.21958735 176.78041265 70.27455086 175.14038508 55.6000061 175.18768311 C14.17489831 175.18396034 14.17489831 175.18396034 6.0625 168.625 C1.61453452 162.96395302 -0.12597055 158.84886205 -0.12025452 151.64094543 C-0.12110894 150.99318089 -0.12196337 150.34541634 -0.12284368 149.67802256 C-0.12449301 147.50382625 -0.11898606 145.3297068 -0.11352539 143.15551758 C-0.11324337 141.59844464 -0.11340153 140.04137157 -0.1139679 138.48429871 C-0.11425531 134.25319473 -0.1083676 130.02211899 -0.10139394 125.79102159 C-0.0951511 121.37074822 -0.09455586 116.95047424 -0.09336853 112.53019714 C-0.09025797 104.15795613 -0.08204826 95.78572813 -0.07201904 87.41349286 C-0.06084939 77.88277206 -0.0553453 68.35205065 -0.05032361 58.82132494 C-0.03986544 39.21420916 -0.02207032 19.60710586 0 0 Z " fill="#FFFFFF" transform="translate(1734,114)"/>
<path d="M0 0 C9.57 0 19.14 0 29 0 C29.33 17.82 29.66 35.64 30 54 C44.59479062 46.50747692 44.59479062 46.50747692 58.4375 38 C59.81002233 37.08157406 61.18367969 36.16484156 62.55859375 35.25 C63.41408813 34.66992188 63.41408813 34.66992188 64.28686523 34.078125 C66.1355622 32.91468681 68.03294369 31.94707129 70 31 C76.09280926 37.67788035 81.546383 44.80166448 87 52 C72.76460867 67.12838636 48.96840416 75.54022711 30 83 C29.97683802 90.90159641 29.95906521 98.80317865 29.94818783 106.70480061 C29.94296745 110.37376924 29.93588511 114.04271465 29.92456055 117.71166992 C29.91370168 121.25187089 29.90771678 124.79204952 29.90512276 128.33226585 C29.90237367 130.34141655 29.8945664 132.35055825 29.88670349 134.35969543 C29.88662796 135.58073471 29.88655243 136.80177399 29.88647461 138.05981445 C29.88314369 139.67530937 29.88314369 139.67530937 29.87974548 141.32344055 C29.8824463 144.10288701 29.8824463 144.10288701 31 147 C35.00993448 149.00496724 40.09130412 148.22877884 44.5 148.25 C45.57121094 148.270625 46.64242188 148.29125 47.74609375 148.3125 C49.27943359 148.32023437 49.27943359 148.32023437 50.84375 148.328125 C52.25430664 148.34214355 52.25430664 148.34214355 53.69335938 148.35644531 C54.45455078 148.23881836 55.21574219 148.12119141 56 148 C59.04415035 143.43377447 59.15166592 138.99989934 59.53515625 133.60546875 C59.62216797 132.40341797 59.70917969 131.20136719 59.79882812 129.96289062 C59.88583984 128.71701172 59.97285156 127.47113281 60.0625 126.1875 C60.15337891 124.92228516 60.24425781 123.65707031 60.33789062 122.35351562 C60.56142012 119.23586743 60.78201957 116.11804027 61 113 C63.03655549 113.31056145 65.07298994 113.62191671 67.109375 113.93359375 C68.24342773 114.10689209 69.37748047 114.28019043 70.54589844 114.45874023 C84.67236611 116.67236611 84.67236611 116.67236611 86 118 C86.29375436 123.57203679 86.31422583 129.14679142 86.35009766 134.72583008 C86.36659031 136.60453741 86.3937911 138.48318374 86.43212891 140.36157227 C86.4872469 143.07601346 86.50883077 145.78897869 86.5234375 148.50390625 C86.54610687 149.33443008 86.56877625 150.16495392 86.59213257 151.02064514 C86.5665933 158.16257136 83.98561185 162.96755503 79.0078125 168.0234375 C64.25315349 178.61495621 40.66453873 175.95616031 23.25 174.25 C22.53626221 174.1883667 21.82252441 174.1267334 21.0871582 174.06323242 C14.87487861 173.35817346 9.30065391 171.44035206 4.94140625 166.81640625 C4.48636719 166.07261719 4.03132813 165.32882812 3.5625 164.5625 C3.08941406 163.82128906 2.61632813 163.08007812 2.12890625 162.31640625 C-0.05474659 157.83576218 -0.12424014 153.43657704 -0.12025452 148.514328 C-0.12162918 147.2032608 -0.12300385 145.8921936 -0.12442017 144.54139709 C-0.12088145 143.09555031 -0.11724664 141.64970375 -0.11352539 140.20385742 C-0.11324321 138.67604575 -0.11340185 137.14823395 -0.1139679 135.62042236 C-0.11425467 131.47827666 -0.10837725 127.33615995 -0.10139394 123.19402099 C-0.09514051 118.86317959 -0.09455502 114.53233752 -0.09336853 110.20149231 C-0.09026109 102.00285599 -0.0820556 93.80423301 -0.07201904 85.60560256 C-0.06083969 76.27072046 -0.05534286 66.93583773 -0.05032361 57.6009506 C-0.03987251 38.40062463 -0.0215343 19.20031696 0 0 Z " fill="#FFFFFF" transform="translate(1350,114)"/>
<path d="M0 0 C9.57 0 19.14 0 29 0 C29 57.75 29 115.5 29 175 C19.43 175 9.86 175 0 175 C0 164.11 0 153.22 0 142 C-2.55492187 142.69867188 -5.10984375 143.39734375 -7.7421875 144.1171875 C-10.24750285 144.79979719 -12.75313002 145.48125078 -15.25878906 146.16259766 C-16.98535462 146.63274681 -18.71159923 147.10407643 -20.4375 147.57666016 C-38.08633733 152.40762084 -38.08633733 152.40762084 -47 154 C-54.18912637 136.02718407 -54.18912637 136.02718407 -54 127 C-52.86159668 126.7733667 -51.72319336 126.5467334 -50.55029297 126.31323242 C-46.25972461 125.45878414 -41.96942528 124.60299135 -37.67919922 123.74682617 C-35.83486943 123.37895576 -33.99047028 123.01143285 -32.14599609 122.64428711 C-29.46953575 122.11146651 -26.79334122 121.57732703 -24.1171875 121.04296875 C-23.31449432 120.88346237 -22.51180115 120.72395599 -21.68478394 120.55961609 C-14.43922044 119.11064024 -7.22753887 117.54875833 0 116 C0 99.83 0 83.66 0 67 C-15.18 67 -30.36 67 -46 67 C-46 58.75 -46 50.5 -46 42 C-30.82 42 -15.64 42 0 42 C0 28.14 0 14.28 0 0 Z " fill="#FFFFFF" transform="translate(1300,115)"/>
<path d="M0 0 C26.73 0 53.46 0 81 0 C81 23.43 81 46.86 81 71 C63.51 71 46.02 71 28 71 C27.67 77.27 27.34 83.54 27 90 C26.55359991 93.28320067 26.11273522 96.30875076 25.375 99.5 C25.20460205 100.26642822 25.0342041 101.03285645 24.85864258 101.82250977 C21.72326623 115.12586965 17.05268223 128.82398192 9 140 C8.34 140.33 7.68 140.66 7 141 C3.67592819 139.74034737 0.57821883 137.97092764 -2.5625 136.3125 C-3.45130859 135.86455078 -4.34011719 135.41660156 -5.25585938 134.95507812 C-6.10083984 134.51228516 -6.94582031 134.06949219 -7.81640625 133.61328125 C-8.98345093 133.00673706 -8.98345093 133.00673706 -10.17407227 132.38793945 C-12 131 -12 131 -12.82641602 129.02441406 C-13.10597341 125.76409075 -11.69330602 123.39557089 -10.375 120.4375 C-7.7998375 114.40179735 -5.83584429 108.35090064 -4.1875 102 C-3.98108887 101.21165771 -3.77467773 100.42331543 -3.56201172 99.61108398 C-1.68082992 92.1755984 -0.85124463 84.96706803 -0.79467773 77.31079102 C-0.78477814 76.47096176 -0.77487854 75.63113251 -0.76467896 74.76585388 C-0.73329212 72.01189923 -0.70839753 69.25792738 -0.68359375 66.50390625 C-0.66300448 64.5857653 -0.64200751 62.66762868 -0.62062073 60.74949646 C-0.56560377 55.71737189 -0.51610517 50.68520776 -0.46777344 45.65301514 C-0.40854358 39.60643467 -0.34242842 33.559926 -0.27747345 27.51340485 C-0.17972054 18.342314 -0.09068909 9.17117567 0 0 Z M28 22 C28 30.91 28 39.82 28 49 C36.58 49 45.16 49 54 49 C54 40.09 54 31.18 54 22 C45.42 22 36.84 22 28 22 Z " fill="#FFFFFF" transform="translate(2458,152)"/>
<path d="M0 0 C11.22 0 22.44 0 34 0 C34 17.82 34 35.64 34 54 C47.11903899 53.96039538 47.11903899 53.96039538 60.23803711 53.90991211 C61.87613866 53.90699299 63.51424094 53.90444442 65.15234375 53.90234375 C66.44017761 53.8946698 66.44017761 53.8946698 67.75402832 53.88684082 C69.83636052 53.8865309 71.9186036 53.93757824 74 54 C78.95535625 58.95535625 75 67.99206799 75 75 C61.47 75 47.94 75 34 75 C34 90.51 34 106.02 34 122 C47.77724113 121.96039433 47.77724113 121.96039433 61.55444336 121.90991211 C63.2745762 121.90699302 64.99470972 121.90444445 66.71484375 121.90234375 C67.61658325 121.89722778 68.51832275 121.89211182 69.4473877 121.88684082 C71.63191745 121.88653118 73.8163633 121.9375413 76 122 C77.87634259 123.87634259 77.13246191 126.540825 77.13671875 129.03320312 C77.13285156 129.82662109 77.12898438 130.62003906 77.125 131.4375 C77.12886719 132.22705078 77.13273437 133.01660156 77.13671875 133.83007812 C77.12663067 139.74673867 77.12663067 139.74673867 76 142 C66.97676203 142.02320072 57.95353438 142.04095447 48.93027306 142.05181217 C44.74012572 142.0570241 40.54999884 142.064091 36.35986328 142.07543945 C32.31390813 142.08632847 28.26797262 142.09228957 24.22200394 142.09487724 C22.68069779 142.09672066 21.13939269 142.10032037 19.59809494 142.10573006 C17.43435111 142.11302035 15.27068778 142.11398758 13.10693359 142.11352539 C11.26160538 142.11685631 11.26160538 142.11685631 9.3789978 142.12025452 C6 142 6 142 0 141 C0 94.47 0 47.94 0 0 Z " fill="#FEFEFF" transform="translate(255,166)"/>
<path d="M0 0 C7.26 0 14.52 0 22 0 C22.02686682 3.95837814 22.04677414 7.91657562 22.0625 11.875 C22.07087891 13.00292969 22.07925781 14.13085938 22.08789062 15.29296875 C22.09111328 16.36933594 22.09433594 17.44570312 22.09765625 18.5546875 C22.10289307 19.54968262 22.10812988 20.54467773 22.11352539 21.56982422 C22 24 22 24 21 26 C25.62 25.67 30.24 25.34 35 25 C34.13375 24.02417969 33.2675 23.04835937 32.375 22.04296875 C31.24961273 20.75815161 30.12463381 19.47297671 29 18.1875 C28.42765625 17.54490234 27.8553125 16.90230469 27.265625 16.24023438 C26.72421875 15.61826172 26.1828125 14.99628906 25.625 14.35546875 C24.87089844 13.49924927 24.87089844 13.49924927 24.1015625 12.62573242 C23 11 23 11 23 8 C25.45570175 6.66161267 27.91429916 5.32913768 30.375 4 C31.42300781 3.42765625 31.42300781 3.42765625 32.4921875 2.84375 C37.7734375 0 37.7734375 0 40 0 C41.33984375 1.29296875 41.33984375 1.29296875 42.9375 3.1875 C45.24667332 5.92320851 47.56347493 8.64428207 49.94140625 11.3203125 C50.96127163 12.48408227 51.98080285 13.64814496 53 14.8125 C53.50523193 15.37541748 54.01046387 15.93833496 54.53100586 16.51831055 C55.9375 18.14453125 55.9375 18.14453125 58 21 C57 24 57 24 54 26 C56.97 26.33 59.94 26.66 63 27 C63 32.61 63 38.22 63 44 C57.48237024 44.02292644 51.96490503 44.04284851 46.44726562 44.05493164 C44.56933025 44.05996763 42.6913988 44.06679671 40.81347656 44.07543945 C38.11782868 44.08753713 35.42223253 44.09323557 32.7265625 44.09765625 C31.88380768 44.10281754 31.04105286 44.10797882 30.17276001 44.11329651 C24.22774341 44.11387171 24.22774341 44.11387171 22 43 C23.94625212 77.58835155 23.94625212 77.58835155 39 108 C40.98 108.99 40.98 108.99 43 110 C43.66 100.76 44.32 91.52 45 82 C50.94 83.32 56.88 84.64 63 86 C61.75030109 123.91849576 61.75030109 123.91849576 56 132 C50.90698677 135.19561615 45.86656285 135.88440646 40 135 C27.32366918 131.10281399 19.19969687 120.3729083 12.98095703 109.16308594 C11.00685205 105.21924105 9.45541721 101.1583349 8 97 C7.43539062 95.39125 7.43539062 95.39125 6.859375 93.75 C1.68731454 77.38467436 0.56522795 60.05429172 0 43 C-0.89525391 43.00785522 -0.89525391 43.00785522 -1.80859375 43.01586914 C-26.54722034 43.19736538 -51.26975005 42.57299569 -76 42 C-76 36.06 -76 30.12 -76 24 C-60.68448387 23.94266238 -45.37997445 24.06610815 -30.06738281 24.37231445 C-26.68301803 24.43881618 -23.29856783 24.49777756 -19.9140625 24.55664062 C-17.74999118 24.59850468 -15.58592824 24.64080496 -13.421875 24.68359375 C-12.41582214 24.70030624 -11.40976929 24.71701874 -10.37322998 24.73423767 C-9.44665588 24.75418289 -8.52008179 24.77412811 -7.56542969 24.79467773 C-6.7532196 24.81022202 -5.94100952 24.8257663 -5.10418701 24.84178162 C-3 25 -3 25 0 26 C0 17.42 0 8.84 0 0 Z " fill="#FFFFFF" transform="translate(777,152)"/>
<path d="M0 0 C9.24 0 18.48 0 28 0 C28 3.96 28 7.92 28 12 C41.53 12 55.06 12 69 12 C69 19.59 69 27.18 69 35 C55.47 35 41.94 35 28 35 C28 39.95 28 44.9 28 50 C43.84 50 59.68 50 76 50 C76 57.59 76 65.18 76 73 C34.42 73 -7.16 73 -50 73 C-50 65.41 -50 57.82 -50 50 C-33.5 50 -17 50 0 50 C0 45.05 0 40.1 0 35 C-13.53 35 -27.06 35 -41 35 C-41 27.41 -41 19.82 -41 12 C-27.47 12 -13.94 12 0 12 C0 8.04 0 4.08 0 0 Z " fill="#FFFFFF" transform="translate(1561,215)"/>
<path d="M0 0 C7.50064061 1.03069307 14.96062859 2.0861682 22.375 3.625 C23.64085937 3.88539062 24.90671875 4.14578125 26.2109375 4.4140625 C27.13132812 4.60742188 28.05171875 4.80078125 29 5 C27.11692382 13.40789306 24.56993324 21.2788472 21.3125 29.25 C20.87695801 30.32886475 20.44141602 31.40772949 19.99267578 32.51928711 C16.42092251 41.24308304 12.43597553 49.68564362 8 58 C8.99 58 9.98 58 11 58 C11 98.59 11 139.18 11 181 C1.76 181 -7.48 181 -17 181 C-17.33 154.93 -17.66 128.86 -18 102 C-21.3 106.29 -24.6 110.58 -28 115 C-29.485 115.99 -29.485 115.99 -31 117 C-31.89203125 116.16855469 -32.7840625 115.33710938 -33.703125 114.48046875 C-34.88532392 113.38271261 -36.06762074 112.2850619 -37.25 111.1875 C-37.83652344 110.64029297 -38.42304687 110.09308594 -39.02734375 109.52929688 C-41.91536679 106.85219687 -44.77521291 104.27491168 -48 102 C-47.45056295 98.12002481 -46.43143619 95.84912594 -44.0625 92.75 C-23.96476386 64.93179205 -10.28023501 32.51184004 0 0 Z " fill="#FFFFFF" transform="translate(1692,111)"/>
<path d="M0 0 C26.45639813 -0.19774324 52.8938635 0.37840046 79.34326172 0.92712402 C85.29780669 1.04999363 91.25242189 1.16936125 97.20703125 1.2890625 C108.804757 1.52270006 120.40240244 1.76008894 132 2 C132.02768522 3.64573233 132.04669585 5.29161069 132.0625 6.9375 C132.07410156 7.85402344 132.08570313 8.77054688 132.09765625 9.71484375 C131.97549365 13.8243936 131.45402433 17.91378101 131 22 C121.76 22 112.52 22 103 22 C104.629375 23.588125 106.25875 25.17625 107.9375 26.8125 C116.53565708 35.3404107 124.41371873 44.82446463 131 55 C131 55.66 131 56.32 131 57 C119.615 60.96 119.615 60.96 108 65 C106.35 62.69 104.7 60.38 103 58 C100.14499338 57.12446256 100.14499338 57.12446256 97.0625 57.5078125 C95.91136719 57.57129883 94.76023437 57.63478516 93.57421875 57.70019531 C92.39472656 57.79913086 91.21523438 57.89806641 90 58 C87.79167059 58.12246667 85.58333721 58.24486167 83.375 58.3671875 C80.91653626 58.53455364 78.45821001 58.70394752 76 58.875 C60.158034 59.92874239 44.30294324 60.54444709 28.4375 61.125 C26.62197632 61.19143707 26.62197632 61.19143707 24.76977539 61.25921631 C17.84669552 61.51127019 10.92345177 61.75838062 4 62 C3.49550598 59.41747107 2.99625699 56.83411297 2.5 54.25 C2.35691406 53.52039063 2.21382812 52.79078125 2.06640625 52.0390625 C1.41111121 48.60656468 1 45.50830509 1 42 C7.6 42 14.2 42 21 42 C21.66 40.35 22.32 38.7 23 37 C23.82847951 35.57444613 24.69670117 34.17130403 25.6015625 32.79296875 C26.09140625 32.04208984 26.58125 31.29121094 27.0859375 30.51757812 C27.59382812 29.74865234 28.10171875 28.97972656 28.625 28.1875 C29.140625 27.39923828 29.65625 26.61097656 30.1875 25.79882812 C31.45441417 23.8632648 32.72532964 21.93046058 34 20 C33.07662842 20.00523682 32.15325684 20.01047363 31.2019043 20.01586914 C27.77465186 20.03291585 24.3474445 20.0454525 20.92016602 20.05493164 C19.43708587 20.05995903 17.95401067 20.06678185 16.47094727 20.07543945 C14.33869199 20.08757482 12.20650227 20.09324425 10.07421875 20.09765625 C8.79119873 20.10289307 7.50817871 20.10812988 6.1862793 20.11352539 C3 20 3 20 0 19 C0 12.73 0 6.46 0 0 Z M55.69921875 23.6484375 C53.69611675 27.04787662 52.32701612 30.29010664 51 34 C49.74522024 36.38858169 48.38467938 38.68235967 47 41 C51.21359847 40.88022766 55.42703317 40.75591165 59.64038086 40.62768555 C61.06873082 40.5848206 62.49711629 40.54312034 63.92553711 40.50268555 C72.31308668 40.26438617 80.65195619 39.90414029 89 39 C86.7090356 34.68759643 83.71538445 31.33156535 80.42578125 27.76953125 C79 26 79 26 79 24 C80.65 23.34 82.3 22.68 84 22 C84 21.67 84 21.34 84 21 C68.89230277 18.66390509 68.89230277 18.66390509 55.69921875 23.6484375 Z " fill="#FFFFFF" transform="translate(854,226)"/>
<path d="M0 0 C1.60405891 -0.02792366 3.20827494 -0.0467943 4.8125 -0.0625 C5.70582031 -0.07410156 6.59914063 -0.08570313 7.51953125 -0.09765625 C12.35829749 0.0381116 17.17920906 0.56174628 22 1 C22 12.88 22 24.76 22 37 C31.9 37 41.8 37 52 37 C51.67 43.27 51.34 49.54 51 56 C47.473125 56.0309375 47.473125 56.0309375 43.875 56.0625 C43.16714355 56.071604 42.45928711 56.08070801 41.72998047 56.09008789 C34.79705958 56.11825572 27.90777412 55.54386611 21 55 C21.00523682 56.06210693 21.01047363 57.12421387 21.01586914 58.21850586 C21.03428495 62.24616619 21.0455623 66.273823 21.05493164 70.30151367 C21.05988984 72.0284081 21.06665843 73.75529851 21.07543945 75.48217773 C21.13263697 87.03944097 20.78955768 98.46748431 20 110 C31.22 110 42.44 110 54 110 C54 116.6 54 123.2 54 130 C39.52033277 130.05113909 25.05201664 129.886106 10.57470703 129.62768555 C6.87407676 129.56248373 3.17338255 129.50282747 -0.52734375 129.44335938 C-13.04681524 129.22995572 -25.50746034 128.85931342 -38 128 C-38 121.73 -38 115.46 -38 109 C-26.12 109 -14.24 109 -2 109 C-2.020625 104.359375 -2.04125 99.71875 -2.0625 94.9375 C-2.09148972 81.59798731 -1.739299 68.32058384 -1 55 C-2.17175781 55.01160156 -3.34351563 55.02320313 -4.55078125 55.03515625 C-13.09144781 55.09334261 -21.50709548 55.04758294 -30 54 C-30.02698422 51.56242587 -30.04683099 49.12515085 -30.0625 46.6875 C-30.07087891 45.99720703 -30.07925781 45.30691406 -30.08789062 44.59570312 C-30.10307906 41.4516975 -30.00193327 39.00579981 -29 36 C-19.76 36 -10.52 36 -1 36 C-1 31.38 -1 26.76 -1 22 C-0.85972426 18.03721035 -0.70260564 14.08402371 -0.5 10.125 C-0.45230469 9.13886719 -0.40460938 8.15273437 -0.35546875 7.13671875 C-0.23997986 4.75764764 -0.12149115 2.37877078 0 0 Z " fill="#FFFFFF" transform="translate(1088,159)"/>
<path d="M0 0 C5.40558511 0.40558511 5.40558511 0.40558511 6.6875 1.6875 C6.78396028 3.52244486 6.80937344 5.36114587 6.80775452 7.19862366 C6.80912918 8.3948082 6.81050385 9.59099274 6.81192017 10.82342529 C6.80838057 12.16101099 6.80474575 13.49859644 6.80102539 14.83618164 C6.80074352 16.23532611 6.80090125 17.63447073 6.8014679 19.03361511 C6.80175588 22.84336459 6.79585898 26.65308286 6.78889394 30.46282506 C6.78266059 34.44001309 6.78205662 38.41720176 6.78086853 42.39439392 C6.77775516 49.93088539 6.76954169 57.46736243 6.75951904 65.00384754 C6.74835808 73.58169828 6.7428475 82.1595497 6.73782361 90.7374059 C6.72735908 108.38744546 6.70975953 126.03747157 6.6875 143.6875 C2.22918018 143.71641546 -2.22911569 143.73426981 -6.6875 143.75 C-7.95851562 143.75837891 -9.22953125 143.76675781 -10.5390625 143.77539062 C-11.75078125 143.77861328 -12.9625 143.78183594 -14.2109375 143.78515625 C-15.33161621 143.79039307 -16.45229492 143.79562988 -17.60693359 143.80102539 C-20.3125 143.6875 -20.3125 143.6875 -22.3125 142.6875 C-22.3125 125.8575 -22.3125 109.0275 -22.3125 91.6875 C-32.8725 91.6875 -43.4325 91.6875 -54.3125 91.6875 C-54.3125 78.23171769 -54.3125 78.23171769 -51.375 74.375 C-50.40433594 73.00988281 -50.40433594 73.00988281 -49.4140625 71.6171875 C-48.72054687 70.65039062 -48.02703125 69.68359375 -47.3125 68.6875 C-45.93356154 66.4692077 -44.580377 64.24672993 -43.25 62 C-42.88245605 61.38632568 -42.51491211 60.77265137 -42.13623047 60.14038086 C-39.7410821 56.13149758 -37.38705089 52.09979344 -35.046875 48.05859375 C-28.97555603 37.57700098 -22.89016449 27.12886312 -16.28979492 16.96850586 C-13.65612145 12.90661034 -11.41458827 8.86916602 -9.3125 4.5 C-6.894179 0.29168309 -4.7495846 0.08929889 0 0 Z " fill="#FEFEFF" transform="translate(223.3125,163.3125)"/>
<path d="M0 0 C18.39078906 -2.05640026 18.39078906 -2.05640026 23.92822266 1.09863281 C27.1542561 4.0126649 29.41990109 7.61799966 31.76806641 11.24707031 C33.77294976 14.09983736 36.22119099 16.37278196 38.8125 18.6875 C39.30991699 19.13375732 39.80733398 19.58001465 40.31982422 20.03979492 C53.82749233 31.87897031 69.48091781 41.03538696 86 48 C85.53952805 53.1239751 82.9210675 56.3275701 79.9375 60.3125 C79.46505859 60.95767578 78.99261719 61.60285156 78.50585938 62.26757812 C77.34490296 63.85070051 76.17347664 65.42613569 75 67 C69.73877829 65.48968084 65.32767414 63.09625809 60.625 60.375 C59.88894531 59.95476562 59.15289063 59.53453125 58.39453125 59.1015625 C56.5936235 58.07247236 54.79642682 57.03689244 53 56 C53 57.98 53 59.96 53 62 C-3.26886945 62.21446412 -3.26886945 62.21446412 -30 61 C-30 58.69 -30 56.38 -30 54 C-37.59 57.96 -45.18 61.92 -53 66 C-56.09569607 62.90430393 -58.10729689 59.69870921 -60.25 55.9375 C-60.62640625 55.30005859 -61.0028125 54.66261719 -61.390625 54.00585938 C-62.32643643 52.3733501 -63.17105723 50.68928489 -64 49 C-62.3121985 45.624397 -58.44898825 44.7910032 -55.125 43.3125 C-48.01138402 40.0486143 -41.43747438 36.47864289 -35 32 C-34.46310547 31.63148926 -33.92621094 31.26297852 -33.37304688 30.88330078 C-14.0015544 18.02694403 -14.0015544 18.02694403 0 0 Z M11 20 C9.99732836 21.12532261 9.02405435 22.27684733 8.0625 23.4375 C1.85416437 30.62744106 -5.2229136 36.58985294 -13 42 C-13 42.33 -13 42.66 -13 43 C11.255 43.495 11.255 43.495 36 44 C32.44697451 40.44697451 28.8579319 37.03738293 25.125 33.6875 C20.83834074 29.81229673 16.88808796 25.83249609 13.20703125 21.36328125 C12.80871094 20.91339844 12.41039062 20.46351563 12 20 C11.67 20 11.34 20 11 20 Z " fill="#FFFFFF" transform="translate(909,155)"/>
<path d="M0 0 C3.96 0 7.92 0 12 0 C12.33 11.55 12.66 23.1 13 35 C18.80888145 28.6102304 24.36649148 22.40123298 29.7578125 15.71484375 C32.77213931 12.06509265 35.94714062 8.57594599 39.15234375 5.09375 C41.13945339 2.93666737 41.13945339 2.93666737 43 0 C46.2578125 -0.29296875 46.2578125 -0.29296875 50.125 -0.1875 C52.04699219 -0.14689453 52.04699219 -0.14689453 54.0078125 -0.10546875 C54.99523438 -0.07066406 55.98265625 -0.03585937 57 0 C55.71104283 2.81351786 54.33731495 4.9325707 52.20703125 7.171875 C51.66272461 7.74969727 51.11841797 8.32751953 50.55761719 8.92285156 C49.98172852 9.52581055 49.40583984 10.12876953 48.8125 10.75 C47.62547304 12.00963593 46.43926755 13.2700465 45.25390625 14.53125 C44.68687988 15.13324219 44.11985352 15.73523438 43.53564453 16.35546875 C41.18735667 18.87026478 38.93096883 21.45837374 36.6875 24.06640625 C33.86169631 27.30430632 30.93216047 30.44928789 28.015625 33.60546875 C26.03716879 35.95584405 24.50128584 38.32524074 23 41 C23.54527344 41.59425781 24.09054687 42.18851562 24.65234375 42.80078125 C28.66574885 47.2120966 32.57816273 51.66167703 36.3125 56.3125 C40.26608482 61.20410582 44.44570349 65.82942901 48.7512207 70.40942383 C49.23034912 70.92013428 49.70947754 71.43084473 50.203125 71.95703125 C50.62239258 72.40022705 51.04166016 72.84342285 51.47363281 73.30004883 C53.72348129 75.8057582 55.85308686 78.40562544 58 81 C64.73513983 64.34318984 71.18184756 47.58092309 77.59277344 30.79711914 C78.89833016 27.38088058 80.20682128 23.96577691 81.515625 20.55078125 C81.90735901 19.52253738 82.29909302 18.49429352 82.70269775 17.43489075 C84.96517519 11.5362019 87.38253679 5.75031846 90 0 C93.63 0 97.26 0 101 0 C107.254072 15.47696034 113.27799925 31.03732769 119.25 46.625 C120.58113514 50.09708449 121.91269475 53.56900477 123.24505615 57.0406189 C124.06503795 59.17738898 124.88430436 61.31443379 125.70269775 63.45181274 C127.83259447 69.00440982 130.00970839 74.53090273 132.28265381 80.02670288 C133 82 133 82 133 84 C129.04 84 125.08 84 121 84 C117.58059176 76.68626571 114.78462066 69.65770682 112 62 C100.78 61.67 89.56 61.34 78 61 C77.01 64.63 76.02 68.26 75 72 C74.15670854 74.24956905 73.27136171 76.48470959 72.3125 78.6875 C71.87550781 79.70199219 71.43851563 80.71648437 70.98828125 81.76171875 C70.66214844 82.50035156 70.33601563 83.23898437 70 84 C48.31811254 86.36701828 48.31811254 86.36701828 41.63769531 82.70507812 C37.73086983 79.36983948 34.94796868 75.27925081 32.24365234 70.94482422 C30.47570845 68.18011258 28.37992586 65.74154316 26.25 63.25 C24.14625 60.65125 24.14625 60.65125 22 58 C17.545 52.555 17.545 52.555 13 47 C12.67 59.21 12.34 71.42 12 84 C8.04 84 4.08 84 0 84 C0 56.28 0 28.56 0 0 Z M95 15 C93.44446445 19.01741605 91.89647594 23.03763595 90.35522461 27.06054688 C89.83056584 28.42688952 89.3039018 29.792464 88.77514648 31.15722656 C88.01269412 33.12623645 87.25764774 35.09795425 86.50390625 37.0703125 C86.04830322 38.25383301 85.5927002 39.43735352 85.12329102 40.65673828 C83.77375347 44.38117907 83.77375347 44.38117907 83 50 C91.25 50 99.5 50 108 50 C104.12056909 38.28563999 100.22808333 26.59313172 96 15 C95.67 15 95.34 15 95 15 Z " fill="#FFFFFF" transform="translate(1216,338)"/>
<path d="M0 0 C6.6 0 13.2 0 20 0 C20 6.27 20 12.54 20 19 C25.41403305 19.17012046 25.41403305 19.17012046 30.82910156 19.29785156 C34.65989602 19.47024639 36.47333157 19.5767266 39.546875 22.046875 C40.02640625 22.69140625 40.5059375 23.3359375 41 24 C38.03240354 36.85958467 31.5716412 48.6453337 23.46875 58.9609375 C21.80517716 60.85164432 21.80517716 60.85164432 22 63 C24.13036877 64.83115967 26.26777767 66.55107793 28.5 68.25 C29.13695801 68.74218018 29.77391602 69.23436035 30.43017578 69.74145508 C34.92127697 73.20365469 39.44165955 76.62682807 44 80 C41.14043646 86.04907673 37.81492909 91.50650211 34 97 C29 95 29 95 19 86 C18.34 101.84 17.68 117.68 17 134 C10.4 134 3.8 134 -3 134 C-2.67 118.16 -2.34 102.32 -2 86 C-8.93 90.95 -8.93 90.95 -16 96 C-16.99 96 -17.98 96 -19 96 C-20.82421875 93.515625 -20.82421875 93.515625 -22.6875 90.25 C-23.31011719 89.18265625 -23.93273437 88.1153125 -24.57421875 87.015625 C-26 84 -26 84 -26 80 C-24.1640625 78.39453125 -24.1640625 78.39453125 -21.625 76.8125 C-6.53587811 66.8098381 5.16905497 53.29151378 13 37 C12.11441406 37.01160156 11.22882813 37.02320313 10.31640625 37.03515625 C0.49535059 37.1066936 -9.19829409 36.64804667 -19 36 C-19 30.39 -19 24.78 -19 19 C-12.73 19 -6.46 19 0 19 C0 12.73 0 6.46 0 0 Z " fill="#FFFFFF" transform="translate(1022,157)"/>
<path d="M0 0 C14.71545126 -0.06241973 29.41325724 0.18563751 44.125 0.5 C46.45181939 0.54834697 48.7786423 0.59652515 51.10546875 0.64453125 C56.73702147 0.76107968 62.36852204 0.87989588 68 1 C68 7.27 68 13.54 68 20 C60.74 20 53.48 20 46 20 C46.01160156 21.85625 46.02320313 23.7125 46.03515625 25.625 C46.0445392 28.08333232 46.05363886 30.54166574 46.0625 33 C46.07087891 34.22074219 46.07925781 35.44148438 46.08789062 36.69921875 C46.10464844 42.89960932 45.97272146 48.8726207 45 55 C45.88558594 54.86722656 46.77117188 54.73445313 47.68359375 54.59765625 C57.44799736 53.2056445 67.14996144 52.45814133 77 52 C77.09945415 58.11090483 77.0712828 63.97403427 76 70 C68.81444977 71.78386506 61.76849268 72.62915685 54.3984375 73.25390625 C53.20376862 73.35968491 52.00909973 73.46546356 50.77822876 73.57444763 C48.25880822 73.79646549 45.73913717 74.01565667 43.21923828 74.23217773 C39.4073397 74.55972116 35.59621439 74.89525381 31.78515625 75.23242188 C19.86456625 76.27993208 7.94699915 77.3039219 -4 78 C-5.6774338 71.17843586 -6.35098767 65.13913564 -7 58 C2.9 57.34 12.8 56.68 23 56 C23.33 43.79 23.66 31.58 24 19 C16.08 19 8.16 19 0 19 C0 12.73 0 6.46 0 0 Z " fill="#FFFFFF" transform="translate(707,204)"/>
<path d="M0 0 C4.62 0 9.24 0 14 0 C17.21333165 3.52767931 18.88964786 5.90616643 21 10 C22.10417555 11.7404746 23.22402284 13.47110658 24.359375 15.19140625 C25.4917385 16.98040852 26.62188898 18.77081315 27.75 20.5625 C28.97861224 22.50425717 30.20778493 24.44565982 31.4375 26.38671875 C32.03949219 27.33724121 32.64148437 28.28776367 33.26171875 29.26708984 C36.1158754 33.75436927 39.01114054 38.21486408 41.92089844 42.66625977 C46.72377834 50.04521185 51.33065082 57.52904131 56 65 C56.33 43.55 56.66 22.1 57 0 C60.96 0 64.92 0 69 0 C69 27.72 69 55.44 69 84 C64.38 84 59.76 84 55 84 C51.48710942 80.34543464 49.63855854 77.88049085 47.3125 73.5625 C46.0534774 71.43614345 44.79436216 69.30984175 43.53515625 67.18359375 C42.93590332 66.12897949 42.33665039 65.07436523 41.71923828 63.98779297 C39.38304415 59.927818 36.83379505 56.02992103 34.25 52.125 C33.37591289 50.77583381 32.50350391 49.42557886 31.6328125 48.07421875 C29.7763217 45.19994569 27.91653529 42.32783716 26.0546875 39.45703125 C25.31943848 38.32273682 25.31943848 38.32273682 24.56933594 37.16552734 C23.64338339 35.73715633 22.71699085 34.3090704 21.79003906 32.88134766 C18.81036979 28.28249025 15.90518883 23.64830213 13 19 C12.67 40.45 12.34 61.9 12 84 C8.04 84 4.08 84 0 84 C0 56.28 0 28.56 0 0 Z " fill="#FFFFFF" transform="translate(1618,336)"/>
<path d="M0 0 C40.90728477 0 40.90728477 0 51 6 C51.69609375 6.40992188 52.3921875 6.81984375 53.109375 7.2421875 C60.92223914 12.44097304 64.82511485 20.03219164 67 29 C68.85581849 42.18607874 68.42113608 55.32807894 60.78515625 66.75390625 C52.15190691 77.61630968 42.3740849 81.32518302 29 84 C19.43 84 9.86 84 0 84 C0 56.28 0 28.56 0 0 Z M12 11 C12 31.46 12 51.92 12 73 C31.99210193 73.73100107 31.99210193 73.73100107 48.01953125 65.1015625 C55.38253808 57.28835209 56.39641982 48.08995994 56.20703125 37.83203125 C55.76549409 29.65942831 53.73131356 23.66922715 48.03125 17.69140625 C37.6763771 9.06898324 24.93836969 11 12 11 Z " fill="#FFFFFF" transform="translate(2525,340)"/>
<path d="M0 0 C40.90728477 0 40.90728477 0 51 6 C51.69609375 6.40992188 52.3921875 6.81984375 53.109375 7.2421875 C60.92223914 12.44097304 64.82511485 20.03219164 67 29 C68.85581849 42.18607874 68.42113608 55.32807894 60.78515625 66.75390625 C52.15190691 77.61630968 42.3740849 81.32518302 29 84 C19.43 84 9.86 84 0 84 C0 56.28 0 28.56 0 0 Z M12 11 C12 31.46 12 51.92 12 73 C31.99210193 73.73100107 31.99210193 73.73100107 48.01953125 65.1015625 C55.38253808 57.28835209 56.39641982 48.08995994 56.20703125 37.83203125 C55.76549409 29.65942831 53.73131356 23.66922715 48.03125 17.69140625 C37.6763771 9.06898324 24.93836969 11 12 11 Z " fill="#FFFFFF" transform="translate(1706,336)"/>
<path d="M0 0 C8.44372735 7.13175378 13.27851606 16.37092421 14.7421875 27.3203125 C15.60507493 40.47934579 14.3823458 54.34513152 5.6484375 64.84765625 C-2.31457409 73.38208766 -10.61721054 78.03943481 -22.42578125 78.8125 C-34.22635521 79.21651394 -44.12395338 76.59795899 -53.0390625 68.65625 C-61.82121669 59.72238873 -64.85991306 48.87815267 -65.2890625 36.59375 C-65.10972501 23.53798078 -61.608417 12.5367198 -52.7890625 2.84375 C-38.86841864 -10.12845439 -15.21989751 -11.20887759 0 0 Z M-47.0390625 13.65625 C-53.26673652 23.85285617 -54.70049159 34.7749342 -52.5078125 46.49609375 C-49.63828325 55.61932533 -43.98770947 61.68706182 -35.9140625 66.53125 C-28.83118851 69.18931732 -20.50126622 68.53919102 -13.5390625 65.90625 C-6.60327531 62.69648441 -2.28205952 58.67902965 0.875 51.609375 C4.36419909 41.89179248 4.49845994 29.58131258 1.00390625 19.8359375 C-2.46458915 12.58717184 -7.23526969 7.51058121 -14.83203125 4.578125 C-26.71652265 1.16187656 -38.9470118 4.15513574 -47.0390625 13.65625 Z " fill="#FFFFFF" transform="translate(2333.0390625,346.34375)"/>
<path d="M0 0 C8.44372735 7.13175378 13.27851606 16.37092421 14.7421875 27.3203125 C15.60507493 40.47934579 14.3823458 54.34513152 5.6484375 64.84765625 C-2.31457409 73.38208766 -10.61721054 78.03943481 -22.42578125 78.8125 C-34.22635521 79.21651394 -44.12395338 76.59795899 -53.0390625 68.65625 C-61.82121669 59.72238873 -64.85991306 48.87815267 -65.2890625 36.59375 C-65.10972501 23.53798078 -61.608417 12.5367198 -52.7890625 2.84375 C-38.86841864 -10.12845439 -15.21989751 -11.20887759 0 0 Z M-47.0390625 13.65625 C-53.26673652 23.85285617 -54.70049159 34.7749342 -52.5078125 46.49609375 C-49.63828325 55.61932533 -43.98770947 61.68706182 -35.9140625 66.53125 C-28.83118851 69.18931732 -20.50126622 68.53919102 -13.5390625 65.90625 C-6.60327531 62.69648441 -2.28205952 58.67902965 0.875 51.609375 C4.36419909 41.89179248 4.49845994 29.58131258 1.00390625 19.8359375 C-2.46458915 12.58717184 -7.23526969 7.51058121 -14.83203125 4.578125 C-26.71652265 1.16187656 -38.9470118 4.15513574 -47.0390625 13.65625 Z " fill="#FFFFFF" transform="translate(714.0390625,343.34375)"/>
<path d="M0 0 C3.96 0 7.92 0 12 0 C12 11.88 12 23.76 12 36 C25.2 36 38.4 36 52 36 C52 24.12 52 12.24 52 0 C55.96 0 59.92 0 64 0 C64 27.72 64 55.44 64 84 C60.04 84 56.08 84 52 84 C52 71.79 52 59.58 52 47 C38.8 47 25.6 47 12 47 C12 59.21 12 71.42 12 84 C8.04 84 4.08 84 0 84 C0 56.28 0 28.56 0 0 Z " fill="#FFFFFF" transform="translate(569,337)"/>
<path d="M0 0 C38 0 38 0 46.75 8.75 C50.94640237 14.81147009 51.50133796 20.41154664 50.52734375 27.546875 C48.98602561 34.71685867 45.79870812 38.71340835 39.90234375 42.96875 C38 44 38 44 35 44 C35.51046875 44.63421875 36.0209375 45.2684375 36.546875 45.921875 C43.42265271 54.74822795 49.03841336 64.18869366 54.68994141 73.83105469 C55.85535458 75.76052369 57.07626531 77.62152088 58.35546875 79.4765625 C60 82 60 82 60 84 C55.44856372 84.81176531 51.52402562 85.06969464 47 84 C43.82697303 80.77291806 41.98962491 77.03274982 40.02294922 73.01171875 C38.17874109 69.38492282 36.01851577 65.95524335 33.875 62.5 C33.47901611 61.83033203 33.08303223 61.16066406 32.67504883 60.47070312 C30.00978051 56.10065328 27.43325119 52.74390605 23 50 C19.37 49.67 15.74 49.34 12 49 C12 60.55 12 72.1 12 84 C8.04 84 4.08 84 0 84 C0 56.28 0 28.56 0 0 Z M12 11 C12 19.91 12 28.82 12 38 C15.774375 38.0928125 15.774375 38.0928125 19.625 38.1875 C20.40568848 38.21481201 21.18637695 38.24212402 21.99072266 38.27026367 C26.730398 38.32621567 29.88572231 37.5875189 34 35 C38.16442938 30.38536204 39.41661156 27.44154011 39.34765625 21.32421875 C38.74665192 17.30626847 36.98265089 15.71752636 34 13 C29.47794644 10.54778345 25.18461532 10.76693876 20.1875 10.875 C17.485625 10.91625 14.78375 10.9575 12 11 Z " fill="#FFFFFF" transform="translate(2001,335)"/>
<path d="M0 0 C38 0 38 0 46.75 8.75 C50.94640237 14.81147009 51.50133796 20.41154664 50.52734375 27.546875 C48.98602561 34.71685867 45.79870812 38.71340835 39.90234375 42.96875 C38 44 38 44 35 44 C35.51046875 44.63421875 36.0209375 45.2684375 36.546875 45.921875 C43.42265271 54.74822795 49.03841336 64.18869366 54.68994141 73.83105469 C55.85535458 75.76052369 57.07626531 77.62152088 58.35546875 79.4765625 C60 82 60 82 60 84 C55.44856372 84.81176531 51.52402562 85.06969464 47 84 C43.82697303 80.77291806 41.98962491 77.03274982 40.02294922 73.01171875 C38.17874109 69.38492282 36.01851577 65.95524335 33.875 62.5 C33.47901611 61.83033203 33.08303223 61.16066406 32.67504883 60.47070312 C30.00978051 56.10065328 27.43325119 52.74390605 23 50 C19.37 49.67 15.74 49.34 12 49 C12 60.55 12 72.1 12 84 C8.04 84 4.08 84 0 84 C0 56.28 0 28.56 0 0 Z M12 11 C12 19.91 12 28.82 12 38 C15.774375 38.0928125 15.774375 38.0928125 19.625 38.1875 C20.40568848 38.21481201 21.18637695 38.24212402 21.99072266 38.27026367 C26.730398 38.32621567 29.88572231 37.5875189 34 35 C38.16442938 30.38536204 39.41661156 27.44154011 39.34765625 21.32421875 C38.74665192 17.30626847 36.98265089 15.71752636 34 13 C29.47794644 10.54778345 25.18461532 10.76693876 20.1875 10.875 C17.485625 10.91625 14.78375 10.9575 12 11 Z " fill="#FFFFFF" transform="translate(894,334)"/>
<path d="M0 0 C3.96 0 7.92 0 12 0 C12.01458252 1.71509766 12.02916504 3.43019531 12.04418945 5.19726562 C12.0960138 10.88910901 12.16134544 16.58069229 12.23571491 22.27228546 C12.28028042 25.72023645 12.31956587 29.16807304 12.34643555 32.61621094 C12.37762537 36.58814233 12.43240877 40.55958622 12.48828125 44.53125 C12.49467117 45.75863892 12.5010611 46.98602783 12.50764465 48.25061035 C12.64373759 56.23020574 13.12229672 62.51646445 18.375 68.875 C24.36915276 73.72740938 30.57014164 73.64519801 38 73 C42.76297755 71.38398976 45.30464153 69.23556331 48 65 C50.54362182 58.34176326 50.34791002 51.6875835 50.4140625 44.62890625 C50.43342865 43.35144028 50.4527948 42.0739743 50.4727478 40.75779724 C50.52223006 37.38279469 50.56357072 34.00789613 50.60089111 30.63275146 C50.64109742 27.18020035 50.69211337 23.72781023 50.7421875 20.27539062 C50.83803252 13.51702237 50.92213669 6.75859837 51 0 C54.96 0 58.92 0 63 0 C63.04991522 6.98851514 63.08596065 13.97692356 63.10986328 20.96557617 C63.11984149 23.33668834 63.13342884 25.70778847 63.15087891 28.07885742 C63.42839626 66.79252804 63.42839626 66.79252804 54.3984375 76.76953125 C47.51428883 83.22931459 38.64897945 85.36190738 29.34375 85.21875 C20.18324209 84.36376926 12.86425939 81.86425939 6.3125 75.3125 C-0.91994316 66.08008864 -0.14685889 53.26265419 -0.09765625 42.1875 C-0.0962413 40.97803711 -0.09482635 39.76857422 -0.09336853 38.52246094 C-0.08779709 34.68161485 -0.07524984 30.8408283 -0.0625 27 C-0.05748131 24.3867196 -0.05291905 21.77343827 -0.04882812 19.16015625 C-0.03783701 12.77341476 -0.02059209 6.38671746 0 0 Z " fill="#FFFFFF" transform="translate(1066,337)"/>
<path d="M0 0 C3.96 0 7.92 0 12 0 C12.01458252 1.71509766 12.02916504 3.43019531 12.04418945 5.19726562 C12.0960138 10.88910901 12.16134544 16.58069229 12.23571491 22.27228546 C12.28028042 25.72023645 12.31956587 29.16807304 12.34643555 32.61621094 C12.37762537 36.58814233 12.43240877 40.55958622 12.48828125 44.53125 C12.49467117 45.75863892 12.5010611 46.98602783 12.50764465 48.25061035 C12.64373759 56.23020574 13.12229672 62.51646445 18.375 68.875 C24.36915276 73.72740938 30.57014164 73.64519801 38 73 C42.76297755 71.38398976 45.30464153 69.23556331 48 65 C50.54362182 58.34176326 50.34791002 51.6875835 50.4140625 44.62890625 C50.43342865 43.35144028 50.4527948 42.0739743 50.4727478 40.75779724 C50.52223006 37.38279469 50.56357072 34.00789613 50.60089111 30.63275146 C50.64109742 27.18020035 50.69211337 23.72781023 50.7421875 20.27539062 C50.83803252 13.51702237 50.92213669 6.75859837 51 0 C54.96 0 58.92 0 63 0 C63.04991522 6.98851514 63.08596065 13.97692356 63.10986328 20.96557617 C63.11984149 23.33668834 63.13342884 25.70778847 63.15087891 28.07885742 C63.42839626 66.79252804 63.42839626 66.79252804 54.3984375 76.76953125 C47.51428883 83.22931459 38.64897945 85.36190738 29.34375 85.21875 C20.18324209 84.36376926 12.86425939 81.86425939 6.3125 75.3125 C-0.91994316 66.08008864 -0.14685889 53.26265419 -0.09765625 42.1875 C-0.0962413 40.97803711 -0.09482635 39.76857422 -0.09336853 38.52246094 C-0.08779709 34.68161485 -0.07524984 30.8408283 -0.0625 27 C-0.05748131 24.3867196 -0.05291905 21.77343827 -0.04882812 19.16015625 C-0.03783701 12.77341476 -0.02059209 6.38671746 0 0 Z " fill="#FFFFFF" transform="translate(812,337)"/>
<path d="M0 0 C3.96 0 7.92 0 12 0 C12.01458252 1.71509766 12.02916504 3.43019531 12.04418945 5.19726562 C12.0960138 10.88910901 12.16134544 16.58069229 12.23571491 22.27228546 C12.28028042 25.72023645 12.31956587 29.16807304 12.34643555 32.61621094 C12.37762537 36.58814233 12.43240877 40.55958622 12.48828125 44.53125 C12.49467117 45.75863892 12.5010611 46.98602783 12.50764465 48.25061035 C12.64373759 56.23020574 13.12229672 62.51646445 18.375 68.875 C24.36915276 73.72740938 30.57014164 73.64519801 38 73 C42.76297755 71.38398976 45.30464153 69.23556331 48 65 C50.54362182 58.34176326 50.34791002 51.6875835 50.4140625 44.62890625 C50.43342865 43.35144028 50.4527948 42.0739743 50.4727478 40.75779724 C50.52223006 37.38279469 50.56357072 34.00789613 50.60089111 30.63275146 C50.64109742 27.18020035 50.69211337 23.72781023 50.7421875 20.27539062 C50.83803252 13.51702237 50.92213669 6.75859837 51 0 C54.96 0 58.92 0 63 0 C63.04991522 6.98851514 63.08596065 13.97692356 63.10986328 20.96557617 C63.11984149 23.33668834 63.13342884 25.70778847 63.15087891 28.07885742 C63.42839626 66.79252804 63.42839626 66.79252804 54.3984375 76.76953125 C47.51428883 83.22931459 38.64897945 85.36190738 29.34375 85.21875 C20.18324209 84.36376926 12.86425939 81.86425939 6.3125 75.3125 C-0.91994316 66.08008864 -0.14685889 53.26265419 -0.09765625 42.1875 C-0.0962413 40.97803711 -0.09482635 39.76857422 -0.09336853 38.52246094 C-0.08779709 34.68161485 -0.07524984 30.8408283 -0.0625 27 C-0.05748131 24.3867196 -0.05291905 21.77343827 -0.04882812 19.16015625 C-0.03783701 12.77341476 -0.02059209 6.38671746 0 0 Z " fill="#FFFFFF" transform="translate(1790,336)"/>
<path d="M0 0 C3.96 0 7.92 0 12 0 C12.33 11.55 12.66 23.1 13 35 C18.80888145 28.6102304 24.36649148 22.40123298 29.7578125 15.71484375 C32.77213931 12.06509265 35.94714062 8.57594599 39.15234375 5.09375 C41.13945339 2.93666737 41.13945339 2.93666737 43 0 C46.2578125 -0.29296875 46.2578125 -0.29296875 50.125 -0.1875 C52.04699219 -0.14689453 52.04699219 -0.14689453 54.0078125 -0.10546875 C54.99523438 -0.07066406 55.98265625 -0.03585937 57 0 C55.71104283 2.81351786 54.33731495 4.9325707 52.20703125 7.171875 C51.66272461 7.74969727 51.11841797 8.32751953 50.55761719 8.92285156 C49.98172852 9.52581055 49.40583984 10.12876953 48.8125 10.75 C47.62547304 12.00963593 46.43926755 13.2700465 45.25390625 14.53125 C44.68687988 15.13324219 44.11985352 15.73523438 43.53564453 16.35546875 C41.18735667 18.87026478 38.93096883 21.45837374 36.6875 24.06640625 C33.86169631 27.30430632 30.93216047 30.44928789 28.015625 33.60546875 C26.03716879 35.95584405 24.50128584 38.32524074 23 41 C23.54527344 41.59425781 24.09054687 42.18851562 24.65234375 42.80078125 C28.66574885 47.2120966 32.57816273 51.66167703 36.3125 56.3125 C39.78834564 60.61157224 43.42271449 64.70614809 47.1875 68.75 C47.95719116 69.57685303 47.95719116 69.57685303 48.74243164 70.42041016 C49.23864014 70.95327637 49.73484863 71.48614258 50.24609375 72.03515625 C59 81.4375 59 81.4375 59 84 C53.9193603 84.94866716 48.98099039 85.61006507 44 84 C39.20278124 80.62629962 35.82659675 75.64556962 32.42089844 70.94482422 C30.47676673 68.28383571 28.36747313 65.77411589 26.25 63.25 C24.14625 60.65125 24.14625 60.65125 22 58 C17.545 52.555 17.545 52.555 13 47 C12.67 59.21 12.34 71.42 12 84 C8.04 84 4.08 84 0 84 C0 56.28 0 28.56 0 0 Z " fill="#FFFFFF" transform="translate(1002,337)"/>
<path d="M0 0 C3.96 0 7.92 0 12 0 C12.33 11.55 12.66 23.1 13 35 C18.80888145 28.6102304 24.36649148 22.40123298 29.7578125 15.71484375 C32.77213931 12.06509265 35.94714062 8.57594599 39.15234375 5.09375 C41.13945339 2.93666737 41.13945339 2.93666737 43 0 C46.2578125 -0.29296875 46.2578125 -0.29296875 50.125 -0.1875 C52.04699219 -0.14689453 52.04699219 -0.14689453 54.0078125 -0.10546875 C54.99523437 -0.07066406 55.98265625 -0.03585937 57 0 C55.71104283 2.81351786 54.33731495 4.9325707 52.20703125 7.171875 C51.66272461 7.74969727 51.11841797 8.32751953 50.55761719 8.92285156 C49.98172852 9.52581055 49.40583984 10.12876953 48.8125 10.75 C47.62547304 12.00963593 46.43926755 13.2700465 45.25390625 14.53125 C44.68687988 15.13324219 44.11985352 15.73523438 43.53564453 16.35546875 C41.18735667 18.87026478 38.93096883 21.45837374 36.6875 24.06640625 C33.86169631 27.30430632 30.93216047 30.44928789 28.015625 33.60546875 C26.03716879 35.95584405 24.50128584 38.32524074 23 41 C23.54527344 41.59425781 24.09054687 42.18851562 24.65234375 42.80078125 C28.66574885 47.2120966 32.57816273 51.66167703 36.3125 56.3125 C39.78834564 60.61157224 43.42271449 64.70614809 47.1875 68.75 C47.95719116 69.57685303 47.95719116 69.57685303 48.74243164 70.42041016 C49.23864014 70.95327637 49.73484863 71.48614258 50.24609375 72.03515625 C59 81.4375 59 81.4375 59 84 C53.9193603 84.94866716 48.98099039 85.61006507 44 84 C39.20278124 80.62629962 35.82659675 75.64556962 32.42089844 70.94482422 C30.47676673 68.28383571 28.36747313 65.77411589 26.25 63.25 C24.14625 60.65125 24.14625 60.65125 22 58 C17.545 52.555 17.545 52.555 13 47 C12.67 59.21 12.34 71.42 12 84 C8.04 84 4.08 84 0 84 C0 56.28 0 28.56 0 0 Z " fill="#FFFFFF" transform="translate(743,337)"/>
<path d="M0 0 C30.69 0 61.38 0 93 0 C93 7.59 93 15.18 93 23 C62.31 23 31.62 23 0 23 C0 15.41 0 7.82 0 0 Z " fill="#FFFFFF" transform="translate(2453,120)"/>
<path d="M0 0 C14.19 0 28.38 0 43 0 C43 3.63 43 7.26 43 11 C32.77 11 22.54 11 12 11 C12 19.25 12 27.5 12 36 C21.57 36 31.14 36 41 36 C41 39.63 41 43.26 41 47 C31.43 47 21.86 47 12 47 C12 55.58 12 64.16 12 73 C22.89 73 33.78 73 45 73 C45 76.63 45 80.26 45 84 C30.15 84 15.3 84 0 84 C0 56.28 0 28.56 0 0 Z " fill="#FFFFFF" transform="translate(1429,336)"/>
<path d="M0 0 C0.29296875 2.8203125 0.29296875 2.8203125 0.1875 6.125 C0.14689453 7.76855469 0.14689453 7.76855469 0.10546875 9.4453125 C0.07066406 10.28835938 0.03585937 11.13140625 0 12 C-6 10 -6 10 -8.78125 8.953125 C-15.78087889 6.88041936 -24.14618357 6.64430777 -30.8125 9.875 C-34.02454854 11.63564797 -34.02454854 11.63564797 -35 14 C-35.6323826 19.57962717 -35.6323826 19.57962717 -33.30126953 24.43603516 C-30.9153665 27.09429461 -28.87973174 28.49950655 -25.75390625 30.19140625 C-24.75166016 30.74376953 -23.74941406 31.29613281 -22.71679688 31.86523438 C-21.15541992 32.70538086 -21.15541992 32.70538086 -19.5625 33.5625 C-17.49903589 34.68464487 -15.43775875 35.81082251 -13.37890625 36.94140625 C-12.01100952 37.67919312 -12.01100952 37.67919312 -10.61547852 38.43188477 C-4.22579736 42.26283054 0.61908002 46.89505065 2.60546875 54.23828125 C3.54087911 60.61007654 2.41616169 65.7950025 -0.1875 71.6875 C-4.89035926 77.68769975 -10.94373216 80.23466645 -18.3125 81.625 C-28.47773228 82.65875244 -39.01160712 82.34444982 -48 77 C-48 72.71 -48 68.42 -48 64 C-43 66 -43 66 -40.5625 67.0703125 C-32.37582024 70.43983008 -23.34091615 71.95923768 -14.8125 68.75 C-11.3488792 66.61988509 -11.3488792 66.61988509 -10 63 C-9.46030127 58.83660982 -9.51998017 56.74750388 -11.80859375 53.18359375 C-15.77899097 48.66533671 -21.25952954 46.21475307 -26.5 43.4375 C-35.16627136 38.81224281 -42.26279136 34.96685922 -47 26 C-48.66724349 19.35370964 -48.44052367 13.02091643 -45 7 C-34.9831881 -4.8317847 -13.19660557 -8.79773705 0 0 Z " fill="#FFFFFF" transform="translate(1406,340)"/>
<path d="M0 0 C0.29296875 2.8203125 0.29296875 2.8203125 0.1875 6.125 C0.14689453 7.76855469 0.14689453 7.76855469 0.10546875 9.4453125 C0.07066406 10.28835938 0.03585937 11.13140625 0 12 C-6 10 -6 10 -8.78125 8.953125 C-15.78087889 6.88041936 -24.14618357 6.64430777 -30.8125 9.875 C-34.02454854 11.63564797 -34.02454854 11.63564797 -35 14 C-35.6323826 19.57962717 -35.6323826 19.57962717 -33.30126953 24.43603516 C-30.9153665 27.09429461 -28.87973174 28.49950655 -25.75390625 30.19140625 C-24.75166016 30.74376953 -23.74941406 31.29613281 -22.71679688 31.86523438 C-21.15541992 32.70538086 -21.15541992 32.70538086 -19.5625 33.5625 C-17.49903589 34.68464487 -15.43775875 35.81082251 -13.37890625 36.94140625 C-12.01100952 37.67919312 -12.01100952 37.67919312 -10.61547852 38.43188477 C-4.22579736 42.26283054 0.61908002 46.89505065 2.60546875 54.23828125 C3.54087911 60.61007654 2.41616169 65.7950025 -0.1875 71.6875 C-4.89035926 77.68769975 -10.94373216 80.23466645 -18.3125 81.625 C-28.47773228 82.65875244 -39.01160712 82.34444982 -48 77 C-48 72.71 -48 68.42 -48 64 C-43 66 -43 66 -40.5625 67.0703125 C-32.37582024 70.43983008 -23.34091615 71.95923768 -14.8125 68.75 C-11.3488792 66.61988509 -11.3488792 66.61988509 -10 63 C-9.46030127 58.83660982 -9.51998017 56.74750388 -11.80859375 53.18359375 C-15.77899097 48.66533671 -21.25952954 46.21475307 -26.5 43.4375 C-35.16627136 38.81224281 -42.26279136 34.96685922 -47 26 C-48.66724349 19.35370964 -48.44052367 13.02091643 -45 7 C-34.9831881 -4.8317847 -13.19660557 -8.79773705 0 0 Z " fill="#FFFFFF" transform="translate(1917,339)"/>
<path d="M0 0 C0 3.96 0 7.92 0 12 C-2.21354167 11.25130208 -4.42708333 10.50260417 -6.640625 9.75390625 C-15.979164 6.76990289 -26.13780441 6.5689022 -35 11 C-42.56899358 15.30393753 -46.54861705 20.59775018 -49.26953125 28.73828125 C-51.46432891 38.53858097 -51.29143429 49.23851532 -46 58 C-41.68544691 64.56910736 -36.74309967 68.36282866 -29 70 C-20.08695234 70.83559822 -12.36857446 70.07644737 -4 67 C-2.02 66.505 -2.02 66.505 0 66 C0 69.63 0 73.26 0 77 C-13.82800917 82.29220104 -26.75793667 84.16299149 -41 79 C-51.13377008 73.94099503 -57.08414001 66.25778849 -61.06640625 55.8125 C-65.09026129 43.69042623 -63.68312361 29.59849528 -58.18359375 18.15625 C-52.52827363 7.85348859 -44.70189572 1.46701172 -33.578125 -2.2734375 C-22.69544744 -5.3403739 -10.28473788 -5.14236894 0 0 Z " fill="#FFFFFF" transform="translate(2261,343)"/>
<path d="M0 0 C3.96 0 7.92 0 12 0 C17.11358956 9.6293482 22.19460719 19.27530802 27.125 29 C27.51486084 29.75845215 27.90472168 30.5169043 28.30639648 31.29833984 C31 36.65133463 31 36.65133463 31 40 C31.66 40 32.32 40 33 40 C33.21140625 39.24074219 33.4228125 38.48148437 33.640625 37.69921875 C35.5546508 32.49064854 38.15414952 27.70979353 40.75 22.8125 C41.26304687 21.83474609 41.77609375 20.85699219 42.3046875 19.84960938 C45.80466653 13.19701104 49.38757433 6.59213606 53 0 C56.96 0 60.92 0 65 0 C63.70276853 4.17846305 62.12185882 7.95008446 60.09375 11.82421875 C59.51906982 12.92467529 58.94438965 14.02513184 58.35229492 15.15893555 C57.7410376 16.32336182 57.12978027 17.48778809 56.5 18.6875 C55.86911638 19.91456465 55.23932545 21.14219168 54.6105957 22.37036133 C51.88770908 27.66428809 49.16021108 32.89252852 45.88671875 37.875 C36.74983139 52.18956347 37.58266988 67.55506076 38 84 C34.04 84 30.08 84 26 84 C26.21785156 82.27007812 26.43570313 80.54015625 26.66015625 78.7578125 C28.53113618 52.19674031 16.36861485 31.75350759 3.78573608 9.03222656 C3.28853058 8.13358887 2.79132507 7.23495117 2.27905273 6.30908203 C1.83794662 5.52179718 1.39684052 4.73451233 0.94236755 3.92337036 C0 2 0 2 0 0 Z " fill="#FFFFFF" transform="translate(2062,336)"/>
<path d="M0 0 C19.8 0 39.6 0 60 0 C60 3.63 60 7.26 60 11 C52.08 11 44.16 11 36 11 C36 35.09 36 59.18 36 84 C32.04 84 28.08 84 24 84 C24 59.91 24 35.82 24 11 C16.08 11 8.16 11 0 11 C0 7.37 0 3.74 0 0 Z " fill="#FFFFFF" transform="translate(2456,340)"/>
<path d="M0 0 C19.8 0 39.6 0 60 0 C60 3.63 60 7.26 60 11 C52.08 11 44.16 11 36 11 C36 35.09 36 59.18 36 84 C32.04 84 28.08 84 24 84 C24 59.91 24 35.82 24 11 C16.08 11 8.16 11 0 11 C0 7.37 0 3.74 0 0 Z " fill="#FFFFFF" transform="translate(1931,336)"/>
<path d="M0 0 C3.96 0 7.92 0 12 0 C12 24.09 12 48.18 12 73 C22.56 73 33.12 73 44 73 C44 76.63 44 80.26 44 84 C29.48 84 14.96 84 0 84 C0 56.28 0 28.56 0 0 Z " fill="#FFFFFF" transform="translate(2411,339)"/>
<path d="M0 0 C3.96 0 7.92 0 12 0 C12 27.72 12 55.44 12 84 C8.04 84 4.08 84 0 84 C0 56.28 0 28.56 0 0 Z " fill="#FFFFFF" transform="translate(1488,339)"/>
<path d="M0 0 C3.96 0 7.92 0 12 0 C12 27.72 12 55.44 12 84 C8.04 84 4.08 84 0 84 C0 56.28 0 28.56 0 0 Z " fill="#FFFFFF" transform="translate(964,337)"/>
<path d="M0 0 C3.96 0 7.92 0 12 0 C12 27.72 12 55.44 12 84 C8.04 84 4.08 84 0 84 C0 56.28 0 28.56 0 0 Z " fill="#FFFFFF" transform="translate(1587,336)"/>
<path d="M0 0 C3.63 0 7.26 0 11 0 C9.20855707 6.96672249 7.13914431 13.80008681 4.875 20.625 C4.60929199 21.43114746 4.34358398 22.23729492 4.06982422 23.06787109 C2.12376909 28.87623091 2.12376909 28.87623091 1 30 C-1.67058851 30.14115161 -4.32432238 30.04247107 -7 30 C-5.46486464 19.80395169 -2.69736887 9.93496549 0 0 Z " fill="#FFFFFF" transform="translate(2380,409)"/>
<path d="M0 0 C2.56809203 2.80885066 3 4.32615149 3 8.125 C2 11 2 11 -0.1875 12.9375 C-3.67591542 14.25534582 -5.46688262 14.15210349 -9 13 C-10.9375 11.375 -10.9375 11.375 -12 9 C-11.93439072 5.260271 -11.76345433 2.9396361 -9.375 0 C-5.85025855 -1.48410166 -3.63189024 -1.05654989 0 0 Z " fill="#FFFFFF" transform="translate(2364,411)"/>
</svg>
