<svg width="264" height="48" viewBox="0 0 264 48" fill="none" xmlns="http://www.w3.org/2000/svg">
<path d="M7.19232 17.8553H16.8581V19.7674H7.19232V17.8553ZM8.99917 13.5399H16.4195V15.452H8.99917V13.5399ZM11.0516 10.5051H13.1041V26.9772H11.0516V10.5051ZM10.4903 18.8376L12.1217 19.3288C11.1218 22.118 9.45527 24.7143 7.43791 26.1878C7.12215 25.6791 6.49063 24.9423 6.03453 24.574C7.9291 23.3986 9.6307 21.1181 10.4903 18.8376ZM13.7707 18.9253C14.4899 20.9953 15.8933 23.1881 17.3493 24.4161C16.8756 24.7845 16.174 25.5212 15.8231 26.065C14.3671 24.5389 13.069 21.89 12.2971 19.3814L13.7707 18.9253ZM8.40274 11.3646L10.3148 11.6979C9.98154 13.9609 9.29739 16.1888 8.3852 17.5921C8.01681 17.2939 7.19232 16.7677 6.71868 16.5396C7.59579 15.2941 8.12206 13.3294 8.40274 11.3646ZM0.719232 13.7855H7.05198V15.7151H0.719232V13.7855ZM2.99972 10.5051H5.05217V26.9772H2.99972V10.5051ZM2.98218 15.2239L4.10489 15.6625C3.6137 18.5745 2.56117 21.9952 1.35075 23.8196C1.14025 23.2057 0.684148 22.2408 0.333303 21.6795C1.50863 20.2059 2.52608 17.4343 2.98218 15.2239ZM4.96446 16.1186C5.36793 16.6273 6.82394 18.9078 7.12215 19.4341L5.91174 20.855C5.52581 19.8025 4.5259 17.75 4.03472 16.8554L4.96446 16.1186ZM31.6287 11.6629L33.0321 10.5051C33.8215 11.0489 34.8565 11.8734 35.3476 12.4523L33.8741 13.7153C33.418 13.1189 32.4356 12.2417 31.6287 11.6629ZM20.0157 13.4872H35.8037V15.5397H20.0157V13.4872ZM20.6648 17.5571H28.2606V19.592H20.6648V17.5571ZM23.3312 18.7148H25.4363V24.6617H23.3312V18.7148ZM19.9982 24.3634C22.1208 24.0477 25.5591 23.4512 28.7167 22.8548L28.8745 24.7318C25.9801 25.3634 22.8751 26.0124 20.5946 26.4861L19.9982 24.3634ZM28.629 10.5752H30.8919C30.734 17.7851 32.0672 24.7845 33.7337 24.7845C34.1197 24.7845 34.3126 23.8196 34.4179 21.6093C34.8915 22.1005 35.6634 22.6092 36.2598 22.8197C35.9441 26.1703 35.2248 26.9948 33.5583 26.9948C29.7517 26.9948 28.6465 18.6973 28.629 10.5752ZM39.856 24.3985C42.9961 24.3108 47.8728 24.1354 52.2934 23.9424L52.2233 25.8721C47.9254 26.1177 43.2943 26.3282 40.1367 26.451L39.856 24.3985ZM39.7683 19.1709H54.3634V21.1357H39.7683V19.1709ZM42.8908 15.8028H51.1181V17.7325H42.8908V15.8028ZM44.0661 20.4515L46.4694 21.1181C45.6449 22.7671 44.6977 24.5915 43.9083 25.7668L42.0663 25.1528C42.7855 23.8723 43.6276 21.9251 44.0661 20.4515ZM48.4166 22.2584L50.2761 21.2936C51.8549 22.6443 53.4863 24.4862 54.2933 25.8195L52.3461 26.9948C51.6093 25.6616 49.9252 23.6618 48.4166 22.2584ZM46.9957 12.5575C45.5748 14.5573 42.8382 16.8027 39.9262 18.1886C39.6806 17.6798 39.1192 16.8904 38.6807 16.4343C41.6804 15.1187 44.4871 12.6101 45.7853 10.5402H48.0131C49.8726 13.1189 52.6618 15.1187 55.4511 16.1186C54.9423 16.6449 54.4687 17.3992 54.0828 18.0307C51.4514 16.8027 48.4868 14.5924 46.9957 12.5575ZM64.5379 24.4161H74.537V26.4861H64.5379V24.4161ZM65.2572 15.9432H74.116V17.9605H65.2572V15.9432ZM68.6077 10.6805H70.7654V25.416H68.6077V10.6805ZM58.2403 13.7504H63.9941V15.6625H58.2403V13.7504ZM60.7488 19.7498L62.8363 17.2588V26.9948H60.7488V19.7498ZM60.7488 10.5226H62.8363V14.645H60.7488V10.5226ZM62.6258 17.8553C63.2398 18.2763 65.2221 20.0305 65.6957 20.4691L64.4151 22.1707C63.731 21.2585 62.2574 19.6446 61.468 18.8727L62.6258 17.8553ZM63.2223 13.7504H63.6433L64.0117 13.6802L65.187 14.4521C63.8538 17.8728 61.2049 20.9427 58.5911 22.5917C58.3981 22.0303 57.907 20.9953 57.5912 20.5919C59.977 19.2937 62.2925 16.715 63.2223 14.1363V13.7504Z" fill="white"/>
<path d="M1.10516 43.6875V34.7005H2.90257V38.2467H6.30307V34.7005H8.08833V43.6875H6.30307V39.8012H2.90257V43.6875H1.10516ZM15.0816 43.8575C12.6892 43.8575 11.0618 42.0844 11.0618 39.1576C11.0618 36.2307 12.6892 34.5426 15.0816 34.5426C17.462 34.5426 19.0894 36.2428 19.0894 39.1576C19.0894 42.0844 17.462 43.8575 15.0816 43.8575ZM15.0816 42.303C16.4176 42.303 17.2677 41.0764 17.2677 39.1576C17.2677 37.2387 16.4176 36.085 15.0816 36.085C13.7336 36.085 12.8956 37.2387 12.8956 39.1576C12.8956 41.0764 13.7336 42.303 15.0816 42.303ZM22.0713 43.6875V34.7005H23.8687V38.5989H23.893L26.8805 34.7005H28.8601L26.1033 38.2346L29.3338 43.6875H27.3785L25.0467 39.6555L23.8687 41.1614V43.6875H22.0713ZM34.764 43.8575C32.5658 43.8575 31.2664 42.6309 31.2664 39.6555V34.7005H33.0516V39.8134C33.0516 41.6715 33.7074 42.303 34.764 42.303C35.8206 42.303 36.5128 41.6715 36.5128 39.8134V34.7005H38.2374V39.6555C38.2374 42.6309 36.9622 43.8575 34.764 43.8575ZM41.6142 43.6875V34.7005H44.7353C46.6177 34.7005 48.1115 35.3563 48.1115 37.4209C48.1115 39.4247 46.6177 40.2991 44.7353 40.2991H43.4116V43.6875H41.6142ZM43.4116 38.8782H44.5653C45.7312 38.8782 46.3627 38.3803 46.3627 37.4209C46.3627 36.4614 45.7312 36.1335 44.5653 36.1335H43.4116V38.8782ZM46.4963 43.6875L44.4074 39.8377L45.6583 38.7082L48.5002 43.6875H46.4963ZM51.1069 43.6875V34.7005H52.9043V43.6875H51.1069ZM56.33 43.6875V34.7005H58.1274V38.5989H58.1517L61.1393 34.7005H63.1189L60.3621 38.2346L63.5925 43.6875H61.6372L59.3055 39.6555L58.1274 41.1614V43.6875H56.33ZM69.0228 43.8575C66.8246 43.8575 65.5251 42.6309 65.5251 39.6555V34.7005H67.3104V39.8134C67.3104 41.6715 67.9662 42.303 69.0228 42.303C70.0794 42.303 70.7716 41.6715 70.7716 39.8134V34.7005H72.4962V39.6555C72.4962 42.6309 71.221 43.8575 69.0228 43.8575ZM83.8049 43.6875V34.7005H85.6023V38.5989H85.6266L88.6142 34.7005H90.5938L87.8369 38.2346L91.0674 43.6875H89.1121L86.7803 39.6555L85.6023 41.1614V43.6875H83.8049ZM91.9897 43.6875L94.868 34.7005H96.9812L99.8594 43.6875H97.977L96.6897 39.0118C96.4225 38.0767 96.1675 37.0322 95.9124 36.0728H95.8639C95.621 37.0444 95.3659 38.0767 95.0987 39.0118L93.8114 43.6875H91.9897ZM93.775 41.38V39.9955H98.0499V41.38H93.775ZM104.822 43.8575C103.608 43.8575 102.417 43.396 101.543 42.558L102.575 41.3193C103.207 41.9144 104.069 42.303 104.858 42.303C105.794 42.303 106.279 41.9022 106.279 41.2829C106.279 40.6149 105.733 40.3963 104.931 40.0563L103.729 39.5462C102.83 39.1818 101.907 38.441 101.907 37.1415C101.907 35.672 103.207 34.5426 105.016 34.5426C106.061 34.5426 107.105 34.9555 107.834 35.6963L106.935 36.8258C106.352 36.3521 105.757 36.085 105.016 36.085C104.227 36.085 103.729 36.4372 103.729 37.0201C103.729 37.6638 104.373 37.9067 105.138 38.2103L106.316 38.6961C107.397 39.1454 108.113 39.8498 108.113 41.1371C108.113 42.6066 106.887 43.8575 104.822 43.8575ZM110.931 43.6875V34.7005H116.445V36.1943H112.728V38.271H115.874V39.7891H112.728V42.1816H116.578V43.6875H110.931ZM119.617 43.6875V34.7005H121.415V43.6875H119.617ZM132.772 43.6875V34.7005H134.57V43.6875H132.772ZM137.996 43.6875V34.7005H139.817L142.428 39.4976L143.339 41.4407H143.4C143.303 40.5056 143.157 39.3033 143.157 38.2831V34.7005H144.869V43.6875H143.036L140.437 38.8782L139.526 36.9594H139.465C139.55 37.9188 139.696 39.0482 139.696 40.0927V43.6875H137.996ZM148.307 43.6875V34.7005H150.772C153.517 34.7005 155.205 36.1214 155.205 39.1576C155.205 42.1816 153.517 43.6875 150.869 43.6875H148.307ZM150.104 42.2423H150.651C152.339 42.2423 153.371 41.3436 153.371 39.1576C153.371 36.9715 152.339 36.1335 150.651 36.1335H150.104V42.2423ZM161.64 43.8575C159.442 43.8575 158.142 42.6309 158.142 39.6555V34.7005H159.927V39.8134C159.927 41.6715 160.583 42.303 161.64 42.303C162.696 42.303 163.389 41.6715 163.389 39.8134V34.7005H165.113V39.6555C165.113 42.6309 163.838 43.8575 161.64 43.8575ZM170.972 43.8575C169.758 43.8575 168.568 43.396 167.693 42.558L168.726 41.3193C169.357 41.9144 170.219 42.303 171.009 42.303C171.944 42.303 172.43 41.9022 172.43 41.2829C172.43 40.6149 171.883 40.3963 171.082 40.0563L169.879 39.5462C168.981 39.1818 168.058 38.441 168.058 37.1415C168.058 35.672 169.357 34.5426 171.167 34.5426C172.211 34.5426 173.256 34.9555 173.984 35.6963L173.086 36.8258C172.503 36.3521 171.907 36.085 171.167 36.085C170.377 36.085 169.879 36.4372 169.879 37.0201C169.879 37.6638 170.523 37.9067 171.288 38.2103L172.466 38.6961C173.547 39.1454 174.264 39.8498 174.264 41.1371C174.264 42.6066 173.037 43.8575 170.972 43.8575ZM178.523 43.6875V36.1943H175.984V34.7005H182.858V36.1943H180.32V43.6875H178.523ZM185.542 43.6875V34.7005H188.663C190.546 34.7005 192.04 35.3563 192.04 37.4209C192.04 39.4247 190.546 40.2991 188.663 40.2991H187.34V43.6875H185.542ZM187.34 38.8782H188.493C189.659 38.8782 190.291 38.3803 190.291 37.4209C190.291 36.4614 189.659 36.1335 188.493 36.1335H187.34V38.8782ZM190.424 43.6875L188.336 39.8377L189.586 38.7082L192.428 43.6875H190.424ZM196.328 43.6875V40.4084L193.62 34.7005H195.526L196.425 36.8986C196.692 37.5666 196.935 38.1981 197.202 38.8904H197.251C197.53 38.1981 197.797 37.5666 198.064 36.8986L198.951 34.7005H200.821L198.113 40.4084V43.6875H196.328ZM214.657 43.8575C212.385 43.8575 210.552 42.2301 210.552 39.2304C210.552 36.2671 212.446 34.5426 214.729 34.5426C215.871 34.5426 216.782 35.077 217.365 35.6842L216.417 36.8379C215.956 36.3886 215.446 36.085 214.754 36.085C213.406 36.085 212.385 37.2508 212.385 39.1697C212.385 41.1371 213.296 42.303 214.729 42.303C215.494 42.303 216.102 41.9387 216.575 41.4165L217.523 42.5459C216.782 43.4082 215.822 43.8575 214.657 43.8575ZM223.21 43.8575C220.818 43.8575 219.19 42.0844 219.19 39.1576C219.19 36.2307 220.818 34.5426 223.21 34.5426C225.591 34.5426 227.218 36.2428 227.218 39.1576C227.218 42.0844 225.591 43.8575 223.21 43.8575ZM223.21 42.303C224.546 42.303 225.396 41.0764 225.396 39.1576C225.396 37.2387 224.546 36.085 223.21 36.085C221.862 36.085 221.024 37.2387 221.024 39.1576C221.024 41.0764 221.862 42.303 223.21 42.303ZM231.062 43.8575C230.419 43.8575 229.957 43.3596 229.957 42.6916C229.957 42.0237 230.419 41.5379 231.062 41.5379C231.694 41.5379 232.18 42.0237 232.18 42.6916C232.18 43.3596 231.694 43.8575 231.062 43.8575ZM235.267 46.2865L234.902 45.3149C235.85 44.9627 236.372 44.319 236.36 43.6025L236.299 42.3394L236.93 43.3839C236.748 43.5661 236.505 43.6511 236.238 43.6511C235.655 43.6511 235.121 43.2624 235.121 42.5945C235.121 41.9508 235.643 41.5379 236.287 41.5379C237.1 41.5379 237.562 42.1937 237.562 43.2867C237.562 44.7198 236.748 45.8007 235.267 46.2865ZM240.528 43.6875V34.7005H242.325V42.1816H245.981V43.6875H240.528ZM248.829 43.6875V36.1943H246.291V34.7005H253.164V36.1943H250.626V43.6875H248.829ZM255.848 43.6875V34.7005H258.314C261.058 34.7005 262.747 36.1214 262.747 39.1576C262.747 42.1816 261.058 43.6875 258.411 43.6875H255.848ZM257.646 42.2423H258.192C259.88 42.2423 260.913 41.3436 260.913 39.1576C260.913 36.9715 259.88 36.1335 258.192 36.1335H257.646V42.2423Z" fill="white"/>
<path d="M90.248 11.7866H96.6604V14.3775H90.248V11.7866ZM100.806 7.03674H103.505V22.6035C103.505 23.8125 103.634 23.9852 104.411 23.9852C104.778 23.9852 106.268 23.9852 106.657 23.9852C107.477 23.9852 107.628 23.1 107.779 19.6024C108.406 20.099 109.528 20.6171 110.241 20.7899C110.003 24.9352 109.356 26.5329 106.916 26.5329C106.398 26.5329 104.498 26.5329 104.023 26.5329C101.54 26.5329 100.806 25.6261 100.806 22.5603V7.03674ZM95.3866 7.01515H98.0854V26.7056H95.3866V7.01515ZM107.952 10.2537L109.809 12.5855C107.585 14.0968 104.843 15.6081 102.403 16.8388C102.209 16.2559 101.713 15.3491 101.346 14.7877C103.699 13.5786 106.225 11.7219 107.952 10.2537ZM89.4924 21.5887C91.2412 21.0705 93.9832 20.099 96.574 19.1706L97.049 21.5239C94.89 22.4955 92.5366 23.4671 90.6367 24.2443L89.4924 21.5887ZM127.427 6.71288H129.974V13.298H127.427V6.71288ZM122.547 12.1753H135.005V14.3559H122.547V12.1753ZM123.67 8.37535H133.882V10.5344H123.67V8.37535ZM127.427 18.2422H129.974V25.5182H127.427V18.2422ZM121.619 24.2012H135.243V26.4897H121.619V24.2012ZM123.368 19.9478H134.12V22.1501H123.368V19.9478ZM125.289 13.4707H127.6C127.427 16.2775 126.801 18.0479 123.67 19.041C123.433 18.4797 122.85 17.5945 122.375 17.1843C124.793 16.5365 125.181 15.4354 125.289 13.4707ZM129.392 13.5355H131.637V15.8241C131.637 16.3206 131.68 16.3638 132.004 16.3638C132.134 16.3638 132.652 16.3638 132.803 16.3638C133.127 16.3638 133.213 16.1911 133.256 14.8525C133.666 15.1763 134.595 15.5002 135.199 15.6513C134.983 17.8104 134.401 18.3717 133.105 18.3717C132.738 18.3717 131.961 18.3717 131.615 18.3717C129.759 18.3717 129.392 17.724 129.392 15.8456V13.5355ZM115.897 7.59809H121.144V9.90827H118.316V26.9647H115.897V7.59809ZM120.453 7.59809H120.885L121.274 7.49014L123.022 8.4833C122.461 10.3401 121.727 12.6934 121.101 14.3559C122.439 16.0184 122.72 17.4865 122.72 18.7172C122.72 20.1206 122.418 21.0274 121.705 21.5239C121.36 21.7614 120.95 21.9126 120.453 21.9773C120.064 22.0421 119.546 22.0637 119.028 22.0421C119.007 21.3944 118.812 20.3796 118.467 19.7319C118.834 19.7751 119.114 19.7751 119.374 19.7751C119.611 19.7751 119.827 19.7319 120 19.6024C120.259 19.4081 120.367 18.9979 120.367 18.3717C120.367 17.4002 120.064 16.0831 118.855 14.6366C119.46 12.7366 120.151 9.71395 120.453 8.37535V7.59809ZM149.881 7.23105H152.515V22.7762C152.515 24.0716 152.666 24.2875 153.724 24.2875C154.199 24.2875 156.358 24.2875 156.876 24.2875C157.934 24.2875 158.107 23.5318 158.258 20.4876C158.884 20.941 159.942 21.416 160.676 21.5671C160.352 25.3023 159.661 26.6841 157.114 26.6841C156.488 26.6841 153.983 26.6841 153.4 26.6841C150.68 26.6841 149.881 25.8204 149.881 22.7546V7.23105ZM157.977 10.8367L159.877 13.1037C157.438 14.8309 154.35 16.4502 151.543 17.7672C151.371 17.1627 150.874 16.2559 150.507 15.6945C153.184 14.4207 156.056 12.4775 157.977 10.8367ZM145.714 6.95038L148.262 7.81399C146.642 11.6571 143.987 15.6513 141.266 18.1558C141.007 17.4865 140.252 16.0615 139.777 15.4138C142.108 13.4059 144.375 10.2105 145.714 6.95038ZM143.425 13.0389L145.973 10.4912L146.016 10.5344V26.9H143.425V13.0389ZM168.751 14.7877H173.738V17.1627H168.751V14.7877ZM172.745 14.7877H175.271C175.271 14.7877 175.25 15.4354 175.25 15.7377C175.163 20.3149 175.055 22.2364 174.559 22.9057C174.127 23.4455 173.695 23.6398 173.069 23.7478C172.486 23.8341 171.558 23.8341 170.543 23.8125C170.5 23.0569 170.219 22.0421 169.83 21.3944C170.608 21.4808 171.342 21.4808 171.687 21.4808C171.99 21.4808 172.184 21.4376 172.357 21.2217C172.616 20.8762 172.702 19.3649 172.745 15.1763V14.7877ZM179.244 8.0299L180.798 6.45379C181.986 7.07992 183.584 8.07308 184.361 8.78556L182.698 10.5344C181.986 9.77872 180.453 8.72079 179.244 8.0299ZM181.792 13.5786L184.404 14.2048C182.59 19.8399 179.417 24.2227 175.142 26.8568C174.753 26.317 173.803 25.2375 173.263 24.7193C177.409 22.4955 180.302 18.5876 181.792 13.5786ZM168.902 9.90827H185.548V12.4559H168.902V9.90827ZM167.175 9.90827H169.895V16.2559C169.895 19.4944 169.528 24.2875 167.563 27.2022C167.132 26.6841 165.966 25.7341 165.361 25.4318C167.024 22.841 167.175 19.0626 167.175 16.2343V9.90827ZM175.941 6.69129H178.661C178.51 15.5002 180.496 24.158 182.677 24.158C183.173 24.158 183.432 23.0569 183.562 20.3365C184.145 20.941 185.073 21.5455 185.764 21.8046C185.354 25.8204 184.49 26.792 182.461 26.792C177.754 26.792 176.005 16.5365 175.941 6.69129ZM192.263 8.91511H209.578V11.6139H192.263V8.91511ZM191.054 22.841H210.809V25.4534H191.054V22.841ZM199.323 10.3833H202.281V23.8773H199.323V10.3833ZM216.574 19.8831H235.832V21.9989H216.574V19.8831ZM216.617 10.1889H235.746V12.3264H216.617V10.1889ZM217.502 14.0536H234.926V16.0831H217.502V14.0536ZM218.582 17.0331H233.911V18.9115H218.582V17.0331ZM224.843 15.09H227.412V26.9431H224.843V15.09ZM222.965 6.64811H225.383V11.2037H222.965V6.64811ZM226.959 6.64811H229.42V11.0526H226.959V6.64811ZM224.368 20.833L226.397 21.7398C224.346 23.9852 220.892 25.8204 217.567 26.6841C217.222 26.0579 216.466 25.0648 215.904 24.525C219.165 23.8989 222.598 22.4739 224.368 20.833ZM227.93 20.7683C229.679 22.4739 233.047 23.8125 236.415 24.3739C235.832 24.9136 235.055 25.9932 234.667 26.7056C231.255 25.842 227.952 24.0068 225.922 21.5671L227.93 20.7683ZM231.925 6.82083L234.645 7.46855C233.954 8.65602 233.22 9.82191 232.659 10.6208L230.564 9.97304C231.061 9.08783 231.622 7.77081 231.925 6.82083ZM229.075 11.4628L231.817 12.0889C231.234 13.1252 230.672 14.0752 230.219 14.7661L228.017 14.14C228.405 13.3627 228.859 12.2616 229.075 11.4628ZM218.171 7.51173L220.395 6.75606C221.021 7.68445 221.734 8.97988 222.036 9.82191L219.683 10.6639C219.445 9.82191 218.754 8.50489 218.171 7.51173ZM220.913 12.348L223.418 11.9594C223.785 12.5639 224.195 13.4059 224.368 13.9889L221.734 14.4423C221.604 13.8809 221.237 12.9741 220.913 12.348ZM241.77 7.72763H251.356V10.081H241.77V7.72763ZM253.126 13.9889H261.612V16.4718H253.126V13.9889ZM257.099 15.7377H259.668V26.9647H257.099V15.7377ZM252.09 8.59125L255.199 9.32533C255.178 9.54123 255.026 9.64918 254.638 9.71395V14.615C254.638 18.1126 254.141 23.4455 250.708 26.9216C250.363 26.3602 249.391 25.475 248.787 25.1727C251.809 22.1069 252.09 17.8104 252.09 14.5934V8.59125ZM242.461 11.7003H244.922V17.2274C244.922 20.1421 244.62 24.3307 242.936 26.9863C242.526 26.5329 241.446 25.7125 240.906 25.4318C242.331 23.1 242.461 19.7103 242.461 17.2058V11.7003ZM259.193 6.8856L261.46 8.82875C259.15 9.97304 256.106 10.8582 253.472 11.4412C253.321 10.8582 252.911 9.90827 252.587 9.36851C255.005 8.76397 257.639 7.81399 259.193 6.8856ZM243.886 11.7003H250.903V19.0842H243.886V16.774H248.398V14.032H243.886V11.7003Z" fill="white"/>
</svg>
