<svg width="436" height="584" viewBox="0 0 436 584" fill="none" xmlns="http://www.w3.org/2000/svg">
<path d="M217.8 4.14844L304.92 236.633H130.227L217.8 4.14844Z" fill="#12929D"/>
<path d="M67.1543 407.257L130.892 237.555H306.317L368.444 407.257H67.1543Z" fill="#28AEBA"/>
<path d="M2.26855 581.911L66.7011 406.805H368.445L433.331 581.911H2.26855Z" fill="#41C7D3"/>
<path d="M1.30807 582.403L217.8 3.28697L434.292 582.403H1.30807Z" stroke="#12929D" stroke-width="1.815"/>
<path d="M130.68 237.555L304.012 237.555" stroke="#12929D" stroke-width="1.815"/>
<line x1="67.1543" y1="406.35" x2="368.444" y2="406.35" stroke="#12929D" stroke-width="1.815"/>
<path d="M172.587 192.895C170.956 194.357 168.905 195.088 166.436 195.088C163.927 195.088 161.909 194.221 160.382 192.485C159.082 191.01 158.432 189.077 158.432 186.685C158.432 184.41 159.063 182.493 160.323 180.933C161.825 179.081 163.807 178.155 166.27 178.155C167.674 178.155 168.925 178.422 170.023 178.954C170.758 179.312 171.524 179.858 172.324 180.592L170.774 182.376C169.611 181.024 168.148 180.349 166.387 180.349C164.847 180.349 163.602 180.933 162.653 182.103C161.717 183.254 161.25 184.794 161.25 186.724C161.25 188.297 161.62 189.619 162.361 190.692C163.355 192.122 164.727 192.836 166.475 192.836C168.385 192.836 169.984 192.157 171.271 190.799L172.587 192.895ZM180.522 182.552C182.31 182.552 183.785 183.159 184.948 184.375C186.053 185.525 186.605 187.01 186.605 188.83C186.605 190.571 186.112 192.008 185.124 193.139C183.967 194.451 182.423 195.108 180.493 195.108C178.504 195.108 176.932 194.412 175.775 193.022C174.852 191.904 174.391 190.506 174.391 188.83C174.391 186.497 175.258 184.748 176.993 183.585C178.02 182.896 179.197 182.552 180.522 182.552ZM180.483 184.55C179.723 184.55 179.041 184.813 178.436 185.34C177.533 186.12 177.081 187.283 177.081 188.83C177.081 189.558 177.192 190.214 177.413 190.799C177.627 191.358 177.933 191.823 178.329 192.193C178.927 192.752 179.655 193.031 180.513 193.031C181.65 193.031 182.537 192.554 183.174 191.598C183.668 190.851 183.915 189.925 183.915 188.82C183.915 187.54 183.583 186.503 182.921 185.71C182.271 184.937 181.458 184.55 180.483 184.55ZM191.441 186.461H191.519C192.383 183.881 193.712 182.591 195.506 182.591C196.026 182.591 196.526 182.691 197.007 182.893L196.335 185.35C195.971 185.226 195.597 185.164 195.213 185.164C194.219 185.164 193.39 185.665 192.728 186.666C192.286 187.322 191.977 188.167 191.801 189.2V194.708H189.208V182.932H191.665L191.441 186.461ZM209.739 189.327H200.955C201.001 190.36 201.326 191.199 201.93 191.842C202.658 192.602 203.584 192.983 204.709 192.983C206.034 192.983 207.207 192.362 208.228 191.121L209.787 192.7C208.507 194.312 206.733 195.118 204.465 195.118C202.606 195.118 201.108 194.523 199.971 193.334C198.885 192.19 198.343 190.714 198.343 188.908C198.343 187.439 198.697 186.162 199.405 185.077C200.036 184.115 200.877 183.416 201.93 182.981C202.652 182.682 203.422 182.532 204.241 182.532C205.547 182.532 206.661 182.896 207.584 183.624C208.54 184.365 209.183 185.402 209.515 186.734C209.664 187.338 209.739 187.975 209.739 188.645V189.327ZM207.126 187.426C207.074 186.757 206.899 186.198 206.6 185.749C206.034 184.924 205.222 184.511 204.163 184.511C203.214 184.511 202.434 184.895 201.823 185.661C201.446 186.136 201.212 186.724 201.121 187.426H207.126ZM217.791 182.932H220.647L222.958 189.327C223.231 190.068 223.471 190.87 223.679 191.735H223.757C223.952 190.916 224.193 190.113 224.479 189.327L226.799 182.932H229.655L224.742 194.913H222.704L217.791 182.932ZM238.487 187.124V186.939C238.487 185.333 237.724 184.531 236.196 184.531C234.766 184.531 233.48 184.963 232.336 185.827L231.342 184.024C232.843 183.042 234.49 182.552 236.284 182.552C238.013 182.552 239.303 183.049 240.154 184.043C240.746 184.726 241.041 185.733 241.041 187.065V191.179C241.041 192.7 241.275 193.876 241.743 194.708H239.365C239.085 194.169 238.9 193.551 238.809 192.856H238.741C238.409 193.506 237.876 194.055 237.142 194.503C236.544 194.867 235.754 195.049 234.773 195.049C233.61 195.049 232.648 194.708 231.887 194.026C231.095 193.311 230.698 192.401 230.698 191.296C230.698 188.515 232.947 187.124 237.444 187.124H238.487ZM238.487 188.956H237.707C236.187 188.956 235.046 189.151 234.286 189.541C233.636 189.873 233.311 190.445 233.311 191.257C233.311 191.803 233.506 192.235 233.896 192.554C234.266 192.859 234.747 193.012 235.338 193.012C236.125 193.012 236.83 192.732 237.454 192.173C238.143 191.563 238.487 190.776 238.487 189.814V188.956ZM245.038 177.638H247.67V192.212C247.67 192.518 247.823 192.671 248.128 192.671H249.747L249.464 194.708H247.251C246.738 194.708 246.312 194.614 245.974 194.425C245.35 194.087 245.038 193.483 245.038 192.612V177.638ZM251.852 182.932H254.504V189.961C254.504 191.852 255.242 192.797 256.717 192.797C257.51 192.797 258.231 192.453 258.881 191.764C259.356 191.264 259.723 190.63 259.983 189.863V182.932H262.634V194.708H260.158V192.612C259.079 194.159 257.679 194.932 255.957 194.932C254.533 194.932 253.451 194.442 252.71 193.46C252.138 192.7 251.852 191.654 251.852 190.321V182.932ZM276.945 189.327H268.162C268.207 190.36 268.532 191.199 269.137 191.842C269.864 192.602 270.791 192.983 271.915 192.983C273.241 192.983 274.414 192.362 275.434 191.121L276.994 192.7C275.714 194.312 273.939 195.118 271.671 195.118C269.812 195.118 268.314 194.523 267.177 193.334C266.092 192.19 265.549 190.714 265.549 188.908C265.549 187.439 265.903 186.162 266.612 185.077C267.242 184.115 268.084 183.416 269.137 182.981C269.858 182.682 270.628 182.532 271.447 182.532C272.753 182.532 273.868 182.896 274.791 183.624C275.746 184.365 276.389 185.402 276.721 186.734C276.87 187.338 276.945 187.975 276.945 188.645V189.327ZM274.333 187.426C274.281 186.757 274.105 186.198 273.806 185.749C273.241 184.924 272.428 184.511 271.369 184.511C270.42 184.511 269.64 184.895 269.029 185.661C268.652 186.136 268.418 186.724 268.327 187.426H274.333Z" fill="white"/>
<path d="M183.991 212.946H193.073V222.338H183.774V221.041H191.596V214.242H183.991V212.946ZM195.095 212.784H204.816L205.617 213.46C205.385 214.325 205.083 215.046 204.711 215.625C204.012 216.721 202.966 217.54 201.572 218.082L200.79 217.015C201.754 216.726 202.554 216.207 203.191 215.458C203.567 215.015 203.83 214.548 203.979 214.056H195.095V212.784ZM199.072 215.464H200.492V216.531C200.492 218.132 200.315 219.368 199.959 220.241C199.508 221.349 198.631 222.251 197.329 222.946L196.305 221.866C197.202 221.44 197.858 220.932 198.272 220.34C198.59 219.881 198.799 219.395 198.898 218.882C199.014 218.295 199.072 217.507 199.072 216.519V215.464ZM206.634 221.686C207.354 220.628 207.972 219.331 208.489 217.797C209.051 216.118 209.407 214.412 209.556 212.679L210.977 212.97C210.608 215.51 210.114 217.644 209.494 219.372C209.047 220.63 208.497 221.732 207.844 222.679L206.634 221.686ZM216.647 222.741C215.15 220.255 213.994 216.994 213.179 212.958L214.525 212.542C215.245 216.149 216.361 219.236 217.875 221.804L216.647 222.741ZM215.995 214.143C215.755 213.485 215.338 212.722 214.742 211.854L215.716 211.5C216.192 212.154 216.62 212.902 217 213.746L215.995 214.143ZM217.776 213.864C217.457 213.041 217.042 212.269 216.529 211.55L217.459 211.246C217.952 211.85 218.371 212.577 218.719 213.429L217.776 213.864ZM220.152 212.034H221.597V218.82H220.152V212.034ZM226.523 211.903H227.968V216.339C227.968 217.898 227.842 219.058 227.59 219.819C227.379 220.468 227.091 220.985 226.728 221.37C225.971 222.185 224.755 222.787 223.08 223.175L222.366 221.904C224.199 221.531 225.373 220.913 225.89 220.049C226.217 219.499 226.413 218.804 226.479 217.964C226.508 217.575 226.523 217.038 226.523 216.351V211.903ZM231.511 214.813H237.751C237.652 216.645 237.456 218.717 237.162 221.029L237.106 221.463H239.451V222.642H230.332V221.463H235.772C236.091 219.234 236.281 217.41 236.343 215.991H231.511V214.813ZM240.99 216.63H251.914V218.026H240.99V216.63Z" fill="white"/>
<path d="M172.708 301.957H178.333C180.107 301.957 181.491 302.22 182.486 302.747C183.038 303.039 183.509 303.445 183.899 303.965C184.517 304.804 184.825 305.775 184.825 306.88C184.825 308.277 184.442 309.431 183.675 310.341C183.077 311.056 182.252 311.546 181.199 311.813C180.387 312.021 179.405 312.125 178.255 312.125H175.321V318.13H172.708V301.957ZM175.321 304.034V310.048H177.797C179.259 310.048 180.279 309.853 180.858 309.464C181.599 308.97 181.969 308.131 181.969 306.948C181.969 305.005 180.686 304.034 178.118 304.034H175.321ZM187.536 306.354H190.187V313.382C190.187 315.274 190.925 316.219 192.4 316.219C193.193 316.219 193.914 315.875 194.564 315.186C195.039 314.686 195.406 314.052 195.666 313.285V306.354H198.317V318.13H195.841V316.034C194.762 317.581 193.362 318.354 191.64 318.354C190.216 318.354 189.134 317.864 188.393 316.882C187.822 316.122 187.536 315.075 187.536 313.743V306.354ZM204.118 309.883H204.196C205.06 307.303 206.389 306.013 208.183 306.013C208.703 306.013 209.203 306.113 209.684 306.315L209.012 308.771C208.648 308.648 208.274 308.586 207.891 308.586C206.896 308.586 206.068 309.087 205.405 310.087C204.963 310.744 204.654 311.589 204.479 312.622V318.13H201.885V306.354H204.342L204.118 309.883ZM214.149 306.354V307.953C215.228 306.672 216.583 306.032 218.214 306.032C219.852 306.032 221.171 306.578 222.172 307.67C223.127 308.703 223.605 310.094 223.605 311.842C223.605 313.317 223.264 314.552 222.582 315.547C221.6 316.976 220.157 317.691 218.253 317.691C216.524 317.691 215.221 317.1 214.344 315.917V320.011H211.731V306.354H214.149ZM214.344 313.655C215.28 315.001 216.372 315.673 217.62 315.673C218.614 315.673 219.4 315.345 219.979 314.689C220.577 314.013 220.876 313.054 220.876 311.813C220.876 310.689 220.625 309.805 220.125 309.161C219.553 308.433 218.718 308.069 217.62 308.069C216.833 308.069 216.128 308.316 215.504 308.81C215.017 309.194 214.63 309.72 214.344 310.39V313.655ZM231.55 305.974C233.337 305.974 234.813 306.581 235.976 307.797C237.081 308.947 237.633 310.432 237.633 312.252C237.633 313.993 237.139 315.43 236.152 316.56C234.995 317.873 233.451 318.53 231.521 318.53C229.532 318.53 227.96 317.834 226.803 316.443C225.88 315.326 225.418 313.928 225.418 312.252C225.418 309.918 226.286 308.17 228.021 307.007C229.048 306.318 230.224 305.974 231.55 305.974ZM231.511 307.972C230.751 307.972 230.068 308.235 229.464 308.762C228.561 309.542 228.109 310.705 228.109 312.252C228.109 312.98 228.219 313.636 228.44 314.221C228.655 314.78 228.96 315.244 229.357 315.615C229.955 316.174 230.683 316.453 231.54 316.453C232.678 316.453 233.565 315.976 234.202 315.02C234.696 314.273 234.943 313.347 234.943 312.242C234.943 310.962 234.611 309.925 233.948 309.132C233.298 308.359 232.486 307.972 231.511 307.972ZM240.353 314.854C241.607 315.79 243.014 316.258 244.574 316.258C245.991 316.258 246.699 315.836 246.699 314.991C246.699 314.348 245.894 313.756 244.282 313.217L243.268 312.885C242.072 312.482 241.25 312.115 240.802 311.784C240.074 311.238 239.71 310.461 239.71 309.454C239.71 308.336 240.2 307.442 241.182 306.773C241.962 306.24 242.943 305.974 244.126 305.974C245.92 305.974 247.531 306.419 248.961 307.309L247.723 309.308C246.67 308.508 245.53 308.108 244.301 308.108C243.794 308.108 243.378 308.199 243.053 308.381C242.651 308.602 242.449 308.924 242.449 309.347C242.449 309.672 242.625 309.951 242.975 310.185C243.255 310.38 243.765 310.588 244.506 310.809L245.588 311.121C248.194 311.894 249.497 313.148 249.497 314.884C249.497 315.755 249.179 316.531 248.542 317.214C247.736 318.078 246.339 318.51 244.35 318.51C242.413 318.51 240.668 317.945 239.115 316.814L240.353 314.854ZM262.755 312.749H253.972C254.017 313.782 254.342 314.621 254.947 315.264C255.675 316.024 256.601 316.404 257.725 316.404C259.051 316.404 260.224 315.784 261.244 314.543L262.804 316.122C261.524 317.734 259.749 318.539 257.481 318.539C255.623 318.539 254.125 317.945 252.987 316.755C251.902 315.612 251.359 314.136 251.359 312.33C251.359 310.861 251.713 309.584 252.422 308.498C253.052 307.537 253.894 306.838 254.947 306.402C255.668 306.104 256.438 305.954 257.257 305.954C258.563 305.954 259.678 306.318 260.601 307.046C261.556 307.787 262.2 308.823 262.531 310.156C262.681 310.76 262.755 311.397 262.755 312.066V312.749ZM260.143 310.848C260.091 310.178 259.915 309.62 259.616 309.171C259.051 308.346 258.238 307.933 257.179 307.933C256.23 307.933 255.45 308.316 254.839 309.083C254.463 309.558 254.229 310.146 254.138 310.848H260.143Z" fill="white"/>
<path d="M193.09 345.108C193.81 344.05 194.428 342.753 194.945 341.219C195.508 339.539 195.863 337.834 196.012 336.101L197.433 336.392C197.065 338.932 196.571 341.066 195.95 342.794C195.504 344.052 194.954 345.154 194.3 346.101L193.09 345.108ZM202.973 346.163C202.237 344.926 201.563 343.435 200.95 341.69C200.367 340.023 199.885 338.253 199.505 336.38L200.851 335.964C201.563 339.533 202.681 342.621 204.207 345.226L202.973 346.163ZM203.426 334.804C203.703 334.804 203.967 334.881 204.22 335.034C204.468 335.182 204.66 335.385 204.797 335.642C204.921 335.873 204.983 336.115 204.983 336.367C204.983 336.773 204.838 337.13 204.549 337.441C204.242 337.767 203.864 337.931 203.413 337.931C203.19 337.931 202.975 337.883 202.768 337.788C202.512 337.668 202.303 337.492 202.142 337.261C201.951 336.988 201.856 336.688 201.856 336.361C201.856 336.109 201.92 335.865 202.048 335.629C202.177 335.393 202.35 335.203 202.57 335.058C202.83 334.889 203.116 334.804 203.426 334.804ZM203.419 335.567C203.266 335.567 203.122 335.611 202.985 335.697C202.741 335.85 202.619 336.076 202.619 336.374C202.619 336.585 202.692 336.766 202.836 336.92C202.994 337.085 203.188 337.168 203.419 337.168C203.552 337.168 203.674 337.139 203.786 337.081C204.075 336.932 204.22 336.696 204.22 336.374C204.22 336.146 204.139 335.954 203.978 335.797C203.829 335.644 203.643 335.567 203.419 335.567ZM205.845 340.052H216.77V341.448H205.845V340.052ZM217.868 345.108C218.587 344.05 219.206 342.753 219.723 341.219C220.285 339.539 220.641 337.834 220.79 336.101L222.21 336.392C221.842 338.932 221.348 341.066 220.728 342.794C220.281 344.052 219.731 345.154 219.077 346.101L217.868 345.108ZM227.75 346.163C227.014 344.926 226.34 343.435 225.728 341.69C225.145 340.023 224.663 338.253 224.282 336.38L225.628 335.964C226.34 339.533 227.458 342.621 228.985 345.226L227.75 346.163ZM228.203 334.804C228.48 334.804 228.745 334.881 228.997 335.034C229.245 335.182 229.437 335.385 229.574 335.642C229.698 335.873 229.76 336.115 229.76 336.367C229.76 336.773 229.615 337.13 229.326 337.441C229.02 337.767 228.641 337.931 228.191 337.931C227.967 337.931 227.752 337.883 227.545 337.788C227.289 337.668 227.08 337.492 226.919 337.261C226.729 336.988 226.633 336.688 226.633 336.361C226.633 336.109 226.698 335.865 226.826 335.629C226.954 335.393 227.128 335.203 227.347 335.058C227.607 334.889 227.893 334.804 228.203 334.804ZM228.197 335.567C228.044 335.567 227.899 335.611 227.762 335.697C227.518 335.85 227.396 336.076 227.396 336.374C227.396 336.585 227.469 336.766 227.614 336.92C227.771 337.085 227.965 337.168 228.197 337.168C228.329 337.168 228.451 337.139 228.563 337.081C228.852 336.932 228.997 336.696 228.997 336.374C228.997 336.146 228.916 335.954 228.755 335.797C228.606 335.644 228.42 335.567 228.197 335.567ZM231.485 336.206H238.966L239.791 336.932C239.092 338.586 238.259 340.09 237.291 341.442C238.664 342.517 239.973 343.729 241.218 345.077L240.188 346.244C238.968 344.858 237.728 343.605 236.466 342.484C235.11 344.085 233.393 345.35 231.317 346.281L230.573 344.997C232.115 344.368 233.399 343.584 234.425 342.645C235.385 341.769 236.263 340.687 237.062 339.401C237.488 338.71 237.819 338.069 238.054 337.478H231.485V336.206Z" fill="white"/>
<path d="M176.627 473.473H180.517L183.695 480.199C184.182 481.239 184.601 482.419 184.952 483.738H185.03C185.375 482.432 185.794 481.252 186.288 480.199L189.466 473.473H193.355V489.646H190.84V481.203C190.84 478.565 190.879 476.648 190.957 475.452H190.86C190.262 477.038 189.684 478.461 189.125 479.722L185.947 486.936H184.036L180.858 479.722C180.201 478.227 179.623 476.804 179.123 475.452H179.025C179.103 476.693 179.142 478.61 179.142 481.203V489.646H176.627V473.473ZM196.728 472.8H199.604V475.471H196.728V472.8ZM196.845 477.869H199.478V489.646H196.845V477.869ZM203.201 486.37C204.456 487.306 205.863 487.774 207.423 487.774C208.839 487.774 209.548 487.351 209.548 486.507C209.548 485.863 208.742 485.272 207.13 484.732L206.116 484.401C204.92 483.998 204.098 483.631 203.65 483.299C202.922 482.753 202.558 481.977 202.558 480.969C202.558 479.852 203.049 478.958 204.03 478.289C204.81 477.756 205.791 477.489 206.974 477.489C208.768 477.489 210.38 477.934 211.809 478.825L210.571 480.823C209.519 480.024 208.378 479.624 207.15 479.624C206.643 479.624 206.227 479.715 205.902 479.897C205.499 480.118 205.297 480.44 205.297 480.862C205.297 481.187 205.473 481.467 205.824 481.701C206.103 481.896 206.613 482.103 207.354 482.324L208.436 482.636C211.043 483.41 212.346 484.664 212.346 486.399C212.346 487.27 212.027 488.047 211.39 488.729C210.584 489.594 209.187 490.026 207.198 490.026C205.262 490.026 203.517 489.46 201.963 488.33L203.201 486.37ZM214.978 486.37C216.232 487.306 217.639 487.774 219.199 487.774C220.616 487.774 221.324 487.351 221.324 486.507C221.324 485.863 220.518 485.272 218.906 484.732L217.893 484.401C216.697 483.998 215.875 483.631 215.426 483.299C214.698 482.753 214.334 481.977 214.334 480.969C214.334 479.852 214.825 478.958 215.806 478.289C216.586 477.756 217.568 477.489 218.75 477.489C220.544 477.489 222.156 477.934 223.586 478.825L222.348 480.823C221.295 480.024 220.154 479.624 218.926 479.624C218.419 479.624 218.003 479.715 217.678 479.897C217.275 480.118 217.074 480.44 217.074 480.862C217.074 481.187 217.249 481.467 217.6 481.701C217.88 481.896 218.39 482.103 219.131 482.324L220.213 482.636C222.819 483.41 224.122 484.664 224.122 486.399C224.122 487.27 223.803 488.047 223.166 488.729C222.361 489.594 220.963 490.026 218.975 490.026C217.038 490.026 215.293 489.46 213.74 488.33L214.978 486.37ZM226.676 472.8H229.552V475.471H226.676V472.8ZM226.793 477.869H229.425V489.646H226.793V477.869ZM238.325 477.489C240.113 477.489 241.588 478.097 242.751 479.312C243.856 480.462 244.409 481.948 244.409 483.767C244.409 485.509 243.915 486.945 242.927 488.076C241.77 489.389 240.226 490.045 238.296 490.045C236.307 490.045 234.735 489.35 233.578 487.959C232.655 486.841 232.194 485.444 232.194 483.767C232.194 481.434 233.061 479.686 234.796 478.523C235.823 477.834 237 477.489 238.325 477.489ZM238.286 479.488C237.526 479.488 236.844 479.751 236.239 480.277C235.336 481.057 234.884 482.22 234.884 483.767C234.884 484.495 234.995 485.152 235.216 485.736C235.43 486.295 235.736 486.76 236.132 487.13C236.73 487.689 237.458 487.969 238.316 487.969C239.453 487.969 240.34 487.491 240.977 486.536C241.471 485.788 241.718 484.862 241.718 483.757C241.718 482.477 241.386 481.441 240.724 480.648C240.074 479.874 239.261 479.488 238.286 479.488ZM249.605 477.869V479.907C250.696 478.399 252.061 477.645 253.699 477.645C254.849 477.645 255.805 477.977 256.565 478.64C257.423 479.387 257.852 480.609 257.852 482.305V489.646H255.22V482.636C255.22 481.714 255.047 481.005 254.703 480.511C254.372 480.037 253.813 479.8 253.026 479.8C252.22 479.8 251.489 480.138 250.833 480.813C250.352 481.307 249.981 481.944 249.721 482.724V489.646H247.089V477.869H249.605Z" fill="white"/>
<path d="M199.015 509.98C196.455 509.252 193.849 508.669 191.198 508.23L191.415 506.909C194.182 507.327 196.78 507.897 199.207 508.621L199.015 509.98ZM198.339 513.628C196.205 512.937 193.885 512.374 191.378 511.94L191.608 510.582C194.155 511.008 196.467 511.57 198.543 512.269L198.339 513.628ZM199.269 518.063C195.919 517.037 192.844 516.225 190.044 515.625L190.324 514.211C193.822 514.963 196.881 515.778 199.499 516.655L199.269 518.063ZM202.718 513.59C202.421 512.317 202.017 511.14 201.509 510.06L202.687 509.484C203.213 510.559 203.641 511.766 203.972 513.106L202.718 513.59ZM205.597 513.032C205.365 512.019 204.985 510.846 204.455 509.515L205.678 509.006C206.153 510.052 206.55 511.237 206.869 512.561L205.597 513.032ZM203.668 516.891C205.049 516.523 206.104 516.026 206.831 515.402C207.559 514.777 208.114 513.876 208.494 512.697C208.792 511.762 209.009 510.561 209.145 509.093L210.467 509.484C210.219 511.423 209.873 512.91 209.431 513.944C208.893 515.209 208.087 516.186 207.011 516.872C206.329 517.31 205.456 517.699 204.393 518.038L203.668 516.891ZM217.018 509.738C215.798 509.192 214.553 508.735 213.283 508.367L213.686 507.139C215.117 507.494 216.373 507.929 217.452 508.441L217.018 509.738ZM215.746 512.914C214.729 512.467 213.484 512.01 212.011 511.543L212.545 510.302C213.811 510.637 215.039 511.082 216.23 511.636L215.746 512.914ZM212.812 516.332C214.503 516.192 215.829 515.935 216.788 515.563C218.207 515.021 219.321 514.054 220.132 512.66C220.674 511.729 221.102 510.553 221.416 509.13L222.669 509.856C222.268 511.638 221.708 513.059 220.988 514.118C220.144 515.354 218.968 516.268 217.458 516.86C216.395 517.269 214.979 517.557 213.209 517.722L212.812 516.332ZM224.27 509.409H231.906V517.567H223.978V516.388H230.598V513.932H224.524V512.765H230.598V510.588H224.27V509.409ZM238.718 510.172C237.411 509.589 236.053 509.122 234.642 508.77L235.077 507.436C236.71 507.809 238.081 508.272 239.19 508.826L238.718 510.172ZM234.797 516.345C236.845 516.171 238.412 515.805 239.5 515.247C240.782 514.585 241.766 513.57 242.453 512.201C242.899 511.316 243.261 510.158 243.538 508.727L244.729 509.601C244.394 511.132 243.989 512.348 243.513 513.249C242.653 514.891 241.338 516.08 239.568 516.816C238.451 517.279 236.958 517.61 235.089 517.809L234.797 516.345Z" fill="white"/>
</svg>
