<svg width="90" height="90" viewBox="0 0 90 90" fill="none" xmlns="http://www.w3.org/2000/svg">
<g clip-path="url(#clip0_901_2891)">
<g clip-path="url(#clip1_901_2891)">
<path d="M64.2734 79V11L3 22.8566V74.9082L18.8552 75.9665V67.4357L41.395 68.0504V77.4733L64.2717 79.0017L64.2734 79ZM51.711 21.2203L57.303 20.3132V28.942L51.711 29.6596V21.2203ZM51.711 37.9129L57.303 37.3813V46.0101L51.711 46.3523V37.9129ZM41.3439 22.9015L46.4747 22.0692V30.3308L41.3439 30.9887V22.9015ZM11.0442 48.8376L7.28672 49.0668V42.1359L11.0442 41.7788V48.8376ZM11.0442 34.8761L7.28672 35.3579V28.427L11.0442 27.8173V34.8761ZM18.8978 48.3575L14.8544 48.605V41.4166L18.8978 41.0328V48.3591V48.3575ZM18.8978 33.8677L14.8544 34.386V27.1976L18.8978 26.5414V33.8677ZM27.3691 47.8408L23.0058 48.1083V40.6441L27.3691 40.2288V47.8425V47.8408ZM27.3691 32.7812L23.0058 33.3411V25.8769L27.3691 25.1692V32.7829V32.7812ZM36.5314 47.281L31.8073 47.57V39.8068L36.5314 39.3583V47.2826V47.281ZM36.5314 31.6067L31.8073 32.213V24.4498L36.5314 23.684V31.6083V31.6067ZM41.3439 46.9869V38.8997L46.4747 38.4113V46.6729L41.3439 46.9869Z" fill="#65C0C8"/>
<path d="M68.5156 11.4922V78.5054L99.9998 73.9335V16.0641L68.5156 11.4922Z" fill="#65C0C8"/>
</g>
</g>
<defs>
<clipPath id="clip0_901_2891">
<rect width="90" height="90" fill="white"/>
</clipPath>
<clipPath id="clip1_901_2891">
<rect width="97" height="68" fill="white" transform="translate(3 11)"/>
</clipPath>
</defs>
</svg>
