<svg width="53" height="87" viewBox="0 0 53 87" fill="none" xmlns="http://www.w3.org/2000/svg">
<path d="M21.6039 31.1339C21.6039 30.1586 20.8136 29.3672 19.8382 29.3672C18.8618 29.3672 18.0703 30.1586 18.0703 31.1339C18.0703 32.1105 18.8618 32.9006 19.8382 32.9006C20.8138 32.9006 21.6039 32.1103 21.6039 31.1339Z" fill="#65C0C8"/>
<path d="M32.9075 29.3672C31.9321 29.3672 31.1406 30.1586 31.1406 31.1339C31.1406 32.1105 31.9319 32.9006 32.9075 32.9006C33.8828 32.9006 34.674 32.1103 34.674 31.1339C34.674 30.1586 33.8828 29.3672 32.9075 29.3672Z" fill="#65C0C8"/>
<path d="M31.2199 37.1582C30.1151 38.6879 28.3231 39.6414 26.3712 39.6402C24.4229 39.6414 22.6296 38.6865 21.5235 37.1582C21.2234 36.7432 20.6425 36.6489 20.2286 36.9501C19.8124 37.2491 19.7193 37.8299 20.0205 38.2437C21.4678 40.2477 23.8141 41.494 26.3711 41.4952C28.9316 41.4952 31.2767 40.2477 32.724 38.2437C33.0229 37.8285 32.9297 37.2491 32.5133 36.949C32.0998 36.6489 31.519 36.7432 31.2199 37.1582Z" fill="#65C0C8"/>
<path d="M52.6368 29.2491C51.6905 9.83205 29.449 0 26.3729 0C23.2968 0 1.05536 9.83205 0.109075 29.2491C-0.740494 46.6781 2.94794 86.2712 26.3729 86.2712C49.7979 86.2712 53.4875 46.6781 52.6368 29.2491ZM24.0918 14.0602C24.7852 13.9705 25.4918 13.9222 26.2107 13.9222C27.1859 13.9222 28.1371 14.0093 29.064 14.1714C29.1597 14.2816 29.2601 14.4075 29.3592 14.5574C29.7768 15.1916 30.1992 16.1898 30.2015 17.7678C30.2015 18.961 29.9512 20.4929 29.2431 22.4217C27.0068 20.6225 25.7326 18.9669 25.0103 17.6008C24.2273 16.1137 24.0857 14.9628 24.0845 14.2973C24.0847 14.209 24.0883 14.1303 24.0918 14.0602ZM22.4958 14.3419C22.5007 15.2424 22.7099 16.6497 23.6042 18.3437C24.0059 19.1025 24.542 19.9157 25.2548 20.7688C24.542 20.482 23.8293 20.2134 23.1613 19.9315C22.0081 19.4462 20.9965 18.903 20.3103 18.1781C19.9666 17.8162 19.6957 17.4121 19.5019 16.9196C19.3435 16.5118 19.2417 16.0362 19.2104 15.4735C20.2522 14.9869 21.3486 14.6046 22.4958 14.3419ZM40.4633 64.7484C40.1207 65.1295 39.535 65.1622 39.1539 64.821L21.6341 49.1466C22.7184 49.4105 23.8377 49.581 24.9837 49.6538L29.0859 53.324L33.6844 48.186C34.5628 47.8145 35.4075 47.3801 36.211 46.8875C36.5305 47.2347 36.5438 47.772 36.2232 48.1302L30.4691 54.5618L40.3908 63.439C40.7718 63.7804 40.8045 64.3661 40.4633 64.7484ZM46.7558 34.3787C46.1919 34.9403 45.4271 35.2827 44.5704 35.2839C44.2147 35.2839 43.8747 35.2209 43.5466 35.106L42.2918 34.6642L41.8551 35.9203C40.7322 39.1562 38.629 41.9404 35.9039 43.9117C33.1776 45.8841 29.8364 47.0446 26.211 47.0458C22.6024 47.0446 19.2748 45.8949 16.5543 43.9383C13.8353 41.9815 11.7321 39.219 10.5959 36.0061L10.1844 34.8431L8.99619 35.1687C8.72524 35.2438 8.45278 35.2837 8.17695 35.2837C7.31895 35.2824 6.55414 34.94 5.99017 34.3786C5.42874 33.8148 5.08517 33.05 5.08517 32.192C5.08517 31.3353 5.42874 30.5692 5.99017 30.0065C6.55414 29.4451 7.31895 29.1014 8.17695 29.1002C8.23019 29.1002 8.31124 29.1051 8.42262 29.1135L9.65198 29.2102L9.83598 27.9916C10.4374 24.0117 12.4546 20.4951 15.3637 17.9709C16.0898 17.3403 16.8703 16.7718 17.6981 16.2744C17.7707 16.7246 17.8808 17.1457 18.0356 17.5329C18.2789 18.1453 18.6213 18.6777 19.0279 19.1327C19.7395 19.929 20.6302 20.4892 21.5594 20.9491C22.9534 21.6352 24.4613 22.1095 25.7294 22.7011C26.3623 22.9951 26.9322 23.3146 27.4006 23.6825C27.8689 24.0516 28.2343 24.4629 28.4957 24.9627C28.636 25.2326 28.9142 25.3984 29.2192 25.3898C29.5242 25.3826 29.7953 25.2047 29.9223 24.9288C31.2958 21.9496 31.792 19.6068 31.792 17.7675C31.7945 16.5127 31.5573 15.4961 31.2257 14.6963C33.4039 15.3883 35.3859 16.515 37.0727 17.9816C39.9819 20.5132 41.9978 24.0382 42.5909 28.0267L42.787 29.342L44.1011 29.1411C44.2754 29.1145 44.4302 29.1 44.5706 29.1C45.4274 29.1012 46.1922 29.4448 46.756 30.0064C47.3174 30.569 47.6612 31.3351 47.6612 32.1918C47.661 33.0501 47.3173 33.8149 46.7558 34.3787Z" fill="#65C0C8"/>
</svg>
