<svg width="88" height="88" viewBox="0 0 88 88" fill="none" xmlns="http://www.w3.org/2000/svg">
<path d="M44.833 8.77344C36.2387 15.1625 15.9166 33.608 0.679532 33.608C-0.323531 33.608 0.0803757 34.3354 0.0803757 34.3354L13.3935 39.9L5.29506 47.9173V61.1817L48.462 79.2224L87.9999 40.0774V26.8141L44.833 8.77344ZM11.7708 35.1336C16.3427 33.4251 20.947 30.8963 25.3582 28.0544C26.4618 27.3437 27.5475 26.6079 28.6228 25.8664C28.8591 25.703 29.0939 25.5422 29.328 25.3772C30.3701 24.6499 31.3967 23.9153 32.4027 23.1769C32.5197 23.0911 32.6321 23.0066 32.7492 22.9206C33.7254 22.2001 34.68 21.4808 35.6154 20.7674C35.7415 20.6703 35.8675 20.5761 35.9923 20.4792C37.0252 19.6865 38.0278 18.9079 39.0004 18.143L74.1619 32.8389C64.8922 39.8972 52.982 47.8743 43.8466 47.8743C43.194 47.8743 42.5579 47.8313 41.9539 47.7454L20.0688 38.6003L16.299 37.0263L11.7708 35.1336ZM17.1677 41.474L40.9131 51.4007C41.867 51.5684 42.8432 51.6487 43.8465 51.6487C53.4024 51.6487 64.9579 44.3937 74.3668 37.4102L47.368 64.1387L10.0347 48.5381L17.1677 41.474ZM84.2256 38.5033L47.5932 74.7693L9.06944 58.6698V55.5327L47.8377 71.7333L84.2256 35.7087V38.5033ZM84.2256 33.4763L47.4734 69.8628L9.06961 53.8145V50.4724L47.8635 66.6841L84.2256 30.6856V33.4763Z" fill="#65C0C8"/>
<path d="M35.995 40.2062C36.1328 40.2741 36.3177 40.2533 36.4571 40.1522L39.9634 38.5782C40.3632 38.3994 40.7435 38.1777 41.0981 37.9228L52.3855 29.7533C52.524 29.652 52.5247 29.5398 52.3869 29.4707L49.8116 28.1932C49.6503 28.1127 49.4658 28.0766 49.2587 28.088L44.7401 28.1598C44.5337 28.1696 44.3952 28.2138 44.2558 28.315L41.3855 30.3921C41.2005 30.5265 41.2691 30.6152 41.4991 30.618L45.6954 30.6111L45.7404 30.6333L37.823 36.3643L33.2374 38.555C33.0982 38.6547 33.0982 38.7683 33.236 38.8362L35.995 40.2062Z" fill="#65C0C8"/>
</svg>
