<svg width="263" height="204" viewBox="0 0 263 204" fill="none" xmlns="http://www.w3.org/2000/svg">
<ellipse cx="133.023" cy="104.5" rx="74" ry="74.5" fill="#60C5F5"/>
<path d="M133.023 104.5C133.021 104.5 150.5 176.91 150.5 176.91C144.897 178.276 139.044 179 133.023 179C119.328 179 106.502 175.254 95.5 168.725C95.5028 168.725 133.023 104.5 133.021 104.5C133.021 104.5 133.021 104.5 133.023 104.5C133.021 104.5 133.021 104.501 133.023 104.5Z" fill="#6091F5"/>
<path d="M207.022 104.496C207.022 140.119 182.188 169.902 148.999 177.255L133.023 104.497L152.999 32.7422C184.164 41.518 207.022 70.3195 207.022 104.496Z" fill="#F4915F"/>
<path d="M133.023 104.5C133.023 104.5 134.175 30.0088 133.023 30C140.309 30 147.349 31.0601 154 33.0355L133.021 104.5H133.023Z" fill="#F5D560"/>
<circle cx="133.023" cy="105" r="37" fill="#F9F9F9"/>
<path d="M208.429 143.602V145.944H210.314V147.169H208.404C208.366 147.787 208.311 148.293 208.239 148.687C208.907 149.266 209.542 149.935 210.143 150.692L209.312 151.911C208.994 151.42 208.522 150.813 207.896 150.089C207.452 151.389 206.696 152.465 205.63 153.32L204.697 152.216C206.182 151.09 206.99 149.408 207.122 147.169H204.798V145.944H207.153V143.602H206.709C206.447 144.279 206.127 144.878 205.75 145.398L204.735 144.681C205.37 143.733 205.825 142.464 206.1 140.873L207.452 141.063L207.337 141.507C207.274 141.77 207.2 142.055 207.115 142.364H209.896V143.602H208.429ZM216.319 144.186V148.388H210.6V144.186H216.319ZM211.901 145.316V147.284H214.993V145.316H211.901ZM213.793 151.638C214.153 150.716 214.483 149.685 214.783 148.547L216.173 148.959C215.852 149.895 215.486 150.788 215.075 151.638H217.189V152.844H209.718V151.638H213.793ZM210.092 141.59H216.853V142.783H210.092V141.59ZM211.755 151.581C211.468 150.667 211.129 149.827 210.74 149.061L211.952 148.579C212.295 149.222 212.642 150.045 212.993 151.048L211.755 151.581ZM224.882 145.449C225.174 146.439 225.729 147.493 226.545 148.61C227.54 149.973 228.763 151.052 230.214 151.848L229.307 153.155C227.771 152.25 226.488 151.05 225.46 149.556C224.906 148.744 224.461 147.916 224.127 147.074C223.793 148.208 223.274 149.239 222.572 150.166C221.539 151.537 220.263 152.548 218.744 153.2L217.849 152.038C219.44 151.374 220.725 150.35 221.702 148.966C222.523 147.798 223.01 146.626 223.162 145.449H218.097V144.072H223.219V141.012H224.686V144.072H229.916V145.449H224.882ZM233.763 145.627C234.093 145.627 234.391 145.737 234.658 145.957C235.009 146.245 235.185 146.613 235.185 147.062C235.185 147.337 235.106 147.593 234.95 147.83C234.666 148.27 234.264 148.49 233.744 148.49C233.515 148.49 233.297 148.435 233.09 148.325C232.925 148.24 232.785 148.128 232.671 147.988C232.438 147.713 232.322 147.4 232.322 147.049C232.322 146.558 232.527 146.169 232.938 145.881C233.183 145.712 233.458 145.627 233.763 145.627ZM244.382 145.449C244.674 146.439 245.229 147.493 246.045 148.61C247.04 149.973 248.263 151.052 249.714 151.848L248.807 153.155C247.271 152.25 245.988 151.05 244.96 149.556C244.406 148.744 243.961 147.916 243.627 147.074C243.293 148.208 242.774 149.239 242.072 150.166C241.039 151.537 239.763 152.548 238.244 153.2L237.349 152.038C238.94 151.374 240.225 150.35 241.202 148.966C242.023 147.798 242.51 146.626 242.662 145.449H237.597V144.072H242.719V141.012H244.186V144.072H249.416V145.449H244.382ZM252.933 142.993C252.713 142.447 252.412 141.926 252.031 141.431L253.237 140.911C253.605 141.351 253.961 141.888 254.304 142.523L253.301 142.993H256.183C256.161 142.946 256.142 142.902 256.125 142.859C255.889 142.297 255.592 141.761 255.237 141.253L256.462 140.771C256.847 141.245 257.194 141.812 257.503 142.472L256.291 142.993H258.43C258.882 142.328 259.297 141.605 259.674 140.822L261.077 141.266C260.713 141.871 260.317 142.447 259.89 142.993H262.232V145.437H260.842V144.11H252.12V145.437H250.743V142.993H252.933ZM257.357 147.861V148.35H262.67V149.518H257.357V152.089C257.357 152.495 257.255 152.787 257.052 152.965C256.841 153.147 256.453 153.238 255.891 153.238C255.23 153.238 254.627 153.21 254.082 153.155L253.796 151.873C254.646 151.966 255.237 152.013 255.567 152.013C255.753 152.013 255.869 151.968 255.916 151.879C255.95 151.812 255.967 151.712 255.967 151.581V149.518H250.324V148.35H255.967V147.334C256.737 147.017 257.378 146.691 257.89 146.357H252.52V145.227H259.902L260.556 146.021C259.363 146.782 258.296 147.396 257.357 147.861Z" fill="#DC6B34"/>
<path d="M142.382 5.44922C142.674 6.43945 143.229 7.49316 144.045 8.61035C145.04 9.97298 146.263 11.0521 147.714 11.8477L146.807 13.1553C145.271 12.2497 143.988 11.05 142.96 9.55615C142.406 8.74365 141.961 7.91634 141.627 7.07422C141.293 8.20833 140.774 9.23877 140.072 10.1655C139.039 11.5366 137.763 12.548 136.244 13.1997L135.349 12.0381C136.94 11.3737 138.225 10.3496 139.202 8.96582C140.023 7.79785 140.51 6.62565 140.662 5.44922H135.597V4.07178H140.719V1.01221H142.186V4.07178H147.416V5.44922H142.382ZM150.933 2.99268C150.713 2.44678 150.412 1.92627 150.031 1.43115L151.237 0.910645C151.605 1.35075 151.961 1.88818 152.304 2.52295L151.301 2.99268H154.183C154.161 2.94613 154.142 2.90169 154.125 2.85938C153.889 2.29655 153.592 1.76123 153.237 1.25342L154.462 0.770996C154.847 1.24495 155.194 1.81201 155.503 2.47217L154.291 2.99268H156.43C156.882 2.32829 157.297 1.60465 157.674 0.821777L159.077 1.26611C158.713 1.87126 158.317 2.44678 157.89 2.99268H160.232V5.43652H158.842V4.10986H150.12V5.43652H148.743V2.99268H150.933ZM155.357 7.86133V8.3501H160.67V9.51807H155.357V12.0889C155.357 12.4951 155.255 12.7871 155.052 12.9648C154.841 13.1468 154.453 13.2378 153.891 13.2378C153.23 13.2378 152.627 13.2103 152.082 13.1553L151.796 11.873C152.646 11.9661 153.237 12.0127 153.567 12.0127C153.753 12.0127 153.869 11.9683 153.916 11.8794C153.95 11.8117 153.967 11.7122 153.967 11.5811V9.51807H148.324V8.3501H153.967V7.33447C154.737 7.01709 155.378 6.69124 155.89 6.35693H150.52V5.22705H157.902L158.556 6.02051C157.363 6.78223 156.296 7.39583 155.357 7.86133ZM168.96 8.17871C168.93 9.55404 168.683 10.6353 168.217 11.4224C167.709 12.2814 166.823 12.9077 165.558 13.3013L164.758 12.2349C165.68 12.0402 166.355 11.7017 166.783 11.2192C167.337 10.5929 167.638 9.57943 167.684 8.17871H165.691V6.99805H173.651V8.17871H171.309V11.4414C171.309 11.5684 171.357 11.653 171.455 11.6953C171.514 11.7207 171.658 11.7334 171.886 11.7334C172.153 11.7334 172.324 11.708 172.4 11.6572C172.464 11.6149 172.506 11.5112 172.527 11.3462C172.57 11.0669 172.601 10.6014 172.623 9.94971L173.816 10.3623C173.757 11.5938 173.621 12.347 173.41 12.6221C173.274 12.7913 173.054 12.9035 172.75 12.9585C172.483 13.005 172.13 13.0283 171.689 13.0283C171.11 13.0283 170.701 12.9754 170.464 12.8696C170.185 12.7384 170.045 12.4613 170.045 12.0381V8.17871H168.96ZM164.472 5.52539C164.806 5.97819 165.071 6.46696 165.266 6.9917C165.503 7.62223 165.621 8.22103 165.621 8.78809C165.621 9.32129 165.53 9.74447 165.348 10.0576C165.137 10.4173 164.713 10.5972 164.079 10.5972C163.744 10.5972 163.497 10.5802 163.336 10.5464L163 9.24512C163.287 9.30436 163.579 9.33398 163.875 9.33398C164.108 9.33398 164.248 9.26839 164.294 9.13721C164.324 9.03988 164.339 8.86003 164.339 8.59766C164.339 7.55664 164 6.56217 163.323 5.61426C163.78 4.5013 164.098 3.48779 164.275 2.57373H162.974V13.2378H161.673V1.39307H164.999L165.678 1.91357C165.289 3.37354 164.887 4.57747 164.472 5.52539ZM170.185 2.2627H173.321V5.05566H171.994V5.70312H167.157V5.05566H165.831V2.2627H168.808V0.885254H170.185V2.2627ZM167.17 3.37988V4.54785H171.969V3.37988H167.17Z" fill="#E59D00"/>
<path d="M98.4502 201.924H94.3369V202.444H93.0356V198.915H98.8184V201.873C99.1061 201.907 99.4087 201.924 99.7261 201.924C99.9377 201.924 100.067 201.888 100.113 201.816C100.151 201.761 100.17 201.67 100.17 201.543V198.268H91.8232V203.238H90.4204V197.239H101.573V201.975C101.573 202.381 101.461 202.677 101.237 202.863C101.029 203.037 100.695 203.124 100.234 203.124C99.8869 203.124 99.3812 203.096 98.7168 203.041L98.4502 201.924ZM97.5171 199.931H94.3369V200.908H97.5171V199.931ZM96.6475 191.914H101.903V192.98H90.0967V191.914H95.2573V190.885H96.6475V191.914ZM100.056 193.653V196.554H91.9438V193.653H100.056ZM93.334 194.643V195.563H98.6533V194.643H93.334ZM108.27 193.564V192.872H103.135V191.818H108.27V190.885H109.647V191.818H114.859V192.872H109.647V193.564H114.04V198.172H112.364V198.998H115.17V200.102H112.364V202.076C112.364 202.588 112.227 202.92 111.952 203.073C111.757 203.183 111.389 203.238 110.847 203.238C110.234 203.238 109.614 203.215 108.987 203.168L108.676 201.898C109.315 201.975 109.942 202.013 110.555 202.013C110.754 202.013 110.873 201.979 110.911 201.911C110.936 201.865 110.949 201.765 110.949 201.613V200.102H102.824V198.998H110.949V198.172H103.954V193.564H108.27ZM108.295 194.516H105.331V195.398H108.295V194.516ZM109.622 194.516V195.398H112.663V194.516H109.622ZM108.295 196.306H105.331V197.239H108.295V196.306ZM109.622 196.306V197.239H112.663V196.306H109.622ZM107.064 202.717C106.501 202.074 105.79 201.463 104.931 200.883L105.998 200.14C106.751 200.627 107.474 201.198 108.168 201.854L107.064 202.717ZM118.763 195.627C119.093 195.627 119.391 195.737 119.658 195.957C120.009 196.245 120.185 196.613 120.185 197.062C120.185 197.337 120.106 197.593 119.95 197.83C119.666 198.27 119.264 198.49 118.744 198.49C118.515 198.49 118.297 198.435 118.09 198.325C117.925 198.24 117.785 198.128 117.671 197.988C117.438 197.713 117.322 197.4 117.322 197.049C117.322 196.558 117.527 196.169 117.938 195.881C118.183 195.712 118.458 195.627 118.763 195.627ZM127.77 193.564V192.872H122.635V191.818H127.77V190.885H129.147V191.818H134.359V192.872H129.147V193.564H133.54V198.172H131.864V198.998H134.67V200.102H131.864V202.076C131.864 202.588 131.727 202.92 131.452 203.073C131.257 203.183 130.889 203.238 130.347 203.238C129.734 203.238 129.114 203.215 128.487 203.168L128.176 201.898C128.815 201.975 129.442 202.013 130.055 202.013C130.254 202.013 130.373 201.979 130.411 201.911C130.436 201.865 130.449 201.765 130.449 201.613V200.102H122.324V198.998H130.449V198.172H123.454V193.564H127.77ZM127.795 194.516H124.831V195.398H127.795V194.516ZM129.122 194.516V195.398H132.163V194.516H129.122ZM127.795 196.306H124.831V197.239H127.795V196.306ZM129.122 196.306V197.239H132.163V196.306H129.122ZM126.564 202.717C126.001 202.074 125.29 201.463 124.431 200.883L125.498 200.14C126.251 200.627 126.974 201.198 127.668 201.854L126.564 202.717ZM147.13 191.342V201.791C147.13 202.231 147.048 202.552 146.883 202.755C146.692 202.988 146.305 203.104 145.721 203.104C145.078 203.104 144.348 203.079 143.531 203.028L143.296 201.702C144.092 201.795 144.775 201.841 145.347 201.841C145.537 201.841 145.653 201.805 145.696 201.733C145.725 201.683 145.74 201.581 145.74 201.429V196.452H142.097V191.342H147.13ZM145.74 192.383H143.373V193.38H145.74V192.383ZM145.74 194.357H143.373V195.411H145.74V194.357ZM140.833 191.342V196.452H137.26V203.238H135.87V191.342H140.833ZM137.26 192.383V193.38H139.558V192.383H137.26ZM137.26 194.357V195.411H139.558V194.357H137.26Z" fill="#2861D4"/>
<path d="M8.9502 81.9238H4.83691V82.4443H3.53564V78.915H9.31836V81.873C9.60612 81.9069 9.90869 81.9238 10.2261 81.9238C10.4377 81.9238 10.5667 81.8879 10.6133 81.8159C10.6514 81.7609 10.6704 81.6699 10.6704 81.543V78.2676H2.32324V83.2378H0.92041V77.2393H12.0732V81.9746C12.0732 82.3809 11.9611 82.6771 11.7368 82.8633C11.5295 83.0368 11.1951 83.1235 10.7339 83.1235C10.3869 83.1235 9.88118 83.096 9.2168 83.041L8.9502 81.9238ZM8.01709 79.9307H4.83691V80.9082H8.01709V79.9307ZM7.14746 71.9136H12.4033V72.98H0.59668V71.9136H5.75732V70.8853H7.14746V71.9136ZM10.5562 73.6528V76.5537H2.44385V73.6528H10.5562ZM3.83398 74.6431V75.5635H9.15332V74.6431H3.83398ZM17.7163 72.9292C17.9067 73.2212 18.0675 73.5026 18.1987 73.7734L16.8467 74.0972C16.6605 73.6317 16.4658 73.2424 16.2627 72.9292H15.5962C15.2492 73.4328 14.8514 73.8877 14.4028 74.2939L13.3999 73.4497C14.1912 72.7896 14.7943 71.9051 15.209 70.7964L16.6245 70.9932C16.4849 71.3317 16.3537 71.6174 16.231 71.8501H18.9922V72.9292H17.7163ZM22.9976 72.9292C23.188 73.1873 23.3509 73.4391 23.4863 73.6846L22.1914 74.0718C21.9756 73.6359 21.764 73.255 21.5566 72.9292H20.8457C20.6172 73.3228 20.3908 73.6486 20.1665 73.9067H20.1729V74.5923H24.3877V75.6333H20.1729V76.5791H25.6699V77.6328H22.8896V78.6738H25.2065V79.7783H22.8896V82.0889C22.8896 82.529 22.7563 82.8358 22.4897 83.0093C22.2697 83.1532 21.8825 83.2251 21.3281 83.2251C20.651 83.2251 20.0205 83.1934 19.4365 83.1299L19.189 81.8413C19.9211 81.9471 20.5685 82 21.1313 82C21.2752 82 21.3641 81.9683 21.3979 81.9048C21.4233 81.854 21.436 81.7651 21.436 81.6382V79.7783H13.8569V78.6738H21.436V77.6328H13.3237V76.5791H18.7446V75.6333H14.625V74.5923H18.7446V73.9067H19.6968L18.9668 73.3735C19.5677 72.7303 20.0396 71.8797 20.3823 70.8218L21.7344 70.9805C21.6582 71.1878 21.5418 71.4777 21.3853 71.8501H25.3335V72.9292H22.9976ZM17.2212 82.5713C16.616 81.7038 16.0067 81.0203 15.3931 80.521L16.4849 79.8037C17.2508 80.3454 17.8919 80.9569 18.4082 81.6382L17.2212 82.5713ZM28.9326 72.9927C28.7126 72.4468 28.4121 71.9263 28.0312 71.4312L29.2373 70.9106C29.6055 71.3507 29.9609 71.8882 30.3037 72.5229L29.3008 72.9927H32.1826C32.1615 72.9461 32.1424 72.9017 32.1255 72.8594C31.8885 72.2965 31.5923 71.7612 31.2368 71.2534L32.4619 70.771C32.847 71.245 33.194 71.812 33.5029 72.4722L32.2905 72.9927H34.4297C34.8825 72.3283 35.2972 71.6047 35.6738 70.8218L37.0767 71.2661C36.7127 71.8713 36.3171 72.4468 35.8896 72.9927H38.2319V75.4365H36.8418V74.1099H28.1201V75.4365H26.7427V72.9927H28.9326ZM33.3569 77.8613V78.3501H38.6699V79.5181H33.3569V82.0889C33.3569 82.4951 33.2554 82.7871 33.0522 82.9648C32.8407 83.1468 32.4535 83.2378 31.8906 83.2378C31.2305 83.2378 30.6274 83.2103 30.0815 83.1553L29.7959 81.873C30.6465 81.9661 31.2368 82.0127 31.5669 82.0127C31.7531 82.0127 31.8695 81.9683 31.916 81.8794C31.9499 81.8117 31.9668 81.7122 31.9668 81.5811V79.5181H26.3237V78.3501H31.9668V77.3345C32.737 77.0171 33.3781 76.6912 33.8901 76.3569H28.52V75.2271H35.9023L36.5562 76.0205C35.3628 76.7822 34.2964 77.3958 33.3569 77.8613ZM46.7441 80.0005C46.1771 79.3107 45.5846 78.3861 44.9668 77.2266L46.0586 76.5791C46.4056 77.3197 46.9134 78.1131 47.582 78.9595C48.1745 78.13 48.6357 77.2795 48.9658 76.4077L50.1782 76.979C49.6873 78.1131 49.116 79.0949 48.4644 79.9243C49.2515 80.6606 50.3517 81.3356 51.7651 81.9492L50.9971 83.2505C49.8333 82.7681 48.7013 81.9958 47.6011 80.9336C46.5431 82.0042 45.4429 82.7935 44.3003 83.3013L43.4561 82.146C44.7256 81.7144 45.8216 80.9992 46.7441 80.0005ZM41.209 77.4551C40.8281 78.5765 40.3415 79.6387 39.749 80.6416L39.1143 79.1689C39.9945 77.8571 40.6504 76.3887 41.082 74.7637H39.3745V73.5386H41.209V70.8853H42.5103V73.5386H43.6655V72.5991H46.8394V70.8853H48.2168V72.5991H51.5811V73.8242H43.9131V74.7637H42.5103V76.1982C43.1281 76.6934 43.6909 77.2287 44.1987 77.8042L43.4878 78.9976C43.1027 78.4517 42.7769 78.02 42.5103 77.7026V83.2378H41.209V77.4551ZM50.7749 77.0615C50.0216 76.1644 49.1541 75.3752 48.1724 74.6938L49.0864 73.9004C49.9666 74.4674 50.8236 75.1911 51.6572 76.0713L50.7749 77.0615ZM43.4434 76.395C44.3997 75.7645 45.2101 74.9541 45.8745 73.9639L46.9028 74.6558C46.1115 75.7941 45.2524 76.6701 44.3257 77.2837L43.4434 76.395Z" fill="#319CCF"/>
</svg>
