<svg width="90" height="90" viewBox="0 0 90 90" fill="none" xmlns="http://www.w3.org/2000/svg">
<g clip-path="url(#clip0_901_2918)">
<path d="M18.8245 72.3911H32.9983C33.9932 72.3911 34.7993 71.6441 34.7993 70.7219V49.6777C34.7993 48.7556 33.9932 48.0078 32.9983 48.0078H18.8245C17.8299 48.0078 17.0234 48.7556 17.0234 49.6777V70.7221C17.0234 71.6441 17.8299 72.3911 18.8245 72.3911Z" fill="#65C0C8"/>
<path d="M44.6686 41.5C43.6737 41.5 42.8672 42.2478 42.8672 43.1692V70.7208C42.8672 71.643 43.6737 72.39 44.6686 72.39H58.842C59.8369 72.39 60.6434 71.643 60.6434 70.7208V43.1692C60.6434 42.2478 59.8369 41.5 58.842 41.5H44.6686Z" fill="#65C0C8"/>
<path d="M68.7109 31.3645V70.7204C68.7109 71.6425 69.5174 72.3896 70.512 72.3896H84.6858C85.6803 72.3896 86.4872 71.6425 86.4872 70.7204V31.3645C86.4872 30.4424 85.6803 29.6953 84.6858 29.6953H70.512C69.5174 29.6953 68.7109 30.4424 68.7109 31.3645Z" fill="#65C0C8"/>
<path d="M87.0866 79.997H10.0023V2.9127V0H0V2.9127V79.997V87.0859V90H2.9134H10.0023H87.0866H90V79.997H87.0866Z" fill="#65C0C8"/>
<path d="M39.4132 20.9227L54.0184 35.453L75.0126 14.5658L79.8055 19.3338L83.0437 0L63.6109 3.22242L68.4032 7.99049L54.0184 22.3022L39.4132 7.77146L17.0234 30.0456L23.6326 36.6216L39.4132 20.9227Z" fill="#65C0C8"/>
</g>
<defs>
<clipPath id="clip0_901_2918">
<rect width="90" height="90" fill="white"/>
</clipPath>
</defs>
</svg>
