<svg width="83" height="83" viewBox="0 0 83 83" fill="none" xmlns="http://www.w3.org/2000/svg">
<g clip-path="url(#clip0_727_4912)">
<path d="M26.7309 14.556C28.9801 14.556 30.804 12.7334 30.804 10.4815V4.07186C30.804 1.82405 28.9801 0 26.7309 0C24.4816 0 22.6562 1.82405 22.6562 4.07186V10.4813C22.6562 12.7334 24.4816 14.556 26.7309 14.556Z" fill="#65C0C8"/>
<path d="M56.7699 14.556C59.0179 14.556 60.8431 12.7334 60.8431 10.4815V4.07186C60.8431 1.82405 59.0177 0 56.7699 0C54.5207 0 52.6953 1.82405 52.6953 4.07186V10.4813C52.6952 12.7334 54.5207 14.556 56.7699 14.556Z" fill="#65C0C8"/>
<path d="M70.8852 5.80469H64.4227V10.4814C64.4227 14.7027 60.991 18.1359 56.771 18.1359C52.551 18.1359 49.118 14.7027 49.118 10.4814V5.80469H34.3853V10.4814C34.3853 14.7027 30.9522 18.1359 26.7337 18.1359C22.5137 18.1359 19.0806 14.7027 19.0806 10.4814V5.80469H12.1206C5.80202 5.80469 0.679688 10.9272 0.679688 17.2456V71.5592C0.679688 77.8775 5.80202 83 12.1206 83H70.8852C77.2036 83 82.3261 77.8775 82.3261 71.5592V17.2456C82.3261 10.9272 77.2036 5.80469 70.8852 5.80469ZM76.7591 71.5592C76.7591 74.7978 74.1238 77.4332 70.885 77.4332H12.1206C8.88177 77.4332 6.24652 74.7978 6.24652 71.5592V24.476H76.7591V71.5592Z" fill="#65C0C8"/>
<path d="M38.6681 62.0078H28.3594V72.3165H38.6681V62.0078Z" fill="#65C0C8"/>
<path d="M38.6681 46.0312H28.3594V56.3399H38.6681V46.0312Z" fill="#65C0C8"/>
<path d="M22.69 62.0078H12.3828V72.3165H22.69V62.0078Z" fill="#65C0C8"/>
<path d="M22.69 46.0312H12.3828V56.3399H22.69V46.0312Z" fill="#65C0C8"/>
<path d="M70.6199 30.0547H60.3125V40.3619H70.6199V30.0547Z" fill="#65C0C8"/>
<path d="M54.6446 30.0547H44.3359V40.3619H54.6446V30.0547Z" fill="#65C0C8"/>
<path d="M56.7495 47.5324L53.6834 45.1484L48.1002 52.33L44.7853 49.6784L42.3594 52.7079L48.7471 57.8194L56.7495 47.5324Z" fill="#65C0C8"/>
<path d="M70.6199 46.0312H60.3125V56.3399H70.6199V46.0312Z" fill="#65C0C8"/>
<path d="M54.6446 62.0078H44.3359V72.3165H54.6446V62.0078Z" fill="#65C0C8"/>
<path d="M38.6681 30.0547H28.3594V40.3619H38.6681V30.0547Z" fill="#65C0C8"/>
</g>
<defs>
<clipPath id="clip0_727_4912">
<rect width="83" height="83" fill="white"/>
</clipPath>
</defs>
</svg>
