<svg width="90" height="90" viewBox="0 0 90 90" fill="none" xmlns="http://www.w3.org/2000/svg">
<g clip-path="url(#clip0_901_2935)">
<path d="M39.6504 55.6585C43.2154 55.6585 54.3472 55.6585 54.3472 55.6585C57.3027 55.6585 59.6949 53.2635 59.6949 50.3109C59.6949 47.3583 57.3027 44.9688 54.3472 44.9688C51.6748 44.9688 46.3327 44.9688 32.9707 44.9688C19.6058 44.9688 15.376 50.5361 10.6987 55.2108L2.21176 62.6239C1.66244 63.1045 1.34375 63.7967 1.34375 64.5272V89.164C1.34375 89.4936 1.53605 89.7903 1.83541 89.9276C2.13477 90.0649 2.48633 90.0183 2.73629 89.8012L19.139 75.7415C19.7185 75.2471 20.4876 75.0412 21.2346 75.1757L46.7943 79.8202C48.5769 80.147 50.4143 79.7378 51.8947 78.6913C51.8947 78.6913 84.5213 56.0073 86.9246 53.9995C89.2235 51.8929 89.1961 48.8359 87.0895 46.5425C84.9801 44.2408 81.047 44.7297 78.424 46.6715C76.0207 48.6765 59.6017 59.4651 59.6017 59.4651H39.6505L39.5874 59.4953C38.5355 59.4596 37.7143 58.5807 37.7472 57.5287C37.7857 56.4794 38.6646 55.6555 39.7138 55.6912L39.6504 55.6585Z" fill="#65C0C8"/>
<path d="M63.7607 0C58.8965 0 54.6529 2.60103 52.3047 6.47648C59.8139 9.23133 65.1972 16.4329 65.1972 24.8868C65.1972 25.5103 65.1615 26.1255 65.1038 26.7353C71.8742 26.0596 77.1614 20.3495 77.1614 13.4007C77.1614 6.00135 71.1629 0 63.7607 0Z" fill="#65C0C8"/>
<path d="M45.5728 9.57031C37.1161 9.57031 30.2578 16.4258 30.2578 24.8853C30.2578 33.3419 37.1161 40.2002 45.5728 40.2002C54.0294 40.2002 60.8877 33.3419 60.8877 24.8853C60.8877 16.4258 54.0294 9.57031 45.5728 9.57031ZM51.6592 23.6274H47.4652L47.0147 24.3305V26.0087H51.6592V26.0141V28.0521V28.3928H47.0147V31.9909H44.1308V28.3928H39.4835V28.0521V26.0141V26.0087H44.1308V24.3333L43.6803 23.6274H39.4835V21.5948H42.3674L39.9173 17.777H42.3618L45.5698 22.7731L48.7832 17.777H51.2276L48.7776 21.5948H51.6588V23.6274H51.6592Z" fill="#65C0C8"/>
</g>
<defs>
<clipPath id="clip0_901_2935">
<rect width="90" height="90" fill="white"/>
</clipPath>
</defs>
</svg>
