<svg width="215" height="176" viewBox="0 0 215 176" fill="none" xmlns="http://www.w3.org/2000/svg">
<ellipse cx="109.023" cy="93.5" rx="74" ry="74.5" fill="#F3C51E"/>
<path d="M109.023 93.5H109.026C109.023 93.5 51.2008 47 51.2031 47C64.7635 29.9323 85.6249 19 109.023 19C109.023 20.5 109.023 95 109.023 93.5Z" fill="#8CF56F"/>
<path d="M109.023 93.5024L35.8245 104.502C35.2968 100.912 35.0234 97.239 35.0234 93.5017C35.0234 74.6205 42.0002 57.3798 53.5 44.25L109.023 93.5024Z" fill="#60C5F5"/>
<path d="M109.023 93.5L133.499 163.828C125.838 166.53 117.601 168 109.023 168C71.5219 168 40.5363 139.916 35.6836 103.5C35.6778 103.5 109.023 93.5 109.025 93.5005C109.025 93.5005 109.025 93.5005 109.023 93.5Z" fill="#6091F5"/>
<path d="M183.023 93.5H109.023C109.023 93.5 110.176 19.0088 109.023 19C146.352 19 177.226 46.8267 182.294 83C182.775 86.4305 183.023 89.936 183.023 93.5Z" fill="#F4D45F"/>
<path d="M167.361 39V28.28C167.35 28.2907 167.228 28.3227 166.993 28.376C166.769 28.4293 166.513 28.4827 166.225 28.536C165.937 28.5893 165.681 28.6373 165.457 28.68C165.233 28.7227 165.116 28.744 165.105 28.744V27.448C165.286 27.4053 165.494 27.3467 165.729 27.272C165.974 27.1973 166.22 27.1067 166.465 27C166.721 26.8933 166.961 26.76 167.185 26.6C167.42 26.44 167.617 26.2533 167.777 26.04H169.073V39H167.361ZM174.816 39.144C174.08 39.144 173.472 38.9787 172.992 38.648C172.523 38.3173 172.171 37.864 171.936 37.288C171.712 36.712 171.6 36.056 171.6 35.32V29.736C171.6 28.9787 171.712 28.3173 171.936 27.752C172.16 27.176 172.507 26.728 172.976 26.408C173.456 26.088 174.069 25.928 174.816 25.928C175.563 25.928 176.171 26.088 176.64 26.408C177.109 26.728 177.456 27.176 177.68 27.752C177.904 28.3173 178.016 28.9787 178.016 29.736V35.32C178.016 36.0667 177.899 36.728 177.664 37.304C177.44 37.88 177.093 38.3333 176.624 38.664C176.155 38.984 175.552 39.144 174.816 39.144ZM174.816 37.736C175.221 37.736 175.525 37.6187 175.728 37.384C175.941 37.1493 176.085 36.8507 176.16 36.488C176.245 36.1147 176.288 35.7307 176.288 35.336V29.72C176.288 29.304 176.251 28.9147 176.176 28.552C176.101 28.1787 175.957 27.88 175.744 27.656C175.541 27.432 175.232 27.32 174.816 27.32C174.4 27.32 174.085 27.432 173.872 27.656C173.659 27.88 173.515 28.1787 173.44 28.552C173.365 28.9147 173.328 29.304 173.328 29.72V35.336C173.328 35.7307 173.365 36.1147 173.44 36.488C173.525 36.8507 173.675 37.1493 173.888 37.384C174.112 37.6187 174.421 37.736 174.816 37.736ZM183.674 33.512C183.407 33.512 183.13 33.4373 182.842 33.288C182.564 33.128 182.292 32.9733 182.026 32.824C181.759 32.6747 181.508 32.6 181.274 32.6C181.135 32.6 180.954 32.664 180.73 32.792C180.516 32.9093 180.308 33.048 180.106 33.208L179.498 32.392C179.647 32.232 179.834 32.0613 180.058 31.88C180.292 31.6987 180.527 31.544 180.762 31.416C181.007 31.288 181.22 31.224 181.402 31.224C181.668 31.224 181.935 31.2987 182.202 31.448C182.479 31.5973 182.751 31.752 183.018 31.912C183.284 32.0613 183.535 32.136 183.77 32.136C183.93 32.136 184.106 32.072 184.298 31.944C184.5 31.816 184.708 31.6667 184.922 31.496L185.53 32.28C185.391 32.44 185.21 32.616 184.986 32.808C184.772 33 184.548 33.1653 184.314 33.304C184.09 33.4427 183.876 33.512 183.674 33.512ZM186.75 39V37.784L190.046 32.648C190.291 32.264 190.515 31.9067 190.718 31.576C190.931 31.2453 191.102 30.8987 191.23 30.536C191.368 30.1627 191.438 29.736 191.438 29.256C191.438 28.6587 191.342 28.1893 191.15 27.848C190.958 27.5067 190.622 27.336 190.142 27.336C189.736 27.336 189.422 27.448 189.198 27.672C188.974 27.896 188.819 28.1893 188.734 28.552C188.648 28.9147 188.606 29.304 188.606 29.72V30.152H186.894V29.704C186.894 28.9253 186.995 28.2587 187.198 27.704C187.411 27.1387 187.747 26.7013 188.206 26.392C188.675 26.0827 189.294 25.928 190.062 25.928C191.107 25.928 191.886 26.2267 192.398 26.824C192.91 27.4107 193.166 28.2267 193.166 29.272C193.166 29.8267 193.096 30.312 192.958 30.728C192.83 31.144 192.659 31.5333 192.446 31.896C192.232 32.2587 191.998 32.632 191.742 33.016L188.766 37.56H192.862V39H186.75ZM197.878 39.144C197.142 39.144 196.534 38.9787 196.054 38.648C195.585 38.3173 195.233 37.864 194.998 37.288C194.774 36.712 194.662 36.056 194.662 35.32V29.736C194.662 28.9787 194.774 28.3173 194.998 27.752C195.222 27.176 195.569 26.728 196.038 26.408C196.518 26.088 197.132 25.928 197.878 25.928C198.625 25.928 199.233 26.088 199.702 26.408C200.172 26.728 200.518 27.176 200.742 27.752C200.966 28.3173 201.078 28.9787 201.078 29.736V35.32C201.078 36.0667 200.961 36.728 200.726 37.304C200.502 37.88 200.156 38.3333 199.686 38.664C199.217 38.984 198.614 39.144 197.878 39.144ZM197.878 37.736C198.284 37.736 198.588 37.6187 198.79 37.384C199.004 37.1493 199.148 36.8507 199.222 36.488C199.308 36.1147 199.35 35.7307 199.35 35.336V29.72C199.35 29.304 199.313 28.9147 199.238 28.552C199.164 28.1787 199.02 27.88 198.806 27.656C198.604 27.432 198.294 27.32 197.878 27.32C197.462 27.32 197.148 27.432 196.934 27.656C196.721 27.88 196.577 28.1787 196.502 28.552C196.428 28.9147 196.39 29.304 196.39 29.72V35.336C196.39 35.7307 196.428 36.1147 196.502 36.488C196.588 36.8507 196.737 37.1493 196.95 37.384C197.174 37.6187 197.484 37.736 197.878 37.736Z" fill="#E59D00"/>
<path d="M206.229 30.9746V39.1426H204.922V33.2188C204.605 33.6758 204.262 34.127 203.891 34.5723L203.217 33.2891C203.971 32.4102 204.619 31.3965 205.162 30.248C205.494 29.541 205.834 28.6816 206.182 27.6699L207.441 28.0156C207.078 29.0703 206.674 30.0566 206.229 30.9746ZM209.609 32.3633L206.826 32.5625L206.709 31.3613L209.457 31.168C209.352 30.1172 209.299 28.9746 209.299 27.7402H210.594C210.602 28.9082 210.668 30.0176 210.793 31.0684L214.543 30.7988L214.613 32L210.963 32.2637C211.283 34.0332 211.709 35.4121 212.24 36.4004C212.436 36.7598 212.66 37.0742 212.914 37.3438C213.031 37.4688 213.117 37.5312 213.172 37.5312C213.234 37.5312 213.295 37.3965 213.354 37.127C213.436 36.7363 213.492 36.2266 213.523 35.5977L214.689 36.248C214.623 37.0957 214.502 37.7812 214.326 38.3047C214.135 38.8672 213.84 39.1484 213.441 39.1484C213.109 39.1484 212.721 38.9688 212.275 38.6094C211.568 38.043 210.918 36.9121 210.324 35.2168C210.02 34.3496 209.781 33.3984 209.609 32.3633ZM212.791 30.5117C212.279 29.6289 211.799 28.9336 211.35 28.4258L212.311 27.834C212.771 28.3496 213.271 29.0312 213.811 29.8789L212.791 30.5117Z" fill="#E59D00"/>
<path d="M183.024 93.5C183.024 126.438 161.792 154.384 132.355 164.222C132.355 166.5 109.024 93.5001 109.021 93.5001C109.021 93.5001 68.155 93.5001 109.024 93.5001L182.363 83.5C182.799 86.7709 183.024 90.109 183.024 93.5Z" fill="#F59160"/>
<circle cx="109.023" cy="94" r="37" fill="#F9F9F9"/>
<path d="M183.917 145.144C183.213 145.144 182.627 145.011 182.157 144.744C181.688 144.477 181.336 144.093 181.101 143.592C180.867 143.091 180.749 142.499 180.749 141.816V141.384H182.445C182.445 141.427 182.445 141.475 182.445 141.528C182.445 141.571 182.445 141.619 182.445 141.672C182.456 142.056 182.499 142.403 182.573 142.712C182.659 143.021 182.803 143.267 183.005 143.448C183.219 143.629 183.523 143.72 183.917 143.72C184.333 143.72 184.648 143.624 184.861 143.432C185.075 143.229 185.219 142.947 185.293 142.584C185.368 142.221 185.405 141.805 185.405 141.336C185.405 140.653 185.277 140.099 185.021 139.672C184.776 139.235 184.339 138.995 183.709 138.952C183.677 138.941 183.635 138.936 183.581 138.936C183.539 138.936 183.501 138.936 183.469 138.936V137.224C183.501 137.224 183.539 137.224 183.581 137.224C183.624 137.224 183.661 137.224 183.693 137.224C184.301 137.203 184.739 137.043 185.005 136.744C185.272 136.445 185.405 135.949 185.405 135.256C185.405 134.669 185.304 134.2 185.101 133.848C184.909 133.496 184.52 133.32 183.933 133.32C183.347 133.32 182.957 133.517 182.765 133.912C182.573 134.296 182.467 134.792 182.445 135.4C182.445 135.443 182.445 135.491 182.445 135.544C182.445 135.587 182.445 135.629 182.445 135.672H180.749V135.24C180.749 134.547 180.867 133.955 181.101 133.464C181.336 132.973 181.688 132.595 182.157 132.328C182.637 132.061 183.229 131.928 183.933 131.928C184.648 131.928 185.24 132.061 185.709 132.328C186.179 132.595 186.531 132.979 186.765 133.48C187 133.971 187.117 134.563 187.117 135.256C187.117 136.035 186.947 136.659 186.605 137.128C186.275 137.597 185.827 137.917 185.261 138.088C185.656 138.205 185.987 138.408 186.253 138.696C186.531 138.984 186.744 139.352 186.893 139.8C187.043 140.237 187.117 140.749 187.117 141.336C187.117 142.104 187.011 142.776 186.797 143.352C186.584 143.917 186.243 144.36 185.773 144.68C185.304 144.989 184.685 145.144 183.917 145.144ZM191.878 145.144C191.142 145.144 190.534 144.979 190.054 144.648C189.585 144.317 189.233 143.864 188.998 143.288C188.774 142.712 188.662 142.056 188.662 141.32V135.736C188.662 134.979 188.774 134.317 188.998 133.752C189.222 133.176 189.569 132.728 190.038 132.408C190.518 132.088 191.132 131.928 191.878 131.928C192.625 131.928 193.233 132.088 193.702 132.408C194.172 132.728 194.518 133.176 194.742 133.752C194.966 134.317 195.078 134.979 195.078 135.736V141.32C195.078 142.067 194.961 142.728 194.726 143.304C194.502 143.88 194.156 144.333 193.686 144.664C193.217 144.984 192.614 145.144 191.878 145.144ZM191.878 143.736C192.284 143.736 192.588 143.619 192.79 143.384C193.004 143.149 193.148 142.851 193.222 142.488C193.308 142.115 193.35 141.731 193.35 141.336V135.72C193.35 135.304 193.313 134.915 193.238 134.552C193.164 134.179 193.02 133.88 192.806 133.656C192.604 133.432 192.294 133.32 191.878 133.32C191.462 133.32 191.148 133.432 190.934 133.656C190.721 133.88 190.577 134.179 190.502 134.552C190.428 134.915 190.39 135.304 190.39 135.72V141.336C190.39 141.731 190.428 142.115 190.502 142.488C190.588 142.851 190.737 143.149 190.95 143.384C191.174 143.619 191.484 143.736 191.878 143.736Z" fill="#DC6B34"/>
<path d="M200.229 135.975V144.143H198.922V138.219C198.605 138.676 198.262 139.127 197.891 139.572L197.217 138.289C197.971 137.41 198.619 136.396 199.162 135.248C199.494 134.541 199.834 133.682 200.182 132.67L201.441 133.016C201.078 134.07 200.674 135.057 200.229 135.975ZM203.609 137.363L200.826 137.562L200.709 136.361L203.457 136.168C203.352 135.117 203.299 133.975 203.299 132.74H204.594C204.602 133.908 204.668 135.018 204.793 136.068L208.543 135.799L208.613 137L204.963 137.264C205.283 139.033 205.709 140.412 206.24 141.4C206.436 141.76 206.66 142.074 206.914 142.344C207.031 142.469 207.117 142.531 207.172 142.531C207.234 142.531 207.295 142.396 207.354 142.127C207.436 141.736 207.492 141.227 207.523 140.598L208.689 141.248C208.623 142.096 208.502 142.781 208.326 143.305C208.135 143.867 207.84 144.148 207.441 144.148C207.109 144.148 206.721 143.969 206.275 143.609C205.568 143.043 204.918 141.912 204.324 140.217C204.02 139.35 203.781 138.398 203.609 137.363ZM206.791 135.512C206.279 134.629 205.799 133.934 205.35 133.426L206.311 132.834C206.771 133.35 207.271 134.031 207.811 134.879L206.791 135.512Z" fill="#DC6B34"/>
<path d="M45.4 175V171.528H41.64V169.736L45.016 162.04H47.032V170.008H48.488V171.528H47.032V175H45.4ZM43.288 170.008H45.4V164.12L43.288 170.008ZM52.8784 175.144C52.1424 175.144 51.5344 174.979 51.0544 174.648C50.585 174.317 50.233 173.864 49.9984 173.288C49.7744 172.712 49.6624 172.056 49.6624 171.32V165.736C49.6624 164.979 49.7744 164.317 49.9984 163.752C50.2224 163.176 50.569 162.728 51.0384 162.408C51.5184 162.088 52.1317 161.928 52.8784 161.928C53.625 161.928 54.233 162.088 54.7024 162.408C55.1717 162.728 55.5184 163.176 55.7424 163.752C55.9664 164.317 56.0784 164.979 56.0784 165.736V171.32C56.0784 172.067 55.961 172.728 55.7264 173.304C55.5024 173.88 55.1557 174.333 54.6864 174.664C54.217 174.984 53.6144 175.144 52.8784 175.144ZM52.8784 173.736C53.2837 173.736 53.5877 173.619 53.7904 173.384C54.0037 173.149 54.1477 172.851 54.2224 172.488C54.3077 172.115 54.3504 171.731 54.3504 171.336V165.72C54.3504 165.304 54.313 164.915 54.2384 164.552C54.1637 164.179 54.0197 163.88 53.8064 163.656C53.6037 163.432 53.2944 163.32 52.8784 163.32C52.4624 163.32 52.1477 163.432 51.9344 163.656C51.721 163.88 51.577 164.179 51.5024 164.552C51.4277 164.915 51.3904 165.304 51.3904 165.72V171.336C51.3904 171.731 51.4277 172.115 51.5024 172.488C51.5877 172.851 51.737 173.149 51.9504 173.384C52.1744 173.619 52.4837 173.736 52.8784 173.736Z" fill="#2861D4"/>
<path d="M61.2285 165.975V174.143H59.9219V168.219C59.6055 168.676 59.2617 169.127 58.8906 169.572L58.2168 168.289C58.9707 167.41 59.6191 166.396 60.1621 165.248C60.4941 164.541 60.834 163.682 61.1816 162.67L62.4414 163.016C62.0781 164.07 61.6738 165.057 61.2285 165.975ZM64.6094 167.363L61.8262 167.562L61.709 166.361L64.457 166.168C64.3516 165.117 64.2988 163.975 64.2988 162.74H65.5938C65.6016 163.908 65.668 165.018 65.793 166.068L69.543 165.799L69.6133 167L65.9629 167.264C66.2832 169.033 66.709 170.412 67.2402 171.4C67.4355 171.76 67.6602 172.074 67.9141 172.344C68.0312 172.469 68.1172 172.531 68.1719 172.531C68.2344 172.531 68.2949 172.396 68.3535 172.127C68.4355 171.736 68.4922 171.227 68.5234 170.598L69.6895 171.248C69.623 172.096 69.502 172.781 69.3262 173.305C69.1348 173.867 68.8398 174.148 68.4414 174.148C68.1094 174.148 67.7207 173.969 67.2754 173.609C66.5684 173.043 65.918 171.912 65.3242 170.217C65.0195 169.35 64.7812 168.398 64.6094 167.363ZM67.791 165.512C67.2793 164.629 66.7988 163.934 66.3496 163.426L67.3105 162.834C67.7715 163.35 68.2715 164.031 68.8105 164.879L67.791 165.512Z" fill="#2861D4"/>
<path d="M4.013 77.128C3.23433 77.128 2.61567 76.9787 2.157 76.68C1.69833 76.3813 1.36767 75.9493 1.165 75.384C0.973 74.8187 0.877 74.1467 0.877 73.368H2.589C2.589 73.752 2.621 74.1307 2.685 74.504C2.749 74.8667 2.88233 75.1707 3.085 75.416C3.29833 75.6507 3.61833 75.768 4.045 75.768C4.51433 75.768 4.85033 75.6347 5.053 75.368C5.25567 75.0907 5.38367 74.7227 5.437 74.264C5.49033 73.7947 5.517 73.2667 5.517 72.68C5.517 72.0933 5.485 71.5973 5.421 71.192C5.357 70.776 5.22367 70.4613 5.021 70.248C4.81833 70.024 4.49833 69.912 4.061 69.912C3.709 69.912 3.41033 70.024 3.165 70.248C2.91967 70.4613 2.73833 70.7067 2.621 70.984H1.165V64.04H6.749V65.752H2.717L2.605 69.336C2.81833 69.112 3.07967 68.936 3.389 68.808C3.709 68.68 4.07167 68.616 4.477 68.616C5.181 68.616 5.73033 68.7813 6.125 69.112C6.53033 69.4427 6.813 69.896 6.973 70.472C7.14367 71.048 7.229 71.7093 7.229 72.456C7.229 73.1173 7.181 73.736 7.085 74.312C6.989 74.8773 6.81833 75.3733 6.573 75.8C6.33833 76.216 6.013 76.5413 5.597 76.776C5.181 77.0107 4.653 77.128 4.013 77.128ZM11.8784 77.144C11.1424 77.144 10.5344 76.9787 10.0544 76.648C9.58504 76.3173 9.23304 75.864 8.99838 75.288C8.77438 74.712 8.66238 74.056 8.66238 73.32V67.736C8.66238 66.9787 8.77438 66.3173 8.99838 65.752C9.22238 65.176 9.56904 64.728 10.0384 64.408C10.5184 64.088 11.1317 63.928 11.8784 63.928C12.625 63.928 13.233 64.088 13.7024 64.408C14.1717 64.728 14.5184 65.176 14.7424 65.752C14.9664 66.3173 15.0784 66.9787 15.0784 67.736V73.32C15.0784 74.0667 14.961 74.728 14.7264 75.304C14.5024 75.88 14.1557 76.3333 13.6864 76.664C13.217 76.984 12.6144 77.144 11.8784 77.144ZM11.8784 75.736C12.2837 75.736 12.5877 75.6187 12.7904 75.384C13.0037 75.1493 13.1477 74.8507 13.2224 74.488C13.3077 74.1147 13.3504 73.7307 13.3504 73.336V67.72C13.3504 67.304 13.313 66.9147 13.2384 66.552C13.1637 66.1787 13.0197 65.88 12.8064 65.656C12.6037 65.432 12.2944 65.32 11.8784 65.32C11.4624 65.32 11.1477 65.432 10.9344 65.656C10.721 65.88 10.577 66.1787 10.5024 66.552C10.4277 66.9147 10.3904 67.304 10.3904 67.72V73.336C10.3904 73.7307 10.4277 74.1147 10.5024 74.488C10.5877 74.8507 10.737 75.1493 10.9504 75.384C11.1744 75.6187 11.4837 75.736 11.8784 75.736Z" fill="#319CCF"/>
<path d="M20.2285 67.9746V76.1426H18.9219V70.2188C18.6055 70.6758 18.2617 71.127 17.8906 71.5723L17.2168 70.2891C17.9707 69.4102 18.6191 68.3965 19.1621 67.248C19.4941 66.541 19.834 65.6816 20.1816 64.6699L21.4414 65.0156C21.0781 66.0703 20.6738 67.0566 20.2285 67.9746ZM23.6094 69.3633L20.8262 69.5625L20.709 68.3613L23.457 68.168C23.3516 67.1172 23.2988 65.9746 23.2988 64.7402H24.5938C24.6016 65.9082 24.668 67.0176 24.793 68.0684L28.543 67.7988L28.6133 69L24.9629 69.2637C25.2832 71.0332 25.709 72.4121 26.2402 73.4004C26.4355 73.7598 26.6602 74.0742 26.9141 74.3438C27.0312 74.4688 27.1172 74.5312 27.1719 74.5312C27.2344 74.5312 27.2949 74.3965 27.3535 74.127C27.4355 73.7363 27.4922 73.2266 27.5234 72.5977L28.6895 73.248C28.623 74.0957 28.502 74.7812 28.3262 75.3047C28.1348 75.8672 27.8398 76.1484 27.4414 76.1484C27.1094 76.1484 26.7207 75.9688 26.2754 75.6094C25.5684 75.043 24.918 73.9121 24.3242 72.2168C24.0195 71.3496 23.7812 70.3984 23.6094 69.3633ZM26.791 67.5117C26.2793 66.6289 25.7988 65.9336 25.3496 65.4258L26.3105 64.834C26.7715 65.3496 27.2715 66.0312 27.8105 66.8789L26.791 67.5117Z" fill="#319CCF"/>
<path d="M55.6432 15.144C54.8966 15.144 54.2886 14.9573 53.8193 14.584C53.3499 14.2 53.0033 13.688 52.7793 13.048C52.5659 12.3973 52.4593 11.6773 52.4593 10.888V6.52C52.4593 5.67733 52.5553 4.90933 52.7473 4.216C52.9393 3.52267 53.2646 2.968 53.7233 2.552C54.1926 2.136 54.8326 1.928 55.6432 1.928C56.3153 1.928 56.8806 2.05067 57.3393 2.296C57.8086 2.54133 58.1659 2.89867 58.4113 3.368C58.6673 3.83733 58.8006 4.408 58.8113 5.08C58.8113 5.10133 58.8113 5.13333 58.8113 5.176C58.8219 5.208 58.8273 5.24 58.8273 5.272H57.0993C57.0993 4.64267 56.9979 4.16267 56.7953 3.832C56.5926 3.50133 56.2086 3.336 55.6432 3.336C55.3339 3.336 55.0673 3.43733 54.8433 3.64C54.6193 3.832 54.4486 4.13067 54.3313 4.536C54.2246 4.94133 54.1713 5.464 54.1713 6.104V8.072C54.3419 7.80533 54.5819 7.592 54.8913 7.432C55.2113 7.26133 55.6006 7.176 56.0593 7.176C56.7739 7.176 57.3339 7.33067 57.7393 7.64C58.1446 7.94933 58.4326 8.38667 58.6033 8.952C58.7739 9.50667 58.8593 10.1627 58.8593 10.92C58.8593 11.6987 58.7526 12.408 58.5393 13.048C58.3259 13.688 57.9846 14.2 57.5153 14.584C57.0459 14.9573 56.4219 15.144 55.6432 15.144ZM55.6432 13.72C56.0273 13.72 56.3259 13.6133 56.5393 13.4C56.7526 13.176 56.9019 12.8827 56.9873 12.52C57.0833 12.1573 57.1313 11.7627 57.1313 11.336C57.1313 10.824 57.1046 10.3493 57.0513 9.912C57.0086 9.47467 56.8859 9.128 56.6833 8.872C56.4806 8.60533 56.1339 8.472 55.6432 8.472C55.4086 8.472 55.1953 8.51467 55.0033 8.6C54.8113 8.68533 54.6459 8.79733 54.5073 8.936C54.3686 9.064 54.2566 9.20267 54.1713 9.352V11.288C54.1713 11.7253 54.2139 12.1307 54.2993 12.504C54.3953 12.8773 54.5499 13.176 54.7633 13.4C54.9766 13.6133 55.2699 13.72 55.6432 13.72ZM63.7221 15.144C62.9861 15.144 62.3781 14.9787 61.8981 14.648C61.4288 14.3173 61.0768 13.864 60.8421 13.288C60.6181 12.712 60.5061 12.056 60.5061 11.32V5.736C60.5061 4.97867 60.6181 4.31733 60.8421 3.752C61.0661 3.176 61.4128 2.728 61.8821 2.408C62.3621 2.088 62.9755 1.928 63.7221 1.928C64.4688 1.928 65.0768 2.088 65.5461 2.408C66.0155 2.728 66.3621 3.176 66.5861 3.752C66.8101 4.31733 66.9221 4.97867 66.9221 5.736V11.32C66.9221 12.0667 66.8048 12.728 66.5701 13.304C66.3461 13.88 65.9995 14.3333 65.5301 14.664C65.0608 14.984 64.4581 15.144 63.7221 15.144ZM63.7221 13.736C64.1275 13.736 64.4315 13.6187 64.6341 13.384C64.8475 13.1493 64.9915 12.8507 65.0661 12.488C65.1515 12.1147 65.1941 11.7307 65.1941 11.336V5.72C65.1941 5.304 65.1568 4.91467 65.0821 4.552C65.0075 4.17867 64.8635 3.88 64.6501 3.656C64.4475 3.432 64.1381 3.32 63.7221 3.32C63.3061 3.32 62.9915 3.432 62.7781 3.656C62.5648 3.88 62.4208 4.17867 62.3461 4.552C62.2715 4.91467 62.2341 5.304 62.2341 5.72V11.336C62.2341 11.7307 62.2715 12.1147 62.3461 12.488C62.4315 12.8507 62.5808 13.1493 62.7941 13.384C63.0181 13.6187 63.3275 13.736 63.7221 13.736ZM72.5798 9.512C72.3131 9.512 72.0358 9.43733 71.7478 9.288C71.4704 9.128 71.1984 8.97333 70.9318 8.824C70.6651 8.67467 70.4144 8.6 70.1798 8.6C70.0411 8.6 69.8598 8.664 69.6358 8.792C69.4224 8.90933 69.2144 9.048 69.0118 9.208L68.4038 8.392C68.5531 8.232 68.7398 8.06133 68.9638 7.88C69.1984 7.69867 69.4331 7.544 69.6678 7.416C69.9131 7.288 70.1264 7.224 70.3078 7.224C70.5744 7.224 70.8411 7.29867 71.1078 7.448C71.3851 7.59733 71.6571 7.752 71.9238 7.912C72.1904 8.06133 72.4411 8.136 72.6758 8.136C72.8358 8.136 73.0118 8.072 73.2038 7.944C73.4064 7.816 73.6144 7.66667 73.8278 7.496L74.4358 8.28C74.2971 8.44 74.1158 8.616 73.8918 8.808C73.6784 9 73.4544 9.16533 73.2198 9.304C72.9958 9.44267 72.7824 9.512 72.5798 9.512Z" fill="#4ECD2C"/>
<path d="M79.2285 5.97461V14.1426H77.9219V8.21875C77.6055 8.67578 77.2617 9.12695 76.8906 9.57227L76.2168 8.28906C76.9707 7.41016 77.6191 6.39648 78.1621 5.24805C78.4941 4.54102 78.834 3.68164 79.1816 2.66992L80.4414 3.01562C80.0781 4.07031 79.6738 5.05664 79.2285 5.97461ZM82.6094 7.36328L79.8262 7.5625L79.709 6.36133L82.457 6.16797C82.3516 5.11719 82.2988 3.97461 82.2988 2.74023H83.5938C83.6016 3.9082 83.668 5.01758 83.793 6.06836L87.543 5.79883L87.6133 7L83.9629 7.26367C84.2832 9.0332 84.709 10.4121 85.2402 11.4004C85.4355 11.7598 85.6602 12.0742 85.9141 12.3438C86.0312 12.4688 86.1172 12.5312 86.1719 12.5312C86.2344 12.5312 86.2949 12.3965 86.3535 12.127C86.4355 11.7363 86.4922 11.2266 86.5234 10.5977L87.6895 11.248C87.623 12.0957 87.502 12.7812 87.3262 13.3047C87.1348 13.8672 86.8398 14.1484 86.4414 14.1484C86.1094 14.1484 85.7207 13.9688 85.2754 13.6094C84.5684 13.043 83.918 11.9121 83.3242 10.2168C83.0195 9.34961 82.7812 8.39844 82.6094 7.36328ZM85.791 5.51172C85.2793 4.62891 84.7988 3.93359 84.3496 3.42578L85.3105 2.83398C85.7715 3.34961 86.2715 4.03125 86.8105 4.87891L85.791 5.51172Z" fill="#4ECD2C"/>
</svg>
