<svg width="81" height="81" viewBox="0 0 81 81" fill="none" xmlns="http://www.w3.org/2000/svg">
<g clip-path="url(#clip0_727_4964)">
<rect width="80" height="80" transform="translate(0.5 0.796875)" fill="#F9F9F9"/>
<path d="M26.3311 34.7383L35.0636 41.4744C35.3996 44.19 37.6889 46.3019 40.4976 46.3019C43.5371 46.3019 45.9998 43.8378 45.9998 40.7997C45.9998 40.6819 45.9726 40.5728 45.9651 40.4563L58.7626 25.3163C59.6567 24.3142 59.6717 22.8708 58.8011 22.0969C57.9293 21.3206 56.4995 21.5067 55.6079 22.5086L43.0321 35.9436C42.2707 35.5442 41.4164 35.2975 40.4975 35.2975C39.5128 35.2975 38.6028 35.5766 37.804 36.0292L29.5812 30.3038C28.5209 29.5225 26.9311 29.8845 26.032 31.1098C25.1356 32.3323 25.267 33.9581 26.3311 34.7383Z" fill="#65C0C8"/>
<path d="M40.5 0.796875C38.7466 0.796875 37.3255 2.21813 37.3255 3.97156C37.3255 5.725 38.7467 7.14609 40.5 7.14609C49.8031 7.14734 58.1947 10.9073 64.2947 17.0022C70.3897 23.1009 74.1497 31.4937 74.1508 40.7969C74.1497 50.1 70.3897 58.4916 64.2947 64.5916C58.1947 70.6866 49.8031 74.4464 40.5 74.4477C31.197 74.4464 22.8041 70.6864 16.7055 64.5916C10.6105 58.4916 6.85047 50.1 6.84922 40.7969C6.85047 34.0372 8.84453 27.76 12.2709 22.4922L15.2173 24.6944C15.5361 24.9325 15.9577 24.992 16.3309 24.8506C16.703 24.7094 16.9808 24.3906 17.0627 23.9988L19.0455 14.6202C19.3989 14.0136 19.5502 13.3167 19.4645 12.6322L20.3611 8.39359C20.4566 7.94734 20.2817 7.48828 19.9183 7.21422C19.5523 6.94266 19.0627 6.90547 18.6608 7.12375L4.63172 14.7081C4.27953 14.9003 4.05016 15.255 4.02172 15.653C3.99188 16.0498 4.16797 16.4367 4.48797 16.6761L7.17141 18.6812C2.96031 25.0181 0.498907 32.6259 0.5 40.7969C0.5025 62.89 18.4069 80.7944 40.5 80.7969C62.5933 80.7944 80.4977 62.89 80.5 40.7969C80.4977 18.7038 62.5933 0.799375 40.5 0.796875Z" fill="#65C0C8"/>
</g>
<defs>
<clipPath id="clip0_727_4964">
<rect width="80" height="80" fill="white" transform="translate(0.5 0.796875)"/>
</clipPath>
</defs>
</svg>
