<svg width="107" height="103" viewBox="0 0 107 103" fill="none" xmlns="http://www.w3.org/2000/svg">
<path d="M79.8836 36.9765C89.1926 36.9765 96.739 29.4309 96.739 20.1211C96.739 10.8112 89.1926 3.26562 79.8836 3.26562C70.5738 3.26562 63.0273 10.8112 63.0273 20.1211C63.0273 29.4309 70.5736 36.9765 79.8836 36.9765Z" fill="#65C0C8"/>
<path d="M107 91.2109H0V102.35H107V91.2109Z" fill="#65C0C8"/>
<path d="M74.7544 88.2795H98.0597V59.551C98.0597 49.5143 89.9223 41.375 79.8848 41.375C69.8464 41.375 61.709 49.5143 61.709 59.551V76.5525H74.7544V88.2795Z" fill="#65C0C8"/>
<path d="M26.6295 88.2771H54.7229H71.8226V79.4814H50.6792L41.7753 55.2969H0.246094L13.1927 88.2771H26.6295Z" fill="#65C0C8"/>
<path d="M12.6731 19.8463L23.3183 28.0593C23.3635 28.0945 23.4172 28.113 23.4663 28.1446C23.4903 28.1557 23.5108 28.1703 23.533 28.1816C24.4529 28.6938 25.6728 28.4238 26.4847 27.5287C26.5076 27.5009 26.5327 27.4861 26.5568 27.4585L39.6024 12.0271C40.3449 11.193 40.357 9.99473 39.6348 9.35106C38.9098 8.70572 37.7226 8.86287 36.9811 9.69505L24.789 22.7223L15.3713 16.166C14.491 15.5169 13.1705 15.8164 12.4261 16.8373C11.6808 17.8507 11.7899 19.2007 12.6731 19.8463Z" fill="#65C0C8"/>
<path d="M22.4043 42.5185C22.4043 43.9536 23.5667 45.1133 24.9999 45.1133C26.4331 45.1133 27.5955 43.9536 27.5955 42.5185C27.5955 41.0832 26.4331 39.9219 24.9999 39.9219C23.5667 39.9219 22.4043 41.0832 22.4043 42.5185Z" fill="#65C0C8"/>
<path d="M24.9999 5.84742C26.4331 5.84742 27.5955 4.68589 27.5955 3.251C27.5955 1.8159 26.4331 0.65625 24.9999 0.65625C23.5667 0.65625 22.4043 1.8159 22.4043 3.251C22.4043 4.6861 23.5667 5.84742 24.9999 5.84742Z" fill="#65C0C8"/>
<path d="M37.0452 34.9321C36.0318 35.9456 36.0318 37.5895 37.0452 38.6031C38.0598 39.6164 39.7037 39.6164 40.7172 38.6031C41.7298 37.5914 41.7306 35.9456 40.7172 34.9321C39.7026 33.9185 38.0596 33.9185 37.0452 34.9321Z" fill="#65C0C8"/>
<path d="M12.9523 10.8384C13.9667 9.82505 13.9667 8.18097 12.9523 7.16573C11.9379 6.15215 10.2946 6.15403 9.28127 7.16573C8.26874 8.18097 8.2677 9.82526 9.28127 10.8384C10.2955 11.852 11.9387 11.8501 12.9523 10.8384Z" fill="#65C0C8"/>
<path d="M44.6327 25.4788C46.0659 25.4788 47.2293 24.3172 47.2283 22.8821C47.2293 21.4506 46.0667 20.2891 44.6327 20.2891C43.1984 20.2891 42.0371 21.4506 42.0371 22.8838C42.0369 24.3172 43.1984 25.4788 44.6327 25.4788Z" fill="#65C0C8"/>
<path d="M5.36812 25.4788C6.80217 25.4788 7.96286 24.3172 7.9637 22.8838C7.9637 21.4506 6.80133 20.2855 5.36707 20.2891C3.93302 20.2891 2.77232 21.4506 2.77148 22.8821C2.77253 24.3172 3.93386 25.4788 5.36812 25.4788Z" fill="#65C0C8"/>
<path d="M9.28148 34.9335C8.26791 35.9468 8.26874 37.5909 9.28044 38.6026C10.2957 39.616 11.9389 39.6179 12.9542 38.6045C13.9677 37.5909 13.9659 35.945 12.9542 34.9335C11.9389 33.918 10.2948 33.918 9.28148 34.9335Z" fill="#65C0C8"/>
</svg>
