<svg width="88" height="87" viewBox="0 0 88 87" fill="none" xmlns="http://www.w3.org/2000/svg">
<path d="M31.2837 38.289L42.2988 46.7868L42.4521 46.8746L42.5207 46.913C43.4733 47.4435 44.7342 47.1623 45.575 46.2369L45.6484 46.1666L59.1487 30.1939C59.9174 29.3324 59.9302 28.0922 59.1824 27.4273C58.4329 26.7609 57.2038 26.9208 56.4382 27.7821L43.8187 41.2633L34.0759 34.4788C33.1648 33.8076 31.7985 34.1192 31.0264 35.1724C30.256 36.2225 30.3693 37.6194 31.2837 38.289Z" fill="#65C0C8"/>
<path d="M17.5658 43.4968C17.5658 42.9133 17.5785 42.3301 17.6402 41.7578H10.7254C10.6831 42.3299 10.6719 42.9133 10.6719 43.4968C10.6719 44.0913 10.6831 44.6651 10.7254 45.2388H17.6402C17.5785 44.6651 17.5658 44.0833 17.5658 43.4968Z" fill="#65C0C8"/>
<path d="M29.7946 21.2076C30.4482 20.7937 31.1155 20.4037 31.7932 20.0569L32.0569 19.929L28.6109 13.9453C27.7488 14.38 26.9088 14.8625 26.0938 15.3917L29.5412 21.3786L29.7946 21.2076Z" fill="#65C0C8"/>
<path d="M14.4453 28.1094L20.4315 31.5552L21.8804 29.0412L15.8918 25.5938C15.3627 26.4088 14.8808 27.2464 14.4453 28.1094Z" fill="#65C0C8"/>
<path d="M67.4448 55.7033C67.0852 56.3826 66.7071 57.0473 66.2818 57.6915L66.1094 57.944L72.0973 61.3913C72.6271 60.5762 73.1097 59.7499 73.5555 58.8884L67.5829 55.4297L67.4448 55.7033Z" fill="#65C0C8"/>
<path d="M20.5578 55.6919L20.4195 55.4297L14.4453 58.8756C14.8704 59.7371 15.3625 60.5762 15.8917 61.3913L21.8803 57.944L21.7059 57.6915C21.293 57.0471 20.9031 56.3824 20.5578 55.6919Z" fill="#65C0C8"/>
<path d="M29.7946 65.7818L29.5412 65.6094L26.0938 71.5978C26.909 72.1269 27.7488 72.6207 28.6109 73.0571L32.0569 67.0702L31.7932 66.9424C31.1153 66.5969 30.4481 66.207 29.7946 65.7818Z" fill="#65C0C8"/>
<path d="M55.9297 19.9193L58.4462 21.3786L61.8928 15.3917C61.0784 14.8625 60.249 14.38 59.3899 13.9453L55.9297 19.9193Z" fill="#65C0C8"/>
<path d="M42.2578 69.8531V76.7593C42.8316 76.8103 43.4133 76.8215 43.9959 76.8215C44.5808 76.8215 45.1634 76.8103 45.7355 76.7593V69.8531V69.7812H42.2578V69.8531Z" fill="#65C0C8"/>
<path d="M45.7355 17.1402V10.2342C45.1634 10.1829 44.5808 10.1719 43.9959 10.1719C43.4133 10.1719 42.8316 10.1829 42.2578 10.2342V17.1402V17.2121H45.7355V17.1402Z" fill="#65C0C8"/>
<path d="M55.9297 67.0814L59.3899 73.0571C60.249 72.608 61.0784 72.1269 61.8928 71.5978L58.4462 65.6094L55.9297 67.0814Z" fill="#65C0C8"/>
<path d="M73.5555 28.1094C73.1185 27.2464 72.6269 26.409 72.0973 25.5938L66.1094 29.0412L67.5708 31.5552L73.5555 28.1094Z" fill="#65C0C8"/>
<path d="M77.2749 41.7578H70.3609H70.2891V45.2388H70.3609H77.2749C77.3181 44.6651 77.3278 44.0833 77.3278 43.4968C77.3276 42.9133 77.3181 42.3299 77.2749 41.7578Z" fill="#65C0C8"/>
<path d="M43.9982 0C19.9728 0.00152926 0.501529 19.4743 0.5 43.4991C0.501529 67.5238 19.9728 86.9965 43.9982 86.9982C68.0237 86.9965 87.495 67.5238 87.4965 43.4991C87.495 19.4743 68.0237 0.00152926 43.9982 0ZM43.9982 81.3851C33.5267 81.3834 24.0723 77.1497 17.2087 70.2886C10.3483 63.4227 6.11376 53.9689 6.11291 43.4991C6.11376 33.0291 10.3483 23.574 17.2086 16.7111C24.0723 9.84813 33.5267 5.61444 43.9982 5.61291C54.4683 5.61461 63.9225 9.8483 70.7877 16.7111C77.6482 23.574 81.8827 33.0274 81.8834 43.4991C81.8826 53.9689 77.648 63.4227 70.7877 70.2886C63.9225 77.1499 54.4683 81.3836 43.9982 81.3851Z" fill="#65C0C8"/>
</svg>
