<svg width="77" height="89" viewBox="0 0 77 89" fill="none" xmlns="http://www.w3.org/2000/svg">
<path d="M30.3067 17.4923C35.1384 17.4923 39.0544 13.5763 39.0544 8.74773C39.0544 3.91444 35.1384 0 30.3067 0C25.4765 0 21.5605 3.91444 21.5605 8.74773C21.5605 13.5763 25.4765 17.4923 30.3067 17.4923Z" fill="#65C0C8"/>
<path d="M74.9441 51.023C74.7851 49.9637 73.7969 49.2349 72.7344 49.3924L68.2549 50.0656L67.8704 47.5178C67.7115 46.4816 66.7478 45.7713 65.7133 45.9243L65.1373 46.0109C65.0987 45.7049 65.0323 45.4007 64.9042 45.1044L60.7457 35.4918C59.7264 33.2126 56.9222 30.2803 54.745 29.059C54.745 29.059 41.9175 21.1898 40.869 20.8068C40.2621 20.5876 39.615 20.4889 38.9572 20.4688L32.5442 33.2931L24.7664 22.8605C24.28 23.1784 23.8569 23.5151 23.5633 23.8733L12.0378 37.5919L2.55046 41.0895C0.753077 41.7517 -0.212191 43.7037 0.356053 45.5335L0.4009 45.6742C0.958193 47.4731 3.33946 48.361 5.17387 47.9378L12.379 46.3288C14.3077 45.8842 16.1391 45.0889 17.779 43.9832L23.9124 38.7254L25.4459 51.65C25.5849 52.7093 25.6281 52.9579 25.0968 53.8858L20.6649 61.034C18.9557 63.7933 17.7095 66.8153 16.9759 69.9793L13.7038 84.073C13.3069 86.3383 14.8172 88.4985 17.0809 88.9078L17.2384 88.9357C19.3817 89.32 21.4617 87.9999 22.0208 85.8966L27.1412 70.7529L34.9718 59.6952L41.476 70.5785C41.8805 71.383 42.4132 72.1134 43.0573 72.7418L55.1541 84.5687C56.6798 86.0605 59.0948 86.1269 60.6993 84.7217L60.8924 84.5534C61.7139 83.8338 62.2126 82.8148 62.279 81.7246C62.3439 80.6345 61.9701 79.5627 61.2399 78.7535L51.025 67.3761L45.4768 51.1127L44.3744 34.3894L51.7124 37.5147L58.3646 47.4408C57.9617 47.85 57.7252 48.4135 57.8163 49.0266L58.2008 51.5791L53.7195 52.2522C52.6571 52.4098 51.9282 53.3994 52.089 54.4619L53.9281 66.7056C54.0888 67.7649 55.077 68.4968 56.1378 68.3362L75.1545 65.4795C76.2169 65.3173 76.9456 64.3275 76.7865 63.268L74.9441 51.023ZM32.0656 39.099C32.0656 38.4102 32.6229 37.8528 33.3102 37.8528C33.9989 37.8528 34.5564 38.4101 34.5564 39.099C34.5564 39.7877 33.9989 40.3451 33.3102 40.3451C32.6229 40.3451 32.0656 39.7877 32.0656 39.099ZM33.8585 47.7525C33.1713 47.7525 32.6123 47.1934 32.6123 46.5049C32.6123 45.8178 33.1713 45.2603 33.8585 45.2603C34.5472 45.2603 35.1046 45.8176 35.1046 46.5049C35.1046 47.1934 34.547 47.7525 33.8585 47.7525ZM59.6709 49.0866C60.6283 49.8433 61.9501 50.044 63.1129 49.516L63.2147 49.4725C63.9452 49.142 64.4872 48.574 64.8192 47.9068L65.985 47.7309L66.0652 47.7897L66.4481 50.3375L60.0059 51.3072L59.6709 49.0866Z" fill="#65C0C8"/>
<path d="M29.5935 26.4151L32.1089 29.7891L33.8769 26.2529L33.1761 20.6953C31.6165 20.8375 30.2081 21.0751 28.959 21.3856L29.5935 26.4151Z" fill="#65C0C8"/>
</svg>
