<svg width="90" height="90" viewBox="0 0 90 90" fill="none" xmlns="http://www.w3.org/2000/svg">
<path d="M45.001 0C41.8655 0 38.8564 1.25111 36.6397 3.47659C34.4212 5.70207 33.177 8.72319 33.177 11.8712C33.177 15.0191 34.4231 18.0383 36.6397 20.2657C38.8564 22.4931 41.8655 23.7423 45.001 23.7423C51.5322 23.7423 56.8249 18.4265 56.8249 11.8712C56.8249 8.72319 55.5788 5.70207 53.3622 3.47659C51.1436 1.25111 48.1364 0 45.001 0ZM18.8875 17.7078C13.656 17.7078 9.41605 21.9646 9.41605 27.217C9.41605 32.4693 13.6579 36.7262 18.8875 36.7262C20.7309 36.7243 22.534 36.1804 24.075 35.1637V31.4488C24.075 28.4277 25.5412 25.7179 27.7885 23.9998C26.439 20.2292 22.8786 17.7116 18.8875 17.7078ZM71.1125 17.7078C67.1214 17.7116 63.561 20.2273 62.2096 23.9979C64.4588 25.7179 65.925 28.4296 65.925 31.4508V35.1695C67.466 36.1842 69.2691 36.7262 71.1125 36.7262C76.344 36.7262 80.5839 32.4693 80.5839 27.217C80.5839 21.9646 76.3421 17.7078 71.1125 17.7078ZM33.4067 25.6833C30.2253 25.6833 27.6641 28.2548 27.6641 31.4488V57.0188C27.6641 60.2129 30.2253 62.7843 33.4067 62.7843H34.4059V83.2364C34.4059 86.4305 36.9671 89.0019 40.1485 89.0019H49.8496C53.031 89.0019 55.5922 86.4305 55.5922 83.2364V62.7843H56.5933C59.7747 62.7843 62.3359 60.2129 62.3359 57.0188V31.4488C62.3359 28.2548 59.7747 25.6833 56.5933 25.6833H33.4067ZM9.59981 38.281C7.05202 38.281 5 40.3412 5 42.8991V63.382C5 65.9399 7.05202 68.0001 9.59981 68.0001H10.4019V84.3838C10.4019 86.9417 12.452 89.0019 15.0017 89.0019H22.7733C25.3211 89.0019 27.3731 86.9417 27.3731 84.3838V68.0001H28.1752C29.161 68.0001 30.0721 67.6907 30.8187 67.1642V66.0053C26.9501 64.8637 24.0769 61.2449 24.0769 57.0169V38.279H9.59981V38.281ZM65.925 38.281V57.0188C65.925 61.2468 63.0518 64.8637 59.1813 66.0072V67.1642C59.9279 67.6907 60.839 68.0001 61.8248 68.0001H62.6269V84.3838C62.6269 86.9417 64.6789 89.0019 67.2267 89.0019H74.9983C77.5461 89.0019 79.5981 86.9417 79.5981 84.3838V68.0001H80.4002C82.948 68.0001 85 65.9399 85 63.382V42.8991C85 40.3412 82.948 38.281 80.4002 38.281H65.925Z" fill="#65C0C8"/>
</svg>
