<svg width="227" height="168" viewBox="0 0 227 168" fill="none" xmlns="http://www.w3.org/2000/svg">
<path d="M192.023 93.5C192.023 134.645 158.893 168 118.023 168C115.655 168 113.312 167.888 111 167.669C73.4251 164.107 44.0234 132.26 44.0234 93.5C44.0234 52.3548 77.1544 19 118.023 19C158.893 19 192.023 52.3548 192.023 93.5Z" fill="#F3C51E"/>
<path d="M118.024 93.5L48.293 68.5C53.887 52.6866 64.6377 39.3361 78.5076 30.5C89.9406 23.2163 103.493 19 118.024 19C118.024 19 118.024 52.3548 118.024 93.5Z" fill="#60C5F5"/>
<path d="M118.024 93.5L78.5073 30.5C78.5073 30.5 64.6386 39.3361 78.5084 30.5C89.9414 23.2163 103.494 19 118.024 19C118.024 19 118.024 52.3548 118.024 93.5Z" fill="#8CF56F"/>
<path d="M118.023 93.4999C118.023 134.645 118.023 168 118.023 168C115.655 168 113.312 167.888 111 167.669C73.4251 164.107 44.0234 132.26 44.0234 93.5C44.0234 84.5429 45.5936 75.955 48.4718 68L118.023 93.4999Z" fill="#6091F5"/>
<path d="M192.023 93.5C192.023 134.645 158.893 168 118.023 168C115.655 168 113.312 167.888 111 167.669L118.023 93.5L192.023 93.5Z" fill="#F59160"/>
<path d="M192.023 93.5C192.023 96.5462 191.842 99.5496 191.489 102.5L118.024 93.5C118.024 52.3548 118.023 19 118.023 19C158.893 19 192.023 52.3548 192.023 93.5Z" fill="#F4D45F"/>
<path d="M176.424 39V28.28C176.413 28.2907 176.29 28.3227 176.056 28.376C175.832 28.4293 175.576 28.4827 175.288 28.536C175 28.5893 174.744 28.6373 174.52 28.68C174.296 28.7227 174.178 28.744 174.168 28.744V27.448C174.349 27.4053 174.557 27.3467 174.792 27.272C175.037 27.1973 175.282 27.1067 175.528 27C175.784 26.8933 176.024 26.76 176.248 26.6C176.482 26.44 176.68 26.2533 176.84 26.04H178.136V39H176.424ZM183.878 39.144C183.142 39.144 182.534 38.9787 182.054 38.648C181.585 38.3173 181.233 37.864 180.998 37.288C180.774 36.712 180.662 36.056 180.662 35.32V29.736C180.662 28.9787 180.774 28.3173 180.998 27.752C181.222 27.176 181.569 26.728 182.038 26.408C182.518 26.088 183.132 25.928 183.878 25.928C184.625 25.928 185.233 26.088 185.702 26.408C186.172 26.728 186.518 27.176 186.742 27.752C186.966 28.3173 187.078 28.9787 187.078 29.736V35.32C187.078 36.0667 186.961 36.728 186.726 37.304C186.502 37.88 186.156 38.3333 185.686 38.664C185.217 38.984 184.614 39.144 183.878 39.144ZM183.878 37.736C184.284 37.736 184.588 37.6187 184.79 37.384C185.004 37.1493 185.148 36.8507 185.222 36.488C185.308 36.1147 185.35 35.7307 185.35 35.336V29.72C185.35 29.304 185.313 28.9147 185.238 28.552C185.164 28.1787 185.02 27.88 184.806 27.656C184.604 27.432 184.294 27.32 183.878 27.32C183.462 27.32 183.148 27.432 182.934 27.656C182.721 27.88 182.577 28.1787 182.502 28.552C182.428 28.9147 182.39 29.304 182.39 29.72V35.336C182.39 35.7307 182.428 36.1147 182.502 36.488C182.588 36.8507 182.737 37.1493 182.95 37.384C183.174 37.6187 183.484 37.736 183.878 37.736Z" fill="#E59D00"/>
<path d="M194.929 33.3828C194.808 34.6562 194.532 35.6797 194.103 36.4531C193.458 37.6211 192.351 38.5176 190.78 39.1426L189.954 38.0469C191.036 37.7266 191.892 37.1816 192.52 36.4121C193.103 35.7012 193.458 34.6914 193.587 33.3828H191.536V32.5391C191.106 32.9805 190.626 33.3984 190.095 33.793L189.257 32.7793C190.968 31.5996 192.185 29.9512 192.907 27.834L194.155 28.2793C193.624 29.7559 192.853 31.0684 191.841 32.2168H198.509C197.341 31.1113 196.368 29.7793 195.591 28.2207L196.78 27.7402C197.757 29.7324 199.108 31.2559 200.835 32.3105L200.056 33.4648C199.532 33.0938 199.075 32.7324 198.685 32.3809L198.679 32.6211C198.632 34.6484 198.53 36.2676 198.374 37.4785C198.292 38.1191 198.108 38.5391 197.823 38.7383C197.569 38.918 197.124 39.0078 196.487 39.0078C196.007 39.0078 195.413 38.9844 194.706 38.9375L194.466 37.7012C195.106 37.7871 195.686 37.8301 196.206 37.8301C196.511 37.8301 196.714 37.7871 196.815 37.7012C196.917 37.6152 196.997 37.3887 197.056 37.0215C197.2 36.1504 197.288 34.9375 197.319 33.3828H194.929ZM210.396 36.3242C209.482 37.457 208.084 38.3652 206.201 39.0488L205.457 37.9648C207.703 37.2852 209.17 36.2109 209.857 34.7422C210.506 33.3516 210.83 31.2109 210.83 28.3203V28.1387H212.143V28.2969C212.143 30.2773 212.025 31.8633 211.791 33.0547C211.635 33.875 211.396 34.6133 211.076 35.2695C212.334 36.1641 213.266 36.9629 213.871 37.666L212.934 38.8203C212.273 37.9961 211.461 37.1914 210.496 36.4062C210.461 36.3789 210.428 36.3516 210.396 36.3242ZM204.877 35.7148C205.955 35.2227 206.973 34.6523 207.93 34.0039L208.275 35.0703C206.697 36.1992 204.881 37.168 202.826 37.9766L202.229 36.8105C202.725 36.6309 203.184 36.4551 203.605 36.2832L203.465 28.5078H204.771L204.877 35.7148ZM208.24 32.5391C207.518 31.4609 206.773 30.5605 206.008 29.8379L206.992 29.0117C207.953 29.9141 208.725 30.8008 209.307 31.6719L208.24 32.5391ZM220.269 29.6973V27.7402H221.575V29.6973H226.075V37.8535C226.075 38.3145 225.95 38.6367 225.7 38.8203C225.497 38.9727 225.144 39.0488 224.64 39.0488C223.776 39.0488 223.064 39.0273 222.501 38.9844L222.261 37.7363C223.136 37.791 223.866 37.8184 224.452 37.8184C224.608 37.8184 224.7 37.7812 224.728 37.707C224.747 37.6602 224.757 37.5859 224.757 37.4844V30.8984H221.569L221.564 30.9863C221.544 31.3027 221.505 31.627 221.446 31.959C222.606 32.9082 223.642 33.9785 224.552 35.1699L223.556 36.0957C222.907 35.1543 222.093 34.1758 221.112 33.1602C220.608 34.4844 219.595 35.5898 218.071 36.4766L217.298 35.4453C218.208 34.9219 218.88 34.3633 219.314 33.7695C219.884 32.9883 220.198 32.0312 220.257 30.8984H217.181V39.1426H215.862V29.6973H220.269Z" fill="#E59D00"/>
<circle cx="118.023" cy="94" r="37" fill="#F9F9F9"/>
<path d="M164.75 167V165.784L168.046 160.648C168.291 160.264 168.515 159.907 168.718 159.576C168.931 159.245 169.102 158.899 169.23 158.536C169.368 158.163 169.438 157.736 169.438 157.256C169.438 156.659 169.342 156.189 169.15 155.848C168.958 155.507 168.622 155.336 168.142 155.336C167.736 155.336 167.422 155.448 167.198 155.672C166.974 155.896 166.819 156.189 166.734 156.552C166.648 156.915 166.606 157.304 166.606 157.72V158.152H164.894V157.704C164.894 156.925 164.995 156.259 165.198 155.704C165.411 155.139 165.747 154.701 166.206 154.392C166.675 154.083 167.294 153.928 168.062 153.928C169.107 153.928 169.886 154.227 170.398 154.824C170.91 155.411 171.166 156.227 171.166 157.272C171.166 157.827 171.096 158.312 170.958 158.728C170.83 159.144 170.659 159.533 170.446 159.896C170.232 160.259 169.998 160.632 169.742 161.016L166.766 165.56H170.862V167H164.75ZM175.878 167.144C175.142 167.144 174.534 166.979 174.054 166.648C173.585 166.317 173.233 165.864 172.998 165.288C172.774 164.712 172.662 164.056 172.662 163.32V157.736C172.662 156.979 172.774 156.317 172.998 155.752C173.222 155.176 173.569 154.728 174.038 154.408C174.518 154.088 175.132 153.928 175.878 153.928C176.625 153.928 177.233 154.088 177.702 154.408C178.172 154.728 178.518 155.176 178.742 155.752C178.966 156.317 179.078 156.979 179.078 157.736V163.32C179.078 164.067 178.961 164.728 178.726 165.304C178.502 165.88 178.156 166.333 177.686 166.664C177.217 166.984 176.614 167.144 175.878 167.144ZM175.878 165.736C176.284 165.736 176.588 165.619 176.79 165.384C177.004 165.149 177.148 164.851 177.222 164.488C177.308 164.115 177.35 163.731 177.35 163.336V157.72C177.35 157.304 177.313 156.915 177.238 156.552C177.164 156.179 177.02 155.88 176.806 155.656C176.604 155.432 176.294 155.32 175.878 155.32C175.462 155.32 175.148 155.432 174.934 155.656C174.721 155.88 174.577 156.179 174.502 156.552C174.428 156.915 174.39 157.304 174.39 157.72V163.336C174.39 163.731 174.428 164.115 174.502 164.488C174.588 164.851 174.737 165.149 174.95 165.384C175.174 165.619 175.484 165.736 175.878 165.736Z" fill="#DC6B34"/>
<path d="M186.929 160.383C186.808 161.656 186.532 162.68 186.103 163.453C185.458 164.621 184.351 165.518 182.78 166.143L181.954 165.047C183.036 164.727 183.892 164.182 184.52 163.412C185.103 162.701 185.458 161.691 185.587 160.383H183.536V159.539C183.106 159.98 182.626 160.398 182.095 160.793L181.257 159.779C182.968 158.6 184.185 156.951 184.907 154.834L186.155 155.279C185.624 156.756 184.853 158.068 183.841 159.217H190.509C189.341 158.111 188.368 156.779 187.591 155.221L188.78 154.74C189.757 156.732 191.108 158.256 192.835 159.311L192.056 160.465C191.532 160.094 191.075 159.732 190.685 159.381L190.679 159.621C190.632 161.648 190.53 163.268 190.374 164.479C190.292 165.119 190.108 165.539 189.823 165.738C189.569 165.918 189.124 166.008 188.487 166.008C188.007 166.008 187.413 165.984 186.706 165.938L186.466 164.701C187.106 164.787 187.686 164.83 188.206 164.83C188.511 164.83 188.714 164.787 188.815 164.701C188.917 164.615 188.997 164.389 189.056 164.021C189.2 163.15 189.288 161.938 189.319 160.383H186.929ZM202.396 163.324C201.482 164.457 200.084 165.365 198.201 166.049L197.457 164.965C199.703 164.285 201.17 163.211 201.857 161.742C202.506 160.352 202.83 158.211 202.83 155.32V155.139H204.143V155.297C204.143 157.277 204.025 158.863 203.791 160.055C203.635 160.875 203.396 161.613 203.076 162.27C204.334 163.164 205.266 163.963 205.871 164.666L204.934 165.82C204.273 164.996 203.461 164.191 202.496 163.406C202.461 163.379 202.428 163.352 202.396 163.324ZM196.877 162.715C197.955 162.223 198.973 161.652 199.93 161.004L200.275 162.07C198.697 163.199 196.881 164.168 194.826 164.977L194.229 163.811C194.725 163.631 195.184 163.455 195.605 163.283L195.465 155.508H196.771L196.877 162.715ZM200.24 159.539C199.518 158.461 198.773 157.561 198.008 156.838L198.992 156.012C199.953 156.914 200.725 157.801 201.307 158.672L200.24 159.539ZM212.269 156.697V154.74H213.575V156.697H218.075V164.854C218.075 165.314 217.95 165.637 217.7 165.82C217.497 165.973 217.144 166.049 216.64 166.049C215.776 166.049 215.064 166.027 214.501 165.984L214.261 164.736C215.136 164.791 215.866 164.818 216.452 164.818C216.608 164.818 216.7 164.781 216.728 164.707C216.747 164.66 216.757 164.586 216.757 164.484V157.898H213.569L213.564 157.986C213.544 158.303 213.505 158.627 213.446 158.959C214.606 159.908 215.642 160.979 216.552 162.17L215.556 163.096C214.907 162.154 214.093 161.176 213.112 160.16C212.608 161.484 211.595 162.59 210.071 163.477L209.298 162.445C210.208 161.922 210.88 161.363 211.314 160.77C211.884 159.988 212.198 159.031 212.257 157.898H209.181V166.143H207.862V156.697H212.269Z" fill="#DC6B34"/>
<path d="M3.91738 159.144C3.21338 159.144 2.62671 159.011 2.15738 158.744C1.68804 158.477 1.33604 158.093 1.10138 157.592C0.866708 157.091 0.749375 156.499 0.749375 155.816V155.384H2.44538C2.44538 155.427 2.44538 155.475 2.44538 155.528C2.44538 155.571 2.44538 155.619 2.44538 155.672C2.45604 156.056 2.49871 156.403 2.57338 156.712C2.65871 157.021 2.80271 157.267 3.00538 157.448C3.21871 157.629 3.52271 157.72 3.91738 157.72C4.33338 157.72 4.64804 157.624 4.86138 157.432C5.07471 157.229 5.21871 156.947 5.29338 156.584C5.36804 156.221 5.40538 155.805 5.40538 155.336C5.40538 154.653 5.27738 154.099 5.02138 153.672C4.77604 153.235 4.33871 152.995 3.70938 152.952C3.67738 152.941 3.63471 152.936 3.58138 152.936C3.53871 152.936 3.50138 152.936 3.46938 152.936V151.224C3.50138 151.224 3.53871 151.224 3.58138 151.224C3.62404 151.224 3.66138 151.224 3.69338 151.224C4.30138 151.203 4.73871 151.043 5.00538 150.744C5.27204 150.445 5.40538 149.949 5.40538 149.256C5.40538 148.669 5.30404 148.2 5.10138 147.848C4.90938 147.496 4.52004 147.32 3.93338 147.32C3.34671 147.32 2.95738 147.517 2.76538 147.912C2.57338 148.296 2.46671 148.792 2.44538 149.4C2.44538 149.443 2.44538 149.491 2.44538 149.544C2.44538 149.587 2.44538 149.629 2.44538 149.672H0.749375V149.24C0.749375 148.547 0.866708 147.955 1.10138 147.464C1.33604 146.973 1.68804 146.595 2.15738 146.328C2.63738 146.061 3.22938 145.928 3.93338 145.928C4.64804 145.928 5.24004 146.061 5.70938 146.328C6.17871 146.595 6.53071 146.979 6.76538 147.48C7.00004 147.971 7.11738 148.563 7.11738 149.256C7.11738 150.035 6.94671 150.659 6.60538 151.128C6.27471 151.597 5.82671 151.917 5.26138 152.088C5.65604 152.205 5.98671 152.408 6.25338 152.696C6.53071 152.984 6.74404 153.352 6.89338 153.8C7.04271 154.237 7.11738 154.749 7.11738 155.336C7.11738 156.104 7.01071 156.776 6.79738 157.352C6.58404 157.917 6.24271 158.36 5.77338 158.68C5.30404 158.989 4.68538 159.144 3.91738 159.144ZM11.8784 159.144C11.1424 159.144 10.5344 158.979 10.0544 158.648C9.58504 158.317 9.23304 157.864 8.99838 157.288C8.77438 156.712 8.66238 156.056 8.66238 155.32V149.736C8.66238 148.979 8.77438 148.317 8.99838 147.752C9.22238 147.176 9.56904 146.728 10.0384 146.408C10.5184 146.088 11.1317 145.928 11.8784 145.928C12.625 145.928 13.233 146.088 13.7024 146.408C14.1717 146.728 14.5184 147.176 14.7424 147.752C14.9664 148.317 15.0784 148.979 15.0784 149.736V155.32C15.0784 156.067 14.961 156.728 14.7264 157.304C14.5024 157.88 14.1557 158.333 13.6864 158.664C13.217 158.984 12.6144 159.144 11.8784 159.144ZM11.8784 157.736C12.2837 157.736 12.5877 157.619 12.7904 157.384C13.0037 157.149 13.1477 156.851 13.2224 156.488C13.3077 156.115 13.3504 155.731 13.3504 155.336V149.72C13.3504 149.304 13.313 148.915 13.2384 148.552C13.1637 148.179 13.0197 147.88 12.8064 147.656C12.6037 147.432 12.2944 147.32 11.8784 147.32C11.4624 147.32 11.1477 147.432 10.9344 147.656C10.721 147.88 10.577 148.179 10.5024 148.552C10.4277 148.915 10.3904 149.304 10.3904 149.72V155.336C10.3904 155.731 10.4277 156.115 10.5024 156.488C10.5877 156.851 10.737 157.149 10.9504 157.384C11.1744 157.619 11.4837 157.736 11.8784 157.736Z" fill="#2861D4"/>
<path d="M22.9287 152.383C22.8076 153.656 22.5322 154.68 22.1025 155.453C21.458 156.621 20.3505 157.518 18.7802 158.143L17.9541 157.047C19.0361 156.727 19.8916 156.182 20.5205 155.412C21.1025 154.701 21.458 153.691 21.5869 152.383H19.5361V151.539C19.1064 151.98 18.6259 152.398 18.0947 152.793L17.2568 151.779C18.9677 150.6 20.1845 148.951 20.9072 146.834L22.1552 147.279C21.624 148.756 20.8525 150.068 19.8408 151.217H26.5088C25.3408 150.111 24.3681 148.779 23.5908 147.221L24.7802 146.74C25.7568 148.732 27.1084 150.256 28.8349 151.311L28.0556 152.465C27.5322 152.094 27.0752 151.732 26.6845 151.381L26.6787 151.621C26.6318 153.648 26.5302 155.268 26.374 156.479C26.292 157.119 26.1084 157.539 25.8232 157.738C25.5693 157.918 25.124 158.008 24.4873 158.008C24.0068 158.008 23.413 157.984 22.706 157.938L22.4658 156.701C23.1064 156.787 23.6865 156.83 24.206 156.83C24.5107 156.83 24.7138 156.787 24.8154 156.701C24.917 156.615 24.997 156.389 25.0556 156.021C25.2002 155.15 25.288 153.938 25.3193 152.383H22.9287ZM38.3965 155.324C37.4824 156.457 36.084 157.365 34.2012 158.049L33.457 156.965C35.7031 156.285 37.1699 155.211 37.8574 153.742C38.5059 152.352 38.8301 150.211 38.8301 147.32V147.139H40.1426V147.297C40.1426 149.277 40.0254 150.863 39.791 152.055C39.6348 152.875 39.3965 153.613 39.0762 154.27C40.334 155.164 41.2656 155.963 41.8711 156.666L40.9336 157.82C40.2734 156.996 39.4609 156.191 38.4961 155.406C38.4609 155.379 38.4277 155.352 38.3965 155.324ZM32.877 154.715C33.9551 154.223 34.9727 153.652 35.9297 153.004L36.2754 154.07C34.6973 155.199 32.8809 156.168 30.8262 156.977L30.2285 155.811C30.7246 155.631 31.1836 155.455 31.6055 155.283L31.4648 147.508H32.7715L32.877 154.715ZM36.2402 151.539C35.5176 150.461 34.7734 149.561 34.0078 148.838L34.9922 148.012C35.9531 148.914 36.7246 149.801 37.3066 150.672L36.2402 151.539ZM48.2686 148.697V146.74H49.5752V148.697H54.0752V156.854C54.0752 157.314 53.9502 157.637 53.7002 157.82C53.4971 157.973 53.1436 158.049 52.6397 158.049C51.7764 158.049 51.0635 158.027 50.501 157.984L50.2608 156.736C51.1358 156.791 51.8663 156.818 52.4522 156.818C52.6084 156.818 52.7002 156.781 52.7276 156.707C52.7471 156.66 52.7569 156.586 52.7569 156.484V149.898H49.5694L49.5635 149.986C49.544 150.303 49.5049 150.627 49.4463 150.959C50.6065 151.908 51.6416 152.979 52.5518 154.17L51.5557 155.096C50.9073 154.154 50.0928 153.176 49.1123 152.16C48.6084 153.484 47.5948 154.59 46.0713 155.477L45.2979 154.445C46.208 153.922 46.8799 153.363 47.3135 152.77C47.8838 151.988 48.1983 151.031 48.2569 149.898H45.1807V158.143H43.8623V148.697H48.2686Z" fill="#2861D4"/>
<path d="M4.4 51V47.528H0.64V45.736L4.016 38.04H6.032V46.008H7.488V47.528H6.032V51H4.4ZM2.288 46.008H4.4V40.12L2.288 46.008ZM11.8784 51.144C11.1424 51.144 10.5344 50.9787 10.0544 50.648C9.58504 50.3173 9.23304 49.864 8.99838 49.288C8.77438 48.712 8.66238 48.056 8.66238 47.32V41.736C8.66238 40.9787 8.77438 40.3173 8.99838 39.752C9.22238 39.176 9.56904 38.728 10.0384 38.408C10.5184 38.088 11.1317 37.928 11.8784 37.928C12.625 37.928 13.233 38.088 13.7024 38.408C14.1717 38.728 14.5184 39.176 14.7424 39.752C14.9664 40.3173 15.0784 40.9787 15.0784 41.736V47.32C15.0784 48.0667 14.961 48.728 14.7264 49.304C14.5024 49.88 14.1557 50.3333 13.6864 50.664C13.217 50.984 12.6144 51.144 11.8784 51.144ZM11.8784 49.736C12.2837 49.736 12.5877 49.6187 12.7904 49.384C13.0037 49.1493 13.1477 48.8507 13.2224 48.488C13.3077 48.1147 13.3504 47.7307 13.3504 47.336V41.72C13.3504 41.304 13.313 40.9147 13.2384 40.552C13.1637 40.1787 13.0197 39.88 12.8064 39.656C12.6037 39.432 12.2944 39.32 11.8784 39.32C11.4624 39.32 11.1477 39.432 10.9344 39.656C10.721 39.88 10.577 40.1787 10.5024 40.552C10.4277 40.9147 10.3904 41.304 10.3904 41.72V47.336C10.3904 47.7307 10.4277 48.1147 10.5024 48.488C10.5877 48.8507 10.737 49.1493 10.9504 49.384C11.1744 49.6187 11.4837 49.736 11.8784 49.736Z" fill="#319CCF"/>
<path d="M22.9287 44.3828C22.8076 45.6562 22.5322 46.6797 22.1025 47.4531C21.458 48.6211 20.3505 49.5176 18.7802 50.1426L17.9541 49.0469C19.0361 48.7266 19.8916 48.1816 20.5205 47.4121C21.1025 46.7012 21.458 45.6914 21.5869 44.3828H19.5361V43.5391C19.1064 43.9805 18.6259 44.3984 18.0947 44.793L17.2568 43.7793C18.9677 42.5996 20.1845 40.9512 20.9072 38.834L22.1552 39.2793C21.624 40.7559 20.8525 42.0684 19.8408 43.2168H26.5088C25.3408 42.1113 24.3681 40.7793 23.5908 39.2207L24.7802 38.7402C25.7568 40.7324 27.1084 42.2559 28.8349 43.3105L28.0556 44.4648C27.5322 44.0938 27.0752 43.7324 26.6845 43.3809L26.6787 43.6211C26.6318 45.6484 26.5302 47.2676 26.374 48.4785C26.292 49.1191 26.1084 49.5391 25.8232 49.7383C25.5693 49.918 25.124 50.0078 24.4873 50.0078C24.0068 50.0078 23.413 49.9844 22.706 49.9375L22.4658 48.7012C23.1064 48.7871 23.6865 48.8301 24.206 48.8301C24.5107 48.8301 24.7138 48.7871 24.8154 48.7012C24.917 48.6152 24.997 48.3887 25.0556 48.0215C25.2002 47.1504 25.288 45.9375 25.3193 44.3828H22.9287ZM38.3965 47.3242C37.4824 48.457 36.084 49.3652 34.2012 50.0488L33.457 48.9648C35.7031 48.2852 37.1699 47.2109 37.8574 45.7422C38.5059 44.3516 38.8301 42.2109 38.8301 39.3203V39.1387H40.1426V39.2969C40.1426 41.2773 40.0254 42.8633 39.791 44.0547C39.6348 44.875 39.3965 45.6133 39.0762 46.2695C40.334 47.1641 41.2656 47.9629 41.8711 48.666L40.9336 49.8203C40.2734 48.9961 39.4609 48.1914 38.4961 47.4062C38.4609 47.3789 38.4277 47.3516 38.3965 47.3242ZM32.877 46.7148C33.9551 46.2227 34.9727 45.6523 35.9297 45.0039L36.2754 46.0703C34.6973 47.1992 32.8809 48.168 30.8262 48.9766L30.2285 47.8105C30.7246 47.6309 31.1836 47.4551 31.6055 47.2832L31.4648 39.5078H32.7715L32.877 46.7148ZM36.2402 43.5391C35.5176 42.4609 34.7734 41.5605 34.0078 40.8379L34.9922 40.0117C35.9531 40.9141 36.7246 41.8008 37.3066 42.6719L36.2402 43.5391ZM48.2686 40.6973V38.7402H49.5752V40.6973H54.0752V48.8535C54.0752 49.3145 53.9502 49.6367 53.7002 49.8203C53.4971 49.9727 53.1436 50.0488 52.6397 50.0488C51.7764 50.0488 51.0635 50.0273 50.501 49.9844L50.2608 48.7363C51.1358 48.791 51.8663 48.8184 52.4522 48.8184C52.6084 48.8184 52.7002 48.7812 52.7276 48.707C52.7471 48.6602 52.7569 48.5859 52.7569 48.4844V41.8984H49.5694L49.5635 41.9863C49.544 42.3027 49.5049 42.627 49.4463 42.959C50.6065 43.9082 51.6416 44.9785 52.5518 46.1699L51.5557 47.0957C50.9073 46.1543 50.0928 45.1758 49.1123 44.1602C48.6084 45.4844 47.5948 46.5898 46.0713 47.4766L45.2979 46.4453C46.208 45.9219 46.8799 45.3633 47.3135 44.7695C47.8838 43.9883 48.1983 43.0312 48.2569 41.8984H45.1807V50.1426H43.8623V40.6973H48.2686Z" fill="#319CCF"/>
<path d="M64.4 15V11.528H60.64V9.736L64.016 2.04H66.032V10.008H67.488V11.528H66.032V15H64.4ZM62.288 10.008H64.4V4.12L62.288 10.008ZM71.8784 15.144C71.1424 15.144 70.5344 14.9787 70.0544 14.648C69.585 14.3173 69.233 13.864 68.9984 13.288C68.7744 12.712 68.6624 12.056 68.6624 11.32V5.736C68.6624 4.97867 68.7744 4.31733 68.9984 3.752C69.2224 3.176 69.569 2.728 70.0384 2.408C70.5184 2.088 71.1317 1.928 71.8784 1.928C72.625 1.928 73.233 2.088 73.7024 2.408C74.1717 2.728 74.5184 3.176 74.7424 3.752C74.9664 4.31733 75.0784 4.97867 75.0784 5.736V11.32C75.0784 12.0667 74.961 12.728 74.7264 13.304C74.5024 13.88 74.1557 14.3333 73.6864 14.664C73.217 14.984 72.6144 15.144 71.8784 15.144ZM71.8784 13.736C72.2837 13.736 72.5877 13.6187 72.7904 13.384C73.0037 13.1493 73.1477 12.8507 73.2224 12.488C73.3077 12.1147 73.3504 11.7307 73.3504 11.336V5.72C73.3504 5.304 73.313 4.91467 73.2384 4.552C73.1637 4.17867 73.0197 3.88 72.8064 3.656C72.6037 3.432 72.2944 3.32 71.8784 3.32C71.4624 3.32 71.1477 3.432 70.9344 3.656C70.721 3.88 70.577 4.17867 70.5024 4.552C70.4277 4.91467 70.3904 5.304 70.3904 5.72V11.336C70.3904 11.7307 70.4277 12.1147 70.5024 12.488C70.5877 12.8507 70.737 13.1493 70.9504 13.384C71.1744 13.6187 71.4837 13.736 71.8784 13.736Z" fill="#4ECD2C"/>
<path d="M82.9287 8.38281C82.8076 9.65625 82.5322 10.6797 82.1025 11.4531C81.458 12.6211 80.3505 13.5176 78.7802 14.1426L77.9541 13.0469C79.0361 12.7266 79.8916 12.1816 80.5205 11.4121C81.1025 10.7012 81.458 9.69141 81.5869 8.38281H79.5361V7.53906C79.1064 7.98047 78.6259 8.39844 78.0947 8.79297L77.2568 7.7793C78.9677 6.59961 80.1845 4.95117 80.9072 2.83398L82.1552 3.2793C81.624 4.75586 80.8525 6.06836 79.8408 7.2168H86.5088C85.3408 6.11133 84.3681 4.7793 83.5908 3.2207L84.7802 2.74023C85.7568 4.73242 87.1084 6.25586 88.8349 7.31055L88.0556 8.46484C87.5322 8.09375 87.0752 7.73242 86.6845 7.38086L86.6787 7.62109C86.6318 9.64844 86.5302 11.2676 86.374 12.4785C86.292 13.1191 86.1084 13.5391 85.8232 13.7383C85.5693 13.918 85.124 14.0078 84.4873 14.0078C84.0068 14.0078 83.413 13.9844 82.706 13.9375L82.4658 12.7012C83.1064 12.7871 83.6865 12.8301 84.206 12.8301C84.5107 12.8301 84.7138 12.7871 84.8154 12.7012C84.917 12.6152 84.997 12.3887 85.0556 12.0215C85.2002 11.1504 85.288 9.9375 85.3193 8.38281H82.9287ZM98.3965 11.3242C97.4824 12.457 96.084 13.3652 94.2012 14.0488L93.457 12.9648C95.7031 12.2852 97.1699 11.2109 97.8574 9.74219C98.5059 8.35156 98.8301 6.21094 98.8301 3.32031V3.13867H100.143V3.29688C100.143 5.27734 100.025 6.86328 99.791 8.05469C99.6348 8.875 99.3965 9.61328 99.0762 10.2695C100.334 11.1641 101.266 11.9629 101.871 12.666L100.934 13.8203C100.273 12.9961 99.4609 12.1914 98.4961 11.4062C98.4609 11.3789 98.4277 11.3516 98.3965 11.3242ZM92.877 10.7148C93.9551 10.2227 94.9727 9.65234 95.9297 9.00391L96.2754 10.0703C94.6973 11.1992 92.8809 12.168 90.8262 12.9766L90.2285 11.8105C90.7246 11.6309 91.1836 11.4551 91.6055 11.2832L91.4648 3.50781H92.7715L92.877 10.7148ZM96.2402 7.53906C95.5176 6.46094 94.7734 5.56055 94.0078 4.83789L94.9922 4.01172C95.9531 4.91406 96.7246 5.80078 97.3066 6.67188L96.2402 7.53906ZM109.312 6.08594H113.542V7.28711H109.312V12.1855H114.661V13.4102H103.259V12.1855H107.894V2.74023H109.312V6.08594Z" fill="#4ECD2C"/>
</svg>
