<svg width="72" height="79" viewBox="0 0 72 79" fill="none" xmlns="http://www.w3.org/2000/svg">
<path fill-rule="evenodd" clip-rule="evenodd" d="M39.2996 71.8508C57.6353 70.1847 72 54.7699 72 36C72 16.1177 55.8823 0 36 0C16.1177 0 0 16.1177 0 36C0 54.7699 14.3647 70.1847 32.7004 71.8508L36 79L39.2996 71.8508Z" fill="#12929D"/>
<circle cx="36" cy="36" r="32" fill="white"/>
<path d="M11.5281 26.4512H19.1795L19.8094 26.9834C19.6271 27.6637 19.3895 28.2318 19.0965 28.6875C18.5464 29.5501 17.7228 30.1947 16.6258 30.6211L16.0105 29.7812C16.769 29.5534 17.3989 29.1449 17.9002 28.5557C18.1964 28.2074 18.4031 27.8395 18.5203 27.4521H11.5281V26.4512ZM14.658 28.5605H15.7762V29.4004C15.7762 30.6602 15.6362 31.6335 15.3563 32.3203C15.0014 33.1927 14.3113 33.9023 13.2859 34.4492L12.4803 33.5996C13.1867 33.2643 13.7026 32.8639 14.0281 32.3984C14.2788 32.0371 14.4432 31.6546 14.5213 31.251C14.6124 30.7887 14.658 30.1686 14.658 29.3906V28.5605ZM23.0658 26.2119H24.1645V27.9893C24.1645 29.6917 24.0375 30.9352 23.7836 31.7197C23.4483 32.7581 22.7452 33.624 21.6742 34.3174L20.9271 33.4482C21.6693 32.9274 22.1918 32.387 22.4945 31.8271C22.7484 31.3551 22.9161 30.722 22.9975 29.9277C23.043 29.4785 23.0658 28.8389 23.0658 28.0088V26.2119ZM25.5658 25.9287H26.6645V32.8672C27.3122 32.5319 27.8803 32.055 28.3686 31.4365C28.9024 30.7594 29.3012 29.957 29.5648 29.0293L30.4242 29.8594C30.0987 30.8262 29.6527 31.6514 29.0863 32.335C28.3734 33.1976 27.4392 33.8763 26.2836 34.3711L25.5658 33.751V25.9287ZM38.6807 28.2285C36.6657 27.6556 34.6149 27.1966 32.5283 26.8516L32.6992 25.8115C34.877 26.1403 36.9212 26.5895 38.832 27.1592L38.6807 28.2285ZM38.1484 31.0996C36.4688 30.556 34.6426 30.1133 32.6699 29.7715L32.8506 28.7021C34.8558 29.0374 36.6755 29.4801 38.3096 30.0303L38.1484 31.0996ZM38.8809 34.5908C36.2441 33.7835 33.8239 33.1439 31.6201 32.6719L31.8398 31.5586C34.5938 32.151 37.001 32.7923 39.0615 33.4824L38.8809 34.5908ZM43.7828 28.8096C43.7535 29.9684 43.6689 30.8783 43.5289 31.5391C43.4313 31.998 43.2896 32.4147 43.1041 32.7891C43.4622 33.0983 43.9179 33.3408 44.4713 33.5166C45.0084 33.6859 45.5895 33.7705 46.2145 33.7705H50.3746C50.2574 34.0114 50.1467 34.3385 50.0426 34.752H46.1949C44.6715 34.752 43.4768 34.3776 42.6109 33.6289C42.2203 34.1628 41.7841 34.5908 41.3023 34.9131L40.6432 34.1221C41.1803 33.7868 41.6116 33.3734 41.9371 32.8818C41.5172 32.3317 41.1494 31.6921 40.8336 30.9629L41.6441 30.46C41.8069 30.9124 42.0641 31.4137 42.4156 31.9639C42.5979 31.4951 42.7298 30.7611 42.8111 29.7617H40.9947C41.4993 28.9251 41.9485 27.9616 42.3424 26.8711H40.7652V25.8896H43.2115L43.6119 26.2705C43.2538 27.2503 42.9055 28.0967 42.567 28.8096H43.7828ZM47.2447 29.791V30.3916H49.652V31.1436H47.2447V31.7686H49.9693V32.5596H47.2447V33.541H46.2145V32.5596H43.9049V31.7686H46.2145V31.1436H44.0514V30.3916H46.2145V29.791H44.2418V29.0293H46.2145V28.4092H43.651V27.6377H46.2145V27.0615H44.2418V26.2998H46.2145V25.4502H47.2447V26.2998H49.3834V27.6084H50.1891V28.4287H49.3834V29.791H47.2447ZM47.2447 29.0293H48.441V28.4092H47.2447V29.0293ZM47.2447 27.6377H48.441V27.0615H47.2447V27.6377ZM52.8547 30.4502C52.5357 31.3682 52.119 32.2357 51.6047 33.0527L51.0041 32.0029C51.7984 30.958 52.3827 29.7975 52.757 28.5215H51.1848V27.5498H52.8547V25.4502H53.9143V27.5498H55.0324V28.5215H53.9143V29.2881C54.5848 29.8089 55.1301 30.307 55.55 30.7822L54.9445 31.6807C54.6353 31.2477 54.2919 30.8343 53.9143 30.4404V34.9521H52.8547V30.4502ZM58.1721 29.6445C57.4624 31.0866 56.4598 32.2943 55.1643 33.2676L54.4611 32.5107C55.8479 31.5374 56.94 30.2077 57.7375 28.5215H55.384V27.5498H58.1721V25.4502H59.2121V27.5498H60.6037V28.5215H59.2121V33.8779C59.2121 34.2295 59.1421 34.4736 59.0021 34.6104C58.8557 34.7568 58.5627 34.8301 58.1232 34.8301C57.635 34.8301 57.1711 34.8073 56.7316 34.7617L56.5412 33.7412C57.0002 33.7868 57.4169 33.8096 57.7912 33.8096C57.9637 33.8096 58.0695 33.7884 58.1086 33.7461C58.1509 33.7038 58.1721 33.611 58.1721 33.4678V29.6445ZM18.4078 40.3691C19.1565 40.8281 20.0761 41.458 21.1666 42.2588L21.357 42.4004C22.1318 41.248 22.7454 40.055 23.1979 38.8213L24.2672 39.3193C23.7398 40.5824 23.0725 41.8389 22.2652 43.0889C23.219 43.792 24.1093 44.5684 24.9361 45.418L24.1646 46.3018C23.6536 45.7419 22.8609 45.0176 21.7867 44.1289L21.6061 43.9824C20.3854 45.4603 18.9482 46.6761 17.2945 47.6299L16.5865 46.6582C18.0514 45.9062 19.4283 44.7767 20.7174 43.2695C19.7831 42.5859 18.8098 41.9154 17.7975 41.2578L18.4078 40.3691ZM26.6008 42.4785H35.1994V43.5771H26.6008V42.4785ZM36.8836 40.6377H39.8621C39.8881 39.915 39.9012 39.2689 39.9012 38.6992H41.034C41.0275 39.4414 41.0096 40.0876 40.9803 40.6377H44.574C44.5545 42.9456 44.4601 44.7148 44.2908 45.9453C44.2159 46.5052 44.0646 46.8893 43.8367 47.0977C43.5991 47.3125 43.1906 47.4199 42.6111 47.4199C42.1912 47.4199 41.7452 47.3857 41.2732 47.3174L41.0926 46.2188C41.6557 46.3197 42.1163 46.3701 42.4744 46.3701C42.7218 46.3701 42.8829 46.3327 42.9578 46.2578C43.0424 46.1764 43.1124 45.9225 43.1678 45.4961C43.3273 44.2331 43.4119 42.9473 43.4217 41.6387H40.9314C40.8077 42.9798 40.5229 44.054 40.077 44.8613C39.4975 45.9062 38.6268 46.7591 37.4646 47.4199L36.7225 46.5508C37.4516 46.1504 38.0734 45.6475 38.5877 45.042C38.9751 44.5863 39.2615 44.0703 39.4471 43.4941C39.6261 42.9505 39.7482 42.332 39.8133 41.6387H36.8836V40.6377ZM46.6 42.4785H55.1986V43.5771H46.6V42.4785Z" fill="#12929D"/>
</svg>
