<svg width="72" height="79" viewBox="0 0 72 79" fill="none" xmlns="http://www.w3.org/2000/svg">
<path fill-rule="evenodd" clip-rule="evenodd" d="M39.2996 71.8508C57.6353 70.1847 72 54.7699 72 36C72 16.1177 55.8823 0 36 0C16.1177 0 0 16.1177 0 36C0 54.7699 14.3647 70.1847 32.7004 71.8508L36 79L39.2996 71.8508Z" fill="#12929D"/>
<circle cx="36" cy="36" r="32" fill="white"/>
<path d="M16.5593 33.9922V30.8457H17.9128V33.9922H22.237V35.2051H17.9128V40.1328H22.9812V41.3574H11.5788V40.1328H16.5593V35.2051H12.323V33.9922H16.5593ZM30.633 34.2676C31.0862 35.0645 31.6702 35.8574 32.385 36.6465C33.2991 37.6621 34.3401 38.541 35.508 39.2832L34.6116 40.4609C32.885 39.1484 31.4788 37.5957 30.3928 35.8027V42.1426H29.051V35.9316C27.9963 37.8574 26.6155 39.4512 24.9084 40.7129L24.012 39.6582C24.7698 39.1504 25.4768 38.5625 26.133 37.8945C27.2424 36.7734 28.1428 35.5645 28.8342 34.2676H24.3577V33.0547H29.051V30.7402H30.3928V33.0547H35.1741V34.2676H30.633ZM42.8845 33.2598V39.7988H47.9412V41.0352H36.5388V39.7988H41.5193V33.2598H37.2244V32.0586H47.2673V33.2598H42.8845ZM54.0462 33.1016V32.5391H49.3059V31.5781H54.0462V30.7402H55.3177V31.5781H60.1341V32.5391H55.3177V33.1016H59.1966V35.5156H55.3177V36.1016H59.472V37.6484H60.4446V38.5742H59.472V40.6777H58.2005V40.1855H55.3177V41.0703C55.3177 41.4336 55.2532 41.6934 55.1243 41.8496C54.9602 42.0449 54.6165 42.1426 54.093 42.1426C53.4993 42.1426 52.9524 42.1133 52.4524 42.0547L52.2473 41.0117C52.7981 41.0742 53.3118 41.1055 53.7884 41.1055C53.9134 41.1055 53.9895 41.0781 54.0169 41.0234C54.0364 40.9844 54.0462 40.9258 54.0462 40.8477V40.1855H49.9329V39.2715H54.0462V38.5742H48.9954V37.6484H54.0462V36.9805H49.9446V36.1016H54.0462V35.5156H50.2434V33.1016H54.0462ZM54.0462 33.9043H51.468V34.7129H54.0462V33.9043ZM55.3177 33.9043V34.7129H57.972V33.9043H55.3177ZM55.3177 39.2715H58.2005V38.5742H55.3177V39.2715ZM55.3177 37.6484H58.2005V36.9805H55.3177V37.6484Z" fill="#12929D"/>
</svg>
