<svg width="72" height="79" viewBox="0 0 72 79" fill="none" xmlns="http://www.w3.org/2000/svg">
<path fill-rule="evenodd" clip-rule="evenodd" d="M39.2996 71.8508C57.6353 70.1847 72 54.7699 72 36C72 16.1177 55.8823 0 36 0C16.1177 0 0 16.1177 0 36C0 54.7699 14.3647 70.1847 32.7004 71.8508L36 79L39.2996 71.8508Z" fill="#12929D"/>
<circle cx="36" cy="36" r="32" fill="white"/>
<path d="M31.8176 24.4502V26.8477C31.8176 28.2669 32.3042 29.5951 33.2775 30.832C33.9416 31.6784 34.8579 32.3685 36.0266 32.9023L35.2893 33.9082C33.271 32.8438 31.9608 31.3789 31.3586 29.5137C31.0949 30.5814 30.6929 31.4424 30.1525 32.0967C29.521 32.8584 28.5998 33.4655 27.3889 33.918L26.6711 32.9902C28.0415 32.5345 29.0344 31.8411 29.6496 30.9102C30.0337 30.3275 30.3186 29.6195 30.5041 28.7861C30.6408 28.1774 30.7092 27.5589 30.7092 26.9307V24.4502H31.8176ZM27.052 29.3184C27.5826 28.5143 27.9683 27.4889 28.2092 26.2422L29.3225 26.4521C29.062 27.8389 28.6454 29.0075 28.0725 29.958L27.052 29.3184ZM32.9016 28.9814C33.5233 28.1025 34.0702 27.0755 34.5422 25.9004L35.6506 26.3887C35.1167 27.5443 34.5275 28.5745 33.883 29.4795L32.9016 28.9814ZM44.7225 27.4922H41.9148C41.8009 28.8789 41.4868 30.0589 40.9725 31.0322C40.4028 32.1162 39.4051 33.0456 37.9793 33.8203L37.1883 32.9219C38.3341 32.3717 39.2228 31.5921 39.8543 30.583C40.3165 29.8376 40.6209 28.8073 40.7674 27.4922H37.4568V26.4912H40.865L40.948 24.4502H42.076L41.9832 26.4912H45.865L45.8553 27.2529C45.8032 30.0915 45.6795 31.9176 45.4842 32.7314C45.3898 33.1221 45.2026 33.3955 44.9227 33.5518C44.7013 33.6787 44.3986 33.7422 44.0145 33.7422C43.4318 33.7422 42.81 33.695 42.1492 33.6006L41.9393 32.4629C42.6326 32.5898 43.2055 32.6533 43.658 32.6533C44.0291 32.6533 44.2586 32.5508 44.3465 32.3457C44.4018 32.209 44.4637 31.8151 44.532 31.1641C44.6232 30.2689 44.6867 29.0449 44.7225 27.4922ZM28.4682 39.7793C28.9076 39.4115 29.334 38.9769 29.7475 38.4756L30.5482 39.0957C30.1967 39.4863 29.7686 39.8721 29.2641 40.2529C29.6938 40.4775 30.2292 40.7087 30.8705 40.9463L30.3383 41.8057C29.7523 41.5778 29.2185 41.3223 28.7367 41.0391V41.5469H27.8285V42.8604H30.6508V43.8027H27.8285V45.4385C27.8285 45.611 27.866 45.7135 27.9408 45.7461C28.0417 45.7884 28.2501 45.8096 28.5658 45.8096C28.9109 45.8096 29.1469 45.7884 29.2738 45.7461C29.4008 45.707 29.4822 45.598 29.518 45.4189C29.5635 45.1976 29.588 44.8786 29.5912 44.4619L30.6605 44.7793C30.6247 45.6452 30.5303 46.1888 30.3773 46.4102C30.2439 46.6022 30.0355 46.7178 29.7523 46.7568C29.4659 46.7959 29.002 46.8154 28.3607 46.8154C27.7553 46.8154 27.3646 46.778 27.1889 46.7031C26.9024 46.5827 26.7592 46.3109 26.7592 45.8877V43.8027H25.2211C25.1462 44.6458 24.8695 45.305 24.391 45.7803C23.8637 46.3076 23.0857 46.7048 22.057 46.9717L21.4271 46.0391C22.3484 45.847 23.0271 45.5638 23.4633 45.1895C23.7009 44.9811 23.8734 44.7272 23.9809 44.4277C24.0395 44.2715 24.0883 44.0632 24.1273 43.8027H21.559V42.8604H24.1762V41.5469H23.4145V41.1416C22.8415 41.4997 22.2556 41.7878 21.6566 42.0059L21.1684 41.1855C21.8747 40.9447 22.5355 40.6338 23.1508 40.2529C22.796 39.9144 22.3956 39.5954 21.9496 39.2959L22.6576 38.5977C23.1622 38.9492 23.5919 39.304 23.9467 39.6621C24.3308 39.3333 24.6579 38.9883 24.9281 38.627H23.1654V37.709H26.5199C26.7868 38.1517 27.0603 38.5244 27.3402 38.8271C27.7211 38.4886 28.1199 38.0752 28.5365 37.5869L29.3275 38.207C28.9337 38.6335 28.4877 39.0404 27.9896 39.4277C28.1687 39.5677 28.3282 39.6849 28.4682 39.7793ZM26.7592 41.5469H25.2553V42.8604H26.7592V41.5469ZM24.1371 40.6484H28.1166C27.3061 40.1048 26.6062 39.4782 26.017 38.7686C25.5482 39.4359 24.9216 40.0625 24.1371 40.6484ZM35.9482 38.8418V38.4023H32.9014V37.6699H40.0986V38.4023H36.9883V38.8418H41.0703V40.8682H40.0303V39.5205H36.9883V41.6494H35.9482V39.5205H32.9697V40.8682H31.9297V38.8418H35.9482ZM36.9395 45.3994V45.6777C36.9395 45.834 36.9818 45.93 37.0664 45.9658C37.1934 46.0212 37.6572 46.0488 38.458 46.0488C39.21 46.0488 39.7031 46.0293 39.9375 45.9902C40.1263 45.9577 40.2386 45.8356 40.2744 45.624C40.3037 45.4482 40.3249 45.2204 40.3379 44.9404L41.3193 45.248C41.2965 45.873 41.2038 46.293 41.041 46.5078C40.9173 46.6706 40.7041 46.7699 40.4014 46.8057C39.9001 46.8708 39.1758 46.9033 38.2285 46.9033C37.2357 46.9033 36.6188 46.8708 36.3779 46.8057C36.1566 46.7471 36.0166 46.6283 35.958 46.4492C35.9255 46.3516 35.9092 46.2246 35.9092 46.0684V45.3994H33.8486V45.8682H32.8184V41.918H40.0791V45.3994H36.9395ZM35.9092 42.6162H33.8486V43.2803H35.9092V42.6162ZM36.9395 42.6162V43.2803H39.0391V42.6162H36.9395ZM35.9092 43.9883H33.8486V44.6816H35.9092V43.9883ZM36.9395 43.9883V44.6816H39.0391V43.9883H36.9395ZM33.4678 39.9111H35.4795V40.4922H33.4678V39.9111ZM33.4678 40.8779H35.4795V41.459H33.4678V40.8779ZM37.4619 39.9111H39.5273V40.4922H37.4619V39.9111ZM37.4619 40.8779H39.5273V41.459H37.4619V40.8779ZM48.1451 41.6494C48.1386 42.5999 48.0702 43.4333 47.94 44.1494C47.8033 44.8981 47.5787 45.5508 47.2662 46.1074C47.1197 46.3743 46.9212 46.6624 46.6705 46.9717L45.8697 46.2197C46.4329 45.5068 46.7958 44.6165 46.9586 43.5488C47.0595 42.8848 47.11 42.0677 47.11 41.0977V38.1875L47.3297 38.1631C48.6253 38.0231 49.7402 37.7822 50.6744 37.4404L51.3336 38.2803C50.318 38.6318 49.2568 38.8646 48.15 38.9785V40.668H51.651V41.6494H50.4547V46.9521H49.4049V41.6494H48.1451ZM46.4654 39.8916V43.5879H45.4547V43.0508H43.6871C43.6871 43.8092 43.6399 44.4635 43.5455 45.0137C43.4316 45.6908 43.2005 46.3125 42.8521 46.8789L42.0123 46.166C42.3346 45.5703 42.5348 44.8932 42.6129 44.1348C42.6585 43.7051 42.6812 43.1875 42.6812 42.582V39.8916H46.4654ZM45.4547 40.751H43.692V42.1816H45.4547V40.751ZM42.3443 37.8701H46.8609V38.7979H42.3443V37.8701Z" fill="#12929D"/>
</svg>
