<svg width="72" height="79" viewBox="0 0 72 79" fill="none" xmlns="http://www.w3.org/2000/svg">
<path fill-rule="evenodd" clip-rule="evenodd" d="M39.2996 71.8508C57.6353 70.1847 72 54.7699 72 36C72 16.1177 55.8823 0 36 0C16.1177 0 0 16.1177 0 36C0 54.7699 14.3647 70.1847 32.7004 71.8508L36 79L39.2996 71.8508Z" fill="#12929D"/>
<circle cx="36" cy="36" r="32" fill="white"/>
<path d="M26.5276 33.5586V32.2871H24.6174V31.1973H30.6409V32.2871H28.8127V33.5586H30.4241V42.0195H29.3459V41.457H26.0647V42.1426H24.9514V33.5586H26.5276ZM27.3772 33.5586H27.9514V32.2871H27.3772V33.5586ZM26.6155 34.5664H26.0647V37.1797C26.3928 36.5781 26.5764 35.707 26.6155 34.5664ZM27.3655 34.5664C27.3616 35.9883 27.1174 37.1328 26.633 38L26.0647 37.4844V38.4805H29.3459V37.3379H28.6604C28.387 37.3379 28.1995 37.2852 28.0979 37.1797C28.0002 37.0781 27.9514 36.9043 27.9514 36.6582V34.5664H27.3655ZM28.7073 34.5664V36.2129C28.7073 36.3223 28.7229 36.3887 28.7541 36.4121C28.7815 36.4316 28.8459 36.4414 28.9475 36.4414H29.3459V34.5664H28.7073ZM26.0647 39.418V40.4141H29.3459V39.418H26.0647ZM32.4866 36.4062V40.3027C32.4866 40.5137 32.5491 40.6387 32.6741 40.6777C32.8577 40.7363 33.1565 40.7656 33.5705 40.7656C33.9416 40.7656 34.2073 40.7285 34.3674 40.6543C34.4963 40.5957 34.5803 40.4512 34.6194 40.2207C34.6584 39.9746 34.6916 39.5059 34.719 38.8145L34.7307 38.5742L35.9905 38.9023C35.9592 39.9102 35.9026 40.6113 35.8205 41.0059C35.7073 41.541 35.3811 41.8457 34.842 41.9199C34.4827 41.9668 33.928 41.9902 33.178 41.9902C32.3889 41.9902 31.8674 41.9102 31.6135 41.75C31.3713 41.5977 31.2502 41.2715 31.2502 40.7715V35.2637H34.262V32.3984H31.1096V31.2441H35.4866V36.4062H32.4866ZM43.6892 33.916H41.0349V32.8496H42.6052C42.281 32.2207 41.9451 31.6816 41.5974 31.2324L42.6287 30.6875C43.0545 31.2344 43.4119 31.791 43.7009 32.3574L42.7752 32.8496H44.908C45.322 32.1387 45.6638 31.4141 45.9334 30.6758L47.1697 31.1562C46.8494 31.75 46.4998 32.3145 46.1209 32.8496H47.6502V33.916H44.9255V35.4102H48.1775V36.4883H44.8962C44.8884 36.6133 44.8748 36.7402 44.8552 36.8691C45.8357 37.4082 46.8865 38.1094 48.0076 38.9727L47.158 40.0391C46.4509 39.3477 45.5837 38.6348 44.5564 37.9004C44.033 39.0762 43.0623 39.8418 41.6443 40.1973L40.865 39.1543C41.7986 38.9473 42.492 38.6074 42.9451 38.1348C43.3396 37.7168 43.5779 37.168 43.6599 36.4883H40.5896V35.4102H43.6892V33.916ZM39.9685 39.3242C40.2498 39.6445 40.5818 39.9121 40.9646 40.127C41.238 40.2754 41.617 40.3984 42.1013 40.4961C42.5818 40.5938 43.0857 40.6426 43.613 40.6426H48.5818C48.4255 40.9434 48.2888 41.3633 48.1716 41.9023H43.5193C42.2771 41.9023 41.2791 41.6914 40.5252 41.2695C40.1462 41.0625 39.7732 40.7402 39.406 40.3027C38.8435 41.0293 38.2595 41.6504 37.6541 42.166L36.9099 40.8594C37.4255 40.5391 38.0212 40.0723 38.697 39.459V36.8105H37.0681V35.5859H39.9685V39.3242ZM39.2712 34.1387C38.7673 33.3105 38.1443 32.5137 37.4021 31.748L38.3982 30.9805C39.0701 31.5781 39.7087 32.3262 40.3142 33.2246L39.2712 34.1387Z" fill="#12929D"/>
</svg>
