<svg width="72" height="79" viewBox="0 0 72 79" fill="none" xmlns="http://www.w3.org/2000/svg">
<path fill-rule="evenodd" clip-rule="evenodd" d="M39.2996 71.8508C57.6353 70.1847 72 54.7699 72 36C72 16.1177 55.8823 0 36 0C16.1177 0 0 16.1177 0 36C0 54.7699 14.3647 70.1847 32.7004 71.8508L36 79L39.2996 71.8508Z" fill="#12929D"/>
<circle cx="36" cy="36" r="32" fill="white"/>
<path d="M23.7104 28.667V35.8594H22.5922V30.5176C22.182 31.1003 21.7556 31.6178 21.3129 32.0703L20.7514 31.001C21.9623 29.7445 22.8819 28.1999 23.5102 26.3672L24.599 26.6504C24.3386 27.3535 24.0424 28.0257 23.7104 28.667ZM26.4594 29.7266C27.475 29.248 28.3653 28.7256 29.1303 28.1592L29.9701 28.96C28.8275 29.7119 27.6573 30.3158 26.4594 30.7715V34.1406C26.4594 34.3424 26.5619 34.4629 26.767 34.502C26.9167 34.5312 27.1885 34.5459 27.5824 34.5459C27.9861 34.5459 28.3327 34.5296 28.6225 34.4971C28.8568 34.4743 28.9936 34.3652 29.0326 34.1699C29.114 33.7695 29.1628 33.2259 29.1791 32.5391L30.2973 32.8809C30.268 33.7565 30.2094 34.3685 30.1215 34.7168C30.0206 35.1172 29.8025 35.3711 29.4672 35.4785C29.1221 35.5924 28.5769 35.6494 27.8314 35.6494C26.6628 35.6494 25.9516 35.5664 25.6977 35.4004C25.473 35.2539 25.3607 34.9674 25.3607 34.541V26.6602H26.4594V29.7266ZM32.7285 32.6465C32.4128 33.4212 32.0433 34.0967 31.6201 34.6729L31.0586 33.7109C31.7031 32.9883 32.2207 32.0589 32.6113 30.9229H31.249V29.9609H32.7285V26.4502H33.6807V29.9609H34.9697V30.9229H33.6807V31.4697C34.1331 31.8148 34.54 32.2021 34.9014 32.6318L34.3398 33.501C34.1543 33.1982 33.9346 32.8857 33.6807 32.5635V35.9521H32.7285V32.6465ZM36.1318 28.6621V31.0303C36.1318 32.1468 36.0537 33.0745 35.8975 33.8135C35.738 34.5622 35.4515 35.2686 35.0381 35.9326L34.2178 35.1807C34.6377 34.5231 34.9144 33.7874 35.0479 32.9736C35.1292 32.4788 35.1699 31.9222 35.1699 31.3037V27.6807H37.4307V26.4502H38.4609V27.6807H40.6777V28.6621H36.1318ZM37.8066 30.8496V29.082H38.8271V30.8496H40.3652V31.7676H38.8271V34.4971H40.7363V35.4492H35.8193V34.4971H37.8066V31.7676H36.3564V30.8496H37.8066ZM31.6396 29.5508C31.529 28.6361 31.389 27.8955 31.2197 27.3291L32.0791 27.0703C32.2549 27.627 32.4014 28.3805 32.5186 29.3311L31.6396 29.5508ZM33.7979 29.3213C33.9997 28.6995 34.1738 27.9232 34.3203 26.9922L35.209 27.1924C35.0592 28.0615 34.8493 28.8444 34.5791 29.541L33.7979 29.3213ZM49.4469 26.7578V30.2783H43.3482V26.7578H49.4469ZM44.4469 27.7002V29.3701H48.3385V27.7002H44.4469ZM45.941 31.2402V35.8398H44.9107V35.3418H43.1187V35.9521H42.0787V31.2402H45.941ZM43.1187 32.168V34.4141H44.9107V32.168H43.1187ZM50.7164 31.2402V35.9521H49.6764V35.3418H47.8307V35.9521H46.8004V31.2402H50.7164ZM47.8307 32.1582V34.4141H49.6764V32.1582H47.8307ZM18.4078 41.3691C19.1565 41.8281 20.0761 42.458 21.1666 43.2588L21.357 43.4004C22.1318 42.248 22.7454 41.055 23.1979 39.8213L24.2672 40.3193C23.7398 41.5824 23.0725 42.8389 22.2652 44.0889C23.219 44.792 24.1093 45.5684 24.9361 46.418L24.1646 47.3018C23.6536 46.7419 22.8609 46.0176 21.7867 45.1289L21.6061 44.9824C20.3854 46.4603 18.9482 47.6761 17.2945 48.6299L16.5865 47.6582C18.0514 46.9062 19.4283 45.7767 20.7174 44.2695C19.7831 43.5859 18.8098 42.9154 17.7975 42.2578L18.4078 41.3691ZM26.6008 43.4785H35.1994V44.5771H26.6008V43.4785ZM36.8836 41.6377H39.8621C39.8881 40.915 39.9012 40.2689 39.9012 39.6992H41.034C41.0275 40.4414 41.0096 41.0876 40.9803 41.6377H44.574C44.5545 43.9456 44.4601 45.7148 44.2908 46.9453C44.2159 47.5052 44.0646 47.8893 43.8367 48.0977C43.5991 48.3125 43.1906 48.4199 42.6111 48.4199C42.1912 48.4199 41.7452 48.3857 41.2732 48.3174L41.0926 47.2188C41.6557 47.3197 42.1163 47.3701 42.4744 47.3701C42.7218 47.3701 42.8829 47.3327 42.9578 47.2578C43.0424 47.1764 43.1124 46.9225 43.1678 46.4961C43.3273 45.2331 43.4119 43.9473 43.4217 42.6387H40.9314C40.8077 43.9798 40.5229 45.054 40.077 45.8613C39.4975 46.9062 38.6268 47.7591 37.4646 48.4199L36.7225 47.5508C37.4516 47.1504 38.0734 46.6475 38.5877 46.042C38.9751 45.5863 39.2615 45.0703 39.4471 44.4941C39.6261 43.9505 39.7482 43.332 39.8133 42.6387H36.8836V41.6377ZM46.6 43.4785H55.1986V44.5771H46.6V43.4785Z" fill="#12929D"/>
</svg>
