<svg width="72" height="79" viewBox="0 0 72 79" fill="none" xmlns="http://www.w3.org/2000/svg">
<path fill-rule="evenodd" clip-rule="evenodd" d="M39.2996 71.8508C57.6353 70.1847 72 54.7699 72 36C72 16.1177 55.8823 0 36 0C16.1177 0 0 16.1177 0 36C0 54.7699 14.3647 70.1847 32.7004 71.8508L36 79L39.2996 71.8508Z" fill="#12929D"/>
<circle cx="36" cy="36" r="32" fill="white"/>
<path d="M22.1977 34.0156C22.104 34.0898 21.9204 34.2266 21.647 34.4258L20.9614 33.5352C22.0786 32.8477 22.9907 31.9121 23.6977 30.7285L24.4888 31.2676H26.9731L27.6001 31.8066C27.1665 32.5176 26.7036 33.1543 26.2114 33.7168H28.8833V35.7793H29.7856V36.7637H28.8833V38.9023H25.9184V41.0938C25.9184 41.4883 25.8208 41.7637 25.6255 41.9199C25.4536 42.0605 25.1704 42.1309 24.7759 42.1309C24.2759 42.1309 23.7407 42.0938 23.1704 42.0195L22.9302 40.8418C23.6138 40.9395 24.0981 40.9883 24.3833 40.9883C24.5278 40.9883 24.6157 40.957 24.647 40.8945C24.6704 40.8438 24.6821 40.7598 24.6821 40.6426V38.9023H21.7759V37.8945H24.6821V36.7637H21.0845V35.7793H24.6821V34.7129H22.1977V34.0156ZM22.5669 33.7168H24.9341C25.4927 33.0098 25.8286 32.541 25.9419 32.3105H23.9555C23.5493 32.8105 23.0864 33.2793 22.5669 33.7168ZM25.895 34.7129V35.7793H27.7055V34.7129H25.895ZM27.7055 37.8945V36.7637H25.895V37.8945H27.7055ZM20.352 33.5234C19.9263 32.8945 19.3423 32.2754 18.6001 31.666L19.4966 30.8105C20.2153 31.3457 20.8208 31.9375 21.313 32.5859L20.352 33.5234ZM19.977 36.5586C19.3794 35.8047 18.7798 35.1738 18.1782 34.666L19.0688 33.7871C19.7095 34.2676 20.3364 34.8789 20.9497 35.6211L19.977 36.5586ZM18.4536 41.1934C19.2075 40.084 19.9165 38.7324 20.5805 37.1387L21.5766 37.9062C20.9985 39.4219 20.313 40.8301 19.52 42.1309L18.4536 41.1934ZM37.25 32.9609C37.418 33.707 37.6855 34.4473 38.0527 35.1816C39.0566 34.334 39.9609 33.4219 40.7656 32.4453L41.832 33.3301C40.7266 34.5254 39.6602 35.4727 38.6328 36.1719C38.6523 36.1992 38.6719 36.2285 38.6914 36.2598C39.543 37.5527 40.7734 38.6895 42.3828 39.6699L41.5449 40.8184C39.6816 39.6973 38.25 38.0586 37.25 35.9023V41.0117C37.25 41.3984 37.1562 41.6699 36.9688 41.8262C36.7773 41.9863 36.4277 42.0664 35.9199 42.0664C35.3145 42.0664 34.7656 42.0352 34.2734 41.9727L34.0332 40.6426C34.709 40.7363 35.2363 40.7832 35.6152 40.7832C35.7793 40.7832 35.877 40.748 35.9082 40.6777C35.9316 40.6309 35.9434 40.5586 35.9434 40.4609V30.7402H37.25V32.9609ZM31.0039 33.6055H34.8887L35.5391 34.2441C35.3125 35.4238 35.0117 36.4277 34.6367 37.2559C34.0977 38.4434 33.332 39.502 32.3398 40.4316C32.1406 40.6191 31.875 40.8477 31.543 41.1172L30.6172 40.0742C32.4922 38.7227 33.6484 36.959 34.0859 34.7832H31.0039V33.6055ZM52.2671 38.2871C52.0093 38.998 51.6831 39.6191 51.2886 40.1504C50.7847 40.834 50.105 41.4414 49.2495 41.9727L48.4292 41.252C49.6792 40.5488 50.5991 39.5605 51.189 38.2871H50.3745C49.6323 39.6934 48.4839 40.7578 46.9292 41.4805L46.1851 40.7129C47.5405 40.0996 48.5581 39.291 49.2378 38.2871H48.4527C48.1011 38.6465 47.7378 38.9434 47.3628 39.1777L46.7066 38.5391C45.7495 39.1211 44.7007 39.6406 43.5601 40.0977L43.1265 38.9082C43.6187 38.7598 44.146 38.5723 44.7085 38.3457V34.4023H43.3316V33.2363H44.7085V30.7402H45.9214V33.2363H47.0757V34.4023H45.9214V37.8184C46.2183 37.6777 46.5835 37.498 47.0171 37.2793L47.1695 38.0293C47.6421 37.6543 48.0347 37.209 48.3472 36.6934H46.689V35.709H54.7339V36.6934H49.6128C49.5073 36.8887 49.3726 37.1074 49.2085 37.3496H54.2886C54.2066 39.3613 54.0581 40.6973 53.8433 41.3574C53.7378 41.6816 53.5581 41.8984 53.3042 42.0078C53.1245 42.0898 52.8609 42.1309 52.5132 42.1309C52.107 42.1309 51.7105 42.1016 51.3237 42.043L51.107 40.9297C51.4741 41.0156 51.8394 41.0586 52.2027 41.0586C52.4644 41.0586 52.6323 40.9727 52.7066 40.8008C52.8511 40.457 52.9683 39.6191 53.0581 38.2871H52.2671ZM53.6499 31.0859V35.123H47.6148V31.0859H53.6499ZM48.7925 31.9766V32.6738H52.4722V31.9766H48.7925ZM48.7925 33.5234V34.2441H52.4722V33.5234H48.7925Z" fill="#12929D"/>
</svg>
