<svg width="72" height="79" viewBox="0 0 72 79" fill="none" xmlns="http://www.w3.org/2000/svg">
<path fill-rule="evenodd" clip-rule="evenodd" d="M39.2996 71.8508C57.6353 70.1847 72 54.7699 72 36C72 16.1177 55.8823 0 36 0C16.1177 0 0 16.1177 0 36C0 54.7699 14.3647 70.1847 32.7004 71.8508L36 79L39.2996 71.8508Z" fill="#12929D"/>
<circle cx="36" cy="36" r="32" fill="white"/>
<path d="M34.135 39.7207H27.4026V35.3379C27.2541 35.4551 27.0745 35.5957 26.8635 35.7598L26.1428 34.8223C27.3538 34.0566 28.3264 33.0293 29.0608 31.7402L30.1623 32.291H32.342L33.0803 32.8418C32.717 33.3965 32.2561 33.9805 31.6975 34.5938H34.135V39.7207ZM30.1858 38.748V37.5234H28.5803V38.748H30.1858ZM31.2991 38.748H32.9455V37.5234H31.2991V38.748ZM30.1858 36.6738V35.5664H28.5803V36.6738H30.1858ZM31.2991 36.6738H32.9455V35.5664H31.2991V36.6738ZM30.385 34.5938C30.7444 34.2109 31.094 33.7676 31.4338 33.2637H29.5354C29.133 33.7441 28.7112 34.1875 28.2698 34.5938H30.385ZM25.6389 34.4648C25.0608 33.707 24.4963 33.0996 23.9455 32.6426L24.8596 31.7871C25.6174 32.4355 26.2053 33.0234 26.6233 33.5508L25.6389 34.4648ZM25.1819 37.5117C24.5725 36.7383 23.9885 36.1152 23.4299 35.6426L24.344 34.7637C24.9846 35.2754 25.5764 35.8789 26.1194 36.5742L25.1819 37.5117ZM23.6467 42.2402C24.3538 41.1152 24.9944 39.7305 25.5686 38.0859L26.5764 38.7598C26.01 40.4668 25.3967 41.9316 24.7366 43.1543L23.6467 42.2402ZM29.2717 43.0195C29.1858 42.0469 29.051 41.1992 28.8674 40.4766L29.9104 40.2363C30.1565 40.8691 30.3362 41.7051 30.4495 42.7441L29.2717 43.0195ZM31.592 42.9141C31.3303 41.8828 31.0334 41.0703 30.7014 40.4766L31.7327 40.1309C32.1741 40.8652 32.5061 41.6406 32.7288 42.457L31.592 42.9141ZM26.1077 42.5156C26.6506 41.75 27.0452 40.9551 27.2913 40.1309L28.3987 40.4766C28.1252 41.5391 27.7366 42.4355 27.2327 43.166L26.1077 42.5156ZM34.0002 42.9961C33.6877 42.1094 33.2405 41.2168 32.6584 40.3184L33.6663 39.9141C34.2366 40.6133 34.7327 41.4492 35.1545 42.4219L34.0002 42.9961ZM45.3084 36.4453C45.906 37.1328 46.656 37.7402 47.5584 38.2676L46.8728 39.2168C46.4041 38.9395 45.9607 38.6152 45.5427 38.2441V40.4531H41.5818V41.3555C41.5818 41.6211 41.6638 41.7754 41.8279 41.8184C42.0427 41.877 42.5857 41.9062 43.4568 41.9062C44.7146 41.9062 45.4041 41.8281 45.5252 41.6719C45.6072 41.5664 45.6775 41.168 45.7361 40.4766L46.9373 40.875C46.8904 41.6094 46.7927 42.1113 46.6443 42.3809C46.4802 42.6738 46.1716 42.8477 45.7185 42.9023C45.2302 42.957 44.4177 42.9844 43.281 42.9844C41.992 42.9844 41.1795 42.9141 40.8435 42.7734C40.5232 42.6367 40.363 42.3594 40.363 41.9414V39.5156H44.3826V38.4961H40.3513C40.0505 38.7812 39.6951 39.0645 39.2849 39.3457L38.5291 38.5195C39.4783 37.957 40.2185 37.2656 40.7498 36.4453H38.7576V35.4023H40.8259V34.0781H39.367V33.0703H40.8259V31.7402H42.0154V33.0703H43.9373V31.7402H45.1384V33.0703H46.9138V34.0781H45.1384V35.4023H47.4412V36.4453H45.3084ZM44.0427 36.4453H41.9685C41.7498 36.8281 41.4959 37.2031 41.2068 37.5703H44.8806C44.5759 37.2305 44.2966 36.8555 44.0427 36.4453ZM43.9373 34.0781H42.0154V35.4023H43.9373V34.0781ZM38.1189 34.5C37.6502 33.8633 37.074 33.2598 36.3904 32.6895L37.2986 31.834C37.9627 32.3223 38.5584 32.9023 39.0857 33.5742L38.1189 34.5ZM37.7205 37.7402C37.2127 37.0762 36.6287 36.4473 35.9685 35.8535L36.8591 34.9922C37.5584 35.5352 38.1658 36.1387 38.6814 36.8027L37.7205 37.7402ZM36.1384 42.1934C36.7712 41.1816 37.3142 40.0215 37.7673 38.7129L38.8103 39.4805C38.283 41 37.7478 42.2109 37.2048 43.1133L36.1384 42.1934Z" fill="#12929D"/>
</svg>
