<svg width="72" height="79" viewBox="0 0 72 79" fill="none" xmlns="http://www.w3.org/2000/svg">
<path fill-rule="evenodd" clip-rule="evenodd" d="M39.2996 71.8508C57.6353 70.1847 72 54.7699 72 36C72 16.1177 55.8823 0 36 0C16.1177 0 0 16.1177 0 36C0 54.7699 14.3647 70.1847 32.7004 71.8508L36 79L39.2996 71.8508Z" fill="#12929D"/>
<circle cx="36" cy="36" r="32" fill="white"/>
<path d="M32.1428 31.9199C32.0809 32.0664 32.0093 32.2292 31.9279 32.4082L32.4895 32.0615C32.8085 32.5465 33.0542 32.999 33.2268 33.4189L32.4162 33.9414C32.2437 33.4824 32.0419 33.0544 31.8107 32.6572C31.5048 33.2399 31.2443 33.6794 31.0295 33.9756C30.8049 34.2783 30.5575 34.5566 30.2873 34.8105L29.6086 34.1123C30.2434 33.585 30.7561 32.8542 31.1467 31.9199H30.1848V31.0996H31.4592C31.5503 30.8229 31.6333 30.5234 31.7082 30.2012H29.965V29.4102H31.8596C31.9182 29.0521 31.9572 28.7965 31.9768 28.6436H30.5363V27.8623H32.0695L32.0842 27.6963L32.1086 27.4814C32.1216 27.3252 32.133 27.2113 32.1428 27.1396H30.258V26.3291H32.2063C32.216 26.2087 32.2242 26.1094 32.2307 26.0312C32.2437 25.8848 32.26 25.6846 32.2795 25.4307L33.2365 25.4795C33.2202 25.7269 33.2056 25.9287 33.1926 26.085C33.1861 26.1468 33.1779 26.2282 33.1682 26.3291H35.3508V27.1396H33.1047L33.0852 27.3447C33.0754 27.4652 33.0591 27.6377 33.0363 27.8623H35.0578V28.6436H32.9484C32.9159 28.917 32.8801 29.1725 32.841 29.4102H35.551V30.2012H34.5695V31.0996H35.4289V31.9199H34.5695V34.1123C34.5695 34.3825 34.5044 34.5843 34.3742 34.7178C34.2408 34.8577 34.008 34.9277 33.676 34.9277C33.3309 34.9277 33.0119 34.9082 32.7189 34.8691L32.5676 33.9609C32.8313 34.0065 33.0884 34.0293 33.3391 34.0293C33.4823 34.0293 33.5669 33.9919 33.593 33.917C33.6092 33.8747 33.6174 33.8128 33.6174 33.7314V31.9199H32.1428ZM32.4504 31.0996H33.6174V30.2012H32.6945C32.6132 30.5527 32.5383 30.8327 32.4699 31.041L32.4504 31.0996ZM29.5305 28.1504V28.7119H28.5588V29.791H29.7893V30.6406H28.5588V33.3018C29.0601 33.1455 29.5305 32.9844 29.9699 32.8184L30.0285 33.7021C28.9608 34.1546 27.7352 34.5615 26.3518 34.9229L26.0197 33.9609C26.687 33.8112 27.2274 33.6794 27.6408 33.5654V30.6406H26.0783V29.791H27.6408V28.7119H26.8059C26.6952 28.8389 26.5503 28.9919 26.3713 29.1709L25.9318 28.2725C26.6154 27.5661 27.1786 26.6253 27.6213 25.4502H28.6076C29.2912 26.1989 29.812 26.8727 30.1701 27.4717L29.5305 28.1504ZM29.34 27.8818C29.0275 27.3805 28.663 26.8695 28.2463 26.3486C27.9696 26.9508 27.6978 27.4619 27.4309 27.8818H29.34ZM26.5324 33.2578C26.4445 32.6328 26.2915 31.9997 26.0734 31.3584L26.9426 31.0898C27.1346 31.6204 27.2876 32.2568 27.4016 32.999L26.5324 33.2578ZM28.6906 32.6084C28.9022 31.9508 29.0422 31.3617 29.1105 30.8408L30.0041 31.0215C29.8804 31.653 29.6965 32.2487 29.4523 32.8086L28.6906 32.6084ZM44.3299 28.0283L44.2957 28.2285C44.0841 29.4948 43.7553 30.6064 43.3094 31.5635C42.8406 32.5596 42.1212 33.5215 41.1512 34.4492L40.4041 33.7705C41.4295 32.7809 42.1945 31.7002 42.699 30.5283C43.0278 29.7699 43.2752 28.9365 43.4412 28.0283H42.8602C42.6421 28.8421 42.38 29.5664 42.074 30.2012C41.6671 31.041 41.1202 31.7881 40.4334 32.4424L39.7352 31.7295C40.5164 31.0101 41.1007 30.2093 41.4881 29.3271C41.6736 28.9072 41.8266 28.4743 41.9471 28.0283H41.4393C41.2212 28.5654 40.9054 29.0993 40.492 29.6299L39.8719 28.8633C40.0086 28.681 40.1307 28.4971 40.2381 28.3115H39.1443V30.0742C39.4308 29.9766 39.823 29.8317 40.3211 29.6396L40.4041 30.4795C40.0167 30.665 39.5968 30.8522 39.1443 31.041V34.9521H38.1434V31.4268C37.8081 31.557 37.3149 31.7214 36.6639 31.9199L36.3514 30.9189C36.908 30.7725 37.4598 30.6146 38.0066 30.4453L38.1434 30.4014V28.3115H37.5916C37.4874 28.8779 37.3507 29.4183 37.1814 29.9326L36.3221 29.4004C36.6378 28.4824 36.8478 27.3887 36.952 26.1191L37.8406 26.2217C37.8081 26.6579 37.7723 27.0339 37.7332 27.3496H38.1629V25.4502H39.1443V27.3496H40.2723V28.2529C40.6857 27.5107 41.0031 26.5667 41.2244 25.4209L42.2742 25.6016C42.1701 26.1257 42.0285 26.6253 41.8494 27.1006H45.7508C45.7117 30.7041 45.5831 32.9518 45.365 33.8438C45.2609 34.2604 45.0916 34.5404 44.8572 34.6836C44.6456 34.8105 44.3315 34.874 43.9148 34.874C43.7488 34.874 43.4591 34.8545 43.0457 34.8154L42.8016 34.791L42.6404 33.751C43.0571 33.8324 43.4119 33.873 43.7049 33.873C43.9783 33.873 44.1557 33.8145 44.2371 33.6973C44.351 33.5345 44.4389 33.196 44.5008 32.6816C44.5952 31.8841 44.6733 30.4648 44.7352 28.4238L44.7449 28.0283H44.3299ZM18.4078 40.3691C19.1565 40.8281 20.0761 41.458 21.1666 42.2588L21.357 42.4004C22.1318 41.248 22.7454 40.055 23.1979 38.8213L24.2672 39.3193C23.7398 40.5824 23.0725 41.8389 22.2652 43.0889C23.219 43.792 24.1093 44.5684 24.9361 45.418L24.1646 46.3018C23.6536 45.7419 22.8609 45.0176 21.7867 44.1289L21.6061 43.9824C20.3854 45.4603 18.9482 46.6761 17.2945 47.6299L16.5865 46.6582C18.0514 45.9062 19.4283 44.7767 20.7174 43.2695C19.7831 42.5859 18.8098 41.9154 17.7975 41.2578L18.4078 40.3691ZM26.6008 42.4785H35.1994V43.5771H26.6008V42.4785ZM36.8836 40.6377H39.8621C39.8881 39.915 39.9012 39.2689 39.9012 38.6992H41.034C41.0275 39.4414 41.0096 40.0876 40.9803 40.6377H44.574C44.5545 42.9456 44.4601 44.7148 44.2908 45.9453C44.2159 46.5052 44.0646 46.8893 43.8367 47.0977C43.5991 47.3125 43.1906 47.4199 42.6111 47.4199C42.1912 47.4199 41.7452 47.3857 41.2732 47.3174L41.0926 46.2188C41.6557 46.3197 42.1163 46.3701 42.4744 46.3701C42.7218 46.3701 42.8829 46.3327 42.9578 46.2578C43.0424 46.1764 43.1124 45.9225 43.1678 45.4961C43.3273 44.2331 43.4119 42.9473 43.4217 41.6387H40.9314C40.8077 42.9798 40.5229 44.054 40.077 44.8613C39.4975 45.9062 38.6268 46.7591 37.4646 47.4199L36.7225 46.5508C37.4516 46.1504 38.0734 45.6475 38.5877 45.042C38.9751 44.5863 39.2615 44.0703 39.4471 43.4941C39.6261 42.9505 39.7482 42.332 39.8133 41.6387H36.8836V40.6377ZM46.6 42.4785H55.1986V43.5771H46.6V42.4785Z" fill="#12929D"/>
</svg>
