<svg width="72" height="79" viewBox="0 0 72 79" fill="none" xmlns="http://www.w3.org/2000/svg">
<path fill-rule="evenodd" clip-rule="evenodd" d="M39.2996 71.8508C57.6353 70.1847 72 54.7699 72 36C72 16.1177 55.8823 0 36 0C16.1177 0 0 16.1177 0 36C0 54.7699 14.3647 70.1847 32.7004 71.8508L36 79L39.2996 71.8508Z" fill="#12929D"/>
<circle cx="36" cy="36" r="32" fill="white"/>
<path d="M20.9371 26.5498V31.999H25.151V33.0293H15.649V31.999H19.7994V26.5498H16.2203V25.5488H24.5895V26.5498H20.9371ZM33.5393 30.7393C33.3244 31.3317 33.0526 31.8493 32.7238 32.292C32.3039 32.8617 31.7375 33.3678 31.0246 33.8105L30.341 33.21C31.3827 32.624 32.1493 31.8005 32.6408 30.7393H31.9621C31.3436 31.9111 30.3866 32.7982 29.091 33.4004L28.4709 32.7607C29.6005 32.2497 30.4484 31.5758 31.0148 30.7393H30.3605C30.0676 31.0387 29.7648 31.2861 29.4523 31.4814L28.9055 30.9492C28.1079 31.4342 27.2339 31.8672 26.2834 32.248L25.9221 31.2568C26.3322 31.1331 26.7717 30.9769 27.2404 30.7881V27.502H26.093V26.5303H27.2404V24.4502H28.2512V26.5303H29.2131V27.502H28.2512V30.3486C28.4986 30.2314 28.8029 30.0817 29.1643 29.8994L29.2912 30.5244C29.6851 30.2119 30.0122 29.8408 30.2727 29.4111H28.8908V28.5908H35.5949V29.4111H31.3273C31.2395 29.5739 31.1271 29.7562 30.9904 29.958H35.2238C35.1555 31.6344 35.0318 32.7477 34.8527 33.2979C34.7648 33.568 34.6151 33.7487 34.4035 33.8398C34.2538 33.9082 34.034 33.9424 33.7443 33.9424C33.4058 33.9424 33.0754 33.918 32.7531 33.8691L32.5725 32.9414C32.8784 33.013 33.1828 33.0488 33.4855 33.0488C33.7036 33.0488 33.8436 32.9772 33.9055 32.834C34.0259 32.5475 34.1236 31.8493 34.1984 30.7393H33.5393ZM34.6916 24.7383V28.1025H29.6623V24.7383H34.6916ZM30.6437 25.4805V26.0615H33.7102V25.4805H30.6437ZM30.6437 26.7695V27.3701H33.7102V26.7695H30.6437ZM37.6697 26.252V24.4502H38.7195V26.252H39.3396V27.2236H38.7195V28.5908C38.866 28.5355 39.0451 28.4622 39.2566 28.3711L39.3592 29.2939C39.2583 29.3428 39.0451 29.4421 38.7195 29.5918V33.0684C38.7195 33.3809 38.6479 33.6022 38.5047 33.7324C38.368 33.8561 38.1336 33.918 37.8016 33.918C37.4467 33.918 37.1131 33.8919 36.8006 33.8398L36.6004 32.79C37.0105 32.8519 37.2889 32.8828 37.4354 32.8828C37.546 32.8828 37.6144 32.8617 37.6404 32.8193C37.66 32.7868 37.6697 32.7266 37.6697 32.6387V30.0117L37.6111 30.0312C37.2758 30.1549 36.9389 30.2656 36.6004 30.3633L36.3318 29.3721C36.7778 29.2451 37.1863 29.1214 37.5574 29.001L37.6697 28.9668V27.2236H36.4832V26.252H37.6697ZM41.1268 31.2129C40.6808 31.431 40.1209 31.6605 39.4471 31.9014L39.0857 30.9395C39.7726 30.7995 40.4871 30.5846 41.2293 30.2949C41.2423 30.1029 41.2488 29.8376 41.2488 29.499V29.2402H39.657V28.3516H41.2488V27.1602H39.5984V26.2422H41.2488V24.5283H42.2596V29.4307C42.2596 30.6514 42.1196 31.6068 41.8396 32.2969C41.602 32.8796 41.1674 33.4541 40.5359 34.0205L39.7352 33.2881C40.2006 32.9398 40.5359 32.5947 40.741 32.2529C40.9135 31.9697 41.0421 31.623 41.1268 31.2129ZM44.032 26.2324H45.8094V27.1602H44.032V28.3516H45.6678V29.2402H44.032V30.4902H45.9607V31.4424H44.032V33.9521H43.0408V24.4502H44.032V26.2324ZM52.225 26.3008C52.365 26.9225 52.588 27.5394 52.8939 28.1514C53.7305 27.445 54.4841 26.6849 55.1547 25.8711L56.0434 26.6084C55.1221 27.6045 54.2335 28.3939 53.3773 28.9766C53.3936 28.9993 53.4099 29.0238 53.4262 29.0498C54.1358 30.1273 55.1612 31.0745 56.5023 31.8916L55.8041 32.8486C54.2514 31.9144 53.0583 30.5488 52.225 28.752V33.0098C52.225 33.332 52.1469 33.5583 51.9906 33.6885C51.8311 33.8219 51.5398 33.8887 51.1166 33.8887C50.612 33.8887 50.1547 33.8626 49.7445 33.8105L49.5443 32.7021C50.1075 32.7803 50.5469 32.8193 50.8627 32.8193C50.9994 32.8193 51.0808 32.79 51.1068 32.7314C51.1264 32.6924 51.1361 32.6322 51.1361 32.5508V24.4502H52.225V26.3008ZM47.0199 26.8379H50.2572L50.7992 27.3701C50.6104 28.3532 50.3598 29.1898 50.0473 29.8799C49.598 30.8695 48.96 31.7516 48.1332 32.5264C47.9672 32.6826 47.7458 32.873 47.4691 33.0977L46.6977 32.2285C48.2602 31.1022 49.2237 29.6325 49.5883 27.8193H47.0199V26.8379ZM18.735 44.0322C19.513 45.1032 20.7418 45.6387 22.4215 45.6387H25.2193C25.0859 45.9316 24.9898 46.2848 24.9312 46.6982H22.3385C20.6197 46.6982 19.2509 46.1042 18.232 44.916C17.7503 45.7201 17.1367 46.3906 16.3912 46.9277L15.7174 46.0781C16.4921 45.515 17.1367 44.8151 17.651 43.9785C17.2896 43.1842 17.0357 42.4225 16.8893 41.6934C16.6744 42.2077 16.4579 42.6195 16.2398 42.9287L15.6197 42.0303C16.3456 40.8421 16.8258 39.3057 17.0602 37.4209L18.0709 37.6211C18.0449 37.8197 18.0156 38.0133 17.983 38.2021H19.5211L19.9996 38.6318C19.8173 40.9333 19.3958 42.7334 18.735 44.0322ZM18.1734 42.9092C18.5836 41.7666 18.8554 40.528 18.9889 39.1934H17.773C17.6428 39.6686 17.5468 39.9893 17.485 40.1553C17.6314 41.1676 17.8609 42.0856 18.1734 42.9092ZM23.5787 38.0117V43.7246C23.5787 43.8092 23.5885 43.8727 23.608 43.915C23.634 43.9671 23.6959 43.9932 23.7936 43.9932C23.9596 43.9932 24.0605 43.9199 24.0963 43.7734C24.1354 43.6237 24.1663 43.2038 24.1891 42.5137L25.0582 42.8652C25.0257 43.6302 24.9703 44.1413 24.8922 44.3984C24.801 44.6979 24.6204 44.8753 24.3502 44.9307C24.2005 44.9632 23.9775 44.9795 23.6812 44.9795C23.2158 44.9795 22.9146 44.9046 22.7779 44.7549C22.664 44.6344 22.607 44.4473 22.607 44.1934V38.9932H21.6012V40.7656C21.6012 41.7845 21.4954 42.6357 21.2838 43.3193C21.0982 43.9248 20.7906 44.4928 20.3609 45.0234L19.5992 44.252C19.9964 43.7865 20.2698 43.2754 20.4195 42.7188C20.566 42.1654 20.6393 41.4329 20.6393 40.5215V38.0117H23.5787ZM28.3488 38.9492V40.9316H29.3156V41.9326H28.3488V43.8955C28.6125 43.7848 28.8973 43.653 29.2033 43.5L29.3254 44.4717C28.4172 44.9697 27.3739 45.4287 26.1955 45.8486L25.8977 44.75C26.4348 44.5938 26.9117 44.4391 27.3283 44.2861V41.9326H26.1857V40.9316H27.3283V38.9492H26.0686V37.9385H29.4279V38.9492H28.3488ZM35.1359 37.8115V42.8213H32.9191V43.749H35.2238V44.6377H32.9191V45.668H35.5754V46.6201H29.008V45.668H31.9182V44.6377H29.5744V43.749H31.9182V42.8213H29.7355V37.8115H35.1359ZM30.6779 38.6904V39.8623H31.9182V38.6904H30.6779ZM30.6779 40.7314V41.9424H31.9182V40.7314H30.6779ZM34.174 41.9424V40.7314H32.9191V41.9424H34.174ZM34.174 39.8623V38.6904H32.9191V39.8623H34.174ZM41.1805 40.6631H42.0691V41.8008L42.7674 41.6006V40.082H43.7098V41.3369L45.0574 40.9512L45.5311 41.249V43.8125C45.5311 44.1022 45.4692 44.3057 45.3455 44.4229C45.2348 44.5303 45.0493 44.584 44.7889 44.584C44.5024 44.584 44.2355 44.5628 43.9881 44.5205L43.8611 43.6709C44.0467 43.71 44.2176 43.7295 44.3738 43.7295C44.4812 43.7295 44.5447 43.7083 44.5643 43.666C44.5805 43.6335 44.5887 43.5749 44.5887 43.4902V41.9814L43.7098 42.2354V45.0918H42.7674V42.5088L42.0691 42.709V45.3408C42.0691 45.5654 42.1342 45.7021 42.2645 45.751C42.437 45.8128 42.8276 45.8438 43.4363 45.8438C44.2208 45.8438 44.6782 45.8079 44.8084 45.7363C44.88 45.694 44.9256 45.5898 44.9451 45.4238C44.9451 45.401 44.9516 45.349 44.9646 45.2676C44.9939 45.069 45.0118 44.8704 45.0184 44.6719L45.9998 44.9941C45.977 45.4368 45.9249 45.8112 45.8436 46.1172C45.7817 46.3516 45.658 46.5127 45.4725 46.6006C45.173 46.7406 44.5154 46.8105 43.4998 46.8105C42.4614 46.8105 41.8055 46.752 41.532 46.6348C41.2716 46.5241 41.1414 46.2799 41.1414 45.9023V42.9824L40.4529 43.1826L40.2039 42.333L41.1414 42.0645V40.7266L41.1023 40.7852C40.9754 40.9805 40.8191 41.1986 40.6336 41.4395L39.9402 40.751C40.1258 40.5199 40.3048 40.2594 40.4773 39.9697H38.5535C38.5503 40.4222 38.5437 40.8161 38.534 41.1514H40.1795C40.1567 43.7165 40.077 45.3701 39.9402 46.1123C39.8914 46.3727 39.8117 46.5632 39.701 46.6836C39.561 46.8333 39.3022 46.9082 38.9246 46.9082C38.573 46.9082 38.2687 46.8789 38.0115 46.8203L37.8943 45.79C38.1971 45.8649 38.4477 45.9023 38.6463 45.9023C38.8449 45.9023 38.9669 45.8275 39.0125 45.6777C39.0483 45.5638 39.089 45.2106 39.1346 44.6182C39.1964 43.8532 39.2355 43.0182 39.2518 42.1133H38.49C38.4249 43.1224 38.3094 43.9655 38.1434 44.6426C37.935 45.5085 37.5802 46.2702 37.0789 46.9277L36.3611 46.0684C36.7843 45.4694 37.0838 44.7874 37.2596 44.0225C37.4809 43.0687 37.5949 41.7178 37.6014 39.9697H36.449V39.0176H37.9627V37.4502H38.993V39.0176H40.5018V39.9307C40.9347 39.1689 41.2537 38.3161 41.4588 37.3721L42.4598 37.5576C42.3328 38.0622 42.1993 38.4967 42.0594 38.8613H45.8436V39.7695H41.6736C41.5076 40.1146 41.3432 40.4124 41.1805 40.6631ZM50.7504 43.5879V46.4492H48.1918V46.9521H47.2201V43.5879H50.7504ZM48.1918 44.4277V45.6191H49.7689V44.4277H48.1918ZM51.6391 37.8018H54.7689V40.1797C54.7689 40.2871 54.7852 40.3538 54.8178 40.3799C54.8601 40.4124 54.9333 40.4287 55.0375 40.4287C55.1807 40.4287 55.2735 40.4092 55.3158 40.3701C55.3484 40.3441 55.3712 40.2578 55.3842 40.1113C55.4167 39.737 55.4346 39.4473 55.4379 39.2422L56.351 39.5303C56.3477 39.9046 56.3233 40.2611 56.2777 40.5996C56.2289 40.9967 56.0157 41.2327 55.6381 41.3076C55.4786 41.3402 55.2393 41.3564 54.9203 41.3564C54.4678 41.3564 54.1635 41.2995 54.0072 41.1855C53.8738 41.0879 53.807 40.9089 53.807 40.6484V38.6904H52.5863V38.793C52.5863 39.4538 52.5147 40.0007 52.3715 40.4336C52.2087 40.9089 51.9239 41.3109 51.517 41.6396L50.809 40.9316C51.2191 40.6452 51.473 40.2318 51.5707 39.6914C51.6163 39.4342 51.6391 39.1201 51.6391 38.749V37.8018ZM54.2953 44.7939C54.9171 45.2432 55.6413 45.6273 56.4682 45.9463L55.8871 46.918C54.8943 46.4525 54.1098 45.9837 53.5336 45.5117C52.8044 46.1237 52.072 46.6022 51.3363 46.9473L50.7699 46.0781C51.4828 45.834 52.1778 45.4336 52.8549 44.877C52.2462 44.2259 51.7839 43.5326 51.4682 42.7969H50.9799V41.8984H55.3598L55.8871 42.377C55.4444 43.3307 54.9138 44.1364 54.2953 44.7939ZM53.5727 44.1982C54.0284 43.6807 54.3409 43.2135 54.5102 42.7969H52.4691C52.7361 43.2819 53.086 43.7311 53.5189 44.1445L53.5727 44.1982ZM47.4301 37.8115H50.5307V38.6318H47.4301V37.8115ZM46.8686 39.2422H50.9701V40.1211H46.8686V39.2422ZM47.4301 40.7412H50.5307V41.5518H47.4301V40.7412ZM47.4301 42.1719H50.5307V42.9629H47.4301V42.1719Z" fill="#12929D"/>
</svg>
