<svg width="72" height="79" viewBox="0 0 72 79" fill="none" xmlns="http://www.w3.org/2000/svg">
<path fill-rule="evenodd" clip-rule="evenodd" d="M39.2996 71.8508C57.6353 70.1847 72 54.7699 72 36C72 16.1177 55.8823 0 36 0C16.1177 0 0 16.1177 0 36C0 54.7699 14.3647 70.1847 32.7004 71.8508L36 79L39.2996 71.8508Z" fill="#12929D"/>
<circle cx="36" cy="36" r="32" fill="white"/>
<path d="M24.5209 26.7979C24.6739 26.3812 24.8025 25.932 24.9066 25.4502L26.1566 25.6504C26.0232 26.041 25.8718 26.4235 25.7025 26.7979H29.2865V34.9521H28.1781V34.2588H23.0072V34.9521H21.9184V26.7979H24.5209ZM23.0072 27.7158V28.9805H28.1781V27.7158H23.0072ZM23.0072 29.8496V31.0996H28.1781V29.8496H23.0072ZM23.0072 31.959V33.3311H28.1781V31.959H23.0072ZM37.7627 27.5205L37.8115 25.4502H38.793L38.749 27.5205H40.5996C40.5671 31.1598 40.4303 33.3636 40.1895 34.1318C40.0853 34.4639 39.8965 34.6755 39.623 34.7666C39.4831 34.8154 39.2747 34.8398 38.998 34.8398C38.6367 34.8398 38.2949 34.8171 37.9727 34.7715L37.7822 33.7412C38.1566 33.8128 38.487 33.8486 38.7734 33.8486C39.0046 33.8486 39.1527 33.7852 39.2178 33.6582C39.2796 33.5345 39.3398 33.235 39.3984 32.7598C39.5156 31.8158 39.5905 30.4714 39.623 28.7266L39.6279 28.4824H38.6855C38.6302 29.9277 38.4577 31.1257 38.168 32.0762C37.8132 33.235 37.2581 34.1969 36.5029 34.9619L35.7021 34.3418C35.8617 34.1921 35.9902 34.0586 36.0879 33.9414C34.4603 34.2376 32.901 34.4574 31.4102 34.6006L31.1904 33.6777C32.001 33.6289 32.7708 33.5687 33.5 33.4971V32.8184H31.4004V32.0469H33.5V31.4902H31.6299V28.2822H33.5V27.7402H31.249V26.9785H33.5V26.5439C33.0085 26.5928 32.4486 26.6351 31.8203 26.6709L31.4688 25.9189C33.0312 25.8538 34.4261 25.6846 35.6533 25.4111L36.21 26.1191C35.6794 26.2526 35.0967 26.3584 34.4619 26.4365V26.9785H36.6494V27.5205H37.7627ZM37.7188 28.4824H36.6299V27.7402H34.4619V28.2822H36.3613V31.4902H34.4619V32.0469H36.4834V32.8184H34.4619V33.3994L34.8721 33.3604C35.4189 33.305 36.0098 33.2236 36.6445 33.1162C37.2565 31.9997 37.6113 30.499 37.709 28.6143L37.7188 28.4824ZM33.5293 28.9414H32.4697V29.5615H33.5293V28.9414ZM34.4326 28.9414V29.5615H35.5215V28.9414H34.4326ZM33.5293 30.1621H32.4697V30.8311H33.5293V30.1621ZM34.4326 30.1621V30.8311H35.5215V30.1621H34.4326ZM45.8287 27.9014V27.2275H41.898V26.3486H45.8287V25.4502H46.9078V26.3486H50.902V27.2275H46.9078V27.9014H50.2379V31.7881H46.9078V32.5059H51.151V33.4482H46.9078V34.9521H45.8287V33.4482H41.649V32.5059H45.8287V31.7881H42.5572V27.9014H45.8287ZM45.8287 28.7119H43.607V29.4199H45.8287V28.7119ZM46.9078 28.7119V29.4199H49.1783V28.7119H46.9078ZM45.8287 30.2109H43.607V30.9678H45.8287V30.2109ZM46.9078 30.2109V30.9678H49.1783V30.2109H46.9078ZM18.4078 40.3691C19.1565 40.8281 20.0761 41.458 21.1666 42.2588L21.357 42.4004C22.1318 41.248 22.7454 40.055 23.1979 38.8213L24.2672 39.3193C23.7398 40.5824 23.0725 41.8389 22.2652 43.0889C23.219 43.792 24.1093 44.5684 24.9361 45.418L24.1646 46.3018C23.6536 45.7419 22.8609 45.0176 21.7867 44.1289L21.6061 43.9824C20.3854 45.4603 18.9482 46.6761 17.2945 47.6299L16.5865 46.6582C18.0514 45.9062 19.4283 44.7767 20.7174 43.2695C19.7831 42.5859 18.8098 41.9154 17.7975 41.2578L18.4078 40.3691ZM26.6008 42.4785H35.1994V43.5771H26.6008V42.4785ZM36.8836 40.6377H39.8621C39.8881 39.915 39.9012 39.2689 39.9012 38.6992H41.034C41.0275 39.4414 41.0096 40.0876 40.9803 40.6377H44.574C44.5545 42.9456 44.4601 44.7148 44.2908 45.9453C44.2159 46.5052 44.0646 46.8893 43.8367 47.0977C43.5991 47.3125 43.1906 47.4199 42.6111 47.4199C42.1912 47.4199 41.7452 47.3857 41.2732 47.3174L41.0926 46.2188C41.6557 46.3197 42.1163 46.3701 42.4744 46.3701C42.7218 46.3701 42.8829 46.3327 42.9578 46.2578C43.0424 46.1764 43.1124 45.9225 43.1678 45.4961C43.3273 44.2331 43.4119 42.9473 43.4217 41.6387H40.9314C40.8077 42.9798 40.5229 44.054 40.077 44.8613C39.4975 45.9062 38.6268 46.7591 37.4646 47.4199L36.7225 46.5508C37.4516 46.1504 38.0734 45.6475 38.5877 45.042C38.9751 44.5863 39.2615 44.0703 39.4471 43.4941C39.6261 42.9505 39.7482 42.332 39.8133 41.6387H36.8836V40.6377ZM46.6 42.4785H55.1986V43.5771H46.6V42.4785Z" fill="#12929D"/>
</svg>
