<svg width="72" height="79" viewBox="0 0 72 79" fill="none" xmlns="http://www.w3.org/2000/svg">
<path fill-rule="evenodd" clip-rule="evenodd" d="M39.2996 71.8508C57.6353 70.1847 72 54.7699 72 36C72 16.1177 55.8823 0 36 0C16.1177 0 0 16.1177 0 36C0 54.7699 14.3647 70.1847 32.7004 71.8508L36 79L39.2996 71.8508Z" fill="#12929D"/>
<circle cx="36" cy="36" r="32" fill="white"/>
<path d="M35.9316 38.1797C36.9043 37.6445 37.8223 36.998 38.6855 36.2402L39.6289 37.1074C38.5977 37.8574 37.5918 38.4766 36.6113 38.9648C37.2559 39.6055 37.9414 40.1191 38.668 40.5059C39.1875 40.7793 39.8164 41.0293 40.5547 41.2559L39.7754 42.457C38.9316 42.0742 38.2578 41.6914 37.7539 41.3086C37.2852 40.957 36.8281 40.5215 36.3828 40.002C36.3984 40.2129 36.4062 40.4023 36.4062 40.5703C36.4062 41.3711 36.293 41.9922 36.0664 42.4336C35.8281 42.8984 35.4062 43.1309 34.8008 43.1309C34.3711 43.1309 33.8848 43.0977 33.3418 43.0312L33.0781 41.9062C33.7109 41.9922 34.1621 42.0352 34.4316 42.0352C34.627 42.0352 34.7637 41.9941 34.8418 41.9121C35.0488 41.6934 35.1523 41.1504 35.1523 40.2832C35.1523 40.1348 35.1465 39.9785 35.1348 39.8145C34.4121 40.4512 33.7129 40.9766 33.0371 41.3906C32.1895 41.9102 31.2637 42.3535 30.2598 42.7207L29.5273 41.7012C31.6328 41.0918 33.4199 40.0977 34.8887 38.7188C34.8262 38.5469 34.7656 38.3965 34.707 38.2676C33.4258 39.2637 31.9355 40.0352 30.2363 40.582L29.5742 39.5625C31.3633 39.1172 32.9219 38.4238 34.25 37.4824C34.1836 37.3926 34.0918 37.2812 33.9746 37.1484C32.8887 37.6797 31.7109 38.1016 30.4414 38.4141L29.7324 37.418C31.3418 37.1211 32.8477 36.6328 34.25 35.9531H31.373V34.9219H38.4922V35.9531H36.125C35.8008 36.1562 35.3965 36.3945 34.9121 36.668L34.9707 36.7383C35.3145 37.1094 35.6035 37.5469 35.8379 38.0508C35.8691 38.0938 35.9004 38.1367 35.9316 38.1797ZM35.5977 32.9766H40.2324V35.7715H38.9492V34.0078H30.916V35.7715H29.6445V32.9766H34.3145V31.7402H35.5977V32.9766Z" fill="#12929D"/>
</svg>
