<svg width="72" height="79" viewBox="0 0 72 79" fill="none" xmlns="http://www.w3.org/2000/svg">
<path fill-rule="evenodd" clip-rule="evenodd" d="M39.2996 71.8508C57.6353 70.1847 72 54.7699 72 36C72 16.1177 55.8823 0 36 0C16.1177 0 0 16.1177 0 36C0 54.7699 14.3647 70.1847 32.7004 71.8508L36 79L39.2996 71.8508Z" fill="#12929D"/>
<circle cx="36" cy="36" r="32" fill="white"/>
<path d="M15.0769 31.0742H16.4421V34.4375C18.7741 35.1562 20.7058 35.8906 22.237 36.6406L21.5808 37.9062C20.112 37.1602 18.3991 36.4512 16.4421 35.7793V41.7324H15.0769V31.0742ZM28.0959 34.2559C26.8616 33.7051 25.5784 33.2637 24.2463 32.9316L24.6565 31.6719C26.1995 32.0234 27.4944 32.4609 28.5413 32.9844L28.0959 34.2559ZM24.3928 40.0859C26.3264 39.9219 27.8069 39.5762 28.8342 39.0488C30.0452 38.4238 30.9748 37.4648 31.6233 36.1719C32.0452 35.3359 32.387 34.2422 32.6487 32.8906L33.7737 33.7168C33.4573 35.1621 33.0745 36.3105 32.6252 37.1621C31.8127 38.7129 30.5705 39.8359 28.8987 40.5312C27.844 40.9688 26.4338 41.2812 24.6682 41.4688L24.3928 40.0859ZM39.6795 30.9688H40.9978V32.8027H43.6462L44.3318 33.4883C43.4841 34.6094 42.4002 35.6465 41.0798 36.5996V41.9141H39.7615V37.4609C38.492 38.2148 37.1306 38.8477 35.6775 39.3594L35.0212 38.2285C36.9705 37.6543 38.7439 36.8086 40.3416 35.6914C41.1072 35.1562 41.7576 34.5859 42.2927 33.9805H36.0759V32.8027H39.6795V30.9688ZM45.1345 39.6348C43.9861 38.6543 42.7673 37.8047 41.4783 37.0859L42.3045 36.2598C43.6052 36.9199 44.8142 37.6914 45.9314 38.5742L45.1345 39.6348ZM49.5286 31.6543H50.847V33.7871C50.847 35.8301 50.6946 37.3223 50.3899 38.2637C49.9876 39.5098 49.1438 40.5488 47.8587 41.3809L46.9622 40.3379C47.8528 39.7129 48.4798 39.0645 48.843 38.3926C49.1477 37.8262 49.3489 37.0664 49.4466 36.1133C49.5013 35.5742 49.5286 34.8066 49.5286 33.8105V31.6543ZM52.5286 31.3145H53.847V39.6406C54.6243 39.2383 55.3059 38.666 55.8919 37.9238C56.5325 37.1113 57.011 36.1484 57.3274 35.0352L58.3587 36.0312C57.968 37.1914 57.4329 38.1816 56.7532 39.002C55.8977 40.0371 54.7766 40.8516 53.3899 41.4453L52.5286 40.7012V31.3145Z" fill="#12929D"/>
</svg>
