<svg width="175" height="25" viewBox="0 0 175 25" fill="none" xmlns="http://www.w3.org/2000/svg">
<path d="M4.54546 2C7.36734 9.12933 10.523 16.1386 14 23" stroke="#12929D" stroke-width="1.5" stroke-linecap="round" stroke-linejoin="round"/>
<path d="M1.00009 13.1172C2.76377 16.4722 4.73606 19.7707 6.90918 22.9995" stroke="#12929D" stroke-width="1.5" stroke-linecap="round" stroke-linejoin="round"/>
<path d="M29.1427 5.77246H39.5138V7.12598H29.1427V5.77246ZM40.7531 18.7275C38.9367 18.9971 37.047 19.1318 35.0841 19.1318C33.0568 19.1318 31.3957 18.959 30.1007 18.6133C29.4679 18.4434 28.9113 18.165 28.4308 17.7783C27.8273 17.2803 27.5255 16.6035 27.5255 15.748C27.5255 14.7051 27.9269 13.7793 28.7296 12.9707L29.8283 13.709C29.3009 14.3242 29.0373 14.9629 29.0373 15.625C29.0373 16.3047 29.4591 16.8115 30.3029 17.1455C31.1935 17.4971 32.7199 17.6729 34.882 17.6729C36.8976 17.6729 38.7902 17.5381 40.5597 17.2686L40.7531 18.7275ZM43.433 18.9473C44.2768 16.9727 45.3813 14.5615 46.7465 11.7139C48.2993 8.47363 49.5473 5.98926 50.4907 4.26074L51.7123 4.76172C50.3823 7.25781 48.9907 9.96484 47.5375 12.8828C48.6801 11.582 49.767 10.9316 50.7983 10.9316C51.5307 10.9316 52.0786 11.2158 52.4418 11.7842C52.7524 12.2646 52.9077 12.9326 52.9077 13.7881C52.9077 13.9932 52.893 14.2598 52.8637 14.5879C52.8227 15.1094 52.8022 15.5898 52.8022 16.0293C52.8022 16.6855 52.8608 17.1572 52.978 17.4443C53.1069 17.7666 53.3383 18.0127 53.6723 18.1826C53.9184 18.3057 54.1967 18.3672 54.5073 18.3672C55.4975 18.3672 56.2768 17.7549 56.8452 16.5303C57.3549 15.417 57.7563 13.8525 58.0493 11.8369L59.2885 12.6104C58.9545 14.79 58.518 16.4102 57.9789 17.4707C57.1996 19.0059 56.0248 19.7734 54.4545 19.7734C53.3061 19.7734 52.4829 19.3838 51.9848 18.6045C51.6215 18.042 51.4399 17.1807 51.4399 16.0205C51.4399 15.6924 51.4604 15.3145 51.5014 14.8867C51.5366 14.4766 51.5541 14.1543 51.5541 13.9199C51.5541 12.7891 51.2026 12.2236 50.4995 12.2236C49.9838 12.2236 49.4096 12.4785 48.7768 12.9883C47.9448 13.6562 47.2416 14.5352 46.6674 15.625C46.1752 16.5508 45.5424 17.9453 44.769 19.8086L43.433 18.9473ZM71.6101 9.92969H73.0339V14.8779C74.364 15.4639 75.7732 16.2666 77.2614 17.2861L76.5056 18.499C75.322 17.6377 74.1648 16.917 73.0339 16.3369C73.0046 18.6514 71.8239 19.8086 69.4919 19.8086C68.4314 19.8086 67.5612 19.583 66.8816 19.1318C66.1316 18.6338 65.7566 17.9336 65.7566 17.0312C65.7566 16.3867 65.9763 15.8213 66.4157 15.335C67.1247 14.5498 68.2409 14.1572 69.7644 14.1572C70.3327 14.1572 70.948 14.2363 71.6101 14.3945V9.92969ZM71.6101 15.7217C70.8952 15.4697 70.2097 15.3438 69.5534 15.3438C68.9089 15.3438 68.3816 15.4492 67.9714 15.6602C67.3737 15.9707 67.0749 16.4189 67.0749 17.0049C67.0749 17.4912 67.3005 17.8867 67.7517 18.1914C68.1736 18.4785 68.7507 18.6221 69.4831 18.6221C70.3093 18.6221 70.9099 18.2998 71.2849 17.6553C71.5017 17.2803 71.6101 16.8291 71.6101 16.3018V15.7217ZM62.2673 6.88867H65.5105C65.7741 6.02148 66.032 5.09277 66.2839 4.10254L67.6902 4.2959C67.4499 5.16895 67.198 6.0332 66.9343 6.88867H70.2829V8.14551H66.5212C65.4841 11.1572 64.2888 13.6768 62.9353 15.7041L61.7312 15.001C62.9968 13.1494 64.1189 10.8643 65.0974 8.14551H62.2673V6.88867ZM76.655 10.5801C75.4128 9.21484 73.9948 7.97852 72.4011 6.87109L73.2361 5.91309C74.7595 6.8916 76.2214 8.08691 77.6218 9.49902L76.655 10.5801ZM94.0479 19.123C92.4717 19.293 90.8164 19.3779 89.082 19.3779C86.3926 19.3779 84.5059 19.208 83.4219 18.8682C82.7246 18.6455 82.1621 18.3174 81.7344 17.8838C81.1953 17.3271 80.9258 16.6445 80.9258 15.8359C80.9258 14.7754 81.3389 13.7998 82.165 12.9092C82.5635 12.4814 82.9854 12.124 83.4307 11.8369C83.8936 11.5439 84.4502 11.2188 85.1006 10.8613C84.2041 8.74023 83.4951 6.68945 82.9736 4.70898L84.3975 4.33105C84.9424 6.42871 85.584 8.40918 86.3223 10.2725C88.4668 9.30566 90.8428 8.45312 93.4502 7.71484L93.8809 9.02441C91.0156 9.77441 88.3203 10.7588 85.7949 11.9775C84.582 12.5635 83.709 13.1611 83.1758 13.7705C82.6543 14.3799 82.3936 15.0215 82.3936 15.6953C82.3936 16.6035 82.9385 17.2334 84.0283 17.585C84.8838 17.8662 86.3926 18.0068 88.5547 18.0068C90.4297 18.0068 92.2109 17.8984 93.8984 17.6816L94.0479 19.123ZM99.5579 5.77246H109.929V7.12598H99.5579V5.77246ZM111.168 18.7275C109.352 18.9971 107.462 19.1318 105.499 19.1318C103.472 19.1318 101.811 18.959 100.516 18.6133C99.8831 18.4434 99.3264 18.165 98.846 17.7783C98.2425 17.2803 97.9407 16.6035 97.9407 15.748C97.9407 14.7051 98.3421 13.7793 99.1448 12.9707L100.243 13.709C99.7161 14.3242 99.4524 14.9629 99.4524 15.625C99.4524 16.3047 99.8743 16.8115 100.718 17.1455C101.609 17.4971 103.135 17.6729 105.297 17.6729C107.313 17.6729 109.205 17.5381 110.975 17.2686L111.168 18.7275ZM116.801 4.91992H125.23L126.021 6.01855C122.793 8.30371 120.279 10.1934 118.48 11.6875C120.08 10.9316 121.665 10.5537 123.235 10.5537C124.624 10.5537 125.787 10.8203 126.724 11.3535C128.019 12.0918 128.667 13.1963 128.667 14.667C128.667 16.7881 127.641 18.2207 125.59 18.9648C124.219 19.4629 122.268 19.7354 119.737 19.7822L119.271 18.4375C121.837 18.4023 123.689 18.1826 124.826 17.7783C126.343 17.2334 127.102 16.1992 127.102 14.6758C127.102 13.6914 126.721 12.9385 125.96 12.417C125.292 11.9658 124.392 11.7402 123.261 11.7402C121.761 11.7402 120.373 11.9746 119.095 12.4434C118.128 12.8008 117.053 13.5273 115.87 14.623L114.859 13.5771C117.214 11.1396 120.197 8.67285 123.806 6.17676H116.801V4.91992ZM133.368 19.7031C133.169 17.957 133.069 16.0908 133.069 14.1045C133.069 10.7061 133.312 7.55078 133.799 4.63867L135.205 4.7793C134.736 7.39844 134.502 10.4102 134.502 13.8145C134.502 15.8418 134.604 17.7373 134.809 19.501L133.368 19.7031ZM138.501 6.32617H146.631V7.67969H138.501V6.32617ZM147.158 18.6045C146.109 18.7744 144.87 18.8594 143.44 18.8594C141.665 18.8594 140.253 18.6484 139.204 18.2266C138.835 18.0801 138.507 17.8721 138.22 17.6025C137.651 17.0635 137.367 16.3867 137.367 15.5723C137.367 14.7754 137.569 14.0635 137.973 13.4365L139.16 13.999C138.902 14.3975 138.773 14.8779 138.773 15.4404C138.773 16.1553 139.139 16.665 139.872 16.9697C140.651 17.292 141.756 17.4531 143.185 17.4531C144.574 17.4531 145.848 17.3564 147.009 17.1631L147.158 18.6045Z" fill="#12929D"/>
<path d="M170.455 2C167.633 9.12933 164.477 16.1386 161 23" stroke="#12929D" stroke-width="1.5" stroke-linecap="round" stroke-linejoin="round"/>
<path d="M174 13.1172C172.236 16.4722 170.264 19.7707 168.091 22.9995" stroke="#12929D" stroke-width="1.5" stroke-linecap="round" stroke-linejoin="round"/>
</svg>
