<svg width="72" height="79" viewBox="0 0 72 79" fill="none" xmlns="http://www.w3.org/2000/svg">
<path fill-rule="evenodd" clip-rule="evenodd" d="M39.2996 71.8508C57.6353 70.1847 72 54.7699 72 36C72 16.1177 55.8823 0 36 0C16.1177 0 0 16.1177 0 36C0 54.7699 14.3647 70.1847 32.7004 71.8508L36 79L39.2996 71.8508Z" fill="#12929D"/>
<circle cx="36" cy="36" r="32" fill="white"/>
<path d="M18.7301 28.8096C18.7008 29.9684 18.6161 30.8783 18.4762 31.5391C18.3785 31.998 18.2369 32.4147 18.0514 32.7891C18.4094 33.0983 18.8652 33.3408 19.4186 33.5166C19.9557 33.6859 20.5367 33.7705 21.1617 33.7705H25.3219C25.2047 34.0114 25.094 34.3385 24.9898 34.752H21.1422C19.6187 34.752 18.4241 34.3776 17.5582 33.6289C17.1676 34.1628 16.7314 34.5908 16.2496 34.9131L15.5904 34.1221C16.1275 33.7868 16.5589 33.3734 16.8844 32.8818C16.4645 32.3317 16.0966 31.6921 15.7809 30.9629L16.5914 30.46C16.7542 30.9124 17.0113 31.4137 17.3629 31.9639C17.5452 31.4951 17.677 30.7611 17.7584 29.7617H15.942C16.4465 28.9251 16.8958 27.9616 17.2896 26.8711H15.7125V25.8896H18.1588L18.5592 26.2705C18.2011 27.2503 17.8528 28.0967 17.5143 28.8096H18.7301ZM22.192 29.791V30.3916H24.5992V31.1436H22.192V31.7686H24.9166V32.5596H22.192V33.541H21.1617V32.5596H18.8521V31.7686H21.1617V31.1436H18.9986V30.3916H21.1617V29.791H19.1891V29.0293H21.1617V28.4092H18.5982V27.6377H21.1617V27.0615H19.1891V26.2998H21.1617V25.4502H22.192V26.2998H24.3307V27.6084H25.1363V28.4287H24.3307V29.791H22.192ZM22.192 29.0293H23.3883V28.4092H22.192V29.0293ZM22.192 27.6377H23.3883V27.0615H22.192V27.6377ZM29.9504 31.5879V34.4492H27.3918V34.9521H26.4201V31.5879H29.9504ZM27.3918 32.4277V33.6191H28.9689V32.4277H27.3918ZM30.8391 25.8018H33.9689V28.1797C33.9689 28.2871 33.9852 28.3538 34.0178 28.3799C34.0601 28.4124 34.1333 28.4287 34.2375 28.4287C34.3807 28.4287 34.4735 28.4092 34.5158 28.3701C34.5484 28.3441 34.5712 28.2578 34.5842 28.1113C34.6167 27.737 34.6346 27.4473 34.6379 27.2422L35.551 27.5303C35.5477 27.9046 35.5233 28.2611 35.4777 28.5996C35.4289 28.9967 35.2157 29.2327 34.8381 29.3076C34.6786 29.3402 34.4393 29.3564 34.1203 29.3564C33.6678 29.3564 33.3635 29.2995 33.2072 29.1855C33.0738 29.0879 33.007 28.9089 33.007 28.6484V26.6904H31.7863V26.793C31.7863 27.4538 31.7147 28.0007 31.5715 28.4336C31.4087 28.9089 31.1239 29.3109 30.717 29.6396L30.009 28.9316C30.4191 28.6452 30.673 28.2318 30.7707 27.6914C30.8163 27.4342 30.8391 27.1201 30.8391 26.749V25.8018ZM33.4953 32.7939C34.1171 33.2432 34.8413 33.6273 35.6682 33.9463L35.0871 34.918C34.0943 34.4525 33.3098 33.9837 32.7336 33.5117C32.0044 34.1237 31.272 34.6022 30.5363 34.9473L29.9699 34.0781C30.6828 33.834 31.3778 33.4336 32.0549 32.877C31.4462 32.2259 30.9839 31.5326 30.6682 30.7969H30.1799V29.8984H34.5598L35.0871 30.377C34.6444 31.3307 34.1138 32.1364 33.4953 32.7939ZM32.7727 32.1982C33.2284 31.6807 33.5409 31.2135 33.7102 30.7969H31.6691C31.9361 31.2819 32.286 31.7311 32.7189 32.1445L32.7727 32.1982ZM26.6301 25.8115H29.7307V26.6318H26.6301V25.8115ZM26.0686 27.2422H30.1701V28.1211H26.0686V27.2422ZM26.6301 28.7412H29.7307V29.5518H26.6301V28.7412ZM26.6301 30.1719H29.7307V30.9629H26.6301V30.1719ZM43.2947 31.3291C43.4021 31.7165 43.534 32.0697 43.6902 32.3887C44.0158 32.0534 44.3071 31.71 44.5643 31.3584L45.2869 31.8613C44.9158 32.3431 44.5594 32.7516 44.2176 33.0869C44.1948 33.1097 44.1753 33.1292 44.159 33.1455C44.3478 33.3766 44.5431 33.5638 44.7449 33.707C44.8784 33.8014 44.9728 33.8486 45.0281 33.8486C45.0802 33.8486 45.1193 33.7933 45.1453 33.6826C45.1779 33.5361 45.2186 33.2025 45.2674 32.6816L46.0975 33.1309C46.0519 33.7168 45.9673 34.1644 45.8436 34.4736C45.7133 34.7992 45.5197 34.9619 45.2625 34.9619C45.0281 34.9619 44.7319 34.8496 44.3738 34.625C44.032 34.4102 43.7244 34.1302 43.451 33.7852C42.9529 34.2018 42.3816 34.6104 41.7371 35.0107L41.1854 34.3027C41.7973 33.9544 42.393 33.5394 42.9725 33.0576C42.6795 32.5042 42.4728 31.9281 42.3523 31.3291H41.1854C41.1658 31.5049 41.1365 31.6969 41.0975 31.9053C41.5304 32.1689 41.9227 32.4701 42.2742 32.8086L41.7566 33.5605C41.4995 33.2448 41.2114 32.9567 40.8924 32.6963C40.658 33.4548 40.269 34.1367 39.7254 34.7422L39.0564 34.0586C39.7205 33.2415 40.1176 32.3317 40.2479 31.3291H39.2762L39.1053 31.6611C38.9393 31.2282 38.77 30.8245 38.5975 30.4502V34.9521H37.6355V30.416C37.4077 31.2917 37.1115 32.0859 36.7469 32.7988L36.2879 31.7588C36.8576 30.7464 37.2693 29.638 37.5232 28.4336H36.4393V27.4619H37.6355V25.4502H38.5975V27.4619H39.4178V28.4336H38.5975V29.1709C38.9783 29.7373 39.2534 30.1637 39.4227 30.4502H42.2156C42.1017 29.4899 42.0382 28.4564 42.0252 27.3496L42.0057 25.4502H42.909L42.9285 27.3838C42.935 28.0186 42.9546 28.5703 42.9871 29.0391C43.0294 29.0358 43.0685 29.0342 43.1043 29.0342L43.2068 29.0293L43.3045 29.0244C43.3566 28.9561 43.4119 28.8844 43.4705 28.8096C43.5031 28.7705 43.6121 28.6224 43.7977 28.3652C43.5177 27.9388 43.241 27.5579 42.9676 27.2227L43.4021 26.9346C43.6756 26.5342 43.9311 26.0492 44.1687 25.4795L44.9158 25.9287C44.6424 26.4235 44.3299 26.8906 43.9783 27.3301C44.1118 27.5189 44.1997 27.6491 44.242 27.7207C44.4861 27.3496 44.7205 26.9769 44.9451 26.6025L45.6482 27.0615C45.2837 27.6019 44.7742 28.2399 44.1199 28.9756C44.4812 28.9463 44.7693 28.9186 44.9842 28.8926C44.9288 28.7428 44.8637 28.5898 44.7889 28.4336L45.4578 28.1553C45.7085 28.6663 45.8842 29.1953 45.9852 29.7422L45.2967 30.0107C45.2413 29.7731 45.2023 29.612 45.1795 29.5273C44.3592 29.6771 43.674 29.7747 43.1238 29.8203L43.0506 29.8301C43.0799 30.123 43.1027 30.3298 43.1189 30.4502H44.1004C44.0027 30.3363 43.8855 30.2158 43.7488 30.0889L44.4959 29.8105C44.6847 30.0319 44.8442 30.2451 44.9744 30.4502H45.9949V31.3291H43.2947ZM40.2576 28.4043C39.9451 27.9844 39.6521 27.6296 39.3787 27.3398L39.7498 27.0908C40.02 26.7327 40.3097 26.2152 40.6189 25.5381L41.3562 25.9092C41.1023 26.3779 40.7898 26.8613 40.4187 27.3594C40.5783 27.5547 40.6727 27.6719 40.702 27.7109C40.7247 27.6751 40.754 27.6279 40.7898 27.5693C40.9559 27.3024 41.1414 26.9785 41.3465 26.5977L41.9666 27.0615C41.563 27.7581 41.0665 28.4759 40.4773 29.2148C40.7898 29.1888 41.0665 29.1644 41.3074 29.1416C41.2553 28.9854 41.1951 28.8356 41.1268 28.6924L41.6687 28.3799C41.8641 28.79 42.0171 29.2604 42.1277 29.791L41.5662 30.1182C41.5304 29.9619 41.506 29.8561 41.493 29.8008C40.868 29.931 40.2023 30.04 39.4959 30.1279L39.2859 29.2881C39.4096 29.2816 39.5008 29.2767 39.5594 29.2734C39.5854 29.2734 39.6131 29.2718 39.6424 29.2686C39.7596 29.1221 39.9646 28.834 40.2576 28.4043ZM53.8656 32.1152C53.6052 31.0671 53.4294 29.8252 53.3383 28.3896C53.335 28.3604 53.3334 28.3327 53.3334 28.3066H50.2279V27.418H53.2748C53.2423 26.8223 53.2227 26.1663 53.2162 25.4502H54.1879C54.1977 26.3258 54.2156 26.9818 54.2416 27.418H56.3266V28.3066H54.2904C54.362 29.4427 54.4532 30.307 54.5639 30.8994C54.8503 30.2874 55.088 29.6624 55.2768 29.0244L56.1459 29.459C55.7683 30.5592 55.3435 31.4886 54.8715 32.2471C55.0049 32.7028 55.1547 33.082 55.3207 33.3848C55.3858 33.502 55.433 33.5605 55.4623 33.5605C55.5014 33.5605 55.5404 33.4727 55.5795 33.2969C55.6544 32.9779 55.7064 32.6051 55.7357 32.1787L56.5072 32.6963C56.3249 34.1969 56.001 34.9473 55.5355 34.9473C55.3109 34.9473 55.0684 34.7568 54.808 34.376C54.5867 34.0505 54.3865 33.6582 54.2074 33.1992C53.6573 33.8991 52.99 34.5143 52.2055 35.0449L51.5854 34.2979C52.4773 33.7705 53.2374 33.043 53.8656 32.1152ZM50.6674 30.2549V28.8633H51.5072V30.2549H52.0883V28.8633H52.8988V30.2549H53.3871V31.124H52.8988V33.1846H52.0883V31.124H51.5023C51.4861 31.8141 51.4324 32.3577 51.3412 32.7549C51.2175 33.292 50.9734 33.7917 50.6088 34.2539L49.9496 33.585C50.2914 33.1423 50.5063 32.6035 50.5941 31.9688C50.6332 31.7083 50.656 31.4268 50.6625 31.124H50.2475V30.6943L49.6859 31.583C49.5102 31.1761 49.3507 30.8343 49.2074 30.5576V34.9521H48.2064V30.5283C47.9232 31.3975 47.5701 32.195 47.1469 32.9209L46.6977 31.7832C47.3357 30.7806 47.8044 29.6673 48.1039 28.4434H46.8686V27.501H48.2064V25.4502H49.2074V27.501H49.9887V28.4434H49.2074V29.2637C49.6046 29.7194 49.9512 30.1572 50.2475 30.5771V30.2549H50.6674ZM55.3988 27.3398C55.1742 26.8646 54.891 26.3942 54.5492 25.9287L55.267 25.5723C55.599 25.9466 55.9018 26.3893 56.1752 26.9004L55.3988 27.3398ZM18.4078 40.3691C19.1565 40.8281 20.0761 41.458 21.1666 42.2588L21.357 42.4004C22.1318 41.248 22.7454 40.055 23.1979 38.8213L24.2672 39.3193C23.7398 40.5824 23.0725 41.8389 22.2652 43.0889C23.219 43.792 24.1093 44.5684 24.9361 45.418L24.1646 46.3018C23.6536 45.7419 22.8609 45.0176 21.7867 44.1289L21.6061 43.9824C20.3854 45.4603 18.9482 46.6761 17.2945 47.6299L16.5865 46.6582C18.0514 45.9062 19.4283 44.7767 20.7174 43.2695C19.7831 42.5859 18.8098 41.9154 17.7975 41.2578L18.4078 40.3691ZM26.6008 42.4785H35.1994V43.5771H26.6008V42.4785ZM36.8836 40.6377H39.8621C39.8881 39.915 39.9012 39.2689 39.9012 38.6992H41.034C41.0275 39.4414 41.0096 40.0876 40.9803 40.6377H44.574C44.5545 42.9456 44.4601 44.7148 44.2908 45.9453C44.2159 46.5052 44.0646 46.8893 43.8367 47.0977C43.5991 47.3125 43.1906 47.4199 42.6111 47.4199C42.1912 47.4199 41.7452 47.3857 41.2732 47.3174L41.0926 46.2188C41.6557 46.3197 42.1163 46.3701 42.4744 46.3701C42.7218 46.3701 42.8829 46.3327 42.9578 46.2578C43.0424 46.1764 43.1124 45.9225 43.1678 45.4961C43.3273 44.2331 43.4119 42.9473 43.4217 41.6387H40.9314C40.8077 42.9798 40.5229 44.054 40.077 44.8613C39.4975 45.9062 38.6268 46.7591 37.4646 47.4199L36.7225 46.5508C37.4516 46.1504 38.0734 45.6475 38.5877 45.042C38.9751 44.5863 39.2615 44.0703 39.4471 43.4941C39.6261 42.9505 39.7482 42.332 39.8133 41.6387H36.8836V40.6377ZM46.6 42.4785H55.1986V43.5771H46.6V42.4785Z" fill="#12929D"/>
</svg>
