<svg width="72" height="79" viewBox="0 0 72 79" fill="none" xmlns="http://www.w3.org/2000/svg">
<path fill-rule="evenodd" clip-rule="evenodd" d="M39.2996 71.8508C57.6353 70.1847 72 54.7699 72 36C72 16.1177 55.8823 0 36 0C16.1177 0 0 16.1177 0 36C0 54.7699 14.3647 70.1847 32.7004 71.8508L36 79L39.2996 71.8508Z" fill="#12929D"/>
<circle cx="36" cy="36" r="32" fill="white"/>
<path d="M23.0465 39.2285C23.6389 39.5508 24.373 39.8161 25.2486 40.0244L24.609 40.8838C22.4605 40.2165 21.0478 39.2008 20.3707 37.8369C20.0224 38.1331 19.6253 38.4017 19.1793 38.6426V39.8047C20.1493 39.6224 20.9225 39.458 21.4986 39.3115L21.5279 40.1123C20.343 40.4801 18.8603 40.7764 17.0797 41.001L16.7672 40.1318C17.262 40.0798 17.7096 40.0244 18.11 39.9658V39.1309C17.5566 39.3522 16.8355 39.5638 15.9469 39.7656L15.4488 38.9453C16.9462 38.6621 18.1637 38.2715 19.1012 37.7734H15.649V36.9824H19.8482V36.5918H20.9078V36.9824H25.151V37.7734H23.8082L24.4869 38.2812C24.0898 38.6035 23.6096 38.9193 23.0465 39.2285ZM22.2896 38.7451C22.7714 38.4456 23.1913 38.1217 23.5494 37.7734H21.3326C21.6223 38.1576 21.9413 38.4814 22.2896 38.7451ZM17.441 32.1484H18.1783V31.4502H19.1402V32.1484H21.0787V32.8467H19.1402V33.3301H21.3961V34.0381H19.1402V34.4678H21.0787V35.9082C21.0787 36.1523 21.0234 36.3102 20.9127 36.3818C20.8248 36.4404 20.6474 36.4697 20.3805 36.4697C20.0159 36.4697 19.7522 36.4567 19.5895 36.4307L19.4674 35.7617C19.6464 35.7878 19.8401 35.8008 20.0484 35.8008C20.1201 35.8008 20.164 35.7861 20.1803 35.7568C20.1933 35.7373 20.1998 35.695 20.1998 35.6299V35.1172H19.1402V36.582H18.1783V35.1172H17.2066V36.5234H16.2789V34.4678H18.1783V34.0381H15.649V33.3301H16.5426L15.8297 32.7881C16.2431 32.4137 16.5556 31.984 16.7672 31.499L17.6559 31.6895C17.594 31.8392 17.5224 31.9922 17.441 32.1484ZM17.0016 32.8467C16.8681 33.0257 16.7298 33.1868 16.5865 33.3301H18.1783V32.8467H17.0016ZM21.6988 31.9189H22.6705V35.1416H21.6988V31.9189ZM23.5885 31.4502H24.5895V35.6494C24.5895 36.027 24.4983 36.2744 24.316 36.3916C24.1826 36.4762 23.9286 36.5186 23.5543 36.5186C23.1474 36.5186 22.7714 36.4958 22.4264 36.4502L22.2555 35.6592C22.721 35.721 23.079 35.752 23.3297 35.752C23.4599 35.752 23.5364 35.7243 23.5592 35.6689C23.5787 35.6266 23.5885 35.5632 23.5885 35.4785V31.4502ZM27.4797 35.1172C27.0565 34.5215 26.5861 33.973 26.0686 33.4717L26.6691 32.7734C26.7375 32.8385 26.8059 32.9053 26.8742 32.9736L26.9377 33.0371C27.2925 32.5391 27.6197 31.9906 27.9191 31.3916L28.798 31.8799C28.4335 32.4658 27.9989 33.0599 27.4943 33.6621C27.7482 33.9779 27.9403 34.2253 28.0705 34.4043C28.5718 33.7956 29.0389 33.1689 29.4719 32.5244L30.2385 33.0811C29.5549 34.0186 28.7899 34.9235 27.9436 35.7959C28.4286 35.7633 28.9006 35.7259 29.3596 35.6836C29.2587 35.3971 29.1545 35.1335 29.0471 34.8926L29.8381 34.5898C30.1148 35.1497 30.3524 35.8171 30.551 36.5918V32.4512C31.9963 32.3112 33.3195 32.041 34.5207 31.6406L35.1945 32.4902C34.7323 32.6465 34.2115 32.7897 33.632 32.9199C33.6353 33.2812 33.6581 33.999 33.7004 35.0732L35.5217 34.9512L35.5607 35.9424L33.7687 36.0303C33.8762 37.2087 34.0715 38.1836 34.3547 38.9551C34.4882 39.3229 34.5744 39.5052 34.6135 39.502C34.6428 39.502 34.6818 39.3831 34.7307 39.1455C34.786 38.8818 34.8267 38.527 34.8527 38.0811L35.6926 38.7012L35.6486 38.9404C35.5152 39.6566 35.3996 40.1318 35.302 40.3662C35.1587 40.708 34.9715 40.8789 34.7404 40.8789C34.5061 40.8789 34.2505 40.7064 33.9738 40.3613C33.632 39.9382 33.3472 39.2529 33.1193 38.3057C32.9663 37.6644 32.8557 36.9173 32.7873 36.0645L31.5227 36.1475V39.4385C32.0923 39.2627 32.6132 39.0837 33.0852 38.9014L33.2121 39.7803C32.2323 40.249 31.272 40.5892 30.3312 40.8008L29.9309 39.8438C30.1848 39.7884 30.3915 39.7412 30.551 39.7021V36.7676L29.7209 37.0703C29.6753 36.8229 29.6281 36.6048 29.5793 36.416C29.3579 36.4518 29.1268 36.486 28.8859 36.5186L28.759 36.5381V40.9521H27.7775V36.6504L27.6604 36.665C27.1818 36.7139 26.7049 36.7529 26.2297 36.7822L26.0295 35.874L26.3566 35.8643C26.5064 35.8577 26.6643 35.8512 26.8303 35.8447C27.0288 35.6331 27.2453 35.3906 27.4797 35.1172ZM32.6506 33.1104C32.3739 33.1624 31.9979 33.2178 31.5227 33.2764V35.1855L32.7189 35.1123C32.6734 34.2952 32.6506 33.6279 32.6506 33.1104ZM26.0686 39.8096C26.3062 39.1878 26.4527 38.3382 26.508 37.2607L27.4309 37.3682C27.382 38.5107 27.2355 39.4645 26.9914 40.2295L26.0686 39.8096ZM29.34 39.3115C29.2684 38.6279 29.1415 37.9769 28.9592 37.3584L29.7502 37.1484C29.9553 37.819 30.0985 38.4098 30.1799 38.9209L29.34 39.3115ZM43.7342 34.4385V35.2393H38.8123V34.6533C38.2459 35.0342 37.629 35.363 36.9617 35.6396L36.3318 34.751C38.2101 34.0479 39.6066 32.9476 40.5213 31.4502H41.7225C42.4516 32.3389 43.3191 33.0501 44.325 33.584C44.7807 33.8281 45.3504 34.0804 46.034 34.3408L45.5115 35.3076C44.8084 35.0049 44.2159 34.7152 43.7342 34.4385ZM43.5291 34.3213C42.6827 33.8167 41.8901 33.1592 41.1512 32.3486C40.6043 33.1364 39.9777 33.7939 39.2713 34.3213H43.5291ZM40.7703 37.3926C40.3569 38.1836 39.8979 38.9046 39.3934 39.5557L39.5496 39.5508C40.9038 39.4857 42.1359 39.3864 43.2459 39.2529C42.9041 38.8688 42.5314 38.4928 42.1277 38.125L43.0506 37.5928C43.9751 38.4033 44.8182 39.2904 45.5799 40.2539L44.5984 40.9424C44.3185 40.5615 44.0809 40.2507 43.8855 40.0098L43.7244 40.0342C41.9796 40.3141 39.8475 40.5404 37.3279 40.7129L36.9812 39.6631C37.2384 39.6566 37.4809 39.6468 37.7088 39.6338L38.1678 39.6143C38.643 38.9111 39.063 38.1706 39.4275 37.3926H36.6199V36.4307H45.7898V37.3926H40.7703ZM49.7348 35.7666C50.2816 36.0856 50.8562 36.5104 51.4584 37.041L50.8578 38.0029C50.4542 37.5798 50.0489 37.1891 49.642 36.8311V40.9521H48.6117V37.002C48.2081 37.3926 47.7914 37.7458 47.3617 38.0615L46.7318 37.1729C47.4643 36.6781 48.1381 36.0872 48.7533 35.4004C49.1667 34.9382 49.5053 34.4824 49.7689 34.0332H47.0639V33.0518H48.5824V31.4502H49.6225V33.0518H50.7113L51.1996 33.5205C50.8448 34.2367 50.3565 34.9854 49.7348 35.7666ZM53.0648 34.248V31.4502H54.1439V34.248H56.2143V35.2295H54.1439V39.6094H56.3607V40.6104H50.6234V39.6094H53.0648V35.2295H51.0336V34.248H53.0648Z" fill="#12929D"/>
</svg>
