<svg width="1440" height="896" viewBox="0 0 1440 896" fill="none" xmlns="http://www.w3.org/2000/svg">
<path fill-rule="evenodd" clip-rule="evenodd" d="M0 0H1440V879.128C1440 879.128 1079.5 841.165 720 879.128C360.5 917.09 0 879.128 0 879.128V0ZM605.705 285.797C608.501 295.476 611.298 305.161 614.095 314.846C614.128 314.959 614.14 315.077 614.132 315.195C613.721 320.924 613.347 326.626 612.974 332.328C612.596 338.088 612.219 343.848 611.803 349.636C611.438 354.693 610.712 360.422 606.583 363.361C605.306 364.272 603.732 364.901 602.182 365.52C599.302 366.671 596.502 367.79 595.82 370.625C595.434 372.235 595.951 373.863 596.463 375.475C596.608 375.931 596.752 376.385 596.875 376.838C599.605 386.874 592.26 395.605 585.196 404.003C583.421 406.112 581.665 408.2 580.09 410.283C578.729 412.08 577.492 414.052 576.894 416.201C576.756 416.698 576.295 417.05 575.782 417.003C572.711 416.722 569.64 416.442 566.568 416.162L566.384 416.146C563.051 415.842 559.718 415.538 556.386 415.233C550.093 414.661 542.697 413.357 539.996 407.645C539.605 406.822 539.34 405.946 539.076 405.07L539.076 405.07L539.076 405.069C538.766 404.042 538.456 403.017 537.943 402.081C536.994 400.346 534.9 398.924 533.084 399.715C532.152 400.116 531.532 400.995 530.96 401.827C530.188 402.951 529.415 404.077 528.643 405.202C528.233 405.799 527.824 406.396 527.414 406.992C527.039 407.539 526.664 408.085 526.289 408.63C525.204 410.2 523.883 411.923 521.984 412.106C519.164 412.377 517.354 409.173 516.699 406.418C516.654 406.229 516.61 406.037 516.565 405.844C515.953 403.222 515.273 400.304 512.889 399.172C510.206 397.903 507.086 399.797 505.074 401.986C504.65 402.448 504.237 402.933 503.822 403.419L503.821 403.421C502.271 405.238 500.704 407.076 498.48 407.816C495.946 408.663 493.36 407.854 490.735 407.033C488.805 406.43 486.853 405.82 484.886 405.857C479.589 405.957 475.632 410.554 472.412 414.755C470.138 417.721 467.866 420.685 465.593 423.65L461.091 429.524L460.101 430.815C456.658 435.308 453.214 439.8 449.769 444.294C448.973 445.332 448.136 446.406 446.956 446.978C443.335 448.737 439.425 444.689 438.475 440.771C438.165 439.492 437.994 438.16 437.824 436.831C437.474 434.096 437.125 431.375 435.561 429.159C432.607 424.981 426.349 424.456 421.619 426.409C417.682 428.034 414.48 430.948 411.307 433.835L411.305 433.837C410.666 434.418 410.029 434.998 409.386 435.567C406.244 438.342 402.876 440.914 399.364 443.218C398.927 443.505 398.777 444.078 399.034 444.533C400.016 446.276 401.108 447.974 402.196 449.668C405.274 454.455 408.324 459.2 408.779 464.775C409.257 470.61 406.738 476.234 404.273 481.55C401.395 487.752 398.428 494.101 393.586 498.927C391.622 500.881 389.277 502.517 386.742 503.681C386.442 503.819 386.223 504.089 386.158 504.413C385.832 506.022 385.451 507.634 385.072 509.242C383.418 516.249 381.784 523.17 384.757 529.457C387.008 534.212 391.475 537.501 395.883 540.747C401.129 544.609 406.291 548.41 407.534 554.547C409.233 562.925 401.937 570.856 393.834 573.564C387.746 575.599 381.269 575.582 374.802 575.566C372.661 575.56 370.52 575.555 368.396 575.624C359.856 575.907 350.555 577.883 345.258 584.592C344.585 585.445 343.945 586.388 343.301 587.336C341.145 590.511 338.943 593.754 335.314 593.904C330.87 594.089 328.746 589.797 326.567 585.392C324.518 581.251 322.42 577.011 318.299 576.302C313.893 575.547 310.225 579.483 307.5 583.029C305.674 585.404 303.847 587.779 302.021 590.154C300.194 592.529 298.367 594.904 296.541 597.279C293.775 600.872 290.968 604.542 289.417 608.809C288.477 611.391 288.044 614.083 287.91 616.817C287.875 617.537 287.13 618.013 286.472 617.718L270.614 610.591C268.686 609.723 266.155 608.962 264.699 610.49C263.655 611.588 263.773 613.305 263.932 614.809C264.651 621.69 264.799 628.629 264.368 635.532C264.238 637.651 263.926 640.011 262.269 641.339C261.053 642.315 259.417 642.478 257.797 642.64C255.999 642.82 254.22 642.998 253.056 644.283C252.213 645.216 251.963 646.46 251.711 647.717C251.529 648.622 251.346 649.535 250.939 650.343C248.863 654.456 242.876 653.712 238.441 652.491C237.391 652.202 236.194 651.942 235.274 652.52C234.578 652.957 234.23 653.765 233.917 654.526C233.632 655.226 233.347 655.925 233.063 656.624L232.479 658.055C232.117 658.942 231.756 659.828 231.394 660.715C231.192 661.211 230.636 661.46 230.135 661.272C224.953 659.326 220.055 656.632 215.634 653.303C215.003 652.829 214.08 653.211 213.984 653.995C213.002 661.964 211.334 669.848 208.999 677.533C207.884 681.191 206.162 685.28 202.517 686.431C199.773 687.296 196.992 686.184 194.203 685.068C191.477 683.978 188.744 682.884 186.032 683.634C182.661 684.566 181 687.752 179.303 691.008C177.907 693.687 176.485 696.414 174.065 697.973C170.709 700.132 166.339 699.477 162.429 698.675C151.382 696.397 140.459 693.53 129.719 690.084C126.339 688.998 122.912 687.824 120.076 685.688C114.307 681.345 111.984 673.904 109.996 666.959C108.608 662.113 107.215 657.023 107.684 652.081C107.73 651.586 108.152 651.22 108.649 651.217L114.172 651.186C114.682 651.183 115.117 651.565 115.134 652.075C115.203 654.229 114.635 656.403 113.532 658.256C113.121 658.947 113.514 659.911 114.316 659.976C120.184 660.452 126.111 660.14 131.895 659.064C132.88 658.881 133.894 658.657 134.673 658.031C135.482 657.38 136.029 656.333 136.555 655.326C137.358 653.786 138.114 652.338 139.686 652.538C141.119 652.721 141.88 654.497 141.526 655.901C141.172 657.306 140.075 658.38 139.031 659.377C140.514 661.499 142.003 663.616 143.491 665.733L143.497 665.74L143.502 665.748L143.52 665.773C144.222 666.77 145 667.832 146.156 668.216C148.279 668.924 150.379 667.036 151.5 665.1C151.719 664.722 151.929 664.329 152.139 663.935C153.007 662.314 153.889 660.664 155.493 659.843C157.249 658.943 159.94 660.303 159.865 662.007C159.845 662.443 159.877 662.947 160.274 663.128C162.005 663.915 164.284 661.803 165.389 659.902C166.023 658.822 166.651 657.742 167.278 656.662L167.288 656.645C167.813 655.742 168.356 654.821 169.17 654.167C170.518 653.087 172.302 652.934 174.058 652.784C174.499 652.746 174.938 652.708 175.369 652.656C181.992 651.848 187.365 647.115 192.278 642.607C193.552 641.439 194.903 640.135 195.174 638.424C195.254 637.927 195.236 637.424 195.218 636.921C195.204 636.534 195.19 636.147 195.221 635.763C195.604 631.136 201.443 629.585 205.997 628.688C221.384 625.655 235.486 616.532 244.557 603.734C245.151 602.893 245.568 601.609 244.966 600.873C244.404 600.186 243.607 599.11 243.985 598.308C245.748 594.562 245.366 589.867 243.731 585.967C242.017 581.889 239.156 578.444 236.32 575.027C235.926 574.553 235.533 574.08 235.144 573.605C230.184 567.563 225.684 561.143 221.691 554.417C220.517 552.44 219.355 550.292 219.473 547.997C219.555 546.413 220.242 544.934 220.925 543.464C221.718 541.757 222.505 540.063 222.334 538.231C222.118 535.917 220.495 534.203 218.848 532.463C217.563 531.106 216.263 529.733 215.604 528.047C213.681 523.132 217.539 518.886 221.377 514.661C222.765 513.133 224.15 511.609 225.259 510.056C227.789 506.516 229.012 502.169 230.224 497.866C231.802 492.256 233.36 486.722 237.763 483.149C239.105 482.06 240.678 481.189 242.24 480.325C245.179 478.698 248.079 477.093 249.334 474.092C250.261 471.878 250.048 469.367 249.837 466.886C249.588 463.951 249.343 461.059 250.992 458.75C252.093 457.207 253.835 456.288 255.514 455.403L255.657 455.328C263.649 451.109 271.08 446.082 278.122 440.511C296.53 425.943 312.159 407.562 327.382 389.483C351.304 361.077 375.633 331.981 388.461 298.897C390.59 285.886 392.041 272.763 392.807 259.599C392.967 256.908 393.079 254.123 392.135 251.597C391.636 250.264 390.866 249.061 390.096 247.858C389.793 247.384 389.49 246.91 389.204 246.429C384.427 238.376 384.633 228.661 384.835 219.136L384.835 219.133C384.877 217.156 384.919 215.187 384.916 213.243C384.916 210.494 383.489 206.688 380.852 207.467C380.019 207.71 379.444 208.371 378.861 209.041C378.496 209.462 378.128 209.885 377.691 210.211C375.173 212.075 371.292 209.75 370.578 206.7C369.858 203.649 371.292 200.528 372.914 197.849C374.039 195.99 375.294 194.117 376.56 192.226C381.804 184.396 387.247 176.268 384.544 167.685C384.339 167.039 384.089 166.404 383.839 165.769C383.312 164.432 382.786 163.097 382.686 161.672C382.403 157.512 385.759 154.078 388.997 151.452C394.441 147.039 400.309 143.156 406.496 139.869C410.006 138.011 414.4 136.359 417.767 138.471C418.611 138.997 419.302 139.719 419.994 140.44L419.994 140.441C420.7 141.178 421.406 141.915 422.273 142.442C425.877 144.637 430.46 142.477 434.093 140.336C440.987 136.276 447.888 132.21 454.783 128.145C456.422 127.177 458.115 126.162 459.153 124.569C459.555 123.952 459.844 123.27 460.133 122.589C460.462 121.812 460.792 121.035 461.288 120.356C462.603 118.562 464.839 117.754 466.944 117.046L474.338 114.548L474.367 114.538C484.135 111.238 493.901 107.938 503.671 104.643C505.859 103.905 508.247 103.162 510.424 103.941C513.685 105.109 514.894 109.003 515.661 112.384C516.776 117.3 517.454 123.478 513.355 126.41C512.273 127.183 511.001 127.595 509.729 128.008C509.233 128.168 508.738 128.329 508.253 128.511C501.04 131.219 496.422 139.521 497.92 147.08C498.116 148.071 498.405 149.053 498.692 150.034L498.693 150.034C499.296 152.092 499.898 154.142 499.642 156.244C498.87 162.604 491.185 165.378 484.797 165.838C484.134 165.886 483.461 165.928 482.781 165.97C476.915 166.336 470.614 166.729 466.903 171.107C465.398 172.878 464.559 175.087 463.729 177.273L463.729 177.273C463.596 177.623 463.464 177.971 463.329 178.318C461.2 183.788 458.139 189.139 453.326 192.497C448.507 195.854 441.636 196.751 436.806 193.412C435.672 192.627 434.688 191.648 433.705 190.67C432.53 189.501 431.358 188.334 429.935 187.505C427.322 185.977 423.123 186.349 422.25 189.246C421.927 190.314 422.149 191.419 422.373 192.534C422.517 193.255 422.663 193.981 422.663 194.704C422.663 197.53 420.561 199.716 418.476 201.885C416.294 204.154 414.131 206.405 414.411 209.349C415.538 209.919 416.668 210.493 417.797 211.067C418.416 211.382 418.534 212.22 418.09 212.754C414.32 217.301 414.266 224.63 418.013 229.203C418.394 229.669 419.1 229.62 419.468 229.143C420.028 228.414 420.589 227.685 421.149 226.957C421.797 226.115 422.445 225.273 423.093 224.431C423.36 224.084 423.825 223.944 424.219 224.135C426.642 225.308 428.271 227.657 429.871 229.965C430.283 230.559 430.693 231.15 431.114 231.718C433.314 234.692 437.048 237.454 440.451 235.996C443.075 234.87 444.081 231.873 445.017 229.087C445.131 228.748 445.243 228.412 445.358 228.084C446.34 225.261 448.594 222.163 451.412 222.36C451.805 222.387 452.098 222.709 452.168 223.097C454.578 236.421 456.409 251.37 450.754 263.015C449.64 265.305 448.271 267.482 446.52 269.482C445.447 270.708 444.234 271.915 443.013 273.131L443.013 273.131C438.796 277.33 434.472 281.634 435.414 287.184C436.317 292.5 441.277 294.96 446.402 297.503C449.475 299.027 452.607 300.581 454.96 302.797C456.003 303.78 456.892 304.905 457.783 306.03C458.538 306.985 459.294 307.94 460.144 308.81C463.093 311.819 467.05 313.648 471.09 314.817C477.767 316.752 484.797 317.041 491.745 317.313C503.187 317.767 515.95 317.755 524.337 309.954C530.376 304.337 532.759 295.71 533.019 287.461C533.04 286.774 533.049 286.082 533.058 285.39C533.096 282.409 533.135 279.41 534.145 276.628C536.215 270.928 541.966 267.328 547.781 265.623C551.019 264.674 554.359 264.176 557.702 263.678C560.363 263.282 563.026 262.885 565.64 262.26C572.055 260.728 577.997 257.861 583.822 254.719C584.2 254.515 584.666 254.574 584.981 254.866C586.055 255.863 587.129 256.859 588.204 257.853L588.246 257.892C588.83 258.434 589.415 258.975 589.999 259.516C593.248 262.525 596.528 265.576 599.005 269.252C602.343 274.209 604.047 280.056 605.705 285.797ZM446.69 208.432C448.336 207.576 450.329 207.039 452.016 207.806H452.022C451.745 207.364 452.506 207.399 453.149 207.747C453.791 208.096 454.269 208.863 454.039 209.559C453.924 209.9 453.672 210.158 453.417 210.418C453.254 210.586 453.089 210.754 452.96 210.946C452.482 211.651 452.556 212.513 452.633 213.391C452.683 213.975 452.734 214.567 452.624 215.123C452.376 216.362 451.326 217.318 450.146 217.761C448.967 218.203 447.669 218.203 446.413 218.109C444.868 217.991 443.34 217.749 441.836 217.377C441.743 217.354 441.649 217.331 441.556 217.307C440.852 217.131 440.142 216.953 439.418 217.005C438.315 217.083 437.344 217.678 436.386 218.265C436.181 218.39 435.978 218.515 435.773 218.634C433.526 219.938 430.689 220.64 428.336 219.537C425.983 218.433 424.75 215.017 426.49 213.087C427.103 212.403 427.976 212.002 428.861 211.754C430.873 211.191 432.99 211.343 435.103 211.495C437.395 211.66 439.68 211.824 441.819 211.075C442.928 210.685 443.933 210.069 444.939 209.452C445.516 209.098 446.093 208.744 446.69 208.432Z" fill="#12929D" fill-opacity="0.8"/>
<path d="M337.125 485.522C341.132 484.815 345.305 484.214 349.229 485.298C359.762 488.215 364.455 501.833 374.97 504.791C381.56 506.647 388.753 503.571 393.605 498.751C398.458 493.931 401.431 487.59 404.315 481.397C406.786 476.088 409.31 470.472 408.831 464.644C408.051 455.116 399.652 448.015 396.537 438.976C392.394 426.949 398.156 413.672 396.383 401.08C395.101 391.958 389.905 383.567 389.651 374.362C389.409 365.5 393.771 357.179 395.101 348.411C395.893 343.19 395.668 337.616 398.222 332.99C400.917 328.117 406.171 325.265 409.824 321.057C421.024 308.135 415.155 285.389 428.005 274.093C431.308 271.188 435.469 269.473 439.548 267.817C443.33 266.273 447.113 264.735 450.896 263.191C456.653 251.376 454.667 236.156 452.196 222.691C449.075 221.931 446.546 225.278 445.488 228.307C444.436 231.336 443.52 234.948 440.57 236.209C437.16 237.664 433.419 234.906 431.214 231.937C429.003 228.967 427.1 225.354 423.625 224.076C422.035 226.138 420.439 228.201 418.849 230.263C413.997 225.466 414.138 216.604 419.145 211.96C417.59 211.171 416.03 210.381 414.475 209.597C413.926 203.846 422.744 200.747 422.744 194.972C422.744 193.133 421.799 191.277 422.33 189.521C423.205 186.628 427.413 186.257 430.032 187.783C432.65 189.303 434.423 191.961 436.918 193.681C441.758 197.017 448.644 196.121 453.473 192.768C458.296 189.415 461.363 184.07 463.497 178.608C464.478 176.098 465.329 173.458 467.079 171.407C471.228 166.528 478.61 166.605 485.011 166.145C491.412 165.685 499.114 162.916 499.888 156.563C500.266 153.464 498.771 150.476 498.162 147.412C496.661 139.864 501.289 131.573 508.517 128.868C510.249 128.22 512.123 127.843 513.63 126.77C517.738 123.841 517.058 117.672 515.941 112.763C515.173 109.387 513.961 105.498 510.692 104.331C508.511 103.553 506.118 104.295 503.925 105.032C491.655 109.157 479.39 113.288 467.12 117.418C465.01 118.126 462.77 118.933 461.452 120.724C460.518 121.997 460.175 123.612 459.312 124.932C458.272 126.523 456.576 127.536 454.933 128.503C448.023 132.563 441.108 136.623 434.199 140.677C430.558 142.816 425.965 144.973 422.354 142.78C420.634 141.737 419.547 139.875 417.838 138.815C414.464 136.705 410.06 138.355 406.543 140.211C400.343 143.493 394.462 147.371 389.007 151.779C385.762 154.401 382.399 157.83 382.683 161.985C382.831 164.082 383.906 165.986 384.545 167.989C387.908 178.631 378.687 188.572 372.889 198.113C371.264 200.788 369.827 203.905 370.549 206.952C371.264 209.998 375.153 212.32 377.677 210.458C378.811 209.615 379.485 208.112 380.845 207.718C383.487 206.94 384.917 210.741 384.917 213.487C384.935 224.783 383.433 236.916 389.214 246.627C390.231 248.33 391.454 249.933 392.151 251.789C393.097 254.311 392.985 257.092 392.825 259.779C392.057 272.926 390.603 286.031 388.469 299.025C375.614 332.065 351.233 361.122 327.26 389.489C312.005 407.544 296.342 425.9 277.896 440.449C285.928 459.111 296.845 476.535 310.238 491.839C319.074 489.246 328.064 487.136 337.136 485.539L337.125 485.522Z" stroke="white" stroke-width="3" stroke-miterlimit="10"/>
<path d="M421.703 426.328C421.702 426.328 421.702 426.326 421.703 426.326C426.442 424.378 432.71 424.904 435.67 429.08C437.999 432.368 437.638 436.77 438.59 440.677C439.541 444.589 443.46 448.632 447.089 446.876C448.271 446.304 449.11 445.232 449.908 444.195C457.474 434.36 465.033 424.531 472.599 414.696C475.826 410.5 479.792 405.91 485.099 405.81C489.751 405.721 494.314 409.233 498.723 407.766C501.548 406.829 503.316 404.13 505.331 401.944C507.347 399.758 510.473 397.866 513.162 399.133C515.728 400.347 516.325 403.618 516.981 406.37C517.637 409.121 519.451 412.321 522.276 412.05C524.18 411.867 525.504 410.147 526.591 408.579C528.151 406.316 529.712 404.048 531.272 401.785C531.846 400.954 532.466 400.076 533.4 399.675C535.22 398.886 537.319 400.3 538.27 402.038C539.222 403.771 539.476 405.81 540.327 407.595C543.034 413.299 550.446 414.602 556.752 415.173C563.23 415.764 569.714 416.35 576.192 416.941C576.705 416.988 577.165 416.636 577.304 416.14C577.903 413.993 579.143 412.024 580.507 410.229C588.368 399.87 600.75 389.369 597.328 376.83C596.767 374.779 595.774 372.687 596.27 370.625C597.322 366.27 603.398 365.969 607.057 363.371C611.194 360.436 611.921 354.714 612.288 349.664C613.117 338.162 613.805 326.8 614.633 315.3C614.641 315.182 614.629 315.063 614.596 314.95C611.793 305.278 608.991 295.607 606.188 285.941C604.527 280.207 602.819 274.368 599.474 269.418C596.991 265.747 593.705 262.7 590.448 259.695C588.773 258.147 587.098 256.6 585.418 255.048C585.104 254.758 584.639 254.7 584.263 254.902C578.424 258.041 572.468 260.905 566.038 262.435C560.127 263.843 553.969 264.091 548.141 265.794C542.313 267.497 536.55 271.091 534.476 276.784C533.229 280.207 533.459 283.961 533.347 287.603C533.087 295.841 530.699 304.456 524.647 310.066C516.242 317.856 503.451 317.867 491.985 317.414C485.023 317.143 477.977 316.854 471.287 314.921C467.238 313.754 463.272 311.928 460.317 308.922C458.461 307.031 457.054 304.733 455.121 302.918C448.833 297.013 436.982 295.817 435.534 287.326C434.316 280.178 441.876 275.098 446.663 269.648C447.817 268.334 448.806 266.945 449.664 265.497C450.133 264.707 449.33 263.833 448.48 264.179C445.506 265.392 442.533 266.601 439.559 267.815C435.481 269.477 431.32 271.192 428.016 274.091C415.166 285.387 421.035 308.133 409.835 321.055C406.188 325.263 400.928 328.115 398.233 332.988C395.679 337.614 395.904 343.188 395.112 348.409C393.782 357.177 389.414 365.492 389.663 374.36C389.917 383.571 395.112 391.956 396.395 401.078C398.168 413.676 392.405 426.947 396.548 438.974C396.982 440.234 397.537 441.446 398.15 442.637C398.416 443.153 399.069 443.322 399.555 443.003C403.026 440.727 406.339 438.213 409.451 435.473C413.297 432.086 416.966 428.281 421.704 426.33C421.705 426.33 421.705 426.328 421.703 426.328V426.328Z" stroke="white" stroke-width="3" stroke-miterlimit="10"/>
<path d="M109.41 666.572C109.41 666.57 109.412 666.57 109.413 666.571C111.404 673.505 113.733 680.931 119.511 685.266C122.354 687.399 125.788 688.572 129.175 689.656C139.938 693.098 150.884 695.961 161.955 698.236C165.873 699.037 170.253 699.691 173.616 697.535C178.989 694.088 179.45 684.913 185.609 683.216C191.105 681.701 196.691 687.718 202.128 686.009C205.781 684.86 207.507 680.776 208.624 677.123C210.965 669.447 212.637 661.573 213.62 653.614C213.717 652.832 214.638 652.449 215.268 652.922C219.702 656.249 224.613 658.94 229.809 660.885C230.309 661.072 230.865 660.823 231.067 660.329C231.91 658.267 232.753 656.209 233.596 654.147C233.909 653.387 234.258 652.58 234.955 652.143C235.877 651.566 237.077 651.825 238.129 652.114C242.574 653.334 248.573 654.076 250.654 649.969C251.629 648.042 251.321 645.52 252.775 643.917C254.992 641.478 259.437 643.033 262.014 640.977C263.674 639.651 263.988 637.294 264.118 635.178C264.549 628.284 264.401 621.354 263.68 614.483C263.521 612.981 263.403 611.266 264.449 610.17C265.909 608.644 268.444 609.404 270.377 610.27C275.676 612.643 280.974 615.016 286.273 617.39C286.93 617.684 287.675 617.208 287.71 616.489C287.844 613.758 288.277 611.07 289.22 608.491C290.774 604.23 293.587 600.565 296.359 596.976C300.018 592.233 303.683 587.489 307.341 582.745C310.072 579.204 313.748 575.274 318.163 576.028C326.686 577.489 326.574 593.965 335.215 593.606C339.938 593.411 342.249 588.008 345.18 584.307C350.488 577.607 359.809 575.633 368.367 575.35C376.926 575.073 385.738 575.998 393.859 573.294C401.98 570.589 409.291 562.669 407.589 554.302C405.296 543.023 389.704 539.647 384.763 529.246C381.285 521.917 384.095 513.757 385.889 505.577C386.061 504.791 385.267 504.142 384.503 504.395C381.405 505.419 378.126 505.681 374.981 504.797C364.46 501.839 359.767 488.221 349.241 485.304C345.316 484.22 341.143 484.821 337.136 485.528C328.273 487.088 319.495 489.132 310.851 491.648C310.477 491.757 310.073 491.64 309.817 491.346C296.901 476.492 286.31 459.648 278.414 441.632C278.15 441.03 277.389 440.837 276.869 441.24C270.117 446.484 263.004 451.23 255.382 455.234C253.656 456.141 251.842 457.067 250.707 458.652C247.657 462.906 251.073 469.147 249.046 473.973C247.119 478.563 241.327 479.883 237.45 483.018C229.654 489.323 230.759 501.745 224.919 509.889C220.735 515.728 212.62 521.173 215.244 527.855C216.751 531.697 221.603 533.913 221.988 538.026C222.307 541.432 219.298 544.361 219.121 547.778C219.003 550.071 220.167 552.216 221.343 554.19C225.345 560.907 229.855 567.318 234.825 573.353C238.029 577.242 241.475 581.06 243.431 585.698C245.068 589.591 245.452 594.277 243.687 598.017C243.308 598.819 244.105 599.897 244.668 600.583C245.271 601.319 244.854 602.601 244.258 603.441C235.168 616.222 221.036 625.332 205.616 628.361C201.053 629.256 195.201 630.806 194.817 635.426C194.746 636.31 194.912 637.206 194.77 638.084C194.498 639.792 193.144 641.095 191.868 642.261C186.944 646.763 181.56 651.489 174.928 652.297C172.783 652.556 170.407 652.456 168.716 653.805C167.901 654.459 167.357 655.379 166.831 656.28C166.198 657.364 165.566 658.449 164.928 659.533C163.82 661.43 161.538 663.539 159.803 662.755C159.404 662.575 159.373 662.07 159.391 661.632C159.464 659.932 156.769 658.576 155.01 659.474C153.012 660.493 152.131 662.792 151.008 664.724C149.885 666.657 147.781 668.543 145.654 667.836C144.495 667.453 143.715 666.398 143.012 665.396C141.676 663.503 140.34 661.61 139.008 659.713C138.724 659.308 138.782 658.759 139.132 658.409C139.964 657.577 140.729 656.664 141.014 655.538C141.368 654.135 140.606 652.361 139.17 652.179C136.563 651.849 136.197 656.021 134.146 657.665C133.366 658.29 132.349 658.513 131.362 658.696C125.566 659.771 119.626 660.082 113.746 659.607C112.943 659.542 112.55 658.577 112.963 657.885C114.067 656.034 114.633 653.865 114.561 651.714C114.543 651.206 114.109 650.825 113.6 650.828C111.751 650.838 109.904 650.85 108.059 650.86C107.562 650.863 107.14 651.229 107.093 651.724C106.624 656.656 108.018 661.735 109.408 666.572C109.408 666.573 109.41 666.573 109.41 666.572V666.572Z" stroke="white" stroke-width="3" stroke-miterlimit="10"/>
<path d="M452.16 208.056C450.47 207.29 448.472 207.826 446.823 208.681C445.18 209.535 443.69 210.708 441.941 211.32C437.821 212.758 433.158 210.825 428.956 211.998C428.069 212.246 427.194 212.646 426.58 213.33C424.836 215.257 426.071 218.669 428.43 219.771C430.788 220.873 433.631 220.171 435.883 218.869C437.047 218.191 438.194 217.337 439.535 217.243C440.357 217.184 441.161 217.419 441.959 217.614C443.466 217.985 444.997 218.227 446.545 218.345C447.804 218.439 449.104 218.439 450.287 217.997C451.469 217.555 452.521 216.6 452.769 215.363C453.047 213.972 452.308 212.363 453.106 211.191C453.437 210.702 453.998 210.366 454.187 209.806C454.418 209.111 453.939 208.345 453.295 207.997C452.651 207.649 451.888 207.614 452.166 208.056H452.16Z" stroke="white" stroke-width="3" stroke-miterlimit="10"/>
</svg>
