<svg width="512" height="599" viewBox="0 0 512 599" fill="none" xmlns="http://www.w3.org/2000/svg">
<path d="M232.125 383.522C236.132 382.815 240.305 382.214 244.229 383.298C254.762 386.215 259.455 399.833 269.97 402.791C276.56 404.647 283.753 401.571 288.605 396.751C293.458 391.931 296.431 385.59 299.315 379.397C301.786 374.088 304.31 368.472 303.831 362.644C303.051 353.116 294.652 346.015 291.537 336.976C287.394 324.949 293.156 311.672 291.383 299.08C290.101 289.958 284.905 281.567 284.651 272.362C284.409 263.5 288.771 255.179 290.101 246.411C290.893 241.19 290.668 235.616 293.222 230.99C295.917 226.117 301.171 223.265 304.824 219.057C316.024 206.135 310.155 183.389 323.005 172.093C326.308 169.188 330.469 167.473 334.548 165.817C338.33 164.273 342.113 162.735 345.896 161.191C351.653 149.376 349.667 134.156 347.196 120.691C344.075 119.931 341.546 123.278 340.488 126.307C339.436 129.336 338.52 132.948 335.57 134.209C332.16 135.664 328.419 132.906 326.214 129.937C324.003 126.967 322.1 123.354 318.625 122.076C317.035 124.138 315.439 126.201 313.849 128.263C308.997 123.466 309.138 114.604 314.145 109.96C312.59 109.171 311.03 108.381 309.475 107.597C308.926 101.846 317.744 98.7467 317.744 92.9718C317.744 91.1333 316.799 89.2771 317.33 87.5211C318.205 84.6278 322.413 84.2566 325.032 85.7828C327.65 87.3031 329.423 89.9607 331.918 91.6814C336.758 95.0166 343.644 94.1209 348.473 90.768C353.296 87.4151 356.363 82.0704 358.497 76.6079C359.478 74.0976 360.329 71.4577 362.079 69.4071C366.228 64.5279 373.61 64.6045 380.011 64.1449C386.412 63.6853 394.114 60.9157 394.888 54.5634C395.266 51.4639 393.771 48.4763 393.162 45.4121C391.661 37.8636 396.289 29.5726 403.517 26.8679C405.249 26.2197 407.123 25.8425 408.63 24.7701C412.738 21.8414 412.058 15.6718 410.941 10.7632C410.173 7.38669 408.961 3.49753 405.692 2.33078C403.511 1.55295 401.118 2.29542 398.925 3.03201C386.655 7.15688 374.39 11.2876 362.12 15.4184C360.01 16.1255 357.77 16.9328 356.452 18.7242C355.518 19.997 355.175 21.6116 354.312 22.9316C353.272 24.5226 351.576 25.5361 349.933 26.5025C343.023 30.5626 336.108 34.6226 329.199 38.6768C325.558 40.8158 320.965 42.9725 317.354 40.7805C315.634 39.7375 314.547 37.8754 312.838 36.8147C309.464 34.7051 305.06 36.3551 301.543 38.2113C295.343 41.4935 289.462 45.3708 284.007 49.7786C280.762 52.4008 277.399 55.8303 277.683 59.9847C277.831 62.0825 278.906 63.9858 279.545 65.9893C282.908 76.6315 273.687 86.5724 267.889 96.1126C266.264 98.7879 264.827 101.905 265.549 104.952C266.264 107.998 270.153 110.32 272.677 108.458C273.811 107.615 274.485 106.112 275.845 105.718C278.487 104.94 279.917 108.741 279.917 111.487C279.935 122.783 278.433 134.916 284.214 144.627C285.231 146.33 286.454 147.933 287.151 149.789C288.097 152.311 287.985 155.092 287.825 157.779C287.057 170.926 285.603 184.031 283.469 197.025C270.614 230.065 246.233 259.122 222.26 287.489C207.005 305.544 191.342 323.9 172.896 338.449C180.928 357.111 191.845 374.535 205.238 389.839C214.074 387.246 223.064 385.136 232.136 383.539L232.125 383.522Z" stroke="white" stroke-width="3" stroke-miterlimit="10"/>
<path d="M316.703 324.328C316.702 324.328 316.702 324.326 316.703 324.326C321.442 322.378 327.71 322.904 330.67 327.08C332.999 330.368 332.638 334.77 333.59 338.677C334.541 342.589 338.46 346.632 342.089 344.876C343.271 344.304 344.11 343.232 344.908 342.195C352.474 332.36 360.033 322.531 367.599 312.696C370.826 308.5 374.792 303.91 380.099 303.81C384.751 303.721 389.314 307.233 393.723 305.766C396.548 304.829 398.316 302.13 400.331 299.944C402.347 297.758 405.473 295.866 408.162 297.133C410.728 298.347 411.325 301.618 411.981 304.37C412.637 307.121 414.451 310.321 417.276 310.05C419.18 309.867 420.504 308.147 421.591 306.579C423.151 304.316 424.712 302.048 426.272 299.785C426.846 298.954 427.466 298.076 428.4 297.675C430.22 296.886 432.319 298.3 433.27 300.038C434.222 301.771 434.476 303.81 435.327 305.595C438.034 311.299 445.446 312.602 451.752 313.173C458.23 313.764 464.714 314.35 471.192 314.941C471.705 314.988 472.165 314.636 472.304 314.14C472.903 311.993 474.143 310.024 475.507 308.229C483.368 297.87 495.75 287.369 492.328 274.83C491.767 272.779 490.774 270.687 491.27 268.625C492.322 264.27 498.398 263.969 502.057 261.371C506.194 258.436 506.921 252.714 507.288 247.664C508.117 236.162 508.805 224.8 509.633 213.3C509.641 213.182 509.629 213.063 509.596 212.95C506.793 203.278 503.991 193.607 501.188 183.941C499.527 178.207 497.819 172.368 494.474 167.418C491.991 163.747 488.705 160.7 485.448 157.695C483.773 156.147 482.098 154.6 480.418 153.048C480.104 152.758 479.639 152.7 479.263 152.902C473.424 156.041 467.468 158.905 461.038 160.435C455.127 161.843 448.969 162.091 443.141 163.794C437.313 165.497 431.55 169.091 429.476 174.784C428.229 178.207 428.459 181.961 428.347 185.603C428.087 193.841 425.699 202.456 419.647 208.066C411.242 215.856 398.451 215.867 386.985 215.414C380.023 215.143 372.977 214.854 366.287 212.921C362.238 211.754 358.272 209.928 355.317 206.922C353.461 205.031 352.054 202.733 350.121 200.918C343.833 195.013 331.982 193.817 330.534 185.326C329.316 178.178 336.876 173.098 341.663 167.648C342.817 166.334 343.806 164.945 344.664 163.497C345.133 162.707 344.33 161.833 343.48 162.179C340.506 163.392 337.533 164.601 334.559 165.815C330.481 167.477 326.32 169.192 323.016 172.091C310.166 183.387 316.035 206.133 304.835 219.055C301.188 223.263 295.928 226.115 293.233 230.988C290.679 235.614 290.904 241.188 290.112 246.409C288.782 255.177 284.414 263.492 284.663 272.36C284.917 281.571 290.112 289.956 291.395 299.078C293.168 311.676 287.405 324.947 291.548 336.974C291.982 338.234 292.537 339.446 293.15 340.637C293.416 341.153 294.069 341.322 294.555 341.003C298.026 338.727 301.339 336.213 304.451 333.473C308.297 330.086 311.966 326.281 316.704 324.33C316.705 324.33 316.705 324.328 316.703 324.328V324.328Z" stroke="white" stroke-width="3" stroke-miterlimit="10"/>
<path d="M4.4103 564.572C4.4103 564.57 4.41234 564.57 4.41274 564.571C6.40404 571.505 8.73324 578.931 14.5114 583.266C17.3543 585.399 20.7883 586.572 24.175 587.656C34.938 591.098 45.8843 593.961 56.9547 596.236C60.8733 597.037 65.253 597.691 68.6161 595.535C73.9887 592.088 74.4498 582.913 80.6085 581.216C86.1053 579.701 91.6907 585.718 97.1284 584.009C100.781 582.86 102.507 578.776 103.624 575.123C105.965 567.447 107.637 559.573 108.62 551.614C108.717 550.832 109.638 550.449 110.268 550.922C114.702 554.249 119.613 556.94 124.809 558.885C125.309 559.072 125.865 558.823 126.067 558.329C126.91 556.267 127.753 554.209 128.596 552.147C128.909 551.387 129.258 550.58 129.955 550.143C130.877 549.566 132.077 549.825 133.129 550.114C137.574 551.334 143.573 552.076 145.654 547.969C146.629 546.042 146.321 543.52 147.775 541.917C149.992 539.478 154.437 541.033 157.014 538.977C158.674 537.651 158.988 535.294 159.118 533.178C159.549 526.284 159.401 519.354 158.68 512.483C158.521 510.981 158.403 509.266 159.449 508.17C160.909 506.644 163.444 507.404 165.377 508.27C170.676 510.643 175.974 513.016 181.273 515.39C181.93 515.684 182.675 515.208 182.71 514.489C182.844 511.758 183.277 509.07 184.22 506.491C185.774 502.23 188.587 498.565 191.359 494.976C195.018 490.233 198.683 485.489 202.341 480.745C205.072 477.204 208.748 473.274 213.163 474.028C221.686 475.489 221.574 491.965 230.215 491.606C234.938 491.411 237.249 486.008 240.18 482.307C245.488 475.607 254.809 473.633 263.367 473.35C271.926 473.073 280.738 473.998 288.859 471.294C296.98 468.589 304.291 460.669 302.589 452.302C300.296 441.023 284.704 437.647 279.763 427.246C276.285 419.917 279.095 411.757 280.889 403.577C281.061 402.791 280.267 402.142 279.503 402.395C276.405 403.419 273.126 403.681 269.981 402.797C259.46 399.839 254.767 386.221 244.241 383.304C240.316 382.22 236.143 382.821 232.136 383.528C223.273 385.088 214.495 387.132 205.851 389.648C205.477 389.757 205.073 389.64 204.817 389.346C191.901 374.492 181.31 357.648 173.414 339.632C173.15 339.03 172.389 338.837 171.869 339.24C165.117 344.484 158.004 349.23 150.382 353.234C148.656 354.141 146.842 355.067 145.707 356.652C142.657 360.906 146.073 367.147 144.046 371.973C142.119 376.563 136.327 377.883 132.45 381.018C124.654 387.323 125.759 399.745 119.919 407.889C115.735 413.728 107.62 419.173 110.244 425.855C111.751 429.697 116.603 431.913 116.988 436.026C117.307 439.432 114.298 442.361 114.121 445.778C114.003 448.071 115.167 450.216 116.343 452.19C120.345 458.907 124.855 465.318 129.825 471.353C133.029 475.242 136.475 479.06 138.431 483.698C140.068 487.591 140.452 492.277 138.687 496.017C138.308 496.819 139.105 497.897 139.668 498.583C140.271 499.319 139.854 500.601 139.258 501.441C130.168 514.222 116.036 523.332 100.616 526.361C96.0527 527.256 90.2013 528.806 89.8171 533.426C89.7461 534.31 89.9116 535.206 89.7698 536.084C89.4979 537.792 88.1444 539.095 86.8677 540.261C81.9443 544.763 76.5598 549.489 69.9282 550.297C67.7827 550.556 65.4067 550.456 63.7163 551.805C62.9006 552.459 62.3569 553.379 61.8308 554.28C61.1984 555.364 60.566 556.449 59.9277 557.533C58.8205 559.43 56.5376 561.539 54.8032 560.755C54.4043 560.575 54.3728 560.07 54.3914 559.632C54.4637 557.932 51.7692 556.576 50.0098 557.474C48.0121 558.493 47.1314 560.792 46.0084 562.724C44.8854 564.657 42.7813 566.543 40.6535 565.836C39.495 565.453 38.7149 564.398 38.0115 563.396C36.6756 561.503 35.3397 559.61 34.008 557.713C33.7237 557.308 33.7817 556.759 34.1317 556.409C34.9638 555.577 35.729 554.664 36.0138 553.538C36.3684 552.135 35.6059 550.361 34.1697 550.179C31.5632 549.849 31.1967 554.021 29.1458 555.665C28.3656 556.29 27.349 556.513 26.3619 556.696C20.5663 557.771 14.6262 558.082 8.74603 557.607C7.94301 557.542 7.55013 556.577 7.96285 555.885C9.06651 554.034 9.63323 551.865 9.56053 549.714C9.54333 549.206 9.10869 548.825 8.59977 548.828C6.75144 548.838 4.90353 548.85 3.05862 548.86C2.56207 548.863 2.13978 549.229 2.09276 549.724C1.6235 554.656 3.01777 559.735 4.40786 564.572C4.40826 564.573 4.4103 564.573 4.4103 564.572V564.572Z" stroke="white" stroke-width="3" stroke-miterlimit="10"/>
<path d="M347.16 106.056C345.47 105.29 343.472 105.826 341.823 106.681C340.18 107.535 338.69 108.708 336.941 109.32C332.821 110.758 328.158 108.825 323.956 109.998C323.069 110.246 322.194 110.646 321.58 111.33C319.836 113.257 321.071 116.669 323.43 117.771C325.788 118.873 328.631 118.171 330.883 116.869C332.047 116.191 333.194 115.337 334.535 115.243C335.357 115.184 336.161 115.419 336.959 115.614C338.466 115.985 339.997 116.227 341.545 116.345C342.804 116.439 344.104 116.439 345.287 115.997C346.469 115.555 347.521 114.6 347.769 113.363C348.047 111.972 347.308 110.363 348.106 109.191C348.437 108.702 348.998 108.366 349.187 107.806C349.418 107.111 348.939 106.345 348.295 105.997C347.651 105.649 346.888 105.614 347.166 106.056H347.16Z" stroke="white" stroke-width="3" stroke-miterlimit="10"/>
<ellipse cx="338" cy="227.097" rx="7" ry="7.09722" fill="white"/>
<path d="M337 225.578L399 387.293" stroke="white" stroke-width="2"/>
<rect x="315" y="387.297" width="194" height="51.7083" rx="4" fill="#00555C"/>
<g filter="url(#filter0_d_2226_981)">
<path d="M332.648 405.898H340.789V407.195H334.117V411.562H340.055V412.812H334.117V418.859H332.648V405.898ZM345.998 412.031H346.061C346.722 410.141 347.746 409.195 349.131 409.195C349.564 409.195 349.965 409.281 350.334 409.453L349.881 410.797C349.61 410.677 349.293 410.617 348.928 410.617C347.605 410.617 346.676 411.721 346.139 413.93V418.859H344.67V409.422H346.077L345.998 412.031ZM357.427 409.18C358.713 409.18 359.802 409.617 360.692 410.492C361.635 411.414 362.106 412.628 362.106 414.133C362.106 415.013 361.945 415.805 361.622 416.508C361.205 417.409 360.572 418.091 359.723 418.555C359.02 418.94 358.244 419.133 357.395 419.133C355.864 419.133 354.651 418.568 353.755 417.438C353.052 416.552 352.7 415.451 352.7 414.133C352.7 412.414 353.299 411.089 354.497 410.156C355.335 409.505 356.312 409.18 357.427 409.18ZM357.388 410.383C356.434 410.383 355.648 410.779 355.028 411.57C354.492 412.253 354.223 413.115 354.223 414.156C354.223 414.896 354.361 415.549 354.638 416.117C354.898 416.664 355.265 417.094 355.739 417.406C356.239 417.734 356.796 417.898 357.411 417.898C358.156 417.898 358.812 417.656 359.38 417.172C360.182 416.479 360.583 415.471 360.583 414.148C360.583 413.029 360.273 412.117 359.653 411.414C359.044 410.727 358.289 410.383 357.388 410.383ZM367.112 409.422V411.055C367.389 410.435 367.823 409.956 368.417 409.617C368.855 409.367 369.297 409.242 369.745 409.242C371.073 409.242 371.943 409.898 372.355 411.211C372.589 410.695 372.886 410.281 373.245 409.969C373.808 409.484 374.446 409.242 375.159 409.242C376.17 409.242 376.959 409.648 377.527 410.461C377.902 411.003 378.089 411.812 378.089 412.891V418.859H376.667V412.922C376.667 412.135 376.514 411.536 376.206 411.125C375.883 410.693 375.443 410.477 374.886 410.477C374.37 410.477 373.889 410.714 373.441 411.188C373.04 411.604 372.769 412.115 372.628 412.719V418.859H371.222V412.844C371.222 412.146 371.081 411.596 370.8 411.195C370.461 410.716 370.014 410.477 369.456 410.477C368.899 410.477 368.391 410.758 367.933 411.32C367.584 411.742 367.331 412.271 367.175 412.906V418.859H365.737V409.422H367.112ZM396.609 406.188H402.961V408.859H401.727V407.148H390.305V408.859H389.07V406.188H395.375V404.781H396.609V406.188ZM400.812 409.867V412.961H391.281V409.867H400.812ZM392.5 410.75V412.109H399.594V410.75H392.5ZM402.352 413.805V419.977H401.133V419.289H390.977V419.977H389.742V413.805H402.352ZM390.977 414.719V416.039H395.391V414.719H390.977ZM390.977 416.922V418.359H395.391V416.922H390.977ZM401.133 418.359V416.922H396.578V418.359H401.133ZM401.133 416.039V414.719H396.578V416.039H401.133ZM390.992 408.109H401.039V409.039H390.992V408.109ZM414.225 417.164H418.733V408.109H420.03V419.852H418.733V418.383H408.545V419.852H407.248V408.109H408.545V417.164H412.944V404.938H414.225V417.164ZM436.505 405.273V412.766H427.372V405.273H436.505ZM428.606 406.234V407.469H435.255V406.234H428.606ZM428.606 408.367V409.609H435.255V408.367H428.606ZM428.606 410.523V411.852H435.255V410.523H428.606ZM425.552 414.016H438.841V415.055H432.122V419.984H430.856V415.055H424.302V406.344H425.552V414.016ZM424.075 418.766C425.44 418.109 426.671 417.081 427.77 415.68L428.825 416.266C427.716 417.719 426.432 418.878 424.973 419.742L424.075 418.766ZM437.544 419.422C436.45 418.229 435.208 417.172 433.817 416.25L434.778 415.531C436.033 416.318 437.296 417.32 438.567 418.539L437.544 419.422ZM452.144 414.688V418.125H446.495V418.891H445.308V414.688H452.144ZM450.941 415.664H446.495V417.148H450.941V415.664ZM449.402 406.266H456.042V407.273H441.628V406.266H448.159V404.781H449.402V406.266ZM453.597 408.305V411.727H444.058V408.305H453.597ZM445.323 409.266V410.75H452.331V409.266H445.323ZM455.534 412.734V418.523C455.534 418.971 455.42 419.299 455.191 419.508C454.961 419.716 454.571 419.82 454.019 419.82C453.514 419.82 452.86 419.794 452.058 419.742L451.792 418.602C452.516 418.68 453.149 418.719 453.691 418.719C453.967 418.719 454.136 418.667 454.198 418.562C454.245 418.49 454.269 418.375 454.269 418.219V413.727H443.425V419.984H442.159V412.734H455.534ZM469.228 415.898V412.367H470.361V416.953H463.595V418.086H462.447V412.367H463.595V415.898H465.822V411.148H461.423V410.094H467.22C467.757 409.219 468.288 408.109 468.814 406.766L470.025 407.211C469.546 408.242 469.009 409.203 468.416 410.094H471.431V411.148H466.955V415.898H469.228ZM473.306 405.438V418.602C473.306 419.081 473.153 419.417 472.845 419.609C472.595 419.771 472.176 419.852 471.588 419.852C470.791 419.852 469.866 419.815 468.814 419.742L468.525 418.539C469.66 418.648 470.642 418.703 471.47 418.703C471.772 418.703 471.952 418.633 472.009 418.492C472.041 418.404 472.056 418.281 472.056 418.125V406.523H460.83V419.984H459.595V405.438H473.306ZM464.009 409.836C463.588 408.883 463.145 408.078 462.681 407.422L463.72 406.906C464.241 407.594 464.707 408.401 465.119 409.328L464.009 409.836ZM484.609 406.977H491.648V408.125H484.609V410.172H490.031V416.555C490.031 417.013 489.911 417.341 489.672 417.539C489.448 417.727 489.052 417.82 488.484 417.82C487.812 417.82 487.154 417.786 486.508 417.719L486.305 416.508C487.055 416.612 487.701 416.664 488.242 416.664C488.456 416.664 488.594 416.635 488.656 416.578C488.719 416.516 488.75 416.391 488.75 416.203V411.289H484.609V419.977H483.344V411.289H479.406V417.992H478.141V410.172H483.344V408.125H476.445V406.977H483.344V404.781H484.609V406.977Z" fill="white"/>
</g>
<path fill-rule="evenodd" clip-rule="evenodd" d="M511.095 213.846C508.298 204.161 505.502 194.476 502.705 184.797C501.047 179.056 499.343 173.209 496.005 168.252C493.528 164.576 490.248 161.525 486.999 158.516C486.399 157.961 485.799 157.405 485.199 156.849C484.126 155.856 483.053 154.862 481.981 153.866C481.666 153.574 481.2 153.515 480.822 153.719C474.997 156.861 469.055 159.728 462.64 161.26C460.026 161.885 457.363 162.282 454.702 162.678C451.359 163.176 448.019 163.674 444.781 164.623C438.966 166.328 433.215 169.928 431.145 175.628C430.135 178.41 430.096 181.409 430.058 184.39C430.049 185.082 430.04 185.774 430.019 186.461C429.759 194.71 427.376 203.337 421.337 208.954C412.95 216.755 400.187 216.767 388.745 216.313C381.797 216.041 374.767 215.752 368.09 213.817C364.05 212.648 360.093 210.819 357.144 207.81C356.294 206.94 355.538 205.985 354.783 205.03C353.893 203.905 353.003 202.78 351.96 201.797C349.607 199.581 346.475 198.027 343.402 196.503C338.277 193.96 333.317 191.5 332.414 186.184C331.472 180.634 335.796 176.33 340.013 172.131C341.234 170.915 342.447 169.708 343.52 168.482C345.271 166.482 346.64 164.305 347.754 162.015C353.409 150.37 351.578 135.421 349.168 122.097C349.098 121.709 348.805 121.387 348.412 121.36C345.594 121.163 343.34 124.261 342.358 127.084C342.243 127.412 342.131 127.748 342.017 128.087C341.081 130.873 340.075 133.87 337.451 134.996C334.048 136.454 330.314 133.692 328.114 130.718C327.693 130.15 327.283 129.559 326.871 128.965C325.271 126.657 323.642 124.308 321.219 123.135C320.825 122.944 320.36 123.084 320.093 123.431C319.447 124.271 318.8 125.111 318.154 125.951C317.592 126.682 317.029 127.412 316.468 128.143C316.1 128.62 315.394 128.669 315.013 128.203C311.266 123.63 311.32 116.301 315.09 111.754C315.534 111.22 315.416 110.382 314.797 110.067C313.668 109.493 312.538 108.919 311.411 108.349C311.131 105.405 313.294 103.154 315.476 100.885C317.561 98.716 319.663 96.5298 319.663 93.7038C319.663 92.981 319.517 92.2554 319.373 91.5343C319.149 90.4187 318.927 89.3137 319.25 88.2457C320.123 85.3485 324.322 84.9768 326.935 86.505C328.358 87.3341 329.53 88.5009 330.705 89.67C331.688 90.6476 332.672 91.6269 333.806 92.4115C338.636 95.7513 345.507 94.8544 350.326 91.4969C355.139 88.1395 358.2 82.7877 360.329 77.3178C360.464 76.9714 360.596 76.6226 360.729 76.2732C361.559 74.0868 362.398 71.8777 363.903 70.1072C367.614 65.7286 373.915 65.3358 379.781 64.9701C380.461 64.9278 381.134 64.8858 381.797 64.838C388.185 64.3778 395.87 61.6045 396.642 55.2436C396.898 53.142 396.296 51.0918 395.693 49.0344C395.405 48.0533 395.116 47.0706 394.92 46.08C393.422 38.5213 398.04 30.2191 405.253 27.5107C405.738 27.3288 406.233 27.1682 406.729 27.0076C408.001 26.5953 409.273 26.183 410.355 25.4101C414.454 22.4775 413.776 16.2996 412.661 11.3844C411.894 8.00332 410.685 4.10892 407.424 2.9406C405.247 2.16172 402.859 2.9052 400.671 3.64277C390.885 6.94376 381.104 10.2485 371.32 13.554C368.862 14.3846 366.403 15.2152 363.944 16.0459C361.839 16.7539 359.603 17.5623 358.288 19.3561C357.792 20.0353 357.462 20.8118 357.133 21.5889C356.844 22.2701 356.555 22.9518 356.153 23.5691C355.115 25.1623 353.422 26.1772 351.783 27.1449C344.888 31.2104 337.987 35.2759 331.093 39.3356C327.46 41.4775 322.877 43.6371 319.273 41.4421C318.406 40.9145 317.7 40.1777 316.994 39.4407C316.303 38.7187 315.611 37.9966 314.767 37.471C311.4 35.3585 307.006 37.0107 303.496 38.8694C297.309 42.1561 291.441 46.0387 285.997 50.4523C282.759 53.0781 279.403 56.5122 279.687 60.6722C279.787 62.0966 280.312 63.4315 280.839 64.7689C281.089 65.4037 281.339 66.0391 281.544 66.6849C284.247 75.2684 278.804 83.3963 273.56 91.2259C272.294 93.1169 271.039 94.9904 269.914 96.8488C268.292 99.5277 266.858 102.649 267.578 105.7C268.292 108.75 272.173 111.075 274.691 109.211C275.128 108.885 275.496 108.462 275.861 108.041C276.444 107.371 277.019 106.71 277.852 106.467C280.489 105.688 281.916 109.494 281.916 112.244C281.919 114.188 281.877 116.158 281.835 118.136C281.633 127.661 281.427 137.376 286.204 145.429C286.49 145.91 286.793 146.384 287.096 146.858C287.866 148.061 288.636 149.264 289.135 150.597C290.079 153.123 289.967 155.908 289.807 158.599C289.041 171.763 287.59 184.886 285.461 197.897C272.633 230.981 248.304 260.077 224.382 288.483C209.159 306.562 193.53 324.943 175.122 339.511C168.08 345.082 160.649 350.109 152.657 354.328L152.514 354.403C150.835 355.288 149.093 356.207 147.992 357.75C146.343 360.059 146.588 362.951 146.837 365.886C147.048 368.367 147.261 370.878 146.334 373.092C145.079 376.093 142.179 377.698 139.24 379.325C137.678 380.189 136.105 381.06 134.763 382.149C130.36 385.722 128.802 391.256 127.224 396.866C126.012 401.169 124.789 405.516 122.259 409.056C121.15 410.609 119.765 412.133 118.377 413.661C114.539 417.886 110.681 422.132 112.604 427.047C113.263 428.733 114.563 430.106 115.848 431.463C117.495 433.203 119.118 434.917 119.334 437.231C119.505 439.063 118.718 440.757 117.925 442.464C117.242 443.934 116.555 445.413 116.473 446.997C116.355 449.292 117.517 451.44 118.691 453.417C122.684 460.143 127.184 466.563 132.144 472.606C132.533 473.08 132.926 473.553 133.32 474.027C136.156 477.444 139.017 480.889 140.731 484.967C142.366 488.867 142.748 493.562 140.985 497.308C140.607 498.11 141.404 499.186 141.966 499.873C142.568 500.609 142.151 501.893 141.557 502.734C132.486 515.532 118.384 524.655 102.997 527.688C98.4433 528.585 92.6044 530.136 92.221 534.763C92.1902 535.147 92.204 535.534 92.2179 535.921C92.2358 536.424 92.2538 536.927 92.1738 537.424C91.9025 539.135 90.5519 540.439 89.2779 541.607C84.365 546.115 78.9919 550.848 72.3686 551.656C71.9384 551.708 71.499 551.746 71.0576 551.784C69.3025 551.934 67.5178 552.087 66.1699 553.167C65.356 553.821 64.8133 554.742 64.2884 555.645L64.2784 555.662L64.278 555.663C63.6504 556.742 63.0228 557.822 62.3893 558.902C61.2842 560.803 59.0051 562.915 57.2742 562.128C56.8767 561.947 56.8453 561.443 56.8647 561.007C56.9403 559.303 54.2493 557.943 52.4926 558.843C50.8889 559.664 50.0066 561.314 49.1395 562.935C48.9287 563.329 48.7188 563.722 48.4997 564.1C47.3791 566.036 45.2794 567.924 43.1562 567.216C42.0002 566.832 41.2216 565.77 40.5198 564.773L40.5025 564.748L40.4936 564.736C39.0042 562.618 37.5149 560.5 36.0315 558.377C37.0754 557.38 38.1724 556.306 38.5263 554.901C38.8802 553.497 38.1193 551.721 36.6861 551.538C35.1139 551.338 34.3584 552.786 33.5547 554.326C33.0289 555.333 32.4824 556.38 31.6729 557.031C30.8944 557.657 29.8799 557.881 28.895 558.064C23.1115 559.14 17.1837 559.452 11.3157 558.976C10.5137 558.911 10.121 557.947 10.5325 557.256C11.6354 555.403 12.2026 553.229 12.1338 551.075C12.1175 550.565 11.6819 550.183 11.1718 550.186L5.64873 550.217C5.15231 550.22 4.7304 550.586 4.68351 551.081C4.21458 556.023 5.60792 561.113 6.99599 565.959C8.98359 572.904 11.3074 580.345 17.0755 584.688C19.9124 586.824 23.3391 587.998 26.7186 589.084C37.4588 592.53 48.3817 595.397 59.4285 597.675C63.3389 598.477 67.7092 599.132 71.0651 596.973C73.4854 595.414 74.9068 592.687 76.3033 590.008C78.0004 586.752 79.6607 583.566 83.032 582.634C85.7437 581.884 88.4769 582.978 91.2033 584.068C93.9918 585.184 96.7731 586.296 99.5167 585.431C103.162 584.28 104.884 580.191 105.999 576.533C108.334 568.848 110.002 560.964 110.984 552.995C111.08 552.211 112.003 551.829 112.634 552.303C117.055 555.632 121.953 558.326 127.135 560.272C127.636 560.46 128.192 560.211 128.394 559.715C129.235 557.651 130.076 555.591 130.917 553.526C131.23 552.765 131.578 551.957 132.274 551.52C133.194 550.942 134.391 551.202 135.441 551.491C139.876 552.712 145.863 553.456 147.939 549.343C148.346 548.535 148.529 547.622 148.711 546.717C148.963 545.46 149.213 544.216 150.056 543.283C151.22 541.998 152.999 541.82 154.797 541.64C156.417 541.478 158.053 541.315 159.269 540.339C160.926 539.011 161.238 536.651 161.368 534.532C161.799 527.629 161.651 520.69 160.932 513.809C160.773 512.305 160.655 510.588 161.699 509.49C163.155 507.962 165.686 508.723 167.614 509.591L183.472 516.718C184.13 517.013 184.875 516.537 184.91 515.817C185.044 513.083 185.477 510.391 186.417 507.809C187.968 503.542 190.775 499.872 193.541 496.279C195.367 493.904 197.194 491.529 199.021 489.154C200.847 486.779 202.674 484.404 204.5 482.029C207.225 478.483 210.893 474.547 215.299 475.302C219.42 476.011 221.518 480.251 223.567 484.392C225.746 488.797 227.87 493.089 232.314 492.904C235.943 492.754 238.145 489.511 240.301 486.336C240.945 485.388 241.585 484.445 242.258 483.592C247.555 476.883 256.856 474.907 265.396 474.624C267.52 474.555 269.661 474.56 271.802 474.566C278.269 474.582 284.746 474.599 290.834 472.564C298.937 469.856 306.233 461.925 304.534 453.547C303.291 447.41 298.129 443.609 292.883 439.747C288.475 436.501 284.008 433.212 281.757 428.457C278.784 422.17 280.418 415.249 282.072 408.242C282.451 406.634 282.832 405.022 283.158 403.413C283.223 403.089 283.442 402.819 283.742 402.681C286.277 401.517 288.622 399.881 290.586 397.927C295.428 393.101 298.395 386.752 301.273 380.55C303.738 375.234 306.257 369.61 305.779 363.775C305.324 358.2 302.274 353.455 299.196 348.668C298.108 346.974 297.016 345.276 296.034 343.533C295.777 343.078 295.927 342.505 296.364 342.218C299.876 339.914 303.244 337.342 306.386 334.567C307.029 333.998 307.668 333.417 308.307 332.835C311.48 329.948 314.682 327.034 318.619 325.409C323.349 323.456 329.607 323.981 332.561 328.159C334.125 330.375 334.474 333.096 334.824 335.831C334.994 337.16 335.165 338.492 335.475 339.771C336.425 343.689 340.335 347.737 343.956 345.978C345.136 345.406 345.973 344.332 346.769 343.294C350.544 338.37 354.317 333.447 358.091 328.524C361.864 323.602 365.637 318.679 369.412 313.755C372.632 309.554 376.589 304.957 381.886 304.857C383.853 304.82 385.805 305.43 387.735 306.033C390.36 306.854 392.946 307.663 395.48 306.816C397.704 306.076 399.271 304.238 400.821 302.421C401.236 301.934 401.65 301.449 402.074 300.986C404.086 298.797 407.206 296.903 409.889 298.172C412.273 299.304 412.954 302.222 413.565 304.844C413.61 305.037 413.654 305.229 413.699 305.418C414.354 308.173 416.164 311.377 418.984 311.106C420.883 310.923 422.204 309.2 423.289 307.63C424.068 306.497 424.846 305.363 425.625 304.229C426.403 303.094 427.182 301.96 427.96 300.827C428.532 299.995 429.152 299.116 430.084 298.715C431.9 297.924 433.994 299.346 434.943 301.081C435.456 302.017 435.766 303.043 436.076 304.07C436.34 304.946 436.605 305.822 436.996 306.645C439.697 312.357 447.093 313.661 453.386 314.233C456.779 314.544 460.174 314.853 463.568 315.162C466.64 315.442 469.711 315.722 472.782 316.003C473.295 316.05 473.756 315.698 473.894 315.201C474.492 313.052 475.729 311.08 477.09 309.283C478.665 307.2 480.421 305.112 482.196 303.003C489.26 294.605 496.605 285.874 493.876 275.838C493.752 275.385 493.608 274.931 493.463 274.475C492.951 272.863 492.434 271.235 492.82 269.625C493.502 266.79 496.302 265.671 499.181 264.52C500.732 263.901 502.306 263.272 503.583 262.361C507.712 259.422 508.438 253.693 508.803 248.636C509.219 242.848 509.596 237.087 509.974 231.327C510.348 225.625 510.721 219.924 511.132 214.195C511.14 214.077 511.128 213.959 511.095 213.846Z" fill="#DADEE2" fill-opacity="0.07"/>
<defs>
<filter id="filter0_d_2226_981" x="322.648" y="394.781" width="179" height="35.2031" filterUnits="userSpaceOnUse" color-interpolation-filters="sRGB">
<feFlood flood-opacity="0" result="BackgroundImageFix"/>
<feColorMatrix in="SourceAlpha" type="matrix" values="0 0 0 0 0 0 0 0 0 0 0 0 0 0 0 0 0 0 127 0" result="hardAlpha"/>
<feOffset/>
<feGaussianBlur stdDeviation="5"/>
<feComposite in2="hardAlpha" operator="out"/>
<feColorMatrix type="matrix" values="0 0 0 0 0.0392157 0 0 0 0 0.243137 0 0 0 0 0.345098 0 0 0 0.4 0"/>
<feBlend mode="normal" in2="BackgroundImageFix" result="effect1_dropShadow_2226_981"/>
<feBlend mode="normal" in="SourceGraphic" in2="effect1_dropShadow_2226_981" result="shape"/>
</filter>
</defs>
</svg>
