<svg width="180" height="180" viewBox="0 0 180 180" fill="none" xmlns="http://www.w3.org/2000/svg">
<circle cx="90" cy="90" r="90" fill="#77BCC2" fill-opacity="0.95"/>
<circle cx="90" cy="89" r="80.5" fill="#77BCC2" fill-opacity="0.95" stroke="white"/>
<path d="M55.1366 76.9551C56.3495 78.5605 57.9491 79.8994 59.9354 80.9717L59.0917 82.1758C57.1639 80.9746 55.6464 79.5361 54.5389 77.8604V83.7051H53.1854V78.0098C52.1014 79.7734 50.6249 81.2471 48.7557 82.4307L47.8768 81.4199C49.8163 80.2949 51.4012 78.8066 52.6317 76.9551H48.5975V75.7158H53.1854V73.8086H54.5389V75.7158H59.6366V76.9551H55.1366ZM45.2665 70.082V66.6104H46.6376V70.082H48.6503V71.3564H46.6376V74.8193C47.4403 74.5498 48.0995 74.3154 48.6151 74.1162L48.7821 75.3203C48.0145 75.6309 47.2997 75.9033 46.6376 76.1377V82.29C46.6376 82.8057 46.5175 83.1689 46.2772 83.3799C46.0546 83.5732 45.6884 83.6699 45.1786 83.6699C44.5692 83.6699 43.9862 83.623 43.4296 83.5293L43.1923 82.1406C43.7489 82.252 44.2675 82.3076 44.7479 82.3076C45.0057 82.3076 45.161 82.252 45.2137 82.1406C45.2489 82.0645 45.2665 81.959 45.2665 81.8242V76.6211C44.5223 76.8672 43.7489 77.1045 42.9462 77.333L42.5507 76.0059C43.4354 75.7656 44.2382 75.54 44.9589 75.3291L45.2665 75.2412V71.3564H42.7089V70.082H45.2665ZM48.6327 68.3418C52.0721 68.0605 55.0546 67.5244 57.58 66.7334L58.4764 67.7793C55.5819 68.6348 52.5057 69.2061 49.2479 69.4932L48.6327 68.3418ZM50.5751 73.9141C50.2352 72.7773 49.7929 71.6875 49.2479 70.6445L50.4345 70.1348C50.8505 70.9199 51.3075 72.0244 51.8055 73.4482L50.5751 73.9141ZM53.2821 73.2373C53.0419 71.9541 52.7284 70.8262 52.3417 69.8535L53.5985 69.4316C54.0087 70.4863 54.3339 71.623 54.5741 72.8418L53.2821 73.2373ZM55.5673 73.6328C56.3114 72.2441 56.9354 70.7676 57.4393 69.2031L58.7489 69.7568C58.1278 71.3916 57.4628 72.8271 56.7538 74.0635L55.5673 73.6328ZM77.6 67.6387V81.7627C77.6 82.3252 77.477 82.7236 77.2309 82.958C76.9672 83.21 76.4223 83.3359 75.5961 83.3359C74.8051 83.3359 74.0873 83.2979 73.4428 83.2217L73.1704 81.877C74.0844 81.9707 74.893 82.0176 75.5961 82.0176C75.8539 82.0176 76.018 81.9795 76.0883 81.9033C76.1469 81.833 76.1762 81.6982 76.1762 81.499V77.3857H71.3334V82.7207H69.9623V77.3857H65.2602C65.2368 78.6279 65.1166 79.7002 64.8998 80.6025C64.6537 81.6396 64.1704 82.6504 63.4496 83.6348L62.2983 82.6328C63.0541 81.6367 63.5258 80.4473 63.7133 79.0645C63.8129 78.3613 63.8627 77.5322 63.8627 76.5771V67.6387H77.6ZM65.269 68.8779V71.8838H69.9623V68.8779H65.269ZM65.269 73.0879V76.1816H69.9623V73.0879H65.269ZM76.1762 76.1816V73.0879H71.3334V76.1816H76.1762ZM76.1762 71.8838V68.8779H71.3334V71.8838H76.1762ZM93.208 67.9023H97.9717V68.9482H93.208V70.0469H97.2861V71.0752H93.208V72.2266H98.6748V73.3252H86.5986V72.2266H91.8545V71.0752H87.8906V70.0469H91.8545V68.9482H87.249V67.9023H91.8545V66.6104H93.208V67.9023ZM97.0049 74.4414V82.2725C97.0049 82.7412 96.8877 83.084 96.6533 83.3008C96.4307 83.5117 96.0527 83.6172 95.5195 83.6172C94.9922 83.6172 94.3037 83.5879 93.4541 83.5293L93.2256 82.29C93.9639 82.3721 94.6025 82.4131 95.1416 82.4131C95.3584 82.4131 95.4961 82.3691 95.5547 82.2812C95.6074 82.2051 95.6338 82.0762 95.6338 81.8945V80.1807H89.5166V83.7051H88.1631V74.4414H97.0049ZM89.5166 75.4521V76.7266H95.6338V75.4521H89.5166ZM89.5166 77.7725V79.1172H95.6338V77.7725H89.5166ZM81.3779 75.4873C81.7354 74.1631 81.9756 72.4463 82.0986 70.3369L83.2676 70.4775C83.1562 72.8623 82.9043 74.752 82.5117 76.1465L81.3779 75.4873ZM86.291 72.1562C85.9922 71.1191 85.6436 70.2051 85.2451 69.4141L86.0977 68.7373C86.5664 69.5459 86.9502 70.4014 87.249 71.3037L86.291 72.1562ZM83.8301 66.6104H85.2012V83.7139H83.8301V66.6104ZM106.074 76.5947V78.6514H109.22V79.8379H106.074V83.7051H104.703V79.8379H101.477V78.6514H104.703V76.5947H101.284V75.4258H103.086C102.816 74.3477 102.57 73.498 102.347 72.877H100.959V71.708H104.685V69.7568H101.662V68.5879H104.685V66.6104H106.056V68.5879H108.974V69.7568H106.056V71.708H109.493V72.877H108.245C108.04 73.668 107.758 74.5176 107.401 75.4258H109.37V76.5947H106.074ZM106.926 72.877H103.63C103.877 73.6152 104.111 74.4648 104.334 75.4258H106.153C106.411 74.7637 106.669 73.9141 106.926 72.877ZM116.963 67.2959V71.5234C116.963 72.0449 116.832 72.4023 116.568 72.5957C116.345 72.7539 115.953 72.833 115.39 72.833C114.716 72.833 114.057 72.8037 113.413 72.7451L113.149 71.5234C114.075 71.6172 114.769 71.6641 115.232 71.6641C115.496 71.6641 115.627 71.5322 115.627 71.2686V68.4824H111.33V74.1689H116.709L117.482 74.8369C117.066 76.8584 116.41 78.5986 115.513 80.0576C116.216 80.9131 117.119 81.7041 118.22 82.4307L117.412 83.6699C116.339 82.8965 115.449 82.0732 114.74 81.2002C114.084 82.085 113.252 82.9316 112.244 83.7402L111.382 82.6064C112.302 81.9912 113.149 81.165 113.922 80.1279C112.903 78.5635 112.194 76.9668 111.795 75.3379H111.33V83.7051H109.976V67.2959H116.963ZM113.017 75.3379C113.451 76.8379 113.993 78.0625 114.643 79.0117C115.299 77.8867 115.753 76.6621 116.005 75.3379H113.017ZM131.552 67.4541H132.958V70.7148H136.632V71.9717H132.958V77.7637C134.364 78.4141 135.738 79.3223 137.08 80.4883L136.324 81.7275C135.24 80.7373 134.118 79.8906 132.958 79.1875C132.929 80.4004 132.662 81.2764 132.158 81.8154C131.613 82.4072 130.755 82.7031 129.583 82.7031C128.487 82.7031 127.582 82.4746 126.867 82.0176C126.053 81.4961 125.646 80.7607 125.646 79.8115C125.646 78.9209 126.021 78.2178 126.771 77.7021C127.474 77.2158 128.373 76.9727 129.469 76.9727C130.09 76.9727 130.784 77.0693 131.552 77.2627V71.9717H125.646V70.7148H131.552V67.4541ZM131.552 78.5459C130.831 78.2881 130.125 78.1592 129.434 78.1592C128.742 78.1592 128.183 78.2822 127.755 78.5283C127.263 78.8154 127.017 79.2285 127.017 79.7676C127.017 80.3652 127.304 80.8047 127.878 81.0859C128.312 81.3027 128.883 81.4111 129.592 81.4111C130.899 81.4111 131.552 80.623 131.552 79.0469V78.5459ZM122.051 82.668C121.846 80.7285 121.743 78.7451 121.743 76.7178C121.743 73.4951 121.954 70.4307 122.376 67.5244L123.765 67.7441C123.337 70.1758 123.123 72.959 123.123 76.0938C123.123 78.2734 123.24 80.3857 123.475 82.4307L122.051 82.668ZM66.4995 95.7725H76.8705V97.126H66.4995V95.7725ZM78.1098 108.728C76.2934 108.997 74.4037 109.132 72.4409 109.132C70.4135 109.132 68.7524 108.959 67.4575 108.613C66.8246 108.443 66.268 108.165 65.7875 107.778C65.184 107.28 64.8823 106.604 64.8823 105.748C64.8823 104.705 65.2836 103.779 66.0864 102.971L67.185 103.709C66.6577 104.324 66.394 104.963 66.394 105.625C66.394 106.305 66.8159 106.812 67.6596 107.146C68.5502 107.497 70.0766 107.673 72.2387 107.673C74.2543 107.673 76.1469 107.538 77.9164 107.269L78.1098 108.728ZM82.0898 96.9941H86.1592C86.4229 95.9746 86.6338 95.0371 86.792 94.1816L88.1895 94.4014C88.0605 95.0518 87.8584 95.916 87.583 96.9941H96.6182V98.251H87.2578C86.7422 100.044 86.2148 101.573 85.6758 102.839C87.3105 101.831 89.2178 101.327 91.3975 101.327C92.5752 101.327 93.5742 101.538 94.3945 101.96C95.6836 102.616 96.3281 103.639 96.3281 105.027C96.3281 106.873 95.2324 108.162 93.041 108.895C91.5938 109.381 89.4727 109.662 86.6777 109.738L86.1943 108.42C88.7373 108.391 90.6973 108.174 92.0742 107.77C93.8555 107.236 94.7461 106.311 94.7461 104.992C94.7461 104.055 94.3477 103.369 93.5508 102.936C92.9941 102.631 92.2764 102.479 91.3975 102.479C89.2529 102.479 87.1582 103.138 85.1133 104.456L83.9443 103.63C84.6885 101.772 85.3125 99.9795 85.8164 98.251H82.0898V96.9941ZM111.286 97.3896C109.276 96.4814 106.991 95.7842 104.43 95.2979L104.984 94.1465C107.55 94.627 109.847 95.2949 111.875 96.1504L111.286 97.3896ZM101.978 104.052C102.148 101.509 102.473 99.2354 102.954 97.2314L104.316 97.5127C103.912 99.2705 103.63 101.043 103.472 102.83C104.474 102.01 105.576 101.406 106.777 101.02C107.679 100.727 108.555 100.58 109.405 100.58C110.758 100.58 111.857 100.844 112.701 101.371C113.785 102.057 114.327 103.117 114.327 104.553C114.327 106.621 113.272 108.06 111.163 108.868C109.803 109.39 107.955 109.691 105.617 109.773L105.125 108.446C107.334 108.44 109.077 108.2 110.354 107.726C111.239 107.397 111.869 106.961 112.244 106.416C112.589 105.918 112.762 105.291 112.762 104.535C112.762 103.486 112.355 102.728 111.541 102.259C110.961 101.931 110.225 101.767 109.335 101.767C107.963 101.767 106.557 102.197 105.116 103.059C104.366 103.504 103.715 104.031 103.165 104.641L101.978 104.052Z" fill="white"/>
<path d="M92.5 130L96.5 134L92.5 138" stroke="white" stroke-width="1.5" stroke-linecap="round" stroke-linejoin="round"/>
<path d="M96 134L84 134" stroke="white" stroke-width="1.5" stroke-linecap="round"/>
</svg>
