<svg width="524" height="599" viewBox="0 0 524 599" fill="none" xmlns="http://www.w3.org/2000/svg">
<path d="M232.124 383.522C236.131 382.815 240.304 382.214 244.228 383.298C254.761 386.215 259.454 399.833 269.969 402.791C276.559 404.647 283.752 401.571 288.604 396.751C293.457 391.931 296.43 385.59 299.314 379.397C301.785 374.088 304.309 368.472 303.83 362.644C303.05 353.116 294.651 346.015 291.536 336.976C287.393 324.949 293.155 311.672 291.382 299.08C290.1 289.958 284.904 281.567 284.65 272.362C284.408 263.5 288.77 255.179 290.1 246.411C290.892 241.19 290.667 235.616 293.221 230.99C295.916 226.117 301.17 223.265 304.823 219.057C316.023 206.135 310.154 183.389 323.004 172.093C326.308 169.188 330.469 167.473 334.547 165.817C338.329 164.273 342.112 162.735 345.895 161.191C351.652 149.376 349.666 134.156 347.195 120.691C344.074 119.931 341.545 123.278 340.487 126.307C339.435 129.336 338.519 132.948 335.569 134.209C332.159 135.664 328.418 132.906 326.213 129.937C324.002 126.967 322.099 123.354 318.624 122.076C317.034 124.138 315.438 126.201 313.848 128.263C308.996 123.466 309.138 114.604 314.144 109.96C312.589 109.171 311.029 108.381 309.474 107.597C308.925 101.846 317.743 98.7467 317.743 92.9718C317.743 91.1333 316.798 89.2771 317.329 87.5211C318.204 84.6278 322.412 84.2566 325.031 85.7828C327.649 87.3031 329.422 89.9607 331.917 91.6814C336.757 95.0166 343.643 94.1209 348.472 90.768C353.295 87.4151 356.362 82.0704 358.496 76.6079C359.477 74.0976 360.328 71.4577 362.078 69.4071C366.227 64.5279 373.609 64.6045 380.01 64.1449C386.411 63.6853 394.113 60.9157 394.887 54.5634C395.265 51.4639 393.77 48.4763 393.161 45.4121C391.66 37.8636 396.288 29.5726 403.516 26.8679C405.248 26.2197 407.122 25.8425 408.629 24.7701C412.737 21.8414 412.057 15.6718 410.94 10.7632C410.172 7.38669 408.96 3.49753 405.691 2.33078C403.51 1.55295 401.117 2.29542 398.924 3.03201C386.654 7.15688 374.389 11.2876 362.119 15.4184C360.009 16.1255 357.769 16.9328 356.451 18.7242C355.517 19.997 355.174 21.6116 354.311 22.9316C353.271 24.5226 351.575 25.5361 349.932 26.5025C343.022 30.5626 336.107 34.6226 329.198 38.6768C325.557 40.8158 320.964 42.9725 317.353 40.7805C315.633 39.7375 314.546 37.8754 312.837 36.8147C309.463 34.7051 305.059 36.3551 301.542 38.2113C295.342 41.4935 289.461 45.3708 284.006 49.7786C280.761 52.4008 277.398 55.8303 277.682 59.9847C277.83 62.0825 278.905 63.9858 279.544 65.9893C282.907 76.6315 273.686 86.5724 267.888 96.1126C266.263 98.7879 264.826 101.905 265.548 104.952C266.263 107.998 270.152 110.32 272.676 108.458C273.81 107.615 274.484 106.112 275.844 105.718C278.486 104.94 279.916 108.741 279.916 111.487C279.934 122.783 278.432 134.916 284.213 144.627C285.23 146.33 286.453 147.933 287.15 149.789C288.096 152.311 287.984 155.092 287.824 157.779C287.056 170.926 285.602 184.031 283.468 197.025C270.613 230.065 246.232 259.122 222.259 287.489C207.004 305.544 191.341 323.9 172.895 338.449C180.927 357.111 191.844 374.535 205.237 389.839C214.073 387.246 223.063 385.136 232.135 383.539L232.124 383.522Z" stroke="white" stroke-width="3" stroke-miterlimit="10"/>
<path d="M316.703 324.328C316.702 324.328 316.702 324.326 316.703 324.326C321.442 322.378 327.71 322.904 330.67 327.08C332.999 330.368 332.638 334.77 333.59 338.677C334.541 342.589 338.46 346.632 342.089 344.876C343.271 344.304 344.11 343.232 344.908 342.195C352.474 332.36 360.033 322.531 367.599 312.696C370.826 308.5 374.792 303.91 380.099 303.81C384.751 303.721 389.314 307.233 393.723 305.766C396.548 304.829 398.316 302.13 400.331 299.944C402.347 297.758 405.473 295.866 408.162 297.133C410.728 298.347 411.325 301.618 411.981 304.37C412.637 307.121 414.451 310.321 417.276 310.05C419.18 309.867 420.504 308.147 421.591 306.579C423.151 304.316 424.712 302.048 426.272 299.785C426.846 298.954 427.466 298.076 428.4 297.675C430.22 296.886 432.319 298.3 433.27 300.038C434.222 301.771 434.476 303.81 435.327 305.595C438.034 311.299 445.446 312.602 451.752 313.173C458.23 313.764 464.714 314.35 471.192 314.941C471.705 314.988 472.165 314.636 472.304 314.14C472.903 311.993 474.143 310.024 475.507 308.229C483.368 297.87 495.75 287.369 492.328 274.83C491.767 272.779 490.774 270.687 491.27 268.625C492.322 264.27 498.398 263.969 502.057 261.371C506.194 258.436 506.921 252.714 507.288 247.664C508.117 236.162 508.805 224.8 509.633 213.3C509.641 213.182 509.629 213.063 509.596 212.95C506.793 203.278 503.991 193.607 501.188 183.941C499.527 178.207 497.819 172.368 494.474 167.418C491.991 163.747 488.705 160.7 485.448 157.695C483.773 156.147 482.098 154.6 480.418 153.048C480.104 152.758 479.639 152.7 479.263 152.902C473.424 156.041 467.468 158.905 461.038 160.435C455.127 161.843 448.969 162.091 443.141 163.794C437.313 165.497 431.55 169.091 429.476 174.784C428.229 178.207 428.459 181.961 428.347 185.603C428.087 193.841 425.699 202.456 419.647 208.066C411.242 215.856 398.451 215.867 386.985 215.414C380.023 215.143 372.977 214.854 366.287 212.921C362.238 211.754 358.272 209.928 355.317 206.922C353.461 205.031 352.054 202.733 350.121 200.918C343.833 195.013 331.982 193.817 330.534 185.326C329.316 178.178 336.876 173.098 341.663 167.648C342.817 166.334 343.806 164.945 344.664 163.497C345.133 162.707 344.33 161.833 343.48 162.179C340.506 163.392 337.533 164.601 334.559 165.815C330.481 167.477 326.32 169.192 323.016 172.091C310.166 183.387 316.035 206.133 304.835 219.055C301.188 223.263 295.928 226.115 293.233 230.988C290.679 235.614 290.904 241.188 290.112 246.409C288.782 255.177 284.414 263.492 284.663 272.36C284.917 281.571 290.112 289.956 291.395 299.078C293.168 311.676 287.405 324.947 291.548 336.974C291.982 338.234 292.537 339.446 293.15 340.637C293.416 341.153 294.069 341.322 294.555 341.003C298.026 338.727 301.339 336.213 304.451 333.473C308.297 330.086 311.966 326.281 316.704 324.33C316.705 324.33 316.705 324.328 316.703 324.328V324.328Z" stroke="white" stroke-width="3" stroke-miterlimit="10"/>
<path d="M4.4103 564.572C4.4103 564.57 4.41234 564.57 4.41274 564.571C6.40404 571.505 8.73324 578.931 14.5114 583.266C17.3543 585.399 20.7883 586.572 24.175 587.656C34.938 591.098 45.8843 593.961 56.9547 596.236C60.8733 597.037 65.253 597.691 68.6161 595.535C73.9887 592.088 74.4498 582.913 80.6085 581.216C86.1053 579.701 91.6907 585.718 97.1284 584.009C100.781 582.86 102.507 578.776 103.624 575.123C105.965 567.447 107.637 559.573 108.62 551.614C108.717 550.832 109.638 550.449 110.268 550.922C114.702 554.249 119.613 556.94 124.809 558.885C125.309 559.072 125.865 558.823 126.067 558.329C126.91 556.267 127.753 554.209 128.596 552.147C128.909 551.387 129.258 550.58 129.955 550.143C130.877 549.566 132.077 549.825 133.129 550.114C137.574 551.334 143.573 552.076 145.654 547.969C146.629 546.042 146.321 543.52 147.775 541.917C149.992 539.478 154.437 541.033 157.014 538.977C158.674 537.651 158.988 535.294 159.118 533.178C159.549 526.284 159.401 519.354 158.68 512.483C158.521 510.981 158.403 509.266 159.449 508.17C160.909 506.644 163.444 507.404 165.377 508.27C170.676 510.643 175.974 513.016 181.273 515.39C181.93 515.684 182.675 515.208 182.71 514.489C182.844 511.758 183.277 509.07 184.22 506.491C185.774 502.23 188.587 498.565 191.359 494.976C195.018 490.233 198.683 485.489 202.341 480.745C205.072 477.204 208.748 473.274 213.163 474.028C221.686 475.489 221.574 491.965 230.215 491.606C234.938 491.411 237.249 486.008 240.18 482.307C245.488 475.607 254.809 473.633 263.367 473.35C271.926 473.073 280.738 473.998 288.859 471.294C296.98 468.589 304.291 460.669 302.589 452.302C300.296 441.023 284.704 437.647 279.763 427.246C276.285 419.917 279.095 411.757 280.889 403.577C281.061 402.791 280.267 402.142 279.503 402.395C276.405 403.419 273.126 403.681 269.981 402.797C259.46 399.839 254.767 386.221 244.241 383.304C240.316 382.22 236.143 382.821 232.136 383.528C223.273 385.088 214.495 387.132 205.851 389.648C205.477 389.757 205.073 389.64 204.817 389.346C191.901 374.492 181.31 357.648 173.414 339.632C173.15 339.03 172.389 338.837 171.869 339.24C165.117 344.484 158.004 349.23 150.382 353.234C148.656 354.141 146.842 355.067 145.707 356.652C142.657 360.906 146.073 367.147 144.046 371.973C142.119 376.563 136.327 377.883 132.45 381.018C124.654 387.323 125.759 399.745 119.919 407.889C115.735 413.728 107.62 419.173 110.244 425.855C111.751 429.697 116.603 431.913 116.988 436.026C117.307 439.432 114.298 442.361 114.121 445.778C114.003 448.071 115.167 450.216 116.343 452.19C120.345 458.907 124.855 465.318 129.825 471.353C133.029 475.242 136.475 479.06 138.431 483.698C140.068 487.591 140.452 492.277 138.687 496.017C138.308 496.819 139.105 497.897 139.668 498.583C140.271 499.319 139.854 500.601 139.258 501.441C130.168 514.222 116.036 523.332 100.616 526.361C96.0527 527.256 90.2013 528.806 89.8171 533.426C89.7461 534.31 89.9116 535.206 89.7698 536.084C89.4979 537.792 88.1444 539.095 86.8677 540.261C81.9443 544.763 76.5598 549.489 69.9282 550.297C67.7827 550.556 65.4067 550.456 63.7163 551.805C62.9006 552.459 62.3569 553.379 61.8308 554.28C61.1984 555.364 60.566 556.449 59.9277 557.533C58.8205 559.43 56.5376 561.539 54.8032 560.755C54.4043 560.575 54.3728 560.07 54.3914 559.632C54.4637 557.932 51.7692 556.576 50.0098 557.474C48.0121 558.493 47.1314 560.792 46.0084 562.724C44.8854 564.657 42.7813 566.543 40.6535 565.836C39.495 565.453 38.7149 564.398 38.0115 563.396C36.6756 561.503 35.3397 559.61 34.008 557.713C33.7237 557.308 33.7817 556.759 34.1317 556.409C34.9638 555.577 35.729 554.664 36.0138 553.538C36.3684 552.135 35.6059 550.361 34.1697 550.179C31.5632 549.849 31.1967 554.021 29.1458 555.665C28.3656 556.29 27.349 556.513 26.3619 556.696C20.5663 557.771 14.6262 558.082 8.74603 557.607C7.94301 557.542 7.55013 556.577 7.96285 555.885C9.06651 554.034 9.63323 551.865 9.56053 549.714C9.54333 549.206 9.10869 548.825 8.59977 548.828C6.75144 548.838 4.90353 548.85 3.05862 548.86C2.56207 548.863 2.13978 549.229 2.09276 549.724C1.6235 554.656 3.01777 559.735 4.40786 564.572C4.40826 564.573 4.4103 564.573 4.4103 564.572V564.572Z" stroke="white" stroke-width="3" stroke-miterlimit="10"/>
<path d="M347.16 106.056C345.47 105.29 343.472 105.826 341.823 106.681C340.18 107.535 338.69 108.708 336.941 109.32C332.821 110.758 328.158 108.825 323.956 109.998C323.069 110.246 322.194 110.646 321.58 111.33C319.836 113.257 321.071 116.669 323.43 117.771C325.788 118.873 328.631 118.171 330.883 116.869C332.047 116.191 333.194 115.337 334.535 115.243C335.357 115.184 336.161 115.419 336.959 115.614C338.466 115.985 339.997 116.227 341.545 116.345C342.804 116.439 344.104 116.439 345.287 115.997C346.469 115.555 347.521 114.6 347.769 113.363C348.047 111.972 347.308 110.363 348.106 109.191C348.437 108.702 348.998 108.366 349.187 107.806C349.418 107.111 348.939 106.345 348.295 105.997C347.651 105.649 346.888 105.614 347.166 106.056H347.16Z" stroke="white" stroke-width="3" stroke-miterlimit="10"/>
<circle cx="353" cy="232" r="6.5" fill="white" stroke="white"/>
<path d="M352 230.5L414 390" stroke="white" stroke-width="2"/>
<rect x="330.5" y="390.5" width="193" height="50" fill="#035468" stroke="white"/>
<g filter="url(#filter0_d_2094_954)">
<mask id="path-8-outside-1_2094_954" maskUnits="userSpaceOnUse" x="346" y="406" width="162" height="18" fill="black">
<rect fill="white" x="346" y="406" width="162" height="18"/>
<path d="M347.648 408.438H355.789V409.734H349.117V414.102H355.055V415.352H349.117V421.398H347.648V408.438ZM360.998 414.57H361.061C361.722 412.68 362.746 411.734 364.131 411.734C364.564 411.734 364.965 411.82 365.334 411.992L364.881 413.336C364.61 413.216 364.293 413.156 363.928 413.156C362.605 413.156 361.676 414.26 361.139 416.469V421.398H359.67V411.961H361.077L360.998 414.57ZM372.427 411.719C373.713 411.719 374.802 412.156 375.692 413.031C376.635 413.953 377.106 415.167 377.106 416.672C377.106 417.552 376.945 418.344 376.622 419.047C376.205 419.948 375.572 420.63 374.723 421.094C374.02 421.479 373.244 421.672 372.395 421.672C370.864 421.672 369.651 421.107 368.755 419.977C368.052 419.091 367.7 417.99 367.7 416.672C367.7 414.953 368.299 413.628 369.497 412.695C370.335 412.044 371.312 411.719 372.427 411.719ZM372.388 412.922C371.434 412.922 370.648 413.318 370.028 414.109C369.492 414.792 369.223 415.654 369.223 416.695C369.223 417.435 369.361 418.089 369.638 418.656C369.898 419.203 370.265 419.633 370.739 419.945C371.239 420.273 371.796 420.438 372.411 420.438C373.156 420.438 373.812 420.195 374.38 419.711C375.182 419.018 375.583 418.01 375.583 416.688C375.583 415.568 375.273 414.656 374.653 413.953C374.044 413.266 373.289 412.922 372.388 412.922ZM382.112 411.961V413.594C382.389 412.974 382.823 412.495 383.417 412.156C383.855 411.906 384.297 411.781 384.745 411.781C386.073 411.781 386.943 412.438 387.355 413.75C387.589 413.234 387.886 412.82 388.245 412.508C388.808 412.023 389.446 411.781 390.159 411.781C391.17 411.781 391.959 412.188 392.527 413C392.902 413.542 393.089 414.352 393.089 415.43V421.398H391.667V415.461C391.667 414.674 391.514 414.076 391.206 413.664C390.883 413.232 390.443 413.016 389.886 413.016C389.37 413.016 388.889 413.253 388.441 413.727C388.04 414.143 387.769 414.654 387.628 415.258V421.398H386.222V415.383C386.222 414.685 386.081 414.135 385.8 413.734C385.461 413.255 385.014 413.016 384.456 413.016C383.899 413.016 383.391 413.297 382.933 413.859C382.584 414.281 382.331 414.81 382.175 415.445V421.398H380.737V411.961H382.112ZM411.609 408.727H417.961V411.398H416.727V409.688H405.305V411.398H404.07V408.727H410.375V407.32H411.609V408.727ZM415.812 412.406V415.5H406.281V412.406H415.812ZM407.5 413.289V414.648H414.594V413.289H407.5ZM417.352 416.344V422.516H416.133V421.828H405.977V422.516H404.742V416.344H417.352ZM405.977 417.258V418.578H410.391V417.258H405.977ZM405.977 419.461V420.898H410.391V419.461H405.977ZM416.133 420.898V419.461H411.578V420.898H416.133ZM416.133 418.578V417.258H411.578V418.578H416.133ZM405.992 410.648H416.039V411.578H405.992V410.648ZM429.225 419.703H433.733V410.648H435.03V422.391H433.733V420.922H423.545V422.391H422.248V410.648H423.545V419.703H427.944V407.477H429.225V419.703ZM451.505 407.812V415.305H442.372V407.812H451.505ZM443.606 408.773V410.008H450.255V408.773H443.606ZM443.606 410.906V412.148H450.255V410.906H443.606ZM443.606 413.062V414.391H450.255V413.062H443.606ZM440.552 416.555H453.841V417.594H447.122V422.523H445.856V417.594H439.302V408.883H440.552V416.555ZM439.075 421.305C440.44 420.648 441.671 419.62 442.77 418.219L443.825 418.805C442.716 420.258 441.432 421.417 439.973 422.281L439.075 421.305ZM452.544 421.961C451.45 420.768 450.208 419.711 448.817 418.789L449.778 418.07C451.033 418.857 452.296 419.859 453.567 421.078L452.544 421.961ZM467.144 417.227V420.664H461.495V421.43H460.308V417.227H467.144ZM465.941 418.203H461.495V419.688H465.941V418.203ZM464.402 408.805H471.042V409.812H456.628V408.805H463.159V407.32H464.402V408.805ZM468.597 410.844V414.266H459.058V410.844H468.597ZM460.323 411.805V413.289H467.331V411.805H460.323ZM470.534 415.273V421.062C470.534 421.51 470.42 421.839 470.191 422.047C469.961 422.255 469.571 422.359 469.019 422.359C468.514 422.359 467.86 422.333 467.058 422.281L466.792 421.141C467.516 421.219 468.149 421.258 468.691 421.258C468.967 421.258 469.136 421.206 469.198 421.102C469.245 421.029 469.269 420.914 469.269 420.758V416.266H458.425V422.523H457.159V415.273H470.534ZM484.228 418.438V414.906H485.361V419.492H478.595V420.625H477.447V414.906H478.595V418.438H480.822V413.688H476.423V412.633H482.22C482.757 411.758 483.288 410.648 483.814 409.305L485.025 409.75C484.546 410.781 484.009 411.742 483.416 412.633H486.431V413.688H481.955V418.438H484.228ZM488.306 407.977V421.141C488.306 421.62 488.153 421.956 487.845 422.148C487.595 422.31 487.176 422.391 486.588 422.391C485.791 422.391 484.866 422.354 483.814 422.281L483.525 421.078C484.66 421.188 485.642 421.242 486.47 421.242C486.772 421.242 486.952 421.172 487.009 421.031C487.041 420.943 487.056 420.82 487.056 420.664V409.062H475.83V422.523H474.595V407.977H488.306ZM479.009 412.375C478.588 411.422 478.145 410.617 477.681 409.961L478.72 409.445C479.241 410.133 479.707 410.94 480.119 411.867L479.009 412.375ZM499.609 409.516H506.648V410.664H499.609V412.711H505.031V419.094C505.031 419.552 504.911 419.88 504.672 420.078C504.448 420.266 504.052 420.359 503.484 420.359C502.812 420.359 502.154 420.326 501.508 420.258L501.305 419.047C502.055 419.151 502.701 419.203 503.242 419.203C503.456 419.203 503.594 419.174 503.656 419.117C503.719 419.055 503.75 418.93 503.75 418.742V413.828H499.609V422.516H498.344V413.828H494.406V420.531H493.141V412.711H498.344V410.664H491.445V409.516H498.344V407.32H499.609V409.516Z"/>
</mask>
<path d="M347.648 408.438H355.789V409.734H349.117V414.102H355.055V415.352H349.117V421.398H347.648V408.438ZM360.998 414.57H361.061C361.722 412.68 362.746 411.734 364.131 411.734C364.564 411.734 364.965 411.82 365.334 411.992L364.881 413.336C364.61 413.216 364.293 413.156 363.928 413.156C362.605 413.156 361.676 414.26 361.139 416.469V421.398H359.67V411.961H361.077L360.998 414.57ZM372.427 411.719C373.713 411.719 374.802 412.156 375.692 413.031C376.635 413.953 377.106 415.167 377.106 416.672C377.106 417.552 376.945 418.344 376.622 419.047C376.205 419.948 375.572 420.63 374.723 421.094C374.02 421.479 373.244 421.672 372.395 421.672C370.864 421.672 369.651 421.107 368.755 419.977C368.052 419.091 367.7 417.99 367.7 416.672C367.7 414.953 368.299 413.628 369.497 412.695C370.335 412.044 371.312 411.719 372.427 411.719ZM372.388 412.922C371.434 412.922 370.648 413.318 370.028 414.109C369.492 414.792 369.223 415.654 369.223 416.695C369.223 417.435 369.361 418.089 369.638 418.656C369.898 419.203 370.265 419.633 370.739 419.945C371.239 420.273 371.796 420.438 372.411 420.438C373.156 420.438 373.812 420.195 374.38 419.711C375.182 419.018 375.583 418.01 375.583 416.688C375.583 415.568 375.273 414.656 374.653 413.953C374.044 413.266 373.289 412.922 372.388 412.922ZM382.112 411.961V413.594C382.389 412.974 382.823 412.495 383.417 412.156C383.855 411.906 384.297 411.781 384.745 411.781C386.073 411.781 386.943 412.438 387.355 413.75C387.589 413.234 387.886 412.82 388.245 412.508C388.808 412.023 389.446 411.781 390.159 411.781C391.17 411.781 391.959 412.188 392.527 413C392.902 413.542 393.089 414.352 393.089 415.43V421.398H391.667V415.461C391.667 414.674 391.514 414.076 391.206 413.664C390.883 413.232 390.443 413.016 389.886 413.016C389.37 413.016 388.889 413.253 388.441 413.727C388.04 414.143 387.769 414.654 387.628 415.258V421.398H386.222V415.383C386.222 414.685 386.081 414.135 385.8 413.734C385.461 413.255 385.014 413.016 384.456 413.016C383.899 413.016 383.391 413.297 382.933 413.859C382.584 414.281 382.331 414.81 382.175 415.445V421.398H380.737V411.961H382.112ZM411.609 408.727H417.961V411.398H416.727V409.688H405.305V411.398H404.07V408.727H410.375V407.32H411.609V408.727ZM415.812 412.406V415.5H406.281V412.406H415.812ZM407.5 413.289V414.648H414.594V413.289H407.5ZM417.352 416.344V422.516H416.133V421.828H405.977V422.516H404.742V416.344H417.352ZM405.977 417.258V418.578H410.391V417.258H405.977ZM405.977 419.461V420.898H410.391V419.461H405.977ZM416.133 420.898V419.461H411.578V420.898H416.133ZM416.133 418.578V417.258H411.578V418.578H416.133ZM405.992 410.648H416.039V411.578H405.992V410.648ZM429.225 419.703H433.733V410.648H435.03V422.391H433.733V420.922H423.545V422.391H422.248V410.648H423.545V419.703H427.944V407.477H429.225V419.703ZM451.505 407.812V415.305H442.372V407.812H451.505ZM443.606 408.773V410.008H450.255V408.773H443.606ZM443.606 410.906V412.148H450.255V410.906H443.606ZM443.606 413.062V414.391H450.255V413.062H443.606ZM440.552 416.555H453.841V417.594H447.122V422.523H445.856V417.594H439.302V408.883H440.552V416.555ZM439.075 421.305C440.44 420.648 441.671 419.62 442.77 418.219L443.825 418.805C442.716 420.258 441.432 421.417 439.973 422.281L439.075 421.305ZM452.544 421.961C451.45 420.768 450.208 419.711 448.817 418.789L449.778 418.07C451.033 418.857 452.296 419.859 453.567 421.078L452.544 421.961ZM467.144 417.227V420.664H461.495V421.43H460.308V417.227H467.144ZM465.941 418.203H461.495V419.688H465.941V418.203ZM464.402 408.805H471.042V409.812H456.628V408.805H463.159V407.32H464.402V408.805ZM468.597 410.844V414.266H459.058V410.844H468.597ZM460.323 411.805V413.289H467.331V411.805H460.323ZM470.534 415.273V421.062C470.534 421.51 470.42 421.839 470.191 422.047C469.961 422.255 469.571 422.359 469.019 422.359C468.514 422.359 467.86 422.333 467.058 422.281L466.792 421.141C467.516 421.219 468.149 421.258 468.691 421.258C468.967 421.258 469.136 421.206 469.198 421.102C469.245 421.029 469.269 420.914 469.269 420.758V416.266H458.425V422.523H457.159V415.273H470.534ZM484.228 418.438V414.906H485.361V419.492H478.595V420.625H477.447V414.906H478.595V418.438H480.822V413.688H476.423V412.633H482.22C482.757 411.758 483.288 410.648 483.814 409.305L485.025 409.75C484.546 410.781 484.009 411.742 483.416 412.633H486.431V413.688H481.955V418.438H484.228ZM488.306 407.977V421.141C488.306 421.62 488.153 421.956 487.845 422.148C487.595 422.31 487.176 422.391 486.588 422.391C485.791 422.391 484.866 422.354 483.814 422.281L483.525 421.078C484.66 421.188 485.642 421.242 486.47 421.242C486.772 421.242 486.952 421.172 487.009 421.031C487.041 420.943 487.056 420.82 487.056 420.664V409.062H475.83V422.523H474.595V407.977H488.306ZM479.009 412.375C478.588 411.422 478.145 410.617 477.681 409.961L478.72 409.445C479.241 410.133 479.707 410.94 480.119 411.867L479.009 412.375ZM499.609 409.516H506.648V410.664H499.609V412.711H505.031V419.094C505.031 419.552 504.911 419.88 504.672 420.078C504.448 420.266 504.052 420.359 503.484 420.359C502.812 420.359 502.154 420.326 501.508 420.258L501.305 419.047C502.055 419.151 502.701 419.203 503.242 419.203C503.456 419.203 503.594 419.174 503.656 419.117C503.719 419.055 503.75 418.93 503.75 418.742V413.828H499.609V422.516H498.344V413.828H494.406V420.531H493.141V412.711H498.344V410.664H491.445V409.516H498.344V407.32H499.609V409.516Z" fill="white"/>
<path d="M347.648 408.438V407.438H346.648V408.438H347.648ZM355.789 408.438H356.789V407.438H355.789V408.438ZM355.789 409.734V410.734H356.789V409.734H355.789ZM349.117 409.734V408.734H348.117V409.734H349.117ZM349.117 414.102H348.117V415.102H349.117V414.102ZM355.055 414.102H356.055V413.102H355.055V414.102ZM355.055 415.352V416.352H356.055V415.352H355.055ZM349.117 415.352V414.352H348.117V415.352H349.117ZM349.117 421.398V422.398H350.117V421.398H349.117ZM347.648 421.398H346.648V422.398H347.648V421.398ZM347.648 409.438H355.789V407.438H347.648V409.438ZM354.789 408.438V409.734H356.789V408.438H354.789ZM355.789 408.734H349.117V410.734H355.789V408.734ZM348.117 409.734V414.102H350.117V409.734H348.117ZM349.117 415.102H355.055V413.102H349.117V415.102ZM354.055 414.102V415.352H356.055V414.102H354.055ZM355.055 414.352H349.117V416.352H355.055V414.352ZM348.117 415.352V421.398H350.117V415.352H348.117ZM349.117 420.398H347.648V422.398H349.117V420.398ZM348.648 421.398V408.438H346.648V421.398H348.648ZM360.998 414.57L359.999 414.54L359.968 415.57H360.998V414.57ZM361.061 414.57V415.57H361.771L362.005 414.901L361.061 414.57ZM365.334 411.992L366.282 412.312L366.568 411.463L365.756 411.085L365.334 411.992ZM364.881 413.336L364.477 414.25L365.479 414.694L365.829 413.655L364.881 413.336ZM361.139 416.469L360.167 416.233L360.139 416.349V416.469H361.139ZM361.139 421.398V422.398H362.139V421.398H361.139ZM359.67 421.398H358.67V422.398H359.67V421.398ZM359.67 411.961V410.961H358.67V411.961H359.67ZM361.077 411.961L362.076 411.991L362.107 410.961H361.077V411.961ZM360.998 415.57H361.061V413.57H360.998V415.57ZM362.005 414.901C362.304 414.047 362.653 413.502 363.003 413.178C363.331 412.875 363.692 412.734 364.131 412.734V410.734C363.185 410.734 362.341 411.067 361.646 411.709C360.973 412.33 360.48 413.203 360.117 414.24L362.005 414.901ZM364.131 412.734C364.427 412.734 364.683 412.792 364.913 412.899L365.756 411.085C365.246 410.848 364.7 410.734 364.131 410.734V412.734ZM364.387 411.673L363.934 413.016L365.829 413.655L366.282 412.312L364.387 411.673ZM365.286 412.421C364.862 412.234 364.401 412.156 363.928 412.156V414.156C364.185 414.156 364.359 414.198 364.477 414.25L365.286 412.421ZM363.928 412.156C362.943 412.156 362.109 412.586 361.474 413.34C360.868 414.059 360.453 415.056 360.167 416.233L362.111 416.705C362.361 415.673 362.679 415.014 363.004 414.628C363.298 414.279 363.591 414.156 363.928 414.156V412.156ZM360.139 416.469V421.398H362.139V416.469H360.139ZM361.139 420.398H359.67V422.398H361.139V420.398ZM360.67 421.398V411.961H358.67V421.398H360.67ZM359.67 412.961H361.077V410.961H359.67V412.961ZM360.077 411.931L359.999 414.54L361.998 414.6L362.076 411.991L360.077 411.931ZM375.692 413.031L374.991 413.745L374.993 413.746L375.692 413.031ZM376.622 419.047L377.53 419.467L377.531 419.464L376.622 419.047ZM374.723 421.094L374.244 420.216L374.243 420.217L374.723 421.094ZM368.755 419.977L369.538 419.355L369.538 419.355L368.755 419.977ZM369.497 412.695L368.884 411.905L368.883 411.906L369.497 412.695ZM370.028 414.109L370.814 414.727L370.816 414.726L370.028 414.109ZM369.638 418.656L370.54 418.226L370.537 418.219L369.638 418.656ZM370.739 419.945L370.189 420.78L370.19 420.781L370.739 419.945ZM374.38 419.711L375.029 420.472L375.033 420.468L374.38 419.711ZM374.653 413.953L375.403 413.292L375.401 413.29L374.653 413.953ZM372.427 412.719C373.46 412.719 374.294 413.059 374.991 413.745L376.393 412.318C375.309 411.253 373.966 410.719 372.427 410.719V412.719ZM374.993 413.746C375.716 414.453 376.106 415.394 376.106 416.672H378.106C378.106 414.939 377.554 413.453 376.391 412.316L374.993 413.746ZM376.106 416.672C376.106 417.428 375.968 418.074 375.713 418.63L377.531 419.464C377.921 418.613 378.106 417.676 378.106 416.672H376.106ZM375.714 418.627C375.385 419.339 374.9 419.858 374.244 420.216L375.203 421.971C376.245 421.402 377.025 420.557 377.53 419.467L375.714 418.627ZM374.243 420.217C373.696 420.517 373.086 420.672 372.395 420.672V422.672C373.402 422.672 374.345 422.442 375.204 421.971L374.243 420.217ZM372.395 420.672C371.148 420.672 370.231 420.23 369.538 419.355L367.971 420.598C369.07 421.984 370.58 422.672 372.395 422.672V420.672ZM369.538 419.355C368.998 418.674 368.7 417.803 368.7 416.672H366.7C366.7 418.176 367.106 419.508 367.972 420.598L369.538 419.355ZM368.7 416.672C368.7 415.215 369.191 414.201 370.111 413.484L368.883 411.906C367.407 413.055 366.7 414.691 366.7 416.672H368.7ZM370.11 413.485C370.764 412.977 371.522 412.719 372.427 412.719V410.719C371.102 410.719 369.907 411.111 368.884 411.905L370.11 413.485ZM372.388 411.922C371.108 411.922 370.038 412.475 369.241 413.493L370.816 414.726C371.258 414.161 371.761 413.922 372.388 413.922V411.922ZM369.242 413.491C368.541 414.383 368.223 415.476 368.223 416.695H370.223C370.223 415.831 370.443 415.2 370.814 414.727L369.242 413.491ZM368.223 416.695C368.223 417.561 368.385 418.368 368.738 419.094L370.537 418.219C370.337 417.809 370.223 417.309 370.223 416.695H368.223ZM368.735 419.086C369.068 419.786 369.552 420.361 370.189 420.78L371.29 419.11C370.978 418.905 370.728 418.62 370.54 418.226L368.735 419.086ZM370.19 420.781C370.858 421.22 371.607 421.438 372.411 421.438V419.438C371.986 419.438 371.62 419.327 371.288 419.109L370.19 420.781ZM372.411 421.438C373.394 421.438 374.28 421.11 375.029 420.472L373.731 418.95C373.344 419.28 372.917 419.438 372.411 419.438V421.438ZM375.033 420.468C376.108 419.539 376.583 418.223 376.583 416.688H374.583C374.583 417.798 374.255 418.497 373.726 418.954L375.033 420.468ZM376.583 416.688C376.583 415.374 376.214 414.212 375.403 413.292L373.903 414.614C374.332 415.101 374.583 415.761 374.583 416.688H376.583ZM375.401 413.29C374.607 412.393 373.581 411.922 372.388 411.922V413.922C372.996 413.922 373.481 414.138 373.905 414.616L375.401 413.29ZM382.112 411.961H383.112V410.961H382.112V411.961ZM382.112 413.594H381.112L383.026 414.001L382.112 413.594ZM383.417 412.156L383.913 413.025L383.913 413.024L383.417 412.156ZM387.355 413.75L386.4 414.049L387.183 416.545L388.265 414.164L387.355 413.75ZM388.245 412.508L387.593 411.75L387.589 411.753L388.245 412.508ZM392.527 413L393.349 412.431L393.346 412.427L392.527 413ZM393.089 421.398V422.398H394.089V421.398H393.089ZM391.667 421.398H390.667V422.398H391.667V421.398ZM391.206 413.664L392.007 413.066L392.007 413.066L391.206 413.664ZM388.441 413.727L389.161 414.42L389.167 414.413L388.441 413.727ZM387.628 415.258L386.654 415.031L386.628 415.143V415.258H387.628ZM387.628 421.398V422.398H388.628V421.398H387.628ZM386.222 421.398H385.222V422.398H386.222V421.398ZM385.8 413.734L386.619 413.16L386.617 413.157L385.8 413.734ZM382.933 413.859L383.703 414.497L383.708 414.491L382.933 413.859ZM382.175 415.445L381.204 415.207L381.175 415.324V415.445H382.175ZM382.175 421.398V422.398H383.175V421.398H382.175ZM380.737 421.398H379.737V422.398H380.737V421.398ZM380.737 411.961V410.961H379.737V411.961H380.737ZM381.112 411.961V413.594H383.112V411.961H381.112ZM383.026 414.001C383.215 413.577 383.502 413.259 383.913 413.025L382.922 411.288C382.145 411.731 381.562 412.371 381.199 413.187L383.026 414.001ZM383.913 413.024C384.219 412.85 384.492 412.781 384.745 412.781V410.781C384.102 410.781 383.49 410.963 382.921 411.288L383.913 413.024ZM384.745 412.781C385.241 412.781 385.565 412.901 385.791 413.072C386.021 413.245 386.241 413.539 386.4 414.049L388.309 413.451C388.057 412.648 387.637 411.958 386.996 411.475C386.352 410.99 385.578 410.781 384.745 410.781V412.781ZM388.265 414.164C388.451 413.754 388.669 413.465 388.901 413.262L387.589 411.753C387.103 412.176 386.727 412.714 386.444 413.336L388.265 414.164ZM388.898 413.266C389.287 412.931 389.696 412.781 390.159 412.781V410.781C389.196 410.781 388.329 411.116 387.593 411.75L388.898 413.266ZM390.159 412.781C390.851 412.781 391.33 413.034 391.707 413.573L393.346 412.427C392.587 411.341 391.489 410.781 390.159 410.781V412.781ZM391.704 413.569C391.911 413.868 392.089 414.437 392.089 415.43H394.089C394.089 414.266 393.892 413.216 393.349 412.431L391.704 413.569ZM392.089 415.43V421.398H394.089V415.43H392.089ZM393.089 420.398H391.667V422.398H393.089V420.398ZM392.667 421.398V415.461H390.667V421.398H392.667ZM392.667 415.461C392.667 414.567 392.496 413.72 392.007 413.066L390.405 414.262C390.531 414.431 390.667 414.782 390.667 415.461H392.667ZM392.007 413.066C391.489 412.371 390.747 412.016 389.886 412.016V414.016C390.14 414.016 390.278 414.093 390.405 414.263L392.007 413.066ZM389.886 412.016C389.027 412.016 388.298 412.422 387.714 413.04L389.167 414.413C389.48 414.083 389.714 414.016 389.886 414.016V412.016ZM387.72 413.033C387.185 413.589 386.833 414.265 386.654 415.031L388.602 415.485C388.705 415.043 388.894 414.697 389.161 414.42L387.72 413.033ZM386.628 415.258V421.398H388.628V415.258H386.628ZM387.628 420.398H386.222V422.398H387.628V420.398ZM387.222 421.398V415.383H385.222V421.398H387.222ZM387.222 415.383C387.222 414.563 387.058 413.787 386.619 413.16L384.981 414.309C385.104 414.484 385.222 414.806 385.222 415.383H387.222ZM386.617 413.157C386.102 412.429 385.358 412.016 384.456 412.016V414.016C384.669 414.016 384.82 414.081 384.983 414.311L386.617 413.157ZM384.456 412.016C383.513 412.016 382.744 412.508 382.158 413.228L383.708 414.491C384.038 414.086 384.285 414.016 384.456 414.016V412.016ZM382.162 413.222C381.7 413.78 381.389 414.453 381.204 415.207L383.146 415.684C383.273 415.167 383.467 414.782 383.703 414.497L382.162 413.222ZM381.175 415.445V421.398H383.175V415.445H381.175ZM382.175 420.398H380.737V422.398H382.175V420.398ZM381.737 421.398V411.961H379.737V421.398H381.737ZM380.737 412.961H382.112V410.961H380.737V412.961ZM411.609 408.727H410.609V409.727H411.609V408.727ZM417.961 408.727H418.961V407.727H417.961V408.727ZM417.961 411.398V412.398H418.961V411.398H417.961ZM416.727 411.398H415.727V412.398H416.727V411.398ZM416.727 409.688H417.727V408.688H416.727V409.688ZM405.305 409.688V408.688H404.305V409.688H405.305ZM405.305 411.398V412.398H406.305V411.398H405.305ZM404.07 411.398H403.07V412.398H404.07V411.398ZM404.07 408.727V407.727H403.07V408.727H404.07ZM410.375 408.727V409.727H411.375V408.727H410.375ZM410.375 407.32V406.32H409.375V407.32H410.375ZM411.609 407.32H412.609V406.32H411.609V407.32ZM415.812 412.406H416.812V411.406H415.812V412.406ZM415.812 415.5V416.5H416.812V415.5H415.812ZM406.281 415.5H405.281V416.5H406.281V415.5ZM406.281 412.406V411.406H405.281V412.406H406.281ZM407.5 413.289V412.289H406.5V413.289H407.5ZM407.5 414.648H406.5V415.648H407.5V414.648ZM414.594 414.648V415.648H415.594V414.648H414.594ZM414.594 413.289H415.594V412.289H414.594V413.289ZM417.352 416.344H418.352V415.344H417.352V416.344ZM417.352 422.516V423.516H418.352V422.516H417.352ZM416.133 422.516H415.133V423.516H416.133V422.516ZM416.133 421.828H417.133V420.828H416.133V421.828ZM405.977 421.828V420.828H404.977V421.828H405.977ZM405.977 422.516V423.516H406.977V422.516H405.977ZM404.742 422.516H403.742V423.516H404.742V422.516ZM404.742 416.344V415.344H403.742V416.344H404.742ZM405.977 417.258V416.258H404.977V417.258H405.977ZM405.977 418.578H404.977V419.578H405.977V418.578ZM410.391 418.578V419.578H411.391V418.578H410.391ZM410.391 417.258H411.391V416.258H410.391V417.258ZM405.977 419.461V418.461H404.977V419.461H405.977ZM405.977 420.898H404.977V421.898H405.977V420.898ZM410.391 420.898V421.898H411.391V420.898H410.391ZM410.391 419.461H411.391V418.461H410.391V419.461ZM416.133 420.898V421.898H417.133V420.898H416.133ZM416.133 419.461H417.133V418.461H416.133V419.461ZM411.578 419.461V418.461H410.578V419.461H411.578ZM411.578 420.898H410.578V421.898H411.578V420.898ZM416.133 418.578V419.578H417.133V418.578H416.133ZM416.133 417.258H417.133V416.258H416.133V417.258ZM411.578 417.258V416.258H410.578V417.258H411.578ZM411.578 418.578H410.578V419.578H411.578V418.578ZM405.992 410.648V409.648H404.992V410.648H405.992ZM416.039 410.648H417.039V409.648H416.039V410.648ZM416.039 411.578V412.578H417.039V411.578H416.039ZM405.992 411.578H404.992V412.578H405.992V411.578ZM411.609 409.727H417.961V407.727H411.609V409.727ZM416.961 408.727V411.398H418.961V408.727H416.961ZM417.961 410.398H416.727V412.398H417.961V410.398ZM417.727 411.398V409.688H415.727V411.398H417.727ZM416.727 408.688H405.305V410.688H416.727V408.688ZM404.305 409.688V411.398H406.305V409.688H404.305ZM405.305 410.398H404.07V412.398H405.305V410.398ZM405.07 411.398V408.727H403.07V411.398H405.07ZM404.07 409.727H410.375V407.727H404.07V409.727ZM411.375 408.727V407.32H409.375V408.727H411.375ZM410.375 408.32H411.609V406.32H410.375V408.32ZM410.609 407.32V408.727H412.609V407.32H410.609ZM414.812 412.406V415.5H416.812V412.406H414.812ZM415.812 414.5H406.281V416.5H415.812V414.5ZM407.281 415.5V412.406H405.281V415.5H407.281ZM406.281 413.406H415.812V411.406H406.281V413.406ZM406.5 413.289V414.648H408.5V413.289H406.5ZM407.5 415.648H414.594V413.648H407.5V415.648ZM415.594 414.648V413.289H413.594V414.648H415.594ZM414.594 412.289H407.5V414.289H414.594V412.289ZM416.352 416.344V422.516H418.352V416.344H416.352ZM417.352 421.516H416.133V423.516H417.352V421.516ZM417.133 422.516V421.828H415.133V422.516H417.133ZM416.133 420.828H405.977V422.828H416.133V420.828ZM404.977 421.828V422.516H406.977V421.828H404.977ZM405.977 421.516H404.742V423.516H405.977V421.516ZM405.742 422.516V416.344H403.742V422.516H405.742ZM404.742 417.344H417.352V415.344H404.742V417.344ZM404.977 417.258V418.578H406.977V417.258H404.977ZM405.977 419.578H410.391V417.578H405.977V419.578ZM411.391 418.578V417.258H409.391V418.578H411.391ZM410.391 416.258H405.977V418.258H410.391V416.258ZM404.977 419.461V420.898H406.977V419.461H404.977ZM405.977 421.898H410.391V419.898H405.977V421.898ZM411.391 420.898V419.461H409.391V420.898H411.391ZM410.391 418.461H405.977V420.461H410.391V418.461ZM417.133 420.898V419.461H415.133V420.898H417.133ZM416.133 418.461H411.578V420.461H416.133V418.461ZM410.578 419.461V420.898H412.578V419.461H410.578ZM411.578 421.898H416.133V419.898H411.578V421.898ZM417.133 418.578V417.258H415.133V418.578H417.133ZM416.133 416.258H411.578V418.258H416.133V416.258ZM410.578 417.258V418.578H412.578V417.258H410.578ZM411.578 419.578H416.133V417.578H411.578V419.578ZM405.992 411.648H416.039V409.648H405.992V411.648ZM415.039 410.648V411.578H417.039V410.648H415.039ZM416.039 410.578H405.992V412.578H416.039V410.578ZM406.992 411.578V410.648H404.992V411.578H406.992ZM429.225 419.703H428.225V420.703H429.225V419.703ZM433.733 419.703V420.703H434.733V419.703H433.733ZM433.733 410.648V409.648H432.733V410.648H433.733ZM435.03 410.648H436.03V409.648H435.03V410.648ZM435.03 422.391V423.391H436.03V422.391H435.03ZM433.733 422.391H432.733V423.391H433.733V422.391ZM433.733 420.922H434.733V419.922H433.733V420.922ZM423.545 420.922V419.922H422.545V420.922H423.545ZM423.545 422.391V423.391H424.545V422.391H423.545ZM422.248 422.391H421.248V423.391H422.248V422.391ZM422.248 410.648V409.648H421.248V410.648H422.248ZM423.545 410.648H424.545V409.648H423.545V410.648ZM423.545 419.703H422.545V420.703H423.545V419.703ZM427.944 419.703V420.703H428.944V419.703H427.944ZM427.944 407.477V406.477H426.944V407.477H427.944ZM429.225 407.477H430.225V406.477H429.225V407.477ZM429.225 420.703H433.733V418.703H429.225V420.703ZM434.733 419.703V410.648H432.733V419.703H434.733ZM433.733 411.648H435.03V409.648H433.733V411.648ZM434.03 410.648V422.391H436.03V410.648H434.03ZM435.03 421.391H433.733V423.391H435.03V421.391ZM434.733 422.391V420.922H432.733V422.391H434.733ZM433.733 419.922H423.545V421.922H433.733V419.922ZM422.545 420.922V422.391H424.545V420.922H422.545ZM423.545 421.391H422.248V423.391H423.545V421.391ZM423.248 422.391V410.648H421.248V422.391H423.248ZM422.248 411.648H423.545V409.648H422.248V411.648ZM422.545 410.648V419.703H424.545V410.648H422.545ZM423.545 420.703H427.944V418.703H423.545V420.703ZM428.944 419.703V407.477H426.944V419.703H428.944ZM427.944 408.477H429.225V406.477H427.944V408.477ZM428.225 407.477V419.703H430.225V407.477H428.225ZM451.505 407.812H452.505V406.812H451.505V407.812ZM451.505 415.305V416.305H452.505V415.305H451.505ZM442.372 415.305H441.372V416.305H442.372V415.305ZM442.372 407.812V406.812H441.372V407.812H442.372ZM443.606 408.773V407.773H442.606V408.773H443.606ZM443.606 410.008H442.606V411.008H443.606V410.008ZM450.255 410.008V411.008H451.255V410.008H450.255ZM450.255 408.773H451.255V407.773H450.255V408.773ZM443.606 410.906V409.906H442.606V410.906H443.606ZM443.606 412.148H442.606V413.148H443.606V412.148ZM450.255 412.148V413.148H451.255V412.148H450.255ZM450.255 410.906H451.255V409.906H450.255V410.906ZM443.606 413.062V412.062H442.606V413.062H443.606ZM443.606 414.391H442.606V415.391H443.606V414.391ZM450.255 414.391V415.391H451.255V414.391H450.255ZM450.255 413.062H451.255V412.062H450.255V413.062ZM440.552 416.555H439.552V417.555H440.552V416.555ZM453.841 416.555H454.841V415.555H453.841V416.555ZM453.841 417.594V418.594H454.841V417.594H453.841ZM447.122 417.594V416.594H446.122V417.594H447.122ZM447.122 422.523V423.523H448.122V422.523H447.122ZM445.856 422.523H444.856V423.523H445.856V422.523ZM445.856 417.594H446.856V416.594H445.856V417.594ZM439.302 417.594H438.302V418.594H439.302V417.594ZM439.302 408.883V407.883H438.302V408.883H439.302ZM440.552 408.883H441.552V407.883H440.552V408.883ZM439.075 421.305L438.642 420.403L437.425 420.988L438.339 421.982L439.075 421.305ZM442.77 418.219L443.256 417.345L442.51 416.93L441.983 417.602L442.77 418.219ZM443.825 418.805L444.62 419.412L445.322 418.492L444.311 417.931L443.825 418.805ZM439.973 422.281L439.238 422.958L439.786 423.555L440.483 423.141L439.973 422.281ZM452.544 421.961L451.807 422.637L452.462 423.352L453.197 422.718L452.544 421.961ZM448.817 418.789L448.218 417.988L447.082 418.838L448.265 419.623L448.817 418.789ZM449.778 418.07L450.309 417.223L449.728 416.859L449.179 417.27L449.778 418.07ZM453.567 421.078L454.22 421.835L455.053 421.117L454.259 420.356L453.567 421.078ZM450.505 407.812V415.305H452.505V407.812H450.505ZM451.505 414.305H442.372V416.305H451.505V414.305ZM443.372 415.305V407.812H441.372V415.305H443.372ZM442.372 408.812H451.505V406.812H442.372V408.812ZM442.606 408.773V410.008H444.606V408.773H442.606ZM443.606 411.008H450.255V409.008H443.606V411.008ZM451.255 410.008V408.773H449.255V410.008H451.255ZM450.255 407.773H443.606V409.773H450.255V407.773ZM442.606 410.906V412.148H444.606V410.906H442.606ZM443.606 413.148H450.255V411.148H443.606V413.148ZM451.255 412.148V410.906H449.255V412.148H451.255ZM450.255 409.906H443.606V411.906H450.255V409.906ZM442.606 413.062V414.391H444.606V413.062H442.606ZM443.606 415.391H450.255V413.391H443.606V415.391ZM451.255 414.391V413.062H449.255V414.391H451.255ZM450.255 412.062H443.606V414.062H450.255V412.062ZM440.552 417.555H453.841V415.555H440.552V417.555ZM452.841 416.555V417.594H454.841V416.555H452.841ZM453.841 416.594H447.122V418.594H453.841V416.594ZM446.122 417.594V422.523H448.122V417.594H446.122ZM447.122 421.523H445.856V423.523H447.122V421.523ZM446.856 422.523V417.594H444.856V422.523H446.856ZM445.856 416.594H439.302V418.594H445.856V416.594ZM440.302 417.594V408.883H438.302V417.594H440.302ZM439.302 409.883H440.552V407.883H439.302V409.883ZM439.552 408.883V416.555H441.552V408.883H439.552ZM439.508 422.206C441.033 421.473 442.38 420.336 443.557 418.836L441.983 417.602C440.962 418.903 439.846 419.824 438.642 420.403L439.508 422.206ZM442.285 419.093L443.339 419.679L444.311 417.931L443.256 417.345L442.285 419.093ZM443.03 418.198C441.992 419.557 440.803 420.627 439.463 421.421L440.483 423.141C442.06 422.206 443.439 420.959 444.62 419.412L443.03 418.198ZM440.709 421.604L439.811 420.628L438.339 421.982L439.238 422.958L440.709 421.604ZM453.281 421.285C452.13 420.031 450.826 418.921 449.37 417.956L448.265 419.623C449.59 420.501 450.77 421.506 451.807 422.637L453.281 421.285ZM449.416 419.59L450.377 418.871L449.179 417.27L448.218 417.988L449.416 419.59ZM449.247 418.918C450.435 419.662 451.645 420.62 452.875 421.8L454.259 420.356C452.948 419.099 451.632 418.052 450.309 417.223L449.247 418.918ZM452.914 420.321L451.891 421.204L453.197 422.718L454.22 421.835L452.914 420.321ZM467.144 417.227H468.144V416.227H467.144V417.227ZM467.144 420.664V421.664H468.144V420.664H467.144ZM461.495 420.664V419.664H460.495V420.664H461.495ZM461.495 421.43V422.43H462.495V421.43H461.495ZM460.308 421.43H459.308V422.43H460.308V421.43ZM460.308 417.227V416.227H459.308V417.227H460.308ZM465.941 418.203H466.941V417.203H465.941V418.203ZM461.495 418.203V417.203H460.495V418.203H461.495ZM461.495 419.688H460.495V420.688H461.495V419.688ZM465.941 419.688V420.688H466.941V419.688H465.941ZM464.402 408.805H463.402V409.805H464.402V408.805ZM471.042 408.805H472.042V407.805H471.042V408.805ZM471.042 409.812V410.812H472.042V409.812H471.042ZM456.628 409.812H455.628V410.812H456.628V409.812ZM456.628 408.805V407.805H455.628V408.805H456.628ZM463.159 408.805V409.805H464.159V408.805H463.159ZM463.159 407.32V406.32H462.159V407.32H463.159ZM464.402 407.32H465.402V406.32H464.402V407.32ZM468.597 410.844H469.597V409.844H468.597V410.844ZM468.597 414.266V415.266H469.597V414.266H468.597ZM459.058 414.266H458.058V415.266H459.058V414.266ZM459.058 410.844V409.844H458.058V410.844H459.058ZM460.323 411.805V410.805H459.323V411.805H460.323ZM460.323 413.289H459.323V414.289H460.323V413.289ZM467.331 413.289V414.289H468.331V413.289H467.331ZM467.331 411.805H468.331V410.805H467.331V411.805ZM470.534 415.273H471.534V414.273H470.534V415.273ZM467.058 422.281L466.084 422.508L466.252 423.231L466.993 423.279L467.058 422.281ZM466.792 421.141L466.899 420.146L465.499 419.995L465.818 421.367L466.792 421.141ZM469.198 421.102L468.357 420.561L468.349 420.574L468.341 420.587L469.198 421.102ZM469.269 416.266H470.269V415.266H469.269V416.266ZM458.425 416.266V415.266H457.425V416.266H458.425ZM458.425 422.523V423.523H459.425V422.523H458.425ZM457.159 422.523H456.159V423.523H457.159V422.523ZM457.159 415.273V414.273H456.159V415.273H457.159ZM466.144 417.227V420.664H468.144V417.227H466.144ZM467.144 419.664H461.495V421.664H467.144V419.664ZM460.495 420.664V421.43H462.495V420.664H460.495ZM461.495 420.43H460.308V422.43H461.495V420.43ZM461.308 421.43V417.227H459.308V421.43H461.308ZM460.308 418.227H467.144V416.227H460.308V418.227ZM465.941 417.203H461.495V419.203H465.941V417.203ZM460.495 418.203V419.688H462.495V418.203H460.495ZM461.495 420.688H465.941V418.688H461.495V420.688ZM466.941 419.688V418.203H464.941V419.688H466.941ZM464.402 409.805H471.042V407.805H464.402V409.805ZM470.042 408.805V409.812H472.042V408.805H470.042ZM471.042 408.812H456.628V410.812H471.042V408.812ZM457.628 409.812V408.805H455.628V409.812H457.628ZM456.628 409.805H463.159V407.805H456.628V409.805ZM464.159 408.805V407.32H462.159V408.805H464.159ZM463.159 408.32H464.402V406.32H463.159V408.32ZM463.402 407.32V408.805H465.402V407.32H463.402ZM467.597 410.844V414.266H469.597V410.844H467.597ZM468.597 413.266H459.058V415.266H468.597V413.266ZM460.058 414.266V410.844H458.058V414.266H460.058ZM459.058 411.844H468.597V409.844H459.058V411.844ZM459.323 411.805V413.289H461.323V411.805H459.323ZM460.323 414.289H467.331V412.289H460.323V414.289ZM468.331 413.289V411.805H466.331V413.289H468.331ZM467.331 410.805H460.323V412.805H467.331V410.805ZM469.534 415.273V421.062H471.534V415.273H469.534ZM469.534 421.062C469.534 421.205 469.516 421.282 469.504 421.315C469.495 421.341 469.495 421.328 469.518 421.307L470.863 422.787C471.38 422.317 471.534 421.664 471.534 421.062H469.534ZM469.518 421.307C469.552 421.276 469.555 421.292 469.468 421.315C469.381 421.338 469.237 421.359 469.019 421.359V423.359C469.643 423.359 470.352 423.252 470.863 422.787L469.518 421.307ZM469.019 421.359C468.544 421.359 467.914 421.335 467.123 421.283L466.993 423.279C467.806 423.332 468.483 423.359 469.019 423.359V421.359ZM468.032 422.054L467.766 420.914L465.818 421.367L466.084 422.508L468.032 422.054ZM466.685 422.135C467.433 422.216 468.103 422.258 468.691 422.258V420.258C468.195 420.258 467.599 420.222 466.899 420.146L466.685 422.135ZM468.691 422.258C468.879 422.258 469.101 422.241 469.319 422.175C469.533 422.109 469.85 421.959 470.056 421.616L468.341 420.587C468.484 420.349 468.686 420.277 468.731 420.263C468.779 420.248 468.778 420.258 468.691 420.258V422.258ZM470.04 421.642C470.244 421.324 470.269 420.973 470.269 420.758H468.269C468.269 420.79 468.266 420.787 468.271 420.761C468.276 420.736 468.295 420.658 468.357 420.561L470.04 421.642ZM470.269 420.758V416.266H468.269V420.758H470.269ZM469.269 415.266H458.425V417.266H469.269V415.266ZM457.425 416.266V422.523H459.425V416.266H457.425ZM458.425 421.523H457.159V423.523H458.425V421.523ZM458.159 422.523V415.273H456.159V422.523H458.159ZM457.159 416.273H470.534V414.273H457.159V416.273ZM484.228 418.438V419.438H485.228V418.438H484.228ZM484.228 414.906V413.906H483.228V414.906H484.228ZM485.361 414.906H486.361V413.906H485.361V414.906ZM485.361 419.492V420.492H486.361V419.492H485.361ZM478.595 419.492V418.492H477.595V419.492H478.595ZM478.595 420.625V421.625H479.595V420.625H478.595ZM477.447 420.625H476.447V421.625H477.447V420.625ZM477.447 414.906V413.906H476.447V414.906H477.447ZM478.595 414.906H479.595V413.906H478.595V414.906ZM478.595 418.438H477.595V419.438H478.595V418.438ZM480.822 418.438V419.438H481.822V418.438H480.822ZM480.822 413.688H481.822V412.688H480.822V413.688ZM476.423 413.688H475.423V414.688H476.423V413.688ZM476.423 412.633V411.633H475.423V412.633H476.423ZM482.22 412.633V413.633H482.78L483.073 413.155L482.22 412.633ZM483.814 409.305L484.159 408.366L483.24 408.028L482.883 408.94L483.814 409.305ZM485.025 409.75L485.932 410.171L486.39 409.186L485.37 408.811L485.025 409.75ZM483.416 412.633L482.584 412.078L481.547 413.633H483.416V412.633ZM486.431 412.633H487.431V411.633H486.431V412.633ZM486.431 413.688V414.688H487.431V413.688H486.431ZM481.955 413.688V412.688H480.955V413.688H481.955ZM481.955 418.438H480.955V419.438H481.955V418.438ZM488.306 407.977H489.306V406.977H488.306V407.977ZM487.845 422.148L487.314 421.301L487.303 421.308L487.845 422.148ZM483.814 422.281L482.842 422.515L483.013 423.228L483.745 423.279L483.814 422.281ZM483.525 421.078L483.621 420.083L482.225 419.948L482.553 421.312L483.525 421.078ZM487.009 421.031L487.935 421.409L487.944 421.387L487.952 421.364L487.009 421.031ZM487.056 409.062H488.056V408.062H487.056V409.062ZM475.83 409.062V408.062H474.83V409.062H475.83ZM475.83 422.523V423.523H476.83V422.523H475.83ZM474.595 422.523H473.595V423.523H474.595V422.523ZM474.595 407.977V406.977H473.595V407.977H474.595ZM479.009 412.375L478.095 412.78L478.505 413.706L479.426 413.284L479.009 412.375ZM477.681 409.961L477.237 409.065L476.191 409.584L476.864 410.538L477.681 409.961ZM478.72 409.445L479.517 408.841L479.017 408.182L478.276 408.55L478.72 409.445ZM480.119 411.867L480.535 412.776L481.434 412.365L481.033 411.462L480.119 411.867ZM485.228 418.438V414.906H483.228V418.438H485.228ZM484.228 415.906H485.361V413.906H484.228V415.906ZM484.361 414.906V419.492H486.361V414.906H484.361ZM485.361 418.492H478.595V420.492H485.361V418.492ZM477.595 419.492V420.625H479.595V419.492H477.595ZM478.595 419.625H477.447V421.625H478.595V419.625ZM478.447 420.625V414.906H476.447V420.625H478.447ZM477.447 415.906H478.595V413.906H477.447V415.906ZM477.595 414.906V418.438H479.595V414.906H477.595ZM478.595 419.438H480.822V417.438H478.595V419.438ZM481.822 418.438V413.688H479.822V418.438H481.822ZM480.822 412.688H476.423V414.688H480.822V412.688ZM477.423 413.688V412.633H475.423V413.688H477.423ZM476.423 413.633H482.22V411.633H476.423V413.633ZM483.073 413.155C483.65 412.215 484.206 411.048 484.745 409.669L482.883 408.94C482.37 410.249 481.864 411.301 481.368 412.11L483.073 413.155ZM483.469 410.243L484.68 410.689L485.37 408.811L484.159 408.366L483.469 410.243ZM484.118 409.329C483.659 410.316 483.147 411.232 482.584 412.078L484.248 413.188C484.871 412.252 485.433 411.246 485.932 410.171L484.118 409.329ZM483.416 413.633H486.431V411.633H483.416V413.633ZM485.431 412.633V413.688H487.431V412.633H485.431ZM486.431 412.688H481.955V414.688H486.431V412.688ZM480.955 413.688V418.438H482.955V413.688H480.955ZM481.955 419.438H484.228V417.438H481.955V419.438ZM487.306 407.977V421.141H489.306V407.977H487.306ZM487.306 421.141C487.306 421.278 487.284 421.331 487.282 421.336C487.281 421.337 487.284 421.33 487.293 421.32C487.302 421.31 487.311 421.303 487.314 421.301L488.377 422.996C489.067 422.563 489.306 421.84 489.306 421.141H487.306ZM487.303 421.308C487.321 421.296 487.288 421.322 487.154 421.348C487.025 421.373 486.84 421.391 486.588 421.391V423.391C487.213 423.391 487.882 423.315 488.388 422.988L487.303 421.308ZM486.588 421.391C485.82 421.391 484.919 421.355 483.883 421.284L483.745 423.279C484.813 423.353 485.762 423.391 486.588 423.391V421.391ZM484.786 422.048L484.497 420.845L482.553 421.312L482.842 422.515L484.786 422.048ZM483.429 422.074C484.585 422.185 485.601 422.242 486.47 422.242V420.242C485.684 420.242 484.735 420.19 483.621 420.083L483.429 422.074ZM486.47 422.242C486.683 422.242 486.943 422.22 487.196 422.121C487.468 422.014 487.777 421.797 487.935 421.409L486.083 420.654C486.129 420.541 486.199 420.447 486.279 420.377C486.354 420.309 486.425 420.275 486.467 420.258C486.54 420.23 486.559 420.242 486.47 420.242V422.242ZM487.952 421.364C488.038 421.121 488.056 420.869 488.056 420.664H486.056C486.056 420.687 486.056 420.705 486.055 420.719C486.054 420.733 486.053 420.742 486.053 420.746C486.052 420.751 486.052 420.749 486.054 420.742C486.055 420.734 486.059 420.719 486.066 420.698L487.952 421.364ZM488.056 420.664V409.062H486.056V420.664H488.056ZM487.056 408.062H475.83V410.062H487.056V408.062ZM474.83 409.062V422.523H476.83V409.062H474.83ZM475.83 421.523H474.595V423.523H475.83V421.523ZM475.595 422.523V407.977H473.595V422.523H475.595ZM474.595 408.977H488.306V406.977H474.595V408.977ZM479.924 411.97C479.483 410.973 479.009 410.107 478.498 409.384L476.864 410.538C477.281 411.127 477.692 411.87 478.095 412.78L479.924 411.97ZM478.126 410.857L479.165 410.341L478.276 408.55L477.237 409.065L478.126 410.857ZM477.923 410.049C478.39 410.666 478.819 411.404 479.205 412.273L481.033 411.462C480.595 410.476 480.092 409.6 479.517 408.841L477.923 410.049ZM479.703 410.958L478.593 411.466L479.426 413.284L480.535 412.776L479.703 410.958ZM499.609 409.516H498.609V410.516H499.609V409.516ZM506.648 409.516H507.648V408.516H506.648V409.516ZM506.648 410.664V411.664H507.648V410.664H506.648ZM499.609 410.664V409.664H498.609V410.664H499.609ZM499.609 412.711H498.609V413.711H499.609V412.711ZM505.031 412.711H506.031V411.711H505.031V412.711ZM504.672 420.078L504.035 419.307L504.03 419.311L504.672 420.078ZM501.508 420.258L500.522 420.423L500.647 421.173L501.404 421.252L501.508 420.258ZM501.305 419.047L501.442 418.056L500.093 417.869L500.318 419.212L501.305 419.047ZM503.656 419.117L504.332 419.854L504.348 419.84L504.363 419.824L503.656 419.117ZM503.75 413.828H504.75V412.828H503.75V413.828ZM499.609 413.828V412.828H498.609V413.828H499.609ZM499.609 422.516V423.516H500.609V422.516H499.609ZM498.344 422.516H497.344V423.516H498.344V422.516ZM498.344 413.828H499.344V412.828H498.344V413.828ZM494.406 413.828V412.828H493.406V413.828H494.406ZM494.406 420.531V421.531H495.406V420.531H494.406ZM493.141 420.531H492.141V421.531H493.141V420.531ZM493.141 412.711V411.711H492.141V412.711H493.141ZM498.344 412.711V413.711H499.344V412.711H498.344ZM498.344 410.664H499.344V409.664H498.344V410.664ZM491.445 410.664H490.445V411.664H491.445V410.664ZM491.445 409.516V408.516H490.445V409.516H491.445ZM498.344 409.516V410.516H499.344V409.516H498.344ZM498.344 407.32V406.32H497.344V407.32H498.344ZM499.609 407.32H500.609V406.32H499.609V407.32ZM499.609 410.516H506.648V408.516H499.609V410.516ZM505.648 409.516V410.664H507.648V409.516H505.648ZM506.648 409.664H499.609V411.664H506.648V409.664ZM498.609 410.664V412.711H500.609V410.664H498.609ZM499.609 413.711H505.031V411.711H499.609V413.711ZM504.031 412.711V419.094H506.031V412.711H504.031ZM504.031 419.094C504.031 419.24 504.011 419.315 504.002 419.341C503.995 419.359 504.001 419.335 504.035 419.307L505.309 420.849C505.871 420.385 506.031 419.705 506.031 419.094H504.031ZM504.03 419.311C504.075 419.274 504.079 419.292 503.977 419.316C503.877 419.339 503.719 419.359 503.484 419.359V421.359C504.096 421.359 504.804 421.272 505.314 420.845L504.03 419.311ZM503.484 419.359C502.846 419.359 502.222 419.327 501.612 419.263L501.404 421.252C502.085 421.324 502.779 421.359 503.484 421.359V419.359ZM502.494 420.092L502.291 418.881L500.318 419.212L500.522 420.423L502.494 420.092ZM501.167 420.037C501.946 420.146 502.64 420.203 503.242 420.203V418.203C502.761 418.203 502.163 418.157 501.442 418.056L501.167 420.037ZM503.242 420.203C503.386 420.203 503.548 420.194 503.709 420.161C503.85 420.131 504.107 420.061 504.332 419.854L502.981 418.38C503.068 418.3 503.151 418.257 503.201 418.236C503.252 418.214 503.29 418.205 503.303 418.203C503.325 418.198 503.312 418.203 503.242 418.203V420.203ZM504.363 419.824C504.568 419.619 504.656 419.382 504.697 419.219C504.739 419.05 504.75 418.884 504.75 418.742H502.75C502.75 418.788 502.745 418.778 502.756 418.734C502.766 418.696 502.807 418.553 502.949 418.41L504.363 419.824ZM504.75 418.742V413.828H502.75V418.742H504.75ZM503.75 412.828H499.609V414.828H503.75V412.828ZM498.609 413.828V422.516H500.609V413.828H498.609ZM499.609 421.516H498.344V423.516H499.609V421.516ZM499.344 422.516V413.828H497.344V422.516H499.344ZM498.344 412.828H494.406V414.828H498.344V412.828ZM493.406 413.828V420.531H495.406V413.828H493.406ZM494.406 419.531H493.141V421.531H494.406V419.531ZM494.141 420.531V412.711H492.141V420.531H494.141ZM493.141 413.711H498.344V411.711H493.141V413.711ZM499.344 412.711V410.664H497.344V412.711H499.344ZM498.344 409.664H491.445V411.664H498.344V409.664ZM492.445 410.664V409.516H490.445V410.664H492.445ZM491.445 410.516H498.344V408.516H491.445V410.516ZM499.344 409.516V407.32H497.344V409.516H499.344ZM498.344 408.32H499.609V406.32H498.344V408.32ZM498.609 407.32V409.516H500.609V407.32H498.609Z" fill="white" mask="url(#path-8-outside-1_2094_954)"/>
</g>
<path d="M499.114 183.188C501.911 192.867 504.708 202.552 507.504 212.237C507.537 212.35 507.549 212.468 507.541 212.586C506.715 224.102 506.04 235.509 505.212 247.027C504.847 252.084 504.121 257.813 499.993 260.752C496.342 263.354 490.279 263.655 489.229 268.015C488.734 270.08 489.724 272.175 490.285 274.229C493.7 286.785 481.343 297.3 473.499 307.673C472.139 309.471 470.901 311.442 470.303 313.592C470.165 314.088 469.704 314.441 469.191 314.394C462.727 313.802 456.259 313.216 449.795 312.624C443.502 312.051 436.106 310.747 433.405 305.036C432.556 303.248 432.302 301.206 431.353 299.471C430.403 297.737 428.309 296.315 426.493 297.105C425.561 297.506 424.942 298.386 424.37 299.218C422.812 301.483 421.255 303.755 419.698 306.021C418.613 307.591 417.292 309.314 415.393 309.496C412.574 309.768 410.763 306.564 410.108 303.808C409.454 301.053 408.858 297.778 406.298 296.562C403.615 295.294 400.495 297.188 398.483 299.377C396.472 301.566 394.709 304.268 391.89 305.207C387.49 306.676 382.937 303.159 378.295 303.248C372.999 303.348 369.041 307.945 365.821 312.146C358.271 321.994 350.728 331.836 343.179 341.684C342.382 342.723 341.545 343.797 340.365 344.369C336.744 346.127 332.834 342.08 331.884 338.162C330.935 334.249 331.294 329.842 328.971 326.549C326.016 322.372 319.758 321.846 315.028 323.8C310.298 325.753 306.629 329.564 302.796 332.957C299.653 335.733 296.285 338.305 292.773 340.609C292.336 340.895 292.187 341.468 292.443 341.924C296.2 348.592 301.572 354.618 302.188 362.165C302.666 368.001 300.147 373.624 297.682 378.941C294.804 385.142 291.837 391.491 286.995 396.318C285.031 398.272 282.686 399.907 280.151 401.072C279.852 401.209 279.633 401.48 279.567 401.803C277.819 410.432 274.511 419.119 278.166 426.848C283.096 437.262 298.655 440.643 300.944 451.937C302.642 460.316 295.346 468.246 287.243 470.955C279.139 473.663 270.345 472.737 261.805 473.014C253.265 473.297 243.964 475.274 238.667 481.983C235.742 485.689 233.436 491.1 228.724 491.294C220.101 491.654 220.213 475.156 211.708 473.693C207.302 472.937 203.634 476.873 200.909 480.419C197.258 485.169 193.601 489.919 189.951 494.669C187.184 498.263 184.377 501.933 182.826 506.199C181.886 508.782 181.453 511.474 181.32 514.208C181.284 514.928 180.539 515.404 179.881 515.108L164.023 507.981C162.095 507.114 159.564 506.353 158.108 507.881C157.064 508.978 157.182 510.695 157.341 512.2C158.061 519.08 158.208 526.019 157.777 532.923C157.648 535.041 157.335 537.402 155.678 538.729C153.112 540.789 148.677 539.231 146.465 541.674C145.014 543.279 145.321 545.804 144.348 547.734C142.272 551.846 136.285 551.103 131.85 549.881C130.8 549.592 129.603 549.333 128.683 549.911C127.987 550.348 127.639 551.156 127.326 551.917C126.485 553.982 125.644 556.042 124.803 558.106C124.601 558.601 124.045 558.851 123.544 558.663C118.362 556.716 113.464 554.023 109.043 550.694C108.412 550.219 107.489 550.602 107.393 551.386C106.411 559.355 104.743 567.239 102.408 574.924C101.293 578.582 99.5708 582.671 95.9259 583.822C90.4998 585.533 84.9263 579.508 79.4412 581.025C73.2956 582.724 72.8355 591.911 67.4743 595.363C64.1184 597.523 59.748 596.868 55.8377 596.065C44.7909 593.788 33.8679 590.92 23.1278 587.474C19.7483 586.388 16.3216 585.214 13.4847 583.078C7.71655 578.735 5.39277 571.295 3.40517 564.35C2.0171 559.503 0.623763 554.414 1.09269 549.471C1.13958 548.977 1.56149 548.611 2.05791 548.608L7.58101 548.577C8.09112 548.574 8.52664 548.955 8.54294 549.465C8.61182 551.62 8.04459 553.793 6.94167 555.647C6.53013 556.338 6.92288 557.302 7.72492 557.367C13.5929 557.842 19.5207 557.531 25.3042 556.455C26.2891 556.272 27.3036 556.048 28.0821 555.422C30.1287 553.776 30.4943 549.598 33.0953 549.929C34.5285 550.112 35.2893 551.888 34.9355 553.292C34.5816 554.696 33.4846 555.77 32.4407 556.767C33.9271 558.895 35.4193 561.017 36.9116 563.139L36.929 563.164C37.6308 564.161 38.4094 565.223 39.5653 565.607C41.6886 566.315 43.7883 564.426 44.9089 562.491C46.0295 560.556 46.9083 558.254 48.9018 557.234C50.6585 556.334 53.3495 557.693 53.2738 559.398C53.2545 559.834 53.2859 560.338 53.6833 560.518C55.4143 561.305 57.6933 559.193 58.7985 557.293C59.4321 556.213 60.0598 555.133 60.6875 554.053L60.6976 554.035C61.2225 553.133 61.7651 552.212 62.579 551.557C64.2659 550.206 66.6368 550.306 68.7778 550.047C75.4011 549.238 80.7741 544.506 85.6871 539.998C86.9611 538.83 88.3117 537.526 88.583 535.814C88.7245 534.935 88.5594 534.038 88.6302 533.153C89.0135 528.527 94.8525 526.975 99.4057 526.078C114.793 523.045 128.895 513.923 137.966 501.125C138.56 500.284 138.977 499 138.375 498.263C137.814 497.576 137.016 496.501 137.394 495.698C139.158 491.953 138.775 487.258 137.141 483.358C135.188 478.714 131.75 474.891 128.553 470.996C123.593 464.954 119.093 458.534 115.1 451.807C113.926 449.831 112.764 447.683 112.882 445.388C113.059 441.965 116.061 439.033 115.743 435.622C115.36 431.503 110.517 429.285 109.013 425.438C106.395 418.746 114.493 413.294 118.668 407.447C124.495 399.292 123.393 386.853 131.172 380.54C135.041 377.401 140.821 376.079 142.744 371.482C144.767 366.65 141.358 360.401 144.401 356.141C145.502 354.597 147.245 353.679 148.924 352.794L149.066 352.718C157.058 348.499 164.489 343.472 171.531 337.902C189.939 323.333 205.568 304.953 220.791 286.874C244.713 258.468 269.042 229.372 281.87 196.287C283.999 183.277 285.45 170.154 286.216 156.989C286.376 154.299 286.488 151.514 285.544 148.988C284.848 147.129 283.627 145.524 282.613 143.819C276.845 134.095 278.343 121.946 278.325 110.634C278.325 107.884 276.898 104.079 274.261 104.857C272.905 105.253 272.233 106.757 271.1 107.601C268.582 109.466 264.701 107.141 263.987 104.09C263.268 101.04 264.701 97.9183 266.323 95.2394C272.109 85.6863 281.309 75.732 277.953 65.0755C277.317 63.0693 276.243 61.1634 276.096 59.0628C275.813 54.9029 279.168 51.4687 282.406 48.8429C287.85 44.4293 293.719 40.5467 299.906 37.26C303.415 35.4013 307.809 33.7492 311.177 35.8616C312.881 36.9237 313.966 38.7883 315.683 39.8327C319.286 42.0277 323.869 39.8681 327.502 37.7262C334.397 33.6666 341.297 29.601 348.192 25.5355C349.832 24.5678 351.524 23.5529 352.562 21.9598C353.423 20.638 353.765 19.0213 354.697 17.7467C356.013 15.9529 358.248 15.1446 360.353 14.4365C372.597 10.3002 384.836 6.16382 397.08 2.0334C399.268 1.29582 401.657 0.552345 403.833 1.33123C407.094 2.49955 408.304 6.39395 409.07 9.775C410.185 14.6902 410.863 20.8681 406.764 23.8007C405.26 24.8747 403.391 25.2523 401.662 25.9014C394.449 28.6097 389.831 36.9119 391.329 44.4706C391.937 47.5389 393.429 50.5305 393.051 53.6342C392.279 59.9951 384.594 62.7684 378.206 63.2286C371.819 63.6889 364.452 63.6122 360.312 68.4979C358.566 70.5513 357.717 73.1948 356.738 75.7084C354.609 81.1783 351.548 86.5301 346.735 89.8876C341.917 93.245 335.045 94.1419 330.215 90.8022C327.726 89.0792 325.957 86.418 323.344 84.8957C320.731 83.3674 316.532 83.7391 315.659 86.6363C315.128 88.3947 316.072 90.2534 316.072 92.0944C316.072 97.877 307.272 100.981 307.821 106.74C308.948 107.31 310.078 107.883 311.206 108.457C311.825 108.772 311.943 109.61 311.499 110.145C307.73 114.692 307.675 122.021 311.422 126.593C311.803 127.059 312.51 127.011 312.877 126.533C314.084 124.963 315.295 123.392 316.502 121.821C316.769 121.474 317.234 121.335 317.628 121.526C320.675 123 322.466 126.335 324.523 129.109C326.723 132.083 330.457 134.844 333.86 133.387C336.803 132.124 337.711 128.507 338.767 125.474C339.749 122.652 342.003 119.554 344.821 119.75C345.214 119.778 345.507 120.099 345.577 120.487C347.987 133.812 349.818 148.761 344.164 160.406C343.049 162.695 341.681 164.873 339.929 166.873C335.152 172.331 327.608 177.417 328.823 184.575C330.268 193.077 342.093 194.275 348.369 200.188C350.297 202.005 351.701 204.306 353.553 206.2C356.502 209.21 360.46 211.039 364.5 212.207C371.176 214.143 378.206 214.432 385.154 214.703C396.596 215.158 409.359 215.146 417.746 207.345C423.786 201.728 426.168 193.101 426.428 184.852C426.54 181.205 426.31 177.447 427.554 174.018C429.625 168.318 435.375 164.719 441.19 163.014C447.006 161.309 453.151 161.061 459.049 159.65C465.464 158.119 471.406 155.252 477.231 152.11C477.609 151.906 478.076 151.964 478.39 152.257C480.062 153.81 481.737 155.358 483.408 156.907C486.657 159.916 489.937 162.967 492.414 166.643C495.752 171.599 497.457 177.447 499.114 183.188Z" fill="#C7C7C7" fill-opacity="0.27"/>
<defs>
<filter id="filter0_d_2094_954" x="337.648" y="397.32" width="179" height="35.2031" filterUnits="userSpaceOnUse" color-interpolation-filters="sRGB">
<feFlood flood-opacity="0" result="BackgroundImageFix"/>
<feColorMatrix in="SourceAlpha" type="matrix" values="0 0 0 0 0 0 0 0 0 0 0 0 0 0 0 0 0 0 127 0" result="hardAlpha"/>
<feOffset/>
<feGaussianBlur stdDeviation="5"/>
<feComposite in2="hardAlpha" operator="out"/>
<feColorMatrix type="matrix" values="0 0 0 0 0.0392157 0 0 0 0 0.243137 0 0 0 0 0.345098 0 0 0 0.4 0"/>
<feBlend mode="normal" in2="BackgroundImageFix" result="effect1_dropShadow_2094_954"/>
<feBlend mode="normal" in="SourceGraphic" in2="effect1_dropShadow_2094_954" result="shape"/>
</filter>
</defs>
</svg>
