<svg width="515" height="599" viewBox="0 0 515 599" fill="none" xmlns="http://www.w3.org/2000/svg">
<circle cx="344" cy="237" r="7" fill="white"/>
<path d="M343 235.5L405 395" stroke="white" stroke-width="2"/>
<rect x="321" y="395" width="194" height="51" rx="4" fill="#00555C"/>
<g filter="url(#filter0_d_2222_978)">
<path d="M338.648 413.438H346.789V414.734H340.117V419.102H346.055V420.352H340.117V426.398H338.648V413.438ZM351.998 419.57H352.061C352.722 417.68 353.746 416.734 355.131 416.734C355.564 416.734 355.965 416.82 356.334 416.992L355.881 418.336C355.61 418.216 355.293 418.156 354.928 418.156C353.605 418.156 352.676 419.26 352.139 421.469V426.398H350.67V416.961H352.077L351.998 419.57ZM363.427 416.719C364.713 416.719 365.802 417.156 366.692 418.031C367.635 418.953 368.106 420.167 368.106 421.672C368.106 422.552 367.945 423.344 367.622 424.047C367.205 424.948 366.572 425.63 365.723 426.094C365.02 426.479 364.244 426.672 363.395 426.672C361.864 426.672 360.651 426.107 359.755 424.977C359.052 424.091 358.7 422.99 358.7 421.672C358.7 419.953 359.299 418.628 360.497 417.695C361.335 417.044 362.312 416.719 363.427 416.719ZM363.388 417.922C362.434 417.922 361.648 418.318 361.028 419.109C360.492 419.792 360.223 420.654 360.223 421.695C360.223 422.435 360.361 423.089 360.638 423.656C360.898 424.203 361.265 424.633 361.739 424.945C362.239 425.273 362.796 425.438 363.411 425.438C364.156 425.438 364.812 425.195 365.38 424.711C366.182 424.018 366.583 423.01 366.583 421.688C366.583 420.568 366.273 419.656 365.653 418.953C365.044 418.266 364.289 417.922 363.388 417.922ZM373.112 416.961V418.594C373.389 417.974 373.823 417.495 374.417 417.156C374.855 416.906 375.297 416.781 375.745 416.781C377.073 416.781 377.943 417.438 378.355 418.75C378.589 418.234 378.886 417.82 379.245 417.508C379.808 417.023 380.446 416.781 381.159 416.781C382.17 416.781 382.959 417.188 383.527 418C383.902 418.542 384.089 419.352 384.089 420.43V426.398H382.667V420.461C382.667 419.674 382.514 419.076 382.206 418.664C381.883 418.232 381.443 418.016 380.886 418.016C380.37 418.016 379.889 418.253 379.441 418.727C379.04 419.143 378.769 419.654 378.628 420.258V426.398H377.222V420.383C377.222 419.685 377.081 419.135 376.8 418.734C376.461 418.255 376.014 418.016 375.456 418.016C374.899 418.016 374.391 418.297 373.933 418.859C373.584 419.281 373.331 419.81 373.175 420.445V426.398H371.737V416.961H373.112ZM402.609 413.727H408.961V416.398H407.727V414.688H396.305V416.398H395.07V413.727H401.375V412.32H402.609V413.727ZM406.812 417.406V420.5H397.281V417.406H406.812ZM398.5 418.289V419.648H405.594V418.289H398.5ZM408.352 421.344V427.516H407.133V426.828H396.977V427.516H395.742V421.344H408.352ZM396.977 422.258V423.578H401.391V422.258H396.977ZM396.977 424.461V425.898H401.391V424.461H396.977ZM407.133 425.898V424.461H402.578V425.898H407.133ZM407.133 423.578V422.258H402.578V423.578H407.133ZM396.992 415.648H407.039V416.578H396.992V415.648ZM420.225 424.703H424.733V415.648H426.03V427.391H424.733V425.922H414.545V427.391H413.248V415.648H414.545V424.703H418.944V412.477H420.225V424.703ZM442.505 412.812V420.305H433.372V412.812H442.505ZM434.606 413.773V415.008H441.255V413.773H434.606ZM434.606 415.906V417.148H441.255V415.906H434.606ZM434.606 418.062V419.391H441.255V418.062H434.606ZM431.552 421.555H444.841V422.594H438.122V427.523H436.856V422.594H430.302V413.883H431.552V421.555ZM430.075 426.305C431.44 425.648 432.671 424.62 433.77 423.219L434.825 423.805C433.716 425.258 432.432 426.417 430.973 427.281L430.075 426.305ZM443.544 426.961C442.45 425.768 441.208 424.711 439.817 423.789L440.778 423.07C442.033 423.857 443.296 424.859 444.567 426.078L443.544 426.961ZM458.144 422.227V425.664H452.495V426.43H451.308V422.227H458.144ZM456.941 423.203H452.495V424.688H456.941V423.203ZM455.402 413.805H462.042V414.812H447.628V413.805H454.159V412.32H455.402V413.805ZM459.597 415.844V419.266H450.058V415.844H459.597ZM451.323 416.805V418.289H458.331V416.805H451.323ZM461.534 420.273V426.062C461.534 426.51 461.42 426.839 461.191 427.047C460.961 427.255 460.571 427.359 460.019 427.359C459.514 427.359 458.86 427.333 458.058 427.281L457.792 426.141C458.516 426.219 459.149 426.258 459.691 426.258C459.967 426.258 460.136 426.206 460.198 426.102C460.245 426.029 460.269 425.914 460.269 425.758V421.266H449.425V427.523H448.159V420.273H461.534ZM475.228 423.438V419.906H476.361V424.492H469.595V425.625H468.447V419.906H469.595V423.438H471.822V418.688H467.423V417.633H473.22C473.757 416.758 474.288 415.648 474.814 414.305L476.025 414.75C475.546 415.781 475.009 416.742 474.416 417.633H477.431V418.688H472.955V423.438H475.228ZM479.306 412.977V426.141C479.306 426.62 479.153 426.956 478.845 427.148C478.595 427.31 478.176 427.391 477.588 427.391C476.791 427.391 475.866 427.354 474.814 427.281L474.525 426.078C475.66 426.188 476.642 426.242 477.47 426.242C477.772 426.242 477.952 426.172 478.009 426.031C478.041 425.943 478.056 425.82 478.056 425.664V414.062H466.83V427.523H465.595V412.977H479.306ZM470.009 417.375C469.588 416.422 469.145 415.617 468.681 414.961L469.72 414.445C470.241 415.133 470.707 415.94 471.119 416.867L470.009 417.375ZM490.609 414.516H497.648V415.664H490.609V417.711H496.031V424.094C496.031 424.552 495.911 424.88 495.672 425.078C495.448 425.266 495.052 425.359 494.484 425.359C493.812 425.359 493.154 425.326 492.508 425.258L492.305 424.047C493.055 424.151 493.701 424.203 494.242 424.203C494.456 424.203 494.594 424.174 494.656 424.117C494.719 424.055 494.75 423.93 494.75 423.742V418.828H490.609V427.516H489.344V418.828H485.406V425.531H484.141V417.711H489.344V415.664H482.445V414.516H489.344V412.32H490.609V414.516Z" fill="white"/>
</g>
<path d="M232.125 383.522C236.132 382.815 240.305 382.214 244.229 383.298C254.762 386.215 259.455 399.833 269.97 402.791C276.56 404.647 283.753 401.571 288.605 396.751C293.458 391.931 296.431 385.59 299.315 379.397C301.786 374.088 304.31 368.472 303.831 362.644C303.051 353.116 294.652 346.015 291.537 336.976C287.394 324.949 293.156 311.672 291.383 299.08C290.101 289.958 284.905 281.567 284.651 272.362C284.409 263.5 288.771 255.179 290.101 246.411C290.893 241.19 290.668 235.616 293.222 230.99C295.917 226.117 301.171 223.265 304.824 219.057C316.024 206.135 310.155 183.389 323.005 172.093C326.308 169.188 330.469 167.473 334.548 165.817C338.33 164.273 342.113 162.735 345.896 161.191C351.653 149.376 349.667 134.156 347.196 120.691C344.075 119.931 341.546 123.278 340.488 126.307C339.436 129.336 338.52 132.948 335.57 134.209C332.16 135.664 328.419 132.906 326.214 129.937C324.003 126.967 322.1 123.354 318.625 122.076C317.035 124.138 315.439 126.201 313.849 128.263C308.997 123.466 309.138 114.604 314.145 109.96C312.59 109.171 311.03 108.381 309.475 107.597C308.926 101.846 317.744 98.7467 317.744 92.9718C317.744 91.1333 316.799 89.2771 317.33 87.5211C318.205 84.6278 322.413 84.2566 325.032 85.7828C327.65 87.3031 329.423 89.9607 331.918 91.6814C336.758 95.0166 343.644 94.1209 348.473 90.768C353.296 87.4151 356.363 82.0704 358.497 76.6079C359.478 74.0976 360.329 71.4577 362.079 69.4071C366.228 64.5279 373.61 64.6045 380.011 64.1449C386.412 63.6853 394.114 60.9157 394.888 54.5634C395.266 51.4639 393.771 48.4763 393.162 45.4121C391.661 37.8636 396.289 29.5726 403.517 26.8679C405.249 26.2197 407.123 25.8425 408.63 24.7701C412.738 21.8414 412.058 15.6718 410.941 10.7632C410.173 7.38669 408.961 3.49753 405.692 2.33078C403.511 1.55295 401.118 2.29542 398.925 3.03201C386.655 7.15688 374.39 11.2876 362.12 15.4184C360.01 16.1255 357.77 16.9328 356.452 18.7242C355.518 19.997 355.175 21.6116 354.312 22.9316C353.272 24.5226 351.576 25.5361 349.933 26.5025C343.023 30.5626 336.108 34.6226 329.199 38.6768C325.558 40.8158 320.965 42.9725 317.354 40.7805C315.634 39.7375 314.547 37.8754 312.838 36.8147C309.464 34.7051 305.06 36.3551 301.543 38.2113C295.343 41.4935 289.462 45.3708 284.007 49.7786C280.762 52.4008 277.399 55.8303 277.683 59.9847C277.831 62.0825 278.906 63.9858 279.545 65.9893C282.908 76.6315 273.687 86.5724 267.889 96.1126C266.264 98.7879 264.827 101.905 265.549 104.952C266.264 107.998 270.153 110.32 272.677 108.458C273.811 107.615 274.485 106.112 275.845 105.718C278.487 104.94 279.917 108.741 279.917 111.487C279.935 122.783 278.433 134.916 284.214 144.627C285.231 146.33 286.454 147.933 287.151 149.789C288.097 152.311 287.985 155.092 287.825 157.779C287.057 170.926 285.603 184.031 283.469 197.025C270.614 230.065 246.233 259.122 222.26 287.489C207.005 305.544 191.342 323.9 172.896 338.449C180.928 357.111 191.845 374.535 205.238 389.839C214.074 387.246 223.064 385.136 232.136 383.539L232.125 383.522Z" stroke="white" stroke-width="3" stroke-miterlimit="10"/>
<path d="M316.703 324.328C316.702 324.328 316.702 324.326 316.703 324.326C321.442 322.378 327.71 322.904 330.67 327.08C332.999 330.368 332.638 334.77 333.59 338.677C334.541 342.589 338.46 346.632 342.089 344.876C343.271 344.304 344.11 343.232 344.908 342.195C352.474 332.36 360.033 322.531 367.599 312.696C370.826 308.5 374.792 303.91 380.099 303.81C384.751 303.721 389.314 307.233 393.723 305.766C396.548 304.829 398.316 302.13 400.331 299.944C402.347 297.758 405.473 295.866 408.162 297.133C410.728 298.347 411.325 301.618 411.981 304.37C412.637 307.121 414.451 310.321 417.276 310.05C419.18 309.867 420.504 308.147 421.591 306.579C423.151 304.316 424.712 302.048 426.272 299.785C426.846 298.954 427.466 298.076 428.4 297.675C430.22 296.886 432.319 298.3 433.27 300.038C434.222 301.771 434.476 303.81 435.327 305.595C438.034 311.299 445.446 312.602 451.752 313.173C458.23 313.764 464.714 314.35 471.192 314.941C471.705 314.988 472.165 314.636 472.304 314.14C472.903 311.993 474.143 310.024 475.507 308.229C483.368 297.87 495.75 287.369 492.328 274.83C491.767 272.779 490.774 270.687 491.27 268.625C492.322 264.27 498.398 263.969 502.057 261.371C506.194 258.436 506.921 252.714 507.288 247.664C508.117 236.162 508.805 224.8 509.633 213.3C509.641 213.182 509.629 213.063 509.596 212.95C506.793 203.278 503.991 193.607 501.188 183.941C499.527 178.207 497.819 172.368 494.474 167.418C491.991 163.747 488.705 160.7 485.448 157.695C483.773 156.147 482.098 154.6 480.418 153.048C480.104 152.758 479.639 152.7 479.263 152.902C473.424 156.041 467.468 158.905 461.038 160.435C455.127 161.843 448.969 162.091 443.141 163.794C437.313 165.497 431.55 169.091 429.476 174.784C428.229 178.207 428.459 181.961 428.347 185.603C428.087 193.841 425.699 202.456 419.647 208.066C411.242 215.856 398.451 215.867 386.985 215.414C380.023 215.143 372.977 214.854 366.287 212.921C362.238 211.754 358.272 209.928 355.317 206.922C353.461 205.031 352.054 202.733 350.121 200.918C343.833 195.013 331.982 193.817 330.534 185.326C329.316 178.178 336.876 173.098 341.663 167.648C342.817 166.334 343.806 164.945 344.664 163.497C345.133 162.707 344.33 161.833 343.48 162.179C340.506 163.392 337.533 164.601 334.559 165.815C330.481 167.477 326.32 169.192 323.016 172.091C310.166 183.387 316.035 206.133 304.835 219.055C301.188 223.263 295.928 226.115 293.233 230.988C290.679 235.614 290.904 241.188 290.112 246.409C288.782 255.177 284.414 263.492 284.663 272.36C284.917 281.571 290.112 289.956 291.395 299.078C293.168 311.676 287.405 324.947 291.548 336.974C291.982 338.234 292.537 339.446 293.15 340.637C293.416 341.153 294.069 341.322 294.555 341.003C298.026 338.727 301.339 336.213 304.451 333.473C308.297 330.086 311.966 326.281 316.704 324.33C316.705 324.33 316.705 324.328 316.703 324.328V324.328Z" stroke="white" stroke-width="3" stroke-miterlimit="10"/>
<path d="M4.4103 564.572C4.4103 564.57 4.41234 564.57 4.41274 564.571C6.40404 571.505 8.73324 578.931 14.5114 583.266C17.3543 585.399 20.7883 586.572 24.175 587.656C34.938 591.098 45.8843 593.961 56.9547 596.236C60.8733 597.037 65.253 597.691 68.6161 595.535C73.9887 592.088 74.4498 582.913 80.6085 581.216C86.1053 579.701 91.6907 585.718 97.1284 584.009C100.781 582.86 102.507 578.776 103.624 575.123C105.965 567.447 107.637 559.573 108.62 551.614C108.717 550.832 109.638 550.449 110.268 550.922C114.702 554.249 119.613 556.94 124.809 558.885C125.309 559.072 125.865 558.823 126.067 558.329C126.91 556.267 127.753 554.209 128.596 552.147C128.909 551.387 129.258 550.58 129.955 550.143C130.877 549.566 132.077 549.825 133.129 550.114C137.574 551.334 143.573 552.076 145.654 547.969C146.629 546.042 146.321 543.52 147.775 541.917C149.992 539.478 154.437 541.033 157.014 538.977C158.674 537.651 158.988 535.294 159.118 533.178C159.549 526.284 159.401 519.354 158.68 512.483C158.521 510.981 158.403 509.266 159.449 508.17C160.909 506.644 163.444 507.404 165.377 508.27C170.676 510.643 175.974 513.016 181.273 515.39C181.93 515.684 182.675 515.208 182.71 514.489C182.844 511.758 183.277 509.07 184.22 506.491C185.774 502.23 188.587 498.565 191.359 494.976C195.018 490.233 198.683 485.489 202.341 480.745C205.072 477.204 208.748 473.274 213.163 474.028C221.686 475.489 221.574 491.965 230.215 491.606C234.938 491.411 237.249 486.008 240.18 482.307C245.488 475.607 254.809 473.633 263.367 473.35C271.926 473.073 280.738 473.998 288.859 471.294C296.98 468.589 304.291 460.669 302.589 452.302C300.296 441.023 284.704 437.647 279.763 427.246C276.285 419.917 279.095 411.757 280.889 403.577C281.061 402.791 280.267 402.142 279.503 402.395C276.405 403.419 273.126 403.681 269.981 402.797C259.46 399.839 254.767 386.221 244.241 383.304C240.316 382.22 236.143 382.821 232.136 383.528C223.273 385.088 214.495 387.132 205.851 389.648C205.477 389.757 205.073 389.64 204.817 389.346C191.901 374.492 181.31 357.648 173.414 339.632C173.15 339.03 172.389 338.837 171.869 339.24C165.117 344.484 158.004 349.23 150.382 353.234C148.656 354.141 146.842 355.067 145.707 356.652C142.657 360.906 146.073 367.147 144.046 371.973C142.119 376.563 136.327 377.883 132.45 381.018C124.654 387.323 125.759 399.745 119.919 407.889C115.735 413.728 107.62 419.173 110.244 425.855C111.751 429.697 116.603 431.913 116.988 436.026C117.307 439.432 114.298 442.361 114.121 445.778C114.003 448.071 115.167 450.216 116.343 452.19C120.345 458.907 124.855 465.318 129.825 471.353C133.029 475.242 136.475 479.06 138.431 483.698C140.068 487.591 140.452 492.277 138.687 496.017C138.308 496.819 139.105 497.897 139.668 498.583C140.271 499.319 139.854 500.601 139.258 501.441C130.168 514.222 116.036 523.332 100.616 526.361C96.0527 527.256 90.2013 528.806 89.8171 533.426C89.7461 534.31 89.9116 535.206 89.7698 536.084C89.4979 537.792 88.1444 539.095 86.8677 540.261C81.9443 544.763 76.5598 549.489 69.9282 550.297C67.7827 550.556 65.4067 550.456 63.7163 551.805C62.9006 552.459 62.3569 553.379 61.8308 554.28C61.1984 555.364 60.566 556.449 59.9277 557.533C58.8205 559.43 56.5376 561.539 54.8032 560.755C54.4043 560.575 54.3728 560.07 54.3914 559.632C54.4637 557.932 51.7692 556.576 50.0098 557.474C48.0121 558.493 47.1314 560.792 46.0084 562.724C44.8854 564.657 42.7813 566.543 40.6535 565.836C39.495 565.453 38.7149 564.398 38.0115 563.396C36.6756 561.503 35.3397 559.61 34.008 557.713C33.7237 557.308 33.7817 556.759 34.1317 556.409C34.9638 555.577 35.729 554.664 36.0138 553.538C36.3684 552.135 35.6059 550.361 34.1697 550.179C31.5632 549.849 31.1967 554.021 29.1458 555.665C28.3656 556.29 27.349 556.513 26.3619 556.696C20.5663 557.771 14.6262 558.082 8.74603 557.607C7.94301 557.542 7.55013 556.577 7.96285 555.885C9.06651 554.034 9.63323 551.865 9.56053 549.714C9.54333 549.206 9.10869 548.825 8.59977 548.828C6.75144 548.838 4.90353 548.85 3.05862 548.86C2.56207 548.863 2.13978 549.229 2.09276 549.724C1.6235 554.656 3.01777 559.735 4.40786 564.572C4.40826 564.573 4.4103 564.573 4.4103 564.572V564.572Z" stroke="white" stroke-width="3" stroke-miterlimit="10"/>
<path d="M347.16 106.056C345.47 105.29 343.472 105.826 341.823 106.681C340.18 107.535 338.69 108.708 336.941 109.32C332.821 110.758 328.158 108.825 323.956 109.998C323.069 110.246 322.194 110.646 321.58 111.33C319.836 113.257 321.071 116.669 323.43 117.771C325.788 118.873 328.631 118.171 330.883 116.869C332.047 116.191 333.194 115.337 334.535 115.243C335.357 115.184 336.161 115.419 336.959 115.614C338.466 115.985 339.997 116.227 341.545 116.345C342.804 116.439 344.104 116.439 345.287 115.997C346.469 115.555 347.521 114.6 347.769 113.363C348.047 111.972 347.308 110.363 348.106 109.191C348.437 108.702 348.998 108.366 349.187 107.806C349.418 107.111 348.939 106.345 348.295 105.997C347.651 105.649 346.888 105.614 347.166 106.056H347.16Z" stroke="white" stroke-width="3" stroke-miterlimit="10"/>
<defs>
<filter id="filter0_d_2222_978" x="328.648" y="402.32" width="179" height="35.2031" filterUnits="userSpaceOnUse" color-interpolation-filters="sRGB">
<feFlood flood-opacity="0" result="BackgroundImageFix"/>
<feColorMatrix in="SourceAlpha" type="matrix" values="0 0 0 0 0 0 0 0 0 0 0 0 0 0 0 0 0 0 127 0" result="hardAlpha"/>
<feOffset/>
<feGaussianBlur stdDeviation="5"/>
<feComposite in2="hardAlpha" operator="out"/>
<feColorMatrix type="matrix" values="0 0 0 0 0.0392157 0 0 0 0 0.243137 0 0 0 0 0.345098 0 0 0 0.4 0"/>
<feBlend mode="normal" in2="BackgroundImageFix" result="effect1_dropShadow_2222_978"/>
<feBlend mode="normal" in="SourceGraphic" in2="effect1_dropShadow_2222_978" result="shape"/>
</filter>
</defs>
</svg>
