<svg width="54" height="47" viewBox="0 0 54 47" fill="none" xmlns="http://www.w3.org/2000/svg">
<circle cx="27" cy="15" r="14.5" stroke="white"/>
<path d="M24 14.625L27 11.625L30 14.625" stroke="white" stroke-width="1.125" stroke-linecap="round" stroke-linejoin="round"/>
<path d="M27 12L27 18" stroke="white" stroke-width="1.125" stroke-linecap="round"/>
<path d="M1.06934 37.1484H3.7793C4.58659 37.1484 5.24577 37.2852 5.75684 37.5586C6.00423 37.6921 6.21257 37.8662 6.38184 38.0811C6.71061 38.4945 6.875 38.986 6.875 39.5557C6.875 41.2451 5.8252 42.0898 3.72559 42.0898H1.99707V45.249H1.06934V37.1484ZM1.99707 37.9297V41.3184H3.53516C4.33919 41.3184 4.92188 41.1947 5.2832 40.9473C5.67057 40.6868 5.86426 40.2279 5.86426 39.5703C5.86426 38.9779 5.6429 38.5433 5.2002 38.2666C4.84212 38.042 4.34082 37.9297 3.69629 37.9297H1.99707ZM12.285 41.5186V41.3281C12.285 40.8594 12.1564 40.5094 11.8992 40.2783C11.6648 40.0667 11.3035 39.9609 10.8152 39.9609C10.0991 39.9609 9.44154 40.1904 8.84258 40.6494L8.44219 40C9.1388 39.4727 9.9347 39.209 10.8299 39.209C11.6437 39.209 12.2573 39.4287 12.6707 39.8682C13.0125 40.2327 13.1834 40.734 13.1834 41.3721V43.4912C13.1834 44.2399 13.3006 44.8258 13.535 45.249H12.6561C12.5291 44.9788 12.4347 44.6322 12.3729 44.209H12.3436C12.158 44.541 11.8846 44.8242 11.5232 45.0586C11.1554 45.2995 10.7013 45.4199 10.1609 45.4199C9.59779 45.4199 9.13066 45.2539 8.75957 44.9219C8.36895 44.5703 8.17363 44.1227 8.17363 43.5791C8.17363 42.9281 8.45846 42.4202 9.02812 42.0557C9.59128 41.6976 10.449 41.5186 11.6014 41.5186H12.285ZM12.285 42.2119H11.6551C9.96237 42.2119 9.11602 42.6644 9.11602 43.5693C9.11602 43.8623 9.20716 44.1064 9.38945 44.3018C9.61081 44.5329 9.91517 44.6484 10.3025 44.6484C10.8038 44.6484 11.2433 44.4889 11.6209 44.1699C12.0636 43.7988 12.285 43.3594 12.285 42.8516V42.2119ZM20.1168 39.3506V43.6621C20.1168 44.4922 19.9068 45.1156 19.4869 45.5322C19.0442 45.9717 18.4013 46.1914 17.5582 46.1914C16.5979 46.1914 15.7874 45.9375 15.1266 45.4297L15.5709 44.7705C16.095 45.21 16.759 45.4297 17.5631 45.4297C18.2434 45.4297 18.7203 45.2018 18.9937 44.7461C19.1435 44.4987 19.2184 44.1992 19.2184 43.8477V43.1787C19.0458 43.4066 18.818 43.5889 18.5348 43.7256C18.193 43.8883 17.8479 43.9697 17.4996 43.9697C16.9495 43.9697 16.4547 43.8265 16.0152 43.54C15.3121 43.0876 14.9605 42.4382 14.9605 41.5918C14.9605 40.8431 15.2633 40.2327 15.8687 39.7607C16.3473 39.3929 16.8958 39.209 17.5143 39.209C18.1946 39.209 18.7757 39.4287 19.2574 39.8682L19.4088 39.3506H20.1168ZM19.2184 40.8594C18.857 40.2669 18.3102 39.9707 17.5777 39.9707C17.2294 39.9707 16.9218 40.0521 16.6549 40.2148C16.1601 40.5143 15.9127 40.9717 15.9127 41.5869C15.9127 41.9906 16.0396 42.3421 16.2936 42.6416C16.6093 43.0192 17.0325 43.208 17.5631 43.208C18.1165 43.208 18.5771 43.0143 18.9449 42.627C19.0458 42.5228 19.137 42.3975 19.2184 42.251V40.8594ZM27.3432 42.3975H22.7973C22.8103 43.016 22.9551 43.5091 23.2318 43.877C23.6062 44.375 24.1498 44.624 24.8627 44.624C25.6146 44.624 26.2462 44.2985 26.7572 43.6475L27.3236 44.248C26.6758 45.026 25.8409 45.415 24.8188 45.415C23.7999 45.415 23.017 45.0684 22.4701 44.375C22.0469 43.8379 21.8354 43.1641 21.8354 42.3535C21.8354 41.6569 21.9883 41.0498 22.2943 40.5322C22.5938 40.0309 23.0007 39.6647 23.515 39.4336C23.8731 39.2708 24.254 39.1895 24.6576 39.1895C25.5951 39.1895 26.3161 39.5638 26.8207 40.3125C27.169 40.8301 27.3432 41.4388 27.3432 42.1387V42.3975ZM26.3861 41.6992C26.3471 41.2174 26.1941 40.8236 25.9271 40.5176C25.5951 40.1335 25.1654 39.9414 24.6381 39.9414C24.254 39.9414 23.904 40.0635 23.5883 40.3076C23.1716 40.6266 22.921 41.0905 22.8363 41.6992H26.3861ZM31.9717 37.1484H38.7295V37.9688H35.7998V45.249H34.9014V37.9688H31.9717V37.1484ZM42.4646 39.1992C43.2687 39.1992 43.949 39.4727 44.5057 40.0195C45.0949 40.5957 45.3895 41.3542 45.3895 42.2949C45.3895 42.8451 45.2885 43.3398 45.0867 43.7793C44.8263 44.3424 44.4308 44.7689 43.9002 45.0586C43.4607 45.2995 42.9757 45.4199 42.4451 45.4199C41.4881 45.4199 40.7296 45.0667 40.1697 44.3604C39.7303 43.807 39.5105 43.1185 39.5105 42.2949C39.5105 41.2207 39.8849 40.3923 40.6336 39.8096C41.1577 39.4027 41.768 39.1992 42.4646 39.1992ZM42.4402 39.9512C41.8445 39.9512 41.353 40.1986 40.9656 40.6934C40.6303 41.1198 40.4627 41.6585 40.4627 42.3096C40.4627 42.7718 40.549 43.1803 40.7215 43.5352C40.8842 43.877 41.1137 44.1455 41.41 44.3408C41.7225 44.5459 42.0708 44.6484 42.4549 44.6484C42.9204 44.6484 43.3305 44.4971 43.6854 44.1943C44.1867 43.7614 44.4373 43.1315 44.4373 42.3047C44.4373 41.6048 44.2436 41.0352 43.8563 40.5957C43.4754 40.166 43.0034 39.9512 42.4402 39.9512ZM47.8795 39.3506V40.2002C48.1301 39.904 48.4231 39.6712 48.7584 39.502C49.1393 39.3066 49.5331 39.209 49.94 39.209C50.7864 39.209 51.4602 39.4922 51.9615 40.0586C52.414 40.5697 52.6402 41.2516 52.6402 42.1045C52.6402 42.863 52.4645 43.488 52.1129 43.9795C51.6214 44.6663 50.9052 45.0098 49.9645 45.0098C49.4371 45.0098 48.9684 44.873 48.5582 44.5996C48.3076 44.4271 48.0976 44.2074 47.9283 43.9404V46.1914H47.0201V39.3506H47.8795ZM47.9283 42.9785C48.4101 43.8249 49.04 44.248 49.818 44.248C50.4755 44.248 50.9719 43.999 51.3072 43.501C51.5546 43.1364 51.6783 42.666 51.6783 42.0898C51.6783 41.4811 51.5367 40.9928 51.2535 40.625C50.915 40.1888 50.4251 39.9707 49.7838 39.9707C49.4322 39.9707 49.0969 40.0651 48.7779 40.2539C48.4264 40.4622 48.1432 40.7682 47.9283 41.1719V42.9785Z" fill="white"/>
</svg>
