<svg width="460" height="149" viewBox="0 0 460 149" fill="none" xmlns="http://www.w3.org/2000/svg">
<ellipse cx="223.523" cy="74.5" rx="74" ry="74.5" fill="#F3C51E"/>
<path d="M223.523 74.5H223.526C223.523 74.5 165.701 28 165.703 28C179.264 10.9323 200.125 0 223.523 0C223.523 1.5 223.523 76 223.523 74.5Z" fill="#F59160"/>
<path d="M223.523 74.5024L150.324 85.5017C149.797 81.9121 149.523 78.239 149.523 74.5017C149.523 55.6205 156.5 38.3798 168 25.25L223.523 74.5024Z" fill="#F59160"/>
<path d="M223.523 74.5L247.999 144.828C240.338 147.53 232.101 149 223.523 149C186.022 149 155.036 120.916 150.184 84.4995C150.178 84.4995 223.523 74.5 223.525 74.5005C223.525 74.5005 223.525 74.5005 223.523 74.5Z" fill="#F59160"/>
<path d="M297.523 74.5H223.523C223.523 74.5 224.676 0.0088464 223.523 0C260.852 0 291.726 27.8267 296.794 64C297.275 67.4305 297.523 70.936 297.523 74.5Z" fill="#F4D45F"/>
<path d="M297.524 74.5C297.524 107.438 276.292 135.384 246.855 145.222C246.855 147.5 223.524 74.5001 223.521 74.5001C223.521 74.5001 182.655 74.5001 223.524 74.5001L296.863 64.5C297.299 67.7709 297.524 71.109 297.524 74.5Z" fill="#F4D45F"/>
<circle cx="223.523" cy="75" r="37" fill="#F9F9F9"/>
<path d="M344.562 68.9766V70.7969H347.5V71.8359H344.562V72.3594C345.432 72.8854 346.294 73.4948 347.148 74.1875L346.477 75.2422C345.805 74.5755 345.167 73.9974 344.562 73.5078V77.5156H343.367V73.0312C342.669 74.3333 341.737 75.5234 340.57 76.6016L339.852 75.5781C341.169 74.5677 342.232 73.3203 343.039 71.8359H340.25V70.7969H343.367V68.9766H339.914V67.9219H341.867C341.706 67.1302 341.495 66.2812 341.234 65.375H340.25V64.3047H343.359V62.3203H344.57V64.3047H347.5V65.375H346.648C346.445 66.2031 346.167 67.0521 345.812 67.9219H347.742V68.9766H344.562ZM342.375 65.375L342.398 65.4688C342.565 66.0365 342.758 66.8542 342.977 67.9219H344.742C345.081 66.9531 345.331 66.1042 345.492 65.375H342.375ZM349.477 69.0234C349.471 70.888 349.378 72.3984 349.195 73.5547C348.961 75.0182 348.5 76.3229 347.812 77.4688L346.867 76.6094C347.492 75.5625 347.898 74.2917 348.086 72.7969C348.211 71.7656 348.273 70.4427 348.273 68.8281V63.875C350.195 63.6458 351.977 63.2448 353.617 62.6719L354.406 63.6484C352.865 64.1745 351.221 64.5651 349.477 64.8203V67.875H355.094V69.0234H352.961V77.5156H351.773V69.0234H349.477ZM364.078 64.0938H370.492V65.1797H356.508V64.0938H362.797V62.3203H364.078V64.0938ZM360.578 67.7578C361.458 68.3255 362.234 68.9193 362.906 69.5391L362.023 70.4609C361.378 69.7839 360.708 69.1849 360.016 68.6641C359.365 69.6068 358.604 70.4427 357.734 71.1719L356.805 70.2891C358.367 69.0703 359.521 67.487 360.266 65.5391L361.461 65.875C361.201 66.5417 360.906 67.1693 360.578 67.7578ZM367.008 67.6562C368.034 68.2552 369.049 68.9766 370.055 69.8203L369.227 70.7812C368.388 69.9896 367.474 69.2578 366.484 68.5859C365.969 69.4193 365.378 70.1562 364.711 70.7969L363.781 69.9688C365.016 68.8542 365.945 67.3828 366.57 65.5547L367.781 65.8906C367.583 66.4062 367.326 66.9948 367.008 67.6562ZM362.797 72.0703V70.7891H364.078V72.0703H371.102V73.2031H364.078V77.5234H362.797V73.2031H355.898V72.0703H362.797ZM380.289 63.1328V64.1406C380.289 67.224 380.891 69.7161 382.094 71.6172C383.198 73.3568 384.867 74.8438 387.102 76.0781L386.219 77.2031C383.99 75.9792 382.221 74.2656 380.914 72.0625C380.336 71.0833 379.904 69.8984 379.617 68.5078C379.289 70.1536 378.768 71.5781 378.055 72.7812C376.951 74.6406 375.263 76.1562 372.992 77.3281L372.109 76.2422C374.875 74.9453 376.779 73.0417 377.82 70.5312C378.508 68.8594 378.927 66.7891 379.078 64.3203H375.008V63.1328H380.289ZM392.227 69.2969C393.159 69.901 394.107 70.6458 395.07 71.5312L394.32 72.6172C393.622 71.8724 392.875 71.1641 392.078 70.4922V77.5156H390.875V70.7578C390.094 71.513 389.305 72.1641 388.508 72.7109L387.789 71.7031C388.982 70.9531 390.076 70.0234 391.07 68.9141C391.836 68.0651 392.477 67.1719 392.992 66.2344H388.281V65.0859H390.875V62.3203H392.062V65.0859H393.969L394.609 65.7578C393.917 67.0547 393.122 68.2344 392.227 69.2969ZM398.125 67.0234V62.4453H399.359V67.0234H402.797V68.1562H399.359V75.7656H403.07V76.9141H393.969V75.7656H398.125V68.1562H394.734V67.0234H398.125Z" fill="#E59D00"/>
<path d="M416.834 66.5195H418.656V72.8066H420.396V74.0547H418.656V76.2988H417.191V74.0547H412.322V72.8184L416.834 66.5195ZM417.191 72.8066V70.0234C417.191 69.3867 417.219 68.6621 417.273 67.8496H417.226C416.848 68.6543 416.523 69.2461 416.254 69.625L414.027 72.8066H417.191ZM424.819 70.5742H425.634C426.321 70.5742 426.874 70.4512 427.292 70.2051C427.804 69.9043 428.06 69.4922 428.06 68.9688C428.06 68.5352 427.872 68.1914 427.497 67.9375C427.165 67.7148 426.751 67.6035 426.255 67.6035C425.356 67.6035 424.493 67.9473 423.665 68.6348L422.815 67.5859C423.819 66.7812 425.001 66.3789 426.36 66.3789C427.27 66.3789 428.019 66.5664 428.604 66.9414C429.311 67.3984 429.665 68.0449 429.665 68.8809C429.665 69.5215 429.421 70.0703 428.933 70.5273C428.554 70.8789 428.054 71.0996 427.433 71.1895V71.2363C428.237 71.3691 428.852 71.6348 429.278 72.0332C429.72 72.4473 429.94 73 429.94 73.6914C429.94 74.6992 429.532 75.4531 428.716 75.9531C428.102 76.3281 427.298 76.5156 426.302 76.5156C424.731 76.5156 423.458 76.0352 422.481 75.0742L423.366 74.0195C423.679 74.3516 424.081 74.625 424.573 74.8398C425.171 75.1016 425.751 75.2324 426.313 75.2324C426.946 75.2324 427.44 75.0996 427.796 74.834C428.14 74.5801 428.311 74.1914 428.311 73.668C428.311 72.9492 427.966 72.4395 427.274 72.1387C426.81 71.9355 426.251 71.834 425.599 71.834H424.819V70.5742ZM432.916 74.3301H434.885V76.2988H432.916V74.3301ZM439.987 71.3184C438.683 70.873 438.03 70.0898 438.03 68.9688C438.03 68.1797 438.374 67.5352 439.062 67.0352C439.698 66.5703 440.497 66.3379 441.458 66.3379C442.302 66.3379 443.024 66.5117 443.626 66.8594C444.454 67.3359 444.868 68.0039 444.868 68.8633C444.868 69.5703 444.632 70.127 444.159 70.5332C443.78 70.8613 443.325 71.0957 442.794 71.2363V71.2715C443.485 71.4941 444.009 71.7676 444.364 72.0918C444.935 72.6035 445.22 73.2051 445.22 73.8965C445.22 74.6934 444.88 75.3359 444.2 75.8242C443.509 76.3164 442.597 76.5625 441.464 76.5625C440.499 76.5625 439.696 76.3848 439.056 76.0293C438.189 75.5527 437.755 74.8555 437.755 73.9375C437.755 73.2031 438.065 72.584 438.687 72.0801C439.046 71.7871 439.48 71.5488 439.987 71.3652V71.3184ZM441.476 70.7207C442.062 70.5723 442.521 70.3438 442.853 70.0352C443.189 69.7266 443.356 69.3848 443.356 69.0098C443.356 68.584 443.194 68.2246 442.87 67.9316C442.507 67.6035 442.036 67.4395 441.458 67.4395C441.028 67.4395 440.653 67.5371 440.333 67.7324C439.845 68.0293 439.601 68.4512 439.601 68.998C439.601 69.4004 439.772 69.752 440.116 70.0527C440.351 70.2598 440.663 70.4375 441.054 70.5859C441.308 70.6836 441.448 70.7285 441.476 70.7207ZM441.394 71.9219C440.749 72.1016 440.259 72.3457 439.923 72.6543C439.556 72.9902 439.372 73.373 439.372 73.8027C439.372 74.2715 439.571 74.6504 439.97 74.9395C440.364 75.2207 440.86 75.3613 441.458 75.3613C441.939 75.3613 442.36 75.2676 442.724 75.0801C443.29 74.7832 443.573 74.3477 443.573 73.7734C443.573 73.332 443.353 72.9375 442.911 72.5898C442.595 72.3398 442.206 72.1484 441.745 72.0156C441.519 71.9492 441.401 71.918 441.394 71.9219ZM456.076 66.5781H457.242L450.076 76.2988H448.916L456.076 66.5781ZM449.895 66.3379C450.649 66.3379 451.244 66.6289 451.682 67.2109C452.053 67.7109 452.238 68.334 452.238 69.0801C452.238 69.7559 452.086 70.3301 451.781 70.8027C451.344 71.4824 450.711 71.8223 449.883 71.8223C449.149 71.8223 448.565 71.5488 448.131 71.002C447.732 70.502 447.533 69.8633 447.533 69.0859C447.533 68.1641 447.803 67.4453 448.342 66.9297C448.756 66.5352 449.274 66.3379 449.895 66.3379ZM449.883 67.416C449.559 67.416 449.297 67.5645 449.098 67.8613C448.895 68.166 448.793 68.5742 448.793 69.0859C448.793 69.5117 448.869 69.8711 449.022 70.1641C449.221 70.5508 449.51 70.7441 449.889 70.7441C450.19 70.7441 450.438 70.6152 450.633 70.3574C450.863 70.0488 450.979 69.625 450.979 69.0859C450.979 68.5664 450.871 68.1523 450.656 67.8438C450.461 67.5586 450.203 67.416 449.883 67.416ZM456.275 71.0547C457.006 71.0547 457.588 71.3281 458.022 71.875C458.42 72.3789 458.619 73.0176 458.619 73.791C458.619 74.4785 458.463 75.0605 458.15 75.5371C457.713 76.2051 457.084 76.5391 456.264 76.5391C455.506 76.5391 454.91 76.248 454.477 75.666C454.106 75.166 453.92 74.543 453.92 73.7969C453.92 72.8906 454.182 72.1816 454.705 71.6699C455.123 71.2598 455.647 71.0547 456.275 71.0547ZM456.264 72.1328C455.963 72.1328 455.717 72.2617 455.525 72.5195C455.295 72.832 455.18 73.2578 455.18 73.7969C455.18 74.2227 455.254 74.582 455.402 74.875C455.602 75.2656 455.893 75.4609 456.275 75.4609C456.6 75.4609 456.859 75.3125 457.055 75.0156C457.258 74.707 457.359 74.3008 457.359 73.7969C457.359 73.2812 457.252 72.8691 457.037 72.5605C456.842 72.2754 456.584 72.1328 456.264 72.1328Z" fill="#E59D00"/>
<path d="M7.8125 65.375V62.3203H9.07812V65.375H15.0391V73.3281H13.7734V72.2109H9.07812V77.5234H7.8125V72.2109H3.20312V73.4141H1.92188V65.375H7.8125ZM3.20312 66.5469V71.0391H7.8125V66.5469H3.20312ZM13.7734 71.0391V66.5469H9.07812V71.0391H13.7734ZM20.4531 74.1875C21.0156 74.7656 21.6432 75.1823 22.3359 75.4375C23.3307 75.8021 24.4948 75.9844 25.8281 75.9844H32.2422C32.0911 76.3281 31.9583 76.7005 31.8438 77.1016H25.8281C24.0781 77.1016 22.7109 76.862 21.7266 76.3828C21.0703 76.0651 20.474 75.6198 19.9375 75.0469C19.151 76.0417 18.3516 76.8646 17.5391 77.5156L16.8672 76.3828C17.7057 75.7786 18.4948 75.125 19.2344 74.4219V70.2734H16.9141V69.1719H20.4531V74.1875ZM26.8984 67.4219V69.2656H31.4297V70.2578H26.8984V74.1172C26.8984 74.5339 26.8047 74.8281 26.6172 75C26.4401 75.1667 26.1198 75.25 25.6562 75.25C25.1562 75.25 24.6354 75.2188 24.0938 75.1562L23.8516 74.0156C24.4557 74.1042 24.9505 74.1484 25.3359 74.1484C25.5391 74.1484 25.6589 74.1042 25.6953 74.0156C25.7161 73.974 25.7266 73.9115 25.7266 73.8281V70.2578H21.2812V69.2656H25.7266V67.4219H23.4375V66.6406C22.8958 67.0781 22.2448 67.5208 21.4844 67.9688L20.7344 67.0703C21.7865 66.5339 22.6823 65.9115 23.4219 65.2031C24.2188 64.4427 24.9401 63.4818 25.5859 62.3203H26.8047C27.9818 64.1224 29.7083 65.6198 31.9844 66.8125L31.2812 67.7891C30.5625 67.3776 29.9062 66.9609 29.3125 66.5391V67.4219H26.8984ZM29.1719 66.4297C27.974 65.5026 26.987 64.4844 26.2109 63.375C25.5755 64.4948 24.7344 65.513 23.6875 66.4297H29.1719ZM19.7812 66.1797C19.026 65.0911 18.2526 64.1719 17.4609 63.4219L18.3516 62.6719C19.2109 63.4323 19.9974 64.3125 20.7109 65.3125L19.7812 66.1797ZM20.9609 73.7422C21.8307 73.0078 22.513 72.0807 23.0078 70.9609L24.0156 71.4219C23.4427 72.6979 22.7188 73.7292 21.8438 74.5156L20.9609 73.7422ZM30.5156 74.5625C29.75 73.4271 28.9557 72.4245 28.1328 71.5547L29.0469 70.8984C30.0156 71.8464 30.8203 72.8047 31.4609 73.7734L30.5156 74.5625ZM41.2891 63.1328V64.1406C41.2891 67.224 41.8906 69.7161 43.0938 71.6172C44.1979 73.3568 45.8672 74.8438 48.1016 76.0781L47.2188 77.2031C44.9896 75.9792 43.2214 74.2656 41.9141 72.0625C41.3359 71.0833 40.9036 69.8984 40.6172 68.5078C40.2891 70.1536 39.7682 71.5781 39.0547 72.7812C37.9505 74.6406 36.263 76.1562 33.9922 77.3281L33.1094 76.2422C35.875 74.9453 37.7786 73.0417 38.8203 70.5312C39.5078 68.8594 39.9271 66.7891 40.0781 64.3203H36.0078V63.1328H41.2891ZM53.2266 69.2969C54.1589 69.901 55.1068 70.6458 56.0703 71.5312L55.3203 72.6172C54.6224 71.8724 53.875 71.1641 53.0781 70.4922V77.5156H51.875V70.7578C51.0938 71.513 50.3047 72.1641 49.5078 72.7109L48.7891 71.7031C49.9818 70.9531 51.0755 70.0234 52.0703 68.9141C52.8359 68.0651 53.4766 67.1719 53.9922 66.2344H49.2812V65.0859H51.875V62.3203H53.0625V65.0859H54.9688L55.6094 65.7578C54.9167 67.0547 54.1224 68.2344 53.2266 69.2969ZM59.125 67.0234V62.4453H60.3594V67.0234H63.7969V68.1562H60.3594V75.7656H64.0703V76.9141H54.9688V75.7656H59.125V68.1562H55.7344V67.0234H59.125Z" fill="#DC6B34"/>
<path d="M74.7577 65.5781H80.4355V66.873H76.0292L75.6835 69.6445H75.7304C76.332 69.2109 77.0292 68.9941 77.8222 68.9941C78.3652 68.9941 78.8749 69.1172 79.3515 69.3633C80.0195 69.7031 80.4862 70.2207 80.7519 70.916C80.9003 71.3066 80.9745 71.7402 80.9745 72.2168C80.9745 73.2871 80.58 74.1309 79.7909 74.748C79.1347 75.2598 78.3183 75.5156 77.3417 75.5156C75.9277 75.5156 74.7909 75.0898 73.9316 74.2383L74.7343 73.2305C75.0468 73.5391 75.4277 73.7773 75.8769 73.9453C76.3652 74.1289 76.8456 74.2207 77.3183 74.2207C77.8534 74.2207 78.3105 74.0723 78.6894 73.7754C79.1737 73.3965 79.4159 72.873 79.4159 72.2051C79.4159 71.623 79.248 71.1484 78.912 70.7812C78.5487 70.3828 78.0468 70.1836 77.4062 70.1836C76.5351 70.1836 75.8964 70.4883 75.4902 71.0977L74.1718 70.8809L74.7577 65.5781ZM85.5791 70.248C86.1181 69.4316 86.9209 69.0234 87.9873 69.0234C88.8505 69.0234 89.5888 69.2949 90.2021 69.8379C90.874 70.4355 91.2099 71.1973 91.2099 72.123C91.2099 73.0723 90.9091 73.8633 90.3076 74.4961C89.6709 75.168 88.8252 75.5039 87.7705 75.5039C86.5361 75.5039 85.5595 75.0469 84.8408 74.1328C84.2627 73.3945 83.9736 72.3574 83.9736 71.0215C83.9736 70.0918 84.2392 69.168 84.7705 68.25C85.6611 66.6992 87.1552 65.6777 89.2529 65.1855L89.8037 66.334C88.4443 66.7285 87.4658 67.2207 86.8681 67.8105C86.1103 68.5566 85.665 69.3691 85.5322 70.248H85.5791ZM87.706 70.1543C87.1123 70.1543 86.6064 70.3906 86.1884 70.8633C85.8564 71.2344 85.6904 71.6348 85.6904 72.0645C85.6904 72.5254 85.8212 72.9473 86.083 73.3301C86.5048 73.9473 87.0556 74.2559 87.7353 74.2559C88.3291 74.2559 88.8173 74.0293 89.2002 73.5762C89.5087 73.2051 89.663 72.7363 89.663 72.1699C89.663 71.5293 89.4736 71.0312 89.0947 70.6758C88.7236 70.3281 88.2607 70.1543 87.706 70.1543ZM93.916 73.3301H95.8848V75.2988H93.916V73.3301ZM100.817 69.5742H101.632C102.319 69.5742 102.872 69.4512 103.29 69.2051C103.802 68.9043 104.058 68.4922 104.058 67.9688C104.058 67.5352 103.87 67.1914 103.495 66.9375C103.163 66.7148 102.749 66.6035 102.253 66.6035C101.355 66.6035 100.491 66.9473 99.6631 67.6348L98.8135 66.5859C99.8174 65.7812 100.999 65.3789 102.358 65.3789C103.269 65.3789 104.017 65.5664 104.603 65.9414C105.31 66.3984 105.663 67.0449 105.663 67.8809C105.663 68.5215 105.419 69.0703 104.931 69.5273C104.552 69.8789 104.052 70.0996 103.431 70.1895V70.2363C104.235 70.3691 104.851 70.6348 105.276 71.0332C105.718 71.4473 105.939 72 105.939 72.6914C105.939 73.6992 105.53 74.4531 104.714 74.9531C104.101 75.3281 103.296 75.5156 102.3 75.5156C100.73 75.5156 99.4561 75.0352 98.4795 74.0742L99.3643 73.0195C99.6768 73.3516 100.079 73.625 100.571 73.8398C101.169 74.1016 101.749 74.2324 102.312 74.2324C102.944 74.2324 103.439 74.0996 103.794 73.834C104.138 73.5801 104.31 73.1914 104.31 72.668C104.31 71.9492 103.964 71.4395 103.272 71.1387C102.808 70.9355 102.249 70.834 101.597 70.834H100.817V69.5742ZM117.076 65.5781H118.242L111.076 75.2988H109.916L117.076 65.5781ZM110.895 65.3379C111.649 65.3379 112.244 65.6289 112.682 66.2109C113.053 66.7109 113.238 67.334 113.238 68.0801C113.238 68.7559 113.086 69.3301 112.781 69.8027C112.344 70.4824 111.711 70.8223 110.883 70.8223C110.149 70.8223 109.565 70.5488 109.131 70.002C108.732 69.502 108.533 68.8633 108.533 68.0859C108.533 67.1641 108.803 66.4453 109.342 65.9297C109.756 65.5352 110.274 65.3379 110.895 65.3379ZM110.883 66.416C110.559 66.416 110.297 66.5645 110.098 66.8613C109.895 67.166 109.793 67.5742 109.793 68.0859C109.793 68.5117 109.869 68.8711 110.022 69.1641C110.221 69.5508 110.51 69.7441 110.889 69.7441C111.19 69.7441 111.438 69.6152 111.633 69.3574C111.863 69.0488 111.979 68.625 111.979 68.0859C111.979 67.5664 111.871 67.1523 111.656 66.8438C111.461 66.5586 111.203 66.416 110.883 66.416ZM117.275 70.0547C118.006 70.0547 118.588 70.3281 119.022 70.875C119.42 71.3789 119.619 72.0176 119.619 72.791C119.619 73.4785 119.463 74.0605 119.15 74.5371C118.713 75.2051 118.084 75.5391 117.264 75.5391C116.506 75.5391 115.91 75.248 115.477 74.666C115.106 74.166 114.92 73.543 114.92 72.7969C114.92 71.8906 115.182 71.1816 115.705 70.6699C116.123 70.2598 116.647 70.0547 117.275 70.0547ZM117.264 71.1328C116.963 71.1328 116.717 71.2617 116.525 71.5195C116.295 71.832 116.18 72.2578 116.18 72.7969C116.18 73.2227 116.254 73.582 116.402 73.875C116.602 74.2656 116.893 74.4609 117.275 74.4609C117.6 74.4609 117.859 74.3125 118.055 74.0156C118.258 73.707 118.359 73.3008 118.359 72.7969C118.359 72.2812 118.252 71.8691 118.037 71.5605C117.842 71.2754 117.584 71.1328 117.264 71.1328Z" fill="#DC6B34"/>
</svg>
