<svg width="526" height="213" viewBox="0 0 526 213" fill="none" xmlns="http://www.w3.org/2000/svg">
<ellipse cx="256.523" cy="106.5" rx="74" ry="74.5" fill="#F59160"/>
<path d="M330.523 106.5C330.523 106.5 297.393 106.5 256.523 106.5C215.654 106.5 182.523 147.645 182.523 106.5C182.523 65.3548 215.654 32 256.523 32C297.393 32 330.523 65.3548 330.523 106.5Z" fill="#F4D45F"/>
<path d="M256.524 106.5H256.528C256.524 106.5 198.703 60 198.705 60C212.265 42.9323 233.127 32 256.524 32C256.524 33.5 256.524 108 256.524 106.5Z" fill="#4FC964"/>
<path d="M256.524 106.501H256.528C256.524 106.501 198.703 60.0008 198.705 60.0008C207.338 49.1354 218.929 40.7564 232.25 36.1016C232.25 37.6016 256.524 108.001 256.524 106.501Z" fill="#8CF56F"/>
<path d="M256.523 106.502L183.324 117.502C182.797 113.912 182.523 110.239 182.523 106.502C182.523 87.6205 189.5 70.3798 201 57.25L256.523 106.502Z" fill="#60C5F5"/>
<path d="M256.524 106.5L281 176.828C273.339 179.53 265.102 181 256.524 181C236.744 181 218.776 173.186 205.5 160.458C205.494 160.458 256.524 106.5 256.526 106.5C256.526 106.5 256.526 106.5 256.524 106.5Z" fill="#F59160"/>
<path d="M201.902 55.995L256.388 106.068C256.388 106.068 205.134 160.136 205.977 160.922C178.492 135.663 174.589 94.2832 195.334 64.2195C197.302 61.3684 199.491 58.6191 201.902 55.995Z" fill="#6091F5"/>
<path d="M201.903 55.9931L256.389 106.066C256.389 106.066 183.157 100.213 184 101C184 101 184 101 182.446 99.9996C183.548 87.4572 187.828 75.0965 195.335 64.2176C197.302 61.3665 199.491 58.6172 201.903 55.9931Z" fill="#60C5F5"/>
<path d="M364.492 93.4375L361.031 106.57H359.758L357.422 99.4062C357.115 98.4792 356.883 97.5234 356.727 96.5391H356.664C356.503 97.5443 356.273 98.5 355.977 99.4062L353.641 106.57H352.359L348.906 93.4375H350.461L352.312 100.891C352.542 101.802 352.792 102.911 353.062 104.219H353.133C353.336 103.24 353.617 102.174 353.977 101.023L356.023 94.4766H357.367L359.422 101.023C359.766 102.128 360.047 103.193 360.266 104.219H360.328C360.552 103.135 360.805 102.026 361.086 100.891L362.938 93.4375H364.492ZM370.008 96.7188C371.294 96.7188 372.383 97.1562 373.273 98.0312C374.216 98.9531 374.688 100.167 374.688 101.672C374.688 102.552 374.526 103.344 374.203 104.047C373.786 104.948 373.154 105.63 372.305 106.094C371.602 106.479 370.826 106.672 369.977 106.672C368.445 106.672 367.232 106.107 366.336 104.977C365.633 104.091 365.281 102.99 365.281 101.672C365.281 99.9531 365.88 98.6276 367.078 97.6953C367.917 97.0443 368.893 96.7188 370.008 96.7188ZM369.969 97.9219C369.016 97.9219 368.229 98.3177 367.609 99.1094C367.073 99.7917 366.805 100.654 366.805 101.695C366.805 102.435 366.943 103.089 367.219 103.656C367.479 104.203 367.846 104.633 368.32 104.945C368.82 105.273 369.378 105.438 369.992 105.438C370.737 105.438 371.393 105.195 371.961 104.711C372.763 104.018 373.164 103.01 373.164 101.688C373.164 100.568 372.854 99.6562 372.234 98.9531C371.625 98.2656 370.87 97.9219 369.969 97.9219ZM378.273 99.5703H378.336C378.997 97.6797 380.021 96.7344 381.406 96.7344C381.839 96.7344 382.24 96.8203 382.609 96.9922L382.156 98.3359C381.885 98.2161 381.568 98.1562 381.203 98.1562C379.88 98.1562 378.951 99.2604 378.414 101.469V106.398H376.945V96.9609H378.352L378.273 99.5703ZM384.211 92.7188H385.664V101.086L390.031 96.9609H391.938L388.172 100.547L392.305 106.398H390.43L387.188 101.406L385.664 102.797V106.398H384.211V92.7188ZM400.688 93.4375H407.969V94.7188H401.953L401.438 99.2344H401.5C402.307 98.5365 403.297 98.1875 404.469 98.1875C405.589 98.1875 406.536 98.5104 407.312 99.1562C408.229 99.9219 408.688 100.977 408.688 102.32C408.688 103.185 408.471 103.958 408.039 104.641C407.529 105.458 406.789 106.034 405.82 106.367C405.284 106.549 404.693 106.641 404.047 106.641C402.26 106.641 400.815 106.133 399.711 105.117L400.508 104.109C400.94 104.495 401.451 104.792 402.039 105C402.711 105.24 403.38 105.359 404.047 105.359C404.974 105.359 405.734 105.047 406.328 104.422C406.865 103.854 407.133 103.154 407.133 102.32C407.133 101.482 406.885 100.799 406.391 100.273C405.844 99.6849 405.091 99.3906 404.133 99.3906C403.445 99.3906 402.802 99.5573 402.203 99.8906C401.802 100.115 401.49 100.391 401.266 100.719L399.938 100.523L400.688 93.4375ZM413.18 95.3594H415.258V97.4531H413.18V95.3594ZM413.18 102.383H415.258V104.477H413.18V102.383ZM419.914 93.4375H421.422V105.07H427.664V106.398H419.914V93.4375ZM429.508 93.2031H431.266V94.9453H429.508V93.2031ZM429.648 96.9609H431.117V106.398H429.648V96.9609ZM435.594 96.9609V96.2266C435.594 95.2474 435.792 94.4766 436.188 93.9141C436.755 93.1172 437.581 92.7188 438.664 92.7188C439.435 92.7188 440.164 92.9271 440.852 93.3438L440.281 94.3672C439.797 94.0703 439.297 93.9219 438.781 93.9219C438.036 93.9219 437.518 94.263 437.227 94.9453C437.096 95.2578 437.031 95.6797 437.031 96.2109V96.9609H440.133V98.0781H437.031V106.398H435.594V98.0781H433.18V96.9609H435.594ZM450.773 101.836H443.5C443.521 102.826 443.753 103.615 444.195 104.203C444.794 105 445.664 105.398 446.805 105.398C448.008 105.398 449.018 104.878 449.836 103.836L450.742 104.797C449.706 106.042 448.37 106.664 446.734 106.664C445.104 106.664 443.852 106.109 442.977 105C442.299 104.141 441.961 103.062 441.961 101.766C441.961 100.651 442.206 99.6797 442.695 98.8516C443.174 98.0495 443.826 97.4635 444.648 97.0938C445.221 96.8333 445.831 96.7031 446.477 96.7031C447.977 96.7031 449.13 97.3021 449.938 98.5C450.495 99.3281 450.773 100.302 450.773 101.422V101.836ZM449.242 100.719C449.18 99.9479 448.935 99.3177 448.508 98.8281C447.977 98.2135 447.289 97.9062 446.445 97.9062C445.831 97.9062 445.271 98.1016 444.766 98.4922C444.099 99.0026 443.698 99.7448 443.562 100.719H449.242ZM459.969 93.4375H467.25V94.7188H461.234L460.719 99.2344H460.781C461.589 98.5365 462.578 98.1875 463.75 98.1875C464.87 98.1875 465.818 98.5104 466.594 99.1562C467.51 99.9219 467.969 100.977 467.969 102.32C467.969 103.185 467.753 103.958 467.32 104.641C466.81 105.458 466.07 106.034 465.102 106.367C464.565 106.549 463.974 106.641 463.328 106.641C461.542 106.641 460.096 106.133 458.992 105.117L459.789 104.109C460.221 104.495 460.732 104.792 461.32 105C461.992 105.24 462.661 105.359 463.328 105.359C464.255 105.359 465.016 105.047 465.609 104.422C466.146 103.854 466.414 103.154 466.414 102.32C466.414 101.482 466.167 100.799 465.672 100.273C465.125 99.6849 464.372 99.3906 463.414 99.3906C462.727 99.3906 462.083 99.5573 461.484 99.8906C461.083 100.115 460.771 100.391 460.547 100.719L459.219 100.523L459.969 93.4375Z" fill="#E59D00"/>
<path d="M480.742 100.574H481.557C482.244 100.574 482.797 100.451 483.215 100.205C483.726 99.9043 483.982 99.4922 483.982 98.9688C483.982 98.5352 483.795 98.1914 483.42 97.9375C483.088 97.7148 482.674 97.6035 482.178 97.6035C481.279 97.6035 480.416 97.9473 479.588 98.6348L478.738 97.5859C479.742 96.7812 480.924 96.3789 482.283 96.3789C483.193 96.3789 483.941 96.5664 484.527 96.9414C485.234 97.3984 485.588 98.0449 485.588 98.8809C485.588 99.5215 485.344 100.07 484.855 100.527C484.476 100.879 483.976 101.1 483.355 101.189V101.236C484.16 101.369 484.775 101.635 485.201 102.033C485.642 102.447 485.863 103 485.863 103.691C485.863 104.699 485.455 105.453 484.639 105.953C484.025 106.328 483.221 106.516 482.225 106.516C480.654 106.516 479.381 106.035 478.404 105.074L479.289 104.02C479.601 104.352 480.004 104.625 480.496 104.84C481.094 105.102 481.674 105.232 482.236 105.232C482.869 105.232 483.363 105.1 483.719 104.834C484.062 104.58 484.234 104.191 484.234 103.668C484.234 102.949 483.889 102.439 483.197 102.139C482.732 101.936 482.174 101.834 481.521 101.834H480.742V100.574ZM489.835 96.5781H495.513V97.873H491.106L490.761 100.645H490.808C491.409 100.211 492.106 99.9941 492.899 99.9941C493.442 99.9941 493.952 100.117 494.429 100.363C495.097 100.703 495.563 101.221 495.829 101.916C495.977 102.307 496.052 102.74 496.052 103.217C496.052 104.287 495.657 105.131 494.868 105.748C494.212 106.26 493.395 106.516 492.419 106.516C491.005 106.516 489.868 106.09 489.009 105.238L489.811 104.23C490.124 104.539 490.505 104.777 490.954 104.945C491.442 105.129 491.923 105.221 492.395 105.221C492.931 105.221 493.388 105.072 493.767 104.775C494.251 104.396 494.493 103.873 494.493 103.205C494.493 102.623 494.325 102.148 493.989 101.781C493.626 101.383 493.124 101.184 492.483 101.184C491.612 101.184 490.974 101.488 490.567 102.098L489.249 101.881L489.835 96.5781ZM498.916 104.33H500.885V106.299H498.916V104.33ZM507.909 96.5195H509.731V102.807H511.472V104.055H509.731V106.299H508.267V104.055H503.397V102.818L507.909 96.5195ZM508.267 102.807V100.023C508.267 99.3867 508.294 98.6621 508.349 97.8496H508.302C507.923 98.6543 507.599 99.2461 507.329 99.625L505.103 102.807H508.267ZM522.076 96.5781H523.242L516.076 106.299H514.916L522.076 96.5781ZM515.895 96.3379C516.649 96.3379 517.244 96.6289 517.682 97.2109C518.053 97.7109 518.238 98.334 518.238 99.0801C518.238 99.7559 518.086 100.33 517.781 100.803C517.344 101.482 516.711 101.822 515.883 101.822C515.149 101.822 514.565 101.549 514.131 101.002C513.732 100.502 513.533 99.8633 513.533 99.0859C513.533 98.1641 513.803 97.4453 514.342 96.9297C514.756 96.5352 515.274 96.3379 515.895 96.3379ZM515.883 97.416C515.559 97.416 515.297 97.5645 515.098 97.8613C514.895 98.166 514.793 98.5742 514.793 99.0859C514.793 99.5117 514.869 99.8711 515.022 100.164C515.221 100.551 515.51 100.744 515.889 100.744C516.19 100.744 516.438 100.615 516.633 100.357C516.863 100.049 516.979 99.625 516.979 99.0859C516.979 98.5664 516.871 98.1523 516.656 97.8438C516.461 97.5586 516.203 97.416 515.883 97.416ZM522.275 101.055C523.006 101.055 523.588 101.328 524.022 101.875C524.42 102.379 524.619 103.018 524.619 103.791C524.619 104.479 524.463 105.061 524.15 105.537C523.713 106.205 523.084 106.539 522.264 106.539C521.506 106.539 520.91 106.248 520.477 105.666C520.106 105.166 519.92 104.543 519.92 103.797C519.92 102.891 520.182 102.182 520.705 101.67C521.123 101.26 521.647 101.055 522.275 101.055ZM522.264 102.133C521.963 102.133 521.717 102.262 521.525 102.52C521.295 102.832 521.18 103.258 521.18 103.797C521.18 104.223 521.254 104.582 521.402 104.875C521.602 105.266 521.893 105.461 522.275 105.461C522.6 105.461 522.859 105.312 523.055 105.016C523.258 104.707 523.359 104.301 523.359 103.797C523.359 103.281 523.252 102.869 523.037 102.561C522.842 102.275 522.584 102.133 522.264 102.133Z" fill="#E59D00"/>
<path d="M16.9922 128.438L13.5312 141.57H12.2578L9.92188 134.406C9.61458 133.479 9.38281 132.523 9.22656 131.539H9.16406C9.0026 132.544 8.77344 133.5 8.47656 134.406L6.14062 141.57H4.85938L1.40625 128.438H2.96094L4.8125 135.891C5.04167 136.802 5.29167 137.911 5.5625 139.219H5.63281C5.83594 138.24 6.11719 137.174 6.47656 136.023L8.52344 129.477H9.86719L11.9219 136.023C12.2656 137.128 12.5469 138.193 12.7656 139.219H12.8281C13.0521 138.135 13.3047 137.026 13.5859 135.891L15.4375 128.438H16.9922ZM22.5078 131.719C23.7943 131.719 24.8828 132.156 25.7734 133.031C26.7161 133.953 27.1875 135.167 27.1875 136.672C27.1875 137.552 27.026 138.344 26.7031 139.047C26.2865 139.948 25.6536 140.63 24.8047 141.094C24.1016 141.479 23.3255 141.672 22.4766 141.672C20.9453 141.672 19.7318 141.107 18.8359 139.977C18.1328 139.091 17.7812 137.99 17.7812 136.672C17.7812 134.953 18.3802 133.628 19.5781 132.695C20.4167 132.044 21.3932 131.719 22.5078 131.719ZM22.4688 132.922C21.5156 132.922 20.7292 133.318 20.1094 134.109C19.5729 134.792 19.3047 135.654 19.3047 136.695C19.3047 137.435 19.4427 138.089 19.7188 138.656C19.9792 139.203 20.3464 139.633 20.8203 139.945C21.3203 140.273 21.8776 140.438 22.4922 140.438C23.237 140.438 23.8932 140.195 24.4609 139.711C25.263 139.018 25.6641 138.01 25.6641 136.688C25.6641 135.568 25.3542 134.656 24.7344 133.953C24.125 133.266 23.3698 132.922 22.4688 132.922ZM30.7734 134.57H30.8359C31.4974 132.68 32.5208 131.734 33.9062 131.734C34.3385 131.734 34.7396 131.82 35.1094 131.992L34.6562 133.336C34.3854 133.216 34.0677 133.156 33.7031 133.156C32.3802 133.156 31.4505 134.26 30.9141 136.469V141.398H29.4453V131.961H30.8516L30.7734 134.57ZM36.7109 127.719H38.1641V136.086L42.5312 131.961H44.4375L40.6719 135.547L44.8047 141.398H42.9297L39.6875 136.406L38.1641 137.797V141.398H36.7109V127.719ZM54.4453 133.961H55.4531C56.4479 133.961 57.2474 133.802 57.8516 133.484C57.987 133.411 58.1146 133.326 58.2344 133.227C58.7604 132.784 59.0234 132.234 59.0234 131.578C59.0234 130.891 58.7474 130.352 58.1953 129.961C57.6901 129.612 57.0417 129.438 56.25 129.438C55.0625 129.438 53.9714 129.906 52.9766 130.844L52.0625 129.867C52.4792 129.461 52.9531 129.128 53.4844 128.867C54.3802 128.424 55.3255 128.203 56.3203 128.203C57.3411 128.203 58.224 128.409 58.9688 128.82C60.0625 129.424 60.6094 130.302 60.6094 131.453C60.6094 132.328 60.2891 133.06 59.6484 133.648C59.1536 134.112 58.4401 134.404 57.5078 134.523V134.586C58.612 134.701 59.4688 135.026 60.0781 135.562C60.7396 136.151 61.0703 136.938 61.0703 137.922C61.0703 139.161 60.5807 140.117 59.6016 140.789C58.7578 141.367 57.6484 141.656 56.2734 141.656C54.3672 141.656 52.8203 141.047 51.6328 139.828L52.5625 138.844C52.901 139.198 53.2786 139.487 53.6953 139.711C54.5026 140.154 55.362 140.375 56.2734 140.375C57.2995 140.375 58.1042 140.141 58.6875 139.672C59.2083 139.25 59.4688 138.659 59.4688 137.898C59.4688 136.086 58.1198 135.18 55.4219 135.18H54.4453V133.961ZM65.6797 130.359H67.7578V132.453H65.6797V130.359ZM65.6797 137.383H67.7578V139.477H65.6797V137.383ZM72.4141 128.438H73.9219V140.07H80.1641V141.398H72.4141V128.438ZM82.0078 128.203H83.7656V129.945H82.0078V128.203ZM82.1484 131.961H83.6172V141.398H82.1484V131.961ZM88.0938 131.961V131.227C88.0938 130.247 88.2917 129.477 88.6875 128.914C89.2552 128.117 90.0807 127.719 91.1641 127.719C91.9349 127.719 92.6641 127.927 93.3516 128.344L92.7812 129.367C92.2969 129.07 91.7969 128.922 91.2812 128.922C90.5365 128.922 90.0182 129.263 89.7266 129.945C89.5964 130.258 89.5312 130.68 89.5312 131.211V131.961H92.6328V133.078H89.5312V141.398H88.0938V133.078H85.6797V131.961H88.0938ZM103.273 136.836H96C96.0208 137.826 96.2526 138.615 96.6953 139.203C97.2943 140 98.1641 140.398 99.3047 140.398C100.508 140.398 101.518 139.878 102.336 138.836L103.242 139.797C102.206 141.042 100.87 141.664 99.2344 141.664C97.6042 141.664 96.3516 141.109 95.4766 140C94.7995 139.141 94.4609 138.062 94.4609 136.766C94.4609 135.651 94.7057 134.68 95.1953 133.852C95.6745 133.049 96.3255 132.464 97.1484 132.094C97.7214 131.833 98.3307 131.703 98.9766 131.703C100.477 131.703 101.63 132.302 102.438 133.5C102.995 134.328 103.273 135.302 103.273 136.422V136.836ZM101.742 135.719C101.68 134.948 101.435 134.318 101.008 133.828C100.477 133.214 99.7891 132.906 98.9453 132.906C98.3307 132.906 97.7708 133.102 97.2656 133.492C96.599 134.003 96.1979 134.745 96.0625 135.719H101.742ZM111.523 128.438H120.836V129.609C119.841 131.365 118.917 133.417 118.062 135.766C117.38 137.641 116.849 139.518 116.469 141.398H114.93C115.331 139.341 115.987 137.182 116.898 134.922C117.836 132.594 118.615 130.875 119.234 129.766H112.914V132.633H111.523V128.438Z" fill="#2861D4"/>
<path d="M133.695 141.299V133.02C132.867 133.297 132.086 133.502 131.351 133.635L131.064 132.445C132.303 132.145 133.318 131.797 134.111 131.402H135.236V141.299H133.695ZM143.632 131.52H145.454V137.807H147.194V139.055H145.454V141.299H143.989V139.055H139.12V137.818L143.632 131.52ZM143.989 137.807V135.023C143.989 134.387 144.017 133.662 144.071 132.85H144.024C143.645 133.654 143.321 134.246 143.052 134.625L140.825 137.807H143.989ZM149.637 139.33H151.605V141.299H149.637V139.33ZM156.298 136.248C156.837 135.432 157.64 135.023 158.706 135.023C159.569 135.023 160.308 135.295 160.921 135.838C161.593 136.436 161.929 137.197 161.929 138.123C161.929 139.072 161.628 139.863 161.026 140.496C160.39 141.168 159.544 141.504 158.489 141.504C157.255 141.504 156.278 141.047 155.56 140.133C154.981 139.395 154.692 138.357 154.692 137.021C154.692 136.092 154.958 135.168 155.489 134.25C156.38 132.699 157.874 131.678 159.972 131.186L160.522 132.334C159.163 132.729 158.185 133.221 157.587 133.811C156.829 134.557 156.384 135.369 156.251 136.248H156.298ZM158.425 136.154C157.831 136.154 157.325 136.391 156.907 136.863C156.575 137.234 156.409 137.635 156.409 138.064C156.409 138.525 156.54 138.947 156.802 139.33C157.224 139.947 157.774 140.256 158.454 140.256C159.048 140.256 159.536 140.029 159.919 139.576C160.228 139.205 160.382 138.736 160.382 138.17C160.382 137.529 160.192 137.031 159.814 136.676C159.442 136.328 158.98 136.154 158.425 136.154ZM172.797 131.578H173.963L166.797 141.299H165.637L172.797 131.578ZM166.615 131.338C167.369 131.338 167.965 131.629 168.402 132.211C168.774 132.711 168.959 133.334 168.959 134.08C168.959 134.756 168.807 135.33 168.502 135.803C168.065 136.482 167.432 136.822 166.604 136.822C165.869 136.822 165.285 136.549 164.852 136.002C164.453 135.502 164.254 134.863 164.254 134.086C164.254 133.164 164.524 132.445 165.063 131.93C165.477 131.535 165.994 131.338 166.615 131.338ZM166.604 132.416C166.279 132.416 166.018 132.564 165.818 132.861C165.615 133.166 165.514 133.574 165.514 134.086C165.514 134.512 165.59 134.871 165.742 135.164C165.941 135.551 166.231 135.744 166.609 135.744C166.91 135.744 167.158 135.615 167.354 135.357C167.584 135.049 167.699 134.625 167.699 134.086C167.699 133.566 167.592 133.152 167.377 132.844C167.182 132.559 166.924 132.416 166.604 132.416ZM172.996 136.055C173.727 136.055 174.309 136.328 174.742 136.875C175.141 137.379 175.34 138.018 175.34 138.791C175.34 139.479 175.184 140.061 174.871 140.537C174.434 141.205 173.805 141.539 172.984 141.539C172.227 141.539 171.631 141.248 171.197 140.666C170.826 140.166 170.641 139.543 170.641 138.797C170.641 137.891 170.902 137.182 171.426 136.67C171.844 136.26 172.367 136.055 172.996 136.055ZM172.984 137.133C172.684 137.133 172.438 137.262 172.246 137.52C172.016 137.832 171.9 138.258 171.9 138.797C171.9 139.223 171.975 139.582 172.123 139.875C172.322 140.266 172.613 140.461 172.996 140.461C173.32 140.461 173.58 140.312 173.775 140.016C173.979 139.707 174.08 139.301 174.08 138.797C174.08 138.281 173.973 137.869 173.758 137.561C173.563 137.275 173.305 137.133 172.984 137.133Z" fill="#2861D4"/>
<path d="M330.524 106.5C330.524 129.689 320.001 150.403 303.5 164.067C303.5 166.345 256.524 106.5 256.521 106.5C256.521 106.5 215.655 106.5 256.524 106.5L329.863 96.5C330.299 99.7709 330.524 103.109 330.524 106.5Z" fill="#F4D45F"/>
<circle cx="256.523" cy="107" r="37" fill="#F9F9F9"/>
<path d="M188.492 198.438L185.031 211.57H183.758L181.422 204.406C181.115 203.479 180.883 202.523 180.727 201.539H180.664C180.503 202.544 180.273 203.5 179.977 204.406L177.641 211.57H176.359L172.906 198.438H174.461L176.312 205.891C176.542 206.802 176.792 207.911 177.062 209.219H177.133C177.336 208.24 177.617 207.174 177.977 206.023L180.023 199.477H181.367L183.422 206.023C183.766 207.128 184.047 208.193 184.266 209.219H184.328C184.552 208.135 184.805 207.026 185.086 205.891L186.938 198.438H188.492ZM194.008 201.719C195.294 201.719 196.383 202.156 197.273 203.031C198.216 203.953 198.688 205.167 198.688 206.672C198.688 207.552 198.526 208.344 198.203 209.047C197.786 209.948 197.154 210.63 196.305 211.094C195.602 211.479 194.826 211.672 193.977 211.672C192.445 211.672 191.232 211.107 190.336 209.977C189.633 209.091 189.281 207.99 189.281 206.672C189.281 204.953 189.88 203.628 191.078 202.695C191.917 202.044 192.893 201.719 194.008 201.719ZM193.969 202.922C193.016 202.922 192.229 203.318 191.609 204.109C191.073 204.792 190.805 205.654 190.805 206.695C190.805 207.435 190.943 208.089 191.219 208.656C191.479 209.203 191.846 209.633 192.32 209.945C192.82 210.273 193.378 210.438 193.992 210.438C194.737 210.438 195.393 210.195 195.961 209.711C196.763 209.018 197.164 208.01 197.164 206.688C197.164 205.568 196.854 204.656 196.234 203.953C195.625 203.266 194.87 202.922 193.969 202.922ZM202.273 204.57H202.336C202.997 202.68 204.021 201.734 205.406 201.734C205.839 201.734 206.24 201.82 206.609 201.992L206.156 203.336C205.885 203.216 205.568 203.156 205.203 203.156C203.88 203.156 202.951 204.26 202.414 206.469V211.398H200.945V201.961H202.352L202.273 204.57ZM208.211 197.719H209.664V206.086L214.031 201.961H215.938L212.172 205.547L216.305 211.398H214.43L211.188 206.406L209.664 207.797V211.398H208.211V197.719ZM225.117 205.016C225.534 204.312 226.117 203.797 226.867 203.469C227.419 203.229 227.982 203.109 228.555 203.109C229.612 203.109 230.557 203.477 231.391 204.211C232.266 204.987 232.703 205.982 232.703 207.195C232.703 208.393 232.326 209.427 231.57 210.297C230.773 211.203 229.706 211.656 228.367 211.656C226.82 211.656 225.615 211.081 224.75 209.93C224.328 209.372 224.026 208.802 223.844 208.219C223.635 207.547 223.531 206.758 223.531 205.852C223.531 205.023 223.703 204.169 224.047 203.289C225.068 200.654 227.115 198.857 230.188 197.898L230.766 199.016C228.938 199.688 227.591 200.521 226.727 201.516C225.784 202.604 225.227 203.771 225.055 205.016H225.117ZM228.273 204.312C227.435 204.312 226.701 204.643 226.07 205.305C225.539 205.867 225.273 206.5 225.273 207.203C225.273 207.849 225.469 208.461 225.859 209.039C226.469 209.94 227.281 210.391 228.297 210.391C229.177 210.391 229.885 210.083 230.422 209.469C230.938 208.88 231.195 208.156 231.195 207.297C231.195 206.359 230.927 205.635 230.391 205.125C229.823 204.583 229.117 204.312 228.273 204.312ZM237.18 200.359H239.258V202.453H237.18V200.359ZM237.18 207.383H239.258V209.477H237.18V207.383ZM243.914 198.438H245.422V210.07H251.664V211.398H243.914V198.438ZM253.508 198.203H255.266V199.945H253.508V198.203ZM253.648 201.961H255.117V211.398H253.648V201.961ZM259.594 201.961V201.227C259.594 200.247 259.792 199.477 260.188 198.914C260.755 198.117 261.581 197.719 262.664 197.719C263.435 197.719 264.164 197.927 264.852 198.344L264.281 199.367C263.797 199.07 263.297 198.922 262.781 198.922C262.036 198.922 261.518 199.263 261.227 199.945C261.096 200.258 261.031 200.68 261.031 201.211V201.961H264.133V203.078H261.031V211.398H259.594V203.078H257.18V201.961H259.594ZM274.773 206.836H267.5C267.521 207.826 267.753 208.615 268.195 209.203C268.794 210 269.664 210.398 270.805 210.398C272.008 210.398 273.018 209.878 273.836 208.836L274.742 209.797C273.706 211.042 272.37 211.664 270.734 211.664C269.104 211.664 267.852 211.109 266.977 210C266.299 209.141 265.961 208.062 265.961 206.766C265.961 205.651 266.206 204.68 266.695 203.852C267.174 203.049 267.826 202.464 268.648 202.094C269.221 201.833 269.831 201.703 270.477 201.703C271.977 201.703 273.13 202.302 273.938 203.5C274.495 204.328 274.773 205.302 274.773 206.422V206.836ZM273.242 205.719C273.18 204.948 272.935 204.318 272.508 203.828C271.977 203.214 271.289 202.906 270.445 202.906C269.831 202.906 269.271 203.102 268.766 203.492C268.099 204.003 267.698 204.745 267.562 205.719H273.242ZM288.195 198.359H289.953V207.016H292.43V208.25H289.953V211.398H288.547V208.25H281.953V207.031L288.195 198.359ZM288.547 207.016V202.406C288.547 201.521 288.573 200.599 288.625 199.641H288.562C288.104 200.547 287.714 201.224 287.391 201.672L283.586 207.016H288.547Z" fill="#DC6B34"/>
<path d="M302.966 210.299V208.975C303.337 207.822 304.349 206.695 306.001 205.594L306.323 205.377C307.034 204.904 307.522 204.518 307.788 204.217C308.085 203.881 308.233 203.518 308.233 203.127C308.233 202.775 308.126 202.471 307.911 202.213C307.591 201.826 307.112 201.633 306.476 201.633C305.526 201.633 304.673 202.029 303.915 202.822L302.907 201.896C303.173 201.572 303.489 201.299 303.856 201.076C304.642 200.6 305.517 200.361 306.481 200.361C307.231 200.361 307.882 200.504 308.433 200.789C308.909 201.039 309.276 201.379 309.534 201.809C309.772 202.215 309.892 202.654 309.892 203.127C309.892 203.748 309.655 204.322 309.183 204.85C308.866 205.205 308.274 205.678 307.407 206.268L307.032 206.52C306.114 207.141 305.509 207.602 305.216 207.902C304.856 208.27 304.618 208.6 304.501 208.893H309.985V210.299H302.966ZM313.834 200.578H319.512V201.873H315.105L314.76 204.645H314.807C315.408 204.211 316.105 203.994 316.898 203.994C317.441 203.994 317.951 204.117 318.428 204.363C319.096 204.703 319.563 205.221 319.828 205.916C319.977 206.307 320.051 206.74 320.051 207.217C320.051 208.287 319.656 209.131 318.867 209.748C318.211 210.26 317.395 210.516 316.418 210.516C315.004 210.516 313.867 210.09 313.008 209.238L313.811 208.23C314.123 208.539 314.504 208.777 314.953 208.945C315.441 209.129 315.922 209.221 316.395 209.221C316.93 209.221 317.387 209.072 317.766 208.775C318.25 208.396 318.492 207.873 318.492 207.205C318.492 206.623 318.324 206.148 317.988 205.781C317.625 205.383 317.123 205.184 316.482 205.184C315.611 205.184 314.973 205.488 314.566 206.098L313.248 205.881L313.834 200.578ZM331.077 200.578H332.243L325.077 210.299H323.917L331.077 200.578ZM324.896 200.338C325.649 200.338 326.245 200.629 326.683 201.211C327.054 201.711 327.239 202.334 327.239 203.08C327.239 203.756 327.087 204.33 326.782 204.803C326.345 205.482 325.712 205.822 324.884 205.822C324.149 205.822 323.565 205.549 323.132 205.002C322.733 204.502 322.534 203.863 322.534 203.086C322.534 202.164 322.804 201.445 323.343 200.93C323.757 200.535 324.274 200.338 324.896 200.338ZM324.884 201.416C324.56 201.416 324.298 201.564 324.099 201.861C323.896 202.166 323.794 202.574 323.794 203.086C323.794 203.512 323.87 203.871 324.023 204.164C324.222 204.551 324.511 204.744 324.89 204.744C325.19 204.744 325.439 204.615 325.634 204.357C325.864 204.049 325.98 203.625 325.98 203.086C325.98 202.566 325.872 202.152 325.657 201.844C325.462 201.559 325.204 201.416 324.884 201.416ZM331.276 205.055C332.007 205.055 332.589 205.328 333.023 205.875C333.421 206.379 333.62 207.018 333.62 207.791C333.62 208.479 333.464 209.061 333.151 209.537C332.714 210.205 332.085 210.539 331.265 210.539C330.507 210.539 329.911 210.248 329.478 209.666C329.106 209.166 328.921 208.543 328.921 207.797C328.921 206.891 329.183 206.182 329.706 205.67C330.124 205.26 330.648 205.055 331.276 205.055ZM331.265 206.133C330.964 206.133 330.718 206.262 330.526 206.52C330.296 206.832 330.181 207.258 330.181 207.797C330.181 208.223 330.255 208.582 330.403 208.875C330.603 209.266 330.894 209.461 331.276 209.461C331.601 209.461 331.86 209.312 332.056 209.016C332.259 208.707 332.36 208.301 332.36 207.797C332.36 207.281 332.253 206.869 332.038 206.561C331.843 206.275 331.585 206.133 331.265 206.133Z" fill="#DC6B34"/>
<path d="M16.4922 73.4375L13.0312 86.5703H11.7578L9.42188 79.4062C9.11458 78.4792 8.88281 77.5234 8.72656 76.5391H8.66406C8.5026 77.5443 8.27344 78.5 7.97656 79.4062L5.64062 86.5703H4.35938L0.90625 73.4375H2.46094L4.3125 80.8906C4.54167 81.8021 4.79167 82.9115 5.0625 84.2188H5.13281C5.33594 83.2396 5.61719 82.1745 5.97656 81.0234L8.02344 74.4766H9.36719L11.4219 81.0234C11.7656 82.1276 12.0469 83.1927 12.2656 84.2188H12.3281C12.5521 83.1354 12.8047 82.026 13.0859 80.8906L14.9375 73.4375H16.4922ZM22.0078 76.7188C23.2943 76.7188 24.3828 77.1562 25.2734 78.0312C26.2161 78.9531 26.6875 80.1667 26.6875 81.6719C26.6875 82.5521 26.526 83.3438 26.2031 84.0469C25.7865 84.9479 25.1536 85.6302 24.3047 86.0938C23.6016 86.4792 22.8255 86.6719 21.9766 86.6719C20.4453 86.6719 19.2318 86.1068 18.3359 84.9766C17.6328 84.0911 17.2812 82.9896 17.2812 81.6719C17.2812 79.9531 17.8802 78.6276 19.0781 77.6953C19.9167 77.0443 20.8932 76.7188 22.0078 76.7188ZM21.9688 77.9219C21.0156 77.9219 20.2292 78.3177 19.6094 79.1094C19.0729 79.7917 18.8047 80.6536 18.8047 81.6953C18.8047 82.4349 18.9427 83.0885 19.2188 83.6562C19.4792 84.2031 19.8464 84.6328 20.3203 84.9453C20.8203 85.2734 21.3776 85.4375 21.9922 85.4375C22.737 85.4375 23.3932 85.1953 23.9609 84.7109C24.763 84.0182 25.1641 83.0104 25.1641 81.6875C25.1641 80.5677 24.8542 79.6562 24.2344 78.9531C23.625 78.2656 22.8698 77.9219 21.9688 77.9219ZM30.2734 79.5703H30.3359C30.9974 77.6797 32.0208 76.7344 33.4062 76.7344C33.8385 76.7344 34.2396 76.8203 34.6094 76.9922L34.1562 78.3359C33.8854 78.2161 33.5677 78.1562 33.2031 78.1562C31.8802 78.1562 30.9505 79.2604 30.4141 81.4688V86.3984H28.9453V76.9609H30.3516L30.2734 79.5703ZM36.2109 72.7188H37.6641V81.0859L42.0312 76.9609H43.9375L40.1719 80.5469L44.3047 86.3984H42.4297L39.1875 81.4062L37.6641 82.7969V86.3984H36.2109V72.7188ZM56.9141 73.3594H58.6719V82.0156H61.1484V83.25H58.6719V86.3984H57.2656V83.25H50.6719V82.0312L56.9141 73.3594ZM57.2656 82.0156V77.4062C57.2656 76.5208 57.2917 75.599 57.3438 74.6406H57.2812C56.8229 75.5469 56.4323 76.224 56.1094 76.6719L52.3047 82.0156H57.2656ZM65.1797 75.3594H67.2578V77.4531H65.1797V75.3594ZM65.1797 82.3828H67.2578V84.4766H65.1797V82.3828ZM71.9141 73.4375H73.4219V85.0703H79.6641V86.3984H71.9141V73.4375ZM81.5078 73.2031H83.2656V74.9453H81.5078V73.2031ZM81.6484 76.9609H83.1172V86.3984H81.6484V76.9609ZM87.5938 76.9609V76.2266C87.5938 75.2474 87.7917 74.4766 88.1875 73.9141C88.7552 73.1172 89.5807 72.7188 90.6641 72.7188C91.4349 72.7188 92.1641 72.9271 92.8516 73.3438L92.2812 74.3672C91.7969 74.0703 91.2969 73.9219 90.7812 73.9219C90.0365 73.9219 89.5182 74.263 89.2266 74.9453C89.0964 75.2578 89.0312 75.6797 89.0312 76.2109V76.9609H92.1328V78.0781H89.0312V86.3984H87.5938V78.0781H85.1797V76.9609H87.5938ZM102.773 81.8359H95.5C95.5208 82.8255 95.7526 83.6146 96.1953 84.2031C96.7943 85 97.6641 85.3984 98.8047 85.3984C100.008 85.3984 101.018 84.8776 101.836 83.8359L102.742 84.7969C101.706 86.0417 100.37 86.6641 98.7344 86.6641C97.1042 86.6641 95.8516 86.1094 94.9766 85C94.2995 84.1406 93.9609 83.0625 93.9609 81.7656C93.9609 80.651 94.2057 79.6797 94.6953 78.8516C95.1745 78.0495 95.8255 77.4635 96.6484 77.0938C97.2214 76.8333 97.8307 76.7031 98.4766 76.7031C99.9766 76.7031 101.13 77.3021 101.938 78.5C102.495 79.3281 102.773 80.3021 102.773 81.4219V81.8359ZM101.242 80.7188C101.18 79.9479 100.935 79.3177 100.508 78.8281C99.9766 78.2135 99.2891 77.9062 98.4453 77.9062C97.8307 77.9062 97.2708 78.1016 96.7656 78.4922C96.099 79.0026 95.6979 79.7448 95.5625 80.7188H101.242ZM112.398 80.0156C112.815 79.3125 113.398 78.7969 114.148 78.4688C114.701 78.2292 115.263 78.1094 115.836 78.1094C116.893 78.1094 117.839 78.4766 118.672 79.2109C119.547 79.987 119.984 80.9818 119.984 82.1953C119.984 83.3932 119.607 84.4271 118.852 85.2969C118.055 86.2031 116.987 86.6562 115.648 86.6562C114.102 86.6562 112.896 86.0807 112.031 84.9297C111.609 84.3724 111.307 83.8021 111.125 83.2188C110.917 82.5469 110.812 81.7578 110.812 80.8516C110.812 80.0234 110.984 79.1693 111.328 78.2891C112.349 75.6536 114.396 73.8568 117.469 72.8984L118.047 74.0156C116.219 74.6875 114.872 75.5208 114.008 76.5156C113.065 77.6042 112.508 78.7708 112.336 80.0156H112.398ZM115.555 79.3125C114.716 79.3125 113.982 79.6432 113.352 80.3047C112.82 80.8672 112.555 81.5 112.555 82.2031C112.555 82.849 112.75 83.4609 113.141 84.0391C113.75 84.9401 114.562 85.3906 115.578 85.3906C116.458 85.3906 117.167 85.0833 117.703 84.4688C118.219 83.8802 118.477 83.1562 118.477 82.2969C118.477 81.3594 118.208 80.6354 117.672 80.125C117.104 79.5833 116.398 79.3125 115.555 79.3125Z" fill="#319CCF"/>
<path d="M133.195 86.2988V78.0195C132.367 78.2969 131.586 78.502 130.851 78.6348L130.564 77.4453C131.803 77.1445 132.818 76.7969 133.611 76.4023H134.736V86.2988H133.195ZM139.265 86.2988V84.9746C139.636 83.8223 140.647 82.6953 142.3 81.5938L142.622 81.377C143.333 80.9043 143.821 80.5176 144.087 80.2168C144.384 79.8809 144.532 79.5176 144.532 79.127C144.532 78.7754 144.425 78.4707 144.21 78.2129C143.89 77.8262 143.411 77.6328 142.774 77.6328C141.825 77.6328 140.972 78.0293 140.214 78.8223L139.206 77.8965C139.472 77.5723 139.788 77.2988 140.155 77.0762C140.94 76.5996 141.815 76.3613 142.78 76.3613C143.53 76.3613 144.181 76.5039 144.731 76.7891C145.208 77.0391 145.575 77.3789 145.833 77.8086C146.071 78.2148 146.19 78.6543 146.19 79.127C146.19 79.748 145.954 80.3223 145.481 80.8496C145.165 81.2051 144.573 81.6777 143.706 82.2676L143.331 82.5195C142.413 83.1406 141.808 83.6016 141.515 83.9023C141.155 84.2695 140.917 84.5996 140.8 84.8926H146.284V86.2988H139.265ZM149.137 84.3301H151.105V86.2988H149.137V84.3301ZM155.054 76.5781H160.731V77.873H156.325L155.98 80.6445H156.026C156.628 80.2109 157.325 79.9941 158.118 79.9941C158.661 79.9941 159.171 80.1172 159.647 80.3633C160.315 80.7031 160.782 81.2207 161.048 81.916C161.196 82.3066 161.271 82.7402 161.271 83.2168C161.271 84.2871 160.876 85.1309 160.087 85.748C159.431 86.2598 158.614 86.5156 157.638 86.5156C156.224 86.5156 155.087 86.0898 154.228 85.2383L155.03 84.2305C155.343 84.5391 155.724 84.7773 156.173 84.9453C156.661 85.1289 157.142 85.2207 157.614 85.2207C158.149 85.2207 158.606 85.0723 158.985 84.7754C159.47 84.3965 159.712 83.873 159.712 83.2051C159.712 82.623 159.544 82.1484 159.208 81.7812C158.845 81.3828 158.343 81.1836 157.702 81.1836C156.831 81.1836 156.192 81.4883 155.786 82.0977L154.468 81.8809L155.054 76.5781ZM172.297 76.5781H173.463L166.297 86.2988H165.137L172.297 76.5781ZM166.115 76.3379C166.869 76.3379 167.465 76.6289 167.902 77.2109C168.274 77.7109 168.459 78.334 168.459 79.0801C168.459 79.7559 168.307 80.3301 168.002 80.8027C167.565 81.4824 166.932 81.8223 166.104 81.8223C165.369 81.8223 164.785 81.5488 164.352 81.002C163.953 80.502 163.754 79.8633 163.754 79.0859C163.754 78.1641 164.024 77.4453 164.563 76.9297C164.977 76.5352 165.494 76.3379 166.115 76.3379ZM166.104 77.416C165.779 77.416 165.518 77.5645 165.318 77.8613C165.115 78.166 165.014 78.5742 165.014 79.0859C165.014 79.5117 165.09 79.8711 165.242 80.1641C165.441 80.5508 165.731 80.7441 166.109 80.7441C166.41 80.7441 166.658 80.6152 166.854 80.3574C167.084 80.0488 167.199 79.625 167.199 79.0859C167.199 78.5664 167.092 78.1523 166.877 77.8438C166.682 77.5586 166.424 77.416 166.104 77.416ZM172.496 81.0547C173.227 81.0547 173.809 81.3281 174.242 81.875C174.641 82.3789 174.84 83.0176 174.84 83.791C174.84 84.4785 174.684 85.0605 174.371 85.5371C173.934 86.2051 173.305 86.5391 172.484 86.5391C171.727 86.5391 171.131 86.248 170.697 85.666C170.326 85.166 170.141 84.543 170.141 83.7969C170.141 82.8906 170.402 82.1816 170.926 81.6699C171.344 81.2598 171.867 81.0547 172.496 81.0547ZM172.484 82.1328C172.184 82.1328 171.938 82.2617 171.746 82.5195C171.516 82.832 171.4 83.2578 171.4 83.7969C171.4 84.2227 171.475 84.582 171.623 84.875C171.822 85.2656 172.113 85.4609 172.496 85.4609C172.82 85.4609 173.08 85.3125 173.275 85.0156C173.479 84.707 173.58 84.3008 173.58 83.7969C173.58 83.2812 173.473 82.8691 173.258 82.5605C173.063 82.2754 172.805 82.1328 172.484 82.1328Z" fill="#319CCF"/>
<path d="M42.4922 29.4375L39.0312 42.5703H37.7578L35.4219 35.4062C35.1146 34.4792 34.8828 33.5234 34.7266 32.5391H34.6641C34.5026 33.5443 34.2734 34.5 33.9766 35.4062L31.6406 42.5703H30.3594L26.9062 29.4375H28.4609L30.3125 36.8906C30.5417 37.8021 30.7917 38.9115 31.0625 40.2188H31.1328C31.3359 39.2396 31.6172 38.1745 31.9766 37.0234L34.0234 30.4766H35.3672L37.4219 37.0234C37.7656 38.1276 38.0469 39.1927 38.2656 40.2188H38.3281C38.5521 39.1354 38.8047 38.026 39.0859 36.8906L40.9375 29.4375H42.4922ZM48.0078 32.7188C49.2943 32.7188 50.3828 33.1562 51.2734 34.0312C52.2161 34.9531 52.6875 36.1667 52.6875 37.6719C52.6875 38.5521 52.526 39.3438 52.2031 40.0469C51.7865 40.9479 51.1536 41.6302 50.3047 42.0938C49.6016 42.4792 48.8255 42.6719 47.9766 42.6719C46.4453 42.6719 45.2318 42.1068 44.3359 40.9766C43.6328 40.0911 43.2812 38.9896 43.2812 37.6719C43.2812 35.9531 43.8802 34.6276 45.0781 33.6953C45.9167 33.0443 46.8932 32.7188 48.0078 32.7188ZM47.9688 33.9219C47.0156 33.9219 46.2292 34.3177 45.6094 35.1094C45.0729 35.7917 44.8047 36.6536 44.8047 37.6953C44.8047 38.4349 44.9427 39.0885 45.2188 39.6562C45.4792 40.2031 45.8464 40.6328 46.3203 40.9453C46.8203 41.2734 47.3776 41.4375 47.9922 41.4375C48.737 41.4375 49.3932 41.1953 49.9609 40.7109C50.763 40.0182 51.1641 39.0104 51.1641 37.6875C51.1641 36.5677 50.8542 35.6562 50.2344 34.9531C49.625 34.2656 48.8698 33.9219 47.9688 33.9219ZM56.2734 35.5703H56.3359C56.9974 33.6797 58.0208 32.7344 59.4062 32.7344C59.8385 32.7344 60.2396 32.8203 60.6094 32.9922L60.1562 34.3359C59.8854 34.2161 59.5677 34.1562 59.2031 34.1562C57.8802 34.1562 56.9505 35.2604 56.4141 37.4688V42.3984H54.9453V32.9609H56.3516L56.2734 35.5703ZM62.2109 28.7188H63.6641V37.0859L68.0312 32.9609H69.9375L66.1719 36.5469L70.3047 42.3984H68.4297L65.1875 37.4062L63.6641 38.7969V42.3984H62.2109V28.7188ZM77.7422 29.4375H87.0547V30.6094C86.0599 32.3646 85.1354 34.4167 84.2812 36.7656C83.599 38.6406 83.0677 40.5182 82.6875 42.3984H81.1484C81.5495 40.3411 82.2057 38.1823 83.1172 35.9219C84.0547 33.5938 84.8333 31.875 85.4531 30.7656H79.1328V33.6328H77.7422V29.4375ZM91.1797 31.3594H93.2578V33.4531H91.1797V31.3594ZM91.1797 38.3828H93.2578V40.4766H91.1797V38.3828ZM97.9141 29.4375H99.4219V41.0703H105.664V42.3984H97.9141V29.4375ZM107.508 29.2031H109.266V30.9453H107.508V29.2031ZM107.648 32.9609H109.117V42.3984H107.648V32.9609ZM113.594 32.9609V32.2266C113.594 31.2474 113.792 30.4766 114.188 29.9141C114.755 29.1172 115.581 28.7188 116.664 28.7188C117.435 28.7188 118.164 28.9271 118.852 29.3438L118.281 30.3672C117.797 30.0703 117.297 29.9219 116.781 29.9219C116.036 29.9219 115.518 30.263 115.227 30.9453C115.096 31.2578 115.031 31.6797 115.031 32.2109V32.9609H118.133V34.0781H115.031V42.3984H113.594V34.0781H111.18V32.9609H113.594ZM128.773 37.8359H121.5C121.521 38.8255 121.753 39.6146 122.195 40.2031C122.794 41 123.664 41.3984 124.805 41.3984C126.008 41.3984 127.018 40.8776 127.836 39.8359L128.742 40.7969C127.706 42.0417 126.37 42.6641 124.734 42.6641C123.104 42.6641 121.852 42.1094 120.977 41C120.299 40.1406 119.961 39.0625 119.961 37.7656C119.961 36.651 120.206 35.6797 120.695 34.8516C121.174 34.0495 121.826 33.4635 122.648 33.0938C123.221 32.8333 123.831 32.7031 124.477 32.7031C125.977 32.7031 127.13 33.3021 127.938 34.5C128.495 35.3281 128.773 36.3021 128.773 37.4219V37.8359ZM127.242 36.7188C127.18 35.9479 126.935 35.3177 126.508 34.8281C125.977 34.2135 125.289 33.9062 124.445 33.9062C123.831 33.9062 123.271 34.1016 122.766 34.4922C122.099 35.0026 121.698 35.7448 121.562 36.7188H127.242ZM139.227 34.9609H140.234C141.229 34.9609 142.029 34.8021 142.633 34.4844C142.768 34.4115 142.896 34.3255 143.016 34.2266C143.542 33.7839 143.805 33.2344 143.805 32.5781C143.805 31.8906 143.529 31.3516 142.977 30.9609C142.471 30.612 141.823 30.4375 141.031 30.4375C139.844 30.4375 138.753 30.9062 137.758 31.8438L136.844 30.8672C137.26 30.4609 137.734 30.1276 138.266 29.8672C139.161 29.4245 140.107 29.2031 141.102 29.2031C142.122 29.2031 143.005 29.4089 143.75 29.8203C144.844 30.4245 145.391 31.3021 145.391 32.4531C145.391 33.3281 145.07 34.0599 144.43 34.6484C143.935 35.112 143.221 35.4036 142.289 35.5234V35.5859C143.393 35.7005 144.25 36.026 144.859 36.5625C145.521 37.151 145.852 37.9375 145.852 38.9219C145.852 40.1615 145.362 41.1172 144.383 41.7891C143.539 42.3672 142.43 42.6562 141.055 42.6562C139.148 42.6562 137.602 42.0469 136.414 40.8281L137.344 39.8438C137.682 40.1979 138.06 40.487 138.477 40.7109C139.284 41.1536 140.143 41.375 141.055 41.375C142.081 41.375 142.885 41.1406 143.469 40.6719C143.99 40.25 144.25 39.6589 144.25 38.8984C144.25 37.0859 142.901 36.1797 140.203 36.1797H139.227V34.9609Z" fill="#4ECD2C"/>
<path d="M159.195 42.2988V34.0195C158.367 34.2969 157.586 34.502 156.851 34.6348L156.564 33.4453C157.803 33.1445 158.818 32.7969 159.611 32.4023H160.736V42.2988H159.195ZM168.792 32.3379C170.022 32.3379 170.976 32.8711 171.651 33.9375C172.218 34.8281 172.501 36.002 172.501 37.459C172.501 38.791 172.261 39.8887 171.78 40.752C171.112 41.959 170.11 42.5625 168.774 42.5625C167.575 42.5625 166.64 42.0625 165.968 41.0625C165.362 40.1641 165.06 38.9629 165.06 37.459C165.06 35.8965 165.384 34.6602 166.032 33.75C166.704 32.8086 167.624 32.3379 168.792 32.3379ZM168.774 33.5977C168.142 33.5977 167.642 33.9453 167.274 34.6406C166.919 35.3203 166.741 36.2598 166.741 37.459C166.741 38.5801 166.903 39.4746 167.227 40.1426C167.599 40.9004 168.118 41.2793 168.786 41.2793C169.372 41.2793 169.847 40.9746 170.21 40.3652C170.616 39.6816 170.819 38.7129 170.819 37.459C170.819 36.2676 170.644 35.332 170.292 34.6523C169.925 33.9492 169.419 33.5977 168.774 33.5977ZM175.137 40.3301H177.105V42.2988H175.137V40.3301ZM184.13 32.5195H185.952V38.8066H187.692V40.0547H185.952V42.2988H184.487V40.0547H179.618V38.8184L184.13 32.5195ZM184.487 38.8066V36.0234C184.487 35.3867 184.515 34.6621 184.569 33.8496H184.522C184.144 34.6543 183.819 35.2461 183.55 35.625L181.323 38.8066H184.487ZM198.297 32.5781H199.463L192.297 42.2988H191.137L198.297 32.5781ZM192.115 32.3379C192.869 32.3379 193.465 32.6289 193.902 33.2109C194.274 33.7109 194.459 34.334 194.459 35.0801C194.459 35.7559 194.307 36.3301 194.002 36.8027C193.565 37.4824 192.932 37.8223 192.104 37.8223C191.369 37.8223 190.785 37.5488 190.352 37.002C189.953 36.502 189.754 35.8633 189.754 35.0859C189.754 34.1641 190.024 33.4453 190.563 32.9297C190.977 32.5352 191.494 32.3379 192.115 32.3379ZM192.104 33.416C191.779 33.416 191.518 33.5645 191.318 33.8613C191.115 34.166 191.014 34.5742 191.014 35.0859C191.014 35.5117 191.09 35.8711 191.242 36.1641C191.441 36.5508 191.731 36.7441 192.109 36.7441C192.41 36.7441 192.658 36.6152 192.854 36.3574C193.084 36.0488 193.199 35.625 193.199 35.0859C193.199 34.5664 193.092 34.1523 192.877 33.8438C192.682 33.5586 192.424 33.416 192.104 33.416ZM198.496 37.0547C199.227 37.0547 199.809 37.3281 200.242 37.875C200.641 38.3789 200.84 39.0176 200.84 39.791C200.84 40.4785 200.684 41.0605 200.371 41.5371C199.934 42.2051 199.305 42.5391 198.484 42.5391C197.727 42.5391 197.131 42.248 196.697 41.666C196.326 41.166 196.141 40.543 196.141 39.7969C196.141 38.8906 196.402 38.1816 196.926 37.6699C197.344 37.2598 197.867 37.0547 198.496 37.0547ZM198.484 38.1328C198.184 38.1328 197.938 38.2617 197.746 38.5195C197.516 38.832 197.4 39.2578 197.4 39.7969C197.4 40.2227 197.475 40.582 197.623 40.875C197.822 41.2656 198.113 41.4609 198.496 41.4609C198.82 41.4609 199.08 41.3125 199.275 41.0156C199.479 40.707 199.58 40.3008 199.58 39.7969C199.58 39.2812 199.473 38.8691 199.258 38.5605C199.063 38.2754 198.805 38.1328 198.484 38.1328Z" fill="#4ECD2C"/>
<path d="M194.367 1.50781H202.734L203.508 2.44531C201.185 3.77344 198.953 5.07552 196.812 6.35156C198.755 6.28906 201.456 6.16667 204.914 5.98438L205.539 5.95312L205.633 7.17188L203.297 7.26562C201.953 7.32292 200.729 7.63281 199.625 8.19531C198.854 8.59115 198.268 9.0625 197.867 9.60938C197.518 10.0833 197.344 10.5833 197.344 11.1094C197.344 12.1042 197.893 12.7734 198.992 13.1172C199.82 13.3724 201.094 13.5026 202.812 13.5078V14.7656C200.677 14.7604 199.112 14.5391 198.117 14.1016C196.758 13.5026 196.078 12.5547 196.078 11.2578C196.078 10.2839 196.495 9.41146 197.328 8.64062C197.922 8.08854 198.721 7.64062 199.727 7.29688L199.047 7.32812C196.156 7.45312 193.951 7.5599 192.43 7.64844L192.336 6.44531H192.508L193.219 6.42969L193.938 6.42188L194.664 6.40625L194.914 6.39844C197.617 4.67969 199.76 3.41667 201.344 2.60938H194.367V1.50781ZM215.414 13.2969C216.659 12.9792 217.672 12.487 218.453 11.8203C219.5 10.9297 220.023 9.625 220.023 7.90625C220.023 6.77604 219.753 5.78125 219.211 4.92188C218.471 3.73438 217.253 3.01562 215.555 2.76562C215.195 6.19792 214.469 8.97396 213.375 11.0938C212.911 11.9948 212.458 12.6432 212.016 13.0391C211.542 13.4609 211.047 13.6719 210.531 13.6719C209.839 13.6719 209.214 13.3333 208.656 12.6562C208.354 12.2969 208.107 11.8438 207.914 11.2969C207.643 10.5469 207.508 9.73698 207.508 8.86719C207.508 7.3724 207.927 6.01302 208.766 4.78906C209.594 3.57031 210.659 2.70312 211.961 2.1875C212.846 1.83854 213.799 1.66406 214.82 1.66406C216.404 1.66406 217.766 2.0599 218.906 2.85156C219.896 3.54427 220.596 4.46615 221.008 5.61719C221.258 6.3151 221.383 7.0651 221.383 7.86719C221.383 11.2734 219.617 13.4505 216.086 14.3984L215.414 13.2969ZM214.375 2.73438C213.161 2.80729 212.128 3.16927 211.273 3.82031C209.977 4.80469 209.188 6.07812 208.906 7.64062C208.833 8.04167 208.797 8.4375 208.797 8.82812C208.797 10.0573 209.065 11.0182 209.602 11.7109C209.914 12.112 210.237 12.3125 210.57 12.3125C210.951 12.3125 211.331 12.0286 211.711 11.4609C212.331 10.5286 212.888 9.27083 213.383 7.6875C213.799 6.35417 214.13 4.70312 214.375 2.73438ZM229.961 6.49219V13.0391C229.961 13.4714 230.107 13.7318 230.398 13.8203C230.721 13.9193 231.648 13.9688 233.18 13.9688C234.815 13.9688 235.823 13.9115 236.203 13.7969C236.51 13.7083 236.695 13.4661 236.758 13.0703C236.826 12.6484 236.872 12.0677 236.898 11.3281L238.117 11.7422C238.086 12.7109 238.008 13.4193 237.883 13.8672C237.711 14.4974 237.247 14.8724 236.492 14.9922C235.846 15.0964 234.719 15.1484 233.109 15.1484C231.484 15.1484 230.438 15.1016 229.969 15.0078C229.411 14.8984 229.052 14.6432 228.891 14.2422C228.802 14.0182 228.758 13.7135 228.758 13.3281V6.89062L227.062 7.45312L226.742 6.35156L228.758 5.6875V1.46875H229.961V5.29688L232.125 4.58594V0.320312H233.328V4.1875L236.359 3.20312L237.078 3.58594V9.375C237.078 9.77083 236.979 10.0651 236.781 10.2578C236.573 10.4714 236.203 10.5781 235.672 10.5781C235.26 10.5781 234.841 10.5573 234.414 10.5156L234.211 9.375C234.674 9.44792 235.068 9.48438 235.391 9.48438C235.615 9.48438 235.753 9.43229 235.805 9.32812C235.852 9.24479 235.875 9.11719 235.875 8.94531V4.53125L233.328 5.375V11.7422H232.125V5.77344L229.961 6.49219ZM226.391 4.14844V15.5234H225.141V6.67188C225.125 6.69792 225.102 6.73698 225.07 6.78906C224.622 7.57552 224.086 8.36979 223.461 9.17188L222.852 7.95312C223.784 6.74479 224.565 5.39583 225.195 3.90625C225.638 2.85938 226.052 1.63281 226.438 0.226562L227.688 0.5625C227.26 1.95312 226.828 3.14844 226.391 4.14844Z" fill="#17A32F"/>
<path d="M247.785 14.2988V12.9746C248.156 11.8223 249.167 10.6953 250.82 9.59375L251.142 9.37695C251.853 8.9043 252.341 8.51758 252.607 8.2168C252.904 7.88086 253.052 7.51758 253.052 7.12695C253.052 6.77539 252.945 6.4707 252.73 6.21289C252.41 5.82617 251.931 5.63281 251.294 5.63281C250.345 5.63281 249.492 6.0293 248.734 6.82227L247.726 5.89648C247.992 5.57227 248.308 5.29883 248.675 5.07617C249.46 4.59961 250.335 4.36133 251.3 4.36133C252.05 4.36133 252.701 4.50391 253.251 4.78906C253.728 5.03906 254.095 5.37891 254.353 5.80859C254.591 6.21484 254.71 6.6543 254.71 7.12695C254.71 7.74805 254.474 8.32227 254.001 8.84961C253.685 9.20508 253.093 9.67773 252.226 10.2676L251.851 10.5195C250.933 11.1406 250.328 11.6016 250.035 11.9023C249.675 12.2695 249.437 12.5996 249.32 12.8926H254.804V14.2988H247.785ZM257.657 12.3301H259.625V14.2988H257.657V12.3301ZM265.232 14.2988V6.01953C264.404 6.29688 263.623 6.50195 262.888 6.63477L262.601 5.44531C263.839 5.14453 264.855 4.79688 265.648 4.40234H266.773V14.2988H265.232ZM279.258 4.57812H280.424L273.258 14.2988H272.098L279.258 4.57812ZM273.077 4.33789C273.831 4.33789 274.426 4.62891 274.864 5.21094C275.235 5.71094 275.42 6.33398 275.42 7.08008C275.42 7.75586 275.268 8.33008 274.963 8.80273C274.526 9.48242 273.893 9.82227 273.065 9.82227C272.331 9.82227 271.747 9.54883 271.313 9.00195C270.915 8.50195 270.715 7.86328 270.715 7.08594C270.715 6.16406 270.985 5.44531 271.524 4.92969C271.938 4.53516 272.456 4.33789 273.077 4.33789ZM273.065 5.41602C272.741 5.41602 272.479 5.56445 272.28 5.86133C272.077 6.16602 271.975 6.57422 271.975 7.08594C271.975 7.51172 272.051 7.87109 272.204 8.16406C272.403 8.55078 272.692 8.74414 273.071 8.74414C273.372 8.74414 273.62 8.61523 273.815 8.35742C274.045 8.04883 274.161 7.625 274.161 7.08594C274.161 6.56641 274.053 6.15234 273.838 5.84375C273.643 5.55859 273.385 5.41602 273.065 5.41602ZM279.458 9.05469C280.188 9.05469 280.77 9.32812 281.204 9.875C281.602 10.3789 281.801 11.0176 281.801 11.791C281.801 12.4785 281.645 13.0605 281.333 13.5371C280.895 14.2051 280.266 14.5391 279.446 14.5391C278.688 14.5391 278.092 14.248 277.659 13.666C277.288 13.166 277.102 12.543 277.102 11.7969C277.102 10.8906 277.364 10.1816 277.887 9.66992C278.305 9.25977 278.829 9.05469 279.458 9.05469ZM279.446 10.1328C279.145 10.1328 278.899 10.2617 278.708 10.5195C278.477 10.832 278.362 11.2578 278.362 11.7969C278.362 12.2227 278.436 12.582 278.585 12.875C278.784 13.2656 279.075 13.4609 279.458 13.4609C279.782 13.4609 280.042 13.3125 280.237 13.0156C280.44 12.707 280.542 12.3008 280.542 11.7969C280.542 11.2812 280.434 10.8691 280.219 10.5605C280.024 10.2754 279.766 10.1328 279.446 10.1328Z" fill="#17A32F"/>
</svg>
