<svg width="89" height="89" viewBox="0 0 89 89" fill="none" xmlns="http://www.w3.org/2000/svg">
<g clip-path="url(#clip0_1010_5523)">
<path d="M81.664 16.3092C81.664 14.7747 81.4114 13.2672 80.86 11.8549C80.4444 10.8009 79.8633 9.807 79.1108 8.92152C77.9809 7.59069 76.4735 6.52599 74.6754 5.82251C72.8773 5.11625 70.7942 4.75781 68.4393 4.75781V9.3806C70.1152 9.3806 71.4867 9.60883 72.5867 9.98083C74.2353 10.5458 75.2647 11.385 75.9656 12.4198C76.6609 13.4546 77.0356 14.7611 77.0412 16.3092C77.044 18.3246 76.3758 20.7173 75.0232 23.0586C74.1296 24.6149 72.8803 26.5515 71.4651 28.6374L70.3705 27.8987V27.8959C67.6164 31.9564 64.1887 36.6362 61.3205 40.5038C59.8864 42.4431 58.5935 44.1787 57.5804 45.5476C57.0753 46.2322 56.6379 46.8268 56.2875 47.3212C56.1083 47.5656 55.9534 47.7884 55.8149 47.9894C55.6763 48.1903 55.5595 48.3642 55.4373 48.5625C55.2852 48.8125 55.0109 49.1655 54.6441 49.5213C54.09 50.0592 53.3323 50.6105 52.4306 51.0043C51.5262 51.4008 50.4886 51.6561 49.2828 51.6561C47.6802 51.6561 46.3576 51.2026 45.2847 50.5669C44.7497 50.2464 44.288 49.8824 43.9212 49.5212C43.5518 49.1653 43.2801 48.8123 43.128 48.5623C43.0058 48.364 42.889 48.1902 42.7505 47.9892C42.4897 47.6117 42.1666 47.1608 41.7699 46.6149C40.3847 44.7192 38.1359 41.7232 35.6506 38.3499C33.1682 34.9738 30.4521 31.223 28.195 27.8957L27.1004 28.6373C25.6826 26.5486 24.4385 24.6175 23.5397 23.0584C22.1925 20.7171 21.5217 18.3244 21.5243 16.309C21.5243 15.2768 21.6954 14.3507 22.0105 13.5441C22.2467 12.9385 22.5673 12.4007 22.9775 11.9173C23.5941 11.1974 24.417 10.5864 25.5822 10.1274C26.7392 9.67106 28.2384 9.38042 30.1262 9.38042V4.75781C28.0293 4.75781 26.1527 5.04028 24.4985 5.60244C22.0187 6.43091 20.036 7.92739 18.7568 9.84228C17.4748 11.7544 16.9017 14.0114 16.9017 16.3092C16.9045 19.3159 17.8496 22.4313 19.5336 25.3672C20.5224 27.0838 21.8205 29.091 23.2737 31.2367L22.1791 31.9783C25.0501 36.2018 28.5157 40.9304 31.4056 44.8334C32.8506 46.7808 34.1434 48.5164 35.1375 49.8636C35.6319 50.5344 36.0555 51.1075 36.3732 51.553C36.5307 51.7731 36.6639 51.9577 36.7616 52.1072C36.8594 52.2511 36.93 52.3572 36.9408 52.3733C37.4487 53.199 38.087 53.9812 38.8529 54.7282C40.0017 55.8499 41.4549 56.8821 43.2122 57.6561C43.9673 57.9902 44.7848 58.2673 45.6485 58.479V72.3147C45.6485 73.5804 45.3714 74.7646 44.8609 75.87C44.1004 77.5242 42.7831 78.9935 41.072 80.0473C39.3636 81.1038 37.2749 81.7393 34.9908 81.7393C31.946 81.7393 29.2435 80.6095 27.337 78.8658C26.3837 77.9912 25.6312 76.9726 25.1206 75.87C24.6099 74.7646 24.333 73.5804 24.333 72.3147V72.2386C26.4596 71.6031 28.3664 70.4541 29.8901 68.9277C32.2775 66.5429 33.7606 63.2239 33.7578 59.5872C33.7606 55.9422 32.2775 52.6259 29.8901 50.2439C27.5054 47.8566 24.1919 46.3709 20.5497 46.3735C16.9047 46.3707 13.5911 47.8564 11.2036 50.2439C8.81887 52.6259 7.33594 55.9422 7.33594 59.5872C7.33594 63.224 8.81887 66.5431 11.2036 68.9277C12.8007 70.522 14.8187 71.7009 17.0675 72.3147C17.0648 74.6532 17.589 76.9076 18.5287 78.923C19.9303 81.9568 22.2415 84.4719 25.0935 86.2319C27.9455 87.9919 31.3567 89.005 34.991 89.005C39.8392 89.0022 44.2826 87.2097 47.5473 84.2301C49.1797 82.7362 50.5213 80.9437 51.4556 78.923C52.3927 76.9076 52.9168 74.6532 52.9142 72.3147V58.4763C54.4434 58.1015 55.823 57.5148 57.0101 56.8032C58.0477 56.1812 58.9467 55.4749 59.7098 54.728C60.4813 53.9811 61.114 53.1988 61.6219 52.3732C61.6355 52.3568 61.7035 52.251 61.8039 52.107C61.9913 51.8327 62.2929 51.4145 62.6649 50.8984C63.9904 49.0814 66.2583 46.0637 68.7652 42.6579C71.2776 39.2465 74.0289 35.4413 76.3838 31.9783L75.292 31.2367C76.7424 29.0937 78.0407 27.0784 79.0321 25.3672C80.7161 22.4313 81.6612 19.3159 81.664 16.3092ZM20.5498 68.8326C17.9859 68.8298 15.688 67.8004 14.0095 66.1247C12.3311 64.4434 11.2989 62.1428 11.2989 59.587C11.2989 57.0231 12.3311 54.7252 14.0095 53.0414C15.688 51.371 17.9859 50.3388 20.5498 50.3361C23.1084 50.3388 25.4088 51.3709 27.0847 53.0414C28.766 54.7254 29.7954 57.0231 29.798 59.587C29.7952 62.1428 28.7658 64.4434 27.0847 66.1245C25.4088 67.8004 23.1084 68.8298 20.5498 68.8326Z" fill="#65C0C8"/>
<path d="M40.4704 13.7818C41.1494 13.3066 41.5569 12.527 41.5569 11.6959V2.54002C41.5569 1.71156 41.1494 0.93211 40.4704 0.459471C39.7915 -0.0185561 38.9223 -0.12998 38.1427 0.155272L32.5938 2.19236V12.0489L38.1427 14.0806C38.9221 14.3685 39.7913 14.2543 40.4704 13.7818Z" fill="#65C0C8"/>
<path d="M58.1383 13.783C58.8173 14.2556 59.6892 14.3697 60.4687 14.0844L66.0176 12.0501V2.19352L60.4687 0.156424C59.6892 -0.131436 58.8173 -0.0174046 58.1383 0.460623C57.4594 0.935869 57.0547 1.71271 57.0547 2.54117V11.697C57.0545 12.5281 57.4594 13.3076 58.1383 13.783Z" fill="#65C0C8"/>
<path d="M20.5526 54.5781C17.7877 54.5781 15.5469 56.8189 15.5469 59.5839C15.5469 62.3434 17.7877 64.5814 20.5526 64.5814C23.3149 64.5814 25.5529 62.3434 25.5529 59.5839C25.5528 56.8189 23.3147 54.5781 20.5526 54.5781ZM22.6874 61.716C22.136 62.2646 21.3865 62.5987 20.5526 62.6015C19.7134 62.5987 18.9664 62.2646 18.4123 61.716C17.8663 61.1674 17.5322 60.4177 17.5296 59.5839C17.5323 58.7446 17.8664 57.9923 18.4123 57.4463C18.9664 56.8977 19.7132 56.5608 20.5526 56.5582C21.3865 56.561 22.136 56.8977 22.6874 57.4463C23.236 57.9923 23.5701 58.7446 23.5701 59.5839C23.5701 60.4177 23.236 61.1673 22.6874 61.716Z" fill="#65C0C8"/>
</g>
<defs>
<clipPath id="clip0_1010_5523">
<rect width="89" height="89" fill="white"/>
</clipPath>
</defs>
</svg>
