<svg width="254" height="178" viewBox="0 0 254 178" fill="none" xmlns="http://www.w3.org/2000/svg">
<ellipse cx="90.0176" cy="103.5" rx="74" ry="74.5" fill="#F4D45F"/>
<path d="M90.018 103.5H90.0213C90.018 103.5 69.4918 31.9027 69.4941 31.9027C76.011 30.0126 82.897 29 90.018 29C90.018 30.5 90.018 105 90.018 103.5Z" fill="#F59160"/>
<path d="M189.322 103.227V101.945H182.807V100.891H189.322V99.3203H190.557V100.891H197.174V101.945H190.557V103.227H196.072V109.352H190.557V110.742H197.588V111.828H190.557V114.516H189.322V111.828H182.393V110.742H189.322V109.352H183.916V103.227H189.322ZM189.322 104.234H185.15V105.734H189.322V104.234ZM190.557 104.234V105.734H194.822V104.234H190.557ZM189.322 106.727H185.15V108.344H189.322V106.727ZM190.557 106.727V108.344H194.822V106.727H190.557Z" fill="#E59D00"/>
<path d="M212.816 108.822C212.605 109.158 212.326 109.428 211.978 109.631C211.506 109.9 210.973 110.035 210.379 110.035C209.508 110.035 208.769 109.76 208.164 109.209C207.504 108.611 207.174 107.816 207.174 106.824C207.174 105.926 207.434 105.174 207.953 104.568C208.644 103.756 209.555 103.35 210.684 103.35C211.887 103.35 212.82 103.77 213.484 104.609C214.086 105.363 214.387 106.467 214.387 107.92C214.387 109.326 214.062 110.492 213.414 111.418C212.93 112.109 212.228 112.648 211.31 113.035C210.666 113.305 209.863 113.518 208.902 113.674L208.252 112.379C209.631 112.258 210.684 111.934 211.41 111.406C212.203 110.828 212.691 109.967 212.875 108.822H212.816ZM210.678 104.609C210.084 104.609 209.6 104.834 209.225 105.283C208.904 105.666 208.744 106.162 208.744 106.771C208.744 107.354 208.9 107.82 209.213 108.172C209.592 108.605 210.068 108.822 210.642 108.822C211.31 108.822 211.834 108.576 212.213 108.084C212.517 107.693 212.67 107.266 212.67 106.801C212.67 106.223 212.525 105.744 212.236 105.365C211.853 104.861 211.334 104.609 210.678 104.609ZM218.329 103.578H224.007V104.873H219.601L219.255 107.645H219.302C219.903 107.211 220.601 106.994 221.394 106.994C221.936 106.994 222.446 107.117 222.923 107.363C223.591 107.703 224.058 108.221 224.323 108.916C224.472 109.307 224.546 109.74 224.546 110.217C224.546 111.287 224.151 112.131 223.362 112.748C222.706 113.26 221.89 113.516 220.913 113.516C219.499 113.516 218.362 113.09 217.503 112.238L218.306 111.23C218.618 111.539 218.999 111.777 219.448 111.945C219.936 112.129 220.417 112.221 220.89 112.221C221.425 112.221 221.882 112.072 222.261 111.775C222.745 111.396 222.987 110.873 222.987 110.205C222.987 109.623 222.819 109.148 222.483 108.781C222.12 108.383 221.618 108.184 220.977 108.184C220.106 108.184 219.468 108.488 219.061 109.098L217.743 108.881L218.329 103.578ZM227.41 111.33H229.379V113.299H227.41V111.33ZM234.481 108.318C233.177 107.873 232.524 107.09 232.524 105.969C232.524 105.18 232.868 104.535 233.556 104.035C234.192 103.57 234.991 103.338 235.952 103.338C236.796 103.338 237.519 103.512 238.12 103.859C238.948 104.336 239.362 105.004 239.362 105.863C239.362 106.57 239.126 107.127 238.653 107.533C238.274 107.861 237.819 108.096 237.288 108.236V108.271C237.98 108.494 238.503 108.768 238.858 109.092C239.429 109.604 239.714 110.205 239.714 110.896C239.714 111.693 239.374 112.336 238.694 112.824C238.003 113.316 237.091 113.562 235.958 113.562C234.993 113.562 234.19 113.385 233.55 113.029C232.683 112.553 232.249 111.855 232.249 110.938C232.249 110.203 232.56 109.584 233.181 109.08C233.54 108.787 233.974 108.549 234.481 108.365V108.318ZM235.97 107.721C236.556 107.572 237.015 107.344 237.347 107.035C237.683 106.727 237.851 106.385 237.851 106.01C237.851 105.584 237.689 105.225 237.364 104.932C237.001 104.604 236.53 104.439 235.952 104.439C235.522 104.439 235.147 104.537 234.827 104.732C234.339 105.029 234.095 105.451 234.095 105.998C234.095 106.4 234.267 106.752 234.61 107.053C234.845 107.26 235.157 107.438 235.548 107.586C235.802 107.684 235.942 107.729 235.97 107.721ZM235.888 108.922C235.243 109.102 234.753 109.346 234.417 109.654C234.05 109.99 233.866 110.373 233.866 110.803C233.866 111.271 234.065 111.65 234.464 111.939C234.858 112.221 235.355 112.361 235.952 112.361C236.433 112.361 236.855 112.268 237.218 112.08C237.784 111.783 238.067 111.348 238.067 110.773C238.067 110.332 237.847 109.938 237.405 109.59C237.089 109.34 236.7 109.148 236.239 109.016C236.013 108.949 235.896 108.918 235.888 108.922ZM250.57 103.578H251.736L244.57 113.299H243.41L250.57 103.578ZM244.389 103.338C245.143 103.338 245.738 103.629 246.176 104.211C246.547 104.711 246.732 105.334 246.732 106.08C246.732 106.756 246.58 107.33 246.275 107.803C245.838 108.482 245.205 108.822 244.377 108.822C243.643 108.822 243.059 108.549 242.625 108.002C242.227 107.502 242.027 106.863 242.027 106.086C242.027 105.164 242.297 104.445 242.836 103.93C243.25 103.535 243.768 103.338 244.389 103.338ZM244.377 104.416C244.053 104.416 243.791 104.564 243.592 104.861C243.389 105.166 243.287 105.574 243.287 106.086C243.287 106.512 243.363 106.871 243.516 107.164C243.715 107.551 244.004 107.744 244.383 107.744C244.684 107.744 244.932 107.615 245.127 107.357C245.357 107.049 245.473 106.625 245.473 106.086C245.473 105.566 245.365 105.152 245.15 104.844C244.955 104.559 244.697 104.416 244.377 104.416ZM250.77 108.055C251.5 108.055 252.082 108.328 252.516 108.875C252.914 109.379 253.113 110.018 253.113 110.791C253.113 111.479 252.957 112.061 252.645 112.537C252.207 113.205 251.578 113.539 250.758 113.539C250 113.539 249.404 113.248 248.971 112.666C248.6 112.166 248.414 111.543 248.414 110.797C248.414 109.891 248.676 109.182 249.199 108.67C249.617 108.26 250.141 108.055 250.77 108.055ZM250.758 109.133C250.457 109.133 250.211 109.262 250.02 109.52C249.789 109.832 249.674 110.258 249.674 110.797C249.674 111.223 249.748 111.582 249.897 111.875C250.096 112.266 250.387 112.461 250.77 112.461C251.094 112.461 251.354 112.312 251.549 112.016C251.752 111.707 251.854 111.301 251.854 110.797C251.854 110.281 251.746 109.869 251.531 109.561C251.336 109.275 251.078 109.133 250.758 109.133Z" fill="#E59D00"/>
<circle cx="90.0176" cy="104" r="37" fill="#F9F9F9"/>
<path d="M6.20898 2.59375C6.64648 1.84375 7.00065 1.07552 7.27148 0.289062L8.63086 0.625C8.31315 1.32292 7.94857 1.97917 7.53711 2.59375H13.7871V15.5156H12.4902V14.3828H3.51367V15.5156H2.24805V2.59375H6.20898ZM3.51367 3.66406V6.07812H12.4902V3.66406H3.51367ZM3.51367 7.14844V9.57031H12.4902V7.14844H3.51367ZM3.51367 10.6406V13.3125H12.4902V10.6406H3.51367ZM19.8574 4.28906V3.02344H16.6309V1.95312H19.8574V0.320312H21.0059V1.95312H24.3027V3.02344H21.0059V4.28906H23.8418V10.2891H21.0059V11.6641H24.5293V12.7344H21.0059V15.5156H19.8574V12.7344H16.4043V11.6641H19.8574V10.2891H17.1074V4.28906H19.8574ZM19.8887 5.29688H18.1309V6.76562H19.8887V5.29688ZM20.9746 5.29688V6.76562H22.8184V5.29688H20.9746ZM19.8887 7.72656H18.1309V9.28125H19.8887V7.72656ZM20.9746 7.72656V9.28125H22.8184V7.72656H20.9746ZM27.8262 7.55469C27.3783 9.8099 26.8262 11.8255 26.1699 13.6016C27.248 13.4714 28.4512 13.276 29.7793 13.0156C29.3522 11.9167 28.9199 10.9661 28.4824 10.1641L29.5371 9.67969C30.3184 11.0182 31.0449 12.7214 31.7168 14.7891L30.584 15.3984C30.4329 14.9089 30.2819 14.4375 30.1309 13.9844C28.3965 14.4219 26.4928 14.7865 24.4199 15.0781L24.0059 13.8438C24.3132 13.8125 24.6257 13.7812 24.9434 13.75C24.9954 13.5938 25.0501 13.4297 25.1074 13.2578C25.6022 11.7995 26.0684 9.89844 26.5059 7.55469H24.3887V6.35156H31.6074V7.55469H27.8262ZM25.0605 1.48438H30.6934V2.6875H25.0605V1.48438ZM39.334 4.22656V2.94531H32.8184V1.89062H39.334V0.320312H40.5684V1.89062H47.1855V2.94531H40.5684V4.22656H46.084V10.3516H40.5684V11.7422H47.5996V12.8281H40.5684V15.5156H39.334V12.8281H32.4043V11.7422H39.334V10.3516H33.9277V4.22656H39.334ZM39.334 5.23438H35.1621V6.73438H39.334V5.23438ZM40.5684 5.23438V6.73438H44.834V5.23438H40.5684ZM39.334 7.72656H35.1621V9.34375H39.334V7.72656ZM40.5684 7.72656V9.34375H44.834V7.72656H40.5684Z" fill="#DC6B34"/>
<path d="M61.3784 3.51953H63.2006V9.80664H64.9409V11.0547H63.2006V13.2988H61.7358V11.0547H56.8666V9.81836L61.3784 3.51953ZM61.7358 9.80664V7.02344C61.7358 6.38672 61.7631 5.66211 61.8178 4.84961H61.7709C61.392 5.6543 61.0678 6.24609 60.7983 6.625L58.5717 9.80664H61.7358ZM67.3833 11.3301H69.352V13.2988H67.3833V11.3301ZM72.5093 13.2988V11.9746C72.8804 10.8223 73.8921 9.69531 75.5445 8.59375L75.8667 8.37695C76.5777 7.9043 77.0659 7.51758 77.3316 7.2168C77.6284 6.88086 77.7769 6.51758 77.7769 6.12695C77.7769 5.77539 77.6695 5.4707 77.4546 5.21289C77.1343 4.82617 76.6558 4.63281 76.0191 4.63281C75.0698 4.63281 74.2163 5.0293 73.4585 5.82227L72.4507 4.89648C72.7163 4.57227 73.0327 4.29883 73.3999 4.07617C74.1851 3.59961 75.0601 3.36133 76.0249 3.36133C76.7749 3.36133 77.4253 3.50391 77.9761 3.78906C78.4527 4.03906 78.8198 4.37891 79.0777 4.80859C79.3159 5.21484 79.4351 5.6543 79.4351 6.12695C79.4351 6.74805 79.1987 7.32227 78.7261 7.84961C78.4097 8.20508 77.8179 8.67773 76.9507 9.26758L76.5757 9.51953C75.6577 10.1406 75.0523 10.6016 74.7593 10.9023C74.3999 11.2695 74.1616 11.5996 74.0445 11.8926H79.5288V13.2988H72.5093ZM90.5435 3.57812H91.7095L84.5435 13.2988H83.3834L90.5435 3.57812ZM84.3619 3.33789C85.1158 3.33789 85.7115 3.62891 86.149 4.21094C86.5201 4.71094 86.7056 5.33398 86.7056 6.08008C86.7056 6.75586 86.5533 7.33008 86.2486 7.80273C85.8111 8.48242 85.1783 8.82227 84.3502 8.82227C83.6158 8.82227 83.0318 8.54883 82.5982 8.00195C82.1998 7.50195 82.0005 6.86328 82.0005 6.08594C82.0005 5.16406 82.2701 4.44531 82.8091 3.92969C83.2232 3.53516 83.7408 3.33789 84.3619 3.33789ZM84.3502 4.41602C84.0259 4.41602 83.7642 4.56445 83.565 4.86133C83.3619 5.16602 83.2603 5.57422 83.2603 6.08594C83.2603 6.51172 83.3365 6.87109 83.4888 7.16406C83.688 7.55078 83.9771 7.74414 84.356 7.74414C84.6568 7.74414 84.9048 7.61523 85.1002 7.35742C85.3306 7.04883 85.4459 6.625 85.4459 6.08594C85.4459 5.56641 85.3384 5.15234 85.1236 4.84375C84.9283 4.55859 84.6705 4.41602 84.3502 4.41602ZM90.7427 8.05469C91.4732 8.05469 92.0552 8.32812 92.4888 8.875C92.8873 9.37891 93.0865 10.0176 93.0865 10.791C93.0865 11.4785 92.9302 12.0605 92.6177 12.5371C92.1802 13.2051 91.5513 13.5391 90.731 13.5391C89.9732 13.5391 89.3775 13.248 88.9439 12.666C88.5728 12.166 88.3873 11.543 88.3873 10.7969C88.3873 9.89062 88.649 9.18164 89.1724 8.66992C89.5904 8.25977 90.1138 8.05469 90.7427 8.05469ZM90.731 9.13281C90.4302 9.13281 90.1841 9.26172 89.9927 9.51953C89.7623 9.83203 89.647 10.2578 89.647 10.7969C89.647 11.2227 89.7212 11.582 89.8697 11.875C90.0689 12.2656 90.3599 12.4609 90.7427 12.4609C91.067 12.4609 91.3267 12.3125 91.522 12.0156C91.7252 11.707 91.8267 11.3008 91.8267 10.7969C91.8267 10.2812 91.7193 9.86914 91.5045 9.56055C91.3091 9.27539 91.0513 9.13281 90.731 9.13281Z" fill="#DC6B34"/>
</svg>
