<svg width="86" height="86" viewBox="0 0 86 86" fill="none" xmlns="http://www.w3.org/2000/svg">
<g clip-path="url(#clip0_1010_5540)">
<path d="M19.3125 21.2872V39.9757C19.3125 41.3178 21.2331 42.4037 23.6016 42.4037C25.9699 42.4037 27.89 41.3178 27.89 39.9757V21.2872C27.89 19.9453 25.9701 18.8594 23.6016 18.8594C21.2331 18.8594 19.3125 19.9453 19.3125 21.2872Z" fill="#65C0C8"/>
<path d="M23.3974 17.624C28.4359 17.7306 30.4166 13.7217 30.3131 10.5963C30.2011 7.2502 29.0863 2.34266 21.8361 0C21.6122 3.90393 16.8158 5.57623 16.5928 10.7639C16.4633 13.7721 18.1547 17.5128 23.3974 17.624ZM23.2853 7.13901C26.2973 9.1464 26.6986 11.1844 26.752 12.7943C26.8022 14.2977 25.8497 16.226 23.4256 16.1756C20.9032 16.1208 20.0899 14.3219 20.1517 12.875C20.259 10.3801 22.9511 9.1464 23.2853 7.13901Z" fill="#65C0C8"/>
<path d="M38.5156 21.2872V39.9757C38.5156 41.3178 40.4355 42.4037 42.8047 42.4037C45.1732 42.4037 47.0924 41.3178 47.0924 39.9757V21.2872C47.0924 19.9453 45.1732 18.8594 42.8047 18.8594C40.4355 18.8594 38.5156 19.9453 38.5156 21.2872Z" fill="#65C0C8"/>
<path d="M42.5918 17.624C47.6304 17.7306 49.6119 13.7217 49.5076 10.5963C49.3964 7.2502 48.2808 2.34266 41.0307 0C40.8077 3.90393 36.0105 5.57623 35.7881 10.7639C35.6586 13.7721 37.3494 17.5128 42.5918 17.624ZM42.4806 7.13901C45.4926 9.1464 45.8933 11.1844 45.9473 12.7943C45.9967 14.2977 45.0442 16.226 42.62 16.1756C40.0977 16.1208 39.2844 14.3219 39.3467 12.875C39.4535 10.3801 42.1457 9.1464 42.4806 7.13901Z" fill="#65C0C8"/>
<path d="M30.1094 28.9119C32.0931 28.5952 34.1599 28.3469 36.2992 28.1794V24.4766C34.1722 24.6366 32.1023 24.8651 30.1094 25.1681V28.9119Z" fill="#65C0C8"/>
<path d="M49.3047 28.1513C51.4392 28.3067 53.5115 28.5383 55.4947 28.8428V25.1127C53.5002 24.8203 51.4295 24.6024 49.3047 24.4531V28.1513Z" fill="#65C0C8"/>
<path d="M81.5627 39.1309C81.5657 39.0335 81.5802 38.9374 81.5802 38.8384H81.4735C81.3418 38.4471 81.1918 38.0602 81.0091 37.6853C79.9467 35.5226 78.1244 33.6658 75.7809 32.0439C73.7438 30.6426 71.2854 29.4134 68.5013 28.3594V32.3241C68.5082 32.3271 68.5157 32.3288 68.5224 32.3318C71.7271 33.6722 74.2519 35.2594 75.8884 36.886C76.7086 37.6993 77.3064 38.5158 77.691 39.3047C77.9567 39.8515 78.119 40.3831 78.1974 40.9147C78.1417 41.0516 78.0893 41.1888 78.0222 41.3259C77.3146 42.7852 75.9226 44.2931 73.8929 45.6897C70.8557 47.7902 66.4327 49.6225 61.1239 50.8988C55.8127 52.1814 49.6152 52.9199 43.0018 52.9199C32.9263 52.923 23.8083 51.1942 17.3387 48.477C14.1036 47.1245 11.5404 45.5207 9.8565 43.8453C9.01195 43.0089 8.38812 42.1607 7.98146 41.3259C7.91461 41.1888 7.86204 41.0518 7.80627 40.9147C7.88555 40.3831 8.04781 39.8515 8.31354 39.3047C8.98138 37.9249 10.3263 36.455 12.3201 35.0827C13.6467 34.1657 15.2627 33.3005 17.0988 32.5057V28.5104C16.7464 28.6474 16.3945 28.7845 16.054 28.9278C12.544 30.4037 9.63562 32.1689 7.51703 34.2648C6.45984 35.3128 5.5995 36.4504 4.99548 37.6857C4.81273 38.0606 4.66257 38.4472 4.53004 38.8388H4.42422C4.42422 38.9379 4.438 39.0338 4.44169 39.1327C4.1978 39.9413 4.05402 40.7778 4.05469 41.6306V68.5971C4.05335 69.9694 4.39231 71.3083 4.99532 72.542C6.05688 74.7048 7.87934 76.5615 10.2233 78.1821C13.748 80.6084 18.503 82.5337 24.1021 83.8877C29.6995 85.2373 36.1409 86.0004 43.0018 86.0004C53.4595 85.9957 62.9311 84.2365 69.9505 81.2999C73.4604 79.824 76.3689 78.0571 78.4875 75.9629C79.5445 74.9151 80.4052 73.7773 81.0091 72.542C81.6122 71.3083 81.951 69.9694 81.9495 68.5971V41.6302C81.9502 40.7775 81.8063 39.9412 81.5627 39.1309ZM78.2574 68.5971C78.2561 69.3723 78.0753 70.131 77.691 70.9213C77.023 72.3029 75.6781 73.7712 73.6836 75.1434C70.7005 77.2089 66.3148 79.0303 61.0364 80.2992C55.7582 81.5724 49.588 82.3098 43.0019 82.3081C32.9692 82.3126 23.8906 80.5886 17.4813 77.894C14.2774 76.5551 11.7522 74.968 10.1163 73.3414C9.29616 72.5281 8.69836 71.7116 8.31371 70.9211C7.92822 70.1307 7.74866 69.3721 7.74698 68.597V62.5622C8.56952 63.4244 9.54038 64.2346 10.6433 64.9962C14.0587 67.3508 18.7409 69.2549 24.2751 70.5923C29.8093 71.9264 36.1958 72.685 43.0018 72.685C53.3742 72.6818 62.7682 70.9304 69.6648 68.0408C73.1139 66.5924 75.9453 64.862 77.9673 62.8607C78.0693 62.7602 78.16 62.6536 78.2574 62.5516V68.5971ZM78.2574 53.634C77.4884 55.1131 76.0869 56.5949 74.1032 57.9627C71.0119 60.0982 66.5515 61.9412 61.2099 63.2267C55.8675 64.5153 49.6433 65.2571 43.0016 65.2571C32.8835 65.2601 23.7265 63.5283 17.1954 60.7867C13.9307 59.419 11.3293 57.7969 9.59581 56.0757C8.7862 55.273 8.17412 54.452 7.74664 53.6311V45.9027C8.53123 46.6854 9.42835 47.4258 10.4335 48.1204C13.9032 50.5116 18.6218 52.4246 24.1879 53.7695C29.7542 55.1114 36.1681 55.8715 43.0014 55.8732C53.4167 55.87 62.8493 54.1139 69.8077 51.2018C73.2872 49.7381 76.157 47.9911 78.2275 45.9423C78.2374 45.9316 78.2467 45.921 78.2571 45.9104V53.634H78.2574Z" fill="#65C0C8"/>
<path d="M57.7109 21.2872V39.9757C57.7109 41.3178 59.6317 42.4037 62 42.4037C64.3685 42.4037 66.2883 41.3178 66.2883 39.9757V21.2872C66.2883 19.9453 64.3684 18.8594 62 18.8594C59.6317 18.8594 57.7109 19.9453 57.7109 21.2872Z" fill="#65C0C8"/>
<path d="M61.795 17.624C66.8335 17.7306 68.815 13.7217 68.7116 10.5963C68.5995 7.2502 67.4839 2.34266 60.2337 0C60.0106 3.90393 55.2144 5.57623 54.9912 10.7639C54.8617 13.7721 56.5525 17.5128 61.795 17.624ZM61.6838 7.13901C64.6958 9.1464 65.0972 11.1844 65.1505 12.7943C65.2007 14.2977 64.2473 16.226 61.8233 16.1756C59.3018 16.1208 58.4885 14.3219 58.55 12.875C58.6573 10.3801 61.3495 9.1464 61.6838 7.13901Z" fill="#65C0C8"/>
</g>
<defs>
<clipPath id="clip0_1010_5540">
<rect width="86" height="86" fill="white"/>
</clipPath>
</defs>
</svg>
