<svg width="613" height="232" viewBox="0 0 613 232" fill="none" xmlns="http://www.w3.org/2000/svg">
<path d="M50.9875 14.4219H63.2297L64.2375 15.2734C63.9458 16.362 63.5656 17.2708 63.0969 18C62.2167 19.3802 60.899 20.4115 59.1438 21.0938L58.1594 19.75C59.3729 19.3854 60.3807 18.7318 61.1828 17.7891C61.6568 17.2318 61.9875 16.6432 62.175 16.0234H50.9875V14.4219ZM55.9953 17.7969H57.7844V19.1406C57.7844 21.1562 57.5604 22.7135 57.1125 23.8125C56.5448 25.2083 55.4406 26.3438 53.8 27.2188L52.5109 25.8594C53.6411 25.3229 54.4667 24.6823 54.9875 23.9375C55.3885 23.3594 55.6516 22.7474 55.7766 22.1016C55.9224 21.362 55.9953 20.3698 55.9953 19.125V17.7969ZM68.0494 21.8125C67.6744 20.2083 67.1666 18.7266 66.5259 17.3672L68.0103 16.6406C68.6718 17.9948 69.2108 19.5156 69.6275 21.2031L68.0494 21.8125ZM71.6744 21.1094C71.3827 19.8333 70.9035 18.3568 70.2369 16.6797L71.7759 16.0391C72.3749 17.3568 72.8749 18.849 73.2759 20.5156L71.6744 21.1094ZM69.2447 25.9688C70.9843 25.5052 72.3124 24.8802 73.2291 24.0938C74.1457 23.3073 74.8436 22.1719 75.3228 20.6875C75.6978 19.5104 75.9713 17.9974 76.1431 16.1484L77.8072 16.6406C77.4947 19.0833 77.0598 20.9557 76.5025 22.2578C75.8254 23.8516 74.8098 25.0807 73.4556 25.9453C72.5963 26.4974 71.4973 26.987 70.1588 27.4141L69.2447 25.9688ZM82.1034 13.2656H83.9238V17.75C87.0331 18.7083 89.6086 19.6875 91.6503 20.6875L90.7753 22.375C88.817 21.3802 86.5331 20.4349 83.9238 19.5391V27.4766H82.1034V13.2656ZM99.8528 13.25H101.611V16.1328H107.501V17.7031H101.611V27.5078H99.8528V17.7031H94.0872V16.1328H99.8528V13.25ZM93.6263 25.2656C94.7773 23.7604 95.5507 21.7943 95.9466 19.3672L97.6575 19.8281C97.1783 22.6406 96.3528 24.8542 95.1809 26.4688L93.6263 25.2656ZM106.376 26.2578C105.204 24.4974 104.236 22.3073 103.47 19.6875L105.15 19.125C105.785 21.3021 106.723 23.3333 107.962 25.2188L106.376 26.2578ZM110.079 19.2656H123.837V21.0234H110.079V19.2656ZM125.68 24.6406C126.039 24.6354 126.534 24.6094 127.164 24.5625C128.648 21.2292 130.016 17.5599 131.266 13.5547L133.055 14.0234C131.826 17.8672 130.513 21.3385 129.117 24.4375C131.763 24.2448 134.109 24.0104 136.156 23.7344C135.385 22.375 134.602 21.1198 133.805 19.9688L135.344 18.9922C136.984 21.2526 138.424 23.6484 139.664 26.1797L137.906 27.0938C137.62 26.4896 137.305 25.8594 136.961 25.2031C133.919 25.7135 130.286 26.1667 126.062 26.5625L125.68 24.6406Z" fill="#333333"/>
<rect x="164" width="449" height="40" fill="#F4D45F"/>
<path d="M371.962 19.7656H373.048C373.964 19.7656 374.701 19.6016 375.258 19.2734C375.941 18.8724 376.282 18.3229 376.282 17.625C376.282 17.0469 376.032 16.5885 375.532 16.25C375.089 15.9531 374.537 15.8047 373.876 15.8047C372.678 15.8047 371.527 16.263 370.423 17.1797L369.29 15.7812C370.628 14.7083 372.204 14.1719 374.016 14.1719C375.23 14.1719 376.227 14.4219 377.008 14.9219C377.951 15.5312 378.423 16.3932 378.423 17.5078C378.423 18.362 378.097 19.0938 377.446 19.7031C376.941 20.1719 376.274 20.4661 375.446 20.5859V20.6484C376.519 20.8255 377.339 21.1797 377.907 21.7109C378.495 22.263 378.79 23 378.79 23.9219C378.79 25.2656 378.245 26.2708 377.157 26.9375C376.339 27.4375 375.266 27.6875 373.938 27.6875C371.844 27.6875 370.146 27.0469 368.844 25.7656L370.024 24.3594C370.441 24.8021 370.977 25.1667 371.633 25.4531C372.43 25.8021 373.204 25.9766 373.954 25.9766C374.798 25.9766 375.456 25.7995 375.93 25.4453C376.389 25.1068 376.618 24.5885 376.618 23.8906C376.618 22.9323 376.157 22.2526 375.235 21.8516C374.615 21.5807 373.87 21.4453 373.001 21.4453H371.962V19.7656ZM382.375 14.4375H392.219V16.0859C391.313 17.5443 390.419 19.4557 389.539 21.8203C388.753 23.9349 388.18 25.7943 387.82 27.3984H385.641C386.078 25.388 386.818 23.1875 387.859 20.7969C388.87 18.4844 389.596 16.9792 390.039 16.2812H384.313V18.9375H382.375V14.4375ZM405.796 14.4375H407.351L397.796 27.3984H396.249L405.796 14.4375ZM397.554 14.1172C398.559 14.1172 399.354 14.5052 399.937 15.2812C400.432 15.9479 400.679 16.7786 400.679 17.7734C400.679 18.6745 400.476 19.4401 400.07 20.0703C399.486 20.9766 398.643 21.4297 397.538 21.4297C396.559 21.4297 395.781 21.0651 395.203 20.3359C394.671 19.6693 394.406 18.8177 394.406 17.7812C394.406 16.5521 394.765 15.5938 395.484 14.9062C396.036 14.3802 396.726 14.1172 397.554 14.1172ZM397.538 15.5547C397.106 15.5547 396.757 15.7526 396.492 16.1484C396.221 16.5547 396.085 17.099 396.085 17.7812C396.085 18.349 396.187 18.8281 396.39 19.2188C396.656 19.7344 397.041 19.9922 397.546 19.9922C397.947 19.9922 398.278 19.8203 398.538 19.4766C398.846 19.0651 398.999 18.5 398.999 17.7812C398.999 17.0885 398.856 16.5365 398.57 16.125C398.309 15.7448 397.966 15.5547 397.538 15.5547ZM406.062 20.4062C407.036 20.4062 407.812 20.7708 408.39 21.5C408.921 22.1719 409.187 23.0234 409.187 24.0547C409.187 24.9714 408.979 25.7474 408.562 26.3828C407.979 27.2734 407.14 27.7188 406.046 27.7188C405.036 27.7188 404.242 27.3307 403.663 26.5547C403.169 25.888 402.921 25.0573 402.921 24.0625C402.921 22.8542 403.27 21.9089 403.968 21.2266C404.525 20.6797 405.223 20.4062 406.062 20.4062ZM406.046 21.8438C405.645 21.8438 405.317 22.0156 405.062 22.3594C404.755 22.776 404.601 23.3438 404.601 24.0625C404.601 24.6302 404.7 25.1094 404.898 25.5C405.163 26.0208 405.551 26.2812 406.062 26.2812C406.494 26.2812 406.841 26.0833 407.101 25.6875C407.372 25.276 407.507 24.7344 407.507 24.0625C407.507 23.375 407.364 22.8255 407.078 22.4141C406.817 22.0339 406.473 21.8438 406.046 21.8438Z" fill="white"/>
<path d="M67.4947 70.1328H71.8306V76.0234H70.1041V75.2188H63.4322V76.0234H61.7369V70.1328H65.7681V68.4688H61.0963C61.065 69.9219 60.9582 71.151 60.7759 72.1562C60.5572 73.3906 60.1405 74.6484 59.5259 75.9297L58.0884 74.7031C58.6353 73.651 58.9947 72.4792 59.1666 71.1875C59.302 70.2031 59.3697 68.9557 59.3697 67.4453V61.3516H72.1041V65.4766H67.4947V67.1406H73.3541V68.4688H67.4947V70.1328ZM70.1041 71.4141H63.4322V73.8906H70.1041V71.4141ZM70.3463 62.6641H61.1119V64.1953H70.3463V62.6641ZM65.7681 65.4766H61.1119V67.1406H65.7681V65.4766ZM74.5488 72.8672C75.4081 71.3047 76.054 69.2031 76.4863 66.5625L78.2441 66.9141C77.8066 69.8568 77.1399 72.1771 76.2441 73.875L74.5488 72.8672ZM79.2988 64.6953H81.0878V73.0156C81.0878 73.375 81.1894 73.5833 81.3925 73.6406C81.6008 73.6979 82.0748 73.7266 82.8144 73.7266C83.4967 73.7266 83.9368 73.6745 84.1347 73.5703C84.3586 73.4609 84.4915 73.2057 84.5331 72.8047C84.5748 72.4349 84.6113 71.599 84.6425 70.2969L86.4941 70.8906C86.4055 72.5052 86.3118 73.5234 86.2128 73.9453C86.0305 74.6745 85.6165 75.1224 84.9706 75.2891C84.5279 75.3984 83.6659 75.4531 82.3847 75.4531C81.4472 75.4531 80.8092 75.4219 80.4706 75.3594C79.9185 75.2656 79.567 75.0156 79.4159 74.6094C79.3378 74.3958 79.2988 74.099 79.2988 73.7188V64.6953ZM84.1034 64.9609C82.843 63.9453 81.2805 63.0391 79.4159 62.2422L80.5331 60.8672C82.1946 61.513 83.7675 62.3828 85.2519 63.4766L84.1034 64.9609ZM88.3534 73.1094C87.4055 70.4531 86.4576 68.3516 85.5097 66.8047L87.1113 66.0391C88.3144 67.9141 89.3014 69.9245 90.0722 72.0703L88.3534 73.1094ZM99.22 67.1484V73.3359C99.22 73.737 99.3919 73.9792 99.7356 74.0625C100.09 74.151 100.9 74.1953 102.165 74.1953C103.4 74.1953 104.215 74.1328 104.611 74.0078C104.835 73.9349 104.98 73.7318 105.048 73.3984C105.137 72.9297 105.184 72.375 105.189 71.7344L106.822 72.1953C106.738 73.7318 106.527 74.7135 106.189 75.1406C105.965 75.4219 105.626 75.5885 105.173 75.6406C104.46 75.7188 103.249 75.7578 101.54 75.7578C100.217 75.7578 99.3502 75.7214 98.9388 75.6484C98.319 75.5443 97.9257 75.2708 97.7591 74.8281C97.6757 74.5938 97.6341 74.2812 97.6341 73.8906V67.6953L96.1419 68.2109L95.7747 66.6953L97.6341 66.0547V61.8438H99.22V65.5078L100.9 64.9375V60.8203H102.47V64.3906L105.087 63.4922L105.908 63.9922V69.8438C105.908 70.25 105.811 70.5521 105.618 70.75C105.4 70.9688 105.033 71.0781 104.517 71.0781C104.095 71.0781 103.647 71.0417 103.173 70.9688L102.915 69.4766C103.223 69.5547 103.535 69.5938 103.853 69.5938C104.082 69.5938 104.223 69.5469 104.275 69.4531C104.327 69.375 104.353 69.2448 104.353 69.0625V65.3672L102.47 66.0234V72.3438H100.9V66.5625L99.22 67.1484ZM93.4778 64.5938V60.8203H95.1575V64.5938H96.6731V66.1797H95.1575V71.1484C95.7044 70.9609 96.246 70.7656 96.7825 70.5625L96.9309 72.0703C95.2434 72.8411 93.5117 73.487 91.7356 74.0078L91.1888 72.3438C91.9908 72.1354 92.694 71.9375 93.2981 71.75C93.371 71.724 93.4309 71.7057 93.4778 71.6953V66.1797H91.4934V64.5938H93.4778ZM114.696 61.1719H116.407V64.2109H121.555V65.7656H116.407V69.9609C118.261 70.6432 120.12 71.612 121.985 72.8672L121.04 74.5C119.462 73.3177 117.917 72.375 116.407 71.6719C116.37 73.0521 116.008 74.0286 115.321 74.6016C114.732 75.0859 113.881 75.3281 112.766 75.3281C111.813 75.3281 111.011 75.1562 110.36 74.8125C109.313 74.2604 108.79 73.4583 108.79 72.4062C108.79 71.3229 109.352 70.5156 110.477 69.9844C111.227 69.6302 112.206 69.4531 113.415 69.4531C113.795 69.4531 114.222 69.4818 114.696 69.5391V61.1719ZM114.696 71.0938C114.144 70.974 113.613 70.9141 113.102 70.9141C112.415 70.9141 111.844 71.0208 111.391 71.2344C110.829 71.4896 110.548 71.8464 110.548 72.3047C110.548 72.7734 110.766 73.1484 111.204 73.4297C111.6 73.6849 112.102 73.8125 112.712 73.8125C113.639 73.8125 114.23 73.5026 114.485 72.8828C114.626 72.5391 114.696 72.0286 114.696 71.3516V71.0938ZM132.062 71.0234C131.099 73.8568 130.018 75.2734 128.82 75.2734C127.966 75.2734 127.234 74.6745 126.625 73.4766C126.156 72.5495 125.833 71.5286 125.656 70.4141C125.443 69.0599 125.336 67.3203 125.336 65.1953C125.336 64.2734 125.37 63.2839 125.438 62.2266L127.273 62.3672C127.206 63.4245 127.172 64.4297 127.172 65.3828C127.172 68.7266 127.484 71.0573 128.109 72.375C128.365 72.9167 128.604 73.1875 128.828 73.1875C128.974 73.1875 129.156 73.0208 129.375 72.6875C129.823 72.0104 130.255 71.0781 130.672 69.8906L132.062 71.0234ZM137.008 72.8828C136.742 70.6849 136.417 68.9089 136.031 67.5547C135.562 65.9141 135.018 64.4115 134.398 63.0469L136.062 62.6406C136.922 64.3438 137.56 65.9844 137.977 67.5625C138.32 68.8438 138.604 70.474 138.828 72.4531L137.008 72.8828Z" fill="#333333"/>
<rect x="164" y="48" width="220" height="40" fill="#F59160"/>
<path d="M250.04 75.3984V64.3594C248.936 64.7292 247.894 65.0026 246.915 65.1797L246.532 63.5938C248.184 63.1927 249.538 62.7292 250.595 62.2031H252.095V75.3984H250.04ZM264.633 69.4297C264.352 69.8776 263.98 70.237 263.516 70.5078C262.886 70.8672 262.175 71.0469 261.383 71.0469C260.222 71.0469 259.238 70.6797 258.43 69.9453C257.55 69.1484 257.11 68.0885 257.11 66.7656C257.11 65.5677 257.456 64.5651 258.149 63.7578C259.071 62.6745 260.284 62.1328 261.79 62.1328C263.394 62.1328 264.639 62.6927 265.524 63.8125C266.326 64.8177 266.727 66.2891 266.727 68.2266C266.727 70.1016 266.295 71.6562 265.43 72.8906C264.784 73.8125 263.85 74.5312 262.626 75.0469C261.766 75.4062 260.696 75.6901 259.415 75.8984L258.547 74.1719C260.386 74.0104 261.79 73.5781 262.758 72.875C263.816 72.1042 264.467 70.9557 264.712 69.4297H264.633ZM261.782 63.8125C260.99 63.8125 260.344 64.112 259.844 64.7109C259.417 65.2214 259.204 65.8828 259.204 66.6953C259.204 67.4714 259.412 68.0938 259.829 68.5625C260.334 69.1406 260.969 69.4297 261.735 69.4297C262.626 69.4297 263.324 69.1016 263.829 68.4453C264.235 67.9245 264.438 67.3542 264.438 66.7344C264.438 65.9635 264.245 65.3255 263.86 64.8203C263.35 64.1484 262.657 63.8125 261.782 63.8125ZM270.016 72.7734H272.641V75.3984H270.016V72.7734ZM278.257 68.6641C278.976 67.5755 280.046 67.0312 281.468 67.0312C282.619 67.0312 283.604 67.3932 284.421 68.1172C285.317 68.9141 285.765 69.9297 285.765 71.1641C285.765 72.4297 285.364 73.4844 284.562 74.3281C283.713 75.224 282.585 75.6719 281.179 75.6719C279.533 75.6719 278.231 75.0625 277.273 73.8438C276.502 72.8594 276.117 71.4766 276.117 69.6953C276.117 68.4557 276.471 67.224 277.179 66C278.367 63.9323 280.359 62.5703 283.156 61.9141L283.89 63.4453C282.077 63.9714 280.773 64.6276 279.976 65.4141C278.966 66.4089 278.372 67.4922 278.195 68.6641H278.257ZM281.093 68.5391C280.301 68.5391 279.627 68.8542 279.07 69.4844C278.627 69.9792 278.406 70.513 278.406 71.0859C278.406 71.7005 278.58 72.263 278.929 72.7734C279.492 73.5964 280.226 74.0078 281.132 74.0078C281.924 74.0078 282.575 73.7057 283.085 73.1016C283.497 72.6068 283.702 71.9818 283.702 71.2266C283.702 70.3724 283.45 69.7083 282.945 69.2344C282.45 68.7708 281.833 68.5391 281.093 68.5391ZM299.616 62.4375H301.171L291.616 75.3984H290.069L299.616 62.4375ZM291.374 62.1172C292.379 62.1172 293.173 62.5052 293.757 63.2812C294.251 63.9479 294.499 64.7786 294.499 65.7734C294.499 66.6745 294.296 67.4401 293.889 68.0703C293.306 68.9766 292.462 69.4297 291.358 69.4297C290.379 69.4297 289.6 69.0651 289.022 68.3359C288.491 67.6693 288.225 66.8177 288.225 65.7812C288.225 64.5521 288.585 63.5938 289.303 62.9062C289.856 62.3802 290.546 62.1172 291.374 62.1172ZM291.358 63.5547C290.926 63.5547 290.577 63.7526 290.311 64.1484C290.04 64.5547 289.905 65.099 289.905 65.7812C289.905 66.349 290.007 66.8281 290.21 67.2188C290.475 67.7344 290.861 67.9922 291.366 67.9922C291.767 67.9922 292.098 67.8203 292.358 67.4766C292.665 67.0651 292.819 66.5 292.819 65.7812C292.819 65.0885 292.676 64.5365 292.389 64.125C292.129 63.7448 291.785 63.5547 291.358 63.5547ZM299.882 68.4062C300.856 68.4062 301.632 68.7708 302.21 69.5C302.741 70.1719 303.007 71.0234 303.007 72.0547C303.007 72.9714 302.798 73.7474 302.382 74.3828C301.798 75.2734 300.96 75.7188 299.866 75.7188C298.856 75.7188 298.061 75.3307 297.483 74.5547C296.988 73.888 296.741 73.0573 296.741 72.0625C296.741 70.8542 297.09 69.9089 297.788 69.2266C298.345 68.6797 299.043 68.4062 299.882 68.4062ZM299.866 69.8438C299.465 69.8438 299.137 70.0156 298.882 70.3594C298.574 70.776 298.421 71.3438 298.421 72.0625C298.421 72.6302 298.52 73.1094 298.717 73.5C298.983 74.0208 299.371 74.2812 299.882 74.2812C300.314 74.2812 300.66 74.0833 300.921 73.6875C301.191 73.276 301.327 72.7344 301.327 72.0625C301.327 71.375 301.184 70.8255 300.897 70.4141C300.637 70.0339 300.293 69.8438 299.866 69.8438Z" fill="white"/>
<path d="M100.712 118.414C100.634 119.513 100.423 120.469 100.079 121.281C99.6575 122.281 98.8867 123.227 97.7669 124.117L96.5013 122.852C97.246 122.341 97.8059 121.768 98.1809 121.133C98.7903 120.102 99.095 118.721 99.095 116.992V109.398H105.876V122.375C105.876 122.943 105.728 123.344 105.431 123.578C105.191 123.766 104.798 123.859 104.251 123.859C103.486 123.859 102.733 123.828 101.993 123.766L101.704 122.086C102.408 122.201 103.059 122.258 103.658 122.258C103.902 122.258 104.056 122.198 104.118 122.078C104.16 121.995 104.181 121.867 104.181 121.695V118.414H100.712ZM100.775 116.977H104.181V114.609H100.775V116.82C100.775 116.904 100.775 116.956 100.775 116.977ZM100.775 113.188H104.181V110.922H100.775V113.188ZM97.8841 109.445V120.438H93.7513V122.008H92.0559V109.445H97.8841ZM93.7513 110.914V114.133H96.2669V110.914H93.7513ZM93.7513 115.508V118.93H96.2669V115.508H93.7513ZM110.313 109.688H119.079L119.915 110.984C117.206 112.641 114.86 114.146 112.876 115.5C114.157 114.964 115.443 114.695 116.735 114.695C117.896 114.695 118.865 114.88 119.641 115.25C120.36 115.594 120.92 116.062 121.321 116.656C121.738 117.286 121.946 118.01 121.946 118.828C121.946 119.974 121.555 120.932 120.774 121.703C120.238 122.24 119.55 122.646 118.712 122.922C117.613 123.281 116.409 123.461 115.102 123.461C113.597 123.461 112.488 123.182 111.774 122.625C111.217 122.188 110.938 121.596 110.938 120.852C110.938 120.289 111.141 119.789 111.548 119.352C112.162 118.69 112.993 118.359 114.04 118.359C115.149 118.359 116.037 118.732 116.704 119.477C117.188 120.018 117.537 120.745 117.751 121.656C119.355 121.146 120.157 120.203 120.157 118.828C120.157 117.786 119.722 117.018 118.852 116.523C118.269 116.19 117.529 116.023 116.633 116.023C115.295 116.023 114.087 116.208 113.008 116.578C112.212 116.849 111.141 117.503 109.798 118.539L108.696 117.211C110.144 115.961 111.792 114.693 113.641 113.406C114.917 112.521 116.042 111.794 117.016 111.227H110.313V109.688ZM116.235 121.961C115.865 120.487 115.139 119.75 114.055 119.75C113.456 119.75 113.024 119.94 112.758 120.32C112.633 120.492 112.571 120.677 112.571 120.875C112.571 121.286 112.863 121.596 113.446 121.805C113.868 121.951 114.433 122.023 115.141 122.023C115.443 122.023 115.808 122.003 116.235 121.961ZM132.062 119.023C131.099 121.857 130.018 123.273 128.82 123.273C127.966 123.273 127.234 122.674 126.625 121.477C126.156 120.549 125.833 119.529 125.656 118.414C125.443 117.06 125.336 115.32 125.336 113.195C125.336 112.273 125.37 111.284 125.438 110.227L127.273 110.367C127.206 111.424 127.172 112.43 127.172 113.383C127.172 116.727 127.484 119.057 128.109 120.375C128.365 120.917 128.604 121.188 128.828 121.188C128.974 121.188 129.156 121.021 129.375 120.688C129.823 120.01 130.255 119.078 130.672 117.891L132.062 119.023ZM137.008 120.883C136.742 118.685 136.417 116.909 136.031 115.555C135.562 113.914 135.018 112.411 134.398 111.047L136.062 110.641C136.922 112.344 137.56 113.984 137.977 115.562C138.32 116.844 138.604 118.474 138.828 120.453L137.008 120.883Z" fill="#333333"/>
<rect x="164" y="96" width="144" height="40" fill="#6091F5"/>
<path d="M220.899 123.398V112.359C219.795 112.729 218.753 113.003 217.774 113.18L217.391 111.594C219.042 111.193 220.396 110.729 221.454 110.203H222.954V123.398H220.899ZM230.719 115.766H231.805C232.721 115.766 233.458 115.602 234.016 115.273C234.698 114.872 235.039 114.323 235.039 113.625C235.039 113.047 234.789 112.589 234.289 112.25C233.846 111.953 233.294 111.805 232.633 111.805C231.435 111.805 230.284 112.263 229.18 113.18L228.047 111.781C229.385 110.708 230.961 110.172 232.773 110.172C233.987 110.172 234.984 110.422 235.766 110.922C236.708 111.531 237.18 112.393 237.18 113.508C237.18 114.362 236.854 115.094 236.203 115.703C235.698 116.172 235.031 116.466 234.203 116.586V116.648C235.276 116.826 236.096 117.18 236.664 117.711C237.253 118.263 237.547 119 237.547 119.922C237.547 121.266 237.003 122.271 235.914 122.938C235.096 123.438 234.023 123.688 232.695 123.688C230.602 123.688 228.904 123.047 227.602 121.766L228.781 120.359C229.198 120.802 229.734 121.167 230.391 121.453C231.188 121.802 231.961 121.977 232.711 121.977C233.555 121.977 234.214 121.799 234.688 121.445C235.146 121.107 235.375 120.589 235.375 119.891C235.375 118.932 234.914 118.253 233.992 117.852C233.372 117.581 232.628 117.445 231.758 117.445H230.719V115.766ZM251.757 110.438H253.312L243.757 123.398H242.21L251.757 110.438ZM243.515 110.117C244.52 110.117 245.314 110.505 245.898 111.281C246.393 111.948 246.64 112.779 246.64 113.773C246.64 114.674 246.437 115.44 246.031 116.07C245.447 116.977 244.604 117.43 243.499 117.43C242.52 117.43 241.742 117.065 241.163 116.336C240.632 115.669 240.367 114.818 240.367 113.781C240.367 112.552 240.726 111.594 241.445 110.906C241.997 110.38 242.687 110.117 243.515 110.117ZM243.499 111.555C243.067 111.555 242.718 111.753 242.453 112.148C242.182 112.555 242.046 113.099 242.046 113.781C242.046 114.349 242.148 114.828 242.351 115.219C242.617 115.734 243.002 115.992 243.507 115.992C243.908 115.992 244.239 115.82 244.499 115.477C244.807 115.065 244.96 114.5 244.96 113.781C244.96 113.089 244.817 112.536 244.531 112.125C244.27 111.745 243.926 111.555 243.499 111.555ZM252.023 116.406C252.997 116.406 253.773 116.771 254.351 117.5C254.882 118.172 255.148 119.023 255.148 120.055C255.148 120.971 254.939 121.747 254.523 122.383C253.939 123.273 253.101 123.719 252.007 123.719C250.997 123.719 250.203 123.331 249.624 122.555C249.13 121.888 248.882 121.057 248.882 120.062C248.882 118.854 249.231 117.909 249.929 117.227C250.486 116.68 251.184 116.406 252.023 116.406ZM252.007 117.844C251.606 117.844 251.278 118.016 251.023 118.359C250.716 118.776 250.562 119.344 250.562 120.062C250.562 120.63 250.661 121.109 250.859 121.5C251.124 122.021 251.512 122.281 252.023 122.281C252.455 122.281 252.801 122.083 253.062 121.688C253.333 121.276 253.468 120.734 253.468 120.062C253.468 119.375 253.325 118.826 253.038 118.414C252.778 118.034 252.434 117.844 252.007 117.844Z" fill="white"/>
<path d="M49.925 168.281V172.023H48.1984V168.359L45.6516 168.453C44.7089 168.49 43.5839 168.521 42.2766 168.547L41.7688 167.109L43.3625 167.102L44.0578 167.094L46.4484 167.078C46.3911 167.036 46.313 166.982 46.2141 166.914C45.4016 166.32 44.6073 165.805 43.8313 165.367L44.9641 164.391C45.3339 164.62 45.5969 164.789 45.7531 164.898C46.1333 164.607 46.5318 164.25 46.9484 163.828H42.1359V157.188H48.9875V158.305H46.7453V159.156H48.9875V161.875H46.7453V162.789H49.2453V163.828H47.7375L48.5188 164.344C47.9458 164.812 47.3547 165.234 46.7453 165.609C47.2974 166.021 47.7531 166.378 48.1125 166.68C49.274 165.862 50.4016 164.992 51.4953 164.07L52.7375 165.016C51.9927 165.604 50.9797 166.273 49.6984 167.023H49.9406C50.899 167.003 51.912 166.966 52.9797 166.914L53.3469 166.891C53.0656 166.62 52.7505 166.352 52.4016 166.086L53.6203 165.336C54.6359 166.034 55.6021 166.904 56.5188 167.945L55.1906 168.852C54.8573 168.456 54.5917 168.156 54.3938 167.953C54.3313 167.958 54.2505 167.966 54.1516 167.977C53.1047 168.086 51.8286 168.182 50.3234 168.266L49.925 168.281ZM45.3313 158.305H43.675V159.156H45.3313V158.305ZM47.4797 160.117H43.675V160.914H47.4797V160.117ZM45.3313 161.875H43.675V162.789H45.3313V161.875ZM53.8938 161.43C53.9302 161.456 53.9693 161.482 54.0109 161.508C54.7193 161.997 55.6307 162.44 56.7453 162.836L55.8156 164.18C54.774 163.758 53.7896 163.182 52.8625 162.453C52.1073 163.068 51.274 163.596 50.3625 164.039L49.3234 162.82C50.2453 162.492 51.076 162.036 51.8156 161.453C50.9563 160.49 50.3443 159.495 49.9797 158.469H49.4953V157.156H55.2375L56.0422 157.812C55.4641 159.234 54.7479 160.44 53.8938 161.43ZM52.8078 160.516C53.3495 159.911 53.7818 159.229 54.1047 158.469H51.4484C51.7974 159.266 52.2505 159.948 52.8078 160.516ZM41.7688 170.641C43.1698 170.141 44.326 169.464 45.2375 168.609L46.6672 169.492C45.4536 170.607 44.2219 171.445 42.9719 172.008L41.7688 170.641ZM55.3859 171.812C54.2714 170.958 53.0135 170.148 51.6125 169.383L52.7766 168.359C54.2349 169.01 55.5214 169.724 56.6359 170.5L55.3859 171.812ZM63.6119 164.422C63.5442 167.781 63.3879 169.893 63.1431 170.758C63.0025 171.247 62.7525 171.583 62.3931 171.766C62.1171 171.901 61.7108 171.969 61.1744 171.969C60.5338 171.969 59.9192 171.917 59.3306 171.812L59.1041 170.164C59.8332 170.346 60.4192 170.438 60.8619 170.438C61.2108 170.438 61.44 170.307 61.5494 170.047C61.7473 169.578 61.8983 168.188 62.0025 165.875H59.9009C59.8645 166.135 59.8072 166.487 59.7291 166.93L58.2134 166.703C58.5259 164.271 58.7108 162.326 58.7681 160.867H61.8306V158.906H58.3384V157.398H63.3384V162.32H60.2291C60.2186 162.508 60.2082 162.724 60.1978 162.969C60.1874 163.156 60.1561 163.529 60.1041 164.086L60.0728 164.422H63.6119ZM70.8775 168.438C71.5285 169.214 72.4244 169.857 73.565 170.367L72.6197 171.891C71.5884 171.339 70.7629 170.729 70.1431 170.062C68.8723 168.688 68.1249 167.12 67.9009 165.359H66.7134V169.844L66.9791 169.766C67.677 169.562 68.3879 169.331 69.1119 169.07L69.3228 170.398C67.6405 171.107 65.9713 171.651 64.315 172.031L63.8775 170.477C64.341 170.398 64.7473 170.32 65.0963 170.242V165.359H63.8306V163.984H65.0963V157.383H72.4713V158.742H66.7134V159.633H71.9634V160.883H66.7134V161.766H71.9634V163.016H66.7134V163.984H73.3697V165.359H71.8775L73.0806 166.305C72.466 167.049 71.7317 167.76 70.8775 168.438ZM70.0963 167.312C70.6483 166.771 71.2108 166.12 71.7838 165.359H69.4088C69.5233 166.01 69.7525 166.661 70.0963 167.312ZM87.1972 158.5C86.7336 158.047 86.2988 157.664 85.8925 157.352L87.1425 156.727C87.6425 157.07 88.1477 157.49 88.6581 157.984L87.705 158.5H89.33V159.812H85.33C85.5123 161.115 85.7727 162.159 86.1113 162.945C86.7571 162.19 87.356 161.344 87.9081 160.406L89.205 161.109C88.5227 162.219 87.7415 163.273 86.8613 164.273C87.1113 164.591 87.3717 164.854 87.6425 165.062C87.8352 165.203 87.9732 165.273 88.0566 165.273C88.2076 165.273 88.3508 164.812 88.4863 163.891C88.5071 163.771 88.5279 163.646 88.5488 163.516L89.9081 164.281C89.7258 165.271 89.5514 165.935 89.3847 166.273C89.1139 166.841 88.7753 167.125 88.3691 167.125C88.067 167.125 87.679 166.982 87.205 166.695C86.679 166.378 86.1816 165.948 85.7128 165.406C85.1399 165.927 84.4836 166.409 83.7441 166.852L83.1347 166.18H78.0722V162.758H83.1738V165.477C83.7206 165.122 84.2935 164.688 84.8925 164.172C84.3352 163.099 83.9238 161.646 83.6581 159.812H77.2441V161.617C77.2441 163.195 77.1816 164.344 77.0566 165.062C76.9211 165.839 76.6139 166.638 76.1347 167.461L74.6972 166.406C75.093 165.724 75.3482 164.885 75.4628 163.891C75.5305 163.312 75.5644 162.609 75.5644 161.781V158.5H83.5019C83.4602 158.078 83.4185 157.518 83.3769 156.82H85.0409C85.0774 157.451 85.1191 158.01 85.1659 158.5H87.1972ZM79.5409 163.93V165.031H81.7128V163.93H79.5409ZM77.7519 160.641H83.3534V161.875H77.7519V160.641ZM75.0644 170.789C75.6269 169.826 76.0461 168.727 76.3222 167.492L77.9081 167.953C77.6581 169.531 77.2154 170.812 76.58 171.797L75.0644 170.789ZM79.1425 167.555H80.8378V169.75C80.8378 170.036 80.929 170.208 81.1113 170.266C81.3404 170.339 81.8665 170.375 82.6894 170.375C83.679 170.375 84.3118 170.336 84.5878 170.258C84.7597 170.211 84.8717 170.057 84.9238 169.797C84.9758 169.516 85.0201 169.115 85.0566 168.594L86.7363 169.039C86.679 170.331 86.4628 171.128 86.0878 171.43C85.8743 171.596 85.5618 171.701 85.1503 171.742C84.4836 171.815 83.679 171.852 82.7363 171.852C81.1477 171.852 80.1529 171.771 79.7519 171.609C79.3456 171.448 79.1425 171.083 79.1425 170.516V167.555ZM88.5488 171.383C87.9863 170.096 87.3248 168.932 86.5644 167.891L87.9863 167.141C88.8196 168.094 89.5149 169.161 90.0722 170.344L88.5488 171.383ZM82.8378 169.602C82.1764 168.581 81.606 167.818 81.1269 167.312L82.3222 166.562C82.9732 167.125 83.5878 167.836 84.1659 168.695L82.8378 169.602ZM91.7669 160.273H95.22C95.3763 159.471 95.5507 158.474 95.7434 157.281L95.7825 157.055L97.4934 157.312C97.3164 158.417 97.1341 159.404 96.9466 160.273H97.8919C99.1419 160.273 100.038 160.555 100.579 161.117C101.064 161.622 101.306 162.409 101.306 163.477C101.306 165.273 101.116 166.953 100.736 168.516C100.517 169.401 100.251 170.055 99.9388 170.477C99.5429 171.003 98.9934 171.266 98.2903 171.266C97.4466 171.266 96.5247 170.995 95.5247 170.453L95.72 168.805C96.7096 169.279 97.4778 169.516 98.0247 169.516C98.3111 169.516 98.5325 169.362 98.6888 169.055C98.8554 168.721 99.0143 168.24 99.1653 167.609C99.4622 166.333 99.6106 164.992 99.6106 163.586C99.6106 162.846 99.4622 162.367 99.1653 162.148C98.9101 161.966 98.4544 161.875 97.7981 161.875H96.595C95.7669 165.562 94.5794 168.708 93.0325 171.312L91.4622 170.453C93.0611 167.771 94.2018 164.911 94.8841 161.875H91.7669V160.273ZM104.743 167.984C104.155 165.818 103.225 163.69 101.954 161.602L103.478 160.914C104.79 163.008 105.772 165.115 106.423 167.234L104.743 167.984ZM103.587 160.5C103.264 159.656 102.743 158.719 102.025 157.688L103.236 157.234C103.866 158.125 104.394 159.049 104.822 160.008L103.587 160.5ZM105.689 159.828C105.283 158.823 104.764 157.878 104.134 156.992L105.283 156.609C105.881 157.323 106.405 158.214 106.853 159.281L105.689 159.828ZM109.532 159.047H113.438C113.548 158.146 113.631 157.5 113.688 157.109L115.423 157.289L115.399 157.414L115.344 157.82L115.274 158.344L115.204 158.867L115.18 159.047H121.641V160.586H115.001C114.985 160.763 114.951 161.141 114.899 161.719L114.86 162.219L114.844 162.375C115.469 162.271 116.107 162.219 116.758 162.219C118.561 162.219 119.99 162.641 121.048 163.484C121.324 163.708 121.576 163.99 121.805 164.328C122.264 165.005 122.493 165.784 122.493 166.664C122.493 168.232 121.847 169.427 120.555 170.25C119.712 170.786 118.542 171.19 117.048 171.461L116.298 170.086C117.667 169.862 118.714 169.505 119.438 169.016C120.303 168.427 120.735 167.615 120.735 166.578C120.735 165.906 120.548 165.315 120.173 164.805C119.954 164.503 119.659 164.258 119.29 164.07C117.993 166.331 116.292 168.169 114.188 169.586C113.511 170.044 112.943 170.349 112.485 170.5C112.032 170.646 111.589 170.719 111.157 170.719C110.36 170.719 109.761 170.453 109.36 169.922C109.027 169.484 108.86 168.885 108.86 168.125C108.86 166.776 109.37 165.586 110.391 164.555C111.146 163.789 112.055 163.201 113.118 162.789L113.133 162.578C113.196 161.682 113.248 161.018 113.29 160.586H109.532V159.047ZM113.048 164.375C112.318 164.766 111.735 165.253 111.298 165.836C110.74 166.581 110.462 167.323 110.462 168.062C110.462 168.885 110.758 169.297 111.352 169.297C111.873 169.297 112.514 169.016 113.274 168.453C113.118 167.406 113.04 166.297 113.04 165.125C113.04 164.964 113.042 164.714 113.048 164.375ZM114.727 163.781C114.717 164.12 114.712 164.427 114.712 164.703C114.712 165.589 114.751 166.422 114.829 167.203C116.089 166.031 117.053 164.833 117.719 163.609C117.386 163.568 117.053 163.547 116.719 163.547C116.027 163.547 115.363 163.625 114.727 163.781ZM126.953 157.688H135.719L136.555 158.984C133.846 160.641 131.5 162.146 129.516 163.5C130.797 162.964 132.083 162.695 133.375 162.695C134.536 162.695 135.505 162.88 136.281 163.25C137 163.594 137.56 164.062 137.961 164.656C138.378 165.286 138.586 166.01 138.586 166.828C138.586 167.974 138.195 168.932 137.414 169.703C136.878 170.24 136.19 170.646 135.352 170.922C134.253 171.281 133.049 171.461 131.742 171.461C130.237 171.461 129.128 171.182 128.414 170.625C127.857 170.188 127.578 169.596 127.578 168.852C127.578 168.289 127.781 167.789 128.188 167.352C128.802 166.69 129.633 166.359 130.68 166.359C131.789 166.359 132.677 166.732 133.344 167.477C133.828 168.018 134.177 168.745 134.391 169.656C135.995 169.146 136.797 168.203 136.797 166.828C136.797 165.786 136.362 165.018 135.492 164.523C134.909 164.19 134.169 164.023 133.273 164.023C131.935 164.023 130.727 164.208 129.648 164.578C128.852 164.849 127.781 165.503 126.438 166.539L125.336 165.211C126.784 163.961 128.432 162.693 130.281 161.406C131.557 160.521 132.682 159.794 133.656 159.227H126.953V157.688ZM132.875 169.961C132.505 168.487 131.779 167.75 130.695 167.75C130.096 167.75 129.664 167.94 129.398 168.32C129.273 168.492 129.211 168.677 129.211 168.875C129.211 169.286 129.503 169.596 130.086 169.805C130.508 169.951 131.073 170.023 131.781 170.023C132.083 170.023 132.448 170.003 132.875 169.961Z" fill="#333333"/>
<rect x="164" y="144" width="144" height="40" fill="#60C5F5"/>
<path d="M220.899 171.398V160.359C219.795 160.729 218.753 161.003 217.774 161.18L217.391 159.594C219.042 159.193 220.396 158.729 221.454 158.203H222.954V171.398H220.899ZM230.719 163.766H231.805C232.721 163.766 233.458 163.602 234.016 163.273C234.698 162.872 235.039 162.323 235.039 161.625C235.039 161.047 234.789 160.589 234.289 160.25C233.846 159.953 233.294 159.805 232.633 159.805C231.435 159.805 230.284 160.263 229.18 161.18L228.047 159.781C229.385 158.708 230.961 158.172 232.773 158.172C233.987 158.172 234.984 158.422 235.766 158.922C236.708 159.531 237.18 160.393 237.18 161.508C237.18 162.362 236.854 163.094 236.203 163.703C235.698 164.172 235.031 164.466 234.203 164.586V164.648C235.276 164.826 236.096 165.18 236.664 165.711C237.253 166.263 237.547 167 237.547 167.922C237.547 169.266 237.003 170.271 235.914 170.938C235.096 171.438 234.023 171.688 232.695 171.688C230.602 171.688 228.904 171.047 227.602 169.766L228.781 168.359C229.198 168.802 229.734 169.167 230.391 169.453C231.188 169.802 231.961 169.977 232.711 169.977C233.555 169.977 234.214 169.799 234.688 169.445C235.146 169.107 235.375 168.589 235.375 167.891C235.375 166.932 234.914 166.253 233.992 165.852C233.372 165.581 232.628 165.445 231.758 165.445H230.719V163.766ZM251.757 158.438H253.312L243.757 171.398H242.21L251.757 158.438ZM243.515 158.117C244.52 158.117 245.314 158.505 245.898 159.281C246.393 159.948 246.64 160.779 246.64 161.773C246.64 162.674 246.437 163.44 246.031 164.07C245.447 164.977 244.604 165.43 243.499 165.43C242.52 165.43 241.742 165.065 241.163 164.336C240.632 163.669 240.367 162.818 240.367 161.781C240.367 160.552 240.726 159.594 241.445 158.906C241.997 158.38 242.687 158.117 243.515 158.117ZM243.499 159.555C243.067 159.555 242.718 159.753 242.453 160.148C242.182 160.555 242.046 161.099 242.046 161.781C242.046 162.349 242.148 162.828 242.351 163.219C242.617 163.734 243.002 163.992 243.507 163.992C243.908 163.992 244.239 163.82 244.499 163.477C244.807 163.065 244.96 162.5 244.96 161.781C244.96 161.089 244.817 160.536 244.531 160.125C244.27 159.745 243.926 159.555 243.499 159.555ZM252.023 164.406C252.997 164.406 253.773 164.771 254.351 165.5C254.882 166.172 255.148 167.023 255.148 168.055C255.148 168.971 254.939 169.747 254.523 170.383C253.939 171.273 253.101 171.719 252.007 171.719C250.997 171.719 250.203 171.331 249.624 170.555C249.13 169.888 248.882 169.057 248.882 168.062C248.882 166.854 249.231 165.909 249.929 165.227C250.486 164.68 251.184 164.406 252.023 164.406ZM252.007 165.844C251.606 165.844 251.278 166.016 251.023 166.359C250.716 166.776 250.562 167.344 250.562 168.062C250.562 168.63 250.661 169.109 250.859 169.5C251.124 170.021 251.512 170.281 252.023 170.281C252.455 170.281 252.801 170.083 253.062 169.688C253.333 169.276 253.468 168.734 253.468 168.062C253.468 167.375 253.325 166.826 253.038 166.414C252.778 166.034 252.434 165.844 252.007 165.844Z" fill="white"/>
<path d="M94.2044 205.766H102.876L103.908 206.984L103.314 207.312C100.814 208.698 98.8658 209.794 97.47 210.602C100.741 210.471 103.53 210.339 105.837 210.203L105.97 211.852L103.376 211.961C102.095 212.018 100.915 212.312 99.8372 212.844C98.332 213.589 97.5794 214.526 97.5794 215.656C97.5794 216.542 98.095 217.148 99.1263 217.477C99.9388 217.732 101.249 217.862 103.056 217.867V219.562C100.759 219.557 99.0976 219.333 98.0716 218.891C96.5924 218.26 95.8528 217.242 95.8528 215.836C95.8528 214.096 97.0273 212.815 99.3763 211.992C98.1367 212.034 95.9518 212.141 92.8216 212.312L92.2513 212.344L92.1419 210.711C93.0273 210.711 93.9231 210.695 94.8294 210.664C96.9648 209.341 98.9544 208.211 100.798 207.273H94.2044V205.766ZM116.149 217.648C119.206 216.878 120.735 215.125 120.735 212.391C120.735 211.198 120.428 210.172 119.813 209.312C119.126 208.344 118.079 207.721 116.673 207.445C116.365 209.862 115.946 211.841 115.415 213.383C115.05 214.461 114.597 215.479 114.055 216.438C113.274 217.802 112.386 218.484 111.391 218.484C110.652 218.484 109.993 218.151 109.415 217.484C109.045 217.062 108.745 216.544 108.516 215.93C108.214 215.133 108.063 214.276 108.063 213.359C108.063 211.875 108.472 210.508 109.29 209.258C110.118 207.982 111.193 207.055 112.516 206.477C113.48 206.055 114.537 205.844 115.688 205.844C117.485 205.844 119.011 206.326 120.266 207.289C121.808 208.471 122.579 210.146 122.579 212.312C122.579 215.943 120.743 218.245 117.071 219.219L116.149 217.648ZM114.977 207.383C114.055 207.487 113.284 207.734 112.665 208.125C112.269 208.38 111.876 208.719 111.485 209.141C110.402 210.339 109.86 211.727 109.86 213.305C109.86 214.456 110.089 215.357 110.548 216.008C110.829 216.409 111.107 216.609 111.383 216.609C111.758 216.609 112.18 216.195 112.649 215.367C113.795 213.352 114.571 210.69 114.977 207.383ZM131.859 211.117V217.312C131.859 217.594 131.932 217.786 132.078 217.891C132.328 218.057 133.174 218.141 134.617 218.141C136.331 218.141 137.357 218.062 137.695 217.906C137.878 217.818 137.99 217.583 138.031 217.203C138.068 216.87 138.099 216.362 138.125 215.68L139.727 216.125C139.669 217.708 139.49 218.685 139.188 219.055C138.964 219.326 138.581 219.495 138.039 219.562C137.258 219.667 136.133 219.719 134.664 219.719C133.372 219.719 132.424 219.693 131.82 219.641C131.081 219.578 130.607 219.331 130.398 218.898C130.284 218.648 130.227 218.292 130.227 217.828V211.672L128.828 212.148L128.414 210.656L130.227 210.047V205.844H131.859V209.492L133.633 208.891V204.82H135.219V208.352L137.883 207.445L138.734 207.953V213.812C138.734 214.245 138.628 214.56 138.414 214.758C138.195 214.966 137.812 215.07 137.266 215.07C136.792 215.07 136.357 215.044 135.961 214.992L135.695 213.492C136.055 213.555 136.372 213.586 136.648 213.586C136.883 213.586 137.029 213.539 137.086 213.445C137.138 213.362 137.164 213.232 137.164 213.055V209.312L135.219 209.977V216.305H133.633V210.516L131.859 211.117ZM128.18 208.633V220.023H126.469V212C126.089 212.62 125.628 213.289 125.086 214.008L124.289 212.281C125.201 211.078 125.971 209.669 126.602 208.055C126.971 207.107 127.341 205.971 127.711 204.648L129.422 205.078C129.01 206.469 128.62 207.594 128.25 208.453C128.224 208.516 128.201 208.576 128.18 208.633Z" fill="#333333"/>
<rect x="164" y="192" width="96" height="40" fill="#7EDE64"/>
<path d="M191.681 211.664C192.399 210.576 193.47 210.031 194.892 210.031C196.043 210.031 197.027 210.393 197.845 211.117C198.741 211.914 199.188 212.93 199.188 214.164C199.188 215.43 198.787 216.484 197.985 217.328C197.136 218.224 196.009 218.672 194.603 218.672C192.957 218.672 191.655 218.062 190.696 216.844C189.925 215.859 189.54 214.477 189.54 212.695C189.54 211.456 189.894 210.224 190.603 209C191.79 206.932 193.782 205.57 196.579 204.914L197.313 206.445C195.501 206.971 194.196 207.628 193.399 208.414C192.389 209.409 191.795 210.492 191.618 211.664H191.681ZM194.517 211.539C193.725 211.539 193.05 211.854 192.493 212.484C192.05 212.979 191.829 213.513 191.829 214.086C191.829 214.701 192.004 215.263 192.353 215.773C192.915 216.596 193.649 217.008 194.556 217.008C195.347 217.008 195.998 216.706 196.509 216.102C196.92 215.607 197.126 214.982 197.126 214.227C197.126 213.372 196.873 212.708 196.368 212.234C195.873 211.771 195.256 211.539 194.517 211.539ZM202.157 215.773H204.782V218.398H202.157V215.773ZM209.406 205.438H216.976V207.164H211.101L210.64 210.859H210.703C211.505 210.281 212.435 209.992 213.492 209.992C214.216 209.992 214.896 210.156 215.531 210.484C216.422 210.938 217.044 211.628 217.398 212.555C217.596 213.076 217.695 213.654 217.695 214.289C217.695 215.716 217.169 216.841 216.117 217.664C215.242 218.346 214.153 218.688 212.851 218.688C210.966 218.688 209.45 218.12 208.304 216.984L209.375 215.641C209.791 216.052 210.299 216.37 210.898 216.594C211.549 216.839 212.19 216.961 212.82 216.961C213.534 216.961 214.143 216.763 214.648 216.367C215.294 215.862 215.617 215.164 215.617 214.273C215.617 213.497 215.393 212.865 214.945 212.375C214.461 211.844 213.791 211.578 212.937 211.578C211.776 211.578 210.924 211.984 210.383 212.797L208.625 212.508L209.406 205.438ZM231.757 205.438H233.312L223.757 218.398H222.21L231.757 205.438ZM223.515 205.117C224.52 205.117 225.314 205.505 225.898 206.281C226.392 206.948 226.64 207.779 226.64 208.773C226.64 209.674 226.437 210.44 226.03 211.07C225.447 211.977 224.603 212.43 223.499 212.43C222.52 212.43 221.741 212.065 221.163 211.336C220.632 210.669 220.366 209.818 220.366 208.781C220.366 207.552 220.726 206.594 221.444 205.906C221.996 205.38 222.687 205.117 223.515 205.117ZM223.499 206.555C223.067 206.555 222.718 206.753 222.452 207.148C222.181 207.555 222.046 208.099 222.046 208.781C222.046 209.349 222.148 209.828 222.351 210.219C222.616 210.734 223.002 210.992 223.507 210.992C223.908 210.992 224.239 210.82 224.499 210.477C224.806 210.065 224.96 209.5 224.96 208.781C224.96 208.089 224.817 207.536 224.53 207.125C224.27 206.745 223.926 206.555 223.499 206.555ZM232.023 211.406C232.996 211.406 233.773 211.771 234.351 212.5C234.882 213.172 235.148 214.023 235.148 215.055C235.148 215.971 234.939 216.747 234.523 217.383C233.939 218.273 233.101 218.719 232.007 218.719C230.996 218.719 230.202 218.331 229.624 217.555C229.129 216.888 228.882 216.057 228.882 215.062C228.882 213.854 229.231 212.909 229.929 212.227C230.486 211.68 231.184 211.406 232.023 211.406ZM232.007 212.844C231.606 212.844 231.278 213.016 231.023 213.359C230.715 213.776 230.562 214.344 230.562 215.062C230.562 215.63 230.661 216.109 230.858 216.5C231.124 217.021 231.512 217.281 232.023 217.281C232.455 217.281 232.801 217.083 233.062 216.688C233.332 216.276 233.468 215.734 233.468 215.062C233.468 214.375 233.325 213.826 233.038 213.414C232.778 213.034 232.434 212.844 232.007 212.844Z" fill="white"/>
</svg>
