<svg width="444" height="149" viewBox="0 0 444 149" fill="none" xmlns="http://www.w3.org/2000/svg">
<ellipse cx="237.529" cy="74.5" rx="74" ry="74.5" fill="#F4D45F"/>
<path d="M237.528 74.5H237.532C237.528 74.5 179.707 28 179.709 28C193.269 10.9323 214.131 0 237.528 0C237.528 1.5 237.528 76 237.528 74.5Z" fill="#F59160"/>
<path d="M237.529 74.5H237.533C237.529 74.5 201.75 9.26975 201.753 9.26975C193.237 14.0135 201.755 9.26975 201.753 9.26975C212.356 3.36269 224.553 0 237.529 0C237.529 1.5 237.529 76 237.529 74.5Z" fill="#F59160"/>
<path d="M237.529 74.5024L164.33 85.5017C163.803 81.9121 163.529 78.239 163.529 74.5017C163.529 55.6205 170.506 38.3798 182.006 25.25L237.529 74.5024Z" fill="#F59160"/>
<path d="M237.529 74.5011L164.33 85.5004C163.803 81.9108 163.529 78.2378 163.529 74.5004C163.529 63.6331 165.841 53.3094 169.995 44L237.529 74.5011Z" fill="#F59160"/>
<path d="M237.529 74.5L262.005 144.828C254.344 147.53 246.107 149 237.529 149C200.028 149 169.042 120.916 164.189 84.4995C164.184 84.4995 237.529 74.5 237.531 74.5005C237.531 74.5005 237.531 74.5005 237.529 74.5Z" fill="#F59160"/>
<path d="M303.703 7.22656H315.883L316.727 7.94531C316.279 9.6849 315.453 11.0469 314.25 12.0312C313.589 12.5729 312.76 13.0339 311.766 13.4141L311.016 12.4531C312.5 11.9688 313.651 11.1719 314.469 10.0625C314.844 9.54688 315.112 8.97917 315.273 8.35938H303.703V7.22656ZM308.906 10.1328H310.164V11.4453C310.164 13.4922 309.964 15.0391 309.562 16.0859C309.026 17.4766 307.922 18.6068 306.25 19.4766L305.32 18.5234C306.466 17.9714 307.318 17.2656 307.875 16.4062C308.255 15.8281 308.51 15.2396 308.641 14.6406C308.818 13.8229 308.906 12.7578 308.906 11.4453V10.1328ZM324.016 5.82812H325.266V8.42188H330.766C330.724 10.6302 330.484 12.4219 330.047 13.7969C329.495 15.526 328.583 16.8385 327.312 17.7344C326.161 18.5469 324.701 19.1901 322.93 19.6641L322.289 18.5781C324.164 18.1667 325.706 17.4427 326.914 16.4062C328.445 15.1042 329.271 12.8151 329.391 9.53906H320.125V13.3438H318.828V8.42188H324.016V5.82812ZM334.555 6.02344H335.867V10.4688C339.143 11.4844 341.698 12.4609 343.531 13.3984L342.875 14.5859C340.807 13.5286 338.471 12.5729 335.867 11.7188V19.7188H334.555V6.02344ZM346.875 6.02344H348.188V10.5391C351.432 11.5495 353.987 12.5286 355.852 13.4766L355.195 14.6484C353.107 13.5964 350.771 12.6458 348.188 11.7969V19.7188H346.875V6.02344ZM353.469 9.97656C353.125 9.10156 352.661 8.23177 352.078 7.36719L353.016 6.98438C353.62 7.82292 354.096 8.69271 354.445 9.59375L353.469 9.97656ZM355.484 9.35156C355.104 8.38281 354.641 7.50781 354.094 6.72656L355.016 6.39062C355.562 7.10938 356.034 7.95312 356.43 8.92188L355.484 9.35156ZM358.266 7.22656H370.445L371.289 7.94531C370.841 9.6849 370.016 11.0469 368.812 12.0312C368.151 12.5729 367.323 13.0339 366.328 13.4141L365.578 12.4531C367.062 11.9688 368.214 11.1719 369.031 10.0625C369.406 9.54688 369.674 8.97917 369.836 8.35938H358.266V7.22656ZM363.469 10.1328H364.727V11.4453C364.727 13.4922 364.526 15.0391 364.125 16.0859C363.589 17.4766 362.484 18.6068 360.812 19.4766L359.883 18.5234C361.029 17.9714 361.88 17.2656 362.438 16.4062C362.818 15.8281 363.073 15.2396 363.203 14.6406C363.38 13.8229 363.469 12.7578 363.469 11.4453V10.1328ZM377.586 7.04688L378.023 6.99219C380.711 6.66927 383.141 6.16927 385.312 5.49219L386.273 6.4375C383.753 7.14062 381.247 7.64583 378.758 7.95312V10.0938C381.451 9.81771 383.854 9.33073 385.969 8.63281L386.844 9.49219C385.974 9.78385 385.036 10.0443 384.031 10.2734C384.146 11.6641 384.292 12.7526 384.469 13.5391C385.302 12.8932 386.016 12.2292 386.609 11.5469L387.555 12.4375C386.674 13.2604 385.74 13.9896 384.75 14.625C385.099 15.724 385.586 16.724 386.211 17.625C386.581 18.1562 387.081 18.7526 387.711 19.4141L386.828 20.4219C385.87 19.3594 385.151 18.375 384.672 17.4688C383.917 16.0417 383.406 14.2995 383.141 12.2422C383.083 11.7943 383.029 11.2109 382.977 10.4922C382.768 10.5286 382.615 10.5573 382.516 10.5781C382.161 10.6406 381.919 10.6823 381.789 10.7031L381.695 10.7188V20.5234H380.492V10.8984C380.044 10.9609 379.466 11.0365 378.758 11.125C378.758 13.224 378.661 14.8828 378.469 16.1016C378.234 17.5964 377.721 19.0156 376.93 20.3594L375.938 19.4297C376.75 18.1953 377.25 16.6615 377.438 14.8281C377.536 13.8229 377.586 12.4401 377.586 10.6797V7.04688ZM375.406 8.78906C374.682 7.8724 373.872 7.04688 372.977 6.3125L373.859 5.44531C374.786 6.17448 375.612 6.97656 376.336 7.85156L375.406 8.78906ZM374.812 12.875C373.979 11.8802 373.148 11.0573 372.32 10.4062L373.172 9.53125C374.057 10.1719 374.909 10.9661 375.727 11.9141L374.812 12.875ZM372.734 19.4453C373.724 18.0911 374.648 16.3333 375.508 14.1719L376.5 14.9219C375.714 17.0521 374.789 18.8698 373.727 20.375L372.734 19.4453Z" fill="#E59D00"/>
<path d="M397.467 19.2988V17.9746C397.838 16.8223 398.85 15.6953 400.502 14.5938L400.824 14.377C401.535 13.9043 402.023 13.5176 402.289 13.2168C402.586 12.8809 402.734 12.5176 402.734 12.127C402.734 11.7754 402.627 11.4707 402.412 11.2129C402.092 10.8262 401.613 10.6328 400.976 10.6328C400.027 10.6328 399.174 11.0293 398.416 11.8223L397.408 10.8965C397.674 10.5723 397.99 10.2988 398.357 10.0762C399.142 9.59961 400.017 9.36133 400.982 9.36133C401.732 9.36133 402.383 9.50391 402.934 9.78906C403.41 10.0391 403.777 10.3789 404.035 10.8086C404.273 11.2148 404.392 11.6543 404.392 12.127C404.392 12.748 404.156 13.3223 403.684 13.8496C403.367 14.2051 402.775 14.6777 401.908 15.2676L401.533 15.5195C400.615 16.1406 400.01 16.6016 399.717 16.9023C399.357 17.2695 399.119 17.5996 399.002 17.8926H404.486V19.2988H397.467ZM409.489 14.3184C408.185 13.873 407.532 13.0898 407.532 11.9688C407.532 11.1797 407.876 10.5352 408.563 10.0352C409.2 9.57031 409.999 9.33789 410.96 9.33789C411.804 9.33789 412.526 9.51172 413.128 9.85938C413.956 10.3359 414.37 11.0039 414.37 11.8633C414.37 12.5703 414.134 13.127 413.661 13.5332C413.282 13.8613 412.827 14.0957 412.296 14.2363V14.2715C412.987 14.4941 413.511 14.7676 413.866 15.0918C414.436 15.6035 414.722 16.2051 414.722 16.8965C414.722 17.6934 414.382 18.3359 413.702 18.8242C413.011 19.3164 412.099 19.5625 410.966 19.5625C410.001 19.5625 409.198 19.3848 408.558 19.0293C407.69 18.5527 407.257 17.8555 407.257 16.9375C407.257 16.2031 407.567 15.584 408.188 15.0801C408.548 14.7871 408.981 14.5488 409.489 14.3652V14.3184ZM410.977 13.7207C411.563 13.5723 412.022 13.3438 412.354 13.0352C412.69 12.7266 412.858 12.3848 412.858 12.0098C412.858 11.584 412.696 11.2246 412.372 10.9316C412.009 10.6035 411.538 10.4395 410.96 10.4395C410.53 10.4395 410.155 10.5371 409.835 10.7324C409.347 11.0293 409.102 11.4512 409.102 11.998C409.102 12.4004 409.274 12.752 409.618 13.0527C409.852 13.2598 410.165 13.4375 410.556 13.5859C410.81 13.6836 410.95 13.7285 410.977 13.7207ZM410.895 14.9219C410.251 15.1016 409.761 15.3457 409.425 15.6543C409.058 15.9902 408.874 16.373 408.874 16.8027C408.874 17.2715 409.073 17.6504 409.472 17.9395C409.866 18.2207 410.362 18.3613 410.96 18.3613C411.44 18.3613 411.862 18.2676 412.226 18.0801C412.792 17.7832 413.075 17.3477 413.075 16.7734C413.075 16.332 412.854 15.9375 412.413 15.5898C412.097 15.3398 411.708 15.1484 411.247 15.0156C411.02 14.9492 410.903 14.918 410.895 14.9219ZM417.416 17.3301H419.385V19.2988H417.416V17.3301ZM424.317 13.5742H425.132C425.819 13.5742 426.372 13.4512 426.79 13.2051C427.302 12.9043 427.558 12.4922 427.558 11.9688C427.558 11.5352 427.37 11.1914 426.995 10.9375C426.663 10.7148 426.249 10.6035 425.753 10.6035C424.855 10.6035 423.991 10.9473 423.163 11.6348L422.314 10.5859C423.317 9.78125 424.499 9.37891 425.858 9.37891C426.769 9.37891 427.517 9.56641 428.103 9.94141C428.81 10.3984 429.163 11.0449 429.163 11.8809C429.163 12.5215 428.919 13.0703 428.431 13.5273C428.052 13.8789 427.552 14.0996 426.931 14.1895V14.2363C427.735 14.3691 428.351 14.6348 428.776 15.0332C429.218 15.4473 429.439 16 429.439 16.6914C429.439 17.6992 429.03 18.4531 428.214 18.9531C427.601 19.3281 426.796 19.5156 425.8 19.5156C424.23 19.5156 422.956 19.0352 421.98 18.0742L422.864 17.0195C423.177 17.3516 423.579 17.625 424.071 17.8398C424.669 18.1016 425.249 18.2324 425.812 18.2324C426.444 18.2324 426.939 18.0996 427.294 17.834C427.638 17.5801 427.81 17.1914 427.81 16.668C427.81 15.9492 427.464 15.4395 426.772 15.1387C426.308 14.9355 425.749 14.834 425.097 14.834H424.317V13.5742ZM440.576 9.57812H441.742L434.576 19.2988H433.416L440.576 9.57812ZM434.395 9.33789C435.149 9.33789 435.744 9.62891 436.182 10.2109C436.553 10.7109 436.738 11.334 436.738 12.0801C436.738 12.7559 436.586 13.3301 436.281 13.8027C435.844 14.4824 435.211 14.8223 434.383 14.8223C433.649 14.8223 433.065 14.5488 432.631 14.002C432.232 13.502 432.033 12.8633 432.033 12.0859C432.033 11.1641 432.303 10.4453 432.842 9.92969C433.256 9.53516 433.774 9.33789 434.395 9.33789ZM434.383 10.416C434.059 10.416 433.797 10.5645 433.598 10.8613C433.395 11.166 433.293 11.5742 433.293 12.0859C433.293 12.5117 433.369 12.8711 433.522 13.1641C433.721 13.5508 434.01 13.7441 434.389 13.7441C434.69 13.7441 434.938 13.6152 435.133 13.3574C435.363 13.0488 435.479 12.625 435.479 12.0859C435.479 11.5664 435.371 11.1523 435.156 10.8438C434.961 10.5586 434.703 10.416 434.383 10.416ZM440.775 14.0547C441.506 14.0547 442.088 14.3281 442.522 14.875C442.92 15.3789 443.119 16.0176 443.119 16.791C443.119 17.4785 442.963 18.0605 442.65 18.5371C442.213 19.2051 441.584 19.5391 440.764 19.5391C440.006 19.5391 439.41 19.248 438.977 18.666C438.606 18.166 438.42 17.543 438.42 16.7969C438.42 15.8906 438.682 15.1816 439.205 14.6699C439.623 14.2598 440.147 14.0547 440.775 14.0547ZM440.764 15.1328C440.463 15.1328 440.217 15.2617 440.025 15.5195C439.795 15.832 439.68 16.2578 439.68 16.7969C439.68 17.2227 439.754 17.582 439.902 17.875C440.102 18.2656 440.393 18.4609 440.775 18.4609C441.1 18.4609 441.359 18.3125 441.555 18.0156C441.758 17.707 441.859 17.3008 441.859 16.7969C441.859 16.2812 441.752 15.8691 441.537 15.5605C441.342 15.2754 441.084 15.1328 440.764 15.1328Z" fill="#E59D00"/>
<path d="M310.869 84.4999C307.071 113 287.267 136.396 260.861 145.221C260.861 147.5 237.53 74.5 237.527 74.5C237.527 74.5 196.661 74.5 237.53 74.5L310.869 84.4999C311.305 87.7708 310.801 84.9993 310.869 84.4999Z" fill="#F59160"/>
<circle cx="237.529" cy="75" r="37" fill="#F9F9F9"/>
<path d="M6.76562 114.625V106.367C5.08854 107.503 3.19531 108.464 1.08594 109.25L0.382812 108.125C2.65885 107.354 4.65365 106.359 6.36719 105.141C8.11719 103.891 9.61979 102.523 10.875 101.039L11.9688 101.727C10.8073 103.029 9.5 104.26 8.04688 105.422V114.625H6.76562ZM19.0078 104.906C17.5182 104.229 15.9349 103.688 14.2578 103.281L14.6719 102.062C16.6771 102.542 18.2734 103.081 19.4609 103.68L19.0078 104.906ZM14.3828 112.961C16.487 112.773 18.1432 112.453 19.3516 112C22.4818 110.828 24.4531 108.13 25.2656 103.906L26.3516 104.688C25.8672 106.979 25.112 108.797 24.0859 110.141C22.9609 111.62 21.4245 112.69 19.4766 113.352C18.2734 113.758 16.6823 114.07 14.7031 114.289L14.3828 112.961ZM29.875 101.023H31.1875V105.539C34.4323 106.549 36.987 107.529 38.8516 108.477L38.1953 109.648C36.1068 108.596 33.7708 107.646 31.1875 106.797V114.719H29.875V101.023ZM36.4688 104.977C36.125 104.102 35.6615 103.232 35.0781 102.367L36.0156 101.984C36.6198 102.823 37.0964 103.693 37.4453 104.594L36.4688 104.977ZM38.4844 104.352C38.1042 103.383 37.6406 102.508 37.0938 101.727L38.0156 101.391C38.5625 102.109 39.0339 102.953 39.4297 103.922L38.4844 104.352ZM41.2656 102.227H53.4453L54.2891 102.945C53.8411 104.685 53.0156 106.047 51.8125 107.031C51.151 107.573 50.3229 108.034 49.3281 108.414L48.5781 107.453C50.0625 106.969 51.2135 106.172 52.0312 105.062C52.4062 104.547 52.6745 103.979 52.8359 103.359H41.2656V102.227ZM46.4688 105.133H47.7266V106.445C47.7266 108.492 47.526 110.039 47.125 111.086C46.5885 112.477 45.4844 113.607 43.8125 114.477L42.8828 113.523C44.0286 112.971 44.8802 112.266 45.4375 111.406C45.8177 110.828 46.0729 110.24 46.2031 109.641C46.3802 108.823 46.4688 107.758 46.4688 106.445V105.133ZM60.5859 102.047L61.0234 101.992C63.7109 101.669 66.1406 101.169 68.3125 100.492L69.2734 101.438C66.7526 102.141 64.2474 102.646 61.7578 102.953V105.094C64.4505 104.818 66.8542 104.331 68.9688 103.633L69.8438 104.492C68.974 104.784 68.0365 105.044 67.0312 105.273C67.1458 106.664 67.2917 107.753 67.4688 108.539C68.3021 107.893 69.0156 107.229 69.6094 106.547L70.5547 107.438C69.6745 108.26 68.7396 108.99 67.75 109.625C68.099 110.724 68.5859 111.724 69.2109 112.625C69.5807 113.156 70.0807 113.753 70.7109 114.414L69.8281 115.422C68.8698 114.359 68.151 113.375 67.6719 112.469C66.9167 111.042 66.4062 109.299 66.1406 107.242C66.0833 106.794 66.0286 106.211 65.9766 105.492C65.7682 105.529 65.6146 105.557 65.5156 105.578C65.1615 105.641 64.9193 105.682 64.7891 105.703L64.6953 105.719V115.523H63.4922V105.898C63.0443 105.961 62.4661 106.036 61.7578 106.125C61.7578 108.224 61.6615 109.883 61.4688 111.102C61.2344 112.596 60.7214 114.016 59.9297 115.359L58.9375 114.43C59.75 113.195 60.25 111.661 60.4375 109.828C60.5365 108.823 60.5859 107.44 60.5859 105.68V102.047ZM58.4062 103.789C57.6823 102.872 56.8724 102.047 55.9766 101.312L56.8594 100.445C57.7865 101.174 58.612 101.977 59.3359 102.852L58.4062 103.789ZM57.8125 107.875C56.9792 106.88 56.1484 106.057 55.3203 105.406L56.1719 104.531C57.0573 105.172 57.9089 105.966 58.7266 106.914L57.8125 107.875ZM55.7344 114.445C56.724 113.091 57.6484 111.333 58.5078 109.172L59.5 109.922C58.7135 112.052 57.7891 113.87 56.7266 115.375L55.7344 114.445Z" fill="#DC6B34"/>
<path d="M80.2343 104.578H87.6171V105.814C86.9374 106.908 86.2675 108.342 85.6073 110.115C85.0175 111.701 84.5878 113.096 84.3183 114.299H82.6835C83.0116 112.791 83.5663 111.141 84.3476 109.348C85.1054 107.613 85.6503 106.484 85.9823 105.961H81.6874V107.953H80.2343V104.578ZM92.7724 114.299V106.02C91.9443 106.297 91.163 106.502 90.4287 106.635L90.1416 105.445C91.3798 105.145 92.3955 104.797 93.1884 104.402H94.3134V114.299H92.7724ZM98.6367 112.33H100.605V114.299H98.6367V112.33ZM103.751 104.578H111.134V105.814C110.454 106.908 109.784 108.342 109.124 110.115C108.534 111.701 108.105 113.096 107.835 114.299H106.2C106.528 112.791 107.083 111.141 107.864 109.348C108.622 107.613 109.167 106.484 109.499 105.961H105.204V107.953H103.751V104.578ZM121.797 104.578H122.963L115.797 114.299H114.637L121.797 104.578ZM115.615 104.338C116.369 104.338 116.965 104.629 117.402 105.211C117.774 105.711 117.959 106.334 117.959 107.08C117.959 107.756 117.807 108.33 117.502 108.803C117.065 109.482 116.432 109.822 115.604 109.822C114.869 109.822 114.285 109.549 113.852 109.002C113.453 108.502 113.254 107.863 113.254 107.086C113.254 106.164 113.524 105.445 114.063 104.93C114.477 104.535 114.994 104.338 115.615 104.338ZM115.604 105.416C115.279 105.416 115.018 105.564 114.818 105.861C114.615 106.166 114.514 106.574 114.514 107.086C114.514 107.512 114.59 107.871 114.742 108.164C114.941 108.551 115.231 108.744 115.609 108.744C115.91 108.744 116.158 108.615 116.354 108.357C116.584 108.049 116.699 107.625 116.699 107.086C116.699 106.566 116.592 106.152 116.377 105.844C116.182 105.559 115.924 105.416 115.604 105.416ZM121.996 109.055C122.727 109.055 123.309 109.328 123.742 109.875C124.141 110.379 124.34 111.018 124.34 111.791C124.34 112.479 124.184 113.061 123.871 113.537C123.434 114.205 122.805 114.539 121.984 114.539C121.227 114.539 120.631 114.248 120.197 113.666C119.826 113.166 119.641 112.543 119.641 111.797C119.641 110.891 119.902 110.182 120.426 109.67C120.844 109.26 121.367 109.055 121.996 109.055ZM121.984 110.133C121.684 110.133 121.438 110.262 121.246 110.52C121.016 110.832 120.9 111.258 120.9 111.797C120.9 112.223 120.975 112.582 121.123 112.875C121.322 113.266 121.613 113.461 121.996 113.461C122.32 113.461 122.58 113.312 122.775 113.016C122.979 112.707 123.08 112.301 123.08 111.797C123.08 111.281 122.973 110.869 122.758 110.561C122.563 110.275 122.305 110.133 121.984 110.133Z" fill="#DC6B34"/>
</svg>
