<svg width="404" height="168" viewBox="0 0 404 168" fill="none" xmlns="http://www.w3.org/2000/svg">
<ellipse cx="213.023" cy="93.5" rx="74" ry="74.5" fill="#F59160"/>
<path d="M213.023 93.5H213.026C213.023 93.5 165.371 36.5 165.371 36.5C178.245 25.58 194.871 19 213.023 19C213.023 20.5 213.023 95 213.023 93.5Z" fill="#6091F5"/>
<path d="M280.558 63L213.023 93.5C213.023 93.5 214.176 19.0088 213.023 19C243.098 19 268.983 37.0625 280.558 63Z" fill="#F4D45F"/>
<path d="M287 30.1094C285.599 30.2604 284.128 30.3359 282.586 30.3359C280.195 30.3359 278.518 30.1849 277.555 29.8828C276.935 29.6849 276.435 29.3932 276.055 29.0078C275.576 28.513 275.336 27.9062 275.336 27.1875C275.336 26.2448 275.703 25.3776 276.438 24.5859C276.792 24.2057 277.167 23.888 277.562 23.6328C277.974 23.3724 278.469 23.0833 279.047 22.7656C278.25 20.8802 277.62 19.0573 277.156 17.2969L278.422 16.9609C278.906 18.8255 279.477 20.5859 280.133 22.2422C282.039 21.3828 284.151 20.625 286.469 19.9688L286.852 21.1328C284.305 21.7995 281.909 22.6745 279.664 23.7578C278.586 24.2786 277.81 24.8099 277.336 25.3516C276.872 25.8932 276.641 26.4635 276.641 27.0625C276.641 27.8698 277.125 28.4297 278.094 28.7422C278.854 28.9922 280.195 29.1172 282.117 29.1172C283.784 29.1172 285.367 29.0208 286.867 28.8281L287 30.1094ZM289.695 18.5156C294.169 18.4583 298.531 18.3333 302.781 18.1406L302.883 19.2812C301.07 19.3438 299.622 19.638 298.539 20.1641C297.227 20.8047 296.271 21.7188 295.672 22.9062C295.281 23.6719 295.086 24.4896 295.086 25.3594C295.086 26.6719 295.63 27.6302 296.719 28.2344C297.609 28.7292 298.862 29.0885 300.477 29.3125L300.211 30.5625C297.982 30.25 296.388 29.7083 295.43 28.9375C294.336 28.0573 293.789 26.8438 293.789 25.2969C293.789 23.8802 294.318 22.5703 295.375 21.3672C296.099 20.5443 297.07 19.8802 298.289 19.375L297.539 19.4062C294.664 19.5156 292.076 19.6224 289.773 19.7266L289.695 18.5156ZM309.758 16.8047L311.023 16.9453L310.625 19.2812H315.484V20.3984H310.43L309.938 23.2344H314.641V24.3203H309.742C309.586 25.3047 309.508 26.0703 309.508 26.6172C309.508 27.4609 309.719 28.0964 310.141 28.5234C310.729 29.1224 311.672 29.4219 312.969 29.4219C314.188 29.4219 315.133 29.1771 315.805 28.6875C316.445 28.2188 316.766 27.5365 316.766 26.6406C316.766 25.8958 316.607 25.1536 316.289 24.4141L317.453 24.3047C317.859 25.1484 318.062 25.9479 318.062 26.7031C318.062 27.9688 317.615 28.9349 316.719 29.6016C315.802 30.2839 314.534 30.625 312.914 30.625C311.242 30.625 309.992 30.2318 309.164 29.4453C308.503 28.8151 308.172 27.9271 308.172 26.7812C308.172 26.1823 308.263 25.362 308.445 24.3203H305.406V23.2344H308.641L309.133 20.3984H305.633V19.2812H309.328L309.758 16.8047ZM333.484 17.0859V24.2266H321.359V17.0859H333.484ZM322.594 18.0938V20.125H326.781V18.0938H322.594ZM322.594 21.1172V23.25H326.781V21.1172H322.594ZM332.25 23.25V21.1172H327.969V23.25H332.25ZM332.25 20.125V18.0938H327.969V20.125H332.25ZM320 29.9844C320.714 28.9115 321.247 27.513 321.602 25.7891L322.75 26.125C322.474 28.0052 321.919 29.5573 321.086 30.7812L320 29.9844ZM324.352 25.875H325.602V29.2344C325.602 29.6042 325.737 29.8229 326.008 29.8906C326.253 29.9479 326.781 29.9766 327.594 29.9766C328.688 29.9766 329.378 29.9479 329.664 29.8906C329.992 29.8229 330.193 29.612 330.266 29.2578C330.349 28.8307 330.393 28.3359 330.398 27.7734L331.633 28.1562C331.591 29.3906 331.43 30.1771 331.148 30.5156C330.904 30.8125 330.492 30.9948 329.914 31.0625C329.508 31.1146 328.849 31.1406 327.938 31.1406C326.333 31.1406 325.336 31.0495 324.945 30.8672C324.549 30.6849 324.352 30.2786 324.352 29.6484V25.875ZM328.414 28.125C327.742 26.9375 327.06 25.9349 326.367 25.1172L327.359 24.5312C328.073 25.3021 328.781 26.2708 329.484 27.4375L328.414 28.125ZM333.891 30.2266C333.021 28.388 332.177 26.9531 331.359 25.9219L332.352 25.2656C333.409 26.6146 334.294 28.0156 335.008 29.4688L333.891 30.2266ZM345.391 19.375C343.484 18.7865 341.451 18.3281 339.289 18L339.742 16.9141C342.18 17.2891 344.221 17.7578 345.867 18.3203L345.391 19.375ZM336.859 21.7578C339.833 21.1016 342.008 20.7734 343.383 20.7734C344.872 20.7734 345.979 21.1823 346.703 22C347.245 22.6146 347.516 23.4479 347.516 24.5C347.516 26.8385 346.708 28.4896 345.094 29.4531C343.958 30.1354 342.263 30.6068 340.008 30.8672L339.516 29.7266C341.646 29.4818 343.219 29.0677 344.234 28.4844C345.516 27.75 346.156 26.4349 346.156 24.5391C346.156 22.7734 345.232 21.8906 343.383 21.8906C342.195 21.8906 340.143 22.2474 337.227 22.9609L336.859 21.7578Z" fill="#E59D00"/>
<path d="M361.695 30.2988V22.0195C360.867 22.2969 360.086 22.502 359.351 22.6348L359.064 21.4453C360.303 21.1445 361.318 20.7969 362.111 20.4023H363.236V30.2988H361.695ZM369.71 25.3184C368.405 24.873 367.753 24.0898 367.753 22.9688C367.753 22.1797 368.097 21.5352 368.784 21.0352C369.421 20.5703 370.22 20.3379 371.181 20.3379C372.024 20.3379 372.747 20.5117 373.349 20.8594C374.177 21.3359 374.591 22.0039 374.591 22.8633C374.591 23.5703 374.354 24.127 373.882 24.5332C373.503 24.8613 373.048 25.0957 372.517 25.2363V25.2715C373.208 25.4941 373.731 25.7676 374.087 26.0918C374.657 26.6035 374.942 27.2051 374.942 27.8965C374.942 28.6934 374.602 29.3359 373.923 29.8242C373.231 30.3164 372.319 30.5625 371.186 30.5625C370.222 30.5625 369.419 30.3848 368.778 30.0293C367.911 29.5527 367.477 28.8555 367.477 27.9375C367.477 27.2031 367.788 26.584 368.409 26.0801C368.769 25.7871 369.202 25.5488 369.71 25.3652V25.3184ZM371.198 24.7207C371.784 24.5723 372.243 24.3438 372.575 24.0352C372.911 23.7266 373.079 23.3848 373.079 23.0098C373.079 22.584 372.917 22.2246 372.593 21.9316C372.229 21.6035 371.759 21.4395 371.181 21.4395C370.751 21.4395 370.376 21.5371 370.056 21.7324C369.567 22.0293 369.323 22.4512 369.323 22.998C369.323 23.4004 369.495 23.752 369.839 24.0527C370.073 24.2598 370.386 24.4375 370.776 24.5859C371.03 24.6836 371.171 24.7285 371.198 24.7207ZM371.116 25.9219C370.472 26.1016 369.981 26.3457 369.645 26.6543C369.278 26.9902 369.095 27.373 369.095 27.8027C369.095 28.2715 369.294 28.6504 369.692 28.9395C370.087 29.2207 370.583 29.3613 371.181 29.3613C371.661 29.3613 372.083 29.2676 372.446 29.0801C373.013 28.7832 373.296 28.3477 373.296 27.7734C373.296 27.332 373.075 26.9375 372.634 26.5898C372.317 26.3398 371.929 26.1484 371.468 26.0156C371.241 25.9492 371.124 25.918 371.116 25.9219ZM377.637 28.3301H379.605V30.2988H377.637V28.3301ZM384.708 25.3184C383.403 24.873 382.751 24.0898 382.751 22.9688C382.751 22.1797 383.095 21.5352 383.782 21.0352C384.419 20.5703 385.218 20.3379 386.179 20.3379C387.022 20.3379 387.745 20.5117 388.347 20.8594C389.175 21.3359 389.589 22.0039 389.589 22.8633C389.589 23.5703 389.353 24.127 388.88 24.5332C388.501 24.8613 388.046 25.0957 387.515 25.2363V25.2715C388.206 25.4941 388.73 25.7676 389.085 26.0918C389.655 26.6035 389.94 27.2051 389.94 27.8965C389.94 28.6934 389.601 29.3359 388.921 29.8242C388.23 30.3164 387.317 30.5625 386.185 30.5625C385.22 30.5625 384.417 30.3848 383.776 30.0293C382.909 29.5527 382.476 28.8555 382.476 27.9375C382.476 27.2031 382.786 26.584 383.407 26.0801C383.767 25.7871 384.2 25.5488 384.708 25.3652V25.3184ZM386.196 24.7207C386.782 24.5723 387.241 24.3438 387.573 24.0352C387.909 23.7266 388.077 23.3848 388.077 23.0098C388.077 22.584 387.915 22.2246 387.591 21.9316C387.228 21.6035 386.757 21.4395 386.179 21.4395C385.749 21.4395 385.374 21.5371 385.054 21.7324C384.565 22.0293 384.321 22.4512 384.321 22.998C384.321 23.4004 384.493 23.752 384.837 24.0527C385.071 24.2598 385.384 24.4375 385.774 24.5859C386.028 24.6836 386.169 24.7285 386.196 24.7207ZM386.114 25.9219C385.47 26.1016 384.98 26.3457 384.644 26.6543C384.276 26.9902 384.093 27.373 384.093 27.8027C384.093 28.2715 384.292 28.6504 384.69 28.9395C385.085 29.2207 385.581 29.3613 386.179 29.3613C386.659 29.3613 387.081 29.2676 387.444 29.0801C388.011 28.7832 388.294 28.3477 388.294 27.7734C388.294 27.332 388.073 26.9375 387.632 26.5898C387.315 26.3398 386.927 26.1484 386.466 26.0156C386.239 25.9492 386.122 25.918 386.114 25.9219ZM400.797 20.5781H401.963L394.797 30.2988H393.637L400.797 20.5781ZM394.615 20.3379C395.369 20.3379 395.965 20.6289 396.402 21.2109C396.774 21.7109 396.959 22.334 396.959 23.0801C396.959 23.7559 396.807 24.3301 396.502 24.8027C396.065 25.4824 395.432 25.8223 394.604 25.8223C393.869 25.8223 393.285 25.5488 392.852 25.002C392.453 24.502 392.254 23.8633 392.254 23.0859C392.254 22.1641 392.524 21.4453 393.063 20.9297C393.477 20.5352 393.994 20.3379 394.615 20.3379ZM394.604 21.416C394.279 21.416 394.018 21.5645 393.818 21.8613C393.615 22.166 393.514 22.5742 393.514 23.0859C393.514 23.5117 393.59 23.8711 393.742 24.1641C393.941 24.5508 394.231 24.7441 394.609 24.7441C394.91 24.7441 395.158 24.6152 395.354 24.3574C395.584 24.0488 395.699 23.625 395.699 23.0859C395.699 22.5664 395.592 22.1523 395.377 21.8438C395.182 21.5586 394.924 21.416 394.604 21.416ZM400.996 25.0547C401.727 25.0547 402.309 25.3281 402.742 25.875C403.141 26.3789 403.34 27.0176 403.34 27.791C403.34 28.4785 403.184 29.0605 402.871 29.5371C402.434 30.2051 401.805 30.5391 400.984 30.5391C400.227 30.5391 399.631 30.248 399.197 29.666C398.826 29.166 398.641 28.543 398.641 27.7969C398.641 26.8906 398.902 26.1816 399.426 25.6699C399.844 25.2598 400.367 25.0547 400.996 25.0547ZM400.984 26.1328C400.684 26.1328 400.438 26.2617 400.246 26.5195C400.016 26.832 399.9 27.2578 399.9 27.7969C399.9 28.2227 399.975 28.582 400.123 28.875C400.322 29.2656 400.613 29.4609 400.996 29.4609C401.32 29.4609 401.58 29.3125 401.775 29.0156C401.979 28.707 402.08 28.3008 402.08 27.7969C402.08 27.2812 401.973 26.8691 401.758 26.5605C401.563 26.2754 401.305 26.1328 400.984 26.1328Z" fill="#E59D00"/>
<circle cx="213.023" cy="94" r="37" fill="#F9F9F9"/>
<path d="M7.57812 142.852H8.82812V144.992H13.7734V146.094H8.82812V148.242H13.5V149.328H8.82812V151.953C10.7448 152.599 12.5417 153.531 14.2188 154.75L13.5312 155.844C12.1875 154.797 10.6198 153.878 8.82812 153.086V153.312C8.82812 154.599 8.45312 155.505 7.70312 156.031C7.16667 156.411 6.39323 156.602 5.38281 156.602C4.52865 156.602 3.77865 156.44 3.13281 156.117C2.17969 155.648 1.70312 154.966 1.70312 154.07C1.70312 153.086 2.20312 152.375 3.20312 151.938C3.89583 151.635 4.78906 151.484 5.88281 151.484C6.40365 151.484 6.96875 151.534 7.57812 151.633V149.328H1.99219V148.242H7.57812V146.094H1.70312V144.992H7.57812V142.852ZM7.57812 152.719C6.92188 152.578 6.28125 152.508 5.65625 152.508C4.91667 152.508 4.31771 152.617 3.85938 152.836C3.28646 153.107 3 153.51 3 154.047C3 154.505 3.22656 154.867 3.67969 155.133C4.11719 155.383 4.6849 155.508 5.38281 155.508C6.2526 155.508 6.85938 155.26 7.20312 154.766C7.45312 154.406 7.57812 153.901 7.57812 153.25V152.719ZM17.4609 146.992H20.6719C20.724 146.56 20.7995 145.99 20.8984 145.281L22.0156 145.391C21.9688 145.688 21.901 146.221 21.8125 146.992H27.0938V147.984H21.6953L21.6875 148.109C21.6406 148.688 21.599 149.151 21.5625 149.5L21.5547 149.602C22.1797 149.503 22.7526 149.453 23.2734 149.453C24.6745 149.453 25.8021 149.784 26.6562 150.445C27.4271 151.049 27.8125 151.891 27.8125 152.969C27.8125 154.229 27.3073 155.182 26.2969 155.828C25.5573 156.302 24.5677 156.643 23.3281 156.852L22.8203 155.906C24.0547 155.714 24.9557 155.419 25.5234 155.023C26.2839 154.497 26.6641 153.812 26.6641 152.969C26.6641 151.927 26.1771 151.172 25.2031 150.703C24.625 151.734 23.8099 152.792 22.7578 153.875C22.0859 154.562 21.3255 155.151 20.4766 155.641C19.8411 156.005 19.2474 156.188 18.6953 156.188C18.0339 156.188 17.5443 155.938 17.2266 155.438C17.0078 155.089 16.8984 154.643 16.8984 154.102C16.8984 153.133 17.3073 152.219 18.125 151.359C18.8021 150.646 19.5677 150.156 20.4219 149.891L20.4297 149.789L20.4688 149.305C20.5208 148.633 20.5573 148.193 20.5781 147.984H17.4609V146.992ZM20.3672 150.93C19.6797 151.253 19.1198 151.69 18.6875 152.242C18.2083 152.852 17.9688 153.469 17.9688 154.094C17.9688 154.828 18.2396 155.195 18.7812 155.195C19.2708 155.195 19.875 154.924 20.5938 154.383C20.4427 153.477 20.3672 152.474 20.3672 151.375C20.3672 151.281 20.3672 151.133 20.3672 150.93ZM21.4766 150.562C21.4609 150.932 21.4531 151.273 21.4531 151.586C21.4531 152.299 21.487 152.977 21.5547 153.617C22.7266 152.544 23.6016 151.477 24.1797 150.414C23.7995 150.378 23.4635 150.359 23.1719 150.359C22.6354 150.359 22.0703 150.427 21.4766 150.562ZM37.1875 142.852H38.4375V144.992H43.3828V146.094H38.4375V148.242H43.1094V149.328H38.4375V151.953C40.3542 152.599 42.151 153.531 43.8281 154.75L43.1406 155.844C41.7969 154.797 40.2292 153.878 38.4375 153.086V153.312C38.4375 154.599 38.0625 155.505 37.3125 156.031C36.776 156.411 36.0026 156.602 34.9922 156.602C34.138 156.602 33.388 156.44 32.7422 156.117C31.7891 155.648 31.3125 154.966 31.3125 154.07C31.3125 153.086 31.8125 152.375 32.8125 151.938C33.5052 151.635 34.3984 151.484 35.4922 151.484C36.013 151.484 36.5781 151.534 37.1875 151.633V149.328H31.6016V148.242H37.1875V146.094H31.3125V144.992H37.1875V142.852ZM37.1875 152.719C36.5312 152.578 35.8906 152.508 35.2656 152.508C34.526 152.508 33.9271 152.617 33.4688 152.836C32.8958 153.107 32.6094 153.51 32.6094 154.047C32.6094 154.505 32.8359 154.867 33.2891 155.133C33.7266 155.383 34.2943 155.508 34.9922 155.508C35.862 155.508 36.4688 155.26 36.8125 154.766C37.0625 154.406 37.1875 153.901 37.1875 153.25V152.719ZM47.0703 146.992H50.2812C50.3333 146.56 50.4089 145.99 50.5078 145.281L51.625 145.391C51.5781 145.688 51.5104 146.221 51.4219 146.992H56.7031V147.984H51.3047L51.2969 148.109C51.25 148.688 51.2083 149.151 51.1719 149.5L51.1641 149.602C51.7891 149.503 52.362 149.453 52.8828 149.453C54.2839 149.453 55.4115 149.784 56.2656 150.445C57.0365 151.049 57.4219 151.891 57.4219 152.969C57.4219 154.229 56.9167 155.182 55.9062 155.828C55.1667 156.302 54.1771 156.643 52.9375 156.852L52.4297 155.906C53.6641 155.714 54.5651 155.419 55.1328 155.023C55.8932 154.497 56.2734 153.812 56.2734 152.969C56.2734 151.927 55.7865 151.172 54.8125 150.703C54.2344 151.734 53.4193 152.792 52.3672 153.875C51.6953 154.562 50.9349 155.151 50.0859 155.641C49.4505 156.005 48.8568 156.188 48.3047 156.188C47.6432 156.188 47.1536 155.938 46.8359 155.438C46.6172 155.089 46.5078 154.643 46.5078 154.102C46.5078 153.133 46.9167 152.219 47.7344 151.359C48.4115 150.646 49.1771 150.156 50.0312 149.891L50.0391 149.789L50.0781 149.305C50.1302 148.633 50.1667 148.193 50.1875 147.984H47.0703V146.992ZM49.9766 150.93C49.2891 151.253 48.7292 151.69 48.2969 152.242C47.8177 152.852 47.5781 153.469 47.5781 154.094C47.5781 154.828 47.849 155.195 48.3906 155.195C48.8802 155.195 49.4844 154.924 50.2031 154.383C50.0521 153.477 49.9766 152.474 49.9766 151.375C49.9766 151.281 49.9766 151.133 49.9766 150.93ZM51.0859 150.562C51.0703 150.932 51.0625 151.273 51.0625 151.586C51.0625 152.299 51.0964 152.977 51.1641 153.617C52.3359 152.544 53.2109 151.477 53.7891 150.414C53.4089 150.378 53.0729 150.359 52.7812 150.359C52.2448 150.359 51.6797 150.427 51.0859 150.562ZM73.4844 143.086V150.227H61.3594V143.086H73.4844ZM62.5938 144.094V146.125H66.7812V144.094H62.5938ZM62.5938 147.117V149.25H66.7812V147.117H62.5938ZM72.25 149.25V147.117H67.9688V149.25H72.25ZM72.25 146.125V144.094H67.9688V146.125H72.25ZM60 155.984C60.7135 154.911 61.2474 153.513 61.6016 151.789L62.75 152.125C62.474 154.005 61.9193 155.557 61.0859 156.781L60 155.984ZM64.3516 151.875H65.6016V155.234C65.6016 155.604 65.737 155.823 66.0078 155.891C66.2526 155.948 66.7812 155.977 67.5938 155.977C68.6875 155.977 69.3776 155.948 69.6641 155.891C69.9922 155.823 70.1927 155.612 70.2656 155.258C70.349 154.831 70.3932 154.336 70.3984 153.773L71.6328 154.156C71.5911 155.391 71.4297 156.177 71.1484 156.516C70.9036 156.812 70.4922 156.995 69.9141 157.062C69.5078 157.115 68.849 157.141 67.9375 157.141C66.3333 157.141 65.3359 157.049 64.9453 156.867C64.5495 156.685 64.3516 156.279 64.3516 155.648V151.875ZM68.4141 154.125C67.7422 152.938 67.0599 151.935 66.3672 151.117L67.3594 150.531C68.0729 151.302 68.7812 152.271 69.4844 153.438L68.4141 154.125ZM73.8906 156.227C73.0208 154.388 72.1771 152.953 71.3594 151.922L72.3516 151.266C73.4089 152.615 74.2943 154.016 75.0078 155.469L73.8906 156.227ZM85.3906 145.375C83.4844 144.786 81.4505 144.328 79.2891 144L79.7422 142.914C82.1797 143.289 84.2214 143.758 85.8672 144.32L85.3906 145.375ZM76.8594 147.758C79.8333 147.102 82.0078 146.773 83.3828 146.773C84.8724 146.773 85.9792 147.182 86.7031 148C87.2448 148.615 87.5156 149.448 87.5156 150.5C87.5156 152.839 86.7083 154.49 85.0938 155.453C83.9583 156.135 82.263 156.607 80.0078 156.867L79.5156 155.727C81.6458 155.482 83.2188 155.068 84.2344 154.484C85.5156 153.75 86.1562 152.435 86.1562 150.539C86.1562 148.773 85.2318 147.891 83.3828 147.891C82.1953 147.891 80.1432 148.247 77.2266 148.961L76.8594 147.758Z" fill="#DC6B34"/>
<path d="M99.455 145.578H106.838V146.814C106.158 147.908 105.488 149.342 104.828 151.115C104.238 152.701 103.809 154.096 103.539 155.299H101.904C102.232 153.791 102.787 152.141 103.568 150.348C104.326 148.613 104.871 147.484 105.203 146.961H100.908V148.953H99.455V145.578ZM113.071 145.338C114.302 145.338 115.255 145.871 115.931 146.938C116.497 147.828 116.78 149.002 116.78 150.459C116.78 151.791 116.54 152.889 116.06 153.752C115.392 154.959 114.39 155.562 113.054 155.562C111.854 155.562 110.919 155.062 110.247 154.062C109.642 153.164 109.339 151.963 109.339 150.459C109.339 148.896 109.663 147.66 110.311 146.75C110.983 145.809 111.903 145.338 113.071 145.338ZM113.054 146.598C112.421 146.598 111.921 146.945 111.554 147.641C111.198 148.32 111.02 149.26 111.02 150.459C111.02 151.58 111.183 152.475 111.507 153.143C111.878 153.9 112.397 154.279 113.065 154.279C113.651 154.279 114.126 153.975 114.489 153.365C114.895 152.682 115.099 151.713 115.099 150.459C115.099 149.268 114.923 148.332 114.571 147.652C114.204 146.949 113.698 146.598 113.054 146.598ZM119.416 153.33H121.385V155.299H119.416V153.33ZM126.487 150.318C125.183 149.873 124.53 149.09 124.53 147.969C124.53 147.18 124.874 146.535 125.562 146.035C126.198 145.57 126.997 145.338 127.958 145.338C128.802 145.338 129.524 145.512 130.126 145.859C130.954 146.336 131.368 147.004 131.368 147.863C131.368 148.57 131.132 149.127 130.659 149.533C130.28 149.861 129.825 150.096 129.294 150.236V150.271C129.985 150.494 130.509 150.768 130.864 151.092C131.435 151.604 131.72 152.205 131.72 152.896C131.72 153.693 131.38 154.336 130.7 154.824C130.009 155.316 129.097 155.562 127.964 155.562C126.999 155.562 126.196 155.385 125.556 155.029C124.689 154.553 124.255 153.855 124.255 152.938C124.255 152.203 124.565 151.584 125.187 151.08C125.546 150.787 125.98 150.549 126.487 150.365V150.318ZM127.976 149.721C128.562 149.572 129.021 149.344 129.353 149.035C129.689 148.727 129.856 148.385 129.856 148.01C129.856 147.584 129.694 147.225 129.37 146.932C129.007 146.604 128.536 146.439 127.958 146.439C127.528 146.439 127.153 146.537 126.833 146.732C126.345 147.029 126.101 147.451 126.101 147.998C126.101 148.4 126.272 148.752 126.616 149.053C126.851 149.26 127.163 149.438 127.554 149.586C127.808 149.684 127.948 149.729 127.976 149.721ZM127.894 150.922C127.249 151.102 126.759 151.346 126.423 151.654C126.056 151.99 125.872 152.373 125.872 152.803C125.872 153.271 126.071 153.65 126.47 153.939C126.864 154.221 127.36 154.361 127.958 154.361C128.439 154.361 128.86 154.268 129.224 154.08C129.79 153.783 130.073 153.348 130.073 152.773C130.073 152.332 129.853 151.938 129.411 151.59C129.095 151.34 128.706 151.148 128.245 151.016C128.019 150.949 127.901 150.918 127.894 150.922ZM142.576 145.578H143.742L136.576 155.299H135.416L142.576 145.578ZM136.395 145.338C137.149 145.338 137.744 145.629 138.182 146.211C138.553 146.711 138.738 147.334 138.738 148.08C138.738 148.756 138.586 149.33 138.281 149.803C137.844 150.482 137.211 150.822 136.383 150.822C135.649 150.822 135.065 150.549 134.631 150.002C134.232 149.502 134.033 148.863 134.033 148.086C134.033 147.164 134.303 146.445 134.842 145.93C135.256 145.535 135.774 145.338 136.395 145.338ZM136.383 146.416C136.059 146.416 135.797 146.564 135.598 146.861C135.395 147.166 135.293 147.574 135.293 148.086C135.293 148.512 135.369 148.871 135.522 149.164C135.721 149.551 136.01 149.744 136.389 149.744C136.69 149.744 136.938 149.615 137.133 149.357C137.363 149.049 137.479 148.625 137.479 148.086C137.479 147.566 137.371 147.152 137.156 146.844C136.961 146.559 136.703 146.416 136.383 146.416ZM142.775 150.055C143.506 150.055 144.088 150.328 144.522 150.875C144.92 151.379 145.119 152.018 145.119 152.791C145.119 153.479 144.963 154.061 144.65 154.537C144.213 155.205 143.584 155.539 142.764 155.539C142.006 155.539 141.41 155.248 140.977 154.666C140.606 154.166 140.42 153.543 140.42 152.797C140.42 151.891 140.682 151.182 141.205 150.67C141.623 150.26 142.147 150.055 142.775 150.055ZM142.764 151.133C142.463 151.133 142.217 151.262 142.025 151.52C141.795 151.832 141.68 152.258 141.68 152.797C141.68 153.223 141.754 153.582 141.902 153.875C142.102 154.266 142.393 154.461 142.775 154.461C143.1 154.461 143.359 154.312 143.555 154.016C143.758 153.707 143.859 153.301 143.859 152.797C143.859 152.281 143.752 151.869 143.537 151.561C143.342 151.275 143.084 151.133 142.764 151.133Z" fill="#DC6B34"/>
<path d="M17.5938 2.86719H21.5312C21.5781 2.32552 21.6641 1.63281 21.7891 0.789062L23.0312 0.945312C22.9115 1.71615 22.8229 2.35677 22.7656 2.86719H29.2109V3.96875H22.6484C22.5755 4.67188 22.513 5.375 22.4609 6.07812C23.2005 5.95312 23.9141 5.89062 24.6016 5.89062C26.4609 5.89062 27.888 6.34635 28.8828 7.25781C29.7005 8.0026 30.1094 8.96354 30.1094 10.1406C30.1094 12.6823 28.3151 14.224 24.7266 14.7656L24.1719 13.7422C27.2656 13.2943 28.8125 12.0807 28.8125 10.1016C28.8125 8.73698 28.1979 7.80208 26.9688 7.29688C25.901 9.18229 24.5495 10.7812 22.9141 12.0938C22.0026 12.8281 21.2057 13.3411 20.5234 13.6328C20.0182 13.8516 19.5156 13.9609 19.0156 13.9609C18.3542 13.9609 17.8385 13.7448 17.4688 13.3125C17.1042 12.8854 16.9219 12.2786 16.9219 11.4922C16.9219 10.2891 17.4089 9.1849 18.3828 8.17969C19.1589 7.38281 20.1016 6.78906 21.2109 6.39844C21.263 5.58594 21.3307 4.77604 21.4141 3.96875H17.5938V2.86719ZM21.1641 7.55469C20.2422 7.9401 19.5 8.51042 18.9375 9.26562C18.375 10.0312 18.0938 10.776 18.0938 11.5C18.0938 12.4219 18.4401 12.8828 19.1328 12.8828C19.7109 12.8828 20.4661 12.5469 21.3984 11.875C21.2318 10.8385 21.1484 9.70312 21.1484 8.46875C21.1484 8.19792 21.1536 7.89323 21.1641 7.55469ZM22.3594 7.17188C22.3542 7.60417 22.3516 7.97135 22.3516 8.27344C22.3516 9.29427 22.3984 10.2057 22.4922 11.0078C23.9714 9.67448 25.0807 8.33073 25.8203 6.97656C25.5026 6.92969 25.1302 6.90625 24.7031 6.90625C23.8333 6.90625 23.0521 6.99479 22.3594 7.17188ZM38.7031 0.851562H39.9531V2.99219H44.8984V4.09375H39.9531V6.24219H44.625V7.32812H39.9531V9.95312C41.8698 10.599 43.6667 11.5312 45.3438 12.75L44.6562 13.8438C43.3125 12.7969 41.7448 11.8776 39.9531 11.0859V11.3125C39.9531 12.599 39.5781 13.5052 38.8281 14.0312C38.2917 14.4115 37.5182 14.6016 36.5078 14.6016C35.6536 14.6016 34.9036 14.4401 34.2578 14.1172C33.3047 13.6484 32.8281 12.9661 32.8281 12.0703C32.8281 11.0859 33.3281 10.375 34.3281 9.9375C35.0208 9.63542 35.9141 9.48438 37.0078 9.48438C37.5286 9.48438 38.0938 9.53385 38.7031 9.63281V7.32812H33.1172V6.24219H38.7031V4.09375H32.8281V2.99219H38.7031V0.851562ZM38.7031 10.7188C38.0469 10.5781 37.4062 10.5078 36.7812 10.5078C36.0417 10.5078 35.4427 10.6172 34.9844 10.8359C34.4115 11.1068 34.125 11.5104 34.125 12.0469C34.125 12.5052 34.3516 12.8672 34.8047 13.1328C35.2422 13.3828 35.8099 13.5078 36.5078 13.5078C37.3776 13.5078 37.9844 13.2604 38.3281 12.7656C38.5781 12.4062 38.7031 11.901 38.7031 11.25V10.7188ZM52.4219 7.52344C51.9375 8.38281 51.4453 9.04427 50.9453 9.50781C50.5078 9.90885 50.1276 10.1094 49.8047 10.1094C48.8411 10.1094 48.3594 8.67188 48.3594 5.79688C48.3594 4.36458 48.526 2.8151 48.8594 1.14844L50.1016 1.32812C49.7839 3.09896 49.625 4.59896 49.625 5.82812C49.625 7.66146 49.7656 8.57812 50.0469 8.57812C50.1406 8.57812 50.2995 8.46094 50.5234 8.22656C50.9661 7.75781 51.349 7.19271 51.6719 6.53125L52.4219 7.52344ZM51.7656 13.7891C53.3438 13.3516 54.5443 12.6536 55.3672 11.6953C56.3255 10.5807 56.8047 8.91406 56.8047 6.69531C56.8047 5.10156 56.6406 3.23698 56.3125 1.10156L57.6094 0.976562C57.9583 3.0651 58.1328 4.99219 58.1328 6.75781C58.1328 9.46094 57.5 11.4427 56.2344 12.7031C55.3438 13.5938 54.0833 14.3151 52.4531 14.8672L51.7656 13.7891ZM74.5156 1.08594V8.22656H62.3906V1.08594H74.5156ZM63.625 2.09375V4.125H67.8125V2.09375H63.625ZM63.625 5.11719V7.25H67.8125V5.11719H63.625ZM73.2812 7.25V5.11719H69V7.25H73.2812ZM73.2812 4.125V2.09375H69V4.125H73.2812ZM61.0312 13.9844C61.7448 12.9115 62.2786 11.513 62.6328 9.78906L63.7812 10.125C63.5052 12.0052 62.9505 13.5573 62.1172 14.7812L61.0312 13.9844ZM65.3828 9.875H66.6328V13.2344C66.6328 13.6042 66.7682 13.8229 67.0391 13.8906C67.2839 13.9479 67.8125 13.9766 68.625 13.9766C69.7188 13.9766 70.4089 13.9479 70.6953 13.8906C71.0234 13.8229 71.224 13.612 71.2969 13.2578C71.3802 12.8307 71.4245 12.3359 71.4297 11.7734L72.6641 12.1562C72.6224 13.3906 72.4609 14.1771 72.1797 14.5156C71.9349 14.8125 71.5234 14.9948 70.9453 15.0625C70.5391 15.1146 69.8802 15.1406 68.9688 15.1406C67.3646 15.1406 66.3672 15.0495 65.9766 14.8672C65.5807 14.6849 65.3828 14.2786 65.3828 13.6484V9.875ZM69.4453 12.125C68.7734 10.9375 68.0911 9.9349 67.3984 9.11719L68.3906 8.53125C69.1042 9.30208 69.8125 10.2708 70.5156 11.4375L69.4453 12.125ZM74.9219 14.2266C74.0521 12.388 73.2083 10.9531 72.3906 9.92188L73.3828 9.26562C74.4401 10.6146 75.3255 12.0156 76.0391 13.4688L74.9219 14.2266ZM80.4219 0.914062H81.6719V5.26562C83.3333 3.67708 85.013 2.88281 86.7109 2.88281C88.0807 2.88281 89.1719 3.35677 89.9844 4.30469C90.2917 4.66927 90.5547 5.09635 90.7734 5.58594C91.1068 6.34115 91.2734 7.11979 91.2734 7.92188C91.2734 10.1458 90.6172 11.7083 89.3047 12.6094C88.388 13.2448 87.0443 13.7135 85.2734 14.0156L84.6953 12.875C86.4141 12.6354 87.6901 12.2109 88.5234 11.6016C89.1328 11.1536 89.5417 10.5547 89.75 9.80469C89.8906 9.29427 89.9609 8.66406 89.9609 7.91406C89.9609 6.83594 89.6562 5.89844 89.0469 5.10156C88.5 4.38802 87.7161 4.03125 86.6953 4.03125C85.6693 4.03125 84.7318 4.32552 83.8828 4.91406C83.1641 5.41406 82.4271 6.07812 81.6719 6.90625V14.7656H80.4219V8.30469C79.9062 8.96094 79.0729 10.0807 77.9219 11.6641L77.7031 11.9688L77.0781 10.5703C78.276 9.24219 79.3906 7.84115 80.4219 6.36719V4.76562H77.5234V3.64844H80.4219V0.914062ZM102.039 5.9375H103.305V10.3359C104.487 10.8568 105.74 11.5703 107.062 12.4766L106.391 13.5547C105.339 12.7891 104.31 12.1484 103.305 11.6328C103.279 13.6901 102.229 14.7188 100.156 14.7188C99.2135 14.7188 98.4401 14.5182 97.8359 14.1172C97.1693 13.6745 96.8359 13.0521 96.8359 12.25C96.8359 11.6771 97.0312 11.1745 97.4219 10.7422C98.0521 10.0443 99.0443 9.69531 100.398 9.69531C100.904 9.69531 101.451 9.76562 102.039 9.90625V5.9375ZM102.039 11.0859C101.404 10.862 100.794 10.75 100.211 10.75C99.638 10.75 99.1693 10.8438 98.8047 11.0312C98.2734 11.3073 98.0078 11.7057 98.0078 12.2266C98.0078 12.6589 98.2083 13.0104 98.6094 13.2812C98.9844 13.5365 99.4974 13.6641 100.148 13.6641C100.883 13.6641 101.417 13.3776 101.75 12.8047C101.943 12.4714 102.039 12.0703 102.039 11.6016V11.0859ZM93.7344 3.23438H96.6172C96.8516 2.46354 97.0807 1.63802 97.3047 0.757812L98.5547 0.929688C98.3411 1.70573 98.1172 2.47396 97.8828 3.23438H100.859V4.35156H97.5156C96.5938 7.02865 95.5312 9.26823 94.3281 11.0703L93.2578 10.4453C94.3828 8.79948 95.3802 6.76823 96.25 4.35156H93.7344V3.23438ZM106.523 6.51562C105.419 5.30208 104.159 4.20312 102.742 3.21875L103.484 2.36719C104.839 3.23698 106.138 4.29948 107.383 5.55469L106.523 6.51562ZM115.805 10.5234C115.378 11.7474 114.88 12.7474 114.312 13.5234C113.865 14.1328 113.383 14.4375 112.867 14.4375C112.096 14.4375 111.43 13.8568 110.867 12.6953C110.404 11.7474 110.094 10.6901 109.938 9.52344C109.75 8.15365 109.656 6.58594 109.656 4.82031C109.656 3.92448 109.69 3 109.758 2.04688L111.055 2.14062C110.997 2.98958 110.969 3.8099 110.969 4.60156C110.969 7.01302 111.107 8.85156 111.383 10.1172C111.596 11.1224 111.87 11.8724 112.203 12.3672C112.453 12.7422 112.672 12.9297 112.859 12.9297C113.047 12.9297 113.276 12.7266 113.547 12.3203C113.964 11.7057 114.38 10.8411 114.797 9.72656L115.805 10.5234ZM121.18 12.0625C120.909 9.97396 120.583 8.23438 120.203 6.84375C119.812 5.43229 119.292 4.05208 118.641 2.70312L119.82 2.41406C120.57 3.88281 121.156 5.35417 121.578 6.82812C121.938 8.10417 122.242 9.74219 122.492 11.7422L121.18 12.0625Z" fill="#2861D4"/>
<path d="M135.695 13.2988V5.01953C134.867 5.29688 134.086 5.50195 133.351 5.63477L133.064 4.44531C134.303 4.14453 135.318 3.79687 136.111 3.40234H137.236V13.2988H135.695ZM143.71 8.31836C142.405 7.87305 141.753 7.08984 141.753 5.96875C141.753 5.17969 142.097 4.53516 142.784 4.03516C143.421 3.57031 144.22 3.33789 145.181 3.33789C146.024 3.33789 146.747 3.51172 147.349 3.85938C148.177 4.33594 148.591 5.00391 148.591 5.86328C148.591 6.57031 148.354 7.12695 147.882 7.5332C147.503 7.86133 147.048 8.0957 146.517 8.23633V8.27148C147.208 8.49414 147.731 8.76758 148.087 9.0918C148.657 9.60352 148.942 10.2051 148.942 10.8965C148.942 11.6934 148.602 12.3359 147.923 12.8242C147.231 13.3164 146.319 13.5625 145.186 13.5625C144.222 13.5625 143.419 13.3848 142.778 13.0293C141.911 12.5527 141.477 11.8555 141.477 10.9375C141.477 10.2031 141.788 9.58398 142.409 9.08008C142.769 8.78711 143.202 8.54883 143.71 8.36523V8.31836ZM145.198 7.7207C145.784 7.57227 146.243 7.34375 146.575 7.03516C146.911 6.72656 147.079 6.38477 147.079 6.00977C147.079 5.58398 146.917 5.22461 146.593 4.93164C146.229 4.60352 145.759 4.43945 145.181 4.43945C144.751 4.43945 144.376 4.53711 144.056 4.73242C143.567 5.0293 143.323 5.45117 143.323 5.99805C143.323 6.40039 143.495 6.75195 143.839 7.05273C144.073 7.25977 144.386 7.4375 144.776 7.58594C145.03 7.68359 145.171 7.72852 145.198 7.7207ZM145.116 8.92188C144.472 9.10156 143.981 9.3457 143.645 9.6543C143.278 9.99023 143.095 10.373 143.095 10.8027C143.095 11.2715 143.294 11.6504 143.692 11.9395C144.087 12.2207 144.583 12.3613 145.181 12.3613C145.661 12.3613 146.083 12.2676 146.446 12.0801C147.013 11.7832 147.296 11.3477 147.296 10.7734C147.296 10.332 147.075 9.9375 146.634 9.58984C146.317 9.33984 145.929 9.14844 145.468 9.01562C145.241 8.94922 145.124 8.91797 145.116 8.92188ZM151.637 11.3301H153.605V13.2988H151.637V11.3301ZM158.708 8.31836C157.403 7.87305 156.751 7.08984 156.751 5.96875C156.751 5.17969 157.095 4.53516 157.782 4.03516C158.419 3.57031 159.218 3.33789 160.179 3.33789C161.022 3.33789 161.745 3.51172 162.347 3.85938C163.175 4.33594 163.589 5.00391 163.589 5.86328C163.589 6.57031 163.353 7.12695 162.88 7.5332C162.501 7.86133 162.046 8.0957 161.515 8.23633V8.27148C162.206 8.49414 162.73 8.76758 163.085 9.0918C163.655 9.60352 163.94 10.2051 163.94 10.8965C163.94 11.6934 163.601 12.3359 162.921 12.8242C162.23 13.3164 161.317 13.5625 160.185 13.5625C159.22 13.5625 158.417 13.3848 157.776 13.0293C156.909 12.5527 156.476 11.8555 156.476 10.9375C156.476 10.2031 156.786 9.58398 157.407 9.08008C157.767 8.78711 158.2 8.54883 158.708 8.36523V8.31836ZM160.196 7.7207C160.782 7.57227 161.241 7.34375 161.573 7.03516C161.909 6.72656 162.077 6.38477 162.077 6.00977C162.077 5.58398 161.915 5.22461 161.591 4.93164C161.228 4.60352 160.757 4.43945 160.179 4.43945C159.749 4.43945 159.374 4.53711 159.054 4.73242C158.565 5.0293 158.321 5.45117 158.321 5.99805C158.321 6.40039 158.493 6.75195 158.837 7.05273C159.071 7.25977 159.384 7.4375 159.774 7.58594C160.028 7.68359 160.169 7.72852 160.196 7.7207ZM160.114 8.92188C159.47 9.10156 158.98 9.3457 158.644 9.6543C158.276 9.99023 158.093 10.373 158.093 10.8027C158.093 11.2715 158.292 11.6504 158.69 11.9395C159.085 12.2207 159.581 12.3613 160.179 12.3613C160.659 12.3613 161.081 12.2676 161.444 12.0801C162.011 11.7832 162.294 11.3477 162.294 10.7734C162.294 10.332 162.073 9.9375 161.632 9.58984C161.315 9.33984 160.927 9.14844 160.466 9.01562C160.239 8.94922 160.122 8.91797 160.114 8.92188ZM174.797 3.57812H175.963L168.797 13.2988H167.637L174.797 3.57812ZM168.615 3.33789C169.369 3.33789 169.965 3.62891 170.402 4.21094C170.774 4.71094 170.959 5.33398 170.959 6.08008C170.959 6.75586 170.807 7.33008 170.502 7.80273C170.065 8.48242 169.432 8.82227 168.604 8.82227C167.869 8.82227 167.285 8.54883 166.852 8.00195C166.453 7.50195 166.254 6.86328 166.254 6.08594C166.254 5.16406 166.524 4.44531 167.063 3.92969C167.477 3.53516 167.994 3.33789 168.615 3.33789ZM168.604 4.41602C168.279 4.41602 168.018 4.56445 167.818 4.86133C167.615 5.16602 167.514 5.57422 167.514 6.08594C167.514 6.51172 167.59 6.87109 167.742 7.16406C167.941 7.55078 168.231 7.74414 168.609 7.74414C168.91 7.74414 169.158 7.61523 169.354 7.35742C169.584 7.04883 169.699 6.625 169.699 6.08594C169.699 5.56641 169.592 5.15234 169.377 4.84375C169.182 4.55859 168.924 4.41602 168.604 4.41602ZM174.996 8.05469C175.727 8.05469 176.309 8.32812 176.742 8.875C177.141 9.37891 177.34 10.0176 177.34 10.791C177.34 11.4785 177.184 12.0605 176.871 12.5371C176.434 13.2051 175.805 13.5391 174.984 13.5391C174.227 13.5391 173.631 13.248 173.197 12.666C172.826 12.166 172.641 11.543 172.641 10.7969C172.641 9.89062 172.902 9.18164 173.426 8.66992C173.844 8.25977 174.367 8.05469 174.996 8.05469ZM174.984 9.13281C174.684 9.13281 174.438 9.26172 174.246 9.51953C174.016 9.83203 173.9 10.2578 173.9 10.7969C173.9 11.2227 173.975 11.582 174.123 11.875C174.322 12.2656 174.613 12.4609 174.996 12.4609C175.32 12.4609 175.58 12.3125 175.775 12.0156C175.979 11.707 176.08 11.3008 176.08 10.7969C176.08 10.2812 175.973 9.86914 175.758 9.56055C175.563 9.27539 175.305 9.13281 174.984 9.13281Z" fill="#2861D4"/>
</svg>
