<svg width="81" height="76" viewBox="0 0 81 76" fill="none" xmlns="http://www.w3.org/2000/svg">
<path d="M60.4714 25.7227C67.5184 25.7227 73.2312 20.0106 73.2312 12.963C73.2312 5.91537 67.5183 0.203125 60.4714 0.203125C53.4238 0.203125 47.7109 5.91521 47.7109 12.9628C47.7109 20.0105 53.4237 25.7227 60.4714 25.7227Z" fill="#65C0C8"/>
<path d="M81 66.7812H0V75.2135H81V66.7812Z" fill="#65C0C8"/>
<path d="M56.5946 64.562H74.2368V42.8141C74.2368 35.2162 68.0768 29.0547 60.4781 29.0547C52.8789 29.0547 46.7188 35.2162 46.7188 42.8141V55.6844H56.5944L56.5946 64.562Z" fill="#65C0C8"/>
<path d="M20.1602 64.5601H41.4271H54.3716V57.9016H38.3659L31.6255 39.5938H0.1875L9.98834 64.5601H20.1602Z" fill="#65C0C8"/>
</svg>
