<svg width="390" height="209" viewBox="0 0 390 209" fill="none" xmlns="http://www.w3.org/2000/svg">
<ellipse cx="200.025" cy="102.5" rx="74" ry="74.5" fill="#F59160"/>
<path d="M274.023 102.5C274.023 102.5 240.893 102.5 200.023 102.5C159.154 102.5 126.023 143.645 126.023 102.5C126.023 61.3548 159.154 28 200.023 28C240.893 28 274.023 61.3548 274.023 102.5Z" fill="#F4D45F"/>
<path d="M200.024 102.5H200.028C200.024 102.5 142.203 56 142.205 56C155.765 38.9323 176.627 28 200.024 28C200.024 29.5 200.024 104 200.024 102.5Z" fill="#8CF56F"/>
<path d="M200.023 102.502L126.824 113.502C126.297 109.912 126.023 106.239 126.023 102.502C126.023 83.6205 133 66.3798 144.5 53.25L200.023 102.502Z" fill="#60C5F5"/>
<path d="M200.024 102.5L224.5 172.828C216.839 175.53 208.602 177 200.024 177C180.244 177 162.276 169.186 149 156.458C148.994 156.458 200.024 102.5 200.026 102.5C200.026 102.5 200.026 102.5 200.024 102.5Z" fill="#F59160"/>
<path d="M145.404 51.995L199.89 102.068C199.89 102.068 148.636 156.136 149.479 156.922C121.993 131.663 118.091 90.2832 138.836 60.2195C140.804 57.3684 142.993 54.6191 145.404 51.995Z" fill="#6091F5"/>
<path d="M312.453 69.0703H313.703V71.9688H316.969V73.0859H313.703V78.2344C314.953 78.8125 316.174 79.6198 317.367 80.6562L316.695 81.7578C315.732 80.8776 314.734 80.125 313.703 79.5C313.677 80.5781 313.44 81.3568 312.992 81.8359C312.508 82.362 311.745 82.625 310.703 82.625C309.729 82.625 308.924 82.4219 308.289 82.0156C307.565 81.5521 307.203 80.8984 307.203 80.0547C307.203 79.263 307.536 78.638 308.203 78.1797C308.828 77.7474 309.628 77.5312 310.602 77.5312C311.154 77.5312 311.771 77.6172 312.453 77.7891V73.0859H307.203V71.9688H312.453V69.0703ZM312.453 78.9297C311.812 78.7005 311.185 78.5859 310.57 78.5859C309.956 78.5859 309.458 78.6953 309.078 78.9141C308.641 79.1693 308.422 79.5365 308.422 80.0156C308.422 80.5469 308.677 80.9375 309.188 81.1875C309.573 81.3802 310.081 81.4766 310.711 81.4766C311.872 81.4766 312.453 80.776 312.453 79.375V78.9297ZM304.008 82.5938C303.826 80.8698 303.734 79.1068 303.734 77.3047C303.734 74.4401 303.922 71.7161 304.297 69.1328L305.531 69.3281C305.151 71.4896 304.961 73.9635 304.961 76.75C304.961 78.6875 305.065 80.5651 305.273 82.3828L304.008 82.5938ZM325.805 78.5234C325.378 79.7474 324.88 80.7474 324.312 81.5234C323.865 82.1328 323.383 82.4375 322.867 82.4375C322.096 82.4375 321.43 81.8568 320.867 80.6953C320.404 79.7474 320.094 78.6901 319.938 77.5234C319.75 76.1536 319.656 74.5859 319.656 72.8203C319.656 71.9245 319.69 71 319.758 70.0469L321.055 70.1406C320.997 70.9896 320.969 71.8099 320.969 72.6016C320.969 75.013 321.107 76.8516 321.383 78.1172C321.596 79.1224 321.87 79.8724 322.203 80.3672C322.453 80.7422 322.672 80.9297 322.859 80.9297C323.047 80.9297 323.276 80.7266 323.547 80.3203C323.964 79.7057 324.38 78.8411 324.797 77.7266L325.805 78.5234ZM331.18 80.0625C330.909 77.974 330.583 76.2344 330.203 74.8438C329.812 73.4323 329.292 72.0521 328.641 70.7031L329.82 70.4141C330.57 71.8828 331.156 73.3542 331.578 74.8281C331.938 76.1042 332.242 77.7422 332.492 79.7422L331.18 80.0625Z" fill="#E59D00"/>
<path d="M345.242 76.5742H346.057C346.744 76.5742 347.297 76.4512 347.715 76.2051C348.226 75.9043 348.482 75.4922 348.482 74.9688C348.482 74.5352 348.295 74.1914 347.92 73.9375C347.588 73.7148 347.174 73.6035 346.678 73.6035C345.779 73.6035 344.916 73.9473 344.088 74.6348L343.238 73.5859C344.242 72.7812 345.424 72.3789 346.783 72.3789C347.693 72.3789 348.441 72.5664 349.027 72.9414C349.734 73.3984 350.088 74.0449 350.088 74.8809C350.088 75.5215 349.844 76.0703 349.355 76.5273C348.976 76.8789 348.476 77.0996 347.855 77.1895V77.2363C348.66 77.3691 349.275 77.6348 349.701 78.0332C350.142 78.4473 350.363 79 350.363 79.6914C350.363 80.6992 349.955 81.4531 349.139 81.9531C348.525 82.3281 347.721 82.5156 346.725 82.5156C345.154 82.5156 343.881 82.0352 342.904 81.0742L343.789 80.0195C344.101 80.3516 344.504 80.625 344.996 80.8398C345.594 81.1016 346.174 81.2324 346.736 81.2324C347.369 81.2324 347.863 81.0996 348.219 80.834C348.562 80.5801 348.734 80.1914 348.734 79.668C348.734 78.9492 348.389 78.4395 347.697 78.1387C347.232 77.9355 346.674 77.834 346.021 77.834H345.242V76.5742ZM358.899 77.8223C358.688 78.1582 358.409 78.4277 358.061 78.6309C357.589 78.9004 357.056 79.0352 356.462 79.0352C355.591 79.0352 354.852 78.7598 354.247 78.209C353.587 77.6113 353.257 76.8164 353.257 75.8242C353.257 74.9258 353.517 74.1738 354.036 73.5684C354.727 72.7559 355.638 72.3496 356.767 72.3496C357.97 72.3496 358.903 72.7695 359.567 73.6094C360.169 74.3633 360.47 75.4668 360.47 76.9199C360.47 78.3262 360.145 79.4922 359.497 80.418C359.013 81.1094 358.311 81.6484 357.394 82.0352C356.749 82.3047 355.946 82.5176 354.985 82.6738L354.335 81.3789C355.714 81.2578 356.767 80.9336 357.493 80.4062C358.286 79.8281 358.774 78.9668 358.958 77.8223H358.899ZM356.761 73.6094C356.167 73.6094 355.683 73.834 355.308 74.2832C354.987 74.666 354.827 75.1621 354.827 75.7715C354.827 76.3535 354.983 76.8203 355.296 77.1719C355.675 77.6055 356.151 77.8223 356.726 77.8223C357.394 77.8223 357.917 77.5762 358.296 77.084C358.601 76.6934 358.753 76.2656 358.753 75.8008C358.753 75.2227 358.608 74.7441 358.319 74.3652C357.936 73.8613 357.417 73.6094 356.761 73.6094ZM363.416 80.3301H365.385V82.2988H363.416V80.3301ZM370.077 77.248C370.616 76.4316 371.419 76.0234 372.485 76.0234C373.349 76.0234 374.087 76.2949 374.7 76.8379C375.372 77.4355 375.708 78.1973 375.708 79.123C375.708 80.0723 375.407 80.8633 374.806 81.4961C374.169 82.168 373.323 82.5039 372.269 82.5039C371.034 82.5039 370.058 82.0469 369.339 81.1328C368.761 80.3945 368.472 79.3574 368.472 78.0215C368.472 77.0918 368.737 76.168 369.269 75.25C370.159 73.6992 371.653 72.6777 373.751 72.1855L374.302 73.334C372.942 73.7285 371.964 74.2207 371.366 74.8105C370.608 75.5566 370.163 76.3691 370.03 77.248H370.077ZM372.204 77.1543C371.61 77.1543 371.105 77.3906 370.687 77.8633C370.355 78.2344 370.189 78.6348 370.189 79.0645C370.189 79.5254 370.319 79.9473 370.581 80.3301C371.003 80.9473 371.554 81.2559 372.233 81.2559C372.827 81.2559 373.315 81.0293 373.698 80.5762C374.007 80.2051 374.161 79.7363 374.161 79.1699C374.161 78.5293 373.972 78.0312 373.593 77.6758C373.222 77.3281 372.759 77.1543 372.204 77.1543ZM386.576 72.5781H387.742L380.576 82.2988H379.416L386.576 72.5781ZM380.395 72.3379C381.149 72.3379 381.744 72.6289 382.182 73.2109C382.553 73.7109 382.738 74.334 382.738 75.0801C382.738 75.7559 382.586 76.3301 382.281 76.8027C381.844 77.4824 381.211 77.8223 380.383 77.8223C379.649 77.8223 379.065 77.5488 378.631 77.002C378.232 76.502 378.033 75.8633 378.033 75.0859C378.033 74.1641 378.303 73.4453 378.842 72.9297C379.256 72.5352 379.774 72.3379 380.395 72.3379ZM380.383 73.416C380.059 73.416 379.797 73.5645 379.598 73.8613C379.395 74.166 379.293 74.5742 379.293 75.0859C379.293 75.5117 379.369 75.8711 379.522 76.1641C379.721 76.5508 380.01 76.7441 380.389 76.7441C380.69 76.7441 380.938 76.6152 381.133 76.3574C381.363 76.0488 381.479 75.625 381.479 75.0859C381.479 74.5664 381.371 74.1523 381.156 73.8438C380.961 73.5586 380.703 73.416 380.383 73.416ZM386.775 77.0547C387.506 77.0547 388.088 77.3281 388.522 77.875C388.92 78.3789 389.119 79.0176 389.119 79.791C389.119 80.4785 388.963 81.0605 388.65 81.5371C388.213 82.2051 387.584 82.5391 386.764 82.5391C386.006 82.5391 385.41 82.248 384.977 81.666C384.606 81.166 384.42 80.543 384.42 79.7969C384.42 78.8906 384.682 78.1816 385.205 77.6699C385.623 77.2598 386.147 77.0547 386.775 77.0547ZM386.764 78.1328C386.463 78.1328 386.217 78.2617 386.025 78.5195C385.795 78.832 385.68 79.2578 385.68 79.7969C385.68 80.2227 385.754 80.582 385.902 80.875C386.102 81.2656 386.393 81.4609 386.775 81.4609C387.1 81.4609 387.359 81.3125 387.555 81.0156C387.758 80.707 387.859 80.3008 387.859 79.7969C387.859 79.2812 387.752 78.8691 387.537 78.5605C387.342 78.2754 387.084 78.1328 386.764 78.1328Z" fill="#E59D00"/>
<path d="M7.91406 114.523C7.48698 115.747 6.98958 116.747 6.42188 117.523C5.97396 118.133 5.49219 118.438 4.97656 118.438C4.20573 118.438 3.53906 117.857 2.97656 116.695C2.51302 115.747 2.20312 114.69 2.04688 113.523C1.85938 112.154 1.76562 110.586 1.76562 108.82C1.76562 107.924 1.79948 107 1.86719 106.047L3.16406 106.141C3.10677 106.99 3.07812 107.81 3.07812 108.602C3.07812 111.013 3.21615 112.852 3.49219 114.117C3.70573 115.122 3.97917 115.872 4.3125 116.367C4.5625 116.742 4.78125 116.93 4.96875 116.93C5.15625 116.93 5.38542 116.727 5.65625 116.32C6.07292 115.706 6.48958 114.841 6.90625 113.727L7.91406 114.523ZM13.2891 116.062C13.0182 113.974 12.6927 112.234 12.3125 110.844C11.9219 109.432 11.401 108.052 10.75 106.703L11.9297 106.414C12.6797 107.883 13.2656 109.354 13.6875 110.828C14.0469 112.104 14.3516 113.742 14.6016 115.742L13.2891 116.062ZM23.9141 114.523C23.487 115.747 22.9896 116.747 22.4219 117.523C21.974 118.133 21.4922 118.438 20.9766 118.438C20.2057 118.438 19.5391 117.857 18.9766 116.695C18.513 115.747 18.2031 114.69 18.0469 113.523C17.8594 112.154 17.7656 110.586 17.7656 108.82C17.7656 107.924 17.7995 107 17.8672 106.047L19.1641 106.141C19.1068 106.99 19.0781 107.81 19.0781 108.602C19.0781 111.013 19.2161 112.852 19.4922 114.117C19.7057 115.122 19.9792 115.872 20.3125 116.367C20.5625 116.742 20.7812 116.93 20.9688 116.93C21.1562 116.93 21.3854 116.727 21.6562 116.32C22.0729 115.706 22.4896 114.841 22.9062 113.727L23.9141 114.523ZM29.2891 116.062C29.0182 113.974 28.6927 112.234 28.3125 110.844C27.9219 109.432 27.401 108.052 26.75 106.703L27.9297 106.414C28.6797 107.883 29.2656 109.354 29.6875 110.828C30.0469 112.104 30.3516 113.742 30.6016 115.742L29.2891 116.062ZM34.3828 108.797H42.7031L43.2812 109.703C41.5104 111.036 39.9479 112.263 38.5938 113.383C39.125 113.122 39.6094 112.992 40.0469 112.992C40.4323 112.992 40.7526 113.081 41.0078 113.258C41.3464 113.492 41.5156 113.836 41.5156 114.289C41.5156 114.367 41.5052 114.49 41.4844 114.656C41.4167 115.271 41.3828 115.857 41.3828 116.414C41.3828 116.711 41.4375 116.911 41.5469 117.016C41.7188 117.177 42.3021 117.258 43.2969 117.258C44.1771 117.258 45.0521 117.203 45.9219 117.094L46.0156 118.312C45.2031 118.391 44.2708 118.43 43.2188 118.43C42.0677 118.43 41.3021 118.352 40.9219 118.195C40.6302 118.076 40.4245 117.893 40.3047 117.648C40.2057 117.445 40.1562 117.151 40.1562 116.766C40.1562 115.943 40.1901 115.271 40.2578 114.75C40.263 114.698 40.2656 114.648 40.2656 114.602C40.2656 114.159 40.0234 113.938 39.5391 113.938C38.9453 113.938 38.237 114.247 37.4141 114.867C36.4193 115.617 35.1432 116.826 33.5859 118.492L32.7031 117.516C35.5469 114.719 38.4115 112.185 41.2969 109.914H34.3828V108.797ZM42.1875 107.484C40.2448 106.849 38.1406 106.339 35.875 105.953L36.2266 104.898C38.5911 105.273 40.7083 105.758 42.5781 106.352L42.1875 107.484Z" fill="#2861D4"/>
<path d="M56.4667 118.299V116.975C56.8378 115.822 57.8495 114.695 59.5019 113.594L59.8241 113.377C60.5351 112.904 61.0234 112.518 61.289 112.217C61.5859 111.881 61.7343 111.518 61.7343 111.127C61.7343 110.775 61.6269 110.471 61.412 110.213C61.0917 109.826 60.6132 109.633 59.9765 109.633C59.0273 109.633 58.1737 110.029 57.4159 110.822L56.4081 109.896C56.6737 109.572 56.9902 109.299 57.3573 109.076C58.1425 108.6 59.0175 108.361 59.9823 108.361C60.7323 108.361 61.3827 108.504 61.9335 108.789C62.4101 109.039 62.7773 109.379 63.0351 109.809C63.2734 110.215 63.3925 110.654 63.3925 111.127C63.3925 111.748 63.1562 112.322 62.6835 112.85C62.3671 113.205 61.7753 113.678 60.9081 114.268L60.5331 114.52C59.6152 115.141 59.0097 115.602 58.7167 115.902C58.3573 116.27 58.1191 116.6 58.0019 116.893H63.4862V118.299H56.4667ZM71.8994 113.822C71.6884 114.158 71.4091 114.428 71.0615 114.631C70.5888 114.9 70.0556 115.035 69.4619 115.035C68.5908 115.035 67.8525 114.76 67.247 114.209C66.5869 113.611 66.2568 112.816 66.2568 111.824C66.2568 110.926 66.5166 110.174 67.0361 109.568C67.7275 108.756 68.6377 108.35 69.7666 108.35C70.9697 108.35 71.9033 108.77 72.5673 109.609C73.1689 110.363 73.4697 111.467 73.4697 112.92C73.4697 114.326 73.1455 115.492 72.497 116.418C72.0127 117.109 71.3115 117.648 70.3935 118.035C69.749 118.305 68.9462 118.518 67.9853 118.674L67.3349 117.379C68.7138 117.258 69.7666 116.934 70.4931 116.406C71.2861 115.828 71.7744 114.967 71.958 113.822H71.8994ZM69.7607 109.609C69.167 109.609 68.6826 109.834 68.3076 110.283C67.9873 110.666 67.8271 111.162 67.8271 111.771C67.8271 112.354 67.9834 112.82 68.2959 113.172C68.6748 113.605 69.1513 113.822 69.7255 113.822C70.3935 113.822 70.917 113.576 71.2959 113.084C71.6005 112.693 71.7529 112.266 71.7529 111.801C71.7529 111.223 71.6084 110.744 71.3193 110.365C70.9365 109.861 70.417 109.609 69.7607 109.609ZM76.416 116.33H78.3848V118.299H76.416V116.33ZM81.542 118.299V116.975C81.9131 115.822 82.9248 114.695 84.5772 113.594L84.8995 113.377C85.6104 112.904 86.0987 112.518 86.3643 112.217C86.6612 111.881 86.8096 111.518 86.8096 111.127C86.8096 110.775 86.7022 110.471 86.4873 110.213C86.167 109.826 85.6885 109.633 85.0518 109.633C84.1026 109.633 83.2491 110.029 82.4912 110.822L81.4834 109.896C81.7491 109.572 82.0655 109.299 82.4327 109.076C83.2178 108.6 84.0928 108.361 85.0577 108.361C85.8077 108.361 86.458 108.504 87.0088 108.789C87.4854 109.039 87.8526 109.379 88.1104 109.809C88.3487 110.215 88.4678 110.654 88.4678 111.127C88.4678 111.748 88.2315 112.322 87.7588 112.85C87.4424 113.205 86.8506 113.678 85.9834 114.268L85.6084 114.52C84.6905 115.141 84.085 115.602 83.792 115.902C83.4327 116.27 83.1944 116.6 83.0772 116.893H88.5616V118.299H81.542ZM99.5762 108.578H100.742L93.5762 118.299H92.4161L99.5762 108.578ZM93.3946 108.338C94.1485 108.338 94.7442 108.629 95.1817 109.211C95.5528 109.711 95.7384 110.334 95.7384 111.08C95.7384 111.756 95.586 112.33 95.2813 112.803C94.8438 113.482 94.211 113.822 93.3829 113.822C92.6485 113.822 92.0645 113.549 91.6309 113.002C91.2325 112.502 91.0333 111.863 91.0333 111.086C91.0333 110.164 91.3028 109.445 91.8419 108.93C92.2559 108.535 92.7735 108.338 93.3946 108.338ZM93.3829 109.416C93.0587 109.416 92.797 109.564 92.5977 109.861C92.3946 110.166 92.293 110.574 92.293 111.086C92.293 111.512 92.3692 111.871 92.5216 112.164C92.7208 112.551 93.0098 112.744 93.3887 112.744C93.6895 112.744 93.9376 112.615 94.1329 112.357C94.3634 112.049 94.4786 111.625 94.4786 111.086C94.4786 110.566 94.3712 110.152 94.1563 109.844C93.961 109.559 93.7032 109.416 93.3829 109.416ZM99.7755 113.055C100.506 113.055 101.088 113.328 101.522 113.875C101.92 114.379 102.119 115.018 102.119 115.791C102.119 116.479 101.963 117.061 101.65 117.537C101.213 118.205 100.584 118.539 99.7637 118.539C99.0059 118.539 98.4102 118.248 97.9766 117.666C97.6055 117.166 97.42 116.543 97.42 115.797C97.42 114.891 97.6817 114.182 98.2052 113.67C98.6231 113.26 99.1466 113.055 99.7755 113.055ZM99.7637 114.133C99.463 114.133 99.2169 114.262 99.0255 114.52C98.795 114.832 98.6798 115.258 98.6798 115.797C98.6798 116.223 98.754 116.582 98.9024 116.875C99.1016 117.266 99.3927 117.461 99.7755 117.461C100.1 117.461 100.359 117.312 100.555 117.016C100.758 116.707 100.859 116.301 100.859 115.797C100.859 115.281 100.752 114.869 100.537 114.561C100.342 114.275 100.084 114.133 99.7637 114.133Z" fill="#2861D4"/>
<path d="M274.024 102.5C274.024 125.689 263.501 146.403 247 160.067C247 162.345 200.024 102.5 200.021 102.5C200.021 102.5 159.155 102.5 200.024 102.5L273.363 92.5C273.799 95.7709 274.024 99.109 274.024 102.5Z" fill="#F4D45F"/>
<circle cx="200.023" cy="103" r="37" fill="#F9F9F9"/>
<path d="M129.75 207.109C128.333 207.266 126.839 207.344 125.266 207.344C122.828 207.344 121.135 207.177 120.188 206.844C118.792 206.349 118.094 205.458 118.094 204.172C118.094 203.417 118.32 202.724 118.773 202.094C119.195 201.521 119.724 201.029 120.359 200.617C120.771 200.357 121.258 200.078 121.82 199.781C120.997 197.833 120.362 196.005 119.914 194.297L121.18 193.961C121.711 195.935 122.286 197.701 122.906 199.258C124.719 198.424 126.495 197.737 128.234 197.195L128.805 198.297C126.992 198.823 125.109 199.531 123.156 200.422C122.125 200.885 121.383 201.281 120.93 201.609C119.924 202.339 119.422 203.164 119.422 204.086C119.422 204.883 119.906 205.44 120.875 205.758C121.63 206.003 122.951 206.125 124.836 206.125C126.513 206.125 128.109 206.026 129.625 205.828L129.75 207.109ZM129.078 197.016C128.734 196.151 128.276 195.292 127.703 194.438L128.633 194.086C129.216 194.883 129.685 195.732 130.039 196.633L129.078 197.016ZM130.969 196.312C130.62 195.391 130.161 194.531 129.594 193.734L130.523 193.398C131.086 194.169 131.544 195.003 131.898 195.898L130.969 196.312ZM132.977 196.328H136.594C136.828 195.422 137.016 194.589 137.156 193.828L138.398 194.023C138.284 194.602 138.104 195.37 137.859 196.328H145.891V197.445H137.57C137.112 199.039 136.643 200.398 136.164 201.523C137.617 200.628 139.312 200.18 141.25 200.18C142.297 200.18 143.185 200.367 143.914 200.742C145.06 201.326 145.633 202.234 145.633 203.469C145.633 205.109 144.659 206.255 142.711 206.906C141.424 207.339 139.539 207.589 137.055 207.656L136.625 206.484C138.885 206.458 140.628 206.266 141.852 205.906C143.435 205.432 144.227 204.609 144.227 203.438C144.227 202.604 143.872 201.995 143.164 201.609C142.669 201.339 142.031 201.203 141.25 201.203C139.344 201.203 137.482 201.789 135.664 202.961L134.625 202.227C135.286 200.576 135.841 198.982 136.289 197.445H132.977V196.328ZM157.648 196.68C155.862 195.872 153.831 195.253 151.555 194.82L152.047 193.797C154.328 194.224 156.37 194.818 158.172 195.578L157.648 196.68ZM149.375 202.602C149.526 200.341 149.815 198.32 150.242 196.539L151.453 196.789C151.094 198.352 150.844 199.927 150.703 201.516C151.594 200.786 152.573 200.25 153.641 199.906C154.443 199.646 155.221 199.516 155.977 199.516C157.18 199.516 158.156 199.75 158.906 200.219C159.87 200.828 160.352 201.771 160.352 203.047C160.352 204.885 159.414 206.164 157.539 206.883C156.331 207.346 154.688 207.615 152.609 207.688L152.172 206.508C154.135 206.503 155.685 206.289 156.82 205.867C157.607 205.576 158.167 205.188 158.5 204.703C158.807 204.26 158.961 203.703 158.961 203.031C158.961 202.099 158.599 201.424 157.875 201.008C157.359 200.716 156.706 200.57 155.914 200.57C154.695 200.57 153.445 200.953 152.164 201.719C151.497 202.115 150.919 202.583 150.43 203.125L149.375 202.602ZM175.516 207.109C174.115 207.26 172.643 207.336 171.102 207.336C168.711 207.336 167.034 207.185 166.07 206.883C165.451 206.685 164.951 206.393 164.57 206.008C164.091 205.513 163.852 204.906 163.852 204.188C163.852 203.245 164.219 202.378 164.953 201.586C165.307 201.206 165.682 200.888 166.078 200.633C166.49 200.372 166.984 200.083 167.562 199.766C166.766 197.88 166.135 196.057 165.672 194.297L166.938 193.961C167.422 195.826 167.992 197.586 168.648 199.242C170.555 198.383 172.667 197.625 174.984 196.969L175.367 198.133C172.82 198.799 170.424 199.674 168.18 200.758C167.102 201.279 166.326 201.81 165.852 202.352C165.388 202.893 165.156 203.464 165.156 204.062C165.156 204.87 165.641 205.43 166.609 205.742C167.37 205.992 168.711 206.117 170.633 206.117C172.299 206.117 173.883 206.021 175.383 205.828L175.516 207.109ZM182.742 193.805L184.008 193.945L183.609 196.281H188.469V197.398H183.414L182.922 200.234H187.625V201.32H182.727C182.57 202.305 182.492 203.07 182.492 203.617C182.492 204.461 182.703 205.096 183.125 205.523C183.714 206.122 184.656 206.422 185.953 206.422C187.172 206.422 188.117 206.177 188.789 205.688C189.43 205.219 189.75 204.536 189.75 203.641C189.75 202.896 189.591 202.154 189.273 201.414L190.438 201.305C190.844 202.148 191.047 202.948 191.047 203.703C191.047 204.969 190.599 205.935 189.703 206.602C188.786 207.284 187.518 207.625 185.898 207.625C184.227 207.625 182.977 207.232 182.148 206.445C181.487 205.815 181.156 204.927 181.156 203.781C181.156 203.182 181.247 202.362 181.43 201.32H178.391V200.234H181.625L182.117 197.398H178.617V196.281H182.312L182.742 193.805ZM200.227 203.523C199.799 204.747 199.302 205.747 198.734 206.523C198.286 207.133 197.805 207.438 197.289 207.438C196.518 207.438 195.852 206.857 195.289 205.695C194.826 204.747 194.516 203.69 194.359 202.523C194.172 201.154 194.078 199.586 194.078 197.82C194.078 196.924 194.112 196 194.18 195.047L195.477 195.141C195.419 195.99 195.391 196.81 195.391 197.602C195.391 200.013 195.529 201.852 195.805 203.117C196.018 204.122 196.292 204.872 196.625 205.367C196.875 205.742 197.094 205.93 197.281 205.93C197.469 205.93 197.698 205.727 197.969 205.32C198.385 204.706 198.802 203.841 199.219 202.727L200.227 203.523ZM205.602 205.062C205.331 202.974 205.005 201.234 204.625 199.844C204.234 198.432 203.714 197.052 203.062 195.703L204.242 195.414C204.992 196.883 205.578 198.354 206 199.828C206.359 201.104 206.664 202.742 206.914 204.742L205.602 205.062ZM210.695 197.797H219.016L219.594 198.703C217.823 200.036 216.26 201.263 214.906 202.383C215.438 202.122 215.922 201.992 216.359 201.992C216.745 201.992 217.065 202.081 217.32 202.258C217.659 202.492 217.828 202.836 217.828 203.289C217.828 203.367 217.818 203.49 217.797 203.656C217.729 204.271 217.695 204.857 217.695 205.414C217.695 205.711 217.75 205.911 217.859 206.016C218.031 206.177 218.615 206.258 219.609 206.258C220.49 206.258 221.365 206.203 222.234 206.094L222.328 207.312C221.516 207.391 220.583 207.43 219.531 207.43C218.38 207.43 217.615 207.352 217.234 207.195C216.943 207.076 216.737 206.893 216.617 206.648C216.518 206.445 216.469 206.151 216.469 205.766C216.469 204.943 216.503 204.271 216.57 203.75C216.576 203.698 216.578 203.648 216.578 203.602C216.578 203.159 216.336 202.938 215.852 202.938C215.258 202.938 214.549 203.247 213.727 203.867C212.732 204.617 211.456 205.826 209.898 207.492L209.016 206.516C211.859 203.719 214.724 201.185 217.609 198.914H210.695V197.797ZM218.5 196.484C216.557 195.849 214.453 195.339 212.188 194.953L212.539 193.898C214.904 194.273 217.021 194.758 218.891 195.352L218.5 196.484ZM233.039 198.938H234.305V203.336C235.487 203.857 236.74 204.57 238.062 205.477L237.391 206.555C236.339 205.789 235.31 205.148 234.305 204.633C234.279 206.69 233.229 207.719 231.156 207.719C230.214 207.719 229.44 207.518 228.836 207.117C228.169 206.674 227.836 206.052 227.836 205.25C227.836 204.677 228.031 204.174 228.422 203.742C229.052 203.044 230.044 202.695 231.398 202.695C231.904 202.695 232.451 202.766 233.039 202.906V198.938ZM233.039 204.086C232.404 203.862 231.794 203.75 231.211 203.75C230.638 203.75 230.169 203.844 229.805 204.031C229.273 204.307 229.008 204.706 229.008 205.227C229.008 205.659 229.208 206.01 229.609 206.281C229.984 206.536 230.497 206.664 231.148 206.664C231.883 206.664 232.417 206.378 232.75 205.805C232.943 205.471 233.039 205.07 233.039 204.602V204.086ZM224.734 196.234H227.617C227.852 195.464 228.081 194.638 228.305 193.758L229.555 193.93C229.341 194.706 229.117 195.474 228.883 196.234H231.859V197.352H228.516C227.594 200.029 226.531 202.268 225.328 204.07L224.258 203.445C225.383 201.799 226.38 199.768 227.25 197.352H224.734V196.234ZM237.523 199.516C236.419 198.302 235.159 197.203 233.742 196.219L234.484 195.367C235.839 196.237 237.138 197.299 238.383 198.555L237.523 199.516ZM246.805 203.523C246.378 204.747 245.88 205.747 245.312 206.523C244.865 207.133 244.383 207.438 243.867 207.438C243.096 207.438 242.43 206.857 241.867 205.695C241.404 204.747 241.094 203.69 240.938 202.523C240.75 201.154 240.656 199.586 240.656 197.82C240.656 196.924 240.69 196 240.758 195.047L242.055 195.141C241.997 195.99 241.969 196.81 241.969 197.602C241.969 200.013 242.107 201.852 242.383 203.117C242.596 204.122 242.87 204.872 243.203 205.367C243.453 205.742 243.672 205.93 243.859 205.93C244.047 205.93 244.276 205.727 244.547 205.32C244.964 204.706 245.38 203.841 245.797 202.727L246.805 203.523ZM252.18 205.062C251.909 202.974 251.583 201.234 251.203 199.844C250.812 198.432 250.292 197.052 249.641 195.703L250.82 195.414C251.57 196.883 252.156 198.354 252.578 199.828C252.938 201.104 253.242 202.742 253.492 204.742L252.18 205.062Z" fill="#DC6B34"/>
<path d="M264.466 206.299V204.975C264.837 203.822 265.849 202.695 267.501 201.594L267.823 201.377C268.534 200.904 269.022 200.518 269.288 200.217C269.585 199.881 269.733 199.518 269.733 199.127C269.733 198.775 269.626 198.471 269.411 198.213C269.091 197.826 268.612 197.633 267.976 197.633C267.026 197.633 266.173 198.029 265.415 198.822L264.407 197.896C264.673 197.572 264.989 197.299 265.356 197.076C266.142 196.6 267.017 196.361 267.981 196.361C268.731 196.361 269.382 196.504 269.933 196.789C270.409 197.039 270.776 197.379 271.034 197.809C271.272 198.215 271.392 198.654 271.392 199.127C271.392 199.748 271.155 200.322 270.683 200.85C270.366 201.205 269.774 201.678 268.907 202.268L268.532 202.52C267.614 203.141 267.009 203.602 266.716 203.902C266.356 204.27 266.118 204.6 266.001 204.893H271.485V206.299H264.466ZM275.334 196.578H281.012V197.873H276.605L276.26 200.645H276.307C276.908 200.211 277.605 199.994 278.398 199.994C278.941 199.994 279.451 200.117 279.928 200.363C280.596 200.703 281.063 201.221 281.328 201.916C281.477 202.307 281.551 202.74 281.551 203.217C281.551 204.287 281.156 205.131 280.367 205.748C279.711 206.26 278.895 206.516 277.918 206.516C276.504 206.516 275.367 206.09 274.508 205.238L275.311 204.23C275.623 204.539 276.004 204.777 276.453 204.945C276.941 205.129 277.422 205.221 277.895 205.221C278.43 205.221 278.887 205.072 279.266 204.775C279.75 204.396 279.992 203.873 279.992 203.205C279.992 202.623 279.824 202.148 279.488 201.781C279.125 201.383 278.623 201.184 277.982 201.184C277.111 201.184 276.473 201.488 276.066 202.098L274.748 201.881L275.334 196.578ZM292.577 196.578H293.743L286.577 206.299H285.417L292.577 196.578ZM286.396 196.338C287.149 196.338 287.745 196.629 288.183 197.211C288.554 197.711 288.739 198.334 288.739 199.08C288.739 199.756 288.587 200.33 288.282 200.803C287.845 201.482 287.212 201.822 286.384 201.822C285.649 201.822 285.065 201.549 284.632 201.002C284.233 200.502 284.034 199.863 284.034 199.086C284.034 198.164 284.304 197.445 284.843 196.93C285.257 196.535 285.774 196.338 286.396 196.338ZM286.384 197.416C286.06 197.416 285.798 197.564 285.599 197.861C285.396 198.166 285.294 198.574 285.294 199.086C285.294 199.512 285.37 199.871 285.523 200.164C285.722 200.551 286.011 200.744 286.39 200.744C286.69 200.744 286.939 200.615 287.134 200.357C287.364 200.049 287.48 199.625 287.48 199.086C287.48 198.566 287.372 198.152 287.157 197.844C286.962 197.559 286.704 197.416 286.384 197.416ZM292.776 201.055C293.507 201.055 294.089 201.328 294.523 201.875C294.921 202.379 295.12 203.018 295.12 203.791C295.12 204.479 294.964 205.061 294.651 205.537C294.214 206.205 293.585 206.539 292.765 206.539C292.007 206.539 291.411 206.248 290.978 205.666C290.606 205.166 290.421 204.543 290.421 203.797C290.421 202.891 290.683 202.182 291.206 201.67C291.624 201.26 292.148 201.055 292.776 201.055ZM292.765 202.133C292.464 202.133 292.218 202.262 292.026 202.52C291.796 202.832 291.681 203.258 291.681 203.797C291.681 204.223 291.755 204.582 291.903 204.875C292.103 205.266 292.394 205.461 292.776 205.461C293.101 205.461 293.36 205.312 293.556 205.016C293.759 204.707 293.86 204.301 293.86 203.797C293.86 203.281 293.753 202.869 293.538 202.561C293.343 202.275 293.085 202.133 292.765 202.133Z" fill="#DC6B34"/>
<path d="M137.867 1.50781H146.234L147.008 2.44531C144.685 3.77344 142.453 5.07552 140.312 6.35156C142.255 6.28906 144.956 6.16667 148.414 5.98438L149.039 5.95312L149.133 7.17188L146.797 7.26562C145.453 7.32292 144.229 7.63281 143.125 8.19531C142.354 8.59115 141.768 9.0625 141.367 9.60938C141.018 10.0833 140.844 10.5833 140.844 11.1094C140.844 12.1042 141.393 12.7734 142.492 13.1172C143.32 13.3724 144.594 13.5026 146.312 13.5078V14.7656C144.177 14.7604 142.612 14.5391 141.617 14.1016C140.258 13.5026 139.578 12.5547 139.578 11.2578C139.578 10.2839 139.995 9.41146 140.828 8.64062C141.422 8.08854 142.221 7.64062 143.227 7.29688L142.547 7.32812C139.656 7.45312 137.451 7.5599 135.93 7.64844L135.836 6.44531H136.008L136.719 6.42969L137.438 6.42188L138.164 6.40625L138.414 6.39844C141.117 4.67969 143.26 3.41667 144.844 2.60938H137.867V1.50781ZM158.914 13.2969C160.159 12.9792 161.172 12.487 161.953 11.8203C163 10.9297 163.523 9.625 163.523 7.90625C163.523 6.77604 163.253 5.78125 162.711 4.92188C161.971 3.73438 160.753 3.01562 159.055 2.76562C158.695 6.19792 157.969 8.97396 156.875 11.0938C156.411 11.9948 155.958 12.6432 155.516 13.0391C155.042 13.4609 154.547 13.6719 154.031 13.6719C153.339 13.6719 152.714 13.3333 152.156 12.6562C151.854 12.2969 151.607 11.8438 151.414 11.2969C151.143 10.5469 151.008 9.73698 151.008 8.86719C151.008 7.3724 151.427 6.01302 152.266 4.78906C153.094 3.57031 154.159 2.70312 155.461 2.1875C156.346 1.83854 157.299 1.66406 158.32 1.66406C159.904 1.66406 161.266 2.0599 162.406 2.85156C163.396 3.54427 164.096 4.46615 164.508 5.61719C164.758 6.3151 164.883 7.0651 164.883 7.86719C164.883 11.2734 163.117 13.4505 159.586 14.3984L158.914 13.2969ZM157.875 2.73438C156.661 2.80729 155.628 3.16927 154.773 3.82031C153.477 4.80469 152.688 6.07812 152.406 7.64062C152.333 8.04167 152.297 8.4375 152.297 8.82812C152.297 10.0573 152.565 11.0182 153.102 11.7109C153.414 12.112 153.737 12.3125 154.07 12.3125C154.451 12.3125 154.831 12.0286 155.211 11.4609C155.831 10.5286 156.388 9.27083 156.883 7.6875C157.299 6.35417 157.63 4.70312 157.875 2.73438ZM173.461 6.49219V13.0391C173.461 13.4714 173.607 13.7318 173.898 13.8203C174.221 13.9193 175.148 13.9688 176.68 13.9688C178.315 13.9688 179.323 13.9115 179.703 13.7969C180.01 13.7083 180.195 13.4661 180.258 13.0703C180.326 12.6484 180.372 12.0677 180.398 11.3281L181.617 11.7422C181.586 12.7109 181.508 13.4193 181.383 13.8672C181.211 14.4974 180.747 14.8724 179.992 14.9922C179.346 15.0964 178.219 15.1484 176.609 15.1484C174.984 15.1484 173.938 15.1016 173.469 15.0078C172.911 14.8984 172.552 14.6432 172.391 14.2422C172.302 14.0182 172.258 13.7135 172.258 13.3281V6.89062L170.562 7.45312L170.242 6.35156L172.258 5.6875V1.46875H173.461V5.29688L175.625 4.58594V0.320312H176.828V4.1875L179.859 3.20312L180.578 3.58594V9.375C180.578 9.77083 180.479 10.0651 180.281 10.2578C180.073 10.4714 179.703 10.5781 179.172 10.5781C178.76 10.5781 178.341 10.5573 177.914 10.5156L177.711 9.375C178.174 9.44792 178.568 9.48438 178.891 9.48438C179.115 9.48438 179.253 9.43229 179.305 9.32812C179.352 9.24479 179.375 9.11719 179.375 8.94531V4.53125L176.828 5.375V11.7422H175.625V5.77344L173.461 6.49219ZM169.891 4.14844V15.5234H168.641V6.67188C168.625 6.69792 168.602 6.73698 168.57 6.78906C168.122 7.57552 167.586 8.36979 166.961 9.17188L166.352 7.95312C167.284 6.74479 168.065 5.39583 168.695 3.90625C169.138 2.85938 169.552 1.63281 169.938 0.226562L171.188 0.5625C170.76 1.95312 170.328 3.14844 169.891 4.14844Z" fill="#4ECD2C"/>
</svg>
