<svg width="820" height="136" viewBox="0 0 820 136" fill="none" xmlns="http://www.w3.org/2000/svg">
<path d="M99.5403 14.0859H105.829V17.125H104.15V15.3203H93.2825V17.125H91.6028V14.0859H97.8138V12.8203H99.5403V14.0859ZM103.665 17.9688V21.0625H93.7591V17.9688H103.665ZM95.3606 19.0234V20.0078H102.064V19.0234H95.3606ZM105.126 21.7344V28.0234H103.462V27.3984H93.97V28.0234H92.3059V21.7344H105.126ZM93.97 22.8828V23.9766H97.8606V22.8828H93.97ZM93.97 25.0625V26.2266H97.8606V25.0625H93.97ZM103.462 26.2266V25.0625H99.4622V26.2266H103.462ZM103.462 23.9766V22.8828H99.4622V23.9766H103.462ZM93.9388 16.0703H103.493V17.2734H93.9388V16.0703ZM116.188 24.7578H120.126V16.1641H121.899V27.8906H120.126V26.4531H110.571V27.8906H108.813V16.1641H110.571V24.7578H114.415V12.9766H116.188V24.7578ZM137.406 13.2031V20.7734H128.109V13.2031H137.406ZM129.789 14.4375V15.4141H135.711V14.4375H129.789ZM129.789 16.5156V17.4922H135.711V16.5156H129.789ZM129.789 18.5938V19.6016H135.711V18.5938H129.789ZM126.641 21.8125H139.594V23.1719H133.133V28.0234H131.359V23.1719H124.93V14.4062H126.641V21.8125ZM124.641 26.5312C125.88 25.9583 127.065 24.9974 128.195 23.6484L129.633 24.4844C128.518 25.8958 127.281 27.0052 125.922 27.8125L124.641 26.5312ZM138.109 27.5391C137.312 26.5599 136.115 25.5312 134.516 24.4531L135.859 23.5078C137.115 24.2318 138.346 25.1823 139.555 26.3594L138.109 27.5391Z" fill="#333333"/>
<rect x="164" width="656" height="40" fill="#F4D45F"/>
<path d="M466.329 20.7578C464.59 20.1641 463.72 19.1198 463.72 17.625C463.72 16.5729 464.178 15.7135 465.095 15.0469C465.944 14.4271 467.009 14.1172 468.29 14.1172C469.415 14.1172 470.379 14.349 471.181 14.8125C472.285 15.4479 472.837 16.3385 472.837 17.4844C472.837 18.4271 472.522 19.1693 471.892 19.7109C471.387 20.1484 470.78 20.4609 470.072 20.6484V20.6953C470.993 20.9922 471.691 21.3568 472.165 21.7891C472.926 22.4714 473.306 23.2734 473.306 24.1953C473.306 25.2578 472.853 26.1146 471.947 26.7656C471.025 27.4219 469.809 27.75 468.298 27.75C467.012 27.75 465.941 27.513 465.087 27.0391C463.931 26.4036 463.353 25.474 463.353 24.25C463.353 23.2708 463.767 22.4453 464.595 21.7734C465.074 21.3828 465.652 21.0651 466.329 20.8203V20.7578ZM468.314 19.9609C469.095 19.763 469.707 19.4583 470.15 19.0469C470.598 18.6354 470.822 18.1797 470.822 17.6797C470.822 17.112 470.605 16.6328 470.173 16.2422C469.689 15.8047 469.061 15.5859 468.29 15.5859C467.717 15.5859 467.217 15.7161 466.79 15.9766C466.139 16.3724 465.814 16.9349 465.814 17.6641C465.814 18.2005 466.043 18.6693 466.501 19.0703C466.814 19.3464 467.23 19.5833 467.751 19.7812C468.09 19.9115 468.277 19.9714 468.314 19.9609ZM468.204 21.5625C467.345 21.8021 466.691 22.1276 466.243 22.5391C465.754 22.987 465.509 23.4974 465.509 24.0703C465.509 24.6953 465.775 25.2005 466.306 25.5859C466.832 25.9609 467.493 26.1484 468.29 26.1484C468.931 26.1484 469.493 26.0234 469.978 25.7734C470.733 25.3776 471.111 24.7969 471.111 24.0312C471.111 23.4427 470.816 22.9167 470.228 22.4531C469.806 22.1198 469.288 21.8646 468.673 21.6875C468.371 21.599 468.215 21.5573 468.204 21.5625ZM476.516 14.4375H486.36V16.0859C485.454 17.5443 484.561 19.4557 483.68 21.8203C482.894 23.9349 482.321 25.7943 481.962 27.3984H479.782C480.219 25.388 480.959 23.1875 482.001 20.7969C483.011 18.4844 483.738 16.9792 484.18 16.2812H478.454V18.9375H476.516V14.4375ZM489.055 24.7734H491.68V27.3984H489.055V24.7734ZM496.304 14.4375H503.874V16.1641H497.999L497.538 19.8594H497.601C498.403 19.2812 499.333 18.9922 500.39 18.9922C501.114 18.9922 501.794 19.1562 502.429 19.4844C503.32 19.9375 503.942 20.6276 504.296 21.5547C504.494 22.0755 504.593 22.6536 504.593 23.2891C504.593 24.7161 504.067 25.8411 503.015 26.6641C502.14 27.3464 501.051 27.6875 499.749 27.6875C497.864 27.6875 496.348 27.1198 495.202 25.9844L496.273 24.6406C496.689 25.0521 497.197 25.3698 497.796 25.5938C498.447 25.8385 499.088 25.9609 499.718 25.9609C500.432 25.9609 501.041 25.763 501.546 25.3672C502.192 24.862 502.515 24.1641 502.515 23.2734C502.515 22.4974 502.291 21.8646 501.843 21.375C501.359 20.8438 500.689 20.5781 499.835 20.5781C498.674 20.5781 497.822 20.9844 497.281 21.7969L495.523 21.5078L496.304 14.4375ZM518.655 14.4375H520.21L510.655 27.3984H509.108L518.655 14.4375ZM510.413 14.1172C511.418 14.1172 512.212 14.5052 512.796 15.2812C513.29 15.9479 513.538 16.7786 513.538 17.7734C513.538 18.6745 513.335 19.4401 512.928 20.0703C512.345 20.9766 511.501 21.4297 510.397 21.4297C509.418 21.4297 508.639 21.0651 508.061 20.3359C507.53 19.6693 507.264 18.8177 507.264 17.7812C507.264 16.5521 507.624 15.5938 508.342 14.9062C508.895 14.3802 509.585 14.1172 510.413 14.1172ZM510.397 15.5547C509.965 15.5547 509.616 15.7526 509.35 16.1484C509.079 16.5547 508.944 17.099 508.944 17.7812C508.944 18.349 509.046 18.8281 509.249 19.2188C509.514 19.7344 509.9 19.9922 510.405 19.9922C510.806 19.9922 511.137 19.8203 511.397 19.4766C511.704 19.0651 511.858 18.5 511.858 17.7812C511.858 17.0885 511.715 16.5365 511.428 16.125C511.168 15.7448 510.824 15.5547 510.397 15.5547ZM518.921 20.4062C519.895 20.4062 520.671 20.7708 521.249 21.5C521.78 22.1719 522.046 23.0234 522.046 24.0547C522.046 24.9714 521.837 25.7474 521.421 26.3828C520.837 27.2734 519.999 27.7188 518.905 27.7188C517.895 27.7188 517.1 27.3307 516.522 26.5547C516.027 25.888 515.78 25.0573 515.78 24.0625C515.78 22.8542 516.129 21.9089 516.827 21.2266C517.384 20.6797 518.082 20.4062 518.921 20.4062ZM518.905 21.8438C518.504 21.8438 518.176 22.0156 517.921 22.3594C517.613 22.776 517.46 23.3438 517.46 24.0625C517.46 24.6302 517.559 25.1094 517.757 25.5C518.022 26.0208 518.41 26.2812 518.921 26.2812C519.353 26.2812 519.699 26.0833 519.96 25.6875C520.231 25.276 520.366 24.7344 520.366 24.0625C520.366 23.375 520.223 22.8255 519.936 22.4141C519.676 22.0339 519.332 21.8438 518.905 21.8438Z" fill="white"/>
<path d="M96.0481 67.5391H104.97V76.0234H103.165V74.9453H95.6419V76.0234H93.8684V70.2422C93.2226 70.8828 92.5299 71.4948 91.7903 72.0781L90.8294 70.5781C92.2565 69.5833 93.47 68.3464 94.47 66.8672C95.246 65.7161 95.8528 64.5234 96.2903 63.2891H91.5013V61.7344H106.001V63.2891H98.2044C97.6471 64.7943 96.9283 66.2109 96.0481 67.5391ZM95.6419 69.0625V73.3906H103.165V69.0625H95.6419ZM109.712 61.4609H111.587V66.7422C111.587 68.9245 111.464 70.5938 111.219 71.75C110.99 72.8177 110.602 73.7734 110.055 74.6172C109.863 74.9193 109.597 75.2708 109.258 75.6719L107.774 74.4062C108.712 73.4115 109.295 72.0911 109.524 70.4453C109.649 69.5651 109.712 68.4167 109.712 67V61.4609ZM114.673 61.7031H116.493V74.4219H114.673V61.7031ZM119.805 61.0781H121.649V75.8438H119.805V61.0781ZM137.406 61.2031V68.7734H128.109V61.2031H137.406ZM129.789 62.4375V63.4141H135.711V62.4375H129.789ZM129.789 64.5156V65.4922H135.711V64.5156H129.789ZM129.789 66.5938V67.6016H135.711V66.5938H129.789ZM126.641 69.8125H139.594V71.1719H133.133V76.0234H131.359V71.1719H124.93V62.4062H126.641V69.8125ZM124.641 74.5312C125.88 73.9583 127.065 72.9974 128.195 71.6484L129.633 72.4844C128.518 73.8958 127.281 75.0052 125.922 75.8125L124.641 74.5312ZM138.109 75.5391C137.312 74.5599 136.115 73.5312 134.516 72.4531L135.859 71.5078C137.115 72.2318 138.346 73.1823 139.555 74.3594L138.109 75.5391Z" fill="#333333"/>
<rect x="164" y="48" width="76" height="40" fill="#F59160"/>
<path d="M181.681 68.6641C182.399 67.5755 183.47 67.0312 184.892 67.0312C186.043 67.0312 187.027 67.3932 187.845 68.1172C188.741 68.9141 189.188 69.9297 189.188 71.1641C189.188 72.4297 188.787 73.4844 187.985 74.3281C187.136 75.224 186.009 75.6719 184.603 75.6719C182.957 75.6719 181.655 75.0625 180.696 73.8438C179.925 72.8594 179.54 71.4766 179.54 69.6953C179.54 68.4557 179.894 67.224 180.603 66C181.79 63.9323 183.782 62.5703 186.579 61.9141L187.313 63.4453C185.501 63.9714 184.196 64.6276 183.399 65.4141C182.389 66.4089 181.795 67.4922 181.618 68.6641H181.681ZM184.517 68.5391C183.725 68.5391 183.05 68.8542 182.493 69.4844C182.05 69.9792 181.829 70.513 181.829 71.0859C181.829 71.7005 182.004 72.263 182.353 72.7734C182.915 73.5964 183.649 74.0078 184.556 74.0078C185.347 74.0078 185.998 73.7057 186.509 73.1016C186.92 72.6068 187.126 71.9818 187.126 71.2266C187.126 70.3724 186.873 69.7083 186.368 69.2344C185.873 68.7708 185.256 68.5391 184.517 68.5391ZM192.157 72.7734H194.782V75.3984H192.157V72.7734ZM200.718 67.7656H201.804C202.721 67.7656 203.458 67.6016 204.015 67.2734C204.698 66.8724 205.039 66.3229 205.039 65.625C205.039 65.0469 204.789 64.5885 204.289 64.25C203.846 63.9531 203.294 63.8047 202.633 63.8047C201.435 63.8047 200.284 64.263 199.179 65.1797L198.047 63.7812C199.385 62.7083 200.961 62.1719 202.773 62.1719C203.987 62.1719 204.984 62.4219 205.765 62.9219C206.708 63.5312 207.179 64.3932 207.179 65.5078C207.179 66.362 206.854 67.0938 206.203 67.7031C205.698 68.1719 205.031 68.4661 204.203 68.5859V68.6484C205.276 68.8255 206.096 69.1797 206.664 69.7109C207.252 70.263 207.547 71 207.547 71.9219C207.547 73.2656 207.002 74.2708 205.914 74.9375C205.096 75.4375 204.023 75.6875 202.695 75.6875C200.601 75.6875 198.903 75.0469 197.601 73.7656L198.781 72.3594C199.198 72.8021 199.734 73.1667 200.39 73.4531C201.187 73.8021 201.961 73.9766 202.711 73.9766C203.554 73.9766 204.213 73.7995 204.687 73.4453C205.146 73.1068 205.375 72.5885 205.375 71.8906C205.375 70.9323 204.914 70.2526 203.992 69.8516C203.372 69.5807 202.627 69.4453 201.758 69.4453H200.718V67.7656ZM221.757 62.4375H223.312L213.757 75.3984H212.21L221.757 62.4375ZM213.515 62.1172C214.52 62.1172 215.314 62.5052 215.898 63.2812C216.392 63.9479 216.64 64.7786 216.64 65.7734C216.64 66.6745 216.437 67.4401 216.03 68.0703C215.447 68.9766 214.603 69.4297 213.499 69.4297C212.52 69.4297 211.741 69.0651 211.163 68.3359C210.632 67.6693 210.366 66.8177 210.366 65.7812C210.366 64.5521 210.726 63.5938 211.444 62.9062C211.996 62.3802 212.687 62.1172 213.515 62.1172ZM213.499 63.5547C213.067 63.5547 212.718 63.7526 212.452 64.1484C212.181 64.5547 212.046 65.099 212.046 65.7812C212.046 66.349 212.148 66.8281 212.351 67.2188C212.616 67.7344 213.002 67.9922 213.507 67.9922C213.908 67.9922 214.239 67.8203 214.499 67.4766C214.806 67.0651 214.96 66.5 214.96 65.7812C214.96 65.0885 214.817 64.5365 214.53 64.125C214.27 63.7448 213.926 63.5547 213.499 63.5547ZM222.023 68.4062C222.996 68.4062 223.773 68.7708 224.351 69.5C224.882 70.1719 225.148 71.0234 225.148 72.0547C225.148 72.9714 224.939 73.7474 224.523 74.3828C223.939 75.2734 223.101 75.7188 222.007 75.7188C220.996 75.7188 220.202 75.3307 219.624 74.5547C219.129 73.888 218.882 73.0573 218.882 72.0625C218.882 70.8542 219.231 69.9089 219.929 69.2266C220.486 68.6797 221.184 68.4062 222.023 68.4062ZM222.007 69.8438C221.606 69.8438 221.278 70.0156 221.023 70.3594C220.715 70.776 220.562 71.3438 220.562 72.0625C220.562 72.6302 220.661 73.1094 220.858 73.5C221.124 74.0208 221.512 74.2812 222.023 74.2812C222.455 74.2812 222.801 74.0833 223.062 73.6875C223.332 73.276 223.468 72.7344 223.468 72.0625C223.468 71.375 223.325 70.8255 223.038 70.4141C222.778 70.0339 222.434 69.8438 222.007 69.8438Z" fill="white"/>
<path d="M94.2044 109.766H102.876L103.908 110.984L103.314 111.312C100.814 112.698 98.8658 113.794 97.47 114.602C100.741 114.471 103.53 114.339 105.837 114.203L105.97 115.852L103.376 115.961C102.095 116.018 100.915 116.312 99.8372 116.844C98.332 117.589 97.5794 118.526 97.5794 119.656C97.5794 120.542 98.095 121.148 99.1263 121.477C99.9388 121.732 101.249 121.862 103.056 121.867V123.562C100.759 123.557 99.0976 123.333 98.0716 122.891C96.5924 122.26 95.8528 121.242 95.8528 119.836C95.8528 118.096 97.0273 116.815 99.3763 115.992C98.1367 116.034 95.9518 116.141 92.8216 116.312L92.2513 116.344L92.1419 114.711C93.0273 114.711 93.9231 114.695 94.8294 114.664C96.9648 113.341 98.9544 112.211 100.798 111.273H94.2044V109.766ZM116.149 121.648C119.206 120.878 120.735 119.125 120.735 116.391C120.735 115.198 120.428 114.172 119.813 113.312C119.126 112.344 118.079 111.721 116.673 111.445C116.365 113.862 115.946 115.841 115.415 117.383C115.05 118.461 114.597 119.479 114.055 120.438C113.274 121.802 112.386 122.484 111.391 122.484C110.652 122.484 109.993 122.151 109.415 121.484C109.045 121.062 108.745 120.544 108.516 119.93C108.214 119.133 108.063 118.276 108.063 117.359C108.063 115.875 108.472 114.508 109.29 113.258C110.118 111.982 111.193 111.055 112.516 110.477C113.48 110.055 114.537 109.844 115.688 109.844C117.485 109.844 119.011 110.326 120.266 111.289C121.808 112.471 122.579 114.146 122.579 116.312C122.579 119.943 120.743 122.245 117.071 123.219L116.149 121.648ZM114.977 111.383C114.055 111.487 113.284 111.734 112.665 112.125C112.269 112.38 111.876 112.719 111.485 113.141C110.402 114.339 109.86 115.727 109.86 117.305C109.86 118.456 110.089 119.357 110.548 120.008C110.829 120.409 111.107 120.609 111.383 120.609C111.758 120.609 112.18 120.195 112.649 119.367C113.795 117.352 114.571 114.69 114.977 111.383ZM131.859 115.117V121.312C131.859 121.594 131.932 121.786 132.078 121.891C132.328 122.057 133.174 122.141 134.617 122.141C136.331 122.141 137.357 122.062 137.695 121.906C137.878 121.818 137.99 121.583 138.031 121.203C138.068 120.87 138.099 120.362 138.125 119.68L139.727 120.125C139.669 121.708 139.49 122.685 139.188 123.055C138.964 123.326 138.581 123.495 138.039 123.562C137.258 123.667 136.133 123.719 134.664 123.719C133.372 123.719 132.424 123.693 131.82 123.641C131.081 123.578 130.607 123.331 130.398 122.898C130.284 122.648 130.227 122.292 130.227 121.828V115.672L128.828 116.148L128.414 114.656L130.227 114.047V109.844H131.859V113.492L133.633 112.891V108.82H135.219V112.352L137.883 111.445L138.734 111.953V117.812C138.734 118.245 138.628 118.56 138.414 118.758C138.195 118.966 137.812 119.07 137.266 119.07C136.792 119.07 136.357 119.044 135.961 118.992L135.695 117.492C136.055 117.555 136.372 117.586 136.648 117.586C136.883 117.586 137.029 117.539 137.086 117.445C137.138 117.362 137.164 117.232 137.164 117.055V113.312L135.219 113.977V120.305H133.633V114.516L131.859 115.117ZM128.18 112.633V124.023H126.469V116C126.089 116.62 125.628 117.289 125.086 118.008L124.289 116.281C125.201 115.078 125.971 113.669 126.602 112.055C126.971 111.107 127.341 109.971 127.711 108.648L129.422 109.078C129.01 110.469 128.62 111.594 128.25 112.453C128.224 112.516 128.201 112.576 128.18 112.633Z" fill="#333333"/>
<rect x="164" y="96" width="77" height="40" fill="#6091F5"/>
<path d="M182.681 116.664C183.399 115.576 184.47 115.031 185.892 115.031C187.043 115.031 188.027 115.393 188.845 116.117C189.741 116.914 190.188 117.93 190.188 119.164C190.188 120.43 189.787 121.484 188.985 122.328C188.136 123.224 187.009 123.672 185.603 123.672C183.957 123.672 182.655 123.062 181.696 121.844C180.925 120.859 180.54 119.477 180.54 117.695C180.54 116.456 180.894 115.224 181.603 114C182.79 111.932 184.782 110.57 187.579 109.914L188.313 111.445C186.501 111.971 185.196 112.628 184.399 113.414C183.389 114.409 182.795 115.492 182.618 116.664H182.681ZM185.517 116.539C184.725 116.539 184.05 116.854 183.493 117.484C183.05 117.979 182.829 118.513 182.829 119.086C182.829 119.701 183.004 120.263 183.353 120.773C183.915 121.596 184.649 122.008 185.556 122.008C186.347 122.008 186.998 121.706 187.509 121.102C187.92 120.607 188.126 119.982 188.126 119.227C188.126 118.372 187.873 117.708 187.368 117.234C186.873 116.771 186.256 116.539 185.517 116.539ZM193.157 120.773H195.782V123.398H193.157V120.773ZM201.718 115.766H202.804C203.721 115.766 204.458 115.602 205.015 115.273C205.698 114.872 206.039 114.323 206.039 113.625C206.039 113.047 205.789 112.589 205.289 112.25C204.846 111.953 204.294 111.805 203.633 111.805C202.435 111.805 201.284 112.263 200.179 113.18L199.047 111.781C200.385 110.708 201.961 110.172 203.773 110.172C204.987 110.172 205.984 110.422 206.765 110.922C207.708 111.531 208.179 112.393 208.179 113.508C208.179 114.362 207.854 115.094 207.203 115.703C206.698 116.172 206.031 116.466 205.203 116.586V116.648C206.276 116.826 207.096 117.18 207.664 117.711C208.252 118.263 208.547 119 208.547 119.922C208.547 121.266 208.002 122.271 206.914 122.938C206.096 123.438 205.023 123.688 203.695 123.688C201.601 123.688 199.903 123.047 198.601 121.766L199.781 120.359C200.198 120.802 200.734 121.167 201.39 121.453C202.187 121.802 202.961 121.977 203.711 121.977C204.554 121.977 205.213 121.799 205.687 121.445C206.146 121.107 206.375 120.589 206.375 119.891C206.375 118.932 205.914 118.253 204.992 117.852C204.372 117.581 203.627 117.445 202.758 117.445H201.718V115.766ZM222.757 110.438H224.312L214.757 123.398H213.21L222.757 110.438ZM214.515 110.117C215.52 110.117 216.314 110.505 216.898 111.281C217.392 111.948 217.64 112.779 217.64 113.773C217.64 114.674 217.437 115.44 217.03 116.07C216.447 116.977 215.603 117.43 214.499 117.43C213.52 117.43 212.741 117.065 212.163 116.336C211.632 115.669 211.366 114.818 211.366 113.781C211.366 112.552 211.726 111.594 212.444 110.906C212.996 110.38 213.687 110.117 214.515 110.117ZM214.499 111.555C214.067 111.555 213.718 111.753 213.452 112.148C213.181 112.555 213.046 113.099 213.046 113.781C213.046 114.349 213.148 114.828 213.351 115.219C213.616 115.734 214.002 115.992 214.507 115.992C214.908 115.992 215.239 115.82 215.499 115.477C215.806 115.065 215.96 114.5 215.96 113.781C215.96 113.089 215.817 112.536 215.53 112.125C215.27 111.745 214.926 111.555 214.499 111.555ZM223.023 116.406C223.996 116.406 224.773 116.771 225.351 117.5C225.882 118.172 226.148 119.023 226.148 120.055C226.148 120.971 225.939 121.747 225.523 122.383C224.939 123.273 224.101 123.719 223.007 123.719C221.996 123.719 221.202 123.331 220.624 122.555C220.129 121.888 219.882 121.057 219.882 120.062C219.882 118.854 220.231 117.909 220.929 117.227C221.486 116.68 222.184 116.406 223.023 116.406ZM223.007 117.844C222.606 117.844 222.278 118.016 222.023 118.359C221.715 118.776 221.562 119.344 221.562 120.062C221.562 120.63 221.661 121.109 221.858 121.5C222.124 122.021 222.512 122.281 223.023 122.281C223.455 122.281 223.801 122.083 224.062 121.688C224.332 121.276 224.468 120.734 224.468 120.062C224.468 119.375 224.325 118.826 224.038 118.414C223.778 118.034 223.434 117.844 223.007 117.844Z" fill="white"/>
</svg>
