<svg width="382" height="178" viewBox="0 0 382 178" fill="none" xmlns="http://www.w3.org/2000/svg">
<ellipse cx="198.777" cy="101.5" rx="74" ry="74.5" fill="#F4D45F"/>
<path d="M198.776 101.5H198.78C198.776 101.5 140.955 55 140.957 55C154.517 37.9323 175.379 27 198.776 27C198.776 28.5 198.776 103 198.776 101.5Z" fill="#60C5F5"/>
<path d="M198.777 101.5H198.781C198.777 101.5 162.998 36.2697 163.001 36.2697C154.485 41.0135 163.003 36.2697 163.001 36.2697C173.604 30.3627 185.801 27 198.777 27C198.777 28.5 198.777 103 198.777 101.5Z" fill="#8CF56F"/>
<path d="M198.777 101.502L125.578 112.502C125.051 108.912 124.777 105.239 124.777 101.502C124.777 82.6205 131.754 65.3798 143.254 52.25L198.777 101.502Z" fill="#60C5F5"/>
<path d="M198.777 101.501L125.578 112.5C125.051 108.911 124.777 105.238 124.777 101.5C124.777 90.6331 127.089 80.3094 131.243 71L198.777 101.501Z" fill="#6091F5"/>
<path d="M198.777 101.5L223.253 171.828C215.592 174.53 207.355 176 198.777 176C161.276 176 130.29 147.916 125.438 111.5C125.432 111.5 198.777 101.5 198.779 101.5C198.779 101.5 198.779 101.5 198.777 101.5Z" fill="#F59160"/>
<path d="M198.777 101.5L182.5 174.192C152.616 167.439 129.567 142.486 125.438 111.5C125.432 111.5 198.777 101.5 198.779 101.5C198.779 101.5 198.779 101.5 198.777 101.5Z" fill="#6091F5"/>
<path d="M267.672 47V36.28C267.661 36.2907 267.538 36.3227 267.304 36.376C267.08 36.4293 266.824 36.4827 266.536 36.536C266.248 36.5893 265.992 36.6373 265.768 36.68C265.544 36.7227 265.426 36.744 265.416 36.744V35.448C265.597 35.4053 265.805 35.3467 266.04 35.272C266.285 35.1973 266.53 35.1067 266.776 35C267.032 34.8933 267.272 34.76 267.496 34.6C267.73 34.44 267.928 34.2533 268.088 34.04H269.384V47H267.672ZM275.126 47.144C274.39 47.144 273.782 46.9787 273.302 46.648C272.833 46.3173 272.481 45.864 272.246 45.288C272.022 44.712 271.91 44.056 271.91 43.32V37.736C271.91 36.9787 272.022 36.3173 272.246 35.752C272.47 35.176 272.817 34.728 273.286 34.408C273.766 34.088 274.38 33.928 275.126 33.928C275.873 33.928 276.481 34.088 276.95 34.408C277.42 34.728 277.766 35.176 277.99 35.752C278.214 36.3173 278.326 36.9787 278.326 37.736V43.32C278.326 44.0667 278.209 44.728 277.974 45.304C277.75 45.88 277.404 46.3333 276.934 46.664C276.465 46.984 275.862 47.144 275.126 47.144ZM275.126 45.736C275.532 45.736 275.836 45.6187 276.038 45.384C276.252 45.1493 276.396 44.8507 276.47 44.488C276.556 44.1147 276.598 43.7307 276.598 43.336V37.72C276.598 37.304 276.561 36.9147 276.486 36.552C276.412 36.1787 276.268 35.88 276.054 35.656C275.852 35.432 275.542 35.32 275.126 35.32C274.71 35.32 274.396 35.432 274.182 35.656C273.969 35.88 273.825 36.1787 273.75 36.552C273.676 36.9147 273.638 37.304 273.638 37.72V43.336C273.638 43.7307 273.676 44.1147 273.75 44.488C273.836 44.8507 273.985 45.1493 274.198 45.384C274.422 45.6187 274.732 45.736 275.126 45.736ZM282.24 39.624H291.392V40.792H282.24V39.624ZM290.992 39.624H292.24C292.24 39.624 292.224 40.04 292.208 40.2C291.984 45.16 291.76 47.016 291.184 47.624C290.864 48.024 290.512 48.136 289.952 48.184C289.424 48.232 288.416 48.216 287.408 48.168C287.392 47.8 287.232 47.304 287.008 46.952C288.064 47.048 289.056 47.064 289.44 47.064C289.76 47.064 289.952 47.032 290.112 46.856C290.544 46.424 290.784 44.6 290.992 39.848V39.624ZM284.432 33.896L285.696 34.264C284.544 36.968 282.656 39.352 280.64 40.888C280.416 40.632 279.904 40.168 279.6 39.944C281.648 38.568 283.424 36.36 284.432 33.896ZM290.016 33.864C291.056 36.008 293.12 38.44 294.864 39.672C294.544 39.928 294.096 40.408 293.856 40.744C292.08 39.304 290.064 36.712 288.864 34.328L290.016 33.864ZM285.616 39.944H286.896C286.528 43.448 285.696 46.76 281.232 48.36C281.088 48.056 280.736 47.576 280.464 47.32C284.656 45.928 285.296 42.968 285.616 39.944ZM301.072 36.088L302.144 35.56C303.216 36.728 304.24 38.312 304.704 39.4L303.552 40.024C303.136 38.92 302.096 37.272 301.072 36.088ZM295.808 45.304C297.44 44.664 300 43.576 302.4 42.52L302.672 43.688C300.448 44.712 298.016 45.784 296.24 46.552L295.808 45.304ZM305.408 43.192L306.336 42.408C307.856 43.912 309.84 45.992 310.784 47.304L309.76 48.248C308.864 46.92 306.944 44.76 305.408 43.192ZM307.632 34.392L308.928 34.52C308.112 41.912 306.24 45.992 300.64 48.328C300.464 48.072 299.984 47.544 299.68 47.288C305.216 45.272 306.912 41.352 307.632 34.392ZM297.76 34.44L298.992 34.392L299.264 44.968L298.032 45.016L297.76 34.44ZM318.464 40.056L319.36 39.416C320.992 40.824 323.072 42.824 324.096 44.072L323.104 44.84C322.144 43.576 320.096 41.528 318.464 40.056ZM318.64 33.56H319.872V36.696C319.872 39.256 319.408 42.632 315.28 45.048C315.12 44.792 314.704 44.36 314.432 44.152C318.432 41.992 318.64 38.904 318.64 36.696V33.56ZM312.816 36.296H325.056V37.48H314.016V48.312H312.816V36.296ZM324.512 36.296H325.696V46.696C325.696 47.48 325.504 47.864 324.96 48.072C324.4 48.264 323.408 48.28 321.968 48.28C321.92 47.944 321.728 47.384 321.568 47.048C322.704 47.096 323.792 47.096 324.112 47.08C324.416 47.064 324.512 46.968 324.512 46.696V36.296Z" fill="#E59D00"/>
<path d="M336.494 46.2988V44.9746C336.865 43.8223 337.877 42.6953 339.529 41.5938L339.851 41.377C340.562 40.9043 341.051 40.5176 341.316 40.2168C341.613 39.8809 341.762 39.5176 341.762 39.127C341.762 38.7754 341.654 38.4707 341.439 38.2129C341.119 37.8262 340.641 37.6328 340.004 37.6328C339.055 37.6328 338.201 38.0293 337.443 38.8223L336.435 37.8965C336.701 37.5723 337.017 37.2988 337.385 37.0762C338.17 36.5996 339.045 36.3613 340.01 36.3613C340.76 36.3613 341.41 36.5039 341.961 36.7891C342.437 37.0391 342.805 37.3789 343.062 37.8086C343.301 38.2148 343.42 38.6543 343.42 39.127C343.42 39.748 343.184 40.3223 342.711 40.8496C342.394 41.2051 341.803 41.6777 340.935 42.2676L340.56 42.5195C339.642 43.1406 339.037 43.6016 338.744 43.9023C338.385 44.2695 338.146 44.5996 338.029 44.8926H343.514V46.2988H336.494ZM346.56 36.5781H353.942V37.8145C353.263 38.9082 352.593 40.3418 351.933 42.1152C351.343 43.7012 350.913 45.0957 350.644 46.2988H349.009C349.337 44.791 349.892 43.1406 350.673 41.3477C351.431 39.6133 351.976 38.4844 352.308 37.9609H348.013V39.9531H346.56V36.5781ZM356.443 44.3301H358.412V46.2988H356.443V44.3301ZM364.019 46.2988V38.0195C363.19 38.2969 362.409 38.502 361.675 38.6348L361.388 37.4453C362.626 37.1445 363.642 36.7969 364.435 36.4023H365.56V46.2988H364.019ZM378.045 36.5781H379.211L372.045 46.2988H370.885L378.045 36.5781ZM371.863 36.3379C372.617 36.3379 373.213 36.6289 373.65 37.2109C374.022 37.7109 374.207 38.334 374.207 39.0801C374.207 39.7559 374.055 40.3301 373.75 40.8027C373.313 41.4824 372.68 41.8223 371.852 41.8223C371.117 41.8223 370.533 41.5488 370.1 41.002C369.701 40.502 369.502 39.8633 369.502 39.0859C369.502 38.1641 369.772 37.4453 370.311 36.9297C370.725 36.5352 371.242 36.3379 371.863 36.3379ZM371.852 37.416C371.527 37.416 371.266 37.5645 371.066 37.8613C370.863 38.166 370.762 38.5742 370.762 39.0859C370.762 39.5117 370.838 39.8711 370.99 40.1641C371.19 40.5508 371.479 40.7441 371.857 40.7441C372.158 40.7441 372.406 40.6152 372.602 40.3574C372.832 40.0488 372.947 39.625 372.947 39.0859C372.947 38.5664 372.84 38.1523 372.625 37.8438C372.43 37.5586 372.172 37.416 371.852 37.416ZM378.244 41.0547C378.975 41.0547 379.557 41.3281 379.99 41.875C380.389 42.3789 380.588 43.0176 380.588 43.791C380.588 44.4785 380.432 45.0605 380.119 45.5371C379.682 46.2051 379.053 46.5391 378.232 46.5391C377.475 46.5391 376.879 46.248 376.445 45.666C376.074 45.166 375.889 44.543 375.889 43.7969C375.889 42.8906 376.15 42.1816 376.674 41.6699C377.092 41.2598 377.615 41.0547 378.244 41.0547ZM378.232 42.1328C377.932 42.1328 377.686 42.2617 377.494 42.5195C377.264 42.832 377.149 43.2578 377.149 43.7969C377.149 44.2227 377.223 44.582 377.371 44.875C377.57 45.2656 377.861 45.4609 378.244 45.4609C378.568 45.4609 378.828 45.3125 379.024 45.0156C379.227 44.707 379.328 44.3008 379.328 43.7969C379.328 43.2812 379.221 42.8691 379.006 42.5605C378.811 42.2754 378.553 42.1328 378.232 42.1328Z" fill="#E59D00"/>
<path d="M272.117 111.5C268.319 140 248.515 163.396 222.109 172.221C222.109 174.5 198.778 101.5 198.775 101.5C198.775 101.5 157.909 101.5 198.778 101.5L272.117 111.5C272.553 114.771 272.049 111.999 272.117 111.5Z" fill="#F59160"/>
<circle cx="198.777" cy="102" r="37" fill="#F9F9F9"/>
<path d="M260.998 176V174.784L264.294 169.648C264.539 169.264 264.763 168.907 264.966 168.576C265.179 168.245 265.35 167.899 265.478 167.536C265.616 167.163 265.686 166.736 265.686 166.256C265.686 165.659 265.59 165.189 265.398 164.848C265.206 164.507 264.87 164.336 264.39 164.336C263.984 164.336 263.67 164.448 263.446 164.672C263.222 164.896 263.067 165.189 262.982 165.552C262.896 165.915 262.854 166.304 262.854 166.72V167.152H261.142V166.704C261.142 165.925 261.243 165.259 261.446 164.704C261.659 164.139 261.995 163.701 262.454 163.392C262.923 163.083 263.542 162.928 264.31 162.928C265.355 162.928 266.134 163.227 266.646 163.824C267.158 164.411 267.414 165.227 267.414 166.272C267.414 166.827 267.344 167.312 267.206 167.728C267.078 168.144 266.907 168.533 266.694 168.896C266.48 169.259 266.246 169.632 265.99 170.016L263.014 174.56H267.11V176H260.998ZM272.126 176.144C271.39 176.144 270.782 175.979 270.302 175.648C269.833 175.317 269.481 174.864 269.246 174.288C269.022 173.712 268.91 173.056 268.91 172.32V166.736C268.91 165.979 269.022 165.317 269.246 164.752C269.47 164.176 269.817 163.728 270.286 163.408C270.766 163.088 271.38 162.928 272.126 162.928C272.873 162.928 273.481 163.088 273.95 163.408C274.42 163.728 274.766 164.176 274.99 164.752C275.214 165.317 275.326 165.979 275.326 166.736V172.32C275.326 173.067 275.209 173.728 274.974 174.304C274.75 174.88 274.404 175.333 273.934 175.664C273.465 175.984 272.862 176.144 272.126 176.144ZM272.126 174.736C272.532 174.736 272.836 174.619 273.038 174.384C273.252 174.149 273.396 173.851 273.47 173.488C273.556 173.115 273.598 172.731 273.598 172.336V166.72C273.598 166.304 273.561 165.915 273.486 165.552C273.412 165.179 273.268 164.88 273.054 164.656C272.852 164.432 272.542 164.32 272.126 164.32C271.71 164.32 271.396 164.432 271.182 164.656C270.969 164.88 270.825 165.179 270.75 165.552C270.676 165.915 270.638 166.304 270.638 166.72V172.336C270.638 172.731 270.676 173.115 270.75 173.488C270.836 173.851 270.985 174.149 271.198 174.384C271.422 174.619 271.732 174.736 272.126 174.736ZM279.24 168.624H288.392V169.792H279.24V168.624ZM287.992 168.624H289.24C289.24 168.624 289.224 169.04 289.208 169.2C288.984 174.16 288.76 176.016 288.184 176.624C287.864 177.024 287.512 177.136 286.952 177.184C286.424 177.232 285.416 177.216 284.408 177.168C284.392 176.8 284.232 176.304 284.008 175.952C285.064 176.048 286.056 176.064 286.44 176.064C286.76 176.064 286.952 176.032 287.112 175.856C287.544 175.424 287.784 173.6 287.992 168.848V168.624ZM281.432 162.896L282.696 163.264C281.544 165.968 279.656 168.352 277.64 169.888C277.416 169.632 276.904 169.168 276.6 168.944C278.648 167.568 280.424 165.36 281.432 162.896ZM287.016 162.864C288.056 165.008 290.12 167.44 291.864 168.672C291.544 168.928 291.096 169.408 290.856 169.744C289.08 168.304 287.064 165.712 285.864 163.328L287.016 162.864ZM282.616 168.944H283.896C283.528 172.448 282.696 175.76 278.232 177.36C278.088 177.056 277.736 176.576 277.464 176.32C281.656 174.928 282.296 171.968 282.616 168.944ZM298.072 165.088L299.144 164.56C300.216 165.728 301.24 167.312 301.704 168.4L300.552 169.024C300.136 167.92 299.096 166.272 298.072 165.088ZM292.808 174.304C294.44 173.664 297 172.576 299.4 171.52L299.672 172.688C297.448 173.712 295.016 174.784 293.24 175.552L292.808 174.304ZM302.408 172.192L303.336 171.408C304.856 172.912 306.84 174.992 307.784 176.304L306.76 177.248C305.864 175.92 303.944 173.76 302.408 172.192ZM304.632 163.392L305.928 163.52C305.112 170.912 303.24 174.992 297.64 177.328C297.464 177.072 296.984 176.544 296.68 176.288C302.216 174.272 303.912 170.352 304.632 163.392ZM294.76 163.44L295.992 163.392L296.264 173.968L295.032 174.016L294.76 163.44ZM315.464 169.056L316.36 168.416C317.992 169.824 320.072 171.824 321.096 173.072L320.104 173.84C319.144 172.576 317.096 170.528 315.464 169.056ZM315.64 162.56H316.872V165.696C316.872 168.256 316.408 171.632 312.28 174.048C312.12 173.792 311.704 173.36 311.432 173.152C315.432 170.992 315.64 167.904 315.64 165.696V162.56ZM309.816 165.296H322.056V166.48H311.016V177.312H309.816V165.296ZM321.512 165.296H322.696V175.696C322.696 176.48 322.504 176.864 321.96 177.072C321.4 177.264 320.408 177.28 318.968 177.28C318.92 176.944 318.728 176.384 318.568 176.048C319.704 176.096 320.792 176.096 321.112 176.08C321.416 176.064 321.512 175.968 321.512 175.696V165.296Z" fill="#DC6B34"/>
<path d="M333.714 175.299V173.975C334.085 172.822 335.097 171.695 336.749 170.594L337.071 170.377C337.782 169.904 338.27 169.518 338.536 169.217C338.833 168.881 338.981 168.518 338.981 168.127C338.981 167.775 338.874 167.471 338.659 167.213C338.339 166.826 337.86 166.633 337.224 166.633C336.274 166.633 335.421 167.029 334.663 167.822L333.655 166.896C333.921 166.572 334.237 166.299 334.604 166.076C335.39 165.6 336.265 165.361 337.229 165.361C337.979 165.361 338.63 165.504 339.181 165.789C339.657 166.039 340.024 166.379 340.282 166.809C340.52 167.215 340.64 167.654 340.64 168.127C340.64 168.748 340.403 169.322 339.931 169.85C339.614 170.205 339.022 170.678 338.155 171.268L337.78 171.52C336.862 172.141 336.257 172.602 335.964 172.902C335.604 173.27 335.366 173.6 335.249 173.893H340.733V175.299H333.714ZM344.582 165.578H350.26V166.873H345.854L345.508 169.645H345.555C346.156 169.211 346.854 168.994 347.646 168.994C348.189 168.994 348.699 169.117 349.176 169.363C349.844 169.703 350.311 170.221 350.576 170.916C350.725 171.307 350.799 171.74 350.799 172.217C350.799 173.287 350.404 174.131 349.615 174.748C348.959 175.26 348.143 175.516 347.166 175.516C345.752 175.516 344.615 175.09 343.756 174.238L344.559 173.23C344.871 173.539 345.252 173.777 345.701 173.945C346.189 174.129 346.67 174.221 347.143 174.221C347.678 174.221 348.135 174.072 348.514 173.775C348.998 173.396 349.24 172.873 349.24 172.205C349.24 171.623 349.072 171.148 348.736 170.781C348.373 170.383 347.871 170.184 347.23 170.184C346.359 170.184 345.721 170.488 345.314 171.098L343.996 170.881L344.582 165.578ZM361.825 165.578H362.991L355.825 175.299H354.665L361.825 165.578ZM355.644 165.338C356.398 165.338 356.993 165.629 357.431 166.211C357.802 166.711 357.987 167.334 357.987 168.08C357.987 168.756 357.835 169.33 357.53 169.803C357.093 170.482 356.46 170.822 355.632 170.822C354.898 170.822 354.314 170.549 353.88 170.002C353.481 169.502 353.282 168.863 353.282 168.086C353.282 167.164 353.552 166.445 354.091 165.93C354.505 165.535 355.023 165.338 355.644 165.338ZM355.632 166.416C355.308 166.416 355.046 166.564 354.847 166.861C354.644 167.166 354.542 167.574 354.542 168.086C354.542 168.512 354.618 168.871 354.771 169.164C354.97 169.551 355.259 169.744 355.638 169.744C355.939 169.744 356.187 169.615 356.382 169.357C356.612 169.049 356.728 168.625 356.728 168.086C356.728 167.566 356.62 167.152 356.405 166.844C356.21 166.559 355.952 166.416 355.632 166.416ZM362.024 170.055C362.755 170.055 363.337 170.328 363.771 170.875C364.169 171.379 364.368 172.018 364.368 172.791C364.368 173.479 364.212 174.061 363.899 174.537C363.462 175.205 362.833 175.539 362.013 175.539C361.255 175.539 360.659 175.248 360.226 174.666C359.855 174.166 359.669 173.543 359.669 172.797C359.669 171.891 359.931 171.182 360.454 170.67C360.872 170.26 361.396 170.055 362.024 170.055ZM362.013 171.133C361.712 171.133 361.466 171.262 361.274 171.52C361.044 171.832 360.929 172.258 360.929 172.797C360.929 173.223 361.003 173.582 361.151 173.875C361.351 174.266 361.642 174.461 362.024 174.461C362.349 174.461 362.608 174.312 362.804 174.016C363.007 173.707 363.108 173.301 363.108 172.797C363.108 172.281 363.001 171.869 362.786 171.561C362.591 171.275 362.333 171.133 362.013 171.133Z" fill="#DC6B34"/>
<path d="M4.67128 142.144C3.96728 142.144 3.38061 142.011 2.91128 141.744C2.44195 141.477 2.08995 141.093 1.85528 140.592C1.62061 140.091 1.50328 139.499 1.50328 138.816V138.384H3.19928C3.19928 138.427 3.19928 138.475 3.19928 138.528C3.19928 138.571 3.19928 138.619 3.19928 138.672C3.20995 139.056 3.25261 139.403 3.32728 139.712C3.41261 140.021 3.55661 140.267 3.75928 140.448C3.97261 140.629 4.27661 140.72 4.67128 140.72C5.08728 140.72 5.40195 140.624 5.61528 140.432C5.82861 140.229 5.97261 139.947 6.04728 139.584C6.12195 139.221 6.15928 138.805 6.15928 138.336C6.15928 137.653 6.03128 137.099 5.77528 136.672C5.52995 136.235 5.09261 135.995 4.46328 135.952C4.43128 135.941 4.38861 135.936 4.33528 135.936C4.29261 135.936 4.25528 135.936 4.22328 135.936V134.224C4.25528 134.224 4.29261 134.224 4.33528 134.224C4.37795 134.224 4.41528 134.224 4.44728 134.224C5.05528 134.203 5.49261 134.043 5.75928 133.744C6.02595 133.445 6.15928 132.949 6.15928 132.256C6.15928 131.669 6.05795 131.2 5.85528 130.848C5.66328 130.496 5.27395 130.32 4.68728 130.32C4.10061 130.32 3.71128 130.517 3.51928 130.912C3.32728 131.296 3.22061 131.792 3.19928 132.4C3.19928 132.443 3.19928 132.491 3.19928 132.544C3.19928 132.587 3.19928 132.629 3.19928 132.672H1.50328V132.24C1.50328 131.547 1.62061 130.955 1.85528 130.464C2.08995 129.973 2.44195 129.595 2.91128 129.328C3.39128 129.061 3.98328 128.928 4.68728 128.928C5.40195 128.928 5.99395 129.061 6.46328 129.328C6.93261 129.595 7.28461 129.979 7.51928 130.48C7.75395 130.971 7.87128 131.563 7.87128 132.256C7.87128 133.035 7.70061 133.659 7.35928 134.128C7.02861 134.597 6.58062 134.917 6.01528 135.088C6.40995 135.205 6.74061 135.408 7.00728 135.696C7.28461 135.984 7.49795 136.352 7.64728 136.8C7.79661 137.237 7.87128 137.749 7.87128 138.336C7.87128 139.104 7.76461 139.776 7.55128 140.352C7.33795 140.917 6.99661 141.36 6.52728 141.68C6.05795 141.989 5.43928 142.144 4.67128 142.144ZM12.6323 142.144C11.8963 142.144 11.2883 141.979 10.8083 141.648C10.3389 141.317 9.98695 140.864 9.75228 140.288C9.52828 139.712 9.41628 139.056 9.41628 138.32V132.736C9.41628 131.979 9.52828 131.317 9.75228 130.752C9.97628 130.176 10.3229 129.728 10.7923 129.408C11.2723 129.088 11.8856 128.928 12.6323 128.928C13.3789 128.928 13.9869 129.088 14.4563 129.408C14.9256 129.728 15.2723 130.176 15.4963 130.752C15.7203 131.317 15.8323 131.979 15.8323 132.736V138.32C15.8323 139.067 15.7149 139.728 15.4803 140.304C15.2563 140.88 14.9096 141.333 14.4403 141.664C13.9709 141.984 13.3683 142.144 12.6323 142.144ZM12.6323 140.736C13.0376 140.736 13.3416 140.619 13.5443 140.384C13.7576 140.149 13.9016 139.851 13.9763 139.488C14.0616 139.115 14.1043 138.731 14.1043 138.336V132.72C14.1043 132.304 14.0669 131.915 13.9923 131.552C13.9176 131.179 13.7736 130.88 13.5603 130.656C13.3576 130.432 13.0483 130.32 12.6323 130.32C12.2163 130.32 11.9016 130.432 11.6883 130.656C11.4749 130.88 11.3309 131.179 11.2563 131.552C11.1816 131.915 11.1443 132.304 11.1443 132.72V138.336C11.1443 138.731 11.1816 139.115 11.2563 139.488C11.3416 139.851 11.4909 140.149 11.7043 140.384C11.9283 140.619 12.2376 140.736 12.6323 140.736ZM19.7459 134.624H28.8979V135.792H19.7459V134.624ZM28.4979 134.624H29.7459C29.7459 134.624 29.7299 135.04 29.7139 135.2C29.4899 140.16 29.2659 142.016 28.6899 142.624C28.3699 143.024 28.0179 143.136 27.4579 143.184C26.9299 143.232 25.9219 143.216 24.9139 143.168C24.8979 142.8 24.7379 142.304 24.5139 141.952C25.5699 142.048 26.5619 142.064 26.9459 142.064C27.2659 142.064 27.4579 142.032 27.6179 141.856C28.0499 141.424 28.2899 139.6 28.4979 134.848V134.624ZM21.9379 128.896L23.2019 129.264C22.0499 131.968 20.1619 134.352 18.1459 135.888C17.9219 135.632 17.4099 135.168 17.1059 134.944C19.1539 133.568 20.9299 131.36 21.9379 128.896ZM27.5219 128.864C28.5619 131.008 30.6259 133.44 32.3699 134.672C32.0499 134.928 31.6019 135.408 31.3619 135.744C29.5859 134.304 27.5699 131.712 26.3699 129.328L27.5219 128.864ZM23.1219 134.944H24.4019C24.0339 138.448 23.2019 141.76 18.7379 143.36C18.5939 143.056 18.2419 142.576 17.9699 142.32C22.1619 140.928 22.8019 137.968 23.1219 134.944ZM38.5779 131.088L39.6499 130.56C40.7219 131.728 41.7459 133.312 42.2099 134.4L41.0579 135.024C40.6419 133.92 39.6019 132.272 38.5779 131.088ZM33.3139 140.304C34.9459 139.664 37.5059 138.576 39.9059 137.52L40.1779 138.688C37.9539 139.712 35.5219 140.784 33.7459 141.552L33.3139 140.304ZM42.9139 138.192L43.8419 137.408C45.3619 138.912 47.3459 140.992 48.2899 142.304L47.2659 143.248C46.3699 141.92 44.4499 139.76 42.9139 138.192ZM45.1379 129.392L46.4339 129.52C45.6179 136.912 43.7459 140.992 38.1459 143.328C37.9699 143.072 37.4899 142.544 37.1859 142.288C42.7219 140.272 44.4179 136.352 45.1379 129.392ZM35.2659 129.44L36.4979 129.392L36.7699 139.968L35.5379 140.016L35.2659 129.44ZM55.9699 135.056L56.8659 134.416C58.4979 135.824 60.5779 137.824 61.6019 139.072L60.6099 139.84C59.6499 138.576 57.6019 136.528 55.9699 135.056ZM56.1459 128.56H57.3779V131.696C57.3779 134.256 56.9139 137.632 52.7859 140.048C52.6259 139.792 52.2099 139.36 51.9379 139.152C55.9379 136.992 56.1459 133.904 56.1459 131.696V128.56ZM50.3219 131.296H62.5619V132.48H51.5219V143.312H50.3219V131.296ZM62.0179 131.296H63.2019V141.696C63.2019 142.48 63.0099 142.864 62.4659 143.072C61.9059 143.264 60.9139 143.28 59.4739 143.28C59.4259 142.944 59.2339 142.384 59.0739 142.048C60.2099 142.096 61.2979 142.096 61.6179 142.08C61.9219 142.064 62.0179 141.968 62.0179 141.696V131.296Z" fill="#2861D4"/>
<path d="M74.2206 140.299V138.975C74.5917 137.822 75.6034 136.695 77.2558 135.594L77.578 135.377C78.289 134.904 78.7773 134.518 79.0429 134.217C79.3398 133.881 79.4882 133.518 79.4882 133.127C79.4882 132.775 79.3808 132.471 79.1659 132.213C78.8456 131.826 78.3671 131.633 77.7304 131.633C76.7812 131.633 75.9277 132.029 75.1698 132.822L74.162 131.896C74.4277 131.572 74.7441 131.299 75.1112 131.076C75.8964 130.6 76.7714 130.361 77.7362 130.361C78.4862 130.361 79.1366 130.504 79.6874 130.789C80.164 131.039 80.5312 131.379 80.789 131.809C81.0273 132.215 81.1464 132.654 81.1464 133.127C81.1464 133.748 80.9101 134.322 80.4374 134.85C80.121 135.205 79.5292 135.678 78.662 136.268L78.287 136.52C77.3691 137.141 76.7636 137.602 76.4706 137.902C76.1112 138.27 75.873 138.6 75.7558 138.893H81.2402V140.299H74.2206ZM89.6533 135.822C89.4423 136.158 89.163 136.428 88.8154 136.631C88.3427 136.9 87.8095 137.035 87.2158 137.035C86.3447 137.035 85.6064 136.76 85.0009 136.209C84.3408 135.611 84.0107 134.816 84.0107 133.824C84.0107 132.926 84.2705 132.174 84.79 131.568C85.4814 130.756 86.3916 130.35 87.5205 130.35C88.7236 130.35 89.6572 130.77 90.3212 131.609C90.9228 132.363 91.2236 133.467 91.2236 134.92C91.2236 136.326 90.8994 137.492 90.2509 138.418C89.7666 139.109 89.0654 139.648 88.1474 140.035C87.5029 140.305 86.7002 140.518 85.7392 140.674L85.0888 139.379C86.4677 139.258 87.5205 138.934 88.247 138.406C89.04 137.828 89.5283 136.967 89.7119 135.822H89.6533ZM87.5146 131.609C86.9209 131.609 86.4365 131.834 86.0615 132.283C85.7412 132.666 85.581 133.162 85.581 133.771C85.581 134.354 85.7373 134.82 86.0498 135.172C86.4287 135.605 86.9052 135.822 87.4795 135.822C88.1474 135.822 88.6709 135.576 89.0498 135.084C89.3545 134.693 89.5068 134.266 89.5068 133.801C89.5068 133.223 89.3623 132.744 89.0732 132.365C88.6904 131.861 88.1709 131.609 87.5146 131.609ZM94.1699 138.33H96.1387V140.299H94.1699V138.33ZM99.2959 140.299V138.975C99.667 137.822 100.679 136.695 102.331 135.594L102.653 135.377C103.364 134.904 103.853 134.518 104.118 134.217C104.415 133.881 104.564 133.518 104.564 133.127C104.564 132.775 104.456 132.471 104.241 132.213C103.921 131.826 103.442 131.633 102.806 131.633C101.856 131.633 101.003 132.029 100.245 132.822L99.2373 131.896C99.503 131.572 99.8194 131.299 100.187 131.076C100.972 130.6 101.847 130.361 102.812 130.361C103.562 130.361 104.212 130.504 104.763 130.789C105.239 131.039 105.606 131.379 105.864 131.809C106.103 132.215 106.222 132.654 106.222 133.127C106.222 133.748 105.985 134.322 105.513 134.85C105.196 135.205 104.605 135.678 103.737 136.268L103.362 136.52C102.444 137.141 101.839 137.602 101.546 137.902C101.187 138.27 100.948 138.6 100.831 138.893H106.315V140.299H99.2959ZM117.33 130.578H118.496L111.33 140.299H110.17L117.33 130.578ZM111.149 130.338C111.902 130.338 112.498 130.629 112.936 131.211C113.307 131.711 113.492 132.334 113.492 133.08C113.492 133.756 113.34 134.33 113.035 134.803C112.598 135.482 111.965 135.822 111.137 135.822C110.402 135.822 109.818 135.549 109.385 135.002C108.986 134.502 108.787 133.863 108.787 133.086C108.787 132.164 109.057 131.445 109.596 130.93C110.01 130.535 110.527 130.338 111.149 130.338ZM111.137 131.416C110.813 131.416 110.551 131.564 110.352 131.861C110.149 132.166 110.047 132.574 110.047 133.086C110.047 133.512 110.123 133.871 110.275 134.164C110.475 134.551 110.764 134.744 111.143 134.744C111.443 134.744 111.691 134.615 111.887 134.357C112.117 134.049 112.232 133.625 112.232 133.086C112.232 132.566 112.125 132.152 111.91 131.844C111.715 131.559 111.457 131.416 111.137 131.416ZM117.529 135.055C118.26 135.055 118.842 135.328 119.275 135.875C119.674 136.379 119.873 137.018 119.873 137.791C119.873 138.479 119.717 139.061 119.404 139.537C118.967 140.205 118.338 140.539 117.518 140.539C116.76 140.539 116.164 140.248 115.731 139.666C115.359 139.166 115.174 138.543 115.174 137.797C115.174 136.891 115.436 136.182 115.959 135.67C116.377 135.26 116.9 135.055 117.529 135.055ZM117.518 136.133C117.217 136.133 116.971 136.262 116.779 136.52C116.549 136.832 116.434 137.258 116.434 137.797C116.434 138.223 116.508 138.582 116.656 138.875C116.856 139.266 117.147 139.461 117.529 139.461C117.854 139.461 118.113 139.312 118.309 139.016C118.512 138.707 118.613 138.301 118.613 137.797C118.613 137.281 118.506 136.869 118.291 136.561C118.096 136.275 117.838 136.133 117.518 136.133Z" fill="#2861D4"/>
<path d="M14.1539 55V51.528H10.3939V49.736L13.7699 42.04H15.7859V50.008H17.2419V51.528H15.7859V55H14.1539ZM12.0419 50.008H14.1539V44.12L12.0419 50.008ZM21.6323 55.144C20.8963 55.144 20.2883 54.9787 19.8083 54.648C19.3389 54.3173 18.9869 53.864 18.7523 53.288C18.5283 52.712 18.4163 52.056 18.4163 51.32V45.736C18.4163 44.9787 18.5283 44.3173 18.7523 43.752C18.9763 43.176 19.3229 42.728 19.7923 42.408C20.2723 42.088 20.8856 41.928 21.6323 41.928C22.3789 41.928 22.9869 42.088 23.4563 42.408C23.9256 42.728 24.2723 43.176 24.4963 43.752C24.7203 44.3173 24.8323 44.9787 24.8323 45.736V51.32C24.8323 52.0667 24.7149 52.728 24.4803 53.304C24.2563 53.88 23.9096 54.3333 23.4403 54.664C22.9709 54.984 22.3683 55.144 21.6323 55.144ZM21.6323 53.736C22.0376 53.736 22.3416 53.6187 22.5443 53.384C22.7576 53.1493 22.9016 52.8507 22.9763 52.488C23.0616 52.1147 23.1043 51.7307 23.1043 51.336V45.72C23.1043 45.304 23.0669 44.9147 22.9923 44.552C22.9176 44.1787 22.7736 43.88 22.5603 43.656C22.3576 43.432 22.0483 43.32 21.6323 43.32C21.2163 43.32 20.9016 43.432 20.6883 43.656C20.4749 43.88 20.3309 44.1787 20.2563 44.552C20.1816 44.9147 20.1443 45.304 20.1443 45.72V51.336C20.1443 51.7307 20.1816 52.1147 20.2563 52.488C20.3416 52.8507 20.4909 53.1493 20.7043 53.384C20.9283 53.6187 21.2376 53.736 21.6323 53.736ZM28.7459 47.624H37.8979V48.792H28.7459V47.624ZM37.4979 47.624H38.7459C38.7459 47.624 38.7299 48.04 38.7139 48.2C38.4899 53.16 38.2659 55.016 37.6899 55.624C37.3699 56.024 37.0179 56.136 36.4579 56.184C35.9299 56.232 34.9219 56.216 33.9139 56.168C33.8979 55.8 33.7379 55.304 33.5139 54.952C34.5699 55.048 35.5619 55.064 35.9459 55.064C36.2659 55.064 36.4579 55.032 36.6179 54.856C37.0499 54.424 37.2899 52.6 37.4979 47.848V47.624ZM30.9379 41.896L32.2019 42.264C31.0499 44.968 29.1619 47.352 27.1459 48.888C26.9219 48.632 26.4099 48.168 26.1059 47.944C28.1539 46.568 29.9299 44.36 30.9379 41.896ZM36.5219 41.864C37.5619 44.008 39.6259 46.44 41.3699 47.672C41.0499 47.928 40.6019 48.408 40.3619 48.744C38.5859 47.304 36.5699 44.712 35.3699 42.328L36.5219 41.864ZM32.1219 47.944H33.4019C33.0339 51.448 32.2019 54.76 27.7379 56.36C27.5939 56.056 27.2419 55.576 26.9699 55.32C31.1619 53.928 31.8019 50.968 32.1219 47.944ZM47.5779 44.088L48.6499 43.56C49.7219 44.728 50.7459 46.312 51.2099 47.4L50.0579 48.024C49.6419 46.92 48.6019 45.272 47.5779 44.088ZM42.3139 53.304C43.9459 52.664 46.5059 51.576 48.9059 50.52L49.1779 51.688C46.9539 52.712 44.5219 53.784 42.7459 54.552L42.3139 53.304ZM51.9139 51.192L52.8419 50.408C54.3619 51.912 56.3459 53.992 57.2899 55.304L56.2659 56.248C55.3699 54.92 53.4499 52.76 51.9139 51.192ZM54.1379 42.392L55.4339 42.52C54.6179 49.912 52.7459 53.992 47.1459 56.328C46.9699 56.072 46.4899 55.544 46.1859 55.288C51.7219 53.272 53.4179 49.352 54.1379 42.392ZM44.2659 42.44L45.4979 42.392L45.7699 52.968L44.5379 53.016L44.2659 42.44ZM64.9699 48.056L65.8659 47.416C67.4979 48.824 69.5779 50.824 70.6019 52.072L69.6099 52.84C68.6499 51.576 66.6019 49.528 64.9699 48.056ZM65.1459 41.56H66.3779V44.696C66.3779 47.256 65.9139 50.632 61.7859 53.048C61.6259 52.792 61.2099 52.36 60.9379 52.152C64.9379 49.992 65.1459 46.904 65.1459 44.696V41.56ZM59.3219 44.296H71.5619V45.48H60.5219V56.312H59.3219V44.296ZM71.0179 44.296H72.2019V54.696C72.2019 55.48 72.0099 55.864 71.4659 56.072C70.9059 56.264 69.9139 56.28 68.4739 56.28C68.4259 55.944 68.2339 55.384 68.0739 55.048C69.2099 55.096 70.2979 55.096 70.6179 55.08C70.9219 55.064 71.0179 54.968 71.0179 54.696V44.296Z" fill="#319CCF"/>
<path d="M85.4491 53.2988V45.0195C84.621 45.2969 83.8398 45.502 83.1054 45.6348L82.8183 44.4453C84.0566 44.1445 85.0722 43.7969 85.8652 43.4023H86.9902V53.2988H85.4491ZM95.0459 43.3379C96.2763 43.3379 97.2295 43.8711 97.9052 44.9375C98.4716 45.8281 98.7548 47.002 98.7548 48.459C98.7548 49.791 98.5146 50.8887 98.0341 51.752C97.3662 52.959 96.3642 53.5625 95.0283 53.5625C93.8291 53.5625 92.8935 53.0625 92.2216 52.0625C91.6162 51.1641 91.3134 49.9629 91.3134 48.459C91.3134 46.8965 91.6377 45.6602 92.2861 44.75C92.958 43.8086 93.8779 43.3379 95.0459 43.3379ZM95.0283 44.5977C94.3955 44.5977 93.8955 44.9453 93.5283 45.6406C93.1728 46.3203 92.9951 47.2598 92.9951 48.459C92.9951 49.5801 93.1572 50.4746 93.4814 51.1426C93.8525 51.9004 94.372 52.2793 95.04 52.2793C95.6259 52.2793 96.1005 51.9746 96.4638 51.3652C96.8701 50.6816 97.0732 49.7129 97.0732 48.459C97.0732 47.2676 96.8974 46.332 96.5459 45.6523C96.1787 44.9492 95.6728 44.5977 95.0283 44.5977ZM101.391 51.3301H103.359V53.2988H101.391V51.3301ZM110.384 43.5195H112.206V49.8066H113.946V51.0547H112.206V53.2988H110.741V51.0547H105.872V49.8184L110.384 43.5195ZM110.741 49.8066V47.0234C110.741 46.3867 110.769 45.6621 110.823 44.8496H110.776C110.397 45.6543 110.073 46.2461 109.804 46.625L107.577 49.8066H110.741ZM124.551 43.5781H125.717L118.551 53.2988H117.391L124.551 43.5781ZM118.369 43.3379C119.123 43.3379 119.719 43.6289 120.156 44.2109C120.527 44.7109 120.713 45.334 120.713 46.0801C120.713 46.7559 120.561 47.3301 120.256 47.8027C119.818 48.4824 119.186 48.8223 118.357 48.8223C117.623 48.8223 117.039 48.5488 116.606 48.002C116.207 47.502 116.008 46.8633 116.008 46.0859C116.008 45.1641 116.277 44.4453 116.816 43.9297C117.231 43.5352 117.748 43.3379 118.369 43.3379ZM118.357 44.416C118.033 44.416 117.772 44.5645 117.572 44.8613C117.369 45.166 117.268 45.5742 117.268 46.0859C117.268 46.5117 117.344 46.8711 117.496 47.1641C117.695 47.5508 117.984 47.7441 118.363 47.7441C118.664 47.7441 118.912 47.6152 119.107 47.3574C119.338 47.0488 119.453 46.625 119.453 46.0859C119.453 45.5664 119.346 45.1523 119.131 44.8438C118.936 44.5586 118.678 44.416 118.357 44.416ZM124.75 48.0547C125.481 48.0547 126.063 48.3281 126.496 48.875C126.895 49.3789 127.094 50.0176 127.094 50.791C127.094 51.4785 126.938 52.0605 126.625 52.5371C126.188 53.2051 125.559 53.5391 124.738 53.5391C123.981 53.5391 123.385 53.248 122.951 52.666C122.58 52.166 122.395 51.543 122.395 50.7969C122.395 49.8906 122.656 49.1816 123.18 48.6699C123.598 48.2598 124.121 48.0547 124.75 48.0547ZM124.738 49.1328C124.438 49.1328 124.191 49.2617 124 49.5195C123.77 49.832 123.654 50.2578 123.654 50.7969C123.654 51.2227 123.729 51.582 123.877 51.875C124.076 52.2656 124.367 52.4609 124.75 52.4609C125.074 52.4609 125.334 52.3125 125.529 52.0156C125.732 51.707 125.834 51.3008 125.834 50.7969C125.834 50.2812 125.727 49.8691 125.512 49.5605C125.316 49.2754 125.059 49.1328 124.738 49.1328Z" fill="#319CCF"/>
<path d="M124.154 15V11.528H120.394V9.736L123.77 2.04H125.786V10.008H127.242V11.528H125.786V15H124.154ZM122.042 10.008H124.154V4.12L122.042 10.008ZM131.632 15.144C130.896 15.144 130.288 14.9787 129.808 14.648C129.339 14.3173 128.987 13.864 128.752 13.288C128.528 12.712 128.416 12.056 128.416 11.32V5.736C128.416 4.97867 128.528 4.31733 128.752 3.752C128.976 3.176 129.323 2.728 129.792 2.408C130.272 2.088 130.886 1.928 131.632 1.928C132.379 1.928 132.987 2.088 133.456 2.408C133.926 2.728 134.272 3.176 134.496 3.752C134.72 4.31733 134.832 4.97867 134.832 5.736V11.32C134.832 12.0667 134.715 12.728 134.48 13.304C134.256 13.88 133.91 14.3333 133.44 14.664C132.971 14.984 132.368 15.144 131.632 15.144ZM131.632 13.736C132.038 13.736 132.342 13.6187 132.544 13.384C132.758 13.1493 132.902 12.8507 132.976 12.488C133.062 12.1147 133.104 11.7307 133.104 11.336V5.72C133.104 5.304 133.067 4.91467 132.992 4.552C132.918 4.17867 132.774 3.88 132.56 3.656C132.358 3.432 132.048 3.32 131.632 3.32C131.216 3.32 130.902 3.432 130.688 3.656C130.475 3.88 130.331 4.17867 130.256 4.552C130.182 4.91467 130.144 5.304 130.144 5.72V11.336C130.144 11.7307 130.182 12.1147 130.256 12.488C130.342 12.8507 130.491 13.1493 130.704 13.384C130.928 13.6187 131.238 13.736 131.632 13.736ZM138.746 7.624H147.898V8.792H138.746V7.624ZM147.498 7.624H148.746C148.746 7.624 148.73 8.04 148.714 8.2C148.49 13.16 148.266 15.016 147.69 15.624C147.37 16.024 147.018 16.136 146.458 16.184C145.93 16.232 144.922 16.216 143.914 16.168C143.898 15.8 143.738 15.304 143.514 14.952C144.57 15.048 145.562 15.064 145.946 15.064C146.266 15.064 146.458 15.032 146.618 14.856C147.05 14.424 147.29 12.6 147.498 7.848V7.624ZM140.938 1.896L142.202 2.264C141.05 4.968 139.162 7.352 137.146 8.888C136.922 8.632 136.41 8.168 136.106 7.944C138.154 6.568 139.93 4.36 140.938 1.896ZM146.522 1.864C147.562 4.008 149.626 6.44 151.37 7.672C151.05 7.928 150.602 8.408 150.362 8.744C148.586 7.304 146.57 4.712 145.37 2.328L146.522 1.864ZM142.122 7.944H143.402C143.034 11.448 142.202 14.76 137.738 16.36C137.594 16.056 137.242 15.576 136.97 15.32C141.162 13.928 141.802 10.968 142.122 7.944ZM157.578 4.088L158.65 3.56C159.722 4.728 160.746 6.312 161.21 7.4L160.058 8.024C159.642 6.92 158.602 5.272 157.578 4.088ZM152.314 13.304C153.946 12.664 156.506 11.576 158.906 10.52L159.178 11.688C156.954 12.712 154.522 13.784 152.746 14.552L152.314 13.304ZM161.914 11.192L162.842 10.408C164.362 11.912 166.346 13.992 167.29 15.304L166.266 16.248C165.37 14.92 163.45 12.76 161.914 11.192ZM164.138 2.392L165.434 2.52C164.618 9.912 162.746 13.992 157.146 16.328C156.97 16.072 156.49 15.544 156.186 15.288C161.722 13.272 163.418 9.352 164.138 2.392ZM154.266 2.44L155.498 2.392L155.77 12.968L154.538 13.016L154.266 2.44ZM175.274 6.744H181.85V7.944H175.274V6.744ZM168.57 14.328H182.938V15.528H168.57V14.328ZM174.586 1.8H175.85V14.968H174.586V1.8Z" fill="#4ECD2C"/>
<path d="M195.205 8.31836C193.9 7.87305 193.247 7.08984 193.247 5.96875C193.247 5.17969 193.591 4.53516 194.279 4.03516C194.915 3.57031 195.714 3.33789 196.675 3.33789C197.519 3.33789 198.242 3.51172 198.843 3.85938C199.671 4.33594 200.085 5.00391 200.085 5.86328C200.085 6.57031 199.849 7.12695 199.376 7.5332C198.997 7.86133 198.542 8.0957 198.011 8.23633V8.27148C198.703 8.49414 199.226 8.76758 199.581 9.0918C200.152 9.60352 200.437 10.2051 200.437 10.8965C200.437 11.6934 200.097 12.3359 199.417 12.8242C198.726 13.3164 197.814 13.5625 196.681 13.5625C195.716 13.5625 194.914 13.3848 194.273 13.0293C193.406 12.5527 192.972 11.8555 192.972 10.9375C192.972 10.2031 193.283 9.58398 193.904 9.08008C194.263 8.78711 194.697 8.54883 195.205 8.36523V8.31836ZM196.693 7.7207C197.279 7.57227 197.738 7.34375 198.07 7.03516C198.406 6.72656 198.574 6.38477 198.574 6.00977C198.574 5.58398 198.412 5.22461 198.087 4.93164C197.724 4.60352 197.253 4.43945 196.675 4.43945C196.246 4.43945 195.871 4.53711 195.55 4.73242C195.062 5.0293 194.818 5.45117 194.818 5.99805C194.818 6.40039 194.99 6.75195 195.333 7.05273C195.568 7.25977 195.88 7.4375 196.271 7.58594C196.525 7.68359 196.665 7.72852 196.693 7.7207ZM196.611 8.92188C195.966 9.10156 195.476 9.3457 195.14 9.6543C194.773 9.99023 194.589 10.373 194.589 10.8027C194.589 11.2715 194.789 11.6504 195.187 11.9395C195.581 12.2207 196.078 12.3613 196.675 12.3613C197.156 12.3613 197.578 12.2676 197.941 12.0801C198.507 11.7832 198.79 11.3477 198.79 10.7734C198.79 10.332 198.57 9.9375 198.128 9.58984C197.812 9.33984 197.423 9.14844 196.962 9.01562C196.736 8.94922 196.619 8.91797 196.611 8.92188ZM203.131 11.3301H205.1V13.2988H203.131V11.3301ZM210.033 7.57422H210.847C211.535 7.57422 212.087 7.45117 212.505 7.20508C213.017 6.9043 213.273 6.49219 213.273 5.96875C213.273 5.53516 213.085 5.19141 212.71 4.9375C212.378 4.71484 211.964 4.60352 211.468 4.60352C210.57 4.60352 209.707 4.94727 208.878 5.63477L208.029 4.58594C209.033 3.78125 210.214 3.37891 211.574 3.37891C212.484 3.37891 213.232 3.56641 213.818 3.94141C214.525 4.39844 214.878 5.04492 214.878 5.88086C214.878 6.52148 214.634 7.07031 214.146 7.52734C213.767 7.87891 213.267 8.09961 212.646 8.18945V8.23633C213.451 8.36914 214.066 8.63477 214.492 9.0332C214.933 9.44727 215.154 10 215.154 10.6914C215.154 11.6992 214.746 12.4531 213.929 12.9531C213.316 13.3281 212.511 13.5156 211.515 13.5156C209.945 13.5156 208.671 13.0352 207.695 12.0742L208.58 11.0195C208.892 11.3516 209.294 11.625 209.787 11.8398C210.384 12.1016 210.964 12.2324 211.527 12.2324C212.16 12.2324 212.654 12.0996 213.009 11.834C213.353 11.5801 213.525 11.1914 213.525 10.668C213.525 9.94922 213.179 9.43945 212.488 9.13867C212.023 8.93555 211.464 8.83398 210.812 8.83398H210.033V7.57422ZM226.292 3.57812H227.458L220.292 13.2988H219.131L226.292 3.57812ZM220.11 3.33789C220.864 3.33789 221.46 3.62891 221.897 4.21094C222.268 4.71094 222.454 5.33398 222.454 6.08008C222.454 6.75586 222.301 7.33008 221.997 7.80273C221.559 8.48242 220.926 8.82227 220.098 8.82227C219.364 8.82227 218.78 8.54883 218.346 8.00195C217.948 7.50195 217.749 6.86328 217.749 6.08594C217.749 5.16406 218.018 4.44531 218.557 3.92969C218.971 3.53516 219.489 3.33789 220.11 3.33789ZM220.098 4.41602C219.774 4.41602 219.512 4.56445 219.313 4.86133C219.11 5.16602 219.008 5.57422 219.008 6.08594C219.008 6.51172 219.085 6.87109 219.237 7.16406C219.436 7.55078 219.725 7.74414 220.104 7.74414C220.405 7.74414 220.653 7.61523 220.848 7.35742C221.079 7.04883 221.194 6.625 221.194 6.08594C221.194 5.56641 221.086 5.15234 220.872 4.84375C220.676 4.55859 220.419 4.41602 220.098 4.41602ZM226.491 8.05469C227.221 8.05469 227.803 8.32812 228.237 8.875C228.635 9.37891 228.835 10.0176 228.835 10.791C228.835 11.4785 228.678 12.0605 228.366 12.5371C227.928 13.2051 227.299 13.5391 226.479 13.5391C225.721 13.5391 225.126 13.248 224.692 12.666C224.321 12.166 224.135 11.543 224.135 10.7969C224.135 9.89062 224.397 9.18164 224.92 8.66992C225.338 8.25977 225.862 8.05469 226.491 8.05469ZM226.479 9.13281C226.178 9.13281 225.932 9.26172 225.741 9.51953C225.51 9.83203 225.395 10.2578 225.395 10.7969C225.395 11.2227 225.469 11.582 225.618 11.875C225.817 12.2656 226.108 12.4609 226.491 12.4609C226.815 12.4609 227.075 12.3125 227.27 12.0156C227.473 11.707 227.575 11.3008 227.575 10.7969C227.575 10.2812 227.467 9.86914 227.252 9.56055C227.057 9.27539 226.799 9.13281 226.479 9.13281Z" fill="#4ECD2C"/>
</svg>
